<svg width="437" height="552" viewBox="0 0 437 552" fill="none" xmlns="http://www.w3.org/2000/svg">
<path d="M3.59998 8.6001C3.59998 5.83868 5.83855 3.6001 8.59998 3.6001H427.6C430.361 3.6001 432.6 5.83867 432.6 8.6001V542.623C432.6 545.384 430.361 547.623 427.6 547.623H8.59998C5.83856 547.623 3.59998 545.384 3.59998 542.623V8.6001Z" fill="url(#paint0_linear_5656_381)"/>
<path d="M3.59998 3.6001H427.6C430.361 3.6001 432.6 5.83867 432.6 8.6001V487.402C432.6 490.164 430.361 492.402 427.6 492.402H3.59998V3.6001Z" fill="#BEA7E3"/>
<path d="M222.245 110.973C222.278 111.364 222.18 111.754 221.953 112.145C221.725 112.536 221.513 112.877 221.318 113.17C221.22 113.268 221.025 113.415 220.732 113.61C220.471 113.773 220.178 113.935 219.853 114.098C219.56 114.261 219.267 114.44 218.974 114.635C218.714 114.798 218.551 114.928 218.486 115.026C218.323 115.286 218.128 115.628 217.9 116.051C217.704 116.474 217.525 116.816 217.363 117.077C216.907 117.663 216.451 118.118 215.995 118.444C215.572 118.769 215.117 119.062 214.628 119.323C214.173 119.551 213.684 119.778 213.163 120.006C212.643 120.234 212.073 120.56 211.454 120.983L211.064 122.204C210.38 122.139 209.892 122.171 209.599 122.301C209.339 122.399 209.143 122.562 209.013 122.79C208.915 123.017 208.818 123.278 208.72 123.571C208.655 123.864 208.492 124.157 208.232 124.45C208.102 124.612 207.874 124.775 207.548 124.938C207.255 125.101 207.027 125.198 206.865 125.231C206.604 125.231 206.376 125.215 206.181 125.182C206.018 125.15 205.872 125.133 205.742 125.133C205.644 125.133 205.563 125.182 205.497 125.28C205.432 125.345 205.4 125.508 205.4 125.768H205.302C204.944 125.768 204.619 125.849 204.326 126.012C204.033 126.208 203.74 126.387 203.447 126.549C203.154 126.712 202.861 126.81 202.568 126.842C202.275 126.907 201.949 126.826 201.591 126.598H201.542C201.542 125.817 201.396 125.247 201.103 124.889C200.842 124.499 200.533 124.157 200.175 123.864C199.817 123.538 199.475 123.18 199.15 122.79C198.857 122.399 198.678 121.813 198.613 121.032C198.548 120.283 198.629 119.518 198.857 118.737C199.117 117.956 199.247 117.191 199.247 116.442C199.247 115.986 199.166 115.596 199.003 115.27C198.841 114.944 198.759 114.603 198.759 114.245C198.759 113.919 198.841 113.642 199.003 113.415C199.199 113.187 199.378 112.975 199.54 112.78C199.736 112.584 199.85 112.357 199.882 112.096C199.947 111.836 199.85 111.51 199.589 111.12V111.071C199.589 110.778 199.654 110.42 199.785 109.997C199.915 109.541 200.012 109.167 200.078 108.874C200.273 108.06 200.452 107.262 200.615 106.481C200.81 105.667 200.973 104.87 201.103 104.088C201.298 102.884 201.494 101.712 201.689 100.573C201.884 99.4009 202.177 98.2453 202.568 97.106L202.617 97.0571L202.275 96.5688H202.421C202.877 96.4386 203.17 96.1619 203.3 95.7388C203.463 95.3156 203.561 94.8599 203.593 94.3716C203.626 93.8833 203.642 93.4276 203.642 93.0044C203.675 92.5487 203.821 92.2231 204.081 92.0278C203.919 91.8651 203.756 91.7023 203.593 91.5396C203.463 91.3442 203.316 91.1652 203.154 91.0024C203.121 91.035 203.105 91.0838 203.105 91.1489C202.812 92.0929 202.356 92.9067 201.738 93.5903C201.152 94.2414 200.533 94.8924 199.882 95.5435C199.264 96.1619 198.694 96.8455 198.173 97.5942C197.652 98.3104 197.311 99.2218 197.148 100.329C196.594 101.273 196.09 102.249 195.634 103.258C195.211 104.267 194.755 105.277 194.267 106.286C193.779 107.295 193.242 108.271 192.656 109.215C192.102 110.127 191.435 110.957 190.654 111.706C190.654 111.771 190.654 111.852 190.654 111.95C190.686 112.047 190.703 112.129 190.703 112.194C190.703 112.487 190.637 112.731 190.507 112.926C190.377 113.122 190.231 113.317 190.068 113.512C189.905 113.675 189.726 113.854 189.531 114.049C189.335 114.212 189.173 114.391 189.042 114.586C189.042 115.107 188.912 115.596 188.652 116.051C188.391 116.474 188.098 116.881 187.773 117.272C187.48 117.663 187.203 118.053 186.943 118.444C186.682 118.834 186.552 119.225 186.552 119.616C186.552 120.43 186.406 121.048 186.113 121.471C185.82 121.862 185.462 122.187 185.038 122.448C184.648 122.676 184.225 122.92 183.769 123.18C183.346 123.408 182.988 123.75 182.695 124.206V124.254C182.597 124.222 182.483 124.238 182.353 124.303C182.223 124.368 182.076 124.352 181.913 124.254C181.751 124.189 181.637 124.027 181.572 123.766C181.539 123.473 181.507 123.164 181.474 122.838C181.441 122.513 181.409 122.22 181.376 121.959C181.344 121.699 181.279 121.536 181.181 121.471C181.311 121.374 181.49 121.048 181.718 120.495C181.946 119.941 182.158 119.323 182.353 118.639C182.581 117.956 182.776 117.305 182.939 116.686C183.134 116.068 183.264 115.661 183.329 115.465C183.46 115.042 183.574 114.619 183.671 114.196C183.801 113.773 183.948 113.349 184.111 112.926C184.176 112.764 184.241 112.584 184.306 112.389C184.404 112.161 184.469 111.966 184.501 111.803C184.534 111.543 184.55 111.266 184.55 110.973C184.583 110.68 184.615 110.387 184.648 110.094L184.745 110.045C185.006 110.045 185.185 109.931 185.283 109.704C185.413 109.443 185.494 109.167 185.527 108.874C185.559 108.548 185.559 108.222 185.527 107.897C185.527 107.571 185.543 107.327 185.576 107.165C185.836 105.602 186.178 103.991 186.601 102.331C187.024 100.638 187.236 99.0103 187.236 97.4478V96.7153C187.268 96.1945 187.317 95.6574 187.382 95.104C187.447 94.5506 187.464 93.9972 187.431 93.4438C187.431 92.8579 187.35 92.3045 187.187 91.7837C187.057 91.2629 186.829 90.7746 186.503 90.3188V90.27C185.462 90.27 184.501 90.5955 183.622 91.2466C182.744 91.8651 181.93 92.6463 181.181 93.5903C180.465 94.5018 179.83 95.4784 179.277 96.52C178.723 97.5291 178.268 98.4243 177.91 99.2056L177.812 99.3032L177.519 98.8638L177.47 98.9126C176.917 99.3032 176.526 99.7264 176.298 100.182C176.103 100.605 175.908 101.126 175.712 101.745C175.517 102.396 175.273 103.014 174.98 103.6C174.719 104.186 174.264 104.609 173.613 104.87L173.564 104.918C173.564 105.667 173.45 106.237 173.222 106.627C172.994 106.986 172.734 107.311 172.441 107.604C172.18 107.897 171.936 108.239 171.708 108.629C171.481 108.987 171.367 109.557 171.367 110.338L171.318 110.387C170.667 110.875 170.211 111.396 169.951 111.95C169.69 112.503 169.43 113.138 169.169 113.854C168.941 114.407 168.73 114.944 168.535 115.465C168.339 115.954 168.046 116.409 167.656 116.833L167.704 116.93C167.9 117.028 167.965 117.223 167.9 117.516C167.867 117.777 167.867 117.988 167.9 118.151C167.574 118.704 167.249 119.225 166.923 119.713C166.598 120.169 166.305 120.641 166.044 121.129C165.816 121.585 165.621 122.073 165.458 122.594C165.296 123.115 165.214 123.717 165.214 124.401V124.45H165.117C164.563 124.515 164.173 124.726 163.945 125.084C163.717 125.41 163.538 125.801 163.408 126.256C163.31 126.712 163.245 127.168 163.212 127.624C163.18 128.079 163.082 128.437 162.919 128.698C162.789 128.958 162.561 129.072 162.236 129.04C161.91 129.04 161.422 128.779 160.771 128.258L159.453 127.282C159.811 126.5 160.152 125.719 160.478 124.938C160.771 124.124 161.031 123.294 161.259 122.448C161.487 121.601 161.731 120.771 161.992 119.958C162.252 119.144 162.643 118.362 163.163 117.614V117.565C163.163 117.435 163.196 117.223 163.261 116.93C163.359 116.605 163.456 116.263 163.554 115.905C163.652 115.547 163.749 115.221 163.847 114.928C163.977 114.603 164.075 114.359 164.14 114.196C164.4 113.642 164.628 113.105 164.824 112.584C165.051 112.064 165.165 111.478 165.165 110.827C165.458 110.371 165.686 109.883 165.849 109.362C166.012 108.808 166.158 108.255 166.288 107.702C166.451 107.148 166.63 106.611 166.826 106.09C167.053 105.569 167.363 105.097 167.753 104.674C167.753 104.642 167.802 104.43 167.9 104.04C168.03 103.649 168.16 103.226 168.29 102.77C168.421 102.314 168.535 101.875 168.632 101.452C168.762 101.028 168.844 100.768 168.876 100.67C169.234 99.4985 169.527 98.3918 169.755 97.3501C170.016 96.2759 170.146 95.1203 170.146 93.8833C170.146 93.6229 170.13 93.3625 170.097 93.1021C170.064 92.8091 170.064 92.5324 170.097 92.272C170.65 91.4256 171.122 90.4979 171.513 89.4888C171.904 88.4797 172.18 87.4868 172.343 86.5103V86.4614C172.245 86.2661 172.099 86.0057 171.904 85.6802C171.708 85.3547 171.529 85.1431 171.367 85.0454C171.009 84.8826 170.634 84.8826 170.244 85.0454C169.853 85.1756 169.446 85.3058 169.023 85.436C168.6 85.5662 168.193 85.5988 167.802 85.5337C167.411 85.4686 167.053 85.1431 166.728 84.5571V84.4595C166.305 84.6222 165.93 84.8175 165.605 85.0454C165.312 85.2407 164.889 85.2407 164.335 85.0454L164.286 84.9966C164.286 84.6385 164.189 84.3293 163.994 84.0688C163.798 83.7759 163.619 83.4829 163.456 83.1899C163.294 83.3853 163.098 83.4829 162.87 83.4829C162.643 83.4829 162.398 83.4504 162.138 83.3853C161.878 83.3201 161.634 83.2388 161.406 83.1411C161.145 83.0109 160.934 82.9132 160.771 82.8481L160.673 82.7993C160.576 82.3761 160.397 82.0669 160.136 81.8716C159.876 81.6437 159.599 81.4484 159.306 81.2856C159.013 81.1229 158.769 80.9438 158.574 80.7485C158.346 80.5207 158.232 80.1951 158.232 79.772C158.232 79.2837 158.362 78.8605 158.622 78.5024C158.85 78.1118 159.143 77.8351 159.501 77.6724C159.859 77.5096 160.25 77.4608 160.673 77.5259C161.096 77.591 161.487 77.8026 161.845 78.1606V78.2095C162.008 78.3722 162.252 78.5675 162.578 78.7954C162.903 79.0233 163.229 79.2674 163.554 79.5278C163.912 79.7557 164.254 79.951 164.579 80.1138C164.938 80.2765 165.231 80.3579 165.458 80.3579C165.589 80.2603 165.703 80.244 165.8 80.3091C165.93 80.3416 166.028 80.4067 166.093 80.5044C166.191 80.6021 166.288 80.716 166.386 80.8462C166.484 80.9438 166.581 80.9927 166.679 80.9927C166.907 80.9276 167.053 80.7811 167.119 80.5532L167.167 80.6021C167.46 80.6997 167.77 80.6672 168.095 80.5044C168.453 80.3091 168.811 80.13 169.169 79.9673C169.56 79.772 169.951 79.6743 170.341 79.6743C170.764 79.6418 171.171 79.8371 171.562 80.2603C171.627 80.1626 171.757 80.0812 171.953 80.0161C172.148 79.951 172.311 79.9185 172.441 79.9185C172.864 79.9185 173.238 80.1138 173.564 80.5044C174.313 81.4484 174.768 82.5063 174.931 83.6782C175.094 84.8501 175.175 86.0057 175.175 87.145V88.561V88.6099C174.915 89.0981 174.687 89.5864 174.492 90.0747C174.329 90.563 174.247 91.0838 174.247 91.6372C174.247 91.7349 174.247 91.8651 174.247 92.0278C174.28 92.1906 174.313 92.3696 174.345 92.5649C174.378 92.7277 174.394 92.8905 174.394 93.0532C174.426 93.1834 174.443 93.2648 174.443 93.2974C174.345 93.8833 174.199 94.4692 174.003 95.0552C173.808 95.6411 173.613 96.2108 173.417 96.7642C173.059 97.7733 172.75 98.7987 172.49 99.8403C172.229 100.849 172.066 101.891 172.001 102.965C172.652 101.989 172.978 100.866 172.978 99.5962L173.027 99.5474C173.841 98.8963 174.508 98.1965 175.029 97.4478C175.55 96.6665 176.054 95.8364 176.542 94.9575C177.096 93.981 177.698 93.0207 178.349 92.0767C179.033 91.1326 179.928 90.4491 181.035 90.0259C181.393 89.6678 181.718 89.3097 182.011 88.9517C182.337 88.5936 182.727 88.3332 183.183 88.1704L183.232 88.1216L183.525 88.6099C183.655 88.5122 183.753 88.4146 183.818 88.3169C183.915 88.2192 184.013 88.1216 184.111 88.0239C184.436 87.6984 184.632 87.4868 184.697 87.3892C184.762 87.259 184.794 86.966 184.794 86.5103C185.283 86.1196 185.722 85.908 186.113 85.8755C186.536 85.8429 186.91 85.9243 187.236 86.1196C187.594 86.2824 187.952 86.5103 188.31 86.8032C188.668 87.0962 189.042 87.3566 189.433 87.5845V87.6333C189.693 89.2935 189.921 90.9373 190.117 92.5649C190.344 94.1925 190.458 95.8527 190.458 97.5454C190.458 98.4243 190.426 99.2218 190.361 99.938C190.328 100.622 190.247 101.305 190.117 101.989C190.019 102.64 189.872 103.307 189.677 103.991C189.514 104.674 189.319 105.423 189.091 106.237V106.286C189.547 106.774 189.954 106.937 190.312 106.774C190.703 106.611 191.061 106.318 191.386 105.895C191.712 105.439 192.005 104.967 192.265 104.479C192.558 103.958 192.835 103.568 193.095 103.307H193.144C193.111 102.982 193.209 102.591 193.437 102.135C193.665 101.647 193.925 101.159 194.218 100.67C194.511 100.182 194.772 99.7264 194.999 99.3032C195.227 98.8475 195.325 98.522 195.292 98.3267C195.943 97.3826 196.529 96.4549 197.05 95.5435C197.604 94.5994 198.108 93.6229 198.564 92.6138C198.727 92.744 198.857 92.744 198.954 92.6138C199.052 92.4836 199.15 92.3696 199.247 92.272H199.296C199.426 91.4907 199.687 90.856 200.078 90.3677C200.501 89.8468 200.956 89.3911 201.445 89.0005C201.966 88.5773 202.503 88.1704 203.056 87.7798C203.609 87.3892 204.114 86.9334 204.57 86.4126C205.286 86.4126 205.921 86.5591 206.474 86.8521C207.06 87.1125 207.385 87.6659 207.451 88.5122C207.288 89.033 207.19 89.5701 207.158 90.1235C207.158 90.6444 207.141 91.1815 207.109 91.7349C207.109 92.2882 207.076 92.8416 207.011 93.395C206.946 93.9159 206.8 94.4204 206.572 94.9087C206.572 94.9738 206.523 95.1854 206.425 95.5435C206.328 95.9015 206.214 96.3084 206.083 96.7642C205.986 97.1873 205.872 97.5942 205.742 97.9849C205.611 98.3755 205.53 98.6196 205.497 98.7173C205.042 100.117 204.684 101.452 204.423 102.721C204.163 103.958 204.033 105.342 204.033 106.872C203.902 107.002 203.772 107.132 203.642 107.262C203.544 107.392 203.43 107.506 203.3 107.604L203.349 107.653C203.479 107.978 203.544 108.271 203.544 108.532C203.544 108.89 203.447 109.28 203.251 109.704C203.089 110.127 202.926 110.55 202.763 110.973C202.633 111.364 202.568 111.771 202.568 112.194C202.568 112.584 202.763 112.943 203.154 113.268C203.154 113.789 203.072 114.359 202.91 114.977C202.747 115.563 202.6 116.165 202.47 116.784C202.372 117.37 202.324 117.956 202.324 118.542C202.324 119.127 202.486 119.665 202.812 120.153L202.861 120.202C203.382 120.202 203.772 120.153 204.033 120.055C204.293 119.958 204.505 119.892 204.667 119.86C204.863 119.827 205.074 119.86 205.302 119.958C205.53 120.023 205.888 120.234 206.376 120.592L209.16 118.688C209.55 118.395 209.892 118.086 210.185 117.76C210.51 117.435 210.836 117.142 211.161 116.881C211.487 116.621 211.845 116.426 212.236 116.295C212.626 116.165 213.098 116.149 213.652 116.247L213.701 116.149C214.156 115.498 214.726 114.944 215.41 114.489C216.126 114.033 216.874 113.626 217.656 113.268C218.437 112.877 219.234 112.519 220.048 112.194C220.862 111.836 221.594 111.429 222.245 110.973ZM255.113 110.534C255.243 111.022 255.194 111.445 254.966 111.803C254.738 112.129 254.429 112.422 254.038 112.682C253.68 112.943 253.273 113.187 252.818 113.415C252.395 113.61 252.036 113.838 251.744 114.098C250.279 114.424 248.944 114.668 247.74 114.831C246.568 114.961 245.266 115.14 243.833 115.368C243.41 115.433 243.003 115.433 242.613 115.368C242.255 115.27 241.88 115.237 241.49 115.27C241.262 115.27 241.05 115.27 240.855 115.27C240.66 115.237 240.464 115.237 240.269 115.27C239.52 115.335 239.032 115.596 238.804 116.051C238.576 116.474 238.381 116.979 238.218 117.565C238.088 118.118 237.909 118.655 237.681 119.176C237.486 119.665 237.046 120.006 236.363 120.202C236.298 120.364 236.314 120.511 236.411 120.641C236.542 120.771 236.639 120.885 236.704 120.983C236.151 121.146 235.777 121.439 235.581 121.862C235.419 122.285 235.272 122.708 235.142 123.131C235.012 123.555 234.816 123.913 234.556 124.206C234.328 124.499 233.872 124.596 233.189 124.499C232.18 125.573 230.992 126.435 229.624 127.086C228.257 127.77 226.841 128.209 225.376 128.405C225.116 128.275 224.856 128.112 224.595 127.917C224.367 127.721 224.123 127.542 223.863 127.379C223.635 127.217 223.374 127.086 223.081 126.989C222.821 126.924 222.512 126.924 222.154 126.989C222.121 126.305 221.991 125.67 221.763 125.084C221.503 124.499 221.177 123.945 220.786 123.424C220.721 122.838 220.803 122.301 221.031 121.813C221.226 121.292 221.438 120.788 221.665 120.299C221.893 119.811 222.089 119.323 222.251 118.834C222.382 118.314 222.349 117.728 222.154 117.077C222.479 116.881 222.691 116.653 222.788 116.393C222.919 116.133 223 115.872 223.033 115.612C223.098 115.319 223.179 115.058 223.277 114.831C223.374 114.57 223.602 114.359 223.96 114.196C223.7 113.415 223.732 112.845 224.058 112.487C224.416 112.096 224.839 111.754 225.328 111.461C225.816 111.168 226.272 110.843 226.695 110.485C227.118 110.127 227.281 109.59 227.183 108.874C227.378 108.678 227.606 108.515 227.867 108.385C228.127 108.255 228.371 108.141 228.599 108.043C228.859 107.913 229.104 107.783 229.331 107.653C229.559 107.523 229.771 107.344 229.966 107.116C229.738 106.953 229.624 106.79 229.624 106.627C229.657 106.465 229.706 106.302 229.771 106.139C229.836 105.944 229.901 105.749 229.966 105.553C230.064 105.358 230.064 105.163 229.966 104.967C230.845 105.097 231.61 104.984 232.261 104.625C232.945 104.235 233.579 103.844 234.165 103.454C234.784 103.063 235.402 102.786 236.021 102.624C236.639 102.461 237.356 102.656 238.169 103.209C238.234 103.437 238.332 103.779 238.462 104.235C238.625 104.658 238.772 105.097 238.902 105.553C239.064 106.009 239.211 106.448 239.341 106.872C239.471 107.295 239.553 107.604 239.585 107.799C239.585 107.962 239.585 108.222 239.585 108.581C239.585 108.939 239.585 109.329 239.585 109.752C239.585 110.143 239.585 110.517 239.585 110.875C239.585 111.234 239.585 111.51 239.585 111.706C240.529 112.259 241.473 112.601 242.417 112.731C243.361 112.829 244.305 112.601 245.249 112.047C245.607 112.373 245.949 112.471 246.275 112.34C246.6 112.178 246.91 111.999 247.203 111.803C247.528 111.608 247.854 111.51 248.179 111.51C248.505 111.478 248.83 111.738 249.156 112.292C249.611 111.868 250.083 111.608 250.572 111.51C251.06 111.38 251.564 111.315 252.085 111.315C252.606 111.282 253.111 111.234 253.599 111.168C254.12 111.103 254.624 110.892 255.113 110.534ZM236.363 111.364C236.363 110.875 236.444 110.355 236.607 109.801C236.77 109.248 236.9 108.711 236.997 108.19C237.095 107.637 237.079 107.116 236.949 106.627C236.851 106.139 236.542 105.7 236.021 105.309C235.663 105.504 235.37 105.781 235.142 106.139C234.914 106.465 234.686 106.806 234.458 107.165C234.231 107.49 233.954 107.767 233.628 107.995C233.335 108.222 232.945 108.288 232.456 108.19C232.294 108.581 232.294 108.906 232.456 109.167C232.619 109.394 232.814 109.622 233.042 109.85C233.27 110.045 233.482 110.257 233.677 110.485C233.905 110.713 233.986 111.006 233.921 111.364C234.051 111.461 234.231 111.559 234.458 111.657C234.686 111.722 234.914 111.771 235.142 111.803C235.402 111.803 235.647 111.771 235.874 111.706C236.102 111.64 236.265 111.527 236.363 111.364ZM236.021 115.27C235.37 115.27 234.8 115.124 234.312 114.831C233.856 114.505 233.384 114.147 232.896 113.756C232.44 113.366 231.952 113.008 231.431 112.682C230.943 112.324 230.341 112.112 229.624 112.047C229.331 112.438 228.99 112.812 228.599 113.17C228.208 113.496 227.867 113.854 227.574 114.245C227.281 114.635 227.069 115.058 226.939 115.514C226.841 115.97 226.923 116.491 227.183 117.077C226.434 117.435 225.93 117.956 225.669 118.639C225.409 119.29 225.23 120.006 225.132 120.788C225.067 121.569 225.002 122.35 224.937 123.131C224.872 123.913 224.66 124.612 224.302 125.231L225.376 124.499C225.507 124.564 225.604 124.661 225.669 124.792C225.767 124.922 225.783 125.068 225.718 125.231C225.979 124.971 226.272 124.775 226.597 124.645C226.923 124.482 227.248 124.368 227.574 124.303C227.932 124.206 228.273 124.124 228.599 124.059C228.957 123.994 229.299 123.896 229.624 123.766C230.438 124.222 231.024 124.319 231.382 124.059C231.74 123.799 232.033 123.408 232.261 122.887C232.489 122.366 232.733 121.829 232.994 121.276C233.254 120.69 233.677 120.332 234.263 120.202L233.921 119.86C234.475 119.176 234.963 118.476 235.386 117.76C235.842 117.012 236.053 116.181 236.021 115.27ZM281.974 124.108C282.007 124.499 281.941 124.792 281.779 124.987C281.616 125.182 281.388 125.329 281.095 125.426C280.835 125.524 280.542 125.605 280.216 125.67C279.891 125.703 279.614 125.784 279.386 125.915C278.442 125.817 277.531 125.687 276.652 125.524C275.773 125.329 274.959 125.052 274.21 124.694C273.462 124.303 272.778 123.799 272.16 123.18C271.574 122.562 271.069 121.78 270.646 120.836C271.069 120.153 271.216 119.404 271.085 118.59C270.955 117.744 270.825 116.93 270.695 116.149C270.597 115.368 270.613 114.652 270.744 114C270.906 113.349 271.476 112.829 272.453 112.438C272.387 112.08 272.387 111.689 272.453 111.266C272.55 110.843 272.436 110.485 272.111 110.192C270.971 110.583 269.979 111.136 269.132 111.852C268.286 112.568 267.472 113.349 266.691 114.196C265.942 115.042 265.177 115.905 264.396 116.784C263.647 117.63 262.817 118.379 261.906 119.03C261.482 119.062 261.027 119.046 260.538 118.981C260.083 118.883 259.692 119.014 259.367 119.372C259.399 119.599 259.481 119.795 259.611 119.958C259.741 120.12 259.839 120.283 259.904 120.446C260.001 120.609 260.05 120.788 260.05 120.983C260.05 121.146 259.936 121.341 259.708 121.569C259.383 121.894 259.025 122.171 258.634 122.399C258.276 122.594 257.918 122.822 257.56 123.083C257.234 123.31 256.958 123.587 256.73 123.913C256.502 124.238 256.388 124.678 256.388 125.231C256.193 125.133 256.014 125.117 255.851 125.182C255.688 125.215 255.542 125.296 255.411 125.426C255.249 125.556 255.102 125.703 254.972 125.866C254.842 126.028 254.712 126.159 254.581 126.256C254.516 126.419 254.533 126.549 254.63 126.647C254.728 126.777 254.842 126.907 254.972 127.038C254.842 127.396 254.679 127.607 254.484 127.672C254.256 127.77 254.028 127.786 253.8 127.721C253.54 127.656 253.296 127.542 253.068 127.379C252.807 127.249 252.579 127.135 252.384 127.038C252.286 126.614 252.221 126.126 252.189 125.573C252.156 125.019 252.173 124.482 252.238 123.961C252.303 123.408 252.433 122.887 252.628 122.399C252.824 121.911 253.117 121.504 253.507 121.178C253.637 121.081 253.719 121.032 253.751 121.032C253.784 120.999 253.8 120.983 253.8 120.983C253.8 120.983 253.816 120.983 253.849 120.983C253.882 120.95 253.947 120.885 254.044 120.788C254.305 120.495 254.484 120.185 254.581 119.86C254.679 119.502 254.76 119.144 254.826 118.786C254.891 118.428 254.988 118.086 255.119 117.76C255.216 117.402 255.411 117.093 255.704 116.833C255.574 116.312 255.574 115.856 255.704 115.465C255.867 115.042 256.063 114.652 256.29 114.293C256.551 113.903 256.795 113.528 257.023 113.17C257.283 112.78 257.446 112.357 257.511 111.901C257.544 111.738 257.544 111.592 257.511 111.461C257.511 111.299 257.511 111.136 257.511 110.973C257.446 110.452 257.495 110.062 257.658 109.801C257.853 109.508 258.081 109.28 258.341 109.118C258.634 108.922 258.927 108.727 259.22 108.532C259.546 108.336 259.822 108.043 260.05 107.653C260.994 108.109 261.548 108.727 261.71 109.508C261.906 110.257 261.971 111.103 261.906 112.047C261.352 112.405 260.929 112.91 260.636 113.561C260.343 114.18 260.148 114.782 260.05 115.368C260.115 115.563 260.197 115.677 260.294 115.709C260.425 115.709 260.555 115.693 260.685 115.661C260.848 115.596 260.994 115.53 261.124 115.465C261.255 115.4 261.385 115.368 261.515 115.368C262.687 114.554 263.842 113.642 264.982 112.633C266.154 111.624 267.065 110.469 267.716 109.167C268.66 108.711 269.555 108.19 270.402 107.604C271.248 106.986 272.176 106.53 273.185 106.237L274.308 105.114C274.471 105.374 274.666 105.439 274.894 105.309C275.122 105.146 275.35 104.967 275.578 104.772C275.805 104.577 276.017 104.463 276.212 104.43C276.44 104.398 276.652 104.625 276.847 105.114C277.173 105.96 277.254 106.79 277.091 107.604C276.928 108.385 276.668 109.167 276.31 109.948C275.984 110.696 275.643 111.461 275.285 112.243C274.926 113.024 274.715 113.821 274.65 114.635C274.65 114.831 274.65 115.042 274.65 115.27C274.65 115.465 274.634 115.677 274.601 115.905C274.536 116.588 274.438 117.337 274.308 118.151C274.21 118.932 274.259 119.648 274.454 120.299C274.617 120.885 274.959 121.406 275.48 121.862C276.001 122.318 276.456 122.773 276.847 123.229C277.075 123.196 277.303 123.213 277.531 123.278C277.759 123.343 277.97 123.408 278.165 123.473C278.393 123.538 278.605 123.571 278.8 123.571C278.995 123.538 279.191 123.424 279.386 123.229C279.614 123.131 279.826 123.148 280.021 123.278C280.249 123.375 280.46 123.506 280.656 123.668C280.851 123.831 281.046 123.978 281.242 124.108C281.469 124.206 281.714 124.206 281.974 124.108ZM158.128 220.194C157.835 221.008 157.38 221.756 156.761 222.44C156.175 223.124 155.54 223.791 154.857 224.442C154.173 225.093 153.49 225.744 152.806 226.395C152.155 227.014 151.602 227.665 151.146 228.348C150.853 228.25 150.592 228.283 150.365 228.446C150.169 228.609 149.99 228.82 149.828 229.081C149.469 229.211 149.095 229.357 148.704 229.52C148.346 229.65 147.988 229.813 147.63 230.008C147.305 230.204 146.995 230.431 146.703 230.692C146.442 230.952 146.247 231.278 146.117 231.668C145.498 231.701 144.961 231.831 144.505 232.059C144.05 232.254 143.61 232.466 143.187 232.694C142.764 232.922 142.308 233.117 141.82 233.28C141.331 233.41 140.745 233.426 140.062 233.329C139.932 233.817 139.753 234.045 139.525 234.012C139.329 234.012 139.118 233.963 138.89 233.866C138.662 233.736 138.434 233.67 138.206 233.67C137.979 233.638 137.8 233.866 137.669 234.354C137.441 234.354 137.197 234.338 136.937 234.305C136.709 234.305 136.481 234.305 136.253 234.305C136.058 234.338 135.863 234.403 135.667 234.5C135.505 234.598 135.374 234.777 135.277 235.038C134.333 235.038 133.34 235.103 132.298 235.233C131.257 235.363 130.215 235.428 129.173 235.428C128.164 235.428 127.171 235.298 126.195 235.038C125.251 234.81 124.404 234.321 123.656 233.573C123.395 233.312 123.184 233.052 123.021 232.792C122.858 232.531 122.679 232.238 122.484 231.913C122.386 231.75 122.288 231.603 122.191 231.473C122.093 231.31 121.995 231.131 121.898 230.936C121.637 230.35 121.491 229.748 121.458 229.129C121.426 228.511 121.426 227.892 121.458 227.274C121.458 226.655 121.458 226.053 121.458 225.467C121.458 224.849 121.344 224.247 121.117 223.661C121.117 223.107 121.247 222.619 121.507 222.196C121.735 221.74 121.995 221.301 122.288 220.877C122.581 220.454 122.858 220.031 123.119 219.608C123.379 219.152 123.525 218.664 123.558 218.143C123.33 217.59 123.346 217.053 123.607 216.532C123.867 216.011 124.128 215.523 124.388 215.067C124.486 214.904 124.567 214.741 124.632 214.579C124.73 214.383 124.828 214.188 124.925 213.993C125.023 213.797 125.153 213.602 125.316 213.407C125.479 213.211 125.625 213.032 125.755 212.87C126.178 212.284 126.602 211.714 127.025 211.161C127.448 210.607 127.871 210.038 128.294 209.452C128.587 209.061 128.864 208.67 129.124 208.28C129.417 207.889 129.694 207.482 129.954 207.059C130.085 206.864 130.215 206.652 130.345 206.424C130.475 206.164 130.606 205.952 130.736 205.79C130.898 205.594 131.175 205.383 131.566 205.155C131.956 204.894 132.266 204.699 132.494 204.569C133.145 204.243 133.844 204.015 134.593 203.885C135.342 203.722 136.042 203.706 136.693 203.836C137.344 203.967 137.913 204.276 138.402 204.764C138.923 205.22 139.264 205.887 139.427 206.766C139.492 207.189 139.509 207.612 139.476 208.036C139.476 208.426 139.492 208.817 139.525 209.208C139.59 209.598 139.704 209.972 139.867 210.331C140.029 210.656 140.322 210.965 140.745 211.258C140.387 211.812 140.078 212.381 139.818 212.967C139.59 213.553 139.329 214.139 139.036 214.725C139.362 214.823 139.492 215.018 139.427 215.311C139.395 215.571 139.395 215.816 139.427 216.043C138.971 216.402 138.662 216.841 138.499 217.362C138.337 217.883 138.206 218.42 138.109 218.973C138.011 219.494 137.881 219.999 137.718 220.487C137.588 220.943 137.328 221.317 136.937 221.61C137.132 222.652 136.807 223.335 135.96 223.661C135.374 223.889 134.984 223.937 134.788 223.807C134.593 223.644 134.447 223.433 134.349 223.172C134.284 222.879 134.186 222.603 134.056 222.342C133.926 222.082 133.649 221.952 133.226 221.952C133.291 221.561 133.34 221.17 133.372 220.78C133.438 220.357 133.519 219.95 133.617 219.559C133.714 219.168 133.861 218.794 134.056 218.436C134.251 218.078 134.528 217.752 134.886 217.459C134.593 217.297 134.479 217.053 134.544 216.727C134.609 216.369 134.609 216.043 134.544 215.75C134.772 215.099 135.114 214.416 135.57 213.7C136.025 212.984 136.432 212.267 136.79 211.551C137.148 210.803 137.376 210.054 137.474 209.305C137.572 208.556 137.393 207.824 136.937 207.108C136.807 206.913 136.611 206.75 136.351 206.62C136.123 206.489 135.895 206.424 135.667 206.424C135.439 206.424 135.244 206.506 135.081 206.668C134.919 206.831 134.854 207.092 134.886 207.45L135.277 207.792C134.658 207.987 134.105 208.312 133.617 208.768C133.161 209.224 132.721 209.728 132.298 210.282C131.875 210.803 131.452 211.34 131.029 211.893C130.638 212.446 130.215 212.918 129.759 213.309C129.531 214.221 129.173 215.067 128.685 215.848C128.229 216.629 127.773 217.411 127.318 218.192C127.057 218.68 126.862 219.087 126.732 219.413C126.634 219.738 126.488 220.129 126.292 220.584C126.227 220.747 126.146 220.91 126.048 221.073C125.983 221.203 125.918 221.349 125.853 221.512C125.658 222.228 125.479 222.928 125.316 223.612C125.186 224.295 124.811 224.881 124.193 225.37C124.29 225.63 124.372 225.874 124.437 226.102C124.535 226.33 124.697 226.558 124.925 226.786C124.567 226.981 124.356 227.225 124.29 227.518C124.258 227.778 124.274 228.071 124.339 228.397C124.437 228.69 124.551 228.999 124.681 229.325C124.844 229.618 124.925 229.911 124.925 230.204C125.316 230.236 125.674 230.383 125.999 230.643C126.325 230.903 126.65 231.164 126.976 231.424C127.334 231.685 127.676 231.896 128.001 232.059C128.327 232.189 128.685 232.14 129.076 231.913C129.336 231.978 129.58 231.994 129.808 231.961C130.036 231.929 130.264 231.913 130.492 231.913C130.719 231.88 130.931 231.913 131.126 232.01C131.354 232.108 131.582 232.303 131.81 232.596C132.038 232.108 132.347 231.815 132.738 231.717C133.128 231.62 133.535 231.571 133.958 231.571C134.414 231.571 134.837 231.555 135.228 231.522C135.651 231.489 136.009 231.294 136.302 230.936C136.693 231.262 137.035 231.392 137.328 231.327C137.653 231.262 137.946 231.115 138.206 230.887C138.499 230.659 138.792 230.431 139.085 230.204C139.378 229.976 139.704 229.862 140.062 229.862C140.843 229.862 141.527 229.748 142.113 229.52C142.699 229.292 143.268 229.032 143.822 228.739C144.375 228.413 144.928 228.104 145.482 227.811C146.068 227.518 146.735 227.306 147.484 227.176C147.809 226.688 148.184 226.346 148.607 226.151C149.063 225.923 149.518 225.728 149.974 225.565C150.462 225.37 150.918 225.142 151.341 224.881C151.797 224.588 152.204 224.133 152.562 223.514C153.213 223.547 153.75 223.368 154.173 222.977C154.596 222.554 155.003 222.114 155.394 221.659C155.785 221.17 156.175 220.764 156.566 220.438C156.989 220.08 157.51 219.999 158.128 220.194ZM192.509 228.739C192.053 229.52 191.695 230.155 191.435 230.643C191.207 231.099 190.963 231.489 190.703 231.815C190.475 232.108 190.198 232.385 189.872 232.645C189.579 232.873 189.156 233.166 188.603 233.524C188.245 233.849 187.887 234.126 187.529 234.354C187.236 234.582 186.943 234.777 186.65 234.94C186.389 235.103 186.178 235.184 186.015 235.184C185.95 235.184 185.885 235.168 185.82 235.135C185.755 235.135 185.689 235.135 185.624 235.135C185.429 235.135 185.234 235.135 185.038 235.135C184.876 235.168 184.729 235.054 184.599 234.793C184.501 234.891 184.42 235.005 184.355 235.135C184.29 235.265 184.225 235.379 184.16 235.477C184.094 235.607 183.997 235.705 183.867 235.77C183.769 235.835 183.622 235.835 183.427 235.77L183.183 235.477L182.451 236.112C181.539 235.656 180.66 235.265 179.814 234.94C179 234.647 178.268 234.289 177.617 233.866C176.966 233.443 176.412 232.905 175.956 232.254C175.501 231.571 175.175 230.643 174.98 229.471C174.817 229.276 174.638 229.113 174.443 228.983C174.247 228.82 174.02 228.771 173.759 228.836C173.434 229.39 173.043 229.862 172.587 230.252C172.132 230.643 171.676 231.066 171.22 231.522C171.057 231.685 170.927 231.864 170.829 232.059C170.732 232.254 170.602 232.433 170.439 232.596C170.178 232.889 169.869 233.101 169.511 233.231C169.153 233.329 168.795 233.426 168.437 233.524C168.079 233.622 167.737 233.784 167.411 234.012C167.119 234.24 166.907 234.631 166.777 235.184C166.386 234.956 165.995 234.891 165.605 234.989C165.312 235.054 165.003 235.119 164.677 235.184C164.352 235.282 164.026 235.331 163.701 235.331C163.408 235.363 163.115 235.331 162.822 235.233C162.529 235.135 162.268 234.924 162.04 234.598C161.585 234.793 161.161 234.777 160.771 234.549C160.38 234.354 160.006 234.077 159.648 233.719C159.322 233.329 158.997 232.922 158.671 232.499C158.346 232.075 158.036 231.766 157.744 231.571C157.548 231.05 157.564 230.611 157.792 230.252C157.988 229.862 158.216 229.504 158.476 229.178C158.704 228.82 158.867 228.478 158.964 228.153C159.062 227.795 158.915 227.372 158.525 226.883C158.85 226.395 159.143 225.89 159.404 225.37C159.664 224.816 159.925 224.279 160.185 223.758C160.478 223.205 160.771 222.684 161.064 222.196C161.389 221.675 161.78 221.236 162.236 220.877C162.04 220.65 161.943 220.438 161.943 220.243C161.943 220.015 161.992 219.803 162.089 219.608C162.187 219.38 162.301 219.168 162.431 218.973C162.561 218.745 162.659 218.534 162.724 218.338L164.14 217.655L163.798 216.483C164.156 216.548 164.417 216.532 164.579 216.434C164.775 216.336 164.905 216.19 164.97 215.995C165.068 215.799 165.133 215.588 165.165 215.36C165.231 215.099 165.312 214.872 165.41 214.676C165.572 214.383 165.816 214.172 166.142 214.042C166.826 213.521 167.493 212.967 168.144 212.381C168.828 211.795 169.495 211.226 170.146 210.672C170.829 210.119 171.529 209.598 172.245 209.11C172.962 208.589 173.743 208.15 174.589 207.792C175.175 207.889 175.631 208.068 175.956 208.329C176.314 208.589 176.575 208.898 176.738 209.256C176.933 209.614 177.079 210.021 177.177 210.477C177.275 210.9 177.372 211.323 177.47 211.747C177.633 212.3 177.828 212.772 178.056 213.163C178.284 213.553 178.675 213.879 179.228 214.139C178.772 214.92 178.593 215.702 178.691 216.483C178.788 217.232 178.886 218.029 178.984 218.875C179.081 219.657 179.065 220.422 178.935 221.17C178.837 221.919 178.365 222.586 177.519 223.172C177.454 223.4 177.438 223.644 177.47 223.905C177.503 224.165 177.519 224.426 177.519 224.686C177.519 224.946 177.47 225.191 177.372 225.418C177.275 225.646 177.096 225.825 176.835 225.956C177.128 226.314 177.275 226.672 177.275 227.03C177.307 227.388 177.324 227.73 177.324 228.055C177.356 228.381 177.438 228.674 177.568 228.934C177.731 229.194 178.089 229.39 178.642 229.52C178.74 229.943 178.821 230.269 178.886 230.497C178.984 230.692 179.081 230.855 179.179 230.985C179.309 231.115 179.472 231.245 179.667 231.375C179.863 231.473 180.123 231.636 180.449 231.864C180.709 231.929 181.002 231.929 181.328 231.864C181.653 231.799 181.913 231.896 182.109 232.157C182.272 231.994 182.467 231.913 182.695 231.913C182.923 231.88 183.134 231.88 183.329 231.913L183.964 232.987C184.322 232.726 184.729 232.499 185.185 232.303C185.641 232.108 186.08 231.945 186.503 231.815C186.992 231.685 187.48 231.571 187.968 231.473L192.509 228.739ZM173.759 212.04C173.466 212.3 173.108 212.56 172.685 212.821C172.262 213.081 171.839 213.358 171.415 213.651C171.025 213.944 170.683 214.269 170.39 214.627C170.097 214.953 169.918 215.344 169.853 215.799C169.104 215.93 168.583 216.239 168.29 216.727C167.997 217.215 167.753 217.752 167.558 218.338C167.363 218.924 167.151 219.51 166.923 220.096C166.695 220.65 166.288 221.089 165.703 221.415C165.507 221.545 165.328 221.61 165.165 221.61C165.198 221.61 165.1 221.675 164.872 221.805C164.514 222.066 164.205 222.391 163.945 222.782C163.684 223.172 163.456 223.596 163.261 224.051C163.098 224.507 162.936 224.979 162.773 225.467C162.643 225.923 162.512 226.346 162.382 226.737C161.926 226.802 161.585 226.9 161.357 227.03C161.129 227.16 160.982 227.306 160.917 227.469C160.885 227.599 160.901 227.762 160.966 227.958C161.031 228.153 161.129 228.364 161.259 228.592C161.389 228.788 161.52 229.015 161.65 229.276C161.813 229.536 161.943 229.797 162.04 230.057C162.138 230.318 162.187 230.578 162.187 230.838C162.219 231.099 162.154 231.343 161.992 231.571C162.447 231.929 162.887 232.01 163.31 231.815C163.733 231.587 164.124 231.343 164.482 231.083C164.612 230.985 164.742 230.887 164.872 230.79C165.035 230.659 165.198 230.562 165.361 230.497C166.109 230.659 166.793 230.611 167.411 230.35C168.03 230.09 168.6 229.732 169.12 229.276C169.641 228.82 170.146 228.332 170.634 227.811C171.122 227.29 171.611 226.834 172.099 226.444L171.708 226.053C172.294 225.89 172.701 225.679 172.929 225.418C173.189 225.125 173.352 224.8 173.417 224.442C173.482 224.084 173.482 223.709 173.417 223.319C173.352 222.896 173.303 222.456 173.271 222C173.238 221.74 173.222 221.496 173.222 221.268C173.255 221.008 173.32 220.747 173.417 220.487C173.157 219.738 173.108 219.022 173.271 218.338C173.466 217.655 173.71 217.004 174.003 216.385C174.329 215.734 174.638 215.083 174.931 214.432C175.224 213.781 175.37 213.097 175.37 212.381L173.759 212.04ZM232.261 224.198C231.512 224.556 231.008 224.995 230.747 225.516C230.487 226.037 230.275 226.574 230.113 227.127C229.982 227.681 229.803 228.218 229.576 228.739C229.38 229.227 228.941 229.634 228.257 229.959C228.094 230.545 227.769 230.952 227.281 231.18C226.825 231.408 226.337 231.62 225.816 231.815C225.295 231.978 224.823 232.206 224.4 232.499C224.009 232.792 223.814 233.296 223.814 234.012C223.163 234.37 222.447 234.696 221.665 234.989C220.917 235.282 220.119 235.493 219.273 235.624C218.459 235.786 217.645 235.851 216.831 235.819C216.018 235.786 215.253 235.624 214.536 235.331C214.048 235.103 213.576 234.81 213.12 234.452C212.958 234.321 212.795 234.208 212.632 234.11C212.502 234.045 212.356 233.931 212.193 233.768C211.802 233.377 211.477 232.922 211.216 232.401C210.956 231.88 210.744 231.327 210.581 230.741C210.419 230.155 210.288 229.569 210.191 228.983C210.093 228.397 210.012 227.844 209.947 227.323L211.753 222.44C210.809 221.691 210.044 220.829 209.458 219.852C208.872 218.843 208.156 217.915 207.31 217.069C207.147 217.297 206.936 217.492 206.675 217.655C206.415 217.818 206.317 218.078 206.382 218.436L206.87 218.875C205.796 220.047 204.706 221.382 203.599 222.879C202.525 224.344 201.678 225.825 201.06 227.323C200.344 227.29 199.839 227.469 199.546 227.86C199.253 228.218 199.009 228.641 198.814 229.129C198.619 229.585 198.374 230.008 198.081 230.399C197.788 230.79 197.3 230.952 196.617 230.887C196.454 231.245 196.291 231.636 196.128 232.059C195.966 232.45 195.77 232.824 195.542 233.182C195.314 233.54 195.038 233.833 194.712 234.061C194.387 234.321 193.98 234.452 193.492 234.452C193.231 234.191 193.085 233.915 193.052 233.622C193.02 233.329 193.052 233.036 193.15 232.743C193.247 232.417 193.378 232.108 193.54 231.815C193.703 231.489 193.817 231.18 193.882 230.887C194.143 229.943 194.615 229.097 195.298 228.348C195.982 227.567 196.665 226.802 197.349 226.053C198.033 225.272 198.619 224.458 199.107 223.612C199.595 222.765 199.79 221.773 199.693 220.633C200.116 220.601 200.539 220.519 200.962 220.389C201.418 220.226 201.825 220.031 202.183 219.803C202.574 219.543 202.867 219.234 203.062 218.875C203.29 218.485 203.371 218.029 203.306 217.508C203.046 217.378 202.899 217.199 202.867 216.971C202.834 216.711 202.834 216.45 202.867 216.19C203.583 215.962 204.152 215.571 204.576 215.018C205.031 214.432 205.438 213.814 205.796 213.163C206.154 212.512 206.496 211.861 206.822 211.209C207.18 210.526 207.635 209.94 208.189 209.452C208.645 209.712 209.1 209.94 209.556 210.135C210.012 210.298 210.451 210.526 210.874 210.819C210.581 211.209 210.402 211.584 210.337 211.942C210.272 212.3 210.24 212.674 210.24 213.065C210.24 213.423 210.24 213.781 210.24 214.139C210.24 214.497 210.142 214.872 209.947 215.262C210.467 215.718 210.907 216.255 211.265 216.874C211.623 217.492 212.079 218.013 212.632 218.436C213.023 218.143 213.462 217.997 213.951 217.997C214.439 217.964 214.927 217.964 215.415 217.997C215.936 217.997 216.425 217.964 216.88 217.899C217.336 217.801 217.71 217.525 218.003 217.069C218.134 217.199 218.329 217.264 218.589 217.264C218.85 217.264 219.11 217.264 219.37 217.264C219.631 217.264 219.859 217.313 220.054 217.411C220.249 217.476 220.363 217.622 220.396 217.85C220.428 218.111 220.412 218.29 220.347 218.387C220.314 218.485 220.266 218.648 220.201 218.875C220.135 219.136 220.119 219.266 220.152 219.266C220.184 219.266 220.152 219.38 220.054 219.608C219.891 220.031 219.615 220.389 219.224 220.682C218.866 220.975 218.492 221.268 218.101 221.561C217.743 221.821 217.401 222.131 217.076 222.489C216.783 222.814 216.636 223.237 216.636 223.758C215.92 224.019 215.415 224.409 215.122 224.93C214.829 225.418 214.634 225.988 214.536 226.639C214.439 227.258 214.374 227.909 214.341 228.592C214.309 229.243 214.195 229.846 213.999 230.399L214.439 230.887L214.829 230.399C215.285 231.05 215.822 231.457 216.441 231.62C217.092 231.782 217.759 231.831 218.443 231.766C218.768 231.278 219.143 230.887 219.566 230.594C220.022 230.301 220.494 230.057 220.982 229.862C221.503 229.667 222.023 229.487 222.544 229.325C223.098 229.162 223.619 228.967 224.107 228.739C224.497 228.543 224.823 228.332 225.083 228.104C225.376 227.876 225.686 227.616 226.011 227.323C226.988 226.411 227.948 225.516 228.892 224.637C229.869 223.758 230.845 222.863 231.822 221.952C232.017 221.952 232.147 222.049 232.212 222.245C232.277 222.44 232.31 222.668 232.31 222.928C232.31 223.156 232.294 223.4 232.261 223.661C232.261 223.889 232.261 224.068 232.261 224.198ZM262.589 232.108C262.622 232.499 262.557 232.792 262.394 232.987C262.231 233.182 262.003 233.329 261.71 233.426C261.45 233.524 261.157 233.605 260.831 233.67C260.506 233.703 260.229 233.784 260.001 233.915C259.057 233.817 258.146 233.687 257.267 233.524C256.388 233.329 255.574 233.052 254.826 232.694C254.077 232.303 253.393 231.799 252.775 231.18C252.189 230.562 251.684 229.78 251.261 228.836C251.684 228.153 251.831 227.404 251.701 226.59C251.57 225.744 251.44 224.93 251.31 224.149C251.212 223.368 251.229 222.652 251.359 222C251.522 221.349 252.091 220.829 253.068 220.438C253.003 220.08 253.003 219.689 253.068 219.266C253.165 218.843 253.051 218.485 252.726 218.192C251.587 218.583 250.594 219.136 249.747 219.852C248.901 220.568 248.087 221.349 247.306 222.196C246.557 223.042 245.792 223.905 245.011 224.784C244.262 225.63 243.432 226.379 242.521 227.03C242.098 227.062 241.642 227.046 241.154 226.981C240.698 226.883 240.307 227.014 239.982 227.372C240.014 227.599 240.096 227.795 240.226 227.958C240.356 228.12 240.454 228.283 240.519 228.446C240.617 228.609 240.665 228.788 240.665 228.983C240.665 229.146 240.551 229.341 240.324 229.569C239.998 229.894 239.64 230.171 239.249 230.399C238.891 230.594 238.533 230.822 238.175 231.083C237.85 231.31 237.573 231.587 237.345 231.913C237.117 232.238 237.003 232.678 237.003 233.231C236.808 233.133 236.629 233.117 236.466 233.182C236.303 233.215 236.157 233.296 236.027 233.426C235.864 233.556 235.717 233.703 235.587 233.866C235.457 234.028 235.327 234.159 235.197 234.256C235.132 234.419 235.148 234.549 235.245 234.647C235.343 234.777 235.457 234.907 235.587 235.038C235.457 235.396 235.294 235.607 235.099 235.672C234.871 235.77 234.643 235.786 234.415 235.721C234.155 235.656 233.911 235.542 233.683 235.379C233.423 235.249 233.195 235.135 232.999 235.038C232.902 234.614 232.837 234.126 232.804 233.573C232.772 233.019 232.788 232.482 232.853 231.961C232.918 231.408 233.048 230.887 233.244 230.399C233.439 229.911 233.732 229.504 234.122 229.178C234.253 229.081 234.334 229.032 234.367 229.032C234.399 228.999 234.415 228.983 234.415 228.983C234.415 228.983 234.432 228.983 234.464 228.983C234.497 228.95 234.562 228.885 234.66 228.788C234.92 228.495 235.099 228.185 235.197 227.86C235.294 227.502 235.376 227.144 235.441 226.786C235.506 226.428 235.604 226.086 235.734 225.76C235.831 225.402 236.027 225.093 236.32 224.833C236.189 224.312 236.189 223.856 236.32 223.465C236.482 223.042 236.678 222.652 236.906 222.293C237.166 221.903 237.41 221.528 237.638 221.17C237.898 220.78 238.061 220.357 238.126 219.901C238.159 219.738 238.159 219.592 238.126 219.461C238.126 219.299 238.126 219.136 238.126 218.973C238.061 218.452 238.11 218.062 238.273 217.801C238.468 217.508 238.696 217.28 238.956 217.118C239.249 216.922 239.542 216.727 239.835 216.532C240.161 216.336 240.438 216.043 240.665 215.653C241.609 216.109 242.163 216.727 242.326 217.508C242.521 218.257 242.586 219.103 242.521 220.047C241.967 220.405 241.544 220.91 241.251 221.561C240.958 222.18 240.763 222.782 240.665 223.368C240.731 223.563 240.812 223.677 240.91 223.709C241.04 223.709 241.17 223.693 241.3 223.661C241.463 223.596 241.609 223.53 241.74 223.465C241.87 223.4 242 223.368 242.13 223.368C243.302 222.554 244.458 221.642 245.597 220.633C246.769 219.624 247.68 218.469 248.331 217.167C249.275 216.711 250.171 216.19 251.017 215.604C251.863 214.986 252.791 214.53 253.8 214.237L254.923 213.114C255.086 213.374 255.281 213.439 255.509 213.309C255.737 213.146 255.965 212.967 256.193 212.772C256.421 212.577 256.632 212.463 256.828 212.43C257.055 212.398 257.267 212.625 257.462 213.114C257.788 213.96 257.869 214.79 257.706 215.604C257.544 216.385 257.283 217.167 256.925 217.948C256.6 218.696 256.258 219.461 255.9 220.243C255.542 221.024 255.33 221.821 255.265 222.635C255.265 222.831 255.265 223.042 255.265 223.27C255.265 223.465 255.249 223.677 255.216 223.905C255.151 224.588 255.053 225.337 254.923 226.151C254.826 226.932 254.874 227.648 255.07 228.299C255.232 228.885 255.574 229.406 256.095 229.862C256.616 230.318 257.072 230.773 257.462 231.229C257.69 231.196 257.918 231.213 258.146 231.278C258.374 231.343 258.585 231.408 258.781 231.473C259.009 231.538 259.22 231.571 259.415 231.571C259.611 231.538 259.806 231.424 260.001 231.229C260.229 231.131 260.441 231.148 260.636 231.278C260.864 231.375 261.076 231.506 261.271 231.668C261.466 231.831 261.661 231.978 261.857 232.108C262.085 232.206 262.329 232.206 262.589 232.108ZM308.249 218.924C307.956 219.217 307.729 219.445 307.566 219.608C307.436 219.771 307.305 219.933 307.175 220.096C307.078 220.226 306.947 220.373 306.785 220.536C306.654 220.698 306.443 220.943 306.15 221.268C305.889 221.528 305.645 221.805 305.417 222.098C305.189 222.391 304.929 222.652 304.636 222.879C304.245 222.782 303.936 222.831 303.708 223.026C303.513 223.221 303.318 223.449 303.122 223.709C302.96 223.937 302.797 224.165 302.634 224.393C302.504 224.588 302.325 224.67 302.097 224.637C301.316 225.06 300.535 225.435 299.753 225.76C298.972 226.053 298.223 226.493 297.507 227.079L297.117 226.688L292.038 229.129C291.876 229.194 291.713 229.292 291.55 229.422C291.387 229.553 291.225 229.667 291.062 229.764C290.346 230.155 289.597 230.513 288.816 230.838C288.067 231.131 287.318 231.408 286.57 231.668L285.935 231.864C286.195 232.515 286.195 232.971 285.935 233.231C285.675 233.491 285.3 233.687 284.812 233.817C284.324 233.915 283.786 233.98 283.201 234.012C282.615 234.045 282.159 234.159 281.833 234.354C281.443 234.289 281.036 234.256 280.613 234.256C280.222 234.289 279.815 234.338 279.392 234.403C278.936 234.468 278.513 234.5 278.122 234.5C277.732 234.5 277.309 234.452 276.853 234.354H276.755C276.202 234.614 275.714 234.663 275.29 234.5C274.9 234.37 274.542 234.142 274.216 233.817C273.891 233.459 273.581 233.052 273.288 232.596C273.028 232.108 272.751 231.668 272.458 231.278C272.263 231.017 272.019 230.643 271.726 230.155C271.433 229.667 271.189 229.146 270.994 228.592C270.766 228.039 270.635 227.486 270.603 226.932C270.538 226.346 270.652 225.842 270.945 225.418C271.238 224.995 271.482 224.54 271.677 224.051C271.84 223.563 271.921 222.993 271.921 222.342C271.921 222.114 271.921 221.903 271.921 221.708C271.889 221.512 271.872 221.301 271.872 221.073C272.035 221.073 272.214 221.089 272.41 221.122C272.605 221.122 272.784 221.122 272.947 221.122C273.142 221.089 273.288 221.024 273.386 220.926C273.516 220.796 273.581 220.584 273.581 220.292C273.581 220.129 273.516 219.999 273.386 219.901C273.288 219.803 273.223 219.706 273.191 219.608C273.386 219.315 273.565 219.087 273.728 218.924C273.923 218.729 274.086 218.55 274.216 218.387C274.346 218.192 274.444 217.98 274.509 217.752C274.574 217.492 274.558 217.15 274.46 216.727C274.851 216.043 275.307 215.441 275.828 214.92C276.381 214.367 276.951 213.862 277.536 213.407C278.122 212.918 278.725 212.446 279.343 211.991C279.962 211.535 280.548 211.047 281.101 210.526C281.719 210.786 282.208 210.786 282.566 210.526C282.956 210.265 283.298 209.989 283.591 209.696C283.884 209.37 284.177 209.11 284.47 208.915C284.763 208.719 285.154 208.801 285.642 209.159L285.74 209.256C286.619 208.377 287.497 207.987 288.376 208.084C289.288 208.182 290.053 208.475 290.671 208.963C291.322 209.452 291.745 210.021 291.941 210.672C292.136 211.291 291.957 211.714 291.404 211.942C291.762 212.3 291.941 212.723 291.941 213.211C291.941 213.7 291.811 214.123 291.55 214.481C291.257 214.872 290.997 215.278 290.769 215.702C290.574 216.092 290.362 216.515 290.134 216.971C289.809 217.72 289.451 218.436 289.06 219.12C288.669 219.771 288.116 220.324 287.4 220.78C286.814 220.617 286.407 220.682 286.179 220.975C285.984 221.268 285.837 221.594 285.74 221.952C285.642 222.277 285.528 222.538 285.398 222.733C285.268 222.928 284.991 222.863 284.568 222.538L284.47 222.44L284.372 222.538C284.112 222.798 283.9 223.091 283.738 223.417C283.607 223.742 283.412 223.986 283.152 224.149C282.859 224.051 282.55 223.97 282.224 223.905C281.898 223.84 281.589 223.775 281.296 223.709C281.296 224.393 281.166 224.93 280.906 225.321C280.645 225.711 280.303 226.037 279.88 226.297C279.49 226.525 279.034 226.721 278.513 226.883C277.992 227.014 277.471 227.193 276.951 227.42C276.462 227.616 275.99 227.876 275.535 228.202C275.111 228.495 274.77 228.918 274.509 229.471C274.835 229.829 275.242 230.041 275.73 230.106C276.218 230.139 276.723 230.139 277.244 230.106C277.764 230.041 278.269 230.008 278.757 230.008C279.278 230.008 279.734 230.139 280.124 230.399L280.173 230.448L280.222 230.399C281.003 230.301 281.752 230.122 282.468 229.862C283.217 229.569 283.933 229.276 284.617 228.983C285.333 228.657 286.049 228.364 286.765 228.104C287.514 227.811 288.279 227.599 289.06 227.469C289.223 227.73 289.434 227.876 289.695 227.909C289.988 227.941 290.264 227.925 290.525 227.86L290.574 227.762C290.639 227.534 290.704 227.339 290.769 227.176C290.834 226.981 290.932 226.769 291.062 226.542C291.29 226.183 291.566 225.907 291.892 225.711C292.217 225.516 292.559 225.37 292.917 225.272C293.308 225.174 293.715 225.109 294.138 225.077C294.561 225.044 294.984 224.995 295.408 224.93H295.505L295.554 224.784C295.684 224.393 295.847 224.133 296.042 224.002C296.27 223.84 296.498 223.726 296.726 223.661C296.986 223.596 297.247 223.547 297.507 223.514C297.8 223.482 298.077 223.384 298.337 223.221C298.923 223.417 299.411 223.351 299.802 223.026C300.193 222.7 300.567 222.359 300.925 222L301.316 222.489L301.462 222.293C301.951 221.838 302.309 221.496 302.536 221.268C302.797 221.04 303.041 220.845 303.269 220.682C303.497 220.487 303.757 220.308 304.05 220.145C304.376 219.95 304.815 219.673 305.369 219.315C305.824 219.022 306.264 218.729 306.687 218.436C307.143 218.143 307.582 217.818 308.005 217.459C308.168 217.525 308.249 217.655 308.249 217.85C308.249 218.013 308.249 218.176 308.249 218.338C308.217 218.403 308.184 218.501 308.152 218.631C308.152 218.762 308.184 218.859 308.249 218.924ZM288.035 212.821C288.002 212.788 287.969 212.772 287.937 212.772C287.937 212.772 287.921 212.756 287.888 212.723C287.204 212.365 286.635 212.202 286.179 212.235C285.723 212.235 285.3 212.365 284.91 212.625C284.551 212.853 284.21 213.163 283.884 213.553C283.591 213.911 283.266 214.253 282.908 214.579C282.582 214.872 282.191 215.099 281.736 215.262C281.28 215.425 280.727 215.409 280.076 215.213C279.978 215.734 279.88 216.255 279.783 216.776C279.717 217.264 279.669 217.769 279.636 218.29C279.083 218.485 278.643 218.762 278.318 219.12C278.025 219.478 277.764 219.868 277.536 220.292C277.341 220.715 277.146 221.17 276.951 221.659C276.788 222.114 276.56 222.554 276.267 222.977L276.462 223.221C276.592 223.156 276.739 223.205 276.902 223.368C277.064 223.53 277.178 223.644 277.244 223.709C277.602 223.189 278.074 222.749 278.66 222.391C279.278 222.033 279.897 221.708 280.515 221.415C281.166 221.089 281.785 220.747 282.37 220.389C282.956 220.031 283.396 219.559 283.689 218.973C284.731 218.68 285.512 218.094 286.033 217.215C286.553 216.336 286.993 215.425 287.351 214.481C287.416 214.286 287.53 214.009 287.693 213.651C287.888 213.26 288.002 212.984 288.035 212.821ZM342.972 198.563C342.516 199.051 342.012 199.312 341.458 199.344C340.905 199.344 340.352 199.295 339.798 199.198C339.277 199.1 338.757 199.068 338.236 199.1C337.747 199.1 337.324 199.361 336.966 199.881C336.445 199.751 335.908 199.735 335.355 199.833C334.801 199.898 334.232 200.012 333.646 200.174C333.06 200.305 332.474 200.435 331.888 200.565C331.302 200.695 330.716 200.744 330.13 200.711L329.3 199.881C329.072 200.239 328.747 200.467 328.324 200.565C327.933 200.63 327.542 200.532 327.152 200.272C326.468 200.728 325.785 200.939 325.101 200.907C324.417 200.874 323.75 200.858 323.099 200.858C322.448 200.825 321.829 200.956 321.244 201.249C320.69 201.509 320.218 202.176 319.828 203.25C319.535 203.999 319.258 204.764 318.997 205.545C318.737 206.294 318.477 207.043 318.216 207.792C317.5 209.745 316.768 211.681 316.019 213.602C315.303 215.49 314.489 217.362 313.578 219.217C313.512 220.682 313.545 222.163 313.675 223.661C313.805 225.158 313.952 226.639 314.115 228.104C313.984 228.495 313.936 228.902 313.968 229.325C314.033 229.748 314.147 230.171 314.31 230.594C314.473 231.017 314.668 231.424 314.896 231.815C315.124 232.173 315.368 232.499 315.628 232.792L316.507 231.961L317.728 233.67C318.053 233.247 318.428 232.808 318.851 232.352C319.307 231.864 319.779 231.424 320.267 231.034C320.755 230.611 321.26 230.269 321.781 230.008C322.334 229.715 322.887 229.52 323.441 229.422C323.669 229.194 323.88 228.95 324.076 228.69C324.271 228.43 324.482 228.218 324.71 228.055C324.938 227.86 325.182 227.73 325.443 227.665C325.736 227.567 326.078 227.583 326.468 227.713C327.51 227.127 328.438 226.395 329.251 225.516C330.065 224.605 330.879 223.709 331.693 222.831C332.507 221.919 333.353 221.089 334.232 220.34C335.143 219.592 336.201 219.071 337.406 218.778C336.624 220.666 335.632 222.505 334.427 224.295C333.223 226.053 331.872 227.632 330.374 229.032C329.984 229.487 329.495 229.894 328.91 230.252C328.649 230.415 328.372 230.594 328.079 230.79C327.786 230.952 327.51 231.115 327.249 231.278C326.37 231.864 325.524 232.499 324.71 233.182C323.897 233.833 323.115 234.566 322.367 235.379C322.269 235.184 322.139 235.054 321.976 234.989C321.813 234.924 321.618 234.891 321.39 234.891C321.195 234.891 320.983 234.907 320.755 234.94C320.56 234.972 320.381 234.972 320.218 234.94C319.6 235.396 318.786 235.754 317.777 236.014C316.8 236.307 315.921 236.372 315.14 236.209C314.912 236.144 314.603 236.014 314.212 235.819C313.822 235.656 313.529 235.51 313.333 235.379C312.064 234.533 311.104 233.491 310.453 232.254C309.834 230.985 309.492 229.601 309.427 228.104L309.036 227.713C309.46 227.323 309.72 226.932 309.818 226.542C309.948 226.151 309.981 225.76 309.915 225.37C309.883 224.946 309.801 224.523 309.671 224.1C309.574 223.644 309.509 223.189 309.476 222.733C309.443 222.44 309.443 222.196 309.476 222C309.541 221.805 309.606 221.577 309.671 221.317C309.932 220.275 310.176 219.266 310.404 218.29C310.632 217.28 310.876 216.271 311.136 215.262C311.787 212.788 312.536 210.347 313.382 207.938C314.261 205.497 315.173 203.088 316.117 200.711C315.596 200.516 315.075 200.402 314.554 200.37C314.033 200.305 313.496 200.272 312.943 200.272C312.422 200.272 311.885 200.256 311.331 200.223C310.811 200.191 310.29 200.077 309.769 199.881C309.541 199.784 309.427 199.735 309.427 199.735C309.427 199.702 309.297 199.686 309.036 199.686C308.874 199.686 308.646 199.719 308.353 199.784C308.06 199.816 307.767 199.833 307.474 199.833C307.181 199.833 306.921 199.8 306.693 199.735C306.432 199.67 306.286 199.523 306.253 199.295V198.807C306.286 198.286 306.4 197.944 306.595 197.782C306.79 197.586 307.035 197.472 307.328 197.44C307.62 197.375 307.946 197.342 308.304 197.342C308.662 197.31 309.004 197.196 309.329 197C310.241 197.196 311.104 197.342 311.917 197.44C312.731 197.505 313.512 197.489 314.261 197.391C315.042 197.293 315.791 197.082 316.507 196.756C317.256 196.431 317.988 195.943 318.704 195.292C319.225 194.282 319.616 193.208 319.876 192.069C320.137 190.897 320.43 189.758 320.755 188.651C321.113 187.512 321.569 186.47 322.122 185.526C322.676 184.549 323.522 183.736 324.661 183.084C325.182 183.019 325.638 183.084 326.029 183.28C326.419 183.475 326.81 183.687 327.201 183.915C327.038 184.37 326.908 184.842 326.81 185.331C326.712 185.819 326.598 186.307 326.468 186.795C326.37 187.284 326.24 187.756 326.078 188.211C325.915 188.667 325.671 189.09 325.345 189.481C325.768 189.644 326.012 189.839 326.078 190.067C326.143 190.295 326.11 190.539 325.98 190.799C325.85 191.06 325.687 191.336 325.492 191.629C325.296 191.922 325.182 192.183 325.15 192.411C324.792 192.443 324.482 192.671 324.222 193.094C323.994 193.517 323.75 193.843 323.49 194.071C323.229 194.624 323.278 195.096 323.636 195.487C323.994 195.877 324.32 196.252 324.613 196.61C324.906 196.708 325.199 196.724 325.492 196.659C325.785 196.561 326.045 196.463 326.273 196.366C326.533 196.268 326.777 196.219 327.005 196.219C327.233 196.219 327.445 196.349 327.64 196.61C327.966 196.252 328.291 196.105 328.617 196.17C328.942 196.203 329.268 196.284 329.593 196.415C329.919 196.512 330.244 196.561 330.57 196.561C330.895 196.528 331.204 196.268 331.497 195.78C331.888 195.584 332.246 195.536 332.572 195.633C332.93 195.731 333.255 195.861 333.548 196.024C333.841 196.154 334.118 196.268 334.378 196.366C334.671 196.431 334.964 196.366 335.257 196.17C335.745 196.236 336.283 196.252 336.869 196.219C337.487 196.187 338.089 196.122 338.675 196.024C339.294 195.926 339.896 195.812 340.482 195.682C341.1 195.519 341.654 195.389 342.142 195.292C342.63 195.584 342.923 195.845 343.021 196.073C343.119 196.301 343.135 196.528 343.07 196.756C343.037 196.984 342.972 197.245 342.874 197.538C342.809 197.798 342.842 198.14 342.972 198.563Z" fill="#F9E9DB"/>
<g filter="url(#filter0_f_5656_381)">
<rect width="5.11299" height="426" transform="matrix(0 1 1 0 6.59998 487.29)" fill="url(#paint1_linear_5656_381)"/>
</g>
<g filter="url(#filter1_f_5656_381)">
<rect width="16" height="59.3107" transform="matrix(-1 0 0 1 19.6 488.312)" fill="url(#paint2_linear_5656_381)"/>
</g>
<g filter="url(#filter2_f_5656_381)">
<rect width="11.2486" height="59" transform="matrix(0 -1 -1 0 74.6 547.623)" fill="url(#paint3_linear_5656_381)"/>
</g>
<g filter="url(#filter3_f_5656_381)">
<rect width="5" height="488.802" transform="matrix(-1 0 0 1 432.6 3.6001)" fill="#7F7097"/>
</g>
<g filter="url(#filter4_i_5656_381)">
<path d="M19.6 492.402H420.6C415.542 510.458 415.569 520.029 420.6 536.374H19.6V492.402Z" fill="url(#paint4_linear_5656_381)"/>
</g>
<g filter="url(#filter5_f_5656_381)">
<rect width="5" height="317.006" transform="matrix(1 0 0 -1 16.6 322.651)" fill="url(#paint5_linear_5656_381)"/>
</g>
<defs>
<filter id="filter0_f_5656_381" x="2.99998" y="483.69" width="433.2" height="12.3128" filterUnits="userSpaceOnUse" color-interpolation-filters="sRGB">
<feFlood flood-opacity="0" result="BackgroundImageFix"/>
<feBlend mode="normal" in="SourceGraphic" in2="BackgroundImageFix" result="shape"/>
<feGaussianBlur stdDeviation="1.8" result="effect1_foregroundBlur_5656_381"/>
</filter>
<filter id="filter1_f_5656_381" x="-2.43187e-05" y="484.712" width="23.2" height="66.5105" filterUnits="userSpaceOnUse" color-interpolation-filters="sRGB">
<feFlood flood-opacity="0" result="BackgroundImageFix"/>
<feBlend mode="normal" in="SourceGraphic" in2="BackgroundImageFix" result="shape"/>
<feGaussianBlur stdDeviation="1.8" result="effect1_foregroundBlur_5656_381"/>
</filter>
<filter id="filter2_f_5656_381" x="12" y="532.774" width="66.2" height="18.4485" filterUnits="userSpaceOnUse" color-interpolation-filters="sRGB">
<feFlood flood-opacity="0" result="BackgroundImageFix"/>
<feBlend mode="normal" in="SourceGraphic" in2="BackgroundImageFix" result="shape"/>
<feGaussianBlur stdDeviation="1.8" result="effect1_foregroundBlur_5656_381"/>
</filter>
<filter id="filter3_f_5656_381" x="424" y="9.77516e-05" width="12.2" height="496.002" filterUnits="userSpaceOnUse" color-interpolation-filters="sRGB">
<feFlood flood-opacity="0" result="BackgroundImageFix"/>
<feBlend mode="normal" in="SourceGraphic" in2="BackgroundImageFix" result="shape"/>
<feGaussianBlur stdDeviation="1.8" result="effect1_foregroundBlur_5656_381"/>
</filter>
<filter id="filter4_i_5656_381" x="19.6" y="492.402" width="408" height="43.9717" filterUnits="userSpaceOnUse" color-interpolation-filters="sRGB">
<feFlood flood-opacity="0" result="BackgroundImageFix"/>
<feBlend mode="normal" in="SourceGraphic" in2="BackgroundImageFix" result="shape"/>
<feColorMatrix in="SourceAlpha" type="matrix" values="0 0 0 0 0 0 0 0 0 0 0 0 0 0 0 0 0 0 127 0" result="hardAlpha"/>
<feOffset dx="7"/>
<feGaussianBlur stdDeviation="7.5"/>
<feComposite in2="hardAlpha" operator="arithmetic" k2="-1" k3="1"/>
<feColorMatrix type="matrix" values="0 0 0 0 0.6 0 0 0 0 0.6 0 0 0 0 0.6 0 0 0 1 0"/>
<feBlend mode="normal" in2="shape" result="effect1_innerShadow_5656_381"/>
</filter>
<filter id="filter5_f_5656_381" x="13" y="2.04526" width="12.2" height="324.206" filterUnits="userSpaceOnUse" color-interpolation-filters="sRGB">
<feFlood flood-opacity="0" result="BackgroundImageFix"/>
<feBlend mode="normal" in="SourceGraphic" in2="BackgroundImageFix" result="shape"/>
<feGaussianBlur stdDeviation="1.8" result="effect1_foregroundBlur_5656_381"/>
</filter>
<linearGradient id="paint0_linear_5656_381" x1="432.6" y1="3.60011" x2="241.491" y2="600.92" gradientUnits="userSpaceOnUse">
<stop offset="0.644432" stop-color="#BEA7E3"/>
<stop offset="1" stop-color="#695C7D"/>
</linearGradient>
<linearGradient id="paint1_linear_5656_381" x1="3.06742" y1="55.1119" x2="0.17455" y2="213.003" gradientUnits="userSpaceOnUse">
<stop offset="0.0629279" stop-color="#74668A"/>
<stop offset="1" stop-color="#7F7097"/>
</linearGradient>
<linearGradient id="paint2_linear_5656_381" x1="16.0001" y1="35.2787" x2="-0.701919" y2="33.7518" gradientUnits="userSpaceOnUse">
<stop stop-color="#7F7097"/>
<stop offset="0.937072" stop-color="#56476D"/>
</linearGradient>
<linearGradient id="paint3_linear_5656_381" x1="5.113" y1="59" x2="5.11299" y2="-1.05471e-07" gradientUnits="userSpaceOnUse">
<stop stop-color="#56476D"/>
<stop offset="1" stop-color="#6E6184"/>
</linearGradient>
<linearGradient id="paint4_linear_5656_381" x1="220.1" y1="536.374" x2="220.1" y2="492.402" gradientUnits="userSpaceOnUse">
<stop offset="0.0144231" stop-color="white"/>
<stop offset="0.605769" stop-color="#E6E6E6"/>
<stop offset="0.807692" stop-color="#CCCCCC"/>
<stop offset="1" stop-color="#999999"/>
</linearGradient>
<linearGradient id="paint5_linear_5656_381" x1="2.5" y1="317.006" x2="2.5" y2="0" gradientUnits="userSpaceOnUse">
<stop offset="0.389423" stop-color="#7F7097"/>
<stop offset="0.935696" stop-color="#BEA7E3"/>
</linearGradient>
</defs>
</svg>
