<svg width="50" height="50" viewBox="0 0 50 50" fill="none" xmlns="http://www.w3.org/2000/svg">
<g clip-path="url(#clip0_5656_705)">
<path d="M24.9695 -0.0304868C25.1112 -0.0302198 25.1112 -0.0302198 25.2558 -0.0299474C26.6555 -0.0255111 28.0174 0.0241849 29.3946 0.292999C29.526 0.316579 29.526 0.316579 29.66 0.340636C35.5009 1.39753 41.1175 4.72348 44.7266 9.47269C44.7673 9.52545 44.808 9.57821 44.8499 9.63257C45.6002 10.6086 46.2587 11.6301 46.875 12.6953C46.9135 12.7615 46.952 12.8276 46.9917 12.8958C48.279 15.1339 49.1194 17.6314 49.6399 20.1538C49.6543 20.2232 49.6687 20.2926 49.6836 20.3641C49.9751 21.8917 50.0366 23.4187 50.0306 24.9695C50.0303 25.1112 50.0303 25.1112 50.03 25.2558C50.0256 26.6555 49.9759 28.0174 49.7071 29.3946C49.6913 29.4822 49.6756 29.5698 49.6594 29.66C48.6025 35.5009 45.2766 41.1175 40.5274 44.7266C40.4746 44.7673 40.4219 44.808 40.3675 44.8499C39.3914 45.6002 38.3699 46.2587 37.3047 46.875C37.2386 46.9135 37.1724 46.952 37.1043 46.9917C34.8662 48.279 32.3686 49.1194 29.8462 49.6399C29.7768 49.6543 29.7074 49.6687 29.6359 49.6836C28.1083 49.9751 26.5814 50.0366 25.0305 50.0306C24.9361 50.0304 24.8416 50.0302 24.7443 50.03C23.3446 50.0256 21.9827 49.9759 20.6055 49.7071C20.5179 49.6913 20.4303 49.6756 20.34 49.6594C14.4992 48.6025 8.8826 45.2766 5.27347 40.5274C5.23278 40.4746 5.19208 40.4219 5.15016 40.3675C4.39984 39.3914 3.7414 38.3699 3.12503 37.3047C3.08653 37.2386 3.04802 37.1724 3.00835 37.1043C1.72102 34.8662 0.880635 32.3686 0.360138 29.8462C0.34574 29.7768 0.331342 29.7074 0.316508 29.6359C0.0249684 28.1083 -0.0365718 26.5814 -0.0304868 25.0305C-0.0303088 24.9361 -0.0301308 24.8416 -0.0299474 24.7443C-0.0255111 23.3446 0.0241849 21.9827 0.292999 20.6055C0.316579 20.4741 0.316579 20.4741 0.340636 20.34C1.39753 14.4992 4.72348 8.8826 9.47269 5.27347C9.52545 5.23278 9.57821 5.19208 9.63257 5.15016C10.6086 4.39984 11.6301 3.7414 12.6953 3.12503C12.7615 3.08653 12.8276 3.04802 12.8958 3.00835C15.1339 1.72102 17.6314 0.880635 20.1538 0.360138C20.2232 0.34574 20.2926 0.331342 20.3641 0.316508C21.8917 0.0249684 23.4187 -0.0365718 24.9695 -0.0304868ZM10.1563 10.4492C10.074 10.5309 10.074 10.5309 9.99006 10.6143C6.23614 14.3869 4.19704 19.7072 4.16263 25C4.20396 30.6579 6.47861 35.8543 10.4492 39.8438C10.5037 39.8986 10.5582 39.9535 10.6143 40.01C14.3869 43.7639 19.7072 45.803 25 45.8374C30.6579 45.7961 35.8543 43.5215 39.8438 39.5508C39.8986 39.4963 39.9535 39.4419 40.01 39.3858C43.7639 35.6131 45.803 30.2929 45.8374 25C45.7961 19.3422 43.5215 14.1458 39.5508 10.1563C39.4691 10.074 39.4691 10.074 39.3858 9.99006C35.6131 6.23614 30.2929 4.19704 25 4.16263C19.3422 4.20396 14.1458 6.47861 10.1563 10.4492Z" fill="#6A18A4"/>
<path d="M20.813 12.4633C20.9705 12.4562 20.9705 12.4562 21.1311 12.4489C22.1028 12.5895 22.7531 13.3222 23.4145 13.9905C23.5167 14.0923 23.619 14.1941 23.7214 14.2957C23.9973 14.5703 24.2719 14.846 24.5463 15.122C24.8347 15.4118 25.1241 15.7005 25.4133 15.9893C25.8986 16.4744 26.3831 16.9602 26.8672 17.4466C27.4256 18.0076 27.9852 18.5674 28.5455 19.1265C29.0861 19.6661 29.6259 20.2065 30.1653 20.7473C30.3941 20.9766 30.6233 21.2058 30.8526 21.4346C31.1229 21.7045 31.3925 21.9751 31.6616 22.2462C31.76 22.3452 31.8587 22.4439 31.9576 22.5424C33.3533 23.932 33.3533 23.932 33.4229 24.9756C33.373 26.7824 31.0411 28.3533 29.8424 29.5559C29.7368 29.6619 29.6311 29.7679 29.5255 29.874C29.0298 30.3715 28.5339 30.8688 28.0377 31.3658C27.468 31.9364 26.8992 32.5079 26.331 33.08C25.8891 33.5248 25.4465 33.9689 25.0033 34.4124C24.7397 34.6763 24.4764 34.9404 24.2139 35.2054C23.9673 35.4542 23.7199 35.7021 23.4717 35.9492C23.3386 36.0823 23.2064 36.2163 23.0743 36.3504C22.5115 36.9084 21.9475 37.4153 21.1483 37.5614C20.5063 37.5477 19.946 37.5297 19.4336 37.1093C18.95 36.5823 18.7356 36.1588 18.7134 35.437C18.7086 35.332 18.7038 35.227 18.6989 35.1188C18.8299 34.2139 19.4731 33.5965 20.1005 32.9801C20.1863 32.8942 20.2721 32.8084 20.3605 32.7199C20.5938 32.4868 20.828 32.2546 21.0626 32.0228C21.3083 31.7795 21.5529 31.5351 21.7977 31.2909C22.2603 30.8294 22.7239 30.369 23.188 29.9089C23.7166 29.3847 24.2441 28.8593 24.7715 28.3338C25.8555 27.2539 26.941 26.1753 28.0274 25.0976C27.8899 24.786 27.7271 24.5786 27.4856 24.3397C27.4137 24.2681 27.3418 24.1965 27.2678 24.1228C27.1889 24.0452 27.11 23.9676 27.0287 23.8877C26.9457 23.8053 26.8626 23.7228 26.777 23.6378C26.5493 23.4119 26.3212 23.1864 26.093 22.961C25.8537 22.7244 25.6152 22.4871 25.3766 22.2498C24.5641 21.4421 23.7505 20.6355 22.936 19.8297C22.4861 19.3846 22.0368 18.9387 21.5883 18.4921C21.3512 18.2561 21.1138 18.0205 20.8755 17.7858C20.6093 17.5233 20.3443 17.2597 20.0795 16.9957C20.0012 16.9191 19.9229 16.8425 19.8422 16.7636C19.3038 16.2233 18.8289 15.6658 18.6886 14.8983C18.7023 14.2562 18.7203 13.6959 19.1406 13.1836C19.6677 12.7 20.0912 12.4855 20.813 12.4633Z" fill="#6A18A4"/>
</g>
<defs>
<clipPath id="clip0_5656_705">
<rect width="50" height="50" fill="white"/>
</clipPath>
</defs>
</svg>
