<svg width="202" height="252" viewBox="0 0 202 252" fill="none" xmlns="http://www.w3.org/2000/svg">
<path d="M51.7951 39.5521C51.6575 40.0824 51.4934 40.5226 51.3027 40.8726C51.1339 41.1989 50.9176 41.4816 50.6539 41.7207C50.412 41.936 50.1127 42.1423 49.756 42.3396C49.4211 42.5132 49.018 42.6896 48.5465 42.8689L48.5138 42.9045L48.4796 42.9059C48.2415 43.2123 47.9588 43.5434 47.6315 43.8991C47.3033 44.232 46.8888 44.4089 46.3879 44.4298C46.2722 44.389 46.1673 44.3364 46.0734 44.2719C46.0013 44.1836 45.9188 44.1186 45.8259 44.0769C45.8078 44.1917 45.8007 44.2946 45.8045 44.3857C45.8073 44.454 45.7765 44.5351 45.712 44.629C45.6029 44.7476 45.4692 44.8216 45.3107 44.851C45.1514 44.8576 44.9811 44.8761 44.7999 44.9065C44.6405 44.9131 44.4821 44.9425 44.3247 44.9947C44.1672 45.0468 44.0472 45.1773 43.9647 45.386L43.8949 45.3547C43.5193 45.0966 43.2309 45.0174 43.0298 45.117C42.8287 45.2166 42.6404 45.3499 42.4649 45.5168C42.3112 45.6601 42.1443 45.7583 41.964 45.8114C41.8065 45.8635 41.5727 45.725 41.2625 45.3959C41.2388 45.374 41.227 45.3631 41.227 45.3631C41.226 45.3404 41.2137 45.3181 41.19 45.2963L41.0904 45.3688C40.913 45.4902 40.755 45.531 40.6165 45.4912C40.5008 45.4504 40.3732 45.3987 40.2338 45.3361C40.1171 45.2725 40.0013 45.2317 39.8866 45.2137C39.7708 45.1729 39.648 45.235 39.518 45.4001C39.4943 45.3783 39.4815 45.3446 39.4796 45.2991C39.3791 45.0752 39.2486 44.9552 39.0883 44.9391C38.9508 44.922 38.7686 44.9296 38.5419 44.9618L38.0638 44.9817C37.912 45.1705 37.7702 45.3246 37.6384 45.4442C37.5293 45.5627 37.4813 45.7814 37.4946 46.1001C37.4965 46.1457 37.5103 46.2021 37.5359 46.2695C37.5615 46.3368 37.5752 46.3933 37.5771 46.4388L37.5103 46.4758C37.09 46.7898 36.7827 47.0762 36.5882 47.3352C36.4165 47.5932 36.204 47.967 35.9507 48.4565C35.7411 48.8985 35.5399 49.2718 35.3474 49.5763C35.1776 49.8798 34.8816 50.1658 34.4595 50.4343C34.6065 50.679 34.6506 50.9167 34.5918 51.1472C34.5927 51.1699 34.5941 51.2041 34.596 51.2496C34.6197 51.2714 34.6321 51.2937 34.633 51.3165C34.5514 51.548 34.4324 51.7012 34.2759 51.7761C34.1193 51.851 33.9623 51.9146 33.8049 51.9668C33.6465 51.9962 33.489 52.0483 33.3325 52.1233C33.175 52.1754 33.055 52.3059 32.9725 52.5146C32.9013 52.4491 32.8302 52.3837 32.759 52.3182C32.6869 52.23 32.594 52.1882 32.4801 52.193C32.3881 52.174 32.298 52.2006 32.2098 52.2727C32.1434 52.321 32.0661 52.3813 31.9778 52.4534C31.9124 52.5245 31.8474 52.607 31.7829 52.7009C31.7184 52.7949 31.6529 52.866 31.5865 52.9144C31.6254 53.3005 31.5111 53.5675 31.2436 53.7155C30.977 53.8862 30.7337 54.0674 30.5136 54.259C30.0849 53.8207 29.629 53.8283 29.1462 54.2818C28.7383 54.3444 28.3195 54.4188 27.8898 54.5051C27.4828 54.5905 27.0744 54.6417 26.6646 54.6588C26.2548 54.6758 25.8545 54.6469 25.4637 54.572C25.0728 54.497 24.6901 54.3419 24.3154 54.1066C24.2063 54.2252 24.0948 54.2869 23.981 54.2916C23.8899 54.2954 23.7761 54.3001 23.6395 54.3058C23.4953 54.1294 23.3293 53.9767 23.1415 53.8476C22.9774 53.7404 22.8009 53.611 22.6122 53.4592C22.3058 53.2211 21.9752 52.9498 21.6204 52.6452C21.2875 52.317 21.0233 51.9973 20.8279 51.6862C20.5812 51.2403 20.4091 50.6659 20.3114 49.963C20.2127 49.2373 20.153 48.624 20.1321 48.1232C20.0942 47.2125 20.1255 46.3218 20.2261 45.4509C20.3029 44.5583 20.3798 43.6657 20.4567 42.773L20.4552 42.7389C20.6791 42.091 20.903 41.4431 21.1269 40.7952C21.3498 40.1245 21.55 39.4548 21.7274 38.786C21.827 38.4398 21.9148 38.0826 21.9907 37.7146C22.0666 37.3465 22.1543 36.9894 22.2539 36.6431L22.2867 36.6075C22.446 36.6009 22.5599 36.5962 22.6282 36.5933C22.6955 36.5677 22.7837 36.4956 22.8928 36.377C22.8663 35.7396 22.9996 35.1068 23.2927 34.4789C23.6077 33.8272 23.9833 33.2642 24.4197 32.7899L24.4183 32.7557C24.4894 32.2738 24.6649 31.8332 24.9448 31.4339C25.2237 31.0117 25.5149 30.6119 25.8185 30.2344C26.1448 29.8559 26.4479 29.4669 26.7277 29.0676C27.0066 28.6455 27.193 28.193 27.287 27.7101L27.3197 27.6746C27.4497 27.5095 27.592 27.3667 27.7466 27.2463C27.9003 27.103 28.0653 26.9593 28.2418 26.8151C28.6364 26.4338 29.0201 26.0643 29.3929 25.7067C29.7876 25.3254 30.159 24.9336 30.5071 24.5314C30.7888 24.1776 31.0383 23.8707 31.2556 23.6108C31.4946 23.3271 31.7346 23.0663 31.9756 22.8282C32.2165 22.5901 32.4689 22.3515 32.7326 22.1125C33.0191 21.8725 33.3506 21.6192 33.7272 21.3527L33.76 21.3171L33.9748 21.5476C34.2186 21.3778 34.452 21.2312 34.6749 21.1079C34.9206 20.9837 35.1653 20.8366 35.4091 20.6668C35.5865 20.5454 35.7862 20.4117 36.0082 20.2656C36.252 20.0958 36.4967 19.9488 36.7424 19.8245C36.9881 19.7002 37.2352 19.6101 37.4838 19.5542C37.7541 19.4745 38.0155 19.4522 38.2678 19.4873C38.6131 19.5641 38.8583 19.7022 39.0034 19.9014C39.1486 20.1006 39.3511 20.3088 39.611 20.5261C39.9098 20.582 40.1541 20.6973 40.3438 20.8718C40.5326 21.0236 40.6777 21.2228 40.7792 21.4695C40.9025 21.6924 40.9926 21.9395 41.0496 22.2108C41.1283 22.4584 41.1961 22.7179 41.253 22.9892C41.2805 23.102 41.308 23.2149 41.3355 23.3278C41.3621 23.4179 41.3777 23.5199 41.3825 23.6337C41.299 23.8197 41.1316 23.9065 40.8802 23.8941C40.6516 23.8808 40.4576 23.8775 40.2982 23.8842L40.2313 23.9211C40.2427 23.647 40.1635 23.388 39.9937 23.1442C39.8467 22.8995 39.6551 22.6794 39.4189 22.484C39.1817 22.2658 38.9232 22.0827 38.6434 21.9347C38.3863 21.7858 38.1416 21.6591 37.9092 21.5548C37.7517 21.607 37.655 21.7478 37.6189 21.9774C37.5819 22.1842 37.5658 22.3445 37.5705 22.4583L37.9277 22.8198C37.9713 22.7723 38.004 22.7368 38.0258 22.713C38.0477 22.6893 38.0804 22.6538 38.124 22.6063C38.2587 22.5551 38.3745 22.5959 38.4712 22.7287C38.5898 22.8378 38.6937 22.8677 38.7828 22.8184L38.817 22.8169C39.0095 23.0598 39.2163 23.3705 39.4374 23.749C39.6811 24.1265 39.8324 24.4737 39.8912 24.7905C39.9501 25.1074 40.0198 25.4124 40.1004 25.7055C40.181 25.9986 40.3627 26.2533 40.6454 26.4696C40.633 26.721 40.6681 27.016 40.7506 27.3547C40.8559 27.6924 40.9143 27.9978 40.9256 28.271C40.9437 28.7036 40.9716 29.1015 41.0096 29.4649C41.0475 29.8282 41.121 30.2242 41.2301 30.653L41.2315 30.6871C41.1907 30.8029 41.1404 30.9646 41.0807 31.1724C41.0427 31.3564 41.0266 31.5167 41.0323 31.6533C41.0475 32.0176 41.1305 32.3676 41.2813 32.7034C41.4321 33.0392 41.5597 33.3646 41.664 33.6796C41.7684 33.9945 41.8044 34.3123 41.7721 34.6329C41.7627 34.9526 41.5938 35.2789 41.2656 35.6119C41.3415 35.7912 41.3263 35.9742 41.22 36.1611C41.1138 36.348 41.0644 36.5325 41.072 36.7146C41.0758 36.8057 41.1133 36.884 41.1844 36.9494C41.2546 36.9921 41.3139 37.0467 41.3623 37.1131C41.0028 37.2421 40.7941 37.4332 40.7362 37.6865C40.7001 37.916 40.6992 38.1669 40.7333 38.4392C40.7675 38.7115 40.767 38.9737 40.7319 39.2261C40.7196 39.4775 40.546 39.6899 40.2111 39.8635C40.2139 39.9318 40.2277 39.9883 40.2524 40.0329C40.2571 40.1467 40.2267 40.2392 40.1613 40.3103C40.0949 40.3587 40.0171 40.4076 39.9279 40.4569C39.8388 40.5062 39.7614 40.5664 39.696 40.6376C39.6296 40.686 39.5988 40.7671 39.6035 40.8809C39.6101 41.0403 39.6063 41.2229 39.5921 41.4287C39.6006 41.6336 39.6087 41.8271 39.6163 42.0093C39.6466 42.1905 39.6993 42.3593 39.7742 42.5158C39.8719 42.6714 40.0137 42.7909 40.1997 42.8744L40.3363 42.8687C40.6076 42.8118 40.8234 42.7914 40.9837 42.8076C41.144 42.8237 41.3513 42.8721 41.6055 42.9527C41.7905 43.0134 41.9755 43.0741 42.1604 43.1349C42.3445 43.1728 42.5252 43.1311 42.7026 43.0097C42.8857 43.0248 43.0564 43.0177 43.2148 42.9883C43.3723 42.9362 43.5193 42.9072 43.6559 42.9015C43.8143 42.8721 43.9737 42.8655 44.134 42.8816C44.3162 42.874 44.523 42.911 44.7544 42.9926L44.79 43.0254C45.0641 43.0367 45.2785 42.9822 45.4332 42.8617C45.6105 42.7403 45.7652 42.6198 45.897 42.5003C46.0507 42.3571 46.2053 42.2366 46.3609 42.1389C46.5165 42.0412 46.7091 42.0104 46.9386 42.0464L46.9742 42.0792C47.3091 41.9056 47.6444 41.7434 47.9802 41.5925C48.316 41.4417 48.6646 41.3246 49.0261 41.2411C49.2509 41.1633 49.3965 41.1002 49.4629 41.0519C49.5284 40.9807 49.571 40.9105 49.591 40.8413C49.6327 40.7483 49.674 40.644 49.7148 40.5282C49.7556 40.4125 49.8637 40.2712 50.0392 40.1042C50.3541 39.9999 50.6468 39.9079 50.9171 39.8282C51.2093 39.7248 51.502 39.6328 51.7951 39.5521ZM39.2067 29.711C38.9848 29.3097 38.7965 28.8956 38.6418 28.4688C38.4872 28.0419 38.3549 27.6027 38.2449 27.1511C38.1358 26.7224 38.0163 26.3168 37.8863 25.9345C37.7782 25.5285 37.626 25.1586 37.4296 24.8246C37.2551 24.467 37.0146 24.1691 36.7082 23.931C36.4236 23.6692 36.0503 23.4681 35.5884 23.3277L35.4845 23.2978C35.4001 23.461 35.3626 23.6564 35.3721 23.8841C35.3806 24.089 35.4565 24.2682 35.5997 24.4219L35.6367 24.4888C35.614 24.4898 35.603 24.5016 35.604 24.5244C35.604 24.5244 35.5926 24.5248 35.5698 24.5258C34.9978 25.0286 34.5316 25.6067 34.1711 26.2603C33.8106 26.9139 33.5089 27.6106 33.2661 28.3506C33.046 29.0895 32.8724 29.8494 32.7452 30.6301C32.6399 31.3871 32.5337 32.1213 32.4265 32.8327L32.3937 32.8683C32.444 32.9802 32.4938 33.0808 32.5431 33.17C32.6152 33.2582 32.6541 33.3706 32.6598 33.5072C32.6683 33.7121 32.6531 33.8952 32.6143 34.0564C32.5972 34.194 32.5806 34.3429 32.5644 34.5032C32.5474 34.6408 32.5644 34.7769 32.6157 34.9116C32.6669 35.0463 32.7755 35.19 32.9415 35.3428C32.9681 35.4329 32.9609 35.5358 32.9201 35.6515C32.9012 35.7436 32.8941 35.8465 32.8988 35.9603C32.9083 36.188 32.9543 36.4711 33.0368 36.8098C33.1411 37.1247 33.2346 37.4515 33.3171 37.7902C33.4224 38.1279 33.5149 38.4319 33.5946 38.7023C33.6742 38.9727 33.7164 39.1648 33.7212 39.2786C34.2638 39.7121 34.795 40.1461 35.3148 40.5806C35.8347 41.0151 36.4408 41.3319 37.1333 41.5311L37.2372 41.561C37.3766 41.0763 37.5512 40.6129 37.7608 40.1708C37.9705 39.7288 38.1692 39.2986 38.3571 38.8803C38.5667 38.4382 38.7304 37.9867 38.848 37.5257C38.9874 37.0409 39.0567 36.5135 39.0558 35.9434L39.0899 35.9419C39.1042 35.7361 39.143 35.5748 39.2066 35.4582C39.2692 35.3187 39.3095 35.1916 39.3276 35.0768C39.3456 34.962 39.3295 34.8487 39.2792 34.7367C39.2507 34.6011 39.153 34.4455 38.9861 34.27L39.0188 34.2344C39.3024 33.9261 39.4362 33.5785 39.4201 33.1915C39.4267 32.8035 39.376 32.4065 39.2679 32.0005C39.1825 31.5935 39.0976 31.1979 39.0132 30.8137C38.9515 30.4286 39.0051 30.0729 39.174 29.7466L39.2067 29.711ZM36.0205 44.3826C35.9873 44.1332 35.8654 43.9444 35.6548 43.8163C35.4433 43.6655 35.2099 43.5384 34.9548 43.435C34.6986 43.3088 34.4539 43.1821 34.2205 43.055C33.9862 42.9051 33.8297 42.7064 33.751 42.4588C33.6324 42.3497 33.502 42.2297 33.3597 42.0988C33.2402 41.9669 33.1211 41.8465 33.0026 41.7374C32.8849 41.651 32.7436 41.5429 32.5785 41.4129C32.4362 41.282 32.3053 41.1506 32.1858 41.0188C32.0653 40.8642 31.9563 40.7091 31.8586 40.5535C31.7827 40.3742 31.7523 40.193 31.7675 40.0099L31.7319 39.9772C31.4521 39.8292 31.2624 39.6547 31.1628 39.4536C31.0632 39.2524 30.9868 39.0618 30.9337 38.8815C30.9024 38.6776 30.8602 38.4855 30.8071 38.3052C30.7539 38.125 30.633 37.959 30.4442 37.8072C30.2223 37.406 30.0567 36.9909 29.9477 36.5622C29.8376 36.1106 29.7499 35.6467 29.6844 35.1705C29.6418 34.6934 29.5996 34.2276 29.5578 33.7732C29.5151 33.2961 29.4507 32.8426 29.3643 32.4129L29.3629 32.3788C29.5119 32.1217 29.5678 31.8229 29.5308 31.4823C29.5166 31.1408 29.5043 30.8449 29.4939 30.5944C28.8848 31.8513 28.1828 33.0665 27.3879 34.2399C26.6157 35.4124 25.9379 36.6607 25.3544 37.985L25.602 38.1799L25.5693 38.2155C25.2894 38.6149 25.0907 39.0451 24.9731 39.5061C24.8782 39.9662 24.7843 40.449 24.6913 40.9546C24.6201 41.4365 24.5148 41.9198 24.3754 42.4046C24.2577 42.8656 24.0358 43.2853 23.7094 43.6638L23.7109 43.698L23.6767 43.6994C23.209 43.9697 22.9477 44.2657 22.8927 44.5873C22.8367 44.8861 22.85 45.2048 22.9325 45.5435C23.0368 45.8584 23.1421 46.1961 23.2483 46.5566C23.3764 46.8934 23.3797 47.2467 23.2583 47.6167L23.2597 47.6508C22.9248 48.3718 22.8153 49.0263 22.931 49.6145C23.0457 50.1798 23.2767 50.7974 23.6239 51.4671L23.6253 51.5013C23.7458 51.6559 23.9422 51.7161 24.2144 51.682C24.4867 51.6478 24.6882 51.5596 24.8192 51.4173L24.8889 51.4486C25.0568 51.6469 25.2678 51.7863 25.5221 51.867C25.7753 51.9249 26.0391 51.9595 26.3132 51.9709C26.6101 51.9813 26.8952 51.9808 27.1684 51.9695C27.4634 51.9344 27.7247 51.9121 27.9524 51.9026L30.9121 49.8636C31.2005 49.6692 31.4448 49.5107 31.6449 49.3884C31.8679 49.2651 32.1112 49.0839 32.3749 48.8448C32.6168 48.6295 32.8027 48.4393 32.9327 48.2743C33.0617 48.0864 33.2462 47.8621 33.4862 47.6012L35.7117 45.1823C35.7554 45.1349 35.8184 45.0068 35.901 44.7981C35.9826 44.5667 36.0224 44.4282 36.0205 44.3826ZM74.7862 49.3706C74.513 49.382 74.2972 49.4023 74.1388 49.4317C74.0022 49.4374 73.8775 49.454 73.7646 49.4815C73.6517 49.5091 73.5284 49.5598 73.3946 49.6338C73.2609 49.7078 73.083 49.8178 72.861 49.9639C72.7804 50.2181 72.6632 50.4169 72.5096 50.5601C72.3777 50.6796 72.2112 50.7892 72.0101 50.8888C71.8308 50.9647 71.6406 51.0524 71.4395 51.152C71.2375 51.2288 71.0491 51.3621 70.8746 51.5518C69.1557 51.8971 67.6142 51.5736 66.2501 50.5813C66.086 50.4741 65.9328 50.3551 65.7905 50.2241C65.671 50.0923 65.5292 49.9728 65.3651 49.8656C65.2475 49.7792 65.1777 49.7479 65.1559 49.7716C65.1559 49.7716 65.108 49.7166 65.0122 49.6066C64.8434 49.3856 64.7295 49.1166 64.6707 48.7998C64.6337 48.4592 64.5749 48.1424 64.4943 47.8493C64.4127 47.5334 64.2652 47.2773 64.0518 47.0809C63.8602 46.8608 63.5258 46.7721 63.0486 46.8148C62.8409 47.3024 62.5312 47.8056 62.1194 48.3245C61.7296 48.8196 61.2809 49.2716 60.7733 49.6805C60.2658 50.0893 59.7213 50.4313 59.1398 50.7064C58.5811 50.9805 58.0399 51.1285 57.5162 51.1503C57.3559 51.6815 57.0533 52.0818 56.6084 52.3512C56.1872 52.6424 55.729 52.8668 55.2338 53.0242C55.1893 53.0489 55.0991 53.0755 54.9635 53.1039C54.8288 53.1551 54.75 53.1812 54.7273 53.1822C54.4095 53.2182 54.1567 53.1717 53.9689 53.0427C53.781 52.9137 53.6041 52.7728 53.4381 52.6201C53.2721 52.4674 53.0952 52.3265 52.9074 52.1975C52.7196 52.0685 52.4663 52.0106 52.1476 52.0239C51.8725 51.4424 51.5979 50.8722 51.3237 50.3135C51.0496 49.7548 50.8433 49.1818 50.7048 48.5946C50.9049 48.4722 51.0131 48.3309 51.0292 48.1706C51.0216 47.9884 51.014 47.8063 51.0065 47.6242C50.6375 47.5255 50.4496 47.3965 50.443 47.2371C50.4126 47.0559 50.4392 46.8724 50.5227 46.6865C50.5834 46.5015 50.656 46.3274 50.7404 46.1643C50.8011 45.9793 50.7494 45.8332 50.5853 45.726C50.7096 44.3296 51.0521 42.9698 51.6127 41.6465C52.1734 40.3232 53.0049 39.2053 54.1072 38.2927C53.9526 37.8659 53.973 37.5343 54.1684 37.2981C54.3866 37.061 54.6432 36.9248 54.9382 36.8898C55.256 36.8537 55.5553 36.9211 55.8361 37.0918C56.1387 37.2389 56.2975 37.4945 56.3127 37.8588C56.3421 38.0172 56.3374 38.1771 56.2985 38.3383C56.2596 38.4996 56.2202 38.6495 56.1804 38.788C56.0722 39.4766 55.8948 40.1454 55.6482 40.7943C55.4015 41.4431 55.1316 42.0815 54.8385 42.7095C54.5453 43.3375 54.2408 43.9659 53.9249 44.5948C53.6318 45.2228 53.3851 45.8717 53.185 46.5414C52.9194 46.7349 52.8363 46.9322 52.9359 47.1333C53.0355 47.3344 53.1579 47.5346 53.303 47.7338C53.47 47.9093 53.5573 48.0881 53.5649 48.2702C53.5952 48.4514 53.3974 48.6307 52.9715 48.8081C52.8482 49.1325 52.8942 49.4157 53.1095 49.6576C53.3239 49.8767 53.5046 50.1086 53.6516 50.3534C53.8347 50.3686 54.0054 50.3615 54.1639 50.3321C54.345 50.3017 54.4888 50.1931 54.595 50.0062C54.8758 50.177 55.1163 50.2012 55.3164 50.0788C55.5394 49.9555 55.7613 49.8094 55.9824 49.6406C56.2252 49.448 56.4809 49.2891 56.7493 49.1639C57.0406 49.0377 57.3721 49.0581 57.7439 49.2251C57.8967 49.0591 58.0138 48.8604 58.0954 48.6289C58.1998 48.3965 58.3046 48.1755 58.4099 47.9658C58.5152 47.7562 58.6447 47.5797 58.7984 47.4365C58.9748 47.2923 59.2234 47.2364 59.544 47.2686C59.839 46.6862 60.2408 46.2019 60.7492 45.8158C61.2567 45.407 61.7652 45.0209 62.2746 44.6576C62.8068 44.2934 63.2697 43.9092 63.6634 43.5051C64.0799 43.1 64.3322 42.5878 64.4204 41.9683C64.8246 41.2673 65.2254 40.4866 65.6228 39.6262C66.0421 38.7421 66.5359 38.0032 67.1041 37.4094C67.1649 37.2244 67.273 37.083 67.4286 36.9853C67.5832 36.8649 67.7511 36.7895 67.9323 36.7591C68.1125 36.706 68.2951 36.7098 68.4801 36.7705C68.6642 36.8084 68.8273 36.8929 68.9696 37.0238C69.0322 37.4317 68.9909 37.8097 68.8458 38.1579C68.7234 38.505 68.5783 38.8532 68.4104 39.2023C68.2643 39.5276 68.1533 39.8744 68.0774 40.2424C68.0015 40.6105 68.0532 41.0302 68.2324 41.5017C67.9213 41.6971 67.6092 41.8698 67.2961 42.0196C67.0059 42.1686 66.7274 42.3284 66.4609 42.4991C66.2171 42.6689 65.998 42.8833 65.8035 43.1423C65.6318 43.4003 65.5203 43.7356 65.4691 44.1483C66.0933 44.3503 66.4694 44.6198 66.5974 44.9565C66.7255 45.2933 66.7981 45.6666 66.8151 46.0764C66.8312 46.4634 66.8711 46.8722 66.9346 47.3029C67.02 47.7099 67.333 48.1073 67.8737 48.4953C67.9676 48.5598 68.0269 48.6144 68.0516 48.659C68.0981 48.6799 68.1792 48.7107 68.2949 48.7515C68.5254 48.8103 68.7303 48.8018 68.9096 48.7259C69.0879 48.6272 69.2554 48.5404 69.4119 48.4655C69.5912 48.3896 69.7724 48.3593 69.9555 48.3744C70.1604 48.3659 70.3937 48.493 70.6555 48.7558C70.979 48.309 71.2977 48.2957 71.6117 48.716C71.8641 48.2037 72.1027 47.9087 72.3275 47.8309C72.5523 47.7531 72.7676 47.7214 72.9735 47.7356C73.2021 47.7489 73.4288 47.7166 73.6536 47.6389C73.8785 47.5611 74.117 47.2661 74.3694 46.7538L74.6895 47.0484C74.811 46.6784 74.9632 46.501 75.1463 46.5162C75.3512 46.5077 75.5461 46.5338 75.7311 46.5945C75.9152 46.6324 76.0745 46.6258 76.2092 46.5746C76.343 46.5006 76.3999 46.2245 76.38 45.7464C76.5849 45.7379 76.7537 45.6853 76.8866 45.5885C77.0421 45.4908 77.1858 45.3822 77.3177 45.2627C77.4723 45.1422 77.6393 45.044 77.8186 44.9681C77.9969 44.8695 78.2113 44.8149 78.4617 44.8045L77.6634 46.9929L74.7862 49.3706ZM105.836 36.6516C105.765 37.1334 105.59 37.5855 105.311 38.0076C105.055 38.4288 104.728 38.8073 104.332 39.1431C103.958 39.4779 103.548 39.7686 103.102 40.0153C102.656 40.2391 102.206 40.4061 101.755 40.5161C101.084 40.8405 100.456 41.0947 99.8709 41.2788C99.3074 41.4391 98.7306 41.5543 98.1406 41.6245C97.5506 41.6947 96.9363 41.7317 96.2979 41.7355C95.6595 41.7392 94.9409 41.7349 94.1422 41.7226C93.9401 41.7994 93.7969 41.9194 93.7125 42.0826C93.6508 42.2448 93.6124 42.4174 93.5972 42.6005C93.6048 42.7827 93.6242 42.9757 93.6555 43.1797C93.6859 43.3608 93.693 43.5316 93.6769 43.6919C93.471 43.6777 93.3031 43.7531 93.1731 43.9181C93.0659 44.0823 92.9578 44.2236 92.8487 44.3422C92.8914 44.8193 92.8383 45.1864 92.6893 45.4435C92.5394 45.6778 92.3545 45.8908 92.1344 46.0824C91.9361 46.2503 91.7046 46.4424 91.44 46.6587C91.1971 46.8512 90.9922 47.1334 90.8253 47.5053C90.7399 47.6457 90.6886 47.7846 90.6716 47.9222C90.6535 48.037 90.6256 48.1864 90.5876 48.3704C90.5326 48.692 90.3813 48.8921 90.1337 48.9709C89.9089 49.0487 89.6722 49.1155 89.4236 49.1715C89.1742 49.2047 88.9493 49.2825 88.7492 49.4048C88.5481 49.5044 88.4442 49.7482 88.4375 50.1362C87.9424 50.2937 87.4619 50.5303 86.9961 50.8462C86.5313 51.1849 86.066 51.5121 85.6002 51.828C85.1344 52.1439 84.654 52.3805 84.1588 52.538C83.6873 52.7173 83.1746 52.7272 82.6206 52.5679C82.5049 52.5271 82.3427 52.4654 82.134 52.3829C81.948 52.2994 81.8076 52.214 81.7128 52.1267C81.6654 52.0831 81.5933 51.9949 81.4965 51.8621C81.4235 51.7511 81.3632 51.6738 81.3158 51.6301C81.073 51.2753 80.8856 50.884 80.7538 50.4562C80.6219 50.0284 80.5242 49.5991 80.4607 49.1685C80.3962 48.715 80.3658 48.2602 80.3696 47.8039C80.3507 47.3485 80.3327 46.916 80.3156 46.5062C80.4313 46.547 80.5447 46.5308 80.6557 46.4578C80.7429 46.3629 80.8193 46.2799 80.8848 46.2088L80.5419 45.3678C80.6804 45.4077 80.7937 45.3916 80.8819 45.3195C80.9702 45.2474 81.0465 45.1644 81.111 45.0705C80.762 44.9026 80.5836 44.7275 80.576 44.5454C80.5447 44.3414 80.5817 44.1347 80.687 43.925C80.7914 43.6926 80.9185 43.4592 81.0684 43.2249C81.241 42.9897 81.3221 42.7468 81.3117 42.4964C81.3117 41.9491 81.3473 41.4344 81.4185 40.9525C81.5114 40.4469 81.6163 39.9522 81.733 39.4685C81.8497 38.9847 81.9777 38.5004 82.1172 38.0157C82.2566 37.5309 82.3724 37.0244 82.4644 36.496C82.8495 36.4343 83.1953 36.2489 83.5017 35.9396C83.8072 35.6076 84.1136 35.2984 84.4209 35.0119C84.7283 34.7254 85.0513 34.5409 85.39 34.4584C85.7514 34.375 86.1683 34.5286 86.6407 34.9195C86.7545 35.4621 86.7299 35.9648 86.5667 36.4278C86.4263 36.8897 86.2512 37.3418 86.0416 37.7838C85.8319 38.2258 85.6455 38.6783 85.4824 39.1413C85.342 39.6032 85.3401 40.105 85.4766 40.6467C84.6276 41.0698 84.0817 41.6513 83.8388 42.3912C83.6187 43.1301 83.4807 43.9227 83.4247 44.7689C83.4124 45.0202 83.3896 45.2949 83.3564 45.5927C83.3222 45.8678 83.2535 46.133 83.1501 46.3881C83.2999 46.7012 83.336 47.019 83.2582 47.3415C83.1794 47.6413 83.1007 47.941 83.022 48.2408C82.966 48.5396 82.9546 48.8137 82.9878 49.0632C83.021 49.3127 83.2131 49.5442 83.5641 49.7576C85.0486 49.2625 86.3084 48.5714 87.3434 47.6845C88.3783 46.7976 89.3137 45.7095 90.1494 44.4204C90.6209 43.6937 91.0473 42.9804 91.4287 42.2803C91.8319 41.5565 92.1549 40.8247 92.3977 40.0848C92.6406 39.3449 92.791 38.5746 92.8488 37.774C92.9067 36.9733 92.8261 36.1329 92.607 35.2526C92.8337 35.2203 93.0339 35.0979 93.2075 34.8855C93.3811 34.673 93.5561 34.4946 93.7325 34.3505C93.908 34.1835 94.0869 34.0962 94.269 34.0886C94.4511 34.0811 94.6517 34.2437 94.8709 34.5767C95.219 34.7219 95.3978 34.9083 95.4073 35.1359C95.4386 35.3399 95.4135 35.5576 95.3319 35.7891C95.2731 36.0196 95.2256 36.2496 95.1896 36.4792C95.1535 36.7087 95.265 36.9207 95.5239 37.1152C95.4575 37.1636 95.3821 37.2694 95.2977 37.4325C95.2123 37.5729 95.1397 37.747 95.08 37.9547C95.0193 38.1397 94.9699 38.3242 94.932 38.5082C94.8931 38.6695 94.8864 38.7838 94.9121 38.8512C95.1321 39.2069 95.3678 39.3909 95.6192 39.4033C95.8697 39.3928 96.1296 39.3364 96.399 39.234C96.6684 39.1315 96.9392 39.0632 97.2115 39.0291C97.5056 38.9712 97.783 39.0623 98.0439 39.3023C98.6102 39.2103 99.1196 39.1207 99.5721 39.0334C100.024 38.9234 100.452 38.8143 100.858 38.7061C101.287 38.5971 101.716 38.4766 102.143 38.3448C102.593 38.1892 103.1 38.0313 103.663 37.871C103.944 37.4944 104.264 37.2302 104.622 37.0784C105.003 36.9257 105.408 36.7834 105.836 36.6516ZM129.702 42.0205C129.189 42.2928 128.849 42.6148 128.682 42.9867C128.515 43.3585 128.383 43.7403 128.285 44.1321C128.21 44.5229 128.1 44.9038 127.956 45.2747C127.834 45.6219 127.538 45.9193 127.07 46.1669C126.973 46.5814 126.757 46.8755 126.422 47.0491C126.11 47.2217 125.775 47.3839 125.416 47.5357C125.057 47.6647 124.733 47.8378 124.446 48.055C124.181 48.2713 124.059 48.6299 124.08 49.1307C123.635 49.4001 123.144 49.6487 122.606 49.8763C122.091 50.103 121.539 50.2742 120.951 50.39C120.387 50.5275 119.819 50.5967 119.249 50.5977C118.679 50.5986 118.139 50.5071 117.63 50.323C117.282 50.1779 116.943 49.9867 116.614 49.7496C116.496 49.6632 116.379 49.5883 116.263 49.5247C116.17 49.483 116.064 49.4076 115.945 49.2985C115.661 49.0367 115.42 48.7274 115.222 48.3707C115.025 48.014 114.861 47.6332 114.73 47.2281C114.599 46.8231 114.491 46.417 114.406 46.0101C114.32 45.6031 114.247 45.2185 114.187 44.8561L115.308 41.3885C114.626 40.8923 114.066 40.3113 113.628 39.6454C113.188 38.9567 112.66 38.3287 112.044 37.7614C111.937 37.9255 111.794 38.0683 111.617 38.1897C111.44 38.3111 111.379 38.4961 111.435 38.7446L111.789 39.0377C111.072 39.8886 110.348 40.8538 109.618 41.9333C108.909 42.9891 108.36 44.0497 107.971 45.1149C107.469 45.113 107.122 45.253 106.928 45.5347C106.734 45.7937 106.575 46.0967 106.453 46.4439C106.33 46.7683 106.171 47.0714 105.978 47.3532C105.784 47.6349 105.447 47.7629 104.967 47.7373C104.864 47.9925 104.762 48.2704 104.66 48.5711C104.558 48.8491 104.432 49.1166 104.283 49.3737C104.134 49.6307 103.949 49.8437 103.728 50.0125C103.508 50.2042 103.227 50.3071 102.886 50.3213C102.696 50.1468 102.585 49.9575 102.554 49.7536C102.523 49.5496 102.537 49.3438 102.597 49.136C102.656 48.9055 102.738 48.6854 102.843 48.4758C102.947 48.2434 103.018 48.0238 103.055 47.817C103.21 47.1492 103.515 46.5435 103.971 45.9999C104.427 45.4336 104.883 44.8787 105.339 44.3351C105.794 43.7688 106.18 43.1826 106.497 42.5764C106.814 41.9703 106.922 41.2702 106.82 40.4762C107.115 40.4411 107.409 40.3719 107.701 40.2685C108.015 40.1414 108.294 39.9929 108.538 39.8231C108.803 39.6296 108.999 39.4048 109.125 39.1487C109.273 38.8688 109.317 38.5477 109.256 38.1854C109.07 38.1019 108.963 37.9809 108.933 37.8225C108.903 37.6413 108.895 37.4592 108.911 37.2761C109.405 37.0959 109.792 36.8061 110.072 36.4067C110.373 35.9836 110.64 35.5392 110.871 35.0735C111.103 34.6077 111.323 34.1424 111.532 33.6776C111.762 33.1891 112.064 32.766 112.437 32.4084C112.763 32.5772 113.088 32.7233 113.413 32.8466C113.736 32.9472 114.05 33.0938 114.355 33.2863C114.161 33.5681 114.047 33.8351 114.012 34.0874C113.977 34.3398 113.965 34.6025 113.976 34.8757C113.987 35.1262 113.997 35.3766 114.008 35.627C114.018 35.8775 113.961 36.1421 113.835 36.421C114.213 36.7246 114.536 37.0874 114.804 37.5096C115.073 37.9317 115.407 38.2827 115.806 38.5626C116.071 38.3463 116.374 38.231 116.715 38.2168C117.056 38.1798 117.397 38.1656 117.74 38.1741C118.104 38.159 118.445 38.122 118.761 38.0632C119.077 37.9816 119.331 37.7772 119.523 37.4499C119.618 37.5372 119.756 37.577 119.938 37.5694C120.12 37.5619 120.302 37.5543 120.485 37.5467C120.667 37.5391 120.828 37.5666 120.967 37.6292C121.105 37.6691 121.189 37.7682 121.219 37.9266C121.249 38.1078 121.243 38.2335 121.2 38.3037C121.18 38.3729 121.151 38.4882 121.112 38.6495C121.074 38.8335 121.067 38.925 121.089 38.9241C121.112 38.9231 121.093 39.0038 121.031 39.166C120.929 39.4667 120.746 39.7252 120.482 39.9415C120.24 40.1568 119.987 40.3726 119.722 40.5889C119.479 40.7814 119.249 41.0077 119.032 41.2676C118.836 41.5038 118.746 41.804 118.761 42.1683C118.268 42.3713 117.927 42.6592 117.737 43.032C117.546 43.382 117.426 43.7861 117.377 44.2443C117.327 44.6797 117.3 45.137 117.297 45.616C117.293 46.0723 117.231 46.4968 117.111 46.8895L117.432 47.2182L117.691 46.8653C118.029 47.3074 118.416 47.5763 118.854 47.6721C119.314 47.767 119.782 47.7817 120.258 47.7163C120.472 47.3653 120.722 47.0812 121.009 46.864C121.32 46.6458 121.643 46.4613 121.979 46.3105C122.337 46.1587 122.696 46.0183 123.056 45.8893C123.438 45.7594 123.797 45.6076 124.131 45.434C124.399 45.286 124.62 45.1286 124.796 44.9616C124.994 44.7937 125.203 44.6026 125.422 44.3882C126.078 43.7223 126.724 43.0682 127.359 42.426C128.016 41.7829 128.673 41.1283 129.329 40.4624C129.466 40.4567 129.56 40.5212 129.611 40.6559C129.662 40.7907 129.692 40.9491 129.699 41.1312C129.706 41.2906 129.702 41.4618 129.687 41.6449C129.693 41.8042 129.698 41.9295 129.702 42.0205ZM157.692 37.1602C157.496 37.3737 157.343 37.5397 157.234 37.6582C157.148 37.7759 157.062 37.8935 156.975 38.0111C156.911 38.105 156.824 38.2113 156.715 38.3298C156.628 38.4475 156.488 38.6244 156.292 38.8606C156.118 39.0503 155.955 39.2509 155.804 39.4625C155.653 39.674 155.479 39.8637 155.28 40.0316C155.004 39.9747 154.79 40.0179 154.636 40.1611C154.505 40.3034 154.375 40.4684 154.246 40.6563C154.139 40.8204 154.032 40.9845 153.924 41.1486C153.839 41.289 153.716 41.3511 153.556 41.335C153.022 41.6537 152.486 41.9383 151.949 42.1887C151.411 42.4164 150.901 42.7455 150.417 43.1762L150.132 42.9144L146.652 44.7698C146.54 44.8201 146.429 44.8931 146.319 44.9889C146.209 45.0847 146.098 45.1691 145.987 45.2422C145.498 45.5362 144.985 45.8085 144.448 46.0589C143.933 46.2856 143.417 46.5009 142.901 46.7049L142.463 46.86C142.664 47.3077 142.677 47.6264 142.502 47.8162C142.328 48.0059 142.072 48.1534 141.734 48.2587C141.395 48.3412 141.022 48.4024 140.613 48.4422C140.204 48.482 139.889 48.575 139.667 48.7211C139.391 48.6869 139.106 48.676 138.81 48.6883C138.538 48.7225 138.255 48.7685 137.96 48.8263C137.644 48.8852 137.349 48.9202 137.075 48.9316C136.802 48.943 136.505 48.9212 136.183 48.8662L136.115 48.869C135.736 49.0673 135.395 49.1156 135.095 49.0141C134.818 48.9344 134.561 48.7855 134.324 48.5673C134.085 48.3264 133.857 48.0508 133.639 47.7406C133.443 47.4067 133.236 47.1074 133.02 46.8427C132.876 46.6663 132.694 46.4115 132.475 46.0786C132.256 45.7456 132.07 45.3885 131.917 45.0071C131.742 44.6267 131.635 44.2435 131.596 43.8574C131.533 43.4495 131.598 43.0933 131.791 42.7888C131.983 42.4843 132.141 42.1584 132.263 41.8112C132.363 41.465 132.403 41.0642 132.384 40.6089C132.378 40.4495 132.371 40.3015 132.366 40.1649C132.337 40.0293 132.32 39.8818 132.313 39.7224C132.427 39.7177 132.553 39.7238 132.69 39.7409C132.827 39.7352 132.952 39.73 133.066 39.7253C133.201 39.6968 133.302 39.647 133.367 39.5759C133.455 39.481 133.494 39.3311 133.486 39.1262C133.481 39.0124 133.432 38.9232 133.338 38.8587C133.266 38.7933 133.218 38.7268 133.192 38.6595C133.321 38.4489 133.439 38.2843 133.548 38.1658C133.679 38.0235 133.788 37.8935 133.874 37.7759C133.959 37.6355 134.022 37.4847 134.061 37.3234C134.098 37.1394 134.077 36.9008 133.996 36.6077C134.25 36.1182 134.551 35.6837 134.9 35.3043C135.271 34.9011 135.655 34.5317 136.051 34.1959C136.447 33.8373 136.854 33.4896 137.274 33.1529C137.693 32.8161 138.088 32.4576 138.46 32.0772C138.9 32.2413 139.242 32.2271 139.485 32.0345C139.75 31.841 139.981 31.6375 140.178 31.4241C140.373 31.1879 140.57 30.9972 140.77 30.8521C140.969 30.707 141.244 30.7525 141.596 30.9887L141.668 31.0542C142.257 30.4139 142.86 30.1151 143.478 30.1578C144.118 30.1995 144.661 30.3821 145.108 30.7056C145.578 31.0282 145.89 31.4142 146.046 31.8639C146.2 32.2908 146.088 32.592 145.707 32.7674C145.968 33.0074 146.106 33.2982 146.12 33.6397C146.134 33.9812 146.055 34.281 145.884 34.539C145.69 34.8207 145.52 35.1129 145.373 35.4155C145.248 35.6944 145.112 35.9965 144.966 36.3219C144.76 36.855 144.53 37.3663 144.277 37.8558C144.023 38.3225 143.652 38.7256 143.164 39.0652C142.75 38.9685 142.467 39.0258 142.316 39.2374C142.188 39.448 142.095 39.6799 142.037 39.9332C141.979 40.1637 141.906 40.3491 141.821 40.4895C141.736 40.6299 141.54 40.5925 141.235 40.3771L141.164 40.3117L141.098 40.3828C140.924 40.5725 140.784 40.7836 140.68 41.016C140.598 41.2475 140.469 41.4239 140.291 41.5453C140.084 41.4856 139.865 41.4376 139.635 41.4016C139.406 41.3655 139.188 41.329 138.981 41.292C139.001 41.7701 138.925 42.1496 138.755 42.4303C138.584 42.7111 138.354 42.9488 138.066 43.1432C137.799 43.314 137.486 43.4638 137.127 43.5928C136.766 43.6991 136.407 43.8395 136.05 44.014C135.714 44.1648 135.391 44.3607 135.082 44.6016C134.795 44.8189 134.568 45.1248 134.402 45.5194C134.64 45.7604 134.931 45.8965 135.274 45.9278C135.617 45.9364 135.969 45.9217 136.333 45.8837C136.695 45.823 137.047 45.7856 137.389 45.7713C137.753 45.7562 138.075 45.834 138.356 46.0047L138.392 46.0374L138.424 46.0019C138.968 45.9108 139.486 45.7638 139.98 45.5608C140.495 45.3341 140.987 45.1083 141.457 44.8835C141.948 44.635 142.44 44.4092 142.934 44.2062C143.449 43.9795 143.978 43.8093 144.52 43.6954C144.642 43.8728 144.794 43.9691 144.977 43.9843C145.183 43.9985 145.376 43.9791 145.556 43.926L145.587 43.8562C145.626 43.695 145.666 43.5565 145.707 43.4408C145.747 43.3023 145.809 43.1514 145.893 42.9883C146.042 42.7312 146.228 42.5296 146.45 42.3835C146.672 42.2375 146.907 42.1251 147.154 42.0463C147.424 41.9666 147.707 41.9093 148.002 41.8742C148.297 41.8391 148.592 41.7926 148.886 41.7347L148.954 41.7319L148.984 41.628C149.064 41.351 149.17 41.1642 149.303 41.0674C149.457 40.9469 149.613 40.8606 149.771 40.8084C149.951 40.7553 150.132 40.7136 150.313 40.6832C150.517 40.6519 150.708 40.5756 150.885 40.4542C151.301 40.5737 151.64 40.5139 151.904 40.2749C152.168 40.0358 152.419 39.7859 152.659 39.525L152.947 39.8551L153.044 39.7143C153.372 39.3813 153.612 39.1318 153.765 38.9658C153.941 38.7989 154.106 38.6552 154.26 38.5347C154.414 38.3915 154.591 38.2587 154.791 38.1363C155.013 37.9902 155.312 37.7839 155.689 37.5173C155.999 37.2992 156.298 37.0815 156.585 36.8642C156.896 36.6461 157.193 36.4056 157.479 36.1428C157.595 36.1836 157.655 36.2723 157.661 36.4089C157.666 36.5228 157.671 36.6366 157.675 36.7504C157.654 36.7969 157.634 36.8662 157.616 36.9582C157.619 37.0492 157.645 37.1166 157.692 37.1602ZM143.376 33.4803C143.353 33.4585 143.329 33.448 143.307 33.449C143.307 33.449 143.295 33.4381 143.271 33.4162C142.783 33.1857 142.379 33.0885 142.062 33.1245C141.743 33.1378 141.451 33.2412 141.185 33.4347C140.941 33.6045 140.711 33.8307 140.495 34.1134C140.301 34.3724 140.083 34.6209 139.842 34.859C139.623 35.0734 139.356 35.2441 139.042 35.3712C138.728 35.4984 138.341 35.5031 137.88 35.3855C137.827 35.7526 137.773 36.1197 137.72 36.4868C137.689 36.8302 137.67 37.1845 137.662 37.5497C137.281 37.7024 136.981 37.9087 136.764 38.1687C136.57 38.4276 136.399 38.7084 136.252 39.011C136.127 39.3127 136.004 39.6371 135.882 39.9843C135.781 40.3078 135.635 40.6217 135.442 40.9263L135.586 41.0913C135.675 41.042 135.779 41.0719 135.897 41.181C136.016 41.2901 136.099 41.3664 136.146 41.4101C136.382 41.0354 136.699 40.7143 137.098 40.4468C137.521 40.1783 137.944 39.9326 138.368 39.7097C138.813 39.4631 139.236 39.206 139.635 38.9385C140.035 38.671 140.328 38.3281 140.516 37.9098C141.236 37.6745 141.766 37.242 142.104 36.6121C142.443 35.9822 142.724 35.332 142.947 34.6613C142.987 34.5228 143.058 34.326 143.162 34.0708C143.287 33.7919 143.358 33.5951 143.376 33.4803ZM170.089 32.4362C170.014 32.827 169.9 33.1055 169.747 33.2715C169.616 33.4137 169.478 33.6476 169.332 33.973L169.192 33.9103C169.02 34.1456 168.858 34.369 168.707 34.5805C168.579 34.7911 168.44 35.0249 168.292 35.282C168.163 35.4926 168.047 35.7141 167.943 35.9465C167.86 36.1552 167.755 36.3648 167.627 36.5754C167.751 36.8211 167.842 37.091 167.9 37.3851C167.958 37.6792 168.026 37.95 168.105 38.1976C168.187 38.5135 168.256 38.8184 168.314 39.1125C168.395 39.4056 168.453 39.7111 168.489 40.0289C168.525 40.3467 168.527 40.6545 168.493 40.9524C168.459 41.2274 168.438 41.5248 168.428 41.8445C168.408 42.4611 168.446 43.0867 168.54 43.7214C168.634 44.3332 168.649 44.9484 168.583 45.5669C168.537 46.0934 168.389 46.6469 168.139 47.2274C167.891 47.8307 167.662 48.3648 167.453 48.8296C167.641 48.9586 167.861 49.0293 168.112 49.0416C168.364 49.0767 168.596 49.1697 168.808 49.3205C168.949 49.4287 169.068 49.5492 169.165 49.682C169.263 49.8375 169.371 49.9699 169.489 50.079C169.608 50.1881 169.771 50.2725 169.979 50.3323C170.21 50.4138 170.308 50.5808 170.273 50.8331C170.255 50.9479 170.212 50.9953 170.142 50.9754C170.074 50.9783 169.994 50.9588 169.901 50.9171C169.808 50.8753 169.703 50.8227 169.586 50.7591C169.469 50.6956 169.366 50.6657 169.274 50.6695C169.161 50.6742 169.059 50.6899 168.969 50.7164C168.902 50.7648 168.836 50.8132 168.769 50.8616C168.704 50.9327 168.637 50.9811 168.57 51.0067C168.504 51.0551 168.402 51.0821 168.266 51.0878C167.992 51.0992 167.729 51.0645 167.474 50.9839C167.22 50.9033 166.956 50.8573 166.682 50.8459C166.621 51.0308 166.583 51.2149 166.568 51.398C166.553 51.581 166.526 51.7646 166.488 51.9486C166.45 52.1327 166.378 52.3067 166.271 52.4708C166.163 52.6349 166.091 52.809 166.053 52.993L166.121 52.9902C165.915 53.5233 165.721 54.0673 165.539 54.6223C165.381 55.199 165.199 55.754 164.993 56.2871L164.889 56.2572C164.783 56.4441 164.699 56.63 164.638 56.815C164.579 57.0227 164.519 57.2305 164.459 57.4382C164.416 57.5084 164.386 57.5895 164.367 57.6815C164.37 57.7726 164.362 57.8414 164.341 57.8879C164.192 58.1449 164.055 58.4015 163.928 58.6576C163.802 58.9138 163.676 59.1699 163.55 59.426C163.425 59.7049 163.299 59.9724 163.173 60.2285C163.047 60.4847 162.909 60.7412 162.76 60.9983C162.654 61.1852 162.535 61.3498 162.404 61.4921C162.297 61.6562 162.179 61.8208 162.049 61.9858C162.006 62.056 161.951 62.1153 161.885 62.1637C161.82 62.2348 161.766 62.3055 161.723 62.3757C161.572 62.5872 161.446 62.8433 161.344 63.1441C161.243 63.4448 161.14 63.7227 161.037 63.9779C161.014 63.9788 161.003 63.9793 161.003 63.9793C161.004 64.0021 160.993 64.0139 160.97 64.0149C160.75 64.2065 160.565 64.4308 160.417 64.6879C160.29 64.944 160.117 65.1679 159.897 65.3595C159.723 65.5492 159.492 65.7527 159.204 65.9699C158.94 66.1862 158.742 66.3655 158.611 66.5078C158.437 66.7203 158.252 66.9218 158.054 67.1125C157.858 67.3259 157.662 67.5394 157.465 67.7528C157.223 67.9681 157.027 68.1816 156.876 68.3931C156.726 68.6274 156.519 68.8413 156.253 69.0348C155.986 69.2056 155.717 69.308 155.445 69.3422C155.173 69.3763 154.902 69.456 154.634 69.5812L154.598 69.5485C154.327 69.6054 154.066 69.6391 153.816 69.6495C153.543 69.6836 153.271 69.7292 153 69.7861C152.819 69.8164 152.673 69.8681 152.562 69.9412C152.428 70.0152 152.305 70.0773 152.193 70.1276C152.06 70.2015 151.925 70.2528 151.789 70.2812C151.655 70.3324 151.495 70.3391 151.311 70.3011C150.921 70.249 150.644 70.1579 150.479 70.0279C150.314 69.898 150.067 69.7258 149.739 69.5114C149.222 69.1452 148.781 68.696 148.417 68.1639C148.031 67.6554 147.734 67.109 147.528 66.5246C147.396 66.0968 147.326 65.7804 147.317 65.5755C147.31 65.3934 147.32 65.0851 147.347 64.6506C147.338 64.4457 147.372 64.1479 147.447 63.7571C147.522 63.3662 147.624 63.0883 147.754 62.9232C147.751 62.8549 147.769 62.7288 147.807 62.5447C147.846 62.3835 147.895 62.2104 147.956 62.0254C148.017 61.8404 148.078 61.6668 148.14 61.5046C148.202 61.3651 148.255 61.2717 148.299 61.2243C148.344 61.1996 148.412 61.1968 148.504 61.2157C148.574 61.2584 148.621 61.2907 148.645 61.3125C148.728 61.1266 148.789 60.9302 148.826 60.7234C148.863 60.5166 148.9 60.3098 148.937 60.103C148.956 60.0338 148.964 59.9536 148.961 59.8626C148.958 59.7943 148.967 59.7369 148.988 59.6904C149.17 59.1354 149.41 58.6123 149.709 58.1209C150.008 57.6295 150.401 57.2141 150.889 56.8745C151.059 56.5709 151.138 56.2939 151.128 56.0435C151.117 55.793 151.22 55.5265 151.437 55.2438C151.609 55.0086 151.807 54.8179 152.029 54.6718C152.251 54.5257 152.448 54.3351 152.621 54.0998C152.815 53.8408 152.987 53.5828 153.136 53.3257C153.263 53.0924 153.447 52.8567 153.688 52.6186C154.062 52.2837 154.473 52.0385 154.923 51.8829C155.373 51.7501 155.786 51.5277 156.161 51.2156C156.338 51.0942 156.446 50.9529 156.485 50.7916C156.502 50.654 156.623 50.535 156.847 50.4345C156.98 50.3605 157.127 50.3088 157.285 50.2794C157.421 50.2509 157.567 50.2106 157.725 50.1584C158.107 50.0285 158.455 49.8886 158.768 49.7387C159.104 49.6106 159.464 49.493 159.848 49.3858C160.073 49.3308 160.287 49.2649 160.489 49.188C160.692 49.134 160.906 49.0567 161.13 48.9561C161.196 48.9077 161.263 48.8594 161.329 48.811C161.419 48.7844 161.509 48.7579 161.599 48.7313C161.915 48.6497 162.22 48.58 162.514 48.5222C162.808 48.4643 163.114 48.4174 163.432 48.3813C163.726 48.3235 164 48.3235 164.253 48.3813C164.506 48.4392 164.746 48.452 164.973 48.4198C165.075 48.1191 165.187 47.8179 165.312 47.5162C165.437 47.2373 165.539 46.9594 165.619 46.6824C165.677 46.4291 165.712 46.1768 165.724 45.9254C165.759 45.6503 165.816 45.3856 165.897 45.1314C165.885 44.8582 165.897 44.5841 165.931 44.309C165.964 44.0111 165.998 43.7246 166.032 43.4495C166.048 43.2892 166.075 43.1284 166.114 42.9672C166.153 42.8059 166.192 42.6446 166.231 42.4834L166.41 41.8601C166.424 41.6315 166.413 41.3811 166.379 41.1088C166.345 40.8366 166.346 40.5857 166.382 40.3561C166.285 40.2233 166.177 40.1023 166.059 39.9933C165.962 39.8604 165.865 39.7276 165.769 39.5948C165.59 39.6935 165.377 39.7708 165.128 39.8268C164.88 39.8827 164.678 39.9596 164.522 40.0573C164.477 40.0592 164.376 40.109 164.22 40.2067C164.088 40.3034 163.933 40.4125 163.755 40.5339C163.578 40.6553 163.412 40.7763 163.257 40.8968C163.102 40.9945 163.001 41.0556 162.957 41.0803C162.825 41.1998 162.716 41.3184 162.63 41.436C162.543 41.5537 162.422 41.6613 162.267 41.759C162.111 41.8567 161.911 41.9677 161.665 42.092C161.441 42.1925 161.194 42.294 160.925 42.3965C160.656 42.4989 160.398 42.6009 160.151 42.7024C159.903 42.7811 159.7 42.8352 159.542 42.8646C159.339 42.9186 159.146 42.9495 158.964 42.9571C158.781 42.9419 158.599 42.9495 158.418 42.9798C158.304 42.9846 158.192 43.0234 158.081 43.0965C157.991 43.1458 157.902 43.1951 157.813 43.2445C157.7 43.272 157.598 43.2876 157.507 43.2914C157.392 43.2734 157.287 43.2094 157.191 43.0993C157.118 42.9883 157.103 42.8863 157.144 42.7934C157.163 42.7014 157.216 42.6079 157.304 42.5131C157.368 42.4192 157.444 42.3362 157.533 42.2641C157.597 42.1702 157.65 42.0653 157.691 41.9496C157.771 41.6954 157.786 41.4895 157.733 41.3321C157.681 41.1746 157.741 40.9668 157.913 40.7088C158.019 40.5219 158.14 40.4257 158.277 40.42C158.435 40.3906 158.592 40.3156 158.747 40.1952C158.923 40.051 159.007 39.8878 159 39.7057C158.992 39.5236 159.111 39.3704 159.357 39.2461C159.581 39.1455 159.806 39.0791 160.033 39.0469C160.259 38.9919 160.496 38.9478 160.746 38.9146C160.814 38.9117 160.883 38.9203 160.952 38.9402C161.043 38.9364 161.122 38.9217 161.19 38.8961C161.407 38.6362 161.568 38.4014 161.673 38.1918C161.778 37.9593 162.03 37.7208 162.431 37.476C162.809 37.255 163.125 37.1734 163.378 37.2313C163.631 37.2892 163.86 37.2911 164.063 37.237C164.237 37.0473 164.412 36.869 164.588 36.702C164.785 36.5113 164.982 36.3207 165.18 36.13C165.354 35.9403 165.529 35.7506 165.703 35.5609C165.877 35.3484 166.075 35.1691 166.297 35.023C166.377 34.7688 166.47 34.5255 166.574 34.2931C166.701 34.0597 166.817 33.8268 166.921 33.5944C167.027 33.3848 167.144 33.1974 167.274 33.0324C167.427 32.8664 167.556 32.6899 167.663 32.503C167.431 32.4215 167.189 32.3631 166.937 32.328C166.706 32.2692 166.498 32.1867 166.311 32.0804C166.017 32.1383 165.734 32.1843 165.461 32.2184C165.188 32.2298 164.904 32.253 164.609 32.2881C164.201 32.3507 163.794 32.4361 163.388 32.5442C163.321 32.5698 163.231 32.5964 163.118 32.6239C163.028 32.6505 162.949 32.6652 162.88 32.668C162.586 32.7259 162.292 32.7723 161.997 32.8074C161.724 32.8416 161.441 32.8762 161.146 32.9113C160.805 32.9483 160.509 32.9492 160.256 32.9141C160.027 32.8781 159.751 32.8325 159.43 32.7775C159.039 32.7026 158.73 32.6812 158.503 32.7135C158.276 32.7229 157.986 32.6096 157.634 32.3734C157.399 32.2007 157.279 32.0575 157.274 31.9436C157.246 31.808 157.171 31.6515 157.049 31.4741C157.001 31.4077 156.929 31.3308 156.834 31.2435C156.739 31.1563 156.656 31.0685 156.584 30.9803C156.512 30.8921 156.462 30.8029 156.436 30.7128C156.409 30.6227 156.428 30.5307 156.493 30.4367C156.646 30.2707 156.801 30.173 156.96 30.1436C157.117 30.0915 157.276 30.0734 157.436 30.0896C157.596 30.0829 157.755 30.0877 157.916 30.1038C158.098 30.0962 158.279 30.0545 158.458 29.9786C158.735 30.0583 159.037 30.1939 159.364 30.3856C159.691 30.5544 159.912 30.6593 160.027 30.7001C160.074 30.7209 160.246 30.7366 160.542 30.747C160.861 30.7337 161.203 30.7195 161.567 30.7044C161.954 30.6882 162.307 30.6735 162.626 30.6603C162.967 30.646 163.195 30.6366 163.309 30.6318C163.51 30.5322 163.759 30.4876 164.056 30.4981C164.374 30.4848 164.658 30.4616 164.908 30.4284C165.349 30.0679 165.864 29.8412 166.453 29.7482C166.861 29.6856 167.146 29.6852 167.308 29.7468C167.493 29.8076 167.781 29.8754 168.172 29.9503C168.379 29.9873 168.562 30.0025 168.721 29.9959C168.881 29.9892 169.029 29.9945 169.167 30.0115C169.303 30.0059 169.43 30.0462 169.548 30.1325C169.688 30.1951 169.818 30.3265 169.941 30.5267C170.185 30.9042 170.289 31.2191 170.254 31.4715C170.218 31.701 170.163 32.0226 170.089 32.4362ZM164.381 50.6338C163.197 50.6831 162.036 50.9938 160.896 51.5658C160.715 51.5961 160.534 51.6378 160.354 51.691C160.197 51.7431 160.028 51.7958 159.848 51.8489L158.053 52.2999C157.81 52.4925 157.578 52.6618 157.356 52.8079C157.179 52.9293 157.012 53.0389 156.857 53.1366C156.679 53.258 156.58 53.3306 156.558 53.3543C156.535 53.3552 156.48 53.4145 156.394 53.5321C156.286 53.6735 156.178 53.8148 156.07 53.9562C155.962 54.0975 155.853 54.2388 155.745 54.3802C155.637 54.5215 155.573 54.6154 155.552 54.6619C155.261 54.8108 154.982 54.9479 154.714 55.0731C154.446 55.2211 154.167 55.3696 153.877 55.5185C153.834 55.5887 153.77 55.694 153.685 55.8344C153.577 55.9757 153.469 56.117 153.36 56.2584C153.23 56.4234 153.122 56.5648 153.036 56.6824C152.928 56.8238 152.863 56.9063 152.841 56.93C152.82 56.9765 152.767 57.0585 152.68 57.1762C152.572 57.3175 152.464 57.4588 152.356 57.6002C152.248 57.7415 152.14 57.8829 152.031 58.0242C151.9 58.1665 151.813 58.2614 151.77 58.3088C151.739 58.6749 151.685 59.0079 151.606 59.3077C151.505 59.6311 151.451 59.9755 151.444 60.3407C151.134 60.5816 150.94 60.852 150.862 61.1518C150.784 61.4743 150.764 61.8286 150.803 62.2147C150.636 62.5865 150.467 62.9015 150.295 63.1595C150.102 63.4412 149.851 63.7253 149.544 64.0118C149.512 64.3324 149.49 64.6412 149.48 64.9381C149.47 65.2578 149.472 65.577 149.486 65.8957C149.678 66.1386 149.893 66.3691 150.13 66.5873C150.345 66.8064 150.559 67.0142 150.772 67.2105C151.001 67.2466 151.254 67.2817 151.529 67.3159C151.781 67.351 152.012 67.4098 152.22 67.4923C152.265 67.4676 152.355 67.4411 152.491 67.4126C152.626 67.3842 152.784 67.3434 152.965 67.2903C153.123 67.2609 153.281 67.2315 153.44 67.2021C153.576 67.1736 153.666 67.1584 153.712 67.1565C153.914 67.0797 154.14 67.0247 154.389 66.9915C154.638 66.9583 154.865 66.9147 155.068 66.8606C155.507 66.4546 155.922 66.0154 156.313 65.543C156.704 65.0706 157.094 64.5982 157.485 64.1258C157.681 63.8896 157.888 63.6529 158.106 63.4158C158.301 63.1796 158.496 62.932 158.691 62.673C158.862 62.415 159.023 62.1575 159.172 61.9004C159.343 61.6424 159.515 61.3843 159.687 61.1263C159.858 60.8683 160.018 60.5994 160.166 60.3195C160.337 60.0387 160.508 59.7693 160.68 59.5113C160.724 59.4639 160.799 59.3695 160.908 59.2282C161.038 59.0859 161.169 58.9322 161.299 58.7672C161.429 58.6021 161.548 58.4489 161.656 58.3076C161.765 58.189 161.83 58.1065 161.851 58.06C161.976 57.7811 162.09 57.5027 162.192 57.2247C162.318 56.9458 162.442 56.6556 162.567 56.3539C162.609 56.2837 162.661 56.1561 162.722 55.9711C162.783 55.8089 162.844 55.624 162.904 55.4162C162.987 55.2303 163.049 55.0567 163.088 54.8954C163.15 54.756 163.203 54.6625 163.247 54.6151C163.329 54.3837 163.453 54.082 163.62 53.7101C163.81 53.3601 163.925 53.0931 163.963 52.909C163.999 52.6795 164.002 52.4855 163.973 52.3271C163.966 52.1677 163.959 52.0083 163.953 51.849C163.947 51.7124 163.963 51.5407 164 51.3339C164.06 51.1489 164.188 50.9155 164.381 50.6338ZM99.6304 120.16C99.4331 120.35 99.1585 120.601 98.8065 120.913C98.4764 121.2 98.2592 121.46 98.1548 121.692C98.0277 121.926 97.9224 122.135 97.8389 122.321C97.7782 122.506 97.6938 122.669 97.5856 122.811C97.4993 122.928 97.3665 123.025 97.1872 123.101C97.0307 123.176 96.8044 123.22 96.5085 123.232C96.5113 123.3 96.3922 123.453 96.1513 123.691C95.9322 123.906 95.6912 124.144 95.4284 124.406C95.1647 124.645 94.9238 124.883 94.7056 125.12C94.4864 125.334 94.3783 125.476 94.3811 125.544L94.0667 125.386C94.0202 125.365 93.8841 125.382 93.6583 125.437C93.4544 125.469 93.2068 125.547 92.9155 125.674C92.6461 125.776 92.3786 125.924 92.113 126.117C91.8474 126.311 91.6411 126.559 91.494 126.862L91.356 126.833C91.0107 126.756 90.6569 126.748 90.2945 126.809C89.9558 126.891 89.6158 126.94 89.2743 126.954C88.5476 127.03 88.0079 126.938 87.655 126.679C87.3031 126.443 86.9184 125.969 86.501 125.256C86.4033 125.101 86.3165 124.933 86.2406 124.754C86.1648 124.575 86.1003 124.395 86.0471 124.215L86.0414 124.078C86.3526 123.883 86.5134 123.637 86.5238 123.34C86.5333 123.02 86.5082 122.69 86.4484 122.351C86.3887 122.011 86.3408 121.683 86.3047 121.365C86.2915 121.046 86.4058 120.779 86.6477 120.564C86.4959 120.205 86.4931 119.863 86.6392 119.538C86.8071 119.189 86.9645 118.863 87.1116 118.56C87.2586 118.258 87.3265 117.97 87.3151 117.697C87.3037 117.423 87.0414 117.149 86.5282 116.874C86.0131 117.101 85.5232 117.383 85.0583 117.722C84.6153 118.037 84.1619 118.375 83.698 118.737C83.2559 119.074 82.8025 119.412 82.3377 119.751C81.8956 120.089 81.417 120.371 80.9019 120.598C80.4456 121.141 79.9637 121.617 79.4562 122.026C78.9478 122.412 78.4516 122.821 77.9678 123.251C77.5068 123.681 77.0823 124.166 76.6943 124.707C76.3281 125.224 76.0582 125.862 75.8846 126.622C75.7651 126.49 75.6474 126.404 75.5317 126.363C75.416 126.322 75.2661 126.283 75.0821 126.245C74.8288 126.187 74.6438 126.127 74.5271 126.063C74.4095 125.977 74.2563 125.858 74.0675 125.706L74.0989 125.636C74.2791 125.036 74.493 124.422 74.7406 123.796C74.9882 123.17 75.0992 122.55 75.0736 121.935C75.0641 121.707 75.0328 121.504 74.9797 121.323C74.9257 121.12 74.8939 120.905 74.8844 120.677C74.8673 120.267 74.92 119.889 75.0424 119.542C75.1647 119.195 75.2995 118.87 75.4465 118.567C75.6163 118.264 75.7638 117.972 75.889 117.693C76.0361 117.391 76.103 117.08 76.0897 116.761C76.0793 116.511 76.0119 116.263 75.8877 116.017C75.7634 115.772 75.6064 115.561 75.4167 115.387C75.0742 115.378 74.7574 115.437 74.4662 115.563C74.174 115.667 73.8828 115.793 73.5925 115.942C73.3022 116.091 73.0001 116.229 72.6861 116.356C72.3711 116.46 72.0311 116.509 71.6658 116.501C71.2077 116.999 70.7381 117.497 70.2571 117.996C69.7752 118.473 69.2933 118.949 68.8114 119.425C67.803 120.402 66.8188 121.412 65.8588 122.456C64.9215 123.498 64.1835 124.669 63.6447 125.969C63.5413 126.224 63.4497 126.49 63.37 126.767C63.3122 127.02 63.2315 127.275 63.1281 127.53C63.13 127.575 63.1091 127.622 63.0655 127.669L62.8947 127.676C62.6443 127.687 62.4764 127.762 62.391 127.903C62.3284 128.042 62.2777 128.192 62.2388 128.354C62.2236 128.537 62.1965 128.709 62.1577 128.87C62.1188 129.031 62.0206 129.138 61.8631 129.19C61.6829 129.243 61.5107 129.216 61.3466 129.109C61.1597 129.003 61.007 128.895 60.8884 128.786L60.8528 128.753C60.61 128.399 60.4691 128.028 60.4303 127.642C60.3914 127.256 60.4213 126.879 60.5199 126.51C60.5949 126.119 60.7272 125.737 60.9169 125.364C61.0839 124.992 61.2518 124.643 61.4207 124.317C61.674 123.827 61.904 123.327 62.1108 122.817C62.3394 122.283 62.4419 121.731 62.4182 121.162C62.4078 120.912 62.3646 120.697 62.2887 120.518C62.2347 120.315 62.1806 120.112 62.1265 119.909L62.8565 119.365C62.736 119.21 62.662 119.077 62.6345 118.964C62.6288 118.827 62.6236 118.702 62.6189 118.588C62.6369 118.473 62.644 118.37 62.6402 118.279C62.6583 118.165 62.6421 118.051 62.5919 117.939L62.5876 117.837L62.848 117.518C62.7712 116.769 62.719 116.064 62.6915 115.404C62.664 114.743 62.4985 114.055 62.195 113.338C62.5014 113.028 62.8059 112.947 63.1085 113.094C63.4101 113.219 63.7127 113.366 64.0163 113.535L64.0177 113.57L64.0533 113.602C64.2468 113.868 64.4199 114.191 64.5726 114.573C64.7254 114.954 64.8449 115.36 64.9312 115.789C65.0393 116.195 65.1247 116.602 65.1873 117.01C65.2499 117.418 65.2878 117.781 65.3011 118.1C65.3049 118.191 65.2973 118.283 65.2783 118.375C65.2812 118.443 65.2845 118.523 65.2883 118.614L65.0919 118.827C65.2105 118.936 65.3404 119.045 65.4818 119.153C65.6231 119.261 65.773 119.301 65.9314 119.271C66.051 118.856 66.2563 118.585 66.5476 118.459C66.8378 118.31 67.1295 118.195 67.4227 118.114C67.7386 118.033 68.008 117.93 68.2309 117.807C68.4756 117.66 68.5895 117.382 68.5724 116.972C68.5686 116.881 68.5544 116.813 68.5297 116.768L68.5952 116.697C69.2061 116.033 69.8312 115.437 70.4706 114.909C71.1318 114.357 71.8215 113.94 72.5396 113.659C73.2804 113.378 74.0502 113.243 74.849 113.255C75.6705 113.267 76.5574 113.481 77.5098 113.897L77.5795 113.928L78.0135 115.313L77.7844 115.562C78.0254 115.871 78.1207 116.244 78.0704 116.679C78.0419 117.091 77.9679 117.504 77.8484 117.92C77.7289 118.335 77.6198 118.727 77.5211 119.096C77.4215 119.443 77.4433 119.693 77.5865 119.846C77.707 120.001 77.9148 120.061 78.2098 120.026C78.5276 119.99 78.7771 119.956 78.9582 119.926C79.1299 119.668 79.3714 119.441 79.6825 119.246C80.0164 119.05 80.3394 118.865 80.6515 118.692C80.9864 118.519 81.2757 118.347 81.5195 118.177C81.7624 117.985 81.8909 117.786 81.9051 117.58C82.2723 117.633 82.5678 117.609 82.7916 117.509C83.0146 117.385 83.1901 117.218 83.3181 117.008C83.4462 116.797 83.5624 116.576 83.6667 116.343C83.7702 116.088 83.8859 115.855 84.014 115.645C84.1638 115.41 84.3502 115.231 84.5732 115.108C84.7961 114.985 85.102 114.938 85.491 114.967C85.9928 114.422 86.5918 114.021 87.2881 113.764C88.0062 113.483 88.7291 113.316 89.4567 113.263C89.9794 113.218 90.3503 113.362 90.5694 113.695C90.7876 114.006 90.9061 114.388 90.9251 114.844C90.9497 115.436 90.8368 116.01 90.5864 116.568C90.336 117.126 90.0518 117.697 89.734 118.28C89.4162 118.863 89.1335 119.468 88.8859 120.094C88.6383 120.72 88.5302 121.409 88.5615 122.16C88.5643 122.229 88.5695 122.354 88.5771 122.536C88.5838 122.695 88.6022 122.866 88.6326 123.047C88.662 123.205 88.6914 123.364 88.7208 123.522C88.772 123.657 88.8327 123.745 88.9029 123.788C88.9959 123.83 89.077 123.861 89.1463 123.881L88.9812 124.024C89.5077 124.071 89.9787 124.154 90.3941 124.273C90.8087 124.37 91.2507 124.306 91.7203 124.081C91.855 124.03 91.9902 123.99 92.1258 123.962C92.2843 123.932 92.4308 123.892 92.5655 123.841C92.7695 123.809 92.8914 123.725 92.9312 123.586C92.9701 123.425 93.0436 123.274 93.1518 123.132C93.2818 122.967 93.481 122.822 93.7494 122.697C94.0397 122.548 94.515 122.46 95.1752 122.432L95.1524 121.886C95.6021 121.73 95.982 121.543 96.2922 121.325C96.6015 121.084 96.9003 120.866 97.1887 120.672C97.4998 120.477 97.8356 120.326 98.1961 120.22C98.5793 120.112 99.0574 120.092 99.6304 120.16ZM125.219 114.305C125.324 114.643 125.302 114.94 125.153 115.197C125.003 115.431 124.796 115.645 124.53 115.839C124.287 116.031 124.01 116.214 123.698 116.387C123.407 116.535 123.163 116.705 122.966 116.896C121.951 117.166 121.025 117.376 120.187 117.525C119.371 117.65 118.466 117.813 117.471 118.014C117.177 118.072 116.892 118.084 116.617 118.05C116.364 117.992 116.101 117.98 115.829 118.014C115.669 118.021 115.521 118.027 115.385 118.033C115.247 118.016 115.111 118.021 114.975 118.05C114.453 118.117 114.119 118.313 113.973 118.639C113.826 118.941 113.704 119.3 113.608 119.715C113.533 120.105 113.423 120.486 113.279 120.857C113.156 121.204 112.859 121.456 112.387 121.613C112.346 121.728 112.362 121.83 112.434 121.919C112.528 122.006 112.6 122.083 112.648 122.149C112.266 122.279 112.013 122.495 111.889 122.797C111.787 123.097 111.697 123.398 111.618 123.697C111.54 123.997 111.413 124.253 111.24 124.466C111.089 124.677 110.773 124.759 110.292 124.71C109.618 125.491 108.812 126.129 107.874 126.624C106.938 127.142 105.961 127.491 104.942 127.67C104.756 127.586 104.569 127.48 104.381 127.351C104.216 127.221 104.04 127.103 103.853 126.997C103.689 126.89 103.503 126.806 103.296 126.746C103.112 126.708 102.895 126.717 102.647 126.773C102.604 126.296 102.494 125.856 102.318 125.453C102.119 125.051 101.875 124.673 101.587 124.32C101.524 123.912 101.565 123.534 101.71 123.186C101.832 122.816 101.965 122.457 102.11 122.109C102.255 121.761 102.378 121.414 102.477 121.068C102.553 120.699 102.514 120.291 102.358 119.841C102.58 119.695 102.721 119.529 102.782 119.344C102.865 119.158 102.915 118.974 102.93 118.791C102.967 118.584 103.016 118.4 103.078 118.237C103.139 118.052 103.292 117.898 103.538 117.773C103.333 117.235 103.339 116.835 103.556 116.575C103.795 116.292 104.081 116.04 104.414 115.821C104.747 115.602 105.056 115.361 105.342 115.098C105.627 114.836 105.726 114.455 105.636 113.957C105.767 113.815 105.922 113.695 106.1 113.596C106.279 113.497 106.446 113.41 106.603 113.335C106.781 113.237 106.948 113.139 107.104 113.041C107.259 112.943 107.402 112.812 107.532 112.647C107.368 112.54 107.283 112.429 107.279 112.315C107.297 112.2 107.326 112.085 107.367 111.969C107.407 111.831 107.446 111.692 107.486 111.554C107.549 111.415 107.543 111.278 107.469 111.144C108.088 111.21 108.619 111.108 109.064 110.838C109.531 110.545 109.964 110.253 110.362 109.963C110.783 109.672 111.208 109.46 111.636 109.329C112.063 109.197 112.57 109.313 113.155 109.676C113.207 109.833 113.286 110.07 113.39 110.384C113.516 110.676 113.631 110.979 113.736 111.294C113.863 111.608 113.978 111.911 114.082 112.203C114.185 112.495 114.251 112.709 114.279 112.845C114.284 112.959 114.292 113.141 114.302 113.391C114.313 113.642 114.324 113.915 114.336 114.211C114.348 114.484 114.358 114.746 114.369 114.996C114.379 115.247 114.387 115.44 114.393 115.577C115.069 115.936 115.74 116.148 116.404 116.211C117.067 116.252 117.72 116.065 118.364 115.651C118.624 115.868 118.866 115.926 119.09 115.826C119.313 115.703 119.524 115.568 119.723 115.423C119.945 115.277 120.17 115.199 120.398 115.19C120.625 115.158 120.86 115.33 121.104 115.708C121.41 115.399 121.733 115.203 122.071 115.12C122.409 115.015 122.76 114.955 123.124 114.939C123.487 114.901 123.839 114.853 124.179 114.793C124.541 114.732 124.888 114.57 125.219 114.305ZM112.129 115.432C112.115 115.09 112.157 114.723 112.254 114.332C112.352 113.94 112.428 113.56 112.481 113.193C112.533 112.803 112.506 112.44 112.401 112.102C112.319 111.763 112.089 111.465 111.714 111.207C111.469 111.354 111.272 111.556 111.123 111.813C110.973 112.047 110.824 112.293 110.675 112.55C110.525 112.784 110.34 112.986 110.119 113.155C109.92 113.323 109.649 113.38 109.305 113.326C109.202 113.604 109.212 113.831 109.333 114.009C109.454 114.163 109.597 114.317 109.763 114.47C109.928 114.6 110.082 114.741 110.225 114.895C110.391 115.048 110.457 115.25 110.422 115.503C110.516 115.567 110.644 115.63 110.806 115.692C110.967 115.731 111.128 115.758 111.288 115.774C111.47 115.767 111.64 115.737 111.798 115.685C111.955 115.633 112.066 115.548 112.129 115.432ZM112.004 118.174C111.549 118.192 111.146 118.107 110.796 117.916C110.468 117.702 110.127 117.465 109.774 117.206C109.444 116.946 109.092 116.71 108.718 116.497C108.367 116.261 107.939 116.131 107.436 116.106C107.243 116.388 107.015 116.659 106.752 116.921C106.488 117.16 106.26 117.421 106.066 117.702C105.873 117.984 105.737 118.286 105.659 118.609C105.604 118.93 105.676 119.292 105.875 119.694C105.362 119.967 105.025 120.346 104.862 120.831C104.699 121.294 104.595 121.8 104.549 122.35C104.526 122.898 104.504 123.446 104.481 123.995C104.458 124.543 104.331 125.038 104.098 125.481L104.828 124.938C104.921 124.98 104.992 125.045 105.041 125.134C105.114 125.223 105.129 125.324 105.088 125.44C105.263 125.25 105.462 125.105 105.686 125.005C105.909 124.881 106.133 124.792 106.359 124.737C106.607 124.659 106.843 124.592 107.069 124.537C107.318 124.481 107.554 124.402 107.778 124.302C108.36 124.597 108.773 124.648 109.016 124.456C109.259 124.263 109.452 123.981 109.596 123.61C109.74 123.24 109.896 122.857 110.062 122.462C110.227 122.045 110.512 121.782 110.918 121.674L110.669 121.445C111.036 120.951 111.357 120.447 111.633 119.934C111.929 119.397 112.053 118.81 112.004 118.174ZM134.207 103.326C133.804 103.502 133.586 103.751 133.554 104.071C133.522 104.392 133.513 104.723 133.527 105.064C133.564 105.405 133.566 105.724 133.533 106.022C133.5 106.32 133.28 106.523 132.874 106.631C132.703 106.364 132.488 106.123 132.228 105.905C131.99 105.664 131.752 105.435 131.515 105.217C131.277 104.976 131.084 104.721 130.936 104.454C130.788 104.186 130.729 103.858 130.758 103.469L132.383 101.417C132.66 101.497 132.881 101.602 133.046 101.732C133.211 101.862 133.355 102.016 133.476 102.193C133.597 102.37 133.708 102.56 133.807 102.761C133.929 102.938 134.062 103.126 134.207 103.326ZM141.47 118.349C141.513 118.849 141.482 119.204 141.377 119.413C141.295 119.622 141.188 119.797 141.057 119.94C140.925 120.059 140.806 120.201 140.698 120.365C140.613 120.506 140.578 120.758 140.593 121.122C140.093 121.713 139.689 122.152 139.382 122.438C139.074 122.702 138.775 122.931 138.487 123.126C138.198 123.297 137.875 123.493 137.519 123.713C137.164 123.933 136.676 124.273 136.057 124.732L135.819 124.776C135.765 125.12 135.648 125.319 135.468 125.372C135.311 125.447 135.119 125.489 134.891 125.499C134.686 125.508 134.482 125.539 134.279 125.593C134.076 125.647 133.914 125.848 133.791 126.195C133.409 126.325 133.081 126.384 132.807 126.373C132.533 126.361 132.179 126.365 131.747 126.383C131.61 126.388 131.427 126.384 131.199 126.371C130.993 126.357 130.823 126.375 130.688 126.427C130.598 126.453 130.498 126.514 130.388 126.61C130.301 126.728 130.203 126.823 130.092 126.896C129.981 126.969 129.868 126.997 129.753 126.979C129.639 126.983 129.533 126.897 129.434 126.718C129.164 126.798 128.914 126.808 128.683 126.75C128.453 126.691 128.232 126.586 128.02 126.435C127.808 126.284 127.607 126.099 127.415 125.879C127.247 125.68 127.08 125.494 126.913 125.318C126.793 125.186 126.663 125.066 126.522 124.958C126.38 124.85 126.25 124.741 126.132 124.632C125.871 124.392 125.676 124.081 125.546 123.699C125.416 123.317 125.331 122.921 125.291 122.512C125.251 122.103 125.245 121.693 125.274 121.281C125.302 120.87 125.355 120.502 125.433 120.18C125.63 119.966 125.768 119.733 125.849 119.478C125.906 119.202 125.951 118.927 125.985 118.652C126.042 118.376 126.1 118.111 126.158 117.858C126.237 117.581 126.375 117.336 126.572 117.122C126.559 116.826 126.593 116.551 126.674 116.297C126.778 116.042 126.904 115.797 127.054 115.563C127.227 115.327 127.412 115.114 127.609 114.924C127.828 114.709 128.025 114.507 128.2 114.318C128.382 114.31 128.564 114.302 128.746 114.295C128.927 114.264 129.098 114.269 129.26 114.308C129.42 114.324 129.559 114.386 129.678 114.495C129.796 114.582 129.893 114.737 129.971 114.962C130.156 115.57 130.131 116.073 129.897 116.47C129.685 116.844 129.437 117.208 129.156 117.562C128.874 117.916 128.65 118.278 128.483 118.65C128.316 119.022 128.381 119.487 128.678 120.045C128.427 120.055 128.259 120.131 128.174 120.271C128.111 120.41 128.061 120.572 128.023 120.756C128.007 120.917 127.968 121.078 127.906 121.24C127.845 121.402 127.713 121.522 127.511 121.599C127.653 121.73 127.731 121.966 127.745 122.307C127.782 122.648 127.83 122.976 127.889 123.293C127.97 123.586 128.082 123.821 128.226 123.998C128.393 124.173 128.678 124.173 129.082 123.996C129.388 124.234 129.745 124.322 130.153 124.26C130.584 124.196 130.982 124.168 131.347 124.176C131.657 123.957 131.926 123.844 132.154 123.834C132.38 123.802 132.598 123.816 132.805 123.875C133.012 123.912 133.23 123.949 133.46 123.985C133.689 124.021 133.961 123.975 134.275 123.848C134.35 123.458 134.5 123.223 134.725 123.145C134.95 123.068 135.176 123.024 135.404 123.015C135.63 122.982 135.833 122.928 136.013 122.852C136.215 122.776 136.342 122.542 136.394 122.152C136.567 121.917 136.778 121.783 137.027 121.75C137.276 121.694 137.524 121.638 137.773 121.582C138.044 121.525 138.279 121.424 138.479 121.279C138.7 121.11 138.847 120.807 138.92 120.371C139.294 120.059 139.559 119.831 139.712 119.688C139.888 119.521 140.031 119.39 140.141 119.294C140.251 119.198 140.394 119.089 140.572 118.968C140.749 118.846 141.048 118.64 141.47 118.349Z" fill="#6A18A4"/>
<g clip-path="url(#clip0_5656_376)">
<path d="M126.991 158.318C127.315 158.769 127.355 159.02 127.339 159.576C127.089 160.243 126.786 160.376 126.168 160.723C125.698 160.878 125.221 160.979 124.738 161.08C117.124 162.831 110.313 168.34 106.197 174.881C105.067 176.736 104.054 178.605 103.35 180.664C103.295 180.82 103.295 180.82 103.24 180.98C101.393 186.489 101.368 192.403 103.919 197.68C106.203 202.218 110.028 205.416 114.84 207.022C117.043 207.69 119.351 208.045 121.613 208.458C121.638 208.365 121.663 208.273 121.689 208.179C123.581 201.331 127.213 195.092 132.442 190.236C132.537 190.145 132.633 190.055 132.732 189.962C134.189 188.587 135.719 187.372 137.371 186.24C137.759 185.973 138.145 185.702 138.53 185.431C141.963 183.049 145.534 181.48 149.798 182.169C152.237 182.685 154.349 183.921 155.803 185.979C156.889 187.758 157.441 189.991 157.083 192.068C157.056 192.247 157.029 192.425 157.001 192.609C156.006 198.378 152.045 202.823 147.412 206.122C146.036 207.079 144.61 207.879 143.097 208.599C142.828 208.728 142.561 208.86 142.295 208.993C137.667 211.243 130.402 213.808 125.206 212.771C125.292 219.625 127.077 226.061 132.061 231.046C134.714 233.566 137.706 235.461 141.161 236.679C141.362 236.752 141.362 236.752 141.566 236.827C147.413 238.798 154.008 238.236 159.564 235.651C161.574 234.649 163.533 233.464 165.29 232.061C165.84 231.627 165.949 231.543 166.624 231.599C167.288 231.8 167.569 232.082 168.006 232.614C168.24 233.089 168.222 233.274 168.08 233.787C166.447 237.272 160.235 239.905 156.84 241.176C150.369 243.485 143.585 243.125 137.369 240.243C130.336 236.847 124.728 230.417 122.155 223.071C121.06 219.773 120.683 216.403 120.89 212.938C120.724 212.907 120.558 212.877 120.387 212.846C116.393 212.108 112.519 211.353 108.931 209.353C108.833 209.299 108.735 209.244 108.634 209.188C106.254 207.841 104.296 206.165 102.636 203.987C102.549 203.884 102.462 203.781 102.371 203.675C98.7982 199.452 97.7943 192.835 98.1172 187.494C98.2352 186.258 98.4765 185.047 98.7251 183.831C98.7522 183.696 98.7794 183.562 98.8074 183.424C99.2216 181.392 99.6826 179.429 100.548 177.536C100.612 177.397 100.675 177.258 100.741 177.114C104.081 169.941 109.427 163.973 116.615 160.53C116.811 160.436 117.006 160.342 117.207 160.246C119.546 159.178 121.973 158.471 124.522 158.136C124.678 158.115 124.834 158.094 124.994 158.073C126.361 157.917 126.361 157.917 126.991 158.318ZM138.275 190.809C137.827 191.207 137.384 191.609 136.944 192.015C136.704 192.235 136.458 192.45 136.211 192.663C131.956 196.383 126.791 202.702 125.895 208.455C132.009 208.46 138.521 206.276 143.699 203.115C144.111 202.866 144.528 202.63 144.949 202.397C145.574 202.038 146.14 201.639 146.703 201.19C147.008 200.946 147.318 200.709 147.63 200.475C150.09 198.614 152.142 196.409 152.631 193.252C152.909 190.977 152.552 188.469 151.151 186.603C147.877 183.363 140.91 188.531 138.275 190.809Z" fill="#6A18A4"/>
<path d="M174.069 227.602C174.272 227.638 174.475 227.673 174.684 227.709C176.5 228.059 176.5 228.059 177.129 228.951C177.522 229.902 177.155 230.876 176.956 231.86C176.933 231.976 176.91 232.092 176.886 232.212C174.95 241.822 174.95 241.822 172.15 243.876C171.388 244.163 170.804 244.209 170.021 243.976C169.519 243.565 169.366 243.291 169.201 242.667C169.192 241.387 169.574 240.371 170.151 239.249C171.375 236.747 172.085 234.019 172.881 231.358C168.404 230.4 168.404 230.4 163.867 229.827C161.505 229.617 161.505 229.617 160.842 228.924C160.622 228.39 160.512 228.108 160.625 227.543C160.856 227.139 160.856 227.139 161.284 226.818C162.364 226.572 163.489 226.592 164.59 226.61C164.746 226.612 164.903 226.615 165.064 226.617C166.434 226.64 167.792 226.714 169.157 226.847C169.342 226.865 169.527 226.882 169.717 226.901C171.178 227.067 172.624 227.334 174.069 227.602Z" fill="#6A18A4"/>
</g>
<defs>
<clipPath id="clip0_5656_376">
<rect width="86" height="86" fill="white" transform="translate(105.411 150.586) rotate(11.2819)"/>
</clipPath>
</defs>
</svg>
