<svg width="120" height="120" viewBox="0 0 120 120" fill="none" xmlns="http://www.w3.org/2000/svg">
<path d="M59.7581 0C59.9177 0 60.0774 0 60.2419 0C60.2697 0.405187 60.2697 0.405187 60.2979 0.81856C60.747 7.38258 61.1973 13.9465 61.6489 20.5104C61.8672 23.6846 62.0852 26.8588 62.3022 30.0331C62.4913 32.7989 62.6812 35.5646 62.8719 38.3302C62.9729 39.7955 63.0735 41.2607 63.1733 42.7261C63.2671 44.1038 63.3619 45.4815 63.4575 46.8592C63.4925 47.3661 63.5271 47.8731 63.5613 48.3801C63.608 49.0697 63.6559 49.7592 63.7041 50.4487C63.7242 50.753 63.7242 50.753 63.7448 51.0634C63.7963 52.0557 63.7963 52.0557 64.1129 52.9839C66.377 50.9146 66.377 50.9146 68.5651 48.7661C68.9914 48.348 69.4362 47.9596 69.8891 47.5706C70.6173 46.9436 71.301 46.2889 71.9758 45.6048C72.789 44.7805 73.6299 44.0142 74.5086 43.2611C75.0572 42.7715 75.5724 42.2573 76.0887 41.7339C76.9019 40.9095 77.7428 40.1432 78.6215 39.3901C79.1701 38.9006 79.6853 38.3863 80.2016 37.8629C81.0148 37.0386 81.8557 36.2723 82.7344 35.5192C83.4774 34.8562 84.1664 34.1421 84.8655 33.4334C85.5065 32.8014 86.1803 32.2178 86.8633 31.6321C87.3649 31.1864 87.8357 30.72 88.3064 30.2419C88.9258 29.6129 89.5567 29.0171 90.2268 28.4425C90.9503 27.821 91.6285 27.171 92.2984 26.4919C93.1116 25.6676 93.9525 24.9013 94.8311 24.1482C95.3798 23.6586 95.8949 23.1444 96.4113 22.621C97.2245 21.7966 98.0654 21.0303 98.944 20.2772C99.4927 19.7877 100.008 19.2734 100.524 18.75C101.335 17.9277 102.173 17.1623 103.051 16.4129C103.83 15.7159 104.548 14.9611 105.27 14.2071C105.726 13.7903 105.726 13.7903 106.21 13.7903C105.809 14.8426 105.021 15.506 104.229 16.2702C103.204 17.2745 102.22 18.2868 101.292 19.3813C100.643 20.1151 99.9369 20.7907 99.2399 21.4784C98.6078 22.1194 98.0243 22.7932 97.4386 23.4762C96.8405 24.1493 96.1973 24.7727 95.556 25.4042C95.0994 25.868 94.6725 26.3457 94.249 26.8397C93.6274 27.5632 92.9775 28.2414 92.2984 28.9113C91.6243 29.5763 90.9791 30.2489 90.3629 30.9677C89.5762 31.8855 88.7281 32.7276 87.8679 33.5761C87.3878 34.0631 86.9369 34.5616 86.4919 35.0806C85.7052 35.9984 84.8571 36.8405 83.997 37.689C83.5168 38.176 83.0659 38.6745 82.621 39.1935C81.8343 40.1114 80.9862 40.9534 80.126 41.8019C79.6458 42.2889 79.1949 42.7874 78.75 43.3064C77.9633 44.2243 77.1152 45.0663 76.255 45.9148C75.7749 46.4018 75.324 46.9003 74.879 47.4194C74.0923 48.3372 73.2442 49.1792 72.3841 50.0277C71.7585 50.6622 71.1819 51.3293 70.6026 52.0057C69.9258 52.7637 69.1966 53.467 68.4734 54.1803C67.9434 54.7186 67.4663 55.2804 67.0161 55.8871C67.8047 56.2814 68.6826 56.2384 69.5513 56.2959C69.7661 56.3109 69.9809 56.3259 70.2022 56.3414C70.9262 56.3918 71.6502 56.4407 72.3743 56.4896C72.8916 56.5253 73.4089 56.5611 73.9262 56.597C75.3342 56.6944 76.7422 56.7905 78.1503 56.8864C79.6205 56.9867 81.0906 57.0882 82.5607 57.1896C85.3462 57.3815 88.1318 57.5723 90.9174 57.7628C94.0881 57.9796 97.2586 58.1976 100.429 58.4157C106.953 58.8645 113.476 59.3118 120 59.7581C120 59.9177 120 60.0774 120 60.2419C119.595 60.2697 119.595 60.2697 119.182 60.2979C112.622 60.7471 106.062 61.1974 99.5022 61.6489C96.3299 61.8672 93.1575 62.0851 89.9852 62.3022C87.2209 62.4914 84.4567 62.6812 81.6925 62.8719C80.2282 62.9728 78.7639 63.0735 77.2995 63.1733C75.9223 63.2672 74.5452 63.362 73.1682 63.4575C72.6617 63.4924 72.1552 63.527 71.6487 63.5613C70.9592 63.608 70.2698 63.6559 69.5804 63.7041C69.2771 63.7242 69.2771 63.7242 68.9678 63.7448C68.1916 63.8 67.5158 63.8657 66.7742 64.1129C66.9816 64.335 67.189 64.557 67.4027 64.7858C69.9632 67.5321 69.9632 67.5321 71.1763 68.9384C71.7551 69.5974 72.3494 70.242 72.9435 70.8871C73.8252 71.8448 74.695 72.8109 75.5481 73.7941C76.402 74.7711 77.2757 75.7304 78.1452 76.6935C78.5081 77.0967 78.871 77.4999 79.2339 77.9032C79.4135 78.1028 79.5931 78.3024 79.7782 78.5081C83.5887 82.7419 83.5887 82.7419 84.1255 83.3402C84.5113 83.7675 84.8996 84.1926 85.2898 84.616C85.4869 84.8309 85.684 85.0457 85.8871 85.2671C86.0667 85.4614 86.2464 85.6557 86.4314 85.8559C86.8548 86.371 86.8548 86.371 87.0968 87.0968C86.3619 86.7663 85.8365 86.3877 85.2558 85.8313C85.093 85.6768 84.9302 85.5223 84.7625 85.3631C84.5108 85.121 84.5108 85.121 84.254 84.874C83.1143 83.7852 81.9652 82.7166 80.7741 81.6841C80.1285 81.121 79.5002 80.541 78.871 79.9597C78.0727 79.2243 77.2719 78.4932 76.4516 77.7823C75.6313 77.0713 74.8307 76.34 74.0323 75.6048C73.0745 74.7232 72.1084 73.8534 71.1253 73.0003C69.9344 71.9594 68.7666 70.8923 67.5936 69.8315C66.4466 68.7959 65.2916 67.7735 64.1129 66.7742C63.8038 67.7016 63.7684 68.6121 63.7041 69.5804C63.6891 69.7954 63.674 70.0104 63.6586 70.2319C63.6083 70.9551 63.5593 71.6784 63.5104 72.4017C63.4747 72.9191 63.4389 73.4364 63.403 73.9538C63.3057 75.3607 63.2096 76.7678 63.1136 78.1749C63.0132 79.6444 62.9118 81.1139 62.8104 82.5833C62.6186 85.3671 62.4277 88.151 62.2372 90.9349C62.0203 94.1037 61.8023 97.2725 61.5843 100.441C61.1356 106.961 60.6883 113.48 60.2419 120C60.0823 120 59.9226 120 59.7581 120C59.7396 119.73 59.7211 119.46 59.7021 119.181C59.253 112.617 58.8027 106.053 58.3511 99.4896C58.1328 96.3154 57.9148 93.1412 57.6978 89.9669C57.5087 87.2011 57.3188 84.4354 57.1281 81.6698C57.0271 80.2045 56.9265 78.7393 56.8267 77.2739C56.7329 75.8962 56.6381 74.5185 56.5425 73.1408C56.5075 72.6339 56.4729 72.1269 56.4387 71.6199C56.392 70.9303 56.3441 70.2408 56.2959 69.5513C56.2825 69.3484 56.2691 69.1456 56.2552 68.9365C56.2037 67.9443 56.2037 67.9443 55.8871 67.0161C53.623 69.0854 53.623 69.0854 51.4349 71.2339C51.0085 71.652 50.5638 72.0404 50.1109 72.4294C49.3827 73.0564 48.699 73.7111 48.0242 74.3952C47.211 75.2195 46.3701 75.9858 45.4914 76.7389C44.9428 77.2284 44.4276 77.7427 43.9113 78.2661C43.0981 79.0904 42.2572 79.8568 41.3785 80.6099C40.8299 81.0994 40.3147 81.6137 39.7984 82.1371C38.9852 82.9614 38.1443 83.7277 37.2656 84.4808C36.717 84.9704 36.2018 85.4846 35.6855 86.0081C34.8723 86.8324 34.0314 87.5987 33.1527 88.3518C32.6041 88.8414 32.0889 89.3556 31.5726 89.879C30.7594 90.7033 29.9185 91.4697 29.0398 92.2228C28.4912 92.7123 27.976 93.2266 27.4597 93.75C26.6465 94.5743 25.8056 95.3406 24.9269 96.0938C24.3783 96.5833 23.8631 97.0975 23.3468 97.621C22.5336 98.4453 21.6927 99.2116 20.814 99.9647C20.071 100.628 19.382 101.342 18.6829 102.05C18.0438 102.681 17.3729 103.263 16.6907 103.845C15.9828 104.477 15.3308 105.159 14.6768 105.846C14.2742 106.21 14.2742 106.21 13.7903 106.21C14.1913 105.157 14.9786 104.494 15.7712 103.73C16.7957 102.725 17.7795 101.713 18.7084 100.619C19.3573 99.8849 20.0631 99.2093 20.7601 98.5216C21.3922 97.8806 21.9757 97.2068 22.5614 96.5238C23.1595 95.8507 23.8027 95.2273 24.444 94.5958C24.9006 94.132 25.3275 93.6543 25.751 93.1603C26.3726 92.4368 27.0225 91.7586 27.7016 91.0887C28.3757 90.4237 29.0209 89.7511 29.6371 89.0323C30.4238 88.1144 31.2719 87.2724 32.1321 86.4239C32.6122 85.9369 33.0631 85.4384 33.5081 84.9193C34.2948 84.0015 35.1429 83.1595 36.003 82.311C36.4832 81.824 36.9341 81.3255 37.379 80.8064C38.1657 79.8886 39.0138 79.0466 39.874 78.1981C40.3542 77.7111 40.8051 77.2126 41.25 76.6935C42.0367 75.7757 42.8848 74.9337 43.745 74.0852C44.2251 73.5982 44.676 73.0997 45.121 72.5806C45.9077 71.6628 46.7558 70.8208 47.6159 69.9723C48.2415 69.3378 48.8181 68.6707 49.3974 67.9943C50.0742 67.2363 50.8034 66.533 51.5266 65.8197C52.0566 65.2814 52.5337 64.7196 52.9839 64.1129C52.4778 63.6068 51.4103 63.75 50.7106 63.7041C50.495 63.6891 50.2794 63.674 50.0573 63.6586C49.3292 63.6081 48.6011 63.5592 47.8729 63.5104C47.3533 63.4747 46.8336 63.4389 46.314 63.403C44.8985 63.3055 43.4829 63.2095 42.0673 63.1136C40.5897 63.0134 39.1121 62.9118 37.6346 62.8104C34.8345 62.6185 32.0344 62.4277 29.2342 62.2372C26.0472 62.0205 22.8603 61.8024 19.6733 61.5843C13.1157 61.1354 6.55787 60.6881 0 60.2419C0 60.0823 0 59.9226 0 59.7581C0.407058 59.7303 0.407058 59.7303 0.822339 59.7021C7.41665 59.253 14.0109 58.8027 20.605 58.3511C23.7939 58.1328 26.9827 57.9148 30.1716 57.6978C32.9502 57.5087 35.7287 57.3188 38.5071 57.1281C39.9791 57.0271 41.4511 56.9265 42.9232 56.8267C44.3073 56.7329 45.6914 56.6381 47.0754 56.5425C47.5847 56.5075 48.094 56.4729 48.6033 56.4387C49.2961 56.392 49.9888 56.3441 50.6815 56.2959C50.8853 56.2825 51.0891 56.2691 51.2991 56.2552C52.2945 56.2042 52.2945 56.2042 53.2258 55.8871C53.0184 55.665 52.811 55.443 52.5973 55.2142C50.0131 52.4424 50.0131 52.4424 48.8076 51.0456C48.2728 50.4337 47.7252 49.8342 47.1774 49.2339C46.4891 48.4793 45.8052 47.7224 45.1361 46.9506C44.3062 45.9952 43.4492 45.0653 42.592 44.1344C41.8389 43.315 41.1018 42.4841 40.373 41.6431C39.7874 40.9795 39.1882 40.3285 38.5887 39.6774C37.7197 38.7336 36.8629 37.7815 36.0248 36.8101C35.6455 36.3817 35.2604 35.9617 34.8699 35.5437C34.7476 35.4124 34.6254 35.2811 34.4994 35.1459C34.2551 34.8841 34.0097 34.6232 33.7632 34.3633C32.9032 33.4407 32.9032 33.4407 32.9032 32.9032C33.638 33.2337 34.1635 33.6123 34.7442 34.1687C34.907 34.3232 35.0698 34.4777 35.2375 34.6369C35.4892 34.879 35.4892 34.879 35.746 35.126C36.8857 36.2148 38.0348 37.2834 39.2259 38.3159C39.8715 38.879 40.4998 39.459 41.129 40.0403C42.0803 40.9166 43.0408 41.7797 44.0181 42.627C44.868 43.3737 45.6999 44.1402 46.5357 44.9027C47.0624 45.3797 47.5932 45.8501 48.13 46.3155C48.9549 47.032 49.7608 47.7681 50.5645 48.5081C51.6789 49.5337 52.8066 50.541 53.9516 51.5323C54.3147 51.8496 54.6776 52.1672 55.0403 52.4849C55.2836 52.6977 55.2836 52.6977 55.5318 52.9149C55.649 53.0175 55.7663 53.1201 55.8871 53.2258C56.1962 52.2984 56.2316 51.3879 56.2959 50.4196C56.3109 50.2046 56.3259 49.9896 56.3414 49.7681C56.3917 49.0449 56.4407 48.3216 56.4896 47.5983C56.5253 47.0809 56.5611 46.5636 56.597 46.0462C56.6943 44.6393 56.7904 43.2322 56.8864 41.8251C56.9868 40.3556 57.0882 38.8861 57.1896 37.4167C57.3814 34.6329 57.5723 31.849 57.7628 29.0651C57.9797 25.8963 58.1977 22.7275 58.4157 19.5587C58.8644 13.0392 59.3117 6.51964 59.7581 0Z" fill="white"/>
</svg>
