<svg width="449" height="449" viewBox="0 0 449 449" fill="none" xmlns="http://www.w3.org/2000/svg">
<path d="M229.437 0.437005C232.261 2.62723 233.852 4.26718 235.437 7.43701C235.592 9.61375 235.687 11.7948 235.753 13.9761C235.816 15.929 235.816 15.929 235.88 17.9214C235.92 19.3016 235.96 20.6818 236 22.062C236.043 23.45 236.086 24.8381 236.13 26.2261C236.237 29.6296 236.339 33.0332 236.437 36.437C237.112 35.7615 237.788 35.0861 238.484 34.3901C241.135 31.7391 243.786 29.088 246.437 26.437C247.164 25.6893 247.891 24.9417 248.64 24.1714C251.651 21.2655 254.17 21.0473 258.332 21.0776C262.053 21.7128 263.84 23.7768 266.437 26.437C268.081 29.7249 268.06 32.8956 267.437 36.437C264.705 41.9228 260.157 45.5594 255.382 49.2104C241.967 59.6418 241.967 59.6418 235.279 74.708C233.962 86.8978 235.044 99.2968 236.437 111.437C238.796 109.108 241.148 106.773 243.5 104.437C244.156 103.789 244.813 103.14 245.49 102.472C248.721 99.257 251.854 96.0103 254.828 92.5542C259.04 87.6715 263.568 83.1219 268.125 78.562C268.966 77.7086 269.807 76.8553 270.673 75.9761C271.892 74.754 271.892 74.754 273.136 73.5073C273.867 72.7727 274.597 72.0381 275.35 71.2812C277.975 68.9619 280.097 67.5305 283.621 67.2847C287.807 67.6837 289.991 68.1027 293.437 70.687C296.528 74.9375 296.561 78.998 296.642 84.1453C296.662 85.266 296.682 86.3868 296.703 87.5416C296.728 89.3403 296.728 89.3403 296.753 91.1753C296.774 92.4112 296.795 93.6471 296.816 94.9204C296.871 98.1935 296.921 101.467 296.969 104.74C297.02 108.085 297.075 111.43 297.13 114.775C297.237 121.329 297.339 127.883 297.437 134.437C316.426 120.836 316.426 120.836 326.797 100.889C328.104 90.3948 327.639 79.6108 326.546 69.1098C326.166 64.7802 326.194 62.8955 328.295 58.9309C330.953 55.8366 332.464 55.2043 336.343 54.4878C339.95 54.4003 342.381 55.6394 345.437 57.437C348.17 60.3972 348.827 62.4271 348.949 66.4214C349.002 67.8232 349.002 67.8232 349.056 69.2534C349.079 70.2215 349.101 71.1896 349.125 72.187C349.159 73.1706 349.193 74.1541 349.228 75.1675C349.31 77.5905 349.38 80.0132 349.437 82.437C349.921 81.9377 350.404 81.4385 350.902 80.9241C353.114 78.6496 355.338 76.387 357.562 74.1245C358.703 72.946 358.703 72.946 359.867 71.7436C364.572 66.9775 368.56 63.0024 375.437 61.9995C379.323 62.5662 381.415 63.9644 384.437 66.437C386.68 70.0773 386.875 72.7789 386.289 76.9487C384.51 82.1467 380.285 85.6743 376.437 89.437C375.495 90.3871 374.555 91.3389 373.617 92.2925C371.241 94.6922 368.847 97.0719 366.437 99.437C367.047 99.4463 367.657 99.4557 368.285 99.4653C371.066 99.5192 373.845 99.6028 376.625 99.687C378.064 99.7083 378.064 99.7083 379.533 99.73C383.951 99.8829 386.704 99.9836 390.523 102.347C392.78 104.811 393.777 106.138 394.437 109.437C394.258 112.667 393.891 115.534 392.437 118.437C389.049 121.374 386.617 122.729 382.177 122.523C380.532 122.371 378.888 122.205 377.246 122.027C353.627 119.965 353.627 119.965 333.082 129.945C325.756 136.718 319.374 144.438 313.437 152.437C314.504 152.427 314.504 152.427 315.592 152.417C322.315 152.357 329.038 152.311 335.761 152.282C339.217 152.266 342.673 152.245 346.129 152.211C350.108 152.172 354.087 152.157 358.066 152.144C359.298 152.129 360.531 152.113 361.801 152.097C368.104 152.096 372.932 152.23 378.437 155.437C380.916 158.316 381.394 160.1 381.875 163.875C380.889 171.897 374 177.138 368.515 182.554C367.655 183.411 366.795 184.269 365.909 185.152C363.173 187.877 360.43 190.594 357.687 193.312C355.826 195.163 353.965 197.015 352.105 198.867C347.554 203.395 342.998 207.918 338.437 212.437C362.021 216.156 362.021 216.156 384.046 209.737C391.565 203.92 397.891 196.577 403.649 189.046C406.255 185.645 408.533 183.266 412.437 181.437C417.416 180.904 420.502 181.267 424.437 184.437C426.704 187.251 427.393 189.178 428 192.75C426.948 199.64 422.024 203.93 417.218 208.691C416.507 209.397 415.796 210.103 415.064 210.83C414.527 211.36 413.99 211.891 413.437 212.437C414.662 212.451 414.662 212.451 415.912 212.465C419.629 212.519 423.345 212.603 427.062 212.687C428.347 212.701 429.632 212.715 430.957 212.73C442.856 213.038 442.856 213.038 447.437 217.437C449.294 221.152 449.022 225.393 448.437 229.437C446.247 232.261 444.607 233.852 441.437 235.437C439.26 235.592 437.079 235.687 434.898 235.753C432.945 235.816 432.945 235.816 430.953 235.88C429.572 235.92 428.192 235.96 426.812 236C425.424 236.043 424.036 236.086 422.648 236.13C419.244 236.237 415.841 236.339 412.437 236.437C413.112 237.112 413.788 237.788 414.484 238.484C417.135 241.135 419.786 243.786 422.437 246.437C423.185 247.164 423.932 247.891 424.703 248.64C427.609 251.651 427.827 254.17 427.796 258.332C427.161 262.053 425.097 263.84 422.437 266.437C419.149 268.081 415.978 268.06 412.437 267.437C406.951 264.705 403.315 260.157 399.664 255.382C389.232 241.967 389.232 241.967 374.166 235.279C361.976 233.962 349.577 235.044 337.437 236.437C347.188 246.381 347.188 246.381 357.497 255.732C361.786 259.5 365.775 263.591 369.812 267.625C371.164 268.958 371.164 268.958 372.542 270.318C373.402 271.176 374.262 272.034 375.148 272.917C375.924 273.69 376.701 274.462 377.501 275.258C379.869 277.923 381.339 280.034 381.589 283.621C381.19 287.807 380.771 289.991 378.187 293.437C373.937 296.528 369.876 296.561 364.729 296.642C363.608 296.662 362.487 296.682 361.332 296.703C360.133 296.72 358.934 296.736 357.699 296.753C356.463 296.774 355.227 296.795 353.954 296.816C350.68 296.871 347.407 296.921 344.134 296.969C340.789 297.02 337.444 297.075 334.099 297.13C327.545 297.237 320.991 297.339 314.437 297.437C328.038 316.426 328.038 316.426 347.985 326.797C358.479 328.104 369.263 327.639 379.764 326.546C384.094 326.166 385.979 326.194 389.943 328.295C393.037 330.953 393.67 332.464 394.386 336.343C394.474 339.95 393.235 342.381 391.437 345.437C388.477 348.17 386.447 348.827 382.453 348.949C381.051 349.002 381.051 349.002 379.621 349.056C378.653 349.079 377.684 349.101 376.687 349.125C375.703 349.159 374.72 349.193 373.707 349.228C371.283 349.31 368.861 349.38 366.437 349.437C366.936 349.926 367.436 350.415 367.95 350.918C370.222 353.148 372.486 355.386 374.75 357.625C375.535 358.393 376.321 359.162 377.13 359.955C377.888 360.705 378.645 361.456 379.425 362.23C380.122 362.916 380.818 363.602 381.536 364.309C384.595 367.734 386.319 370.334 386.812 374.937C386.406 378.722 385.811 380.49 383.437 383.437C380.623 385.704 378.696 386.393 375.125 387C364.68 385.406 356.494 373.673 349.437 366.437C349.428 367.047 349.418 367.657 349.409 368.285C349.355 371.066 349.271 373.845 349.187 376.625C349.173 377.584 349.159 378.544 349.144 379.533C348.994 383.883 348.862 386.713 346.628 390.519C343.412 393.334 340.689 394.255 336.437 394.437C332.584 393.363 330.297 392.456 327.706 389.384C325.904 385.198 326.492 381.803 326.945 377.343C328.946 353.666 328.946 353.666 318.925 333.078C312.154 325.753 304.435 319.372 296.437 313.437C296.441 314.138 296.446 314.839 296.45 315.561C296.491 322.181 296.521 328.801 296.541 335.422C296.551 338.825 296.565 342.228 296.588 345.631C296.614 349.548 296.624 353.465 296.632 357.382C296.643 358.598 296.653 359.814 296.664 361.067C296.664 362.207 296.664 363.348 296.664 364.523C296.669 365.523 296.673 366.522 296.678 367.552C296.326 371.77 295.246 375.24 292.875 378.75C289.349 381.19 285.703 381.989 281.437 381.437C275.524 378.088 271.066 373.321 266.32 368.515C265.463 367.655 264.606 366.795 263.722 365.909C260.998 363.173 258.28 360.43 255.562 357.687C253.711 355.826 251.859 353.965 250.007 352.105C245.479 347.554 240.956 342.998 236.437 338.437C232.718 362.021 232.718 362.021 239.137 384.046C244.954 391.565 252.297 397.891 259.828 403.649C263.231 406.257 265.614 408.528 267.437 412.437C268.271 419.004 268.271 419.004 266.382 422.25C263.337 425.997 261.577 427.299 256.812 427.875C249.578 427.757 244.98 422.051 240.187 417.218C239.481 416.507 238.774 415.796 238.046 415.064C237.515 414.527 236.984 413.99 236.437 413.437C236.423 414.662 236.423 414.662 236.409 415.912C236.355 419.629 236.271 423.345 236.187 427.062C236.173 428.347 236.159 429.632 236.144 430.957C235.836 442.856 235.836 442.856 231.437 447.437C227.722 449.294 223.481 449.022 219.437 448.437C216.613 446.247 215.022 444.607 213.437 441.437C213.282 439.26 213.187 437.079 213.121 434.898C213.058 432.945 213.058 432.945 212.994 430.953C212.954 429.572 212.914 428.192 212.875 426.812C212.831 425.424 212.788 424.036 212.744 422.648C212.637 419.244 212.535 415.841 212.437 412.437C211.762 413.112 211.086 413.788 210.39 414.484C207.739 417.135 205.088 419.786 202.437 422.437C201.71 423.185 200.983 423.932 200.234 424.703C197.223 427.609 194.704 427.827 190.542 427.796C186.821 427.161 185.034 425.097 182.437 422.437C180.793 419.149 180.814 415.978 181.437 412.437C184.169 406.951 188.717 403.315 193.492 399.664C206.907 389.232 206.907 389.232 213.595 374.166C214.912 361.976 213.83 349.577 212.437 337.437C202.494 347.188 202.494 347.188 193.142 357.497C189.374 361.786 185.283 365.775 181.25 369.812C180.361 370.713 179.472 371.614 178.556 372.542C177.698 373.402 176.84 374.262 175.957 375.148C175.184 375.924 174.412 376.701 173.616 377.501C170.951 379.869 168.84 381.339 165.253 381.589C161.024 381.186 158.89 380.786 155.437 378.125C152.409 374.056 152.309 370.746 152.232 365.75C152.212 364.61 152.192 363.469 152.171 362.293C152.146 360.454 152.146 360.454 152.121 358.578C152.1 357.318 152.079 356.059 152.058 354.761C152.003 351.42 151.953 348.08 151.905 344.739C151.854 341.327 151.799 337.915 151.744 334.503C151.637 327.815 151.535 321.126 151.437 314.437C132.448 328.038 132.448 328.038 122.077 347.985C120.77 358.479 121.235 369.263 122.328 379.764C122.708 384.094 122.68 385.979 120.579 389.943C117.921 393.037 116.41 393.67 112.531 394.386C108.924 394.474 106.493 393.235 103.437 391.437C100.704 388.477 100.047 386.447 99.9253 382.453C99.8898 381.518 99.8544 380.583 99.8179 379.621C99.7953 378.653 99.7727 377.684 99.7495 376.687C99.7153 375.703 99.6812 374.72 99.646 373.707C99.5637 371.283 99.4945 368.861 99.437 366.437C98.9482 366.936 98.4594 367.436 97.9558 367.95C95.7257 370.222 93.4877 372.486 91.2495 374.75C90.4806 375.535 89.7117 376.321 88.9194 377.13C88.1685 377.888 87.4177 378.645 86.644 379.425C85.958 380.122 85.272 380.818 84.5652 381.536C81.1404 384.595 78.5401 386.319 73.937 386.812C70.1516 386.406 68.3836 385.811 65.437 383.437C63.1699 380.623 62.481 378.696 61.8745 375.125C63.4678 364.68 75.2015 356.494 82.437 349.437C81.5221 349.423 81.5221 349.423 80.5886 349.409C77.8081 349.355 75.0293 349.271 72.2495 349.187C71.2898 349.173 70.3301 349.159 69.3413 349.144C64.9228 348.991 62.1695 348.89 58.3511 346.527C56.0941 344.063 55.0968 342.736 54.437 339.437C54.6165 336.207 54.9828 333.34 56.437 330.437C59.8248 327.5 62.2574 326.145 66.697 326.351C68.3421 326.503 69.9859 326.669 71.6284 326.847C95.2474 328.909 95.2474 328.909 115.792 318.929C123.118 312.156 129.5 304.436 135.437 296.437C134.736 296.441 134.035 296.446 133.313 296.45C126.693 296.491 120.073 296.521 113.452 296.541C110.049 296.551 106.646 296.565 103.243 296.588C99.3257 296.614 95.4087 296.624 91.4917 296.632C90.2759 296.643 89.06 296.653 87.8073 296.664C86.6666 296.664 85.5259 296.664 84.3506 296.664C83.3513 296.669 82.352 296.673 81.3225 296.678C76.8998 296.309 73.4985 295.355 70.1245 292.437C67.042 288.784 67.0415 286.183 67.437 281.437C70.6967 275.496 75.5722 271.047 80.3589 266.32C81.2189 265.463 82.0789 264.606 82.9649 263.722C85.7009 260.998 88.4438 258.28 91.187 255.562C93.0481 253.711 94.9088 251.859 96.769 250.007C101.32 245.479 105.876 240.956 110.437 236.437C86.8533 232.718 86.8533 232.718 64.8276 239.137C57.3088 244.954 50.9833 252.297 45.2255 259.828C42.6174 263.231 40.3458 265.614 36.437 267.437C29.8701 268.271 29.8701 268.271 26.6245 266.382C22.8767 263.337 21.5746 261.577 20.9995 256.812C21.117 249.578 26.8225 244.98 31.6558 240.187C32.3667 239.481 33.0776 238.774 33.8101 238.046C34.6154 237.25 34.6154 237.25 35.437 236.437C34.2118 236.423 34.2118 236.423 32.9619 236.409C29.2447 236.355 25.5287 236.271 21.812 236.187C20.5268 236.173 19.2416 236.159 17.9175 236.144C6.01765 235.836 6.01765 235.836 1.43701 231.437C-0.420261 227.722 -0.148006 223.481 0.437005 219.437C2.62723 216.613 4.26718 215.022 7.43701 213.437C9.61375 213.282 11.7948 213.187 13.9761 213.121C15.929 213.058 15.929 213.058 17.9214 212.994C19.3016 212.954 20.6818 212.914 22.062 212.875C23.45 212.831 24.8381 212.788 26.2261 212.744C29.6296 212.637 33.0332 212.535 36.437 212.437C35.7615 211.762 35.0861 211.086 34.3901 210.39C31.7391 207.739 29.088 205.088 26.437 202.437C25.6893 201.71 24.9417 200.983 24.1714 200.234C20.9913 196.939 21.1086 194.101 21.144 189.699C21.5736 186.383 23.0462 184.687 25.437 182.437C29.0094 180.651 32.546 180.874 36.437 181.437C41.9426 184.107 45.5683 188.733 49.2104 193.492C59.6419 206.907 59.6419 206.907 74.708 213.595C86.8978 214.912 99.2968 213.83 111.437 212.437C109.108 210.078 106.773 207.726 104.437 205.375C103.789 204.718 103.14 204.061 102.472 203.384C99.257 200.153 96.0103 197.02 92.5542 194.046C87.6715 189.834 83.1219 185.306 78.562 180.75C77.7086 179.908 76.8553 179.067 75.9761 178.201C75.1614 177.388 74.3467 176.575 73.5073 175.738C72.7727 175.007 72.0381 174.277 71.2812 173.524C68.9619 170.899 67.5305 168.777 67.2847 165.253C67.6837 161.067 68.1027 158.883 70.687 155.437C74.9375 152.346 78.998 152.313 84.1453 152.232C85.266 152.212 86.3868 152.192 87.5416 152.171C89.3403 152.146 89.3403 152.146 91.1753 152.121C93.0291 152.089 93.0291 152.089 94.9204 152.058C98.1935 152.003 101.467 151.953 104.74 151.905C108.085 151.854 111.43 151.799 114.775 151.744C121.329 151.637 127.883 151.535 134.437 151.437C120.836 132.448 120.836 132.448 100.889 122.077C90.3948 120.77 79.6108 121.235 69.1098 122.328C64.7802 122.708 62.8955 122.68 58.9309 120.579C55.8366 117.921 55.2043 116.41 54.4878 112.531C54.4003 108.924 55.6394 106.493 57.437 103.437C60.3972 100.704 62.4271 100.047 66.4214 99.9253C67.3559 99.8898 68.2905 99.8544 69.2534 99.8179C70.2215 99.7953 71.1896 99.7727 72.187 99.7495C73.1706 99.7153 74.1541 99.6812 75.1675 99.646C77.5905 99.5637 80.0132 99.4945 82.437 99.437C81.9377 98.9534 81.4385 98.4699 80.9241 97.9717C78.6496 95.7598 76.387 93.5361 74.1245 91.312C73.3388 90.5515 72.5531 89.7909 71.7436 89.0073C66.9775 84.302 63.0024 80.3138 61.9995 73.437C62.5662 69.5512 63.9644 67.4591 66.437 64.437C70.0773 62.1939 72.7789 61.9985 76.9487 62.5854C82.1467 64.3643 85.6743 68.5887 89.437 72.437C90.3871 73.3789 91.3389 74.319 92.2925 75.2573C94.6922 77.6334 97.0719 80.0266 99.437 82.437C99.4463 81.827 99.4557 81.2171 99.4653 80.5886C99.5192 77.8081 99.6028 75.0293 99.687 72.2495C99.7012 71.2898 99.7154 70.3301 99.73 69.3413C99.8805 64.9909 100.012 62.1608 102.246 58.355C105.462 55.5398 108.185 54.6195 112.437 54.437C116.29 55.5107 118.578 56.4177 121.168 59.4897C122.97 63.6757 122.382 67.0709 121.929 71.5308C119.928 95.2077 119.928 95.2077 129.949 115.796C136.72 123.121 144.439 129.502 152.437 135.437C152.427 134.348 152.427 134.348 152.417 133.238C152.357 126.382 152.311 119.526 152.282 112.67C152.266 109.146 152.245 105.621 152.211 102.097C152.172 98.0412 152.157 93.9854 152.144 89.9292C152.129 88.6696 152.113 87.41 152.097 86.1123C152.097 84.3411 152.097 84.3411 152.096 82.5342C152.086 80.982 152.086 80.982 152.076 79.3984C152.629 74.86 154.164 71.4981 157.687 68.562C161.244 67.1068 163.619 66.9681 167.437 67.437C173.37 70.7241 177.821 75.566 182.554 80.3589C183.411 81.2189 184.269 82.0789 185.152 82.9649C187.877 85.7009 190.594 88.4438 193.312 91.187C195.163 93.0481 197.015 94.9088 198.867 96.769C203.395 101.32 207.918 105.876 212.437 110.437C216.156 86.8533 216.156 86.8533 209.737 64.8276C203.92 57.3088 196.577 50.9833 189.046 45.2255C185.645 42.6189 183.266 40.3406 181.437 36.437C180.904 31.4578 181.267 28.3716 184.437 24.437C187.251 22.1699 189.178 21.481 192.75 20.8745C199.64 21.9256 203.93 26.8498 208.691 31.6558C209.397 32.3667 210.103 33.0776 210.83 33.8101C211.36 34.3469 211.891 34.8838 212.437 35.437C212.451 34.2118 212.451 34.2118 212.465 32.9619C212.519 29.2447 212.603 25.5287 212.687 21.812C212.701 20.5268 212.715 19.2416 212.73 17.9175C213.038 6.01765 213.038 6.01765 217.437 1.43701C221.152 -0.420261 225.393 -0.148006 229.437 0.437005ZM175.437 106.437C171.345 138.08 171.345 138.08 179.527 167.222C183.663 171.812 188.535 176.317 194.437 178.437C196.52 178.219 196.52 178.219 198.437 177.437C199.565 177.055 200.693 176.674 201.855 176.281C203.112 175.835 204.369 175.387 205.625 174.937C206.586 174.599 206.586 174.599 207.568 174.253C210.751 173.278 210.751 173.278 213.437 171.437C216.432 162.476 217.497 152.187 213.437 143.437C204.036 129.418 189.582 116.922 176.437 106.437C176.107 106.437 175.777 106.437 175.437 106.437ZM272.437 106.437C271.2 107.816 269.988 109.219 268.785 110.628C264.925 114.985 260.84 118.796 256.433 122.589C241.215 135.015 241.215 135.015 233.613 152.269C233.398 158.769 234.05 165.087 235.437 171.437C236.12 171.705 236.802 171.972 237.506 172.248C238.404 172.603 239.301 172.958 240.226 173.324C241.56 173.849 241.56 173.849 242.92 174.385C245.437 175.437 245.437 175.437 248.812 177.25C251.835 178.617 252.417 178.536 255.437 177.437C263.147 172.537 271.671 165.212 274.401 156.286C275.651 148.134 275.089 140.007 274.562 131.812C274.472 129.341 274.389 126.87 274.316 124.398C274.12 118.404 273.82 112.422 273.437 106.437C273.107 106.437 272.777 106.437 272.437 106.437ZM106.437 175.437C107.123 176.103 107.808 176.769 108.515 177.455C111.262 180.201 113.797 183.105 116.345 186.034C131.6 205.3 131.6 205.3 152.621 215.609C159.044 215.842 165.231 215.1 171.437 213.437C171.705 212.754 171.972 212.072 172.248 211.368C172.603 210.47 172.958 209.573 173.324 208.648C173.849 207.314 173.849 207.314 174.385 205.954C175.437 203.437 175.437 203.437 177.25 200.062C178.617 197.039 178.536 196.457 177.437 193.437C172.537 185.727 165.212 177.203 156.286 174.474C148.134 173.223 140.007 173.785 131.812 174.312C129.341 174.403 126.87 174.485 124.398 174.558C118.404 174.754 112.422 175.054 106.437 175.437ZM272.632 189.89C270.735 192.999 270.735 192.999 270.728 196.508C270.962 197.144 271.196 197.781 271.437 198.437C271.819 199.565 272.2 200.693 272.593 201.855C273.039 203.112 273.487 204.369 273.937 205.625C274.275 206.586 274.275 206.586 274.621 207.568C275.596 210.751 275.596 210.751 277.437 213.437C286.398 216.432 296.687 217.497 305.437 213.437C319.456 204.036 331.952 189.582 342.437 176.437C342.437 176.107 342.437 175.777 342.437 175.437C303.249 170.514 303.249 170.514 272.632 189.89ZM200.437 203.25C199.392 204.612 198.389 206.008 197.437 207.437C197.005 208.08 196.573 208.723 196.128 209.386C192.31 216.323 192.21 224.751 193.437 232.437C196.264 241.556 201.428 247.951 209.632 252.71C218.078 256.86 226.497 257.422 235.437 254.437C243.927 250.499 249.814 245.357 253.812 236.875C256.714 228.865 256.714 220.009 253.812 212C249.778 203.442 243.881 198.589 235.437 194.437C222.985 190.191 209.343 193.834 200.437 203.25ZM106.437 272.437C106.437 272.767 106.437 273.097 106.437 273.437C138.08 277.529 138.08 277.529 167.222 269.347C171.812 265.211 176.317 260.339 178.437 254.437C178.219 252.354 178.219 252.354 177.437 250.437C177.055 249.309 176.674 248.181 176.281 247.019C175.835 245.762 175.387 244.505 174.937 243.25C174.711 242.608 174.486 241.967 174.253 241.306C173.278 238.123 173.278 238.123 171.437 235.437C142.145 225.648 122.947 251.737 106.437 272.437ZM277.437 235.437C277.099 236.257 276.762 237.077 276.414 237.921C275.968 238.999 275.522 240.077 275.062 241.187C274.621 242.254 274.18 243.322 273.726 244.421C272.437 247.437 272.437 247.437 271.21 249.578C270.195 252.018 270.583 252.954 271.437 255.437C276.337 263.147 283.662 271.671 292.588 274.401C300.74 275.651 308.867 275.089 317.062 274.562C319.533 274.472 322.004 274.389 324.476 274.316C330.47 274.12 336.452 273.82 342.437 273.437C341.751 272.771 341.066 272.105 340.359 271.419C337.612 268.673 335.077 265.769 332.529 262.84C317.274 243.574 317.274 243.574 296.253 233.265C289.83 233.032 283.643 233.775 277.437 235.437ZM182.086 278.915C169.788 292.421 173.988 314.613 174.769 331.511C174.969 335.155 175.19 338.796 175.437 342.437C176.436 341.409 176.436 341.409 177.455 340.359C180.201 337.612 183.105 335.077 186.034 332.529C205.3 317.274 205.3 317.274 215.609 296.253C215.842 289.83 215.1 283.643 213.437 277.437C212.755 277.169 212.073 276.9 211.37 276.624C210.473 276.268 209.576 275.913 208.652 275.546C207.764 275.195 206.875 274.844 205.96 274.483C203.437 273.437 203.437 273.437 200 271.687C192.976 268.261 187.211 274.508 182.086 278.915ZM246.062 272.812C242.553 274.465 239.044 276.011 235.437 277.437C232.736 286.559 231.358 296.56 235.437 305.437C244.811 319.462 259.3 331.959 272.437 342.437C272.767 342.437 273.097 342.437 273.437 342.437C277.548 310.788 277.548 310.788 269.312 281.687C265.086 277.046 260.238 272.95 254.437 270.437C250.963 270.437 249.185 271.332 246.062 272.812Z" fill="url(#paint0_linear_6775_10756)"/>
<defs>
<linearGradient id="paint0_linear_6775_10756" x1="224.437" y1="0" x2="224.437" y2="448.874" gradientUnits="userSpaceOnUse">
<stop offset="0.293269" stop-color="#C0E3E1"/>
<stop offset="1" stop-color="#4EDFEE"/>
</linearGradient>
</defs>
</svg>
