<svg width="29" height="27" viewBox="0 0 29 27" fill="none" xmlns="http://www.w3.org/2000/svg">
<path d="M4.36621 1.10156C6.37395 0.106901 8.85958 0.395248 10.7559 1.5957L11.1279 1.84863C12.279 2.76319 13.288 3.8873 13.9014 5.18848V5.7334H14.9355L15.0898 5.19336C15.1869 4.93407 15.3151 4.70778 15.4844 4.43945V4.43848C15.5177 4.38547 15.5516 4.33285 15.5859 4.27832C15.9165 3.76493 16.2996 3.30146 16.7266 2.83301L16.7305 2.82812C16.7816 2.77059 16.8321 2.7126 16.8848 2.65332C17.9271 1.5448 19.5606 0.658125 21.0469 0.556641C22.6667 0.523204 23.8342 0.673632 25.1797 1.44434L25.1807 1.44531C25.2429 1.48068 25.3062 1.51543 25.3701 1.55176C26.8062 2.44451 27.8172 3.99925 28.2266 5.66504C28.7965 8.2274 28.2238 10.743 27.0869 13.1533V13.1543C27.061 13.2095 27.0345 13.2645 27.0078 13.3213C26.3212 14.7564 25.3763 16.1057 24.3408 17.3467H24.3398L24.3379 17.3496L24.2334 17.4766C23.6641 18.1678 23.0641 18.829 22.4404 19.4766L21.8086 20.1201C21.7161 20.2131 21.7154 20.2137 21.6221 20.3076C21.2569 20.6718 20.8817 21.0185 20.4893 21.3545L20.4844 21.3574C20.3931 21.4373 20.3021 21.5175 20.2109 21.5977C19.0539 22.6095 17.8575 23.5531 16.6104 24.457L16.6094 24.458L16.2275 24.7363L15.8574 25.0049C15.8023 25.045 15.7472 25.0847 15.6904 25.126C15.5847 25.2024 15.4786 25.2784 15.3721 25.3535L15.3701 25.3545C15.2535 25.4375 15.1392 25.5226 15.0264 25.6084C14.7268 25.8273 14.5952 25.8998 14.417 25.8965C14.2059 25.824 14.0242 25.684 13.7402 25.4697L13.7334 25.4648L13.5283 25.3154C13.3886 25.2134 13.2491 25.1111 13.1104 25.0078C12.9081 24.8573 12.7045 24.7083 12.502 24.5615C11.766 24.0264 11.0431 23.477 10.335 22.9082V22.9072L10.1172 22.7334C9.17338 21.9696 8.2655 21.1681 7.38574 20.332L6.51367 19.4834L6.31445 19.2852H6.31543C5.94002 18.9088 5.58205 18.527 5.24219 18.126L5.24121 18.125L5.11133 17.9727C4.08806 16.7677 3.18991 15.5005 2.40039 14.1328L2.29785 13.9561C0.801267 11.3312 0.0312909 8.27193 0.805664 5.38086C1.39661 3.46626 2.59654 2.07319 4.36621 1.10156Z" fill="#7F6674" fill-opacity="0.5" stroke="white"/>
</svg>
