<svg width="29" height="27" viewBox="0 0 29 27" fill="none" xmlns="http://www.w3.org/2000/svg">
<path d="M4.42773 1.23633C6.50657 0.20581 9.12516 0.58663 11.0186 1.96094C12.1493 2.85846 13.1349 3.95538 13.7373 5.21777V5.87793H15.0342L15.1689 5.40723C15.1853 5.35018 15.2011 5.29275 15.2178 5.23438C15.3091 4.99247 15.4309 4.77851 15.5967 4.51562V4.51465C15.6298 4.46196 15.6622 4.40868 15.6963 4.35449L15.6973 4.35547C16.0212 3.85242 16.3977 3.39638 16.8213 2.93164L16.8262 2.92578C16.8735 2.87242 16.9211 2.81843 16.9697 2.76367C17.9898 1.67396 19.5927 0.805453 21.0371 0.707031C22.637 0.674559 23.771 0.823391 25.0801 1.57324L25.082 1.57422V1.5752L25.084 1.57617H25.0859V1.57715H25.0869L25.0879 1.57812H25.0889L25.0898 1.5791H25.0908L25.0918 1.58008L25.0928 1.58105H25.0938L25.0947 1.58203H25.0957V1.58301H25.0977V1.58398L25.0996 1.58496H25.1006L25.1016 1.58594H25.1025V1.58691H25.1045V1.58789H25.1064V1.58887H25.1074L25.1084 1.58984H25.1094L25.1104 1.59082H25.1113L25.1123 1.5918L25.1133 1.59277H25.1143L25.1152 1.59375H25.1162V1.59473H25.1182V1.5957H25.1201V1.59668H25.1211L25.1221 1.59766H25.123L25.124 1.59863H25.125V1.59961H25.127L25.1279 1.60059L25.1289 1.60156H25.1299V1.60254H25.1318V1.60352H25.1338V1.60449H25.1357V1.60547H25.1367L25.1377 1.60645H25.1387V1.60742H25.1406L25.1416 1.6084L25.1426 1.60938H25.1436L25.1445 1.61035H25.1455V1.61133H25.1475V1.6123H25.1494V1.61328H25.1504L25.1514 1.61426H25.1523L25.1533 1.61523H25.1543L25.1553 1.61621L25.1562 1.61719H25.1572L25.1582 1.61816H25.1592V1.61914H25.1611V1.62012H25.1631V1.62109H25.1641L25.165 1.62207H25.166L25.167 1.62305H25.168V1.62402H25.1699L25.1709 1.625L25.1719 1.62598H25.1729V1.62695H25.1748V1.62793H25.1768V1.62891H25.1777L25.1787 1.62988H25.1797L25.1807 1.63086H25.1816V1.63184H25.1836V1.63281L25.1855 1.63379H25.1865L25.1875 1.63477H25.1885L25.1895 1.63574H25.1904V1.63672H25.1924L25.1934 1.6377L25.1943 1.63867H25.1953V1.63965H25.1973V1.64062H25.1992V1.6416H25.2002L25.2012 1.64258H25.2021L25.2031 1.64355H25.2041L25.2051 1.64453L25.2061 1.64551H25.207L25.208 1.64648H25.209L25.21 1.64746H25.2109L25.2119 1.64844H25.2129L25.2139 1.64941L25.2148 1.65039H25.2158L25.2168 1.65137H25.2178V1.65234H25.2197V1.65332H25.2217V1.6543H25.2227L25.2236 1.65527H25.2246V1.65625H25.2266V1.65723L25.2285 1.6582H25.2295L25.2305 1.65918H25.2314L25.2324 1.66016H25.2334L25.2344 1.66113L25.2354 1.66211H25.2363L25.2373 1.66309H25.2383V1.66406H25.2402V1.66504H25.2422L25.2432 1.66602L25.2441 1.66699H25.2451V1.66797H25.2471V1.66895H25.249V1.66992H25.25L25.251 1.6709H25.252L25.2529 1.67188H25.2539V1.67285L25.2559 1.67383H25.2578V1.6748H25.2588L25.2598 1.67578H25.2607V1.67676H25.2627V1.67773L25.2646 1.67871H25.2656L25.2666 1.67969H25.2676V1.68066H25.2695L25.2705 1.68164L25.2715 1.68262H25.2725C26.665 2.55124 27.6523 4.06572 28.0527 5.69531C28.6112 8.2104 28.0516 10.6873 26.9248 13.0762L26.9238 13.0771C26.8981 13.132 26.8722 13.1867 26.8457 13.2432C26.1668 14.6622 25.2307 15.9996 24.2012 17.2334L24.1982 17.2373C24.1639 17.279 24.1291 17.3203 24.0938 17.3633C23.528 18.0502 22.9307 18.7076 22.3096 19.3525L21.6807 19.9941C21.5885 20.0869 21.5879 20.0883 21.4951 20.1816C21.1331 20.5426 20.7603 20.8855 20.3711 21.2188L20.3652 21.2236C20.2738 21.3037 20.1821 21.3836 20.0908 21.4639C18.9391 22.471 17.7482 23.4111 16.5059 24.3115L16.5049 24.3125C16.3777 24.4051 16.2502 24.4972 16.123 24.5898C15.9999 24.6793 15.8771 24.769 15.7539 24.8584H15.7529C15.6976 24.8986 15.642 24.939 15.585 24.9805C15.4803 25.056 15.3759 25.1318 15.2705 25.2061L15.2676 25.207C15.1504 25.2904 15.0358 25.376 14.9229 25.4619C14.7565 25.5835 14.6618 25.6472 14.5762 25.6855C14.5273 25.7074 14.4826 25.7156 14.4287 25.7178C14.2562 25.6529 14.0958 25.5343 13.8174 25.3242L13.8086 25.3184L13.6035 25.1689L13.1875 24.8623C12.9848 24.7115 12.7816 24.5628 12.5791 24.416H12.5781C11.8447 23.8827 11.1253 23.335 10.4199 22.7686L10.4189 22.7676L10.2041 22.5957C8.95028 21.5812 7.76022 20.499 6.61426 19.3574H6.61328C6.5473 19.2918 6.48108 19.2258 6.41309 19.1582C6.04103 18.7851 5.68826 18.4069 5.35254 18.0107L5.35059 18.0088L5.2207 17.8574C4.20422 16.6604 3.31234 15.4021 2.52832 14.0439V14.043L2.42676 13.8672C0.941151 11.2615 0.187832 8.24067 0.955078 5.39844C1.53453 3.53937 2.70147 2.18597 4.42773 1.23633Z" fill="#6A18A4" fill-opacity="0.5" stroke="white" stroke-width="1.3"/>
</svg>
