<svg width="27" height="27" viewBox="0 0 27 27" fill="none" xmlns="http://www.w3.org/2000/svg">
<path d="M10.6664 6.52619e-05C10.7125 7.63951e-05 10.7586 8.75278e-05 10.806 9.89985e-05C11.5777 0.00195281 12.314 0.056214 13.0684 0.230373C13.111 0.23995 13.1536 0.249527 13.1975 0.259393C15.3132 0.750015 17.4349 2.01273 18.8068 3.70474C18.8425 3.7464 18.8783 3.78807 18.9152 3.831C20.7608 6.01232 21.5805 8.8649 21.3502 11.6931C21.1699 13.6158 20.4716 15.4097 19.351 16.9751C19.255 17.1124 19.1628 17.2522 19.07 17.3916C19.1091 17.4305 19.1482 17.4694 19.1885 17.5095C20.1404 18.4566 21.0916 19.4044 22.0423 20.3528C22.502 20.8114 22.962 21.2698 23.4224 21.7278C23.8237 22.127 24.2247 22.5265 24.6252 22.9266C24.8372 23.1383 25.0494 23.3499 25.2621 23.561C25.4624 23.7599 25.6622 23.9592 25.8617 24.1589C25.9348 24.232 26.0081 24.3049 26.0816 24.3776C26.9122 25.1995 26.9122 25.1995 27 25.6796C26.9926 26.0257 26.9829 26.3278 26.7563 26.604C26.4722 26.8646 26.2439 26.9802 25.8547 26.9922C25.7981 26.9948 25.7415 26.9973 25.6832 27C25.0783 26.9125 24.6723 26.391 24.2645 25.9787C24.1892 25.9034 24.1139 25.8281 24.0386 25.7529C23.8351 25.5495 23.6322 25.3454 23.4295 25.1412C23.2172 24.9276 23.0043 24.7146 22.7914 24.5015C22.3889 24.0983 21.9868 23.6946 21.585 23.2906C21.1273 22.8306 20.669 22.3713 20.2107 21.9119C19.2682 20.9673 18.3265 20.022 17.3853 19.0762C17.3091 19.1268 17.2329 19.1775 17.1567 19.2282C17.1142 19.2564 17.0718 19.2846 17.028 19.3137C16.9069 19.3951 16.789 19.48 16.6713 19.5664C14.3944 21.1629 11.4882 21.6993 8.76992 21.2382C6.86932 20.8906 4.81578 20.0094 3.46564 18.5831C3.37427 18.4897 3.27749 18.4068 3.17753 18.3227C1.34094 16.7206 0.239655 14.1495 0.0121977 11.7589C0.00439412 11.6046 0.00239054 11.4506 0.00150403 11.2961C0.00113237 11.2529 0.000760705 11.2097 0.000377782 11.1653C-0.0154449 8.78737 0.463264 6.50092 1.90745 4.54701C1.94783 4.49177 1.98821 4.43653 2.02981 4.37962C2.31059 4.00191 2.61355 3.64896 2.93867 3.30884C2.98797 3.25719 3.03699 3.20527 3.08571 3.15308C3.72055 2.47397 4.47357 1.90758 5.27679 1.44114C5.31867 1.41678 5.36055 1.39243 5.4037 1.36734C6.47138 0.75697 7.63978 0.323424 8.85671 0.12509C8.93927 0.111374 8.93927 0.111374 9.02351 0.0973808C9.57233 0.0147002 10.1123 -0.00117552 10.6664 6.52619e-05ZM5.64531 3.96795C5.59807 4.00337 5.55084 4.03879 5.50218 4.07529C3.76985 5.43557 2.63498 7.41048 2.34486 9.5959C2.086 11.7514 2.61069 13.9715 3.94069 15.71C4.09851 15.9053 4.26209 16.0935 4.43342 16.2771C4.52663 16.3773 4.61418 16.4798 4.70097 16.5855C5.82413 17.8933 7.57133 18.6475 9.22523 18.9709C9.29024 18.9838 9.35525 18.9968 9.42224 19.0102C11.4925 19.3505 13.7074 18.8166 15.4346 17.6375C17.3994 16.2169 18.6267 14.1972 19.0174 11.8116C19.3344 9.75619 18.7748 7.55842 17.5774 5.86781C17.1541 5.29246 16.6819 4.72949 16.1218 4.2838C16.0932 4.26094 16.0646 4.23808 16.0351 4.21453C15.5298 3.81423 15.0109 3.47234 14.4372 3.17832C14.3805 3.14921 14.3238 3.1201 14.2655 3.0901C11.4814 1.73834 8.10468 2.12356 5.64531 3.96795Z" fill="#7F6674"/>
</svg>
