<svg width="34" height="41" viewBox="0 0 34 41" fill="none" xmlns="http://www.w3.org/2000/svg">
<path d="M20.4296 1.19432C21.5595 2.08608 22.3512 3.21191 22.6923 4.62132C23.4541 4.82918 24.2174 5.02048 24.9876 5.19538C25.0899 5.21886 25.1922 5.24238 25.2945 5.26593C25.7223 5.36438 26.1501 5.4625 26.5781 5.5598C26.8425 5.61993 27.1068 5.68065 27.3709 5.74173C27.5186 5.7757 27.6664 5.80902 27.8142 5.84233C27.9042 5.86321 27.9942 5.88408 28.087 5.90558C28.1657 5.92355 28.2444 5.94152 28.3255 5.96003C28.6465 6.05587 28.9302 6.17074 29.168 6.41054C29.429 6.90184 29.1108 7.67928 28.9768 8.18595C28.9585 8.25696 28.9402 8.32796 28.9214 8.40111C28.8769 8.57369 28.8319 8.74611 28.7863 8.91841C28.872 8.91569 28.9578 8.91298 29.0461 8.91017C29.1597 8.90797 29.2733 8.90584 29.387 8.90376C29.4433 8.9018 29.4997 8.89984 29.5577 8.89781C29.9189 8.89287 30.148 8.9185 30.427 9.1528C30.5488 9.31598 30.6519 9.47129 30.7542 9.64599C30.9826 10.0339 31.2138 10.415 31.4714 10.7844C31.6021 10.9735 31.7283 11.1653 31.8543 11.3576C31.9166 11.4507 31.9805 11.5428 32.0464 11.6334C32.5568 12.34 32.6649 12.9922 32.7034 13.8556C32.7092 13.9633 32.715 14.0709 32.721 14.1786C32.733 14.4004 32.7444 14.6222 32.7551 14.844C32.7696 15.1456 32.786 15.447 32.8029 15.7485C32.8356 16.335 32.866 16.9216 32.8962 17.5082C32.9078 17.7302 32.9194 17.9523 32.9309 18.1744C32.9619 18.7694 32.9927 19.3643 33.0234 19.9593C33.0427 20.3324 33.062 20.7056 33.0813 21.0787C33.135 22.1172 33.1887 23.1556 33.2422 24.1941C33.2455 24.26 33.2489 24.326 33.2524 24.3939C33.2575 24.493 33.2575 24.493 33.2627 24.5941C33.2696 24.7279 33.2765 24.8617 33.2834 24.9955C33.2885 25.095 33.2885 25.095 33.2938 25.1966C33.3492 26.2739 33.4051 27.3511 33.4612 28.4283C33.5191 29.5411 33.5767 30.654 33.6339 31.7669C33.6659 32.389 33.698 33.0111 33.7306 33.6332C33.7583 34.1621 33.7856 34.691 33.8125 35.22C33.8262 35.4887 33.84 35.7575 33.8543 36.0263C33.9073 37.0311 33.9538 38.036 33.969 39.0422C33.9723 39.1594 33.9723 39.1594 33.9757 39.2789C33.9764 39.3867 33.9764 39.3867 33.9771 39.4966C33.978 39.559 33.979 39.6215 33.98 39.6859C33.9261 39.935 33.8362 40.0217 33.6303 40.17C33.3785 40.2092 33.3785 40.2092 33.073 40.2093C33.0165 40.2098 32.96 40.2102 32.9019 40.2107C32.7117 40.2119 32.5215 40.2108 32.3313 40.2097C32.194 40.2101 32.0566 40.2106 31.9193 40.2112C31.5411 40.2125 31.163 40.2118 30.7848 40.2109C30.3773 40.2102 29.9697 40.2113 29.5622 40.2121C28.7635 40.2135 27.9649 40.2132 27.1662 40.2123C26.5173 40.2116 25.8684 40.2115 25.2195 40.2118C25.1273 40.2119 25.035 40.2119 24.94 40.212C24.7526 40.2121 24.5653 40.2122 24.3779 40.2123C22.6196 40.2132 20.8613 40.2121 19.1031 40.2105C17.5933 40.2091 16.0836 40.2093 14.5738 40.2108C12.822 40.2124 11.0701 40.2131 9.31829 40.2121C9.1316 40.212 8.94491 40.2119 8.75823 40.2118C8.66637 40.2118 8.5745 40.2117 8.47986 40.2117C7.83149 40.2114 7.18312 40.2119 6.53474 40.2126C5.74495 40.2135 4.95516 40.2132 4.16536 40.2116C3.76214 40.2108 3.35894 40.2104 2.95571 40.2115C2.58695 40.2124 2.21821 40.2119 1.84944 40.2102C1.71569 40.2099 1.58194 40.2101 1.44819 40.2108C1.26701 40.2118 1.08593 40.2108 0.904758 40.2093C0.80394 40.2093 0.703122 40.2092 0.59925 40.2092C0.347384 40.17 0.347384 40.17 0.158447 40.0335C0.0181537 39.8337 -0.0032335 39.7438 0.000358012 39.5025C0.000767182 39.4315 0.00117628 39.3606 0.00159785 39.2875C0.00379009 39.21 0.00598425 39.1326 0.00824292 39.0527C0.00947423 38.9701 0.0107033 38.8875 0.011972 38.8024C0.0314377 37.773 0.085088 36.7446 0.139408 35.7165C0.154941 35.4205 0.169906 35.1244 0.184949 34.8284C0.214348 34.2515 0.244249 33.6746 0.274329 33.0977C0.309415 32.4244 0.343977 31.7511 0.378521 31.0778C0.440179 29.8764 0.502287 28.6749 0.564662 27.4735C0.625072 26.3099 0.685183 25.1463 0.744953 23.9826C0.748643 23.9108 0.752333 23.839 0.756135 23.765C0.759818 23.6933 0.763502 23.6215 0.767297 23.5476C0.774715 23.4032 0.782133 23.2588 0.789551 23.1144C0.79321 23.0432 0.796869 22.9719 0.800639 22.8985C0.857815 21.7856 0.915248 20.6727 0.972713 19.5598C0.993474 19.1577 1.0142 18.7556 1.0349 18.3534C1.06771 17.7162 1.10062 17.079 1.13377 16.4419C1.14889 16.1511 1.16397 15.8603 1.1789 15.5695C1.19511 15.2537 1.21158 14.938 1.22808 14.6223C1.23272 14.5312 1.23735 14.4402 1.24213 14.3463C1.2635 13.9413 1.28759 13.5366 1.31918 13.1323C1.32436 13.0653 1.32954 12.9983 1.33489 12.9293C1.38083 12.6316 1.51065 12.4053 1.67069 12.1544C1.71745 12.0768 1.71745 12.0768 1.76515 11.9977C1.86403 11.8346 1.96506 11.673 2.06622 11.5113C2.13158 11.4041 2.19679 11.2969 2.26185 11.1895C2.42251 10.9254 2.58595 10.6632 2.75058 10.4016C2.84802 10.2458 2.94384 10.0891 3.03948 9.93215C3.10078 9.83317 3.16212 9.73423 3.22351 9.63531C3.27719 9.54792 3.33087 9.46053 3.38617 9.3705C3.55596 9.14581 3.68892 9.03859 3.94132 8.91841C4.15606 8.89031 4.34841 8.90733 4.56635 8.91841C4.55624 8.87107 4.54613 8.82374 4.53571 8.77496C4.43781 8.30351 4.36481 7.8343 4.30938 7.35614C4.30093 7.28471 4.29248 7.21329 4.28377 7.1397C4.26615 6.98983 4.2487 6.83994 4.2314 6.69004C4.20509 6.46301 4.17792 6.2361 4.15068 6.00918C3.92425 4.08785 3.92425 4.08785 4.13176 3.71795C4.59848 3.45613 5.18227 3.42114 5.70748 3.35992C5.77059 3.35228 5.8337 3.34464 5.89872 3.33676C6.10492 3.31189 6.31117 3.28753 6.51744 3.26322C6.66208 3.24594 6.80672 3.22865 6.95135 3.21134C7.25347 3.17526 7.55561 3.13943 7.85778 3.10379C8.24391 3.05823 8.62996 3.01201 9.016 2.9656C9.3143 2.92981 9.61265 2.89437 9.91101 2.85904C10.0533 2.84214 10.1957 2.82513 10.338 2.80801C10.5372 2.78409 10.7364 2.76065 10.9357 2.73733C10.9937 2.73027 11.0517 2.72321 11.1115 2.71594C11.4844 2.67295 11.8476 2.6621 12.223 2.66809C12.2424 2.62418 12.2619 2.58027 12.2819 2.53503C12.8987 1.39811 14.2178 0.674444 15.4067 0.294925C17.1382 -0.129025 18.9675 0.166347 20.4296 1.19432ZM14.5669 2.27745C14.5669 2.30323 14.5669 2.32901 14.5669 2.35558C14.6311 2.34994 14.6954 2.3443 14.7616 2.33849C15.0351 2.31574 15.3087 2.29587 15.5825 2.27745C15.6586 2.27211 15.7346 2.26677 15.813 2.26127C15.8803 2.25855 15.9477 2.25583 16.0171 2.25303C16.0769 2.25011 16.1366 2.24719 16.1981 2.24418C16.4387 2.29249 16.5217 2.40212 16.6763 2.58996C16.7355 2.80934 16.7355 2.80934 16.7642 3.06515C16.7757 3.16112 16.7873 3.25709 16.7991 3.35598C16.8103 3.46036 16.8215 3.56474 16.8326 3.66912C16.845 3.77632 16.8576 3.8835 16.8704 3.99066C16.8969 4.21524 16.9229 4.43988 16.9484 4.66458C17.0078 5.18113 17.0759 5.69655 17.1434 6.21208C17.1773 6.47111 17.2106 6.73021 17.244 6.9893C17.2607 7.11838 17.2607 7.11838 17.2776 7.25007C17.2855 7.31075 17.2933 7.37144 17.3014 7.43396C17.6108 7.35662 17.6108 7.35662 17.9264 7.2777C17.969 7.12151 18.0112 6.96523 18.0534 6.80893C18.0671 6.75855 18.0809 6.70817 18.095 6.65626C18.1878 6.31192 18.2716 5.96651 18.3503 5.61868C18.3698 5.53469 18.3894 5.45069 18.4095 5.36415C18.4484 5.19598 18.4861 5.02751 18.5225 4.85876C18.6597 4.27476 18.6597 4.27476 18.8957 4.05793C19.4577 3.88698 20.0704 4.11263 20.6167 4.26791C20.8252 4.32782 20.8252 4.32782 21.0516 4.23067C20.348 2.97756 19.5307 2.15443 18.151 1.67256C16.8769 1.32025 15.6904 1.67157 14.5669 2.27745Z" fill="#7F6674" fill-opacity="0.5"/>
<path d="M20.4296 1.08646C21.5595 1.97821 22.3512 3.10405 22.6923 4.51345C23.4541 4.72131 24.2174 4.91262 24.9876 5.08752C25.0899 5.111 25.1922 5.13452 25.2945 5.15806C25.7223 5.25651 26.1501 5.35463 26.5781 5.45194C26.8425 5.51207 27.1068 5.57278 27.3709 5.63387C27.5186 5.66784 27.6664 5.70116 27.8142 5.73447C27.9042 5.75534 27.9942 5.77621 28.087 5.79772C28.1657 5.81569 28.2444 5.83366 28.3255 5.85217C28.6465 5.948 28.9302 6.06288 29.168 6.30268C29.429 6.79397 29.1108 7.57141 28.9768 8.07809C28.9585 8.14909 28.9402 8.2201 28.9214 8.29325C28.8769 8.46582 28.8319 8.63824 28.7863 8.81055C28.872 8.80783 28.9578 8.80511 29.0461 8.80231C29.1597 8.80011 29.2733 8.79798 29.387 8.7959C29.4433 8.79394 29.4997 8.79197 29.5577 8.78995C29.9189 8.785 30.148 8.81063 30.427 9.04494C30.5488 9.20812 30.6519 9.36342 30.7542 9.53813C30.9826 9.926 31.2138 10.3071 31.4714 10.6765C31.6021 10.8656 31.7283 11.0575 31.8543 11.2497C31.9166 11.3429 31.9805 11.4349 32.0464 11.5256C32.5568 12.2321 32.6649 12.8843 32.7034 13.7477C32.7092 13.8554 32.715 13.9631 32.721 14.0708C32.733 14.2925 32.7444 14.5143 32.7551 14.7361C32.7696 15.0377 32.786 15.3392 32.8029 15.6406C32.8356 16.2271 32.866 16.8137 32.8962 17.4003C32.9078 17.6224 32.9194 17.8444 32.9309 18.0665C32.9619 18.6615 32.9927 19.2565 33.0234 19.8514C33.0427 20.2246 33.062 20.5977 33.0813 20.9708C33.135 22.0093 33.1887 23.0478 33.2422 24.0862C33.2455 24.1522 33.2489 24.2181 33.2524 24.286C33.2575 24.3851 33.2575 24.3851 33.2627 24.4862C33.2696 24.62 33.2765 24.7538 33.2834 24.8876C33.2885 24.9872 33.2885 24.9872 33.2938 25.0887C33.3492 26.166 33.4051 27.2432 33.4612 28.3204C33.5191 29.4333 33.5767 30.5461 33.6339 31.659C33.6659 32.2811 33.698 32.9032 33.7306 33.5253C33.7583 34.0542 33.7856 34.5831 33.8125 35.1121C33.8262 35.3809 33.84 35.6496 33.8543 35.9184C33.9073 36.9232 33.9538 37.9282 33.969 38.9343C33.9723 39.0515 33.9723 39.0515 33.9757 39.1711C33.9764 39.2788 33.9764 39.2788 33.9771 39.3887C33.978 39.4512 33.979 39.5137 33.98 39.578C33.9261 39.8271 33.8362 39.9138 33.6303 40.0621C33.3785 40.1013 33.3785 40.1013 33.073 40.1015C33.0165 40.1019 32.96 40.1024 32.9019 40.1029C32.7117 40.104 32.5215 40.1029 32.3313 40.1018C32.194 40.1022 32.0566 40.1027 31.9193 40.1033C31.5411 40.1046 31.163 40.104 30.7848 40.103C30.3773 40.1023 29.9697 40.1034 29.5622 40.1042C28.7635 40.1056 27.9649 40.1053 27.1662 40.1044C26.5173 40.1037 25.8684 40.1036 25.2195 40.104C25.1273 40.104 25.035 40.1041 24.94 40.1041C24.7526 40.1042 24.5653 40.1043 24.3779 40.1044C22.6196 40.1053 20.8613 40.1043 19.1031 40.1026C17.5933 40.1012 16.0836 40.1014 14.5738 40.1029C12.822 40.1046 11.0701 40.1052 9.31829 40.1043C9.1316 40.1042 8.94491 40.1041 8.75823 40.104C8.66637 40.1039 8.5745 40.1039 8.47986 40.1038C7.83149 40.1035 7.18312 40.104 6.53474 40.1047C5.74495 40.1056 4.95516 40.1054 4.16536 40.1037C3.76214 40.1029 3.35894 40.1026 2.95571 40.1036C2.58695 40.1045 2.21821 40.104 1.84944 40.1024C1.71569 40.102 1.58194 40.1022 1.44819 40.103C1.26701 40.1039 1.08593 40.1029 0.904758 40.1015C0.80394 40.1014 0.703122 40.1014 0.59925 40.1013C0.347384 40.0621 0.347384 40.0621 0.158447 39.9256C0.0181537 39.7258 -0.0032335 39.6359 0.000358012 39.3946C0.000767182 39.3237 0.00117628 39.2527 0.00159785 39.1797C0.00379009 39.1022 0.00598425 39.0247 0.00824292 38.9449C0.00947423 38.8623 0.0107033 38.7797 0.011972 38.6946C0.0314377 37.6652 0.085088 36.6367 0.139408 35.6087C0.154941 35.3126 0.169906 35.0166 0.184949 34.7205C0.214348 34.1436 0.244249 33.5667 0.274329 32.9898C0.309415 32.3166 0.343977 31.6433 0.378521 30.97C0.440179 29.7685 0.502287 28.5671 0.564662 27.3656C0.625072 26.202 0.685183 25.0384 0.744953 23.8748C0.748643 23.8029 0.752333 23.7311 0.756135 23.6571C0.759818 23.5854 0.763502 23.5137 0.767297 23.4398C0.774715 23.2954 0.782133 23.1509 0.789551 23.0065C0.79321 22.9353 0.796869 22.8641 0.800639 22.7907C0.857815 21.6777 0.915248 20.5648 0.972713 19.4519C0.993474 19.0498 1.0142 18.6477 1.0349 18.2456C1.06771 17.6084 1.10062 16.9712 1.13377 16.334C1.14889 16.0432 1.16397 15.7524 1.1789 15.4616C1.19511 15.1459 1.21158 14.8302 1.22808 14.5144C1.23272 14.4234 1.23735 14.3323 1.24213 14.2385C1.2635 13.8335 1.28759 13.4288 1.31918 13.0244C1.32436 12.9574 1.32954 12.8904 1.33489 12.8214C1.38083 12.5238 1.51065 12.2974 1.67069 12.0465C1.71745 11.969 1.71745 11.969 1.76515 11.8899C1.86403 11.7268 1.96506 11.5651 2.06622 11.4035C2.13158 11.2963 2.19679 11.189 2.26185 11.0816C2.42251 10.8176 2.58595 10.5553 2.75058 10.2937C2.84802 10.1379 2.94384 9.9812 3.03948 9.82428C3.10078 9.72531 3.16212 9.62636 3.22351 9.52744C3.27719 9.44006 3.33087 9.35267 3.38617 9.26263C3.55596 9.03795 3.68892 8.93073 3.94132 8.81055C4.15606 8.78244 4.34841 8.79947 4.56635 8.81055C4.55624 8.76321 4.54613 8.71587 4.53571 8.6671C4.43781 8.19565 4.36481 7.72644 4.30938 7.24827C4.30093 7.17685 4.29248 7.10542 4.28377 7.03184C4.26615 6.88197 4.2487 6.73208 4.2314 6.58218C4.20509 6.35515 4.17792 6.12823 4.15068 5.90131C3.92425 3.97999 3.92425 3.97999 4.13176 3.61009C4.59848 3.34826 5.18227 3.31328 5.70748 3.25206C5.77059 3.24442 5.8337 3.23677 5.89872 3.2289C6.10492 3.20403 6.31117 3.17967 6.51744 3.15535C6.66208 3.13808 6.80672 3.12079 6.95135 3.10347C7.25347 3.06739 7.55561 3.03157 7.85778 2.99593C8.24391 2.95036 8.62996 2.90415 9.016 2.85774C9.3143 2.82195 9.61265 2.78651 9.91101 2.75117C10.0533 2.73427 10.1957 2.71727 10.338 2.70014C10.5372 2.67623 10.7364 2.65279 10.9357 2.62947C10.9937 2.62241 11.0517 2.61535 11.1115 2.60807C11.4844 2.56508 11.8476 2.55424 12.223 2.56023C12.2424 2.51632 12.2619 2.47241 12.2819 2.42717C12.8987 1.29024 14.2178 0.566579 15.4067 0.187061C17.1382 -0.23689 18.9675 0.0584827 20.4296 1.08646ZM14.5669 2.16958C14.5669 2.19537 14.5669 2.22115 14.5669 2.24771C14.6311 2.24207 14.6954 2.23643 14.7616 2.23062C15.0351 2.20788 15.3087 2.188 15.5825 2.16958C15.6586 2.16425 15.7346 2.15891 15.813 2.15341C15.8803 2.15069 15.9477 2.14797 16.0171 2.14517C16.0769 2.14225 16.1366 2.13933 16.1981 2.13632C16.4387 2.18462 16.5217 2.29426 16.6763 2.4821C16.7355 2.70148 16.7355 2.70148 16.7642 2.95728C16.7757 3.05326 16.7873 3.14923 16.7991 3.24811C16.8103 3.35249 16.8215 3.45687 16.8326 3.56126C16.845 3.66845 16.8576 3.77563 16.8704 3.8828C16.8969 4.10738 16.9229 4.33202 16.9484 4.55672C17.0078 5.07326 17.0759 5.58868 17.1434 6.10421C17.1773 6.36324 17.2106 6.62234 17.244 6.88143C17.2607 7.01051 17.2607 7.01051 17.2776 7.1422C17.2855 7.20289 17.2933 7.26357 17.3014 7.3261C17.6108 7.24875 17.6108 7.24875 17.9264 7.16984C17.969 7.01365 18.0112 6.85737 18.0534 6.70107C18.0671 6.65068 18.0809 6.6003 18.095 6.54839C18.1878 6.20406 18.2716 5.85864 18.3503 5.51082C18.3698 5.42683 18.3894 5.34283 18.4095 5.25629C18.4484 5.08812 18.4861 4.91964 18.5225 4.75089C18.6597 4.1669 18.6597 4.1669 18.8957 3.95007C19.4577 3.77911 20.0704 4.00477 20.6167 4.16004C20.8252 4.21995 20.8252 4.21995 21.0516 4.12281C20.348 2.86969 19.5307 2.04656 18.151 1.56469C16.8769 1.21238 15.6904 1.56371 14.5669 2.16958ZM2.69125 13.6545C2.543 16.5019 2.39475 19.3493 2.24201 22.2829C2.19591 23.1675 2.14981 24.0521 2.10231 24.9635C1.92459 28.3779 1.747 31.7923 1.57711 35.2071C1.56705 35.409 1.55692 35.6108 1.54678 35.8127C1.53126 36.1217 1.51592 36.4308 1.50073 36.7398C1.49528 36.8502 1.48978 36.9606 1.48421 37.071C1.47669 37.2205 1.4694 37.37 1.46213 37.5195C1.45805 37.602 1.45397 37.6844 1.44977 37.7694C1.43922 38.0907 1.44119 38.4124 1.44119 38.734C11.7027 38.734 21.9641 38.734 32.5365 38.734C32.4886 37.2494 32.4371 35.7679 32.3588 34.2852C32.349 34.0966 32.3392 33.908 32.3295 33.7193C32.3034 33.2152 32.277 32.711 32.2505 32.2068C32.2254 31.7277 32.2006 31.2486 32.1757 30.7695C32.1264 29.819 32.0768 28.8686 32.0271 27.9182C31.9794 27.0044 31.9317 26.0906 31.8842 25.1769C31.8812 25.1206 31.8783 25.0644 31.8753 25.0065C31.8577 24.6677 31.8401 24.329 31.8224 23.9902C31.7965 23.4909 31.7705 22.9916 31.7445 22.4923C31.7417 22.4383 31.7389 22.3843 31.736 22.3286C31.6951 21.5439 31.6542 20.7593 31.6133 19.9746C31.6081 19.8754 31.6029 19.7763 31.5976 19.6741C31.5737 19.2155 31.5497 18.7569 31.5258 18.2983C31.445 16.7504 31.3658 15.2025 31.2865 13.6545C21.85 13.6545 12.4136 13.6545 2.69125 13.6545Z" fill="#FDFDFD"/>
<path d="M15.5047 3.68377C15.5611 4.12271 15.6167 4.56174 15.6716 5.00086C15.6903 5.14985 15.7093 5.29881 15.7284 5.44774C15.9323 7.03463 15.9323 7.03463 15.8953 7.82461C15.0663 8.07146 14.2313 8.27701 13.3892 8.47398C13.1531 8.52958 12.9174 8.58619 12.6816 8.64313C12.6006 8.6627 12.5196 8.68226 12.4361 8.70242C12.2718 8.74215 12.1075 8.78198 11.9432 8.8219C11.534 8.92071 11.1245 9.0154 10.7126 9.10214C10.6339 9.11896 10.5553 9.13578 10.4743 9.15311C10.3258 9.18463 10.177 9.2152 10.028 9.24467C9.74699 9.3047 9.52936 9.36149 9.28517 9.51598C9.07642 9.868 9.15161 10.2502 9.23909 10.6318C9.2662 10.7347 9.29408 10.8375 9.32271 10.94C9.44996 11.4104 9.54902 11.8762 9.645 12.3561C8.56213 12.3561 7.47926 12.3561 6.36358 12.3561C6.18787 11.3897 6.18787 11.3897 6.13743 10.947C6.12002 10.7965 6.12002 10.7965 6.10226 10.643C6.09007 10.5353 6.07788 10.4276 6.06571 10.3199C6.03886 10.0855 6.01184 9.85108 5.98484 9.61669C5.97778 9.55524 5.97073 9.49379 5.96346 9.43048C5.90701 8.9405 5.8477 8.45089 5.78768 7.96134C5.76064 7.7394 5.73362 7.51745 5.70661 7.29551C5.68897 7.15125 5.67119 7.00702 5.65327 6.8628C5.62801 6.65923 5.60327 6.4556 5.57863 6.25196C5.57107 6.19224 5.56352 6.13252 5.55574 6.07099C5.50708 5.66337 5.49796 5.26625 5.50416 4.85571C6.79374 4.6116 8.09758 4.47822 9.4011 4.3337C9.87429 4.28121 10.3474 4.22827 10.8205 4.17503C10.9373 4.1619 11.0542 4.14879 11.171 4.13572C11.8045 4.06472 12.4374 3.99035 13.0694 3.90683C13.1248 3.89953 13.1803 3.89222 13.2373 3.8847C13.4986 3.85012 13.7598 3.81488 14.0209 3.77875C14.5209 3.71142 15.0001 3.66863 15.5047 3.68377Z" fill="#7F6674" fill-opacity="0.5"/>
<path d="M12.9062 15.3C13.4356 15.6101 13.7821 16.0601 13.9417 16.6532C14.0341 17.3121 13.9011 17.8329 13.5178 18.3726C13.2998 18.6419 13.0875 18.847 12.7698 18.9971C12.7182 18.9971 12.6666 18.9971 12.6135 18.9971C12.6131 19.4652 12.6158 19.9333 12.6211 20.4014C12.6225 20.5601 12.6231 20.7189 12.6229 20.8776C12.6215 22.2906 12.8371 23.4365 13.8196 24.5198C13.9187 24.6092 13.9187 24.6092 14.0198 24.7005C14.0571 24.7371 14.0944 24.7738 14.1327 24.8116C14.9635 25.5902 16.0664 25.9219 17.185 25.895C17.6062 25.8601 17.9936 25.7676 18.395 25.638C18.4976 25.6054 18.4976 25.6054 18.6023 25.5721C19.5607 25.2295 20.3841 24.4491 20.85 23.5481C20.9485 23.3348 21.0427 23.1219 21.1296 22.9035C21.1698 22.8056 21.1698 22.8056 21.2109 22.7057C21.3102 22.3466 21.3136 22.008 21.3182 21.637C21.3197 21.5613 21.3212 21.4857 21.3228 21.4078C21.3274 21.1674 21.331 20.927 21.3347 20.6866C21.3376 20.5231 21.3407 20.3596 21.3438 20.1962C21.3513 19.7965 21.3579 19.3968 21.3639 18.9971C21.2718 18.9614 21.2718 18.9614 21.1778 18.9249C20.6823 18.7211 20.3883 18.37 20.1707 17.8901C19.9825 17.4156 19.9488 16.9341 20.1011 16.4423C20.3684 15.8564 20.7587 15.4995 21.3054 15.1736C21.8711 15.0133 22.4086 15.0021 22.9509 15.2469C23.4633 15.5376 23.9137 16.0099 24.0985 16.5751C24.1792 17.2696 24.0922 17.8942 23.6599 18.4584C23.3817 18.7576 23.1619 18.8726 22.7703 18.9971C22.7721 19.1311 22.7721 19.1311 22.774 19.2678C22.7783 19.604 22.7809 19.9402 22.7831 20.2765C22.7843 20.4211 22.7859 20.5658 22.788 20.7104C22.7996 21.5549 22.7883 22.3246 22.5359 23.1379C22.4918 23.282 22.4918 23.282 22.4468 23.4291C21.8887 24.887 20.8713 26.1134 19.44 26.7797C17.8827 27.4196 16.2777 27.5052 14.6956 26.8614C13.2332 26.2229 12.1304 25.0034 11.5261 23.5358C11.173 22.5269 11.177 21.4968 11.1925 20.4424C11.1937 20.3013 11.1948 20.1602 11.1957 20.0191C11.1983 19.6784 11.2023 19.3378 11.2072 18.9971C11.133 18.9736 11.0589 18.95 10.9824 18.9258C10.5197 18.7646 10.2242 18.3997 10.0011 17.9716C9.80361 17.4716 9.78606 16.9077 9.93056 16.3904C10.1751 15.8453 10.6393 15.3857 11.1843 15.1422C11.7681 14.9741 12.3597 15.0491 12.9062 15.3Z" fill="#FCFCFC"/>
<path d="M19.8018 5.48074C20.3663 5.53074 20.9065 5.6681 21.455 5.80503C21.7441 5.87714 22.0335 5.94802 22.323 6.0188C22.3812 6.03305 22.4395 6.04731 22.4995 6.062C23.018 6.18825 23.5384 6.30481 24.0598 6.41829C25.2759 6.68351 26.4842 6.98068 27.6928 7.27771C27.6462 7.81367 27.5418 8.31101 27.4047 8.83052C27.1954 9.6419 27.0087 10.4567 26.8338 11.2761C26.8155 11.3605 26.7973 11.4449 26.7784 11.5318C26.7626 11.6062 26.7468 11.6806 26.7305 11.7572C26.6771 11.9655 26.6771 11.9655 26.5209 12.3561C25.2317 12.3561 23.9426 12.3561 22.6144 12.3561C22.4531 11.8722 22.3127 11.4051 22.1994 10.9107C22.1657 10.7667 22.132 10.6226 22.0983 10.4786C22.0808 10.4031 22.0632 10.3277 22.0451 10.25C21.9274 9.7478 21.806 9.24648 21.6841 8.74532C21.6016 8.40462 21.5196 8.06467 21.4526 7.72054C21.4347 7.63081 21.4169 7.54107 21.3985 7.44862C21.3855 7.3756 21.3726 7.30258 21.3592 7.22735C21.2584 6.97325 21.1254 6.87373 20.8956 6.73081C20.728 6.70679 20.728 6.70679 20.5635 6.74546C20.5036 6.75533 20.4437 6.7652 20.3819 6.77537C20.3194 6.78644 20.2569 6.79752 20.1924 6.80894C20.0607 6.82448 19.9288 6.83917 19.7969 6.85288C19.6954 6.86416 19.5939 6.87544 19.4893 6.88707C19.5114 6.72584 19.5344 6.56472 19.5576 6.40364C19.5703 6.31391 19.583 6.22417 19.5961 6.13172C19.6409 5.89582 19.7039 5.69905 19.8018 5.48074Z" fill="#806775" fill-opacity="0.5"/>
<path d="M20.1924 8.21526C20.3227 8.5906 20.429 8.9689 20.5293 9.35301C20.546 9.41679 20.5627 9.48057 20.5799 9.54628C20.7095 10.0455 20.8335 10.546 20.9541 11.0474C20.9706 11.1153 20.987 11.1831 21.004 11.253C21.0194 11.3177 21.0347 11.3824 21.0506 11.4491C21.0641 11.5055 21.0775 11.5619 21.0914 11.6201C21.141 11.8635 21.1729 12.1102 21.2081 12.3561C17.8563 12.3561 14.5046 12.3561 11.0513 12.3561C10.5825 10.6373 10.5825 10.6373 10.5825 10.481C12.1527 10.0304 13.7431 9.67324 15.3345 9.30672C17.4645 8.82376 17.4645 8.82376 19.5759 8.26714C19.7905 8.21784 19.9732 8.20471 20.1924 8.21526Z" fill="#7F6674" fill-opacity="0.5"/>
<path d="M28.396 10.3247C28.7843 10.2442 29.1048 10.2192 29.4898 10.3247C29.8078 10.6178 29.993 11.0243 30.1833 11.4066C30.304 11.6377 30.445 11.8537 30.5885 12.0712C30.6618 12.1998 30.6618 12.1998 30.6618 12.3561C29.7594 12.3561 28.857 12.3561 27.9272 12.3561C28.0252 11.8662 28.1258 11.384 28.2495 10.9009C28.2637 10.8449 28.2779 10.7888 28.2926 10.731C28.3269 10.5955 28.3614 10.4601 28.396 10.3247Z" fill="#816876" fill-opacity="0.5"/>
<path d="M4.48834 10.3247C4.59147 10.3247 4.6946 10.3247 4.80086 10.3247C4.82726 10.5607 4.85324 10.7967 4.87899 11.0328C4.88644 11.099 4.89389 11.1652 4.90157 11.2334C4.90862 11.2987 4.91567 11.3639 4.92293 11.4311C4.93275 11.52 4.93275 11.52 4.94277 11.6108C4.96069 11.8587 4.95712 12.1076 4.95712 12.3561C4.41568 12.3561 3.87425 12.3561 3.31641 12.3561C3.42999 12.0721 3.53506 11.8455 3.69027 11.5882C3.73171 11.5193 3.77315 11.4505 3.81585 11.3795C3.85891 11.3086 3.90196 11.2377 3.94632 11.1646C3.98968 11.0925 4.03304 11.0204 4.07771 10.9461C4.3987 10.4144 4.3987 10.4144 4.48834 10.3247Z" fill="#826A77" fill-opacity="0.5"/>
<path d="M12.2232 16.4969C12.4136 16.619 12.4136 16.619 12.5357 16.8094C12.5608 17.0249 12.5503 17.2162 12.5357 17.4345C12.4696 17.3942 12.4036 17.3539 12.3355 17.3124C12.0167 17.1791 11.852 17.1968 11.52 17.2782C11.4427 17.3298 11.3653 17.3814 11.2856 17.4345C11.2271 17.1854 11.2271 17.1854 11.2075 16.8876C11.5002 16.4233 11.6958 16.3787 12.2232 16.4969Z" fill="#856E7B" fill-opacity="0.5"/>
<path d="M22.1065 16.409C22.4329 16.514 22.5745 16.6058 22.7706 16.8876C22.7559 17.1854 22.7559 17.1854 22.6924 17.4345C22.6393 17.3958 22.5861 17.3571 22.5313 17.3173C22.2496 17.1734 22.0678 17.1717 21.7549 17.2001C21.571 17.2689 21.571 17.2689 21.4424 17.3564C21.4093 17.0194 21.4087 16.8584 21.6035 16.5751C21.833 16.4188 21.833 16.4188 22.1065 16.409Z" fill="#866E7B" fill-opacity="0.5"/>
</svg>
