<svg width="83" height="90" viewBox="0 0 83 90" fill="none" xmlns="http://www.w3.org/2000/svg">
<rect width="82.4748" height="89.3714" rx="15" fill="#BEA7E3"/>
<path d="M53.4736 12.5896C54.1632 13.1119 54.78 13.7127 55.3982 14.3161C55.5339 14.4387 55.5339 14.4387 55.6723 14.5638C58.6819 17.349 60.034 21.7809 60.1993 25.7629C60.2194 26.4458 60.2375 27.1286 60.2522 27.8117C60.2683 28.8138 60.2683 28.8138 60.4717 29.7887C60.6124 30.2423 60.592 30.4929 60.5046 30.9538C60.4067 31.7413 60.6093 32.2051 61.005 32.8791C61.1638 33.1598 61.1638 33.1598 61.1638 33.4411C61.344 33.4005 61.5242 33.3598 61.7098 33.318C65.504 32.4911 65.504 32.4911 66.9344 33.245C68.2721 34.1944 68.6464 35.5092 68.9262 37.0457C68.9538 37.1925 68.9813 37.3394 69.0097 37.4907C69.1 37.9745 69.1882 38.4587 69.2761 38.943C69.3068 39.1103 69.3374 39.2777 69.369 39.4501C71.2397 49.6816 73.0993 60.5441 72.2732 70.9879C72.2654 71.0911 72.2576 71.1943 72.2496 71.3006C72.0683 73.5065 71.2622 75.6824 69.6106 77.2194C68.1758 78.3912 66.5736 79.2989 64.6804 79.3041C64.4723 79.3052 64.4723 79.3052 64.26 79.3062C64.1087 79.3063 63.9573 79.3064 63.8013 79.3064C63.6397 79.3071 63.4781 79.3077 63.3116 79.3083C62.8635 79.3099 62.4154 79.3108 61.9673 79.3114C61.4838 79.3123 61.0002 79.3139 60.5167 79.3154C59.349 79.3189 58.1813 79.3209 57.0136 79.3227C56.6835 79.3233 56.3534 79.3238 56.0233 79.3244C53.9714 79.3279 51.9194 79.331 49.8675 79.3328C49.3924 79.3332 48.9174 79.3336 48.4423 79.334C48.3242 79.3341 48.2062 79.3343 48.0845 79.3344C46.1741 79.3361 44.2636 79.3408 42.3532 79.3467C40.3895 79.3527 38.4259 79.3559 36.4622 79.3567C35.3606 79.3572 34.259 79.3588 33.1574 79.3634C32.2188 79.3674 31.2801 79.3689 30.3415 79.3674C29.8632 79.3666 29.3852 79.3674 28.907 79.3705C25.8581 79.3893 23.5281 79.114 21.1999 76.9557C18.3497 73.956 18.2891 69.2657 17.9919 65.3629C17.9324 65.4706 17.873 65.5782 17.8117 65.6892C17.587 66.0955 17.3621 66.5017 17.1371 66.9079C17.0404 67.0824 16.9439 67.2569 16.8474 67.4315C14.9833 70.8055 14.9833 70.8055 14.195 71.2692C13.5409 71.4 13.0993 71.3606 12.5081 71.0423C12.0364 70.6675 11.7419 70.2718 11.4441 69.7575C11.3901 69.6654 11.3362 69.5733 11.2807 69.4785C10.0231 67.2394 9.71245 64.7757 10.2575 62.2692C10.3717 61.9083 10.4896 61.561 10.6256 61.209C10.6624 61.1125 10.6993 61.016 10.7372 60.9165C11.1509 59.8569 11.649 58.8436 12.1648 57.8307C12.2379 57.6857 12.2379 57.6857 12.3126 57.5378C13.2127 55.7547 14.1662 54.0064 15.1794 52.2848C15.2482 52.1676 15.3169 52.0505 15.3878 51.9297C16.6299 49.8196 17.8992 47.7129 19.2575 45.6754C19.3219 45.3364 19.3727 45.006 19.4141 44.6641C19.4274 44.5622 19.4407 44.4602 19.4544 44.3551C19.483 44.1343 19.5112 43.9135 19.539 43.6927C19.5831 43.3436 19.6288 42.9947 19.675 42.6458C19.7864 41.8051 19.8968 40.9642 20.006 40.1232C20.0914 39.4657 20.1791 38.8085 20.2703 38.1518C20.2979 37.9493 20.3246 37.7466 20.3504 37.5439C20.5293 36.1381 20.7716 34.8271 21.824 33.8014C22.8003 33.0571 23.8278 32.9518 25.0232 33.0192C24.9566 32.9592 24.8901 32.8992 24.8216 32.8374C23.3821 31.4765 21.9391 29.6045 21.8503 27.5524C21.8848 26.8876 22.0374 26.4916 22.4919 25.9879C23.2015 25.3676 23.9864 25.0327 24.8454 24.662C25.1087 24.5476 25.3699 24.4291 25.6313 24.3103C26.6493 23.8683 27.5613 23.5412 28.6794 23.7379C29.4967 24.0875 29.9588 24.6041 30.5075 25.2848C30.5212 25.1683 30.5212 25.1683 30.5351 25.0494C30.7426 23.3294 31.0168 21.7046 31.6325 20.0817C31.6673 19.9891 31.7021 19.8966 31.7379 19.8013C33.2693 15.8216 36.2663 12.7208 40.1623 10.9856C44.5891 9.24279 49.6092 9.83189 53.4736 12.5896ZM36.7515 15.4617C33.9465 18.1775 32.5365 21.9236 32.406 25.777C32.3721 26.7239 32.3303 27.664 32.239 28.6071C32.1628 29.5758 32.248 30.527 32.4763 31.4723C32.5691 31.5651 32.6619 31.6579 32.7575 31.7536C33.1828 31.7318 33.3968 31.6702 33.7156 31.3844C33.9474 30.9207 33.9275 30.5788 33.8825 30.0661C33.7939 29.8297 33.7 29.5953 33.6013 29.3629C32.9589 25.7799 33.7235 21.7251 35.7494 18.6878C37.6955 15.9381 40.2915 14.2044 43.6033 13.569C46.5689 13.1578 49.5645 13.8594 52.0232 15.5817C54.8858 17.8314 56.6927 20.9983 57.1818 24.6201C57.4916 28.2686 57.4916 28.2686 56.5671 29.7409C56.3016 30.2087 56.3071 30.522 56.3825 31.0504C56.6521 31.484 56.6521 31.484 57.0857 31.7536C57.6527 31.8431 57.9319 31.8517 58.404 31.5163C58.6666 31.1426 58.7519 30.9442 58.7732 30.4879C58.7286 30.3581 58.684 30.2283 58.638 30.0946C58.3918 29.2686 58.4375 28.3981 58.4216 27.5436C58.2892 22.719 57.1598 18.6628 53.7107 15.1598C48.7916 10.521 41.5696 10.9691 36.7515 15.4617ZM38.2271 18.3568C36.695 20.189 35.6924 22.2183 35.2888 24.5817C35.2705 24.6825 35.2522 24.7833 35.2333 24.8871C35.0256 26.3164 34.9221 27.9859 35.4734 29.3349C35.7256 30.1418 35.7182 31.0621 35.4316 31.8557C35.1298 32.4276 34.8403 32.7911 34.3044 33.1598C34.4939 33.5725 34.7102 33.8982 35.0075 34.2409C35.1163 34.3678 35.1163 34.3678 35.2273 34.4974C36.1768 35.4805 39.4481 35.1179 40.8055 35.1458C47.7378 35.3868 47.7378 35.3868 54.5544 34.4254C54.6331 34.0655 54.7088 33.7053 54.7829 33.3444C54.8054 33.243 54.8279 33.1415 54.8511 33.037C54.9776 32.4071 54.9785 32.0661 54.695 31.4723C54.5459 30.3765 54.7219 29.5459 55.2306 28.5719C56.1553 26.7286 55.4041 23.9922 54.8093 22.1735C54.1936 20.5451 53.2466 19.1999 52.0232 17.9723C51.9284 17.8742 51.8336 17.7762 51.7359 17.6751C50.4731 16.455 48.8204 15.6328 47.1013 15.3004C46.9389 15.2685 46.7765 15.2366 46.6091 15.2038C43.454 14.922 40.4053 16.0273 38.2271 18.3568ZM26.7266 25.8946C26.5715 25.9631 26.4164 26.0316 26.2567 26.1022C26.0159 26.211 26.0159 26.211 25.7702 26.3219C25.6081 26.3933 25.4459 26.4648 25.2789 26.5384C24.4574 26.8739 24.4574 26.8739 23.7575 27.3942C23.7575 28.9187 24.8606 30.1792 25.8741 31.2163C26.8759 32.2723 26.8759 32.2723 28.1636 32.7357C28.6962 32.5392 29.1572 32.2558 29.6374 31.9557C29.7349 31.896 29.8323 31.8362 29.9327 31.7747C30.1718 31.628 30.41 31.48 30.6482 31.3317C30.6008 29.2582 29.8698 27.3982 28.5525 25.805C27.9532 25.3196 27.3713 25.6081 26.7266 25.8946ZM30.9175 33.1452C30.7529 33.2435 30.7529 33.2435 30.585 33.3438C30.4658 33.4141 30.3466 33.4843 30.2238 33.5567C30.0999 33.6316 29.976 33.7066 29.8484 33.7838C29.7228 33.8582 29.5973 33.9327 29.468 34.0093C29.1575 34.1936 28.8478 34.3792 28.5388 34.5661C28.7234 34.9758 28.9201 35.2615 29.2425 35.5735C29.3234 35.6529 29.4044 35.7323 29.4877 35.8141C29.5719 35.8953 29.6561 35.9765 29.7429 36.0602C29.9104 36.2228 30.0776 36.3858 30.2444 36.5491C30.3185 36.6206 30.3925 36.6922 30.4689 36.7659C30.6482 36.9567 30.6482 36.9567 30.7888 37.2379C31.5066 37.1601 32.0496 36.8124 32.6609 36.4557C32.765 36.396 32.8692 36.3362 32.9764 36.2747C33.2321 36.1279 33.4871 35.9799 33.7419 35.8317C33.6379 35.3544 33.5233 35.146 33.1618 34.8122C32.6894 34.363 32.2695 33.8873 31.8545 33.385C31.542 33.0679 31.337 32.9649 30.9175 33.1452ZM58.4919 33.4411C58.1581 33.4511 57.824 33.4529 57.49 33.4499C57.3098 33.4486 57.1296 33.4473 56.944 33.446C56.7357 33.4436 56.7357 33.4436 56.5232 33.4411C56.5232 33.6731 56.5232 33.9051 56.5232 34.1442C57.4183 34.0751 58.3081 34.004 59.195 33.8629C59.1486 33.6773 59.1022 33.4917 59.0544 33.3004C58.7627 33.2795 58.7627 33.2795 58.4919 33.4411ZM61.9369 35.0953C61.2907 35.2124 60.6437 35.3245 59.9965 35.4362C59.8672 35.4585 59.7379 35.4808 59.6047 35.5038C56.9459 35.9588 54.2703 36.257 51.5837 36.4909C51.4858 36.4994 51.3879 36.508 51.287 36.5169C50.5954 36.5766 49.9034 36.6289 49.2107 36.6754C49.1062 36.6825 49.0017 36.6895 48.894 36.6968C46.5802 36.8455 44.2652 36.833 41.9479 36.8257C41.433 36.8243 40.9181 36.8236 40.4032 36.8229C39.4015 36.8214 38.3999 36.8191 37.3982 36.8161C37.7953 37.2166 38.1887 37.5973 38.6286 37.9499C40.5235 39.6025 42.6322 43.0151 42.921 45.5974C42.9588 46.5936 42.8014 47.4056 42.1794 48.2067C41.4002 48.8493 40.5412 49.2411 39.6218 49.6481C39.4142 49.7422 39.4142 49.7422 39.2024 49.8382C38.2776 50.2531 37.6117 50.4757 36.5896 50.4655C36.425 50.4642 36.2604 50.4629 36.0908 50.4616C35.9026 50.4592 35.9026 50.4592 35.7107 50.4567C35.5528 50.7724 35.5401 50.9756 35.5186 51.3266C35.5107 51.45 35.5029 51.5735 35.4948 51.7006C35.4867 51.8363 35.4787 51.9721 35.4704 52.1119C35.4615 52.2546 35.4525 52.3973 35.4433 52.5443C35.4239 52.855 35.4047 53.1657 35.3858 53.4764C35.3557 53.9682 35.3246 54.4599 35.2932 54.9516C35.2041 56.3499 35.116 57.7483 35.0303 59.1468C34.9779 60.0016 34.9238 60.8562 34.8685 61.7108C34.8477 62.0367 34.8277 62.3625 34.8083 62.6884C34.7811 63.1447 34.7516 63.6007 34.7217 64.0568C34.7142 64.1914 34.7068 64.326 34.6991 64.4647C34.6492 65.1843 34.5597 65.7229 34.1638 66.3473C33.6922 66.7178 33.197 66.6886 32.6169 66.6286C31.9892 66.3016 31.5358 65.8454 31.0492 65.3426C30.7848 65.0777 30.5101 64.8333 30.2263 64.5895C29.7724 64.1985 29.3501 63.7873 28.931 63.3596C28.5819 63.0173 28.2103 62.7043 27.8346 62.3917C26.891 61.5055 26.891 61.5055 26.7703 60.8349C26.7753 60.6627 26.7802 60.4905 26.7854 60.3131C26.7879 60.2129 26.7904 60.1127 26.793 60.0094C26.8534 58.2605 27.0267 56.5135 27.1772 54.7703C27.245 53.9851 27.3115 53.1998 27.3771 52.4145C27.3999 52.1439 27.4236 51.8733 27.4472 51.6027C27.5272 50.6553 27.576 49.72 27.5544 48.7692C27.1448 49.1544 26.8414 49.5344 26.5508 50.015C26.4704 50.1475 26.3899 50.2799 26.307 50.4164C26.2227 50.5573 26.1384 50.6982 26.0515 50.8434C25.919 51.0632 25.919 51.0632 25.7839 51.2875C25.0853 52.4515 24.4111 53.6263 23.7575 54.8161C23.2915 55.6629 23.2915 55.6629 23.0977 56.0141C22.8529 56.4582 22.6089 56.9027 22.3667 57.3482C21.9281 58.1524 21.4845 58.9446 20.9873 59.7149C19.9831 61.2862 19.5897 62.4118 19.7826 64.2767C19.8225 64.6848 19.8447 65.0913 19.8645 65.5008C19.9562 67.1968 20.1599 68.8721 20.4265 70.5485C20.453 70.7213 20.4795 70.8941 20.5068 71.0722C20.8505 73.1074 21.6082 75.0686 23.3269 76.3229C25.6262 77.7836 28.0434 77.6384 30.6803 77.6337C31.0392 77.6341 31.3981 77.6346 31.757 77.6352C32.6272 77.6363 33.4973 77.6362 34.3674 77.6354C35.0752 77.6347 35.7829 77.6346 36.4907 77.6349C36.5918 77.635 36.6929 77.635 36.797 77.6351C37.0024 77.6352 37.2078 77.6353 37.4133 77.6354C39.3353 77.6362 41.2573 77.6352 43.1793 77.6337C44.8252 77.6325 46.4711 77.6327 48.1169 77.634C50.0325 77.6355 51.9481 77.6361 53.8637 77.6352C54.0683 77.6351 54.2729 77.635 54.4775 77.6349C54.5782 77.6349 54.6789 77.6349 54.7826 77.6348C55.4887 77.6346 56.1949 77.635 56.901 77.6356C57.853 77.6365 58.805 77.6359 59.7571 77.6343C60.1055 77.6339 60.454 77.634 60.8024 77.6346C65.0604 77.6598 65.0604 77.6598 68.6087 75.505C71.2639 72.6662 70.6589 67.8282 70.541 64.2369C70.2345 55.7193 68.9517 47.238 67.3777 38.8727C67.3378 38.6582 67.3378 38.6582 67.2972 38.4393C67.2221 38.0375 67.1451 37.636 67.0673 37.2346C67.0454 37.1165 67.0234 36.9983 67.0008 36.8766C66.8453 36.0933 66.6163 35.5487 66.0769 34.944C64.9294 34.2848 63.177 34.8696 61.9369 35.0953ZM22.766 35.6037C22.3499 36.2587 22.2979 37.0198 22.1931 37.7741C22.1699 37.9292 22.1468 38.0844 22.1229 38.2442C21.9387 39.4994 21.7801 40.7575 21.6482 42.0192C22.0611 41.6285 22.382 41.2323 22.6935 40.7574C22.784 40.6205 22.8744 40.4835 22.9676 40.3424C23.063 40.1967 23.1583 40.0511 23.2566 39.901C23.4569 39.5975 23.6574 39.2941 23.8581 38.9908C23.9585 38.8389 24.0589 38.6869 24.1623 38.5304C24.6073 37.8611 25.0604 37.1974 25.5154 36.5348C25.5938 36.4206 25.6721 36.3064 25.7529 36.1887C25.9314 35.929 26.11 35.6693 26.2888 35.4098C25.1902 34.6774 23.6847 34.5381 22.766 35.6037ZM27.5544 36.6754C27.375 36.8795 27.375 36.8795 27.1997 37.1527C27.0933 37.3099 27.0933 37.3099 26.9848 37.4703C26.8695 37.6438 26.8695 37.6438 26.7519 37.8208C26.6308 38.0005 26.6308 38.0005 26.5072 38.1838C26.3345 38.4402 26.1622 38.6969 25.9902 38.9538C25.6494 39.462 25.3055 39.9679 24.9617 40.474C24.6147 40.985 24.269 41.4969 23.9233 42.0088C23.7477 42.2685 23.5721 42.5282 23.3962 42.7877C22.3654 44.309 21.3539 45.8376 20.391 47.4028C20.1675 47.7647 19.9399 48.1241 19.7124 48.4835C17.468 52.0414 15.319 55.6741 13.4859 59.4636C13.3435 59.7539 13.1957 60.0411 13.0475 60.3284C11.9195 62.5542 11.4684 64.6744 12.2378 67.1103C12.5573 67.9248 12.948 68.6166 13.4919 69.3004C14.051 68.6665 14.4172 67.9592 14.8103 67.2174C15.4235 66.0754 16.0587 64.9499 16.7175 63.8336C17.4598 62.5733 18.1687 61.2988 18.8601 60.01C19.4548 58.9029 20.0692 57.8081 20.691 56.7159C21.1392 55.927 21.5783 55.1339 22.0092 54.3354C24.2045 50.268 26.6396 46.256 29.8044 42.8629C29.9899 42.6557 30.1745 42.4478 30.3581 42.2389C30.4348 42.1521 30.5115 42.0653 30.5905 41.9758C30.9488 41.546 31.07 41.3718 31.0706 40.7975C31.0517 40.5952 31.031 40.393 31.0085 40.1911C31.0021 40.0892 30.9957 39.9873 30.989 39.8823C30.9618 39.5418 30.9618 39.5418 30.7888 39.0661C30.3834 38.8525 30.3834 38.8525 30.0805 38.7619C29.5389 38.5309 29.1718 38.0572 28.7761 37.6334C28.6044 37.4521 28.4322 37.2714 28.2592 37.0913C28.1845 37.0115 28.1097 36.9317 28.0327 36.8495C27.8444 36.6444 27.8444 36.6444 27.5544 36.6754ZM33.3464 38.0026C33.2624 38.0502 33.1784 38.0978 33.0918 38.1468C32.8856 38.2639 32.6808 38.3835 32.4763 38.5036C32.8485 42.0836 33.2983 45.8781 35.9216 48.567C36.3867 48.8344 36.7397 48.8545 37.2575 48.7692C37.8474 48.5678 38.4068 48.3115 38.9714 48.0485C39.1232 47.9818 39.275 47.9151 39.4315 47.8463C40.5437 47.3567 40.5437 47.3567 41.195 46.3786C41.2498 45.4681 40.9236 44.6749 40.5447 43.8649C40.4942 43.7547 40.4437 43.6445 40.3917 43.5309C39.278 41.1503 37.5605 38.6209 35.0075 37.6598C34.3315 37.42 33.9302 37.657 33.3464 38.0026ZM31.3513 43.7067C31.1419 43.9253 30.9377 44.1489 30.7361 44.3747C30.6248 44.4986 30.5135 44.6226 30.3988 44.7504C30.2955 44.87 30.1921 44.9897 30.0857 45.1129C30.0118 45.1975 29.938 45.282 29.862 45.3691C29.62 45.7432 29.5908 45.9959 29.555 46.439C29.541 46.6018 29.5269 46.7647 29.5124 46.9325C29.4985 47.1151 29.4847 47.2978 29.4704 47.486C29.4543 47.682 29.4381 47.8781 29.4217 48.0741C29.3833 48.5372 29.3462 49.0003 29.3098 49.4635C29.2449 50.2854 29.1763 51.107 29.1075 51.9286C29.0337 52.8101 28.961 53.6917 28.8884 54.5733C28.8641 54.8675 28.8397 55.1617 28.8152 55.4559C28.7686 56.0171 28.7231 56.5784 28.6778 57.1397C28.6637 57.3077 28.6497 57.4757 28.6352 57.6488C28.3885 59.3915 28.3885 59.3915 28.8069 61.0058C28.9272 61.1094 29.0476 61.2131 29.1716 61.32C29.3001 61.4347 29.4287 61.5495 29.5611 61.6677C29.6878 61.7734 29.8145 61.8791 29.945 61.9879C30.1415 62.1606 30.3378 62.3335 30.5339 62.5065C30.624 62.5834 30.7141 62.6602 30.8069 62.7394C31.1561 63.0485 31.4769 63.3814 31.7962 63.721C32.136 64.0312 32.5142 64.267 32.8982 64.5192C33.1471 61.8717 33.3273 59.2205 33.501 56.5673C33.5408 55.9611 33.5813 55.3549 33.6221 54.7488C33.6538 54.2748 33.6851 53.8007 33.7162 53.3267C33.7309 53.1032 33.7458 52.8796 33.7609 52.6562C33.8285 51.6532 33.8918 50.65 33.9152 49.6449C33.9182 49.5174 33.9213 49.3899 33.9245 49.2585C33.8597 48.7202 33.5916 48.374 33.2701 47.9502C32.3388 46.7181 31.952 45.158 31.4919 43.7067C31.4455 43.7067 31.3991 43.7067 31.3513 43.7067Z" fill="white"/>
<path d="M49.7518 62.6185C49.8555 62.6166 49.9591 62.6147 50.0659 62.6127C50.1775 62.6121 50.2891 62.6114 50.4041 62.6108C50.5192 62.6097 50.6342 62.6087 50.7528 62.6075C50.9962 62.6056 51.2396 62.6047 51.483 62.6043C51.7941 62.6037 52.105 62.5992 52.416 62.5938C52.7137 62.5894 53.0114 62.5893 53.3092 62.5886C53.4204 62.5862 53.5317 62.5839 53.6463 62.5815C54.5077 62.5875 54.5077 62.5875 54.8369 62.9331C55.1528 63.433 55.1415 63.8344 55.1472 64.4703C55.1495 64.6239 55.1518 64.7775 55.1541 64.9358C55.1229 65.412 55.0484 65.6912 54.8572 66.0932C54.5491 66.3661 54.43 66.3613 54.0667 66.3647C53.9054 66.367 53.9054 66.367 53.7409 66.3693C53.5665 66.3697 53.5665 66.3697 53.3886 66.3701C53.2681 66.3709 53.1475 66.3717 53.0269 66.3725C52.7742 66.3739 52.5215 66.3744 52.2687 66.3742C51.9454 66.3742 51.6222 66.3774 51.2989 66.3815C51.0498 66.3842 50.8008 66.3846 50.5517 66.3845C50.3748 66.3849 50.1978 66.3875 50.0208 66.3901C49.8587 66.389 49.8587 66.389 49.6934 66.3879C49.5511 66.3884 49.5511 66.3884 49.4059 66.3889C49.0836 66.3158 48.9347 66.1541 48.7013 65.856C48.5513 65.4573 48.5919 65.0121 48.5898 64.5741C48.588 64.4783 48.5861 64.3825 48.5842 64.2839C48.5815 63.7252 48.5965 63.337 48.8798 62.8919C49.172 62.6455 49.4093 62.6232 49.7518 62.6185ZM49.7719 64.1961C49.7719 64.3918 49.7719 64.5874 49.7719 64.789C51.1557 64.789 52.5394 64.789 53.965 64.789C53.965 64.5933 53.965 64.3977 53.965 64.1961C52.5813 64.1961 51.1976 64.1961 49.7719 64.1961Z" fill="white"/>
</svg>
