<svg width="92" height="92" viewBox="0 0 92 92" fill="none" xmlns="http://www.w3.org/2000/svg">
<rect width="92" height="92" rx="15" fill="#BEA7E3"/>
<g clip-path="url(#clip0_5656_2299)">
<path d="M41.6408 27.8594C43.4006 29.8697 43.7214 31.9315 43.6366 34.5034C43.5756 35.3765 43.3368 36.1765 43.047 37C43.0037 37.1249 42.9604 37.2498 42.9157 37.3785C42.8245 37.6295 42.7261 37.8778 42.6252 38.125C43.6578 37.5836 44.6832 37.0308 45.7002 36.4606C45.7846 36.4134 45.869 36.3661 45.9559 36.3175C46.3839 36.0779 46.8115 35.8376 47.2385 35.5962C47.3974 35.5071 47.5563 35.418 47.7201 35.3262C47.8628 35.2458 48.0055 35.1653 48.1525 35.0824C48.9567 34.6754 49.8154 34.6074 50.6886 34.8363C52.1674 35.4101 52.8504 36.7756 53.5696 38.106C53.7091 38.3641 53.8506 38.621 53.9924 38.8779C54.7052 40.1769 55.159 41.1147 55.0002 42.625C54.6056 43.9259 53.6033 44.5731 52.4689 45.2002C52.2776 45.3078 52.2776 45.3078 52.0823 45.4175C51.6495 45.6601 51.2156 45.9006 50.7814 46.1406C50.6229 46.2284 50.4644 46.3162 50.301 46.4066C49.6185 46.7842 48.9357 47.1612 48.2522 47.5371C47.0156 48.2174 45.7822 48.9031 44.5515 49.5941C43.4754 50.1981 42.3989 50.8013 41.3222 51.4042C41.0823 51.5385 41.0823 51.5385 40.8376 51.6755C40.4491 51.8931 40.0606 52.1106 39.672 52.3281C39.8051 52.3283 39.9381 52.3286 40.0752 52.3288C43.3134 52.3339 46.5516 52.3423 49.7898 52.354C51.3558 52.3596 52.9217 52.3642 54.4877 52.3662C55.8527 52.3681 57.2177 52.3719 58.5828 52.378C59.3054 52.3812 60.0281 52.3834 60.7507 52.3832C61.4313 52.3831 62.1118 52.3857 62.7923 52.3902C63.0417 52.3914 63.2912 52.3916 63.5406 52.3908C63.882 52.3899 64.2233 52.3924 64.5647 52.3958C64.6627 52.3947 64.7606 52.3936 64.8615 52.3925C65.7089 52.4072 66.4609 52.6907 67.0714 53.2818C67.1223 53.3615 67.1733 53.4413 67.2257 53.5235C67.2792 53.6032 67.3327 53.683 67.3878 53.7652C67.6825 54.3419 67.6749 54.8984 67.6771 55.5386C67.6779 55.6834 67.6779 55.6834 67.6787 55.8311C67.6802 56.1545 67.6808 56.4779 67.6813 56.8013C67.6822 57.0332 67.6831 57.2652 67.6841 57.4971C67.6871 58.2589 67.6885 59.0206 67.6899 59.7824C67.6905 60.0449 67.6911 60.3075 67.6917 60.57C67.6943 61.8038 67.6963 63.0376 67.6975 64.2714C67.6989 65.6939 67.7026 67.1164 67.7083 68.539C67.7125 69.6395 67.7146 70.74 67.7151 71.8406C67.7154 72.4974 67.7166 73.1542 67.7202 73.811C67.7235 74.4294 67.724 75.0478 67.7226 75.6663C67.7225 75.8925 67.7234 76.1187 67.7254 76.3448C67.7373 77.8175 67.6108 78.9673 66.7863 80.2158C65.9717 80.9942 65.0555 81.4542 63.9238 81.456C63.7956 81.4565 63.6674 81.4571 63.5353 81.4576C63.3249 81.4575 63.3249 81.4575 63.1101 81.4573C62.8859 81.4579 62.8859 81.4579 62.6572 81.4585C62.1547 81.4598 61.6522 81.46 61.1497 81.4602C60.79 81.4608 60.4304 81.4615 60.0708 81.4623C59.0925 81.4641 58.1142 81.465 57.1359 81.4657C56.5248 81.4661 55.9138 81.4667 55.3027 81.4673C53.6103 81.469 51.9179 81.4705 50.2256 81.4709C50.1173 81.471 50.009 81.471 49.8974 81.471C49.7888 81.471 49.6803 81.4711 49.5684 81.4711C49.3484 81.4712 49.1285 81.4712 48.9085 81.4713C48.7994 81.4713 48.6903 81.4714 48.5778 81.4714C46.8105 81.472 45.0431 81.4744 43.2758 81.4777C41.4606 81.481 39.6453 81.4828 37.8301 81.4829C36.8112 81.4831 35.7923 81.4839 34.7734 81.4864C33.8148 81.4888 32.8563 81.489 31.8977 81.4878C31.546 81.4877 31.1944 81.4883 30.8428 81.4897C30.3623 81.4915 29.8818 81.4907 29.4013 81.4892C29.1932 81.4909 29.1932 81.4909 28.9809 81.4926C27.6732 81.4833 26.6725 81.204 25.7117 80.2988C25.017 79.5334 24.7479 78.7604 24.7489 77.7387C24.7486 77.5122 24.7486 77.5122 24.7483 77.281C24.749 77.0336 24.749 77.0336 24.7498 76.7811C24.7498 76.6068 24.7498 76.4325 24.7498 76.253C24.7498 75.7757 24.7505 75.2984 24.7515 74.821C24.7524 74.322 24.7525 73.8229 24.7527 73.3239C24.7531 72.3791 24.7542 71.4344 24.7557 70.4896C24.7572 69.4139 24.758 68.3383 24.7587 67.2626C24.7602 65.0501 24.7627 62.8375 24.7658 60.625C24.2585 60.9063 23.7512 61.1877 23.244 61.4693C23.0724 61.5645 22.9007 61.6597 22.729 61.7549C21.1524 62.6291 19.5839 63.5171 18.0191 64.4122C17.1688 64.8614 16.0622 64.8578 15.144 64.612C13.8307 64.0164 13.2224 62.6922 12.5841 61.4776C12.5055 61.3304 12.4268 61.1833 12.3457 61.0318C12.1932 60.7455 12.0417 60.4586 11.8916 60.1711C11.7664 59.9318 11.6393 59.6934 11.509 59.4568C10.9979 58.5058 10.9292 57.5414 11.218 56.4903C11.8266 55.1176 13.2761 54.4873 14.5265 53.8135C14.8538 53.6351 15.181 53.4566 15.5082 53.2779C15.667 53.1913 15.8259 53.1047 15.9896 53.0154C16.7193 52.6114 17.4385 52.1903 18.1564 51.7656C17.6769 51.6268 17.1985 51.4911 16.7145 51.3685C14.793 50.8671 13.2192 50.104 11.8283 48.6719C11.7478 48.5943 11.6673 48.5167 11.5844 48.4368C10.1335 46.9261 9.93143 45.0305 9.96171 43.0513C10.0283 41.2759 10.9248 39.5728 12.2221 38.3629C13.8896 37.0804 15.5978 36.495 17.6994 36.5166C17.9211 36.5184 17.9211 36.5184 18.1474 36.5202C19.3575 36.5463 20.3902 36.7181 21.5314 37.1406C21.6257 37.1746 21.72 37.2085 21.8171 37.2435C23.5018 37.858 25.0195 38.6854 26.4901 39.7103C26.8514 39.9878 26.8514 39.9878 27.2443 39.9444C27.6181 39.7968 27.8517 39.6719 28.1408 39.3906C28.2117 38.9943 28.2117 38.9943 28.1809 38.5414C28.1768 38.3709 28.1728 38.2005 28.1686 38.0248C28.1592 37.7525 28.1592 37.7525 28.1496 37.4746C28.1044 34.7924 28.3388 31.9344 29.9689 29.6875C30.2502 29.4063 30.2502 29.4063 30.7951 29.3447C31.2647 29.3575 31.3503 29.3851 31.7267 29.7051C31.9752 30.1813 31.9825 30.4211 31.9377 30.9531C31.7679 31.3712 31.7679 31.3712 31.5422 31.8057C30.7468 33.449 30.5022 35.1902 30.5226 37C30.5236 37.1634 30.5236 37.1634 30.5245 37.3302C30.5262 37.5951 30.5287 37.8601 30.5314 38.125C30.6851 38.0554 30.8389 37.9858 30.9972 37.9141C31.7276 37.6348 32.432 37.6649 33.2033 37.7031C33.2256 37.6025 33.2479 37.5019 33.2709 37.3983C33.644 35.8047 34.1108 34.2041 35.172 32.9219C35.5782 32.7188 35.8465 32.7283 36.297 32.7813C36.7013 33.0801 36.7013 33.0801 37.0002 33.4844C37.0878 34.2001 36.866 34.6925 36.5431 35.3125C36.058 36.2983 35.6156 37.311 35.4533 38.4063C35.5434 38.7109 35.5434 38.7109 35.7345 38.9688C35.8322 39.1208 35.8322 39.1208 35.9317 39.2758C36.003 39.3804 36.0742 39.485 36.1476 39.5928C37.0002 40.8601 37.0002 40.8601 37.0002 41.2188C38.8609 40.4878 39.7301 38.5922 40.5158 36.8594C41.2813 35.0873 41.6041 33.0891 40.9904 31.2168C40.4268 29.9275 39.5949 29.0049 38.2922 28.457C36.977 28.0136 35.7692 28.1291 34.4689 28.5625C33.9271 28.6118 33.6061 28.6404 33.1418 28.3428C32.8334 27.8618 32.8334 27.5768 32.922 27.0156C33.4454 26.2481 34.167 26.08 35.0314 25.8906C35.1766 25.8577 35.1766 25.8577 35.3247 25.8242C37.6064 25.4439 40.0153 26.2531 41.6408 27.8594ZM49.0038 37.2434C48.9014 37.2973 48.799 37.3513 48.6935 37.4069C48.582 37.4669 48.4705 37.527 48.3556 37.5889C48.2374 37.6519 48.1192 37.7148 47.9974 37.7797C46.961 38.3354 45.9373 38.9132 44.9153 39.4948C43.2746 40.4279 41.6198 41.3352 39.9661 42.2449C39.3985 42.5576 38.8319 42.8721 38.2658 43.1875C38.4544 43.8089 38.6999 44.348 39.0162 44.9146C39.0612 44.9956 39.1063 45.0767 39.1528 45.1603C39.2477 45.3306 39.343 45.5008 39.4386 45.6708C39.5835 45.9286 39.7273 46.187 39.8709 46.4455C40.2958 47.2066 40.7283 47.9512 41.2189 48.6719C41.8013 48.4929 42.3116 48.2746 42.8421 47.9759C42.9912 47.8925 43.1403 47.809 43.294 47.7231C43.4532 47.633 43.6125 47.543 43.7765 47.4502C43.9449 47.3557 44.1132 47.2613 44.2816 47.1669C44.632 46.9705 44.9823 46.7738 45.3324 46.5769C45.8404 46.2915 46.3499 46.0088 46.8598 45.727C48.3124 44.924 49.7635 44.1187 51.2033 43.293C51.3126 43.2309 51.4219 43.1687 51.5345 43.1047C51.634 43.0472 51.7336 42.9897 51.8361 42.9304C51.9217 42.8813 52.0072 42.8321 52.0954 42.7814C52.3642 42.6009 52.5567 42.4657 52.7502 42.2031C52.8461 41.5017 52.6512 41.0744 52.3135 40.4662C52.2683 40.3845 52.2231 40.3027 52.1766 40.2185C52.0811 40.0466 51.9848 39.8753 51.8876 39.7044C51.74 39.4444 51.5961 39.1826 51.4524 38.9204C51.3588 38.7529 51.2649 38.5856 51.1709 38.4184C51.0438 38.1922 51.0438 38.1922 50.9142 37.9615C50.6269 37.5423 50.3609 37.2796 49.9377 37C49.5049 37 49.3728 37.0476 49.0038 37.2434ZM13.4812 40.3904C12.4123 41.5426 12.166 42.7856 12.2079 44.3158C12.3281 45.9056 13.1917 46.9187 14.3678 47.9386C16.4916 49.5084 19.5584 49.7316 22.1021 49.4717C22.828 49.3509 23.2149 49.16 23.7814 48.6719C23.7035 48.5294 23.6255 48.3869 23.5452 48.2401C23.4423 48.0501 23.3394 47.86 23.2365 47.6699C23.1852 47.5764 23.1339 47.4829 23.081 47.3865C22.8452 46.949 22.6597 46.5748 22.5317 46.0907C22.4082 45.6868 22.4082 45.6868 22.011 45.5282C21.8556 45.4895 21.7003 45.4509 21.5402 45.4111C21.3655 45.3673 21.1907 45.3234 21.0107 45.2782C20.2218 45.1095 19.4223 44.9923 18.622 44.8928C18.5128 44.878 18.4035 44.8633 18.291 44.8481C18.1938 44.8362 18.0966 44.8243 17.9965 44.8121C17.6689 44.7149 17.5267 44.5752 17.3127 44.3125C17.2517 44.0401 17.2517 44.0401 17.2511 43.75C17.2484 43.6543 17.2457 43.5586 17.2429 43.46C17.3127 43.1875 17.3127 43.1875 17.5439 42.9409C18.6889 42.3352 20.649 43.062 21.8495 43.3507C22.354 43.4842 22.354 43.4842 22.797 43.4688C22.959 43.2466 22.959 43.2466 23.0959 42.959C23.5048 42.2518 24.0694 41.9005 24.7658 41.5C23.3102 39.8102 20.3977 38.947 18.2531 38.6963C16.4132 38.6132 14.8348 39.1325 13.4812 40.3904ZM31.0148 40.4717C30.915 40.527 30.8152 40.5824 30.7124 40.6394C30.4916 40.7624 30.2714 40.8866 30.0518 41.0117C29.6552 41.2372 29.2566 41.4588 28.8576 41.6802C28.5717 41.8397 28.2859 41.9994 28.0002 42.1592C27.8659 42.2343 27.7317 42.3094 27.5934 42.3867C25.8031 43.2634 25.8031 43.2634 24.6252 44.7344C24.5556 45.5395 24.7161 45.9993 25.1173 46.6944C25.2087 46.8551 25.3001 47.0159 25.3942 47.1816C25.4653 47.3021 25.5363 47.4227 25.6095 47.5469C26.1728 47.463 26.584 47.2849 27.0784 47.0053C27.2281 46.9213 27.3778 46.8374 27.532 46.7509C27.7724 46.6141 27.7724 46.6141 28.0177 46.4746C28.1856 46.3801 28.3534 46.2856 28.5214 46.1912C28.7831 46.0441 29.0447 45.8969 29.3062 45.7493C29.924 45.4005 30.5437 45.0553 31.1648 44.7124C31.25 44.6653 31.3353 44.6182 31.4231 44.5697C31.8319 44.3437 32.2409 44.118 32.6499 43.8925C33.4589 43.4443 34.2527 42.9835 35.0314 42.4844C34.7932 41.5553 34.2977 40.7148 33.5724 40.085C32.6064 39.74 31.8684 39.9775 31.0148 40.4717ZM35.2814 44.8454C35.1289 44.9305 34.9765 45.0156 34.8194 45.1033C34.6528 45.1971 34.4861 45.2909 34.3195 45.3848C34.1486 45.4805 33.9776 45.5762 33.8067 45.6718C33.453 45.8697 33.0995 46.068 32.7461 46.2666C32.2461 46.5475 31.7453 46.827 31.2444 47.1063C30.9394 47.2766 30.6343 47.4469 30.3293 47.6172C30.1907 47.6945 30.0521 47.7719 29.9093 47.8516C29.5066 48.077 29.1048 48.3037 28.7033 48.5313C28.5477 48.619 28.3922 48.7067 28.2319 48.7971C28.0784 48.8849 27.9249 48.9726 27.7667 49.063C27.5562 49.1828 27.5562 49.1828 27.3415 49.305C27.0007 49.4863 27.0007 49.4863 26.8752 49.7969C27.0592 50.2059 27.0592 50.2059 27.3289 50.672C27.3774 50.7591 27.4258 50.8462 27.4758 50.9359C27.6319 51.216 27.7897 51.4952 27.9474 51.7744C28.0506 51.9589 28.1537 52.1433 28.2567 52.3279C28.4552 52.6832 28.6543 53.0381 28.8539 53.3928C29.1809 53.9742 29.5052 54.5571 29.8283 55.1406C31.0544 54.5553 32.2329 53.8998 33.4128 53.2273C34.1987 52.7797 34.9866 52.3366 35.779 51.9008C35.8648 51.8535 35.9507 51.8062 36.0391 51.7575C36.4587 51.5263 36.8787 51.2957 37.2993 51.0661C37.5281 50.9401 37.5281 50.9401 37.7615 50.8115C37.8963 50.7377 38.0311 50.6639 38.17 50.5879C38.5589 50.3522 38.9017 50.0883 39.2502 49.7969C38.9882 49.3069 38.7258 48.8171 38.4631 48.3275C38.3311 48.0813 38.1994 47.835 38.0678 47.5886C37.6336 46.78 37.1941 45.9745 36.7414 45.176C36.6628 45.0369 36.5841 44.8977 36.5031 44.7543C36.4351 44.6549 36.3671 44.5555 36.297 44.4531C35.8858 44.4531 35.6393 44.6446 35.2814 44.8454ZM24.0237 51.107C23.8356 51.2144 23.8356 51.2144 23.6437 51.3239C23.5064 51.403 23.3691 51.482 23.2277 51.5635C22.9313 51.7326 22.6349 51.9016 22.3384 52.0705C22.1828 52.1592 22.0272 52.2479 21.8668 52.3393C21.0899 52.7801 20.3088 53.2134 19.5275 53.6465C19.3714 53.7332 19.2154 53.8199 19.0546 53.9092C18.3016 54.3274 17.548 54.7444 16.7929 55.1588C16.4412 55.3519 16.0898 55.5455 15.7385 55.7392C15.4896 55.8761 15.2404 56.0122 14.9911 56.1483C14.8407 56.2312 14.6903 56.3142 14.5353 56.3997C14.4026 56.4724 14.2699 56.5451 14.1332 56.6201C13.8267 56.8098 13.6004 56.97 13.3752 57.25C13.2004 58.2268 13.6807 58.8868 14.175 59.7022C14.2869 59.8926 14.2869 59.8926 14.401 60.087C14.5487 60.3373 14.6985 60.5864 14.8503 60.8342C14.9867 61.0611 15.1173 61.2916 15.2404 61.526C15.5147 62.0297 15.6631 62.2661 16.1964 62.507C17.0553 62.4235 17.6971 62.0161 18.4377 61.5918C18.5994 61.5019 18.7611 61.412 18.9277 61.3193C19.4224 61.0441 19.9144 60.7643 20.4064 60.4844C20.6815 60.3295 20.9567 60.1748 21.232 60.0202C21.7551 59.7259 22.2771 59.43 22.7987 59.1331C23.9323 58.489 25.0739 57.8591 26.2151 57.2286C26.445 57.1014 26.445 57.1014 26.6796 56.9715C26.8159 56.8962 26.9522 56.821 27.0926 56.7434C27.3543 56.5944 27.6089 56.4327 27.8595 56.2656C27.6573 55.7318 27.4151 55.2362 27.1449 54.7336C27.0601 54.576 26.9754 54.4184 26.8881 54.256C26.822 54.1338 26.822 54.1338 26.7546 54.0092C26.6216 53.7632 26.4895 53.5169 26.3574 53.2705C25.6757 51.9996 25.6757 51.9996 24.9064 50.7813C24.532 50.7813 24.3485 50.9202 24.0237 51.107ZM32.1954 56.2846C31.5083 56.737 30.785 57.1245 30.0656 57.5225C29.8111 57.667 29.5567 57.8118 29.3026 57.957C28.7854 58.2508 28.2654 58.5387 27.743 58.823C27.5376 58.9348 27.5376 58.9348 27.3282 59.0489C27.2251 59.1049 27.122 59.161 27.0158 59.2188C27.0026 61.6611 26.9927 64.1034 26.9866 66.5458C26.9837 67.6799 26.9798 68.8139 26.9734 69.9479C26.9677 70.9365 26.9641 71.925 26.9629 72.9135C26.9621 73.4369 26.9604 73.9602 26.9563 74.4835C26.9518 75.068 26.9517 75.6524 26.9519 76.2369C26.9499 76.4101 26.9479 76.5833 26.9458 76.7617C26.9487 77.9496 26.9487 77.9496 27.5783 78.9063C28.0808 79.3006 28.6911 79.2251 29.3019 79.2194C29.4769 79.2195 29.4769 79.2195 29.6554 79.2196C30.0405 79.2194 30.4254 79.2172 30.8105 79.215C31.0777 79.2145 31.3448 79.2141 31.612 79.2138C32.3148 79.2127 33.0176 79.2099 33.7204 79.2068C34.4378 79.2039 35.1551 79.2027 35.8724 79.2012C37.2796 79.1982 38.6867 79.1934 40.0939 79.1875C40.0941 79.0528 40.0943 78.9181 40.0945 78.7793C40.0969 77.5108 40.1029 76.2424 40.1125 74.9739C40.1173 74.3218 40.1208 73.6697 40.1214 73.0175C40.122 72.3883 40.126 71.7592 40.1324 71.1301C40.1342 70.8898 40.1348 70.6496 40.1342 70.4093C40.1335 70.0732 40.1371 69.7374 40.1418 69.4013C40.1406 69.3015 40.1394 69.2018 40.1381 69.099C40.1446 68.8212 40.1446 68.8212 40.2345 68.3594C40.6547 68.0051 40.8347 67.9315 41.3859 67.9639C41.7814 68.0781 41.7814 68.0781 42.0627 68.3594C42.2486 68.869 42.2257 69.3909 42.2322 69.9281C42.2336 70.0283 42.2349 70.1285 42.2364 70.2318C42.2408 70.562 42.2443 70.8922 42.2478 71.2224C42.2507 71.4518 42.2536 71.6811 42.2566 71.9105C42.2644 72.5134 42.2713 73.1163 42.2781 73.7193C42.2864 74.4431 42.2957 75.1669 42.3049 75.8907C42.3187 76.9896 42.3312 78.0886 42.3439 79.1875C44.8963 79.1875 47.4486 79.1875 50.0783 79.1875C50.0783 71.1128 50.0783 63.0381 50.0783 54.7188C47.5259 54.7188 44.9736 54.7188 42.3439 54.7188C42.3336 55.7115 42.3336 55.7115 42.323 56.7243C42.3181 57.1441 42.313 57.5639 42.3077 57.9836C42.2992 58.6496 42.291 59.3156 42.2846 59.9816C42.2794 60.5187 42.2729 61.0557 42.2654 61.5927C42.2628 61.7974 42.2607 62.0021 42.2591 62.2068C42.2567 62.494 42.2526 62.7811 42.2481 63.0682C42.2463 63.2315 42.2444 63.3948 42.2424 63.5631C42.2028 64.0053 42.1289 64.3115 41.922 64.7031C41.5002 64.9844 41.5002 64.9844 40.9992 64.9492C40.5158 64.8438 40.5158 64.8438 40.2345 64.5625C40.1954 64.155 40.1954 64.155 40.1897 63.627C40.1883 63.5309 40.1869 63.4349 40.1854 63.3359C40.1811 63.0178 40.1787 62.6998 40.1763 62.3817C40.1737 62.1614 40.1709 61.9411 40.1681 61.7208C40.1608 61.1406 40.1553 60.5603 40.15 59.98C40.1444 59.3881 40.1372 58.7961 40.1302 58.2042C40.1165 57.0424 40.1047 55.8806 40.0939 54.7188C39.4258 54.6987 38.7579 54.6844 38.0896 54.6748C37.8631 54.6709 37.6366 54.6654 37.4101 54.6584C35.3167 54.5954 33.9428 55.1034 32.1954 56.2846ZM52.3283 54.7188C52.3283 62.7935 52.3283 70.8681 52.3283 79.1875C58.9572 80.0624 58.9572 80.0624 64.9845 78.7656C65.3822 78.1531 65.459 77.6747 65.4581 76.9521C65.4585 76.858 65.459 76.7639 65.4595 76.6669C65.4605 76.3534 65.4585 76.0399 65.4565 75.7264C65.4566 75.5009 65.4569 75.2754 65.4574 75.0499C65.4581 74.4389 65.4562 73.828 65.4538 73.217C65.4517 72.5777 65.4519 71.9384 65.4518 71.2991C65.4512 70.2262 65.4491 69.1533 65.446 68.0804C65.4419 66.702 65.4404 65.3237 65.4398 63.9453C65.4393 62.7611 65.4375 61.5768 65.4356 60.3926C65.435 60.0114 65.4346 59.6302 65.4342 59.249C65.4335 58.6511 65.4321 58.0532 65.43 57.4553C65.4294 57.2355 65.429 57.0156 65.4289 56.7958C65.4286 56.4966 65.4275 56.1975 65.4262 55.8984C65.4255 55.6468 65.4255 55.6468 65.4249 55.3902C65.433 55.0059 65.4331 55.0059 65.2658 54.7188C60.9964 54.7188 56.727 54.7188 52.3283 54.7188Z" fill="white"/>
<path d="M75.3906 36.4375C76.0936 37.1586 76.5455 38.0318 77.0138 38.9168C77.3471 39.4979 77.5945 39.8577 78.2421 40.0794C78.4624 40.1352 78.6839 40.1868 78.9062 40.2343C79.1255 40.2921 79.3447 40.3505 79.5637 40.4096C79.8921 40.4945 80.2205 40.5783 80.55 40.6587C81.1709 40.8217 81.6115 40.9534 82 41.5C82.1522 42.026 82.1122 42.5438 81.8643 43.0337C81.5293 43.4919 81.1639 43.8833 80.7508 44.2735C80.1099 44.9054 79.5755 45.437 79.5412 46.3762C79.5606 46.9513 79.6281 47.5184 79.7094 48.0876C79.8135 48.8649 79.8729 49.6363 79.5742 50.3681C79.2971 50.6749 79.166 50.8136 78.7656 50.9218C77.6883 50.8595 76.8238 50.4708 75.8471 50.0369C75.01 49.6814 74.544 49.5774 73.6746 49.9183C73.1892 50.118 72.7082 50.3265 72.2293 50.5412C71.4285 50.8802 70.8951 51.0285 70.0468 50.7812C69.5925 50.397 69.4964 50.1771 69.4245 49.5865C69.4297 49.4035 69.435 49.2206 69.4404 49.0322C69.4416 48.9336 69.4429 48.8351 69.4442 48.7335C69.4539 48.2451 69.4911 47.7819 69.5623 47.2975C69.7071 46.3357 69.7071 46.3357 69.392 45.4424C69.0656 45.0439 68.7219 44.6783 68.3593 44.3125C67.0399 42.8394 67.0399 42.8394 67.0937 41.7812C67.2255 41.3857 67.2255 41.3857 67.5156 41.0781C68.1173 40.8157 68.668 40.6398 69.3162 40.5403C70.7867 40.3277 70.7867 40.3277 71.9189 39.4466C72.2288 38.9728 72.4851 38.475 72.7291 37.9646C72.8991 37.6233 73.1052 37.322 73.3339 37.0175C73.393 36.9367 73.4521 36.8558 73.513 36.7726C74.0322 36.2414 74.7117 36.1543 75.3906 36.4375ZM74.5468 39.3906C74.4459 39.5554 74.3512 39.724 74.259 39.8938C73.1269 41.8792 73.1269 41.8792 72.0595 42.1943C71.765 42.2516 71.469 42.3021 71.1718 42.3437C70.9456 42.3998 70.7199 42.4579 70.4951 42.5195C70.3472 42.5543 70.1992 42.5891 70.0468 42.625C70.098 42.6931 70.1491 42.7613 70.2017 42.8315C70.351 43.0305 70.4994 43.2302 70.6472 43.4303C70.8019 43.6335 70.9623 43.8327 71.1295 44.0257C71.9896 45.0461 71.9055 45.999 71.8134 47.2832C71.7883 47.5587 71.7624 47.8341 71.7343 48.1093C72.2291 48.0263 72.6344 47.8903 73.0878 47.6787C74.2451 47.213 75.1697 47.2782 76.3134 47.7578C76.4528 47.823 76.5922 47.8883 76.7359 47.9555C77.0583 48.1286 77.0583 48.1286 77.3593 48.1093C77.3564 48.03 77.3534 47.9507 77.3504 47.869C77.3386 47.5038 77.3314 47.1387 77.3242 46.7734C77.3171 46.5863 77.3171 46.5863 77.3099 46.3955C77.2918 45.1626 77.6665 44.3741 78.5195 43.4863C78.9267 43.1164 78.9267 43.1164 79.0468 42.625C78.8723 42.5824 78.6977 42.5398 78.5178 42.4959C78.2869 42.4365 78.056 42.377 77.8252 42.3173C77.7103 42.2897 77.5955 42.2621 77.4772 42.2336C76.4109 41.953 75.9256 41.4591 75.3576 40.5071C75.3105 40.4258 75.2634 40.3445 75.2148 40.2607C75.0429 39.9677 74.8679 39.6785 74.6875 39.3906C74.6411 39.3906 74.5946 39.3906 74.5468 39.3906Z" fill="white"/>
<path d="M54.5778 12.1093C55.1966 12.6303 55.5943 13.255 56.0104 13.9375C56.1028 14.0848 56.1028 14.0848 56.1969 14.2352C56.4515 14.6471 56.671 15.0152 56.8289 15.475C56.9407 15.7934 56.9407 15.7934 57.2601 15.876C57.3814 15.8889 57.5027 15.9017 57.6276 15.915C58.3039 16.0106 58.9615 16.1406 59.6227 16.3105C59.8832 16.3752 59.8832 16.3752 60.149 16.4413C60.6491 16.618 60.9512 16.8008 61.3278 17.1718C61.5062 17.7257 61.5761 18.0451 61.3465 18.5819C61.0131 19.1116 60.628 19.5642 60.1874 20.0063C59.2854 20.8951 59.2854 20.8951 58.8597 22.0476C58.9035 22.5864 58.9869 23.1078 59.0778 23.6406C59.112 24.0451 59.124 24.4477 59.1306 24.8535C59.1374 25.0351 59.1443 25.2168 59.1514 25.4039C59.0778 25.8906 59.0778 25.8906 58.8021 26.307C58.3068 26.6393 58.0392 26.6963 57.4542 26.6636C56.9393 26.5594 56.5222 26.3258 56.0619 26.0793C55.0672 25.5578 54.2535 25.1864 53.1392 25.5259C52.5752 25.7416 52.0417 26.0002 51.5033 26.2724C50.844 26.5983 50.2467 26.7498 49.5153 26.5937C49.0398 26.2346 48.8547 26.0292 48.7655 25.4435C48.7547 24.8111 48.8117 24.1982 48.9006 23.573C49.0976 22.2272 49.0976 22.2272 48.6474 20.9923C48.2702 20.5245 47.8424 20.1153 47.4059 19.7031C46.7858 19.028 46.469 18.5505 46.4639 17.6184C46.6172 17.1414 46.8416 16.8617 47.2653 16.6093C47.6878 16.4932 48.1105 16.4178 48.5418 16.3404C50.2372 16.0378 50.2372 16.0378 51.5077 14.9608C51.8727 14.3701 52.1554 13.7491 52.4424 13.118C52.9354 12.2144 53.5962 11.9535 54.5778 12.1093ZM53.8747 15.2031C53.7295 15.46 53.5846 15.717 53.441 15.9748C52.5418 17.5507 52.5418 17.5507 51.695 17.8486C51.4386 17.9104 51.1806 17.9661 50.9216 18.0156C50.6543 18.0954 50.3876 18.1773 50.1218 18.2617C49.9198 18.3208 49.7177 18.3795 49.5153 18.4375C49.925 19.0765 50.3763 19.6676 50.8529 20.2585C51.1894 20.7222 51.2199 21.1004 51.2166 21.6559C51.2161 21.7878 51.2156 21.9197 51.2152 22.0555C51.214 22.1929 51.2128 22.3302 51.2116 22.4717C51.211 22.6106 51.2103 22.7495 51.2097 22.8927C51.208 23.2358 51.2057 23.5788 51.2028 23.9218C51.3607 23.8593 51.5186 23.7968 51.6813 23.7323C53.2805 23.1185 54.1525 22.9115 55.7643 23.5879C55.9063 23.6535 56.0482 23.7191 56.1945 23.7867C56.3107 23.8313 56.4269 23.8759 56.5466 23.9218C56.6394 23.8754 56.7322 23.829 56.8278 23.7812C56.8144 23.6201 56.801 23.4589 56.7872 23.2929C56.7713 23.0777 56.7556 22.8626 56.7399 22.6474C56.7309 22.5417 56.7218 22.4359 56.7125 22.3269C56.6505 21.4327 56.7255 20.7373 57.2728 19.9915C57.387 19.8644 57.5012 19.7373 57.6188 19.6064C58.1532 19.0466 58.1532 19.0466 58.2341 18.2968C58.0611 18.2591 57.8882 18.2214 57.71 18.1826C55.6352 17.6945 55.6352 17.6945 55.1755 17.0664C55.0649 16.87 54.9596 16.6705 54.8591 16.4687C54.7063 16.2327 54.551 15.9983 54.3932 15.7656C54.2897 15.6046 54.2897 15.6046 54.184 15.4404C54.1283 15.3621 54.0727 15.2838 54.0153 15.2031C53.9689 15.2031 53.9225 15.2031 53.8747 15.2031Z" fill="white"/>
<path d="M73.8516 11.4771C75.0638 12.4112 75.8573 13.5218 76.0934 15.0625C76.2169 16.7416 75.9123 18.1105 74.8278 19.4218C73.8101 20.5008 72.7004 21.1685 71.205 21.2785C69.3645 21.308 68.07 20.764 66.7067 19.5361C65.6413 18.4236 65.3593 16.988 65.3757 15.5025C65.4822 13.9508 66.2285 12.7253 67.3301 11.6633C69.202 10.186 71.8975 10.1467 73.8516 11.4771ZM68.2854 13.9441C67.7171 14.6958 67.5273 15.54 67.6559 16.4687C67.8511 17.3851 68.3185 18.0159 69.0621 18.5781C69.872 19.0349 70.6949 19.1315 71.5983 18.939C72.4731 18.6676 73.1261 18.1175 73.5764 17.3191C73.9351 16.4677 73.9671 15.653 73.694 14.7724C73.3418 13.9364 72.7195 13.3141 71.8834 12.9619C70.4975 12.532 69.2645 12.88 68.2854 13.9441Z" fill="white"/>
<path d="M61.8905 27.6304C62.3762 27.6465 62.6601 27.6713 63.077 27.9385C64.9637 30.8817 63.5024 38.2437 62.8199 41.4085C62.3078 43.6365 61.4203 47.2398 59.3576 48.5736C58.9068 48.7321 58.5503 48.6393 58.0936 48.5313C57.8212 48.3819 57.8212 48.3819 57.6717 48.1094C57.5488 47.4837 57.5549 47.1725 57.8942 46.6263C58.0924 46.3641 58.2922 46.1033 58.4935 45.8435C60.0894 43.707 60.5864 40.8556 60.9061 38.2657C60.9188 38.1714 60.9314 38.0772 60.9444 37.9801C61.0714 36.9657 61.1017 35.9468 61.1346 34.9258C61.138 34.8288 61.1414 34.7318 61.1449 34.6318C61.1825 33.5265 61.1961 32.4278 61.1451 31.3229C61.1365 31.1378 61.128 30.9528 61.1192 30.7622C61.1005 30.4098 61.0791 30.0576 61.0545 29.7056C61.0456 29.5468 61.0367 29.388 61.0275 29.2245C61.0178 29.086 61.0081 28.9474 60.998 28.8047C61.0684 28.252 61.3414 27.803 61.8905 27.6304Z" fill="white"/>
<path d="M81.8422 20.4151C82.0956 20.8515 82.1179 21.3306 82.0004 21.8126C81.5513 22.4326 80.97 22.5586 80.2689 22.7618C76.6198 23.9088 73.8097 26.3406 71.9942 29.7075C71.4232 30.8236 70.9386 31.9504 70.5938 33.1581C70.4588 33.5115 70.3511 33.6827 70.0473 33.9063C69.098 34.0118 69.098 34.0118 68.5707 33.6954C68.2796 33.2102 68.3068 32.7662 68.3598 32.2188C68.4655 31.8429 68.5751 31.5054 68.7201 31.1465C68.758 31.0498 68.7959 30.953 68.835 30.8533C70.6411 26.3417 73.7285 22.9093 78.1755 20.9314C80.792 19.82 80.792 19.82 81.8422 20.4151Z" fill="white"/>
</g>
<defs>
<clipPath id="clip0_5656_2299">
<rect x="10" y="10" width="72" height="72" rx="10" fill="white"/>
</clipPath>
</defs>
</svg>
