<svg width="92" height="92" viewBox="0 0 92 92" fill="none" xmlns="http://www.w3.org/2000/svg">
<rect width="92" height="92" rx="15" fill="#BEA7E3"/>
<path d="M30.2003 16.7237C32.4488 18.4395 33.6298 20.6239 34.1872 23.3594C34.1872 23.4522 34.1872 23.5451 34.1872 23.6407C34.2634 23.6405 34.3396 23.6403 34.4181 23.64C38.9428 23.6274 43.4674 23.6178 47.9921 23.612C48.5363 23.6113 49.0805 23.6105 49.6247 23.6098C49.733 23.6096 49.8414 23.6095 49.953 23.6093C51.7033 23.6069 53.4537 23.6025 55.204 23.5973C57.0023 23.592 58.8005 23.5889 60.5987 23.5878C61.7068 23.587 62.8149 23.5846 63.9231 23.58C64.7751 23.5766 65.6272 23.5763 66.4792 23.5771C66.8271 23.5769 67.1749 23.5758 67.5227 23.5736C70.5212 23.5559 73.0362 23.7633 75.3552 25.8819C76.8861 27.4838 77.5434 29.445 77.5373 31.624C77.5379 31.7902 77.5386 31.9564 77.5392 32.1276C77.5407 32.5871 77.5409 33.0466 77.5406 33.5061C77.5405 34.0024 77.5421 34.4987 77.5434 34.9949C77.5457 35.9666 77.5465 36.9384 77.5467 37.9101C77.5468 38.7003 77.5474 39.4905 77.5483 40.2808C77.5508 42.5232 77.5521 44.7655 77.5518 47.0079C77.5518 47.1287 77.5518 47.2495 77.5518 47.374C77.5518 47.495 77.5518 47.6159 77.5518 47.7406C77.5517 49.6999 77.5544 51.6593 77.5583 53.6187C77.5624 55.6324 77.5643 57.6461 77.5641 59.6598C77.564 60.7896 77.5647 61.9194 77.5678 63.0492C77.5703 64.0113 77.5709 64.9735 77.569 65.9356C77.5681 66.426 77.5681 66.9163 77.5705 67.4067C77.5727 67.9397 77.5714 68.4725 77.5692 69.0055C77.5714 69.2352 77.5714 69.2352 77.5736 69.4695C77.5556 71.4827 76.7535 73.3368 75.3727 74.793C72.7658 77.2526 69.7424 77.1625 66.3842 77.1497C65.8103 77.1481 65.2364 77.1498 64.6625 77.151C63.541 77.153 62.4196 77.1519 61.2982 77.1498C59.99 77.1474 58.6819 77.1479 57.3737 77.1484C55.0384 77.1493 52.7031 77.1473 50.3678 77.1438C48.1059 77.1404 45.8439 77.1394 43.582 77.1409C41.1139 77.1425 38.6459 77.1428 36.1778 77.1408C35.9143 77.1405 35.6507 77.1403 35.3872 77.1401C35.1927 77.14 35.1927 77.1399 34.9943 77.1398C34.0842 77.1391 33.174 77.1394 32.2638 77.14C31.1536 77.1407 30.0433 77.1398 28.9331 77.137C28.3674 77.1357 27.8018 77.1349 27.2362 77.136C26.7171 77.137 26.1979 77.1361 25.6788 77.1336C25.405 77.1327 25.1313 77.1339 24.8575 77.1353C22.3729 77.1176 20.1305 76.5231 18.1559 74.9688C18.049 74.8867 17.942 74.8046 17.8319 74.72C16.0188 73.23 14.9256 71.0634 14.4997 68.7813C14.4445 68.1431 14.442 67.5094 14.4452 66.8691C14.4444 66.6838 14.4437 66.4985 14.4429 66.3075C14.4409 65.7978 14.4414 65.2881 14.4425 64.7783C14.4432 64.2267 14.4414 63.6751 14.44 63.1236C14.4375 62.0447 14.4374 60.9658 14.4382 59.887C14.4387 59.0094 14.4385 58.1318 14.4378 57.2542C14.4377 57.1291 14.4376 57.0039 14.4375 56.8749C14.4372 56.6205 14.437 56.3662 14.4368 56.1118C14.4349 53.7293 14.4356 51.3468 14.4372 48.9643C14.4386 46.7885 14.4368 44.6127 14.4335 42.4369C14.43 40.1987 14.4287 37.9606 14.4296 35.7225C14.4301 34.4675 14.4298 33.2126 14.4273 31.9577C14.4253 30.8892 14.4252 29.8207 14.4276 28.7523C14.4288 28.208 14.4291 27.6637 14.427 27.1195C14.4132 23.3766 14.7473 20.421 17.4177 17.5762C20.7664 14.3432 26.4315 14.1445 30.2003 16.7237ZM18.7184 19.7032C16.5898 22.2272 16.7079 25.2953 16.7178 28.4087C16.7178 28.7609 16.7178 29.1131 16.7176 29.4653C16.7176 30.22 16.7184 30.9747 16.72 31.7294C16.7223 32.8206 16.723 33.9118 16.7233 35.0029C16.7239 36.7738 16.7258 38.5447 16.7285 40.3155C16.7311 42.0345 16.7331 43.7535 16.7342 45.4725C16.7343 45.5787 16.7344 45.6849 16.7345 45.7942C16.7348 46.327 16.7352 46.8597 16.7355 47.3924C16.7385 51.8033 16.7434 56.2142 16.7497 60.6251C16.9073 60.49 17.065 60.355 17.2226 60.2199C17.3104 60.1447 17.3982 60.0695 17.4886 59.9921C17.6738 59.833 17.8585 59.6733 18.0428 59.5132C20.0048 57.8928 22.5371 57.2505 25.0466 57.3907C27.4465 57.6295 29.4807 58.4076 31.2346 60.0829C31.4966 60.3509 31.4966 60.3509 31.7966 60.4844C31.8095 55.8243 31.8194 51.1641 31.8253 46.5039C31.826 45.953 31.8267 45.4021 31.8275 44.8512C31.8277 44.6867 31.8277 44.6867 31.8279 44.5189C31.8304 42.7461 31.8348 40.9733 31.84 39.2004C31.8452 37.3797 31.8484 35.5589 31.8495 33.7381C31.8503 32.6157 31.8527 31.4933 31.8573 30.371C31.8606 29.5085 31.861 28.6461 31.8602 27.7836C31.8604 27.4311 31.8615 27.0786 31.8636 26.7262C31.8804 23.847 31.6323 21.69 29.6872 19.4219C27.745 17.7352 25.7682 17.3358 23.2823 17.428C21.5799 17.5523 19.8882 18.4726 18.7184 19.7032ZM34.1872 26.0313C34.1871 26.1211 34.1869 26.2109 34.1868 26.3035C34.1786 31.6301 34.1682 36.9568 34.155 42.2834C34.1534 42.9234 34.1518 43.5634 34.1503 44.2034C34.15 44.3308 34.1497 44.4582 34.1494 44.5895C34.1444 46.6507 34.1409 48.712 34.1379 50.7733C34.1349 52.8893 34.1302 55.0054 34.1241 57.1214C34.1204 58.4264 34.1179 59.7315 34.117 61.0365C34.1162 61.9322 34.1139 62.8279 34.1105 63.7235C34.1085 64.2398 34.1072 64.7561 34.1077 65.2724C34.1083 65.8334 34.1056 66.3944 34.1026 66.9554C34.1033 67.1168 34.104 67.2783 34.1047 67.4446C34.0918 68.9225 33.7974 70.2875 33.1149 71.6026C33.067 71.697 33.019 71.7914 32.9695 71.8886C32.4075 72.9531 31.6652 73.8406 30.8122 74.6876C35.8402 74.6972 40.8683 74.7047 45.8963 74.7091C46.4902 74.7096 47.0841 74.7102 47.6779 74.7107C47.8553 74.7109 47.8553 74.7109 48.0362 74.7111C49.9494 74.7129 51.8627 74.7162 53.7759 74.7201C55.7397 74.7241 57.7035 74.7264 59.6673 74.7272C60.8786 74.7278 62.09 74.7297 63.3013 74.7331C64.1325 74.7353 64.9636 74.736 65.7948 74.7354C66.274 74.7352 66.7532 74.7356 67.2324 74.7378C67.7529 74.7399 68.2733 74.7394 68.7938 74.7383C68.944 74.7395 69.0942 74.7407 69.249 74.742C70.8792 74.7323 72.3376 74.2753 73.5633 73.1665C75.0549 71.5684 75.2948 69.6906 75.2854 67.5808C75.2859 67.4267 75.2863 67.2725 75.2867 67.1137C75.2879 66.6021 75.287 66.0904 75.2861 65.5788C75.2865 65.21 75.287 64.8412 75.2876 64.4724C75.2888 63.5775 75.2886 62.6827 75.2877 61.7879C75.2871 61.0602 75.287 60.3324 75.2873 59.6047C75.2874 59.4489 75.2874 59.4489 75.2875 59.2899C75.2876 59.0788 75.2876 58.8677 75.2877 58.6566C75.2885 56.6809 75.2876 54.7052 75.2861 52.7294C75.2849 51.037 75.2851 49.3446 75.2864 47.6521C75.2879 45.6831 75.2885 43.714 75.2876 41.745C75.2875 41.5347 75.2874 41.3245 75.2873 41.1142C75.2873 41.0107 75.2872 40.9073 75.2872 40.8007C75.287 40.0745 75.2874 39.3483 75.288 38.6221C75.2889 37.6433 75.2883 36.6645 75.2867 35.6857C75.2863 35.3272 75.2864 34.9687 75.287 34.6102C75.2878 34.1195 75.2868 33.6288 75.2854 33.138C75.286 32.9974 75.2867 32.8569 75.2873 32.712C75.2762 30.6888 74.904 28.9684 73.4941 27.4535C72.4661 26.5899 71.1654 26.0133 69.8153 26.014C69.6875 26.0137 69.5597 26.0134 69.4281 26.0132C69.2194 26.0138 69.2194 26.0138 69.0065 26.0144C68.8578 26.0143 68.709 26.0142 68.5557 26.014C68.0565 26.0138 67.5573 26.0146 67.0581 26.0153C66.7006 26.0154 66.343 26.0154 65.9855 26.0153C65.2153 26.0152 64.4451 26.0156 63.675 26.0164C62.5614 26.0176 61.4479 26.0179 60.3344 26.0181C58.5277 26.0184 56.721 26.0194 54.9144 26.0207C53.1595 26.022 51.4045 26.023 49.6496 26.0236C49.4873 26.0236 49.4873 26.0236 49.3218 26.0237C48.779 26.0239 48.2363 26.0241 47.6935 26.0242C43.1914 26.0257 38.6893 26.0282 34.1872 26.0313ZM18.6306 62.1978C17.1443 63.9602 16.7105 65.9277 16.8589 68.1875C17.0581 70.1714 18.1842 71.8929 19.7028 73.1407C21.508 74.3795 23.4083 74.976 25.5926 74.5914C27.7513 74.1219 29.4056 73.1582 30.6716 71.3126C31.7366 69.4002 32.1167 67.4106 31.6384 65.2481C31.0894 63.3307 30.0665 61.8141 28.4007 60.7053C25.0547 58.8626 21.2427 59.4071 18.6306 62.1978Z" fill="white"/>
<path d="M27.7188 62.5937C28.7606 63.4117 29.6056 64.6409 29.8281 65.9687C29.9438 67.7764 29.8443 69.3217 28.6504 70.7813C27.6732 71.8501 26.5207 72.523 25.0551 72.6116C23.2386 72.6553 21.7957 72.4422 20.4062 71.1718C19.2424 70.0485 18.8125 68.6908 18.7188 67.0937C18.7759 65.5918 19.3474 64.1992 20.3711 63.0947C22.3509 61.2808 25.4877 61.0768 27.7188 62.5937ZM21.6719 65.4062C21.1851 66.1599 21.0181 66.9244 21.2061 67.8056C21.468 68.7042 22.003 69.407 22.7969 69.9062C23.6362 70.3163 24.4224 70.4497 25.3281 70.1874C26.2105 69.7884 26.8953 69.1947 27.3123 68.3093C27.5855 67.4979 27.5737 66.5808 27.2266 65.7929C26.7603 64.9922 26.0973 64.4189 25.2402 64.079C23.7309 63.8275 22.7032 64.2964 21.6719 65.4062Z" fill="white"/>
<path d="M63.9995 63.3496C64.582 63.471 64.7817 63.6567 65.1245 64.1406C65.2307 64.5731 65.1975 64.806 65.1245 65.2656C64.767 65.6862 64.5399 65.8059 63.9995 65.9072C63.4179 65.7982 63.219 65.6013 62.8745 65.125C62.7866 64.6328 62.7866 64.6328 62.8745 64.1406C63.2185 63.6651 63.422 63.4699 63.9995 63.3496Z" fill="white"/>
<path d="M54.9995 63.3496C55.582 63.471 55.7817 63.6567 56.1245 64.1406C56.2307 64.5731 56.1975 64.806 56.1245 65.2656C55.767 65.6862 55.5399 65.8059 54.9995 65.9072C54.4179 65.7982 54.219 65.6013 53.8745 65.125C53.7866 64.6328 53.7866 64.6328 53.8745 64.1406C54.2185 63.6651 54.422 63.4699 54.9995 63.3496Z" fill="white"/>
<path d="M45.9995 63.3496C46.582 63.471 46.7817 63.6567 47.1245 64.1406C47.2307 64.5731 47.1975 64.806 47.1245 65.2656C46.767 65.6862 46.5399 65.8059 45.9995 65.9072C45.4179 65.7982 45.219 65.6013 44.8745 65.125C44.7866 64.6328 44.7866 64.6328 44.8745 64.1406C45.2185 63.6651 45.422 63.4699 45.9995 63.3496Z" fill="white"/>
<path d="M63.9995 44.9277C64.5771 45.0481 64.7805 45.2433 65.1245 45.7188C65.2124 46.2109 65.2124 46.2109 65.1245 46.7031C64.7805 47.1786 64.5771 47.3738 63.9995 47.4941C63.422 47.3738 63.2185 47.1786 62.8745 46.7031C62.7866 46.2109 62.7866 46.2109 62.8745 45.7188C63.2185 45.2433 63.422 45.0481 63.9995 44.9277Z" fill="white"/>
<path d="M54.9995 44.9277C55.5771 45.0481 55.7805 45.2433 56.1245 45.7188C56.2124 46.2109 56.2124 46.2109 56.1245 46.7031C55.7805 47.1786 55.5771 47.3738 54.9995 47.4941C54.422 47.3738 54.2185 47.1786 53.8745 46.7031C53.7866 46.2109 53.7866 46.2109 53.8745 45.7188C54.2185 45.2433 54.422 45.0481 54.9995 44.9277Z" fill="white"/>
<path d="M45.9995 44.9277C46.5771 45.0481 46.7805 45.2433 47.1245 45.7188C47.2124 46.2109 47.2124 46.2109 47.1245 46.7031C46.7805 47.1786 46.5771 47.3738 45.9995 47.4941C45.422 47.3738 45.2185 47.1786 44.8745 46.7031C44.7866 46.2109 44.7866 46.2109 44.8745 45.7188C45.2185 45.2433 45.422 45.0481 45.9995 44.9277Z" fill="white"/>
<path d="M69.0629 67.9375C69.4145 68.1484 69.4145 68.1484 69.6254 68.5C69.7024 68.8915 69.705 69.2338 69.6254 69.625C69.3575 70.0119 69.1634 70.1478 68.7289 70.3193C68.2289 70.3312 67.9376 70.1649 67.516 69.9062C67.2905 69.4551 67.3087 68.9894 67.3754 68.5C67.775 67.8341 68.3491 67.7971 69.0629 67.9375Z" fill="white"/>
<path d="M60.0629 67.9375C60.4145 68.1484 60.4145 68.1484 60.6254 68.5C60.7024 68.8915 60.705 69.2338 60.6254 69.625C60.3575 70.0119 60.1634 70.1478 59.7289 70.3193C59.2289 70.3312 58.9376 70.1649 58.516 69.9062C58.2905 69.4551 58.3087 68.9894 58.3754 68.5C58.775 67.8341 59.3491 67.7971 60.0629 67.9375Z" fill="white"/>
<path d="M51.0629 67.9375C51.4145 68.1484 51.4145 68.1484 51.6254 68.5C51.7024 68.8915 51.705 69.2338 51.6254 69.625C51.3575 70.0119 51.1634 70.1478 50.7289 70.3193C50.2289 70.3312 49.9376 70.1649 49.516 69.9062C49.2905 69.4551 49.3087 68.9894 49.3754 68.5C49.775 67.8341 50.3491 67.7971 51.0629 67.9375Z" fill="white"/>
<path d="M42.0629 67.9375C42.4145 68.1484 42.4145 68.1484 42.6254 68.5C42.7024 68.8915 42.705 69.2338 42.6254 69.625C42.3575 70.0119 42.1634 70.1478 41.7289 70.3193C41.2289 70.3312 40.9376 70.1649 40.516 69.9062C40.2905 69.4551 40.3087 68.9894 40.3754 68.5C40.775 67.8341 41.3491 67.7971 42.0629 67.9375Z" fill="white"/>
<path d="M69.0629 58.7969C69.4145 59.0078 69.4145 59.0078 69.6254 59.3594C69.7024 59.7508 69.705 60.0931 69.6254 60.4844C69.3575 60.8713 69.1634 61.0072 68.7289 61.1787C68.2289 61.1906 67.9376 61.0243 67.516 60.7656C67.2905 60.3144 67.3087 59.8488 67.3754 59.3594C67.775 58.6934 68.3491 58.6564 69.0629 58.7969Z" fill="white"/>
<path d="M60.0629 58.7969C60.4145 59.0078 60.4145 59.0078 60.6254 59.3594C60.7024 59.7508 60.705 60.0931 60.6254 60.4844C60.3575 60.8713 60.1634 61.0072 59.7289 61.1787C59.2289 61.1906 58.9376 61.0243 58.516 60.7656C58.2905 60.3144 58.3087 59.8488 58.3754 59.3594C58.775 58.6934 59.3491 58.6564 60.0629 58.7969Z" fill="white"/>
<path d="M51.0629 58.7969C51.4145 59.0078 51.4145 59.0078 51.6254 59.3594C51.7024 59.7508 51.705 60.0931 51.6254 60.4844C51.3575 60.8713 51.1634 61.0072 50.7289 61.1787C50.2289 61.1906 49.9376 61.0243 49.516 60.7656C49.2905 60.3144 49.3087 59.8488 49.3754 59.3594C49.775 58.6934 50.3491 58.6564 51.0629 58.7969Z" fill="white"/>
<path d="M42.0629 58.7969C42.4145 59.0078 42.4145 59.0078 42.6254 59.3594C42.7024 59.7508 42.705 60.0931 42.6254 60.4844C42.3575 60.8713 42.1634 61.0072 41.7289 61.1787C41.2289 61.1906 40.9376 61.0243 40.516 60.7656C40.2905 60.3144 40.3087 59.8488 40.3754 59.3594C40.775 58.6934 41.3491 58.6564 42.0629 58.7969Z" fill="white"/>
<path d="M64.5629 54.2969C64.9145 54.5078 64.9145 54.5078 65.1254 54.8594C65.2024 55.2508 65.205 55.5931 65.1254 55.9844C64.8575 56.3713 64.6634 56.5072 64.2289 56.6787C63.7289 56.6906 63.4376 56.5243 63.016 56.2656C62.7905 55.8144 62.8087 55.3488 62.8754 54.8594C63.275 54.1934 63.8491 54.1564 64.5629 54.2969Z" fill="white"/>
<path d="M55.5629 54.2969C55.9145 54.5078 55.9145 54.5078 56.1254 54.8594C56.2024 55.2508 56.205 55.5931 56.1254 55.9844C55.8575 56.3713 55.6634 56.5072 55.2289 56.6787C54.7289 56.6906 54.4376 56.5243 54.016 56.2656C53.7905 55.8144 53.8087 55.3488 53.8754 54.8594C54.275 54.1934 54.8491 54.1564 55.5629 54.2969Z" fill="white"/>
<path d="M46.5629 54.2969C46.9145 54.5078 46.9145 54.5078 47.1254 54.8594C47.2024 55.2508 47.205 55.5931 47.1254 55.9844C46.8575 56.3713 46.6634 56.5072 46.2289 56.6787C45.7289 56.6906 45.4376 56.5243 45.016 56.2656C44.7905 55.8144 44.8087 55.3488 44.8754 54.8594C45.275 54.1934 45.8491 54.1564 46.5629 54.2969Z" fill="white"/>
<path d="M69.0629 49.6562C69.4145 49.8672 69.4145 49.8672 69.6254 50.2187C69.7024 50.6102 69.705 50.9525 69.6254 51.3437C69.3575 51.7307 69.1634 51.8666 68.7289 52.0381C68.2289 52.05 67.9376 51.8837 67.516 51.625C67.2905 51.1738 67.3087 50.7082 67.3754 50.2187C67.775 49.5528 68.3491 49.5158 69.0629 49.6562Z" fill="white"/>
<path d="M60.0629 49.6562C60.4145 49.8672 60.4145 49.8672 60.6254 50.2187C60.7024 50.6102 60.705 50.9525 60.6254 51.3437C60.3575 51.7307 60.1634 51.8666 59.7289 52.0381C59.2289 52.05 58.9376 51.8837 58.516 51.625C58.2905 51.1738 58.3087 50.7082 58.3754 50.2187C58.775 49.5528 59.3491 49.5158 60.0629 49.6562Z" fill="white"/>
<path d="M51.0629 49.6562C51.4145 49.8672 51.4145 49.8672 51.6254 50.2187C51.7024 50.6102 51.705 50.9525 51.6254 51.3437C51.3575 51.7307 51.1634 51.8666 50.7289 52.0381C50.2289 52.05 49.9376 51.8837 49.516 51.625C49.2905 51.1738 49.3087 50.7082 49.3754 50.2187C49.775 49.5528 50.3491 49.5158 51.0629 49.6562Z" fill="white"/>
<path d="M42.0629 49.6562C42.4145 49.8672 42.4145 49.8672 42.6254 50.2187C42.7024 50.6102 42.705 50.9525 42.6254 51.3437C42.3575 51.7307 42.1634 51.8666 41.7289 52.0381C41.2289 52.05 40.9376 51.8837 40.516 51.625C40.2905 51.1738 40.3087 50.7082 40.3754 50.2187C40.775 49.5528 41.3491 49.5158 42.0629 49.6562Z" fill="white"/>
<path d="M69.0622 40.5157C69.4137 40.7266 69.4137 40.7266 69.6247 41.0782C69.7359 41.6436 69.7121 42.0575 69.4137 42.5547C68.9165 42.8531 68.5026 42.8769 67.9372 42.7657C67.5856 42.5547 67.5856 42.5547 67.3747 42.2032C67.2634 41.6377 67.2873 41.2238 67.5856 40.7266C68.0828 40.4282 68.4967 40.4044 69.0622 40.5157Z" fill="white"/>
<path d="M60.0622 40.5157C60.4137 40.7266 60.4137 40.7266 60.6247 41.0782C60.7359 41.6436 60.7121 42.0575 60.4137 42.5547C59.9165 42.8531 59.5026 42.8769 58.9372 42.7657C58.5856 42.5547 58.5856 42.5547 58.3747 42.2032C58.2634 41.6377 58.2873 41.2238 58.5856 40.7266C59.0828 40.4282 59.4967 40.4044 60.0622 40.5157Z" fill="white"/>
<path d="M51.0622 40.5157C51.4137 40.7266 51.4137 40.7266 51.6247 41.0782C51.7359 41.6436 51.7121 42.0575 51.4137 42.5547C50.9165 42.8531 50.5026 42.8769 49.9372 42.7657C49.5856 42.5547 49.5856 42.5547 49.3747 42.2032C49.2634 41.6377 49.2873 41.2238 49.5856 40.7266C50.0828 40.4282 50.4967 40.4044 51.0622 40.5157Z" fill="white"/>
<path d="M42.0622 40.5157C42.4137 40.7266 42.4137 40.7266 42.6247 41.0782C42.7359 41.6436 42.7121 42.0575 42.4137 42.5547C41.9165 42.8531 41.5026 42.8769 40.9372 42.7657C40.5856 42.5547 40.5856 42.5547 40.3747 42.2032C40.2634 41.6377 40.2873 41.2238 40.5856 40.7266C41.0828 40.4282 41.4967 40.4044 42.0622 40.5157Z" fill="white"/>
<path d="M64.5622 35.875C64.9137 36.086 64.9137 36.086 65.1247 36.4375C65.2359 37.003 65.2121 37.4169 64.9137 37.9141C64.4165 38.2124 64.0026 38.2363 63.4372 38.125C63.0856 37.9141 63.0856 37.9141 62.8747 37.5625C62.7634 36.9971 62.7873 36.5832 63.0856 36.086C63.5828 35.7876 63.9967 35.7638 64.5622 35.875Z" fill="white"/>
<path d="M55.5622 35.875C55.9137 36.086 55.9137 36.086 56.1247 36.4375C56.2359 37.003 56.2121 37.4169 55.9137 37.9141C55.4165 38.2124 55.0026 38.2363 54.4372 38.125C54.0856 37.9141 54.0856 37.9141 53.8747 37.5625C53.7634 36.9971 53.7873 36.5832 54.0856 36.086C54.5828 35.7876 54.9967 35.7638 55.5622 35.875Z" fill="white"/>
<path d="M46.5622 35.875C46.9137 36.086 46.9137 36.086 47.1247 36.4375C47.2359 37.003 47.2121 37.4169 46.9137 37.9141C46.4165 38.2124 46.0026 38.2363 45.4372 38.125C45.0856 37.9141 45.0856 37.9141 44.8747 37.5625C44.7634 36.9971 44.7873 36.5832 45.0856 36.086C45.5828 35.7876 45.9967 35.7638 46.5622 35.875Z" fill="white"/>
<path d="M69.0622 31.375C69.4137 31.586 69.4137 31.586 69.6247 31.9375C69.7359 32.503 69.7121 32.9169 69.4137 33.4141C68.9165 33.7124 68.5026 33.7363 67.9372 33.625C67.5856 33.4141 67.5856 33.4141 67.3747 33.0625C67.2634 32.4971 67.2873 32.0832 67.5856 31.586C68.0828 31.2876 68.4967 31.2638 69.0622 31.375Z" fill="white"/>
<path d="M60.0622 31.375C60.4137 31.586 60.4137 31.586 60.6247 31.9375C60.7359 32.503 60.7121 32.9169 60.4137 33.4141C59.9165 33.7124 59.5026 33.7363 58.9372 33.625C58.5856 33.4141 58.5856 33.4141 58.3747 33.0625C58.2634 32.4971 58.2873 32.0832 58.5856 31.586C59.0828 31.2876 59.4967 31.2638 60.0622 31.375Z" fill="white"/>
<path d="M51.0622 31.375C51.4137 31.586 51.4137 31.586 51.6247 31.9375C51.7359 32.503 51.7121 32.9169 51.4137 33.4141C50.9165 33.7124 50.5026 33.7363 49.9372 33.625C49.5856 33.4141 49.5856 33.4141 49.3747 33.0625C49.2634 32.4971 49.2873 32.0832 49.5856 31.586C50.0828 31.2876 50.4967 31.2638 51.0622 31.375Z" fill="white"/>
<path d="M42.0622 31.375C42.4137 31.586 42.4137 31.586 42.6247 31.9375C42.7359 32.503 42.7121 32.9169 42.4137 33.4141C41.9165 33.7124 41.5026 33.7363 40.9372 33.625C40.5856 33.4141 40.5856 33.4141 40.3747 33.0625C40.2634 32.4971 40.2873 32.0832 40.5856 31.586C41.0828 31.2876 41.4967 31.2638 42.0622 31.375Z" fill="white"/>
</svg>
