<svg width="92" height="92" viewBox="0 0 92 92" fill="none" xmlns="http://www.w3.org/2000/svg">
<rect width="92" height="92" rx="15" fill="#BEA7E3"/>
<path d="M36.9121 33.5694C37.0073 33.5688 37.1024 33.5682 37.2004 33.5675C37.5182 33.5657 37.836 33.566 38.1538 33.5662C38.382 33.5653 38.6103 33.5644 38.8386 33.5633C39.458 33.5608 40.0775 33.5602 40.697 33.56C41.0842 33.5598 41.4715 33.5592 41.8587 33.5585C43.2104 33.5559 44.562 33.5547 45.9137 33.5549C47.1725 33.5551 48.4313 33.5521 49.6902 33.5477C50.7718 33.544 51.8535 33.5425 52.9352 33.5427C53.5808 33.5427 54.2264 33.542 54.8721 33.539C55.4796 33.5362 56.087 33.5362 56.6945 33.5383C56.9169 33.5386 57.1394 33.5379 57.3618 33.5362C58.6787 33.5268 59.6976 33.5385 60.733 34.4458C60.8088 34.5374 60.8845 34.6289 60.9626 34.7233C61.0405 34.8144 61.1185 34.9056 61.1988 34.9996C61.5943 35.5736 61.7185 36.0822 61.7237 36.774C61.7256 36.9284 61.7274 37.0827 61.7292 37.2417C61.7298 37.4097 61.7303 37.5777 61.7309 37.7507C61.7325 37.9287 61.7341 38.1067 61.7358 38.29C61.74 38.7773 61.7424 39.2645 61.7442 39.7518C61.7454 40.0566 61.7468 40.3614 61.7483 40.6662C61.7529 41.621 61.7563 42.5758 61.758 43.5306C61.76 44.6307 61.7662 45.7308 61.7759 46.8309C61.7832 47.6826 61.7867 48.5344 61.7874 49.3862C61.7878 49.8943 61.7899 50.4023 61.796 50.9104C61.8026 51.4777 61.8014 52.0446 61.7995 52.6119C61.8042 52.8626 61.8042 52.8626 61.8089 53.1183C61.7998 53.9222 61.755 54.4374 61.2188 55.0589C61.0488 55.2243 60.8759 55.3867 60.6989 55.5445C60.5988 55.6505 60.4987 55.7565 60.3956 55.8657C60.3112 55.9502 60.2268 56.0348 60.1398 56.1218C60.0423 56.2198 59.9447 56.3178 59.8442 56.4188C59.7425 56.5202 59.6408 56.6216 59.536 56.7261C59.4288 56.8334 59.3217 56.9408 59.2112 57.0513C58.9867 57.2759 58.7621 57.5003 58.5373 57.7245C58.1921 58.069 57.8476 58.4142 57.5033 58.7594C57.2844 58.9782 57.0655 59.1969 56.8466 59.4156C56.7435 59.519 56.6403 59.6224 56.5341 59.7289C56.3911 59.8713 56.3911 59.8713 56.2452 60.0165C56.1194 60.1421 56.1194 60.1421 55.9911 60.2702C55.5809 60.6462 55.2693 60.6255 54.7275 60.6277C54.5642 60.6287 54.401 60.6297 54.2328 60.6308C54.0528 60.6312 53.8728 60.6315 53.6874 60.6319C53.4966 60.6328 53.3058 60.6337 53.115 60.6347C52.4873 60.6377 51.8597 60.6391 51.232 60.6405C51.0159 60.6411 50.7997 60.6417 50.5836 60.6423C49.5677 60.645 48.5518 60.647 47.5359 60.6481C46.364 60.6495 45.1922 60.6532 44.0204 60.6589C43.1143 60.6631 42.2082 60.6652 41.3021 60.6657C40.7611 60.666 40.2202 60.6673 39.6793 60.6708C39.1698 60.6741 38.6603 60.6747 38.1508 60.6732C37.876 60.6731 37.6011 60.6758 37.3262 60.6786C36.1785 60.6718 35.3962 60.546 34.5086 59.7682C34.395 59.6309 34.395 59.6309 34.279 59.4908C34.2011 59.3996 34.1231 59.3085 34.0428 59.2145C33.6112 58.5881 33.5229 58.0497 33.5207 57.2959C33.5201 57.2054 33.5194 57.1148 33.5188 57.0216C33.517 56.7193 33.5172 56.4171 33.5174 56.1148C33.5166 55.8977 33.5156 55.6805 33.5146 55.4633C33.5121 54.874 33.5114 54.2848 33.5113 53.6956C33.5111 53.3272 33.5105 52.9587 33.5097 52.5903C33.5071 51.3043 33.506 50.0183 33.5062 48.7323C33.5064 47.5348 33.5034 46.3373 33.4989 45.1399C33.4953 44.1107 33.4938 43.0816 33.4939 42.0525C33.494 41.4383 33.4932 40.8241 33.4902 40.2099C33.4875 39.632 33.4875 39.0541 33.4895 38.4762C33.4898 38.2646 33.4892 38.053 33.4875 37.8415C33.4778 36.5539 33.5104 35.5692 34.3971 34.5574C34.4887 34.4816 34.5802 34.4058 34.6745 34.3277C34.7657 34.2498 34.8569 34.1718 34.9508 34.0915C35.5918 33.6499 36.1409 33.5716 36.9121 33.5694ZM36.0896 36.2789C35.6985 36.901 35.8083 37.3141 35.8083 38.107C43.6046 38.107 51.4008 38.107 59.4333 38.107C59.4689 37.0092 59.4689 37.0092 59.0114 36.1383C58.4727 35.8594 58.0193 35.8215 57.4179 35.8204C57.2383 35.8194 57.0587 35.8184 56.8737 35.8174C56.6757 35.8177 56.4777 35.818 56.2797 35.8184C56.0704 35.8178 55.8611 35.8171 55.6517 35.8162C55.084 35.8144 54.5163 35.8143 53.9486 35.8146C53.4743 35.8148 53.0001 35.8141 52.5259 35.8134C51.407 35.8119 50.2881 35.8118 49.1692 35.8126C48.0155 35.8135 46.8618 35.8118 45.7081 35.8088C44.717 35.8063 43.7258 35.8054 42.7347 35.8059C42.143 35.8062 41.5513 35.8058 40.9596 35.8038C40.4031 35.8021 39.8467 35.8023 39.2902 35.8042C39.0862 35.8045 38.8823 35.8041 38.6783 35.803C38.3994 35.8015 38.1204 35.8029 37.8415 35.8044C37.6856 35.8044 37.5296 35.8044 37.369 35.8043C36.8632 35.8655 36.5245 36.0173 36.0896 36.2789ZM35.8083 40.357C35.7996 43.124 35.7909 45.891 35.7819 48.7418C35.7781 49.6151 35.7743 50.4884 35.7703 51.3882C35.7689 52.1718 35.7689 52.1718 35.768 52.9554C35.7674 53.3041 35.7659 53.6528 35.7638 54.0016C35.7607 54.5301 35.7602 55.0586 35.7604 55.5872C35.7589 55.7422 35.7574 55.8973 35.7558 56.057C35.7567 57.1303 35.7567 57.1303 36.2302 58.0758C36.7198 58.3184 37.1154 58.392 37.6585 58.3909C37.8015 58.3912 37.9444 58.3916 38.0917 58.392C38.3246 58.3905 38.3246 58.3905 38.5622 58.389C38.7269 58.389 38.8916 58.3891 39.0613 58.3891C39.6053 58.3889 40.1493 58.3867 40.6934 58.3845C41.0707 58.384 41.448 58.3836 41.8254 58.3833C42.7169 58.3824 43.6083 58.3801 44.4998 58.3773C45.5149 58.3741 46.5301 58.3726 47.5452 58.3712C49.6329 58.3683 51.7206 58.3633 53.8083 58.357C53.8104 58.2059 53.8124 58.0547 53.8145 57.899C53.8227 57.3384 53.8335 56.7778 53.8452 56.2173C53.8499 55.9746 53.8538 55.732 53.857 55.4893C53.8617 55.1405 53.8691 54.7919 53.877 54.4432C53.8783 54.2803 53.8783 54.2803 53.8797 54.1142C53.897 53.4854 53.9059 53.3375 54.3708 52.8727C56.0414 52.8263 57.7121 52.7799 59.4333 52.732C59.4333 48.6483 59.4333 44.5645 59.4333 40.357C51.6371 40.357 43.8408 40.357 35.8083 40.357ZM56.0583 54.982C56.0583 55.4925 56.0583 56.003 56.0583 56.5289C56.6424 56.0459 57.1536 55.5962 57.6052 54.982C57.0947 54.982 56.5842 54.982 56.0583 54.982Z" fill="white"/>
<path d="M49.8706 11.1071C50.3414 11.3064 50.3414 11.3064 50.8033 11.5855C50.9297 11.6606 50.9297 11.6606 51.0586 11.7372C51.3262 11.897 51.5915 12.0601 51.8569 12.2233C52.0315 12.328 52.2061 12.4324 52.3809 12.5367C52.9068 12.8518 53.4285 13.1733 53.9487 13.4977C54.0415 13.5555 54.1344 13.6133 54.23 13.6728C54.5056 13.8451 54.7805 14.0186 55.055 14.1926C55.1397 14.2456 55.2243 14.2987 55.3115 14.3534C55.9011 14.7306 55.9011 14.7306 56.0581 15.0446C56.1367 15.8439 56.1367 15.8439 56.0581 16.1696C55.5739 16.7125 55.0718 17.0729 54.4436 17.4346C54.3574 17.4847 54.2713 17.5348 54.1825 17.5864C53.9088 17.745 53.6344 17.9022 53.3598 18.0592C53.0888 18.2157 52.818 18.3724 52.5471 18.5292C52.371 18.631 52.1948 18.7324 52.0184 18.8337C51.3915 19.1938 50.7753 19.5687 50.165 19.9563C49.6531 20.2184 49.3103 20.2044 48.7456 20.1071C48.4347 19.906 48.4347 19.906 48.1831 19.5446C48.1143 19.0856 48.1301 18.6362 48.1479 18.1735C48.1505 18.0486 48.153 17.9237 48.1556 17.795C48.1622 17.4874 48.1715 17.1801 48.1831 16.8727C39.6487 16.6742 32.03 19.28 25.7182 25.0377C25.6453 25.1039 25.5723 25.17 25.4971 25.2382C21.4845 28.9518 18.7237 34.3638 17.5268 39.6539C17.4992 39.7732 17.4717 39.8924 17.4433 40.0153C16.3551 44.9427 16.761 50.2111 18.302 54.9842C18.3706 55.2633 18.3706 55.2633 18.3706 55.8258C18.075 55.9439 17.779 56.0609 17.4829 56.1774C17.3181 56.2426 17.1533 56.3079 16.9835 56.3751C16.5424 56.5289 16.5424 56.5289 16.1206 56.5289C15.6672 55.3076 15.3189 54.0834 15.0395 52.8112C15.0111 52.6842 14.9827 52.5572 14.9534 52.4263C14.4988 50.2895 14.3802 48.2031 14.3891 46.026C14.3894 45.8956 14.3896 45.7651 14.3899 45.6307C14.3961 43.7491 14.4501 41.92 14.8549 40.0758C14.8798 39.956 14.9047 39.8363 14.9303 39.7129C16.1954 33.689 19.0418 28.3446 23.2924 23.9039C23.3586 23.834 23.4247 23.764 23.4928 23.692C28.4377 18.4809 36.0653 14.7528 43.2929 14.4698C43.6093 14.466 43.9253 14.4662 44.2417 14.4683C44.3554 14.4685 44.4691 14.4687 44.5863 14.4689C44.9444 14.4697 45.3025 14.4715 45.6606 14.4733C45.9055 14.474 46.1504 14.4746 46.3953 14.4752C46.9912 14.4767 47.5872 14.4792 48.1831 14.4821C48.1801 14.3998 48.1772 14.3176 48.1741 14.2328C48.1624 13.8589 48.1551 13.485 48.1479 13.111C48.1432 12.9815 48.1385 12.8521 48.1336 12.7188C48.12 11.7794 48.12 11.7794 48.3962 11.2982C48.8818 11.0326 49.3334 11.0417 49.8706 11.1071ZM50.4331 14.3414C50.4331 15.1768 50.4331 16.0121 50.4331 16.8727C50.6796 16.7393 50.9261 16.6059 51.1801 16.4684C51.3188 16.3934 51.4575 16.3183 51.6004 16.241C51.9934 16.0279 51.9934 16.0279 52.4018 15.7477C52.2107 15.1744 51.937 15.0995 51.4174 14.8073C51.2637 14.7197 51.11 14.6322 50.9516 14.5419C50.6243 14.3305 50.6243 14.3305 50.4331 14.3414Z" fill="white"/>
<path d="M75.7445 35.4352C76.1979 36.6565 76.5461 37.8808 76.8256 39.153C76.854 39.2799 76.8824 39.4069 76.9116 39.5378C77.3663 41.6747 77.4848 43.7611 77.476 45.9381C77.4756 46.1338 77.4756 46.1338 77.4752 46.3334C77.469 48.215 77.415 50.0441 77.0101 51.8883C76.9853 52.0081 76.9604 52.1279 76.9347 52.2513C75.6514 58.362 72.7465 63.709 68.432 68.2008C68.3116 68.327 68.1913 68.4531 68.0673 68.5831C67.2563 69.4147 66.4012 70.1673 65.4789 70.8727C65.3882 70.9422 65.2976 71.0116 65.2042 71.0832C63.6819 72.2392 62.1195 73.2392 60.4164 74.1071C60.3173 74.1576 60.2182 74.2081 60.1161 74.2602C57.4636 75.5944 54.7433 76.4575 51.8383 77.0602C51.7192 77.0856 51.6002 77.111 51.4775 77.1372C48.9189 77.6619 46.2797 77.5224 43.682 77.4821C43.685 77.5643 43.6879 77.6466 43.6909 77.7313C43.7027 78.1052 43.71 78.4791 43.7172 78.8531C43.7219 78.9826 43.7266 79.112 43.7315 79.2454C43.7451 80.1847 43.7451 80.1847 43.4689 80.6659C42.9833 80.9316 42.5317 80.9224 41.9945 80.8571C41.5237 80.6577 41.5237 80.6577 41.0618 80.3786C40.9775 80.3285 40.8933 80.2785 40.8065 80.2269C40.5389 80.0672 40.2736 79.9041 40.0082 79.7408C39.8336 79.6362 39.659 79.5317 39.4841 79.4275C38.9583 79.1123 38.4366 78.7908 37.9164 78.4664C37.8236 78.4086 37.7307 78.3508 37.6351 78.2913C37.3595 78.119 37.0846 77.9456 36.8101 77.7715C36.7254 77.7185 36.6408 77.6654 36.5536 77.6107C35.964 77.2335 35.964 77.2335 35.807 76.9196C35.7284 76.1202 35.7284 76.1202 35.807 75.7946C36.2912 75.2517 36.7932 74.8912 37.4215 74.5295C37.5076 74.4794 37.5938 74.4293 37.6826 74.3778C37.9563 74.2191 38.2307 74.062 38.5053 73.9049C38.7763 73.7485 39.0471 73.5917 39.318 73.4349C39.494 73.3332 39.6703 73.2317 39.8467 73.1305C40.4736 72.7704 41.0898 72.3955 41.7 72.0079C42.212 71.7457 42.5548 71.7597 43.1195 71.8571C43.4304 72.0581 43.4304 72.0581 43.682 72.4196C43.7508 72.8785 43.7349 73.3279 43.7172 73.7906C43.7146 73.9155 43.7121 74.0404 43.7095 74.1691C43.7029 74.4767 43.6936 74.784 43.682 75.0914C52.2164 75.2899 59.8351 72.6842 66.1469 66.9264C66.2198 66.8602 66.2928 66.7941 66.368 66.726C70.3805 63.0124 73.1414 57.6003 74.3383 52.3102C74.3796 52.1313 74.3796 52.1313 74.4218 51.9489C75.51 47.0214 75.1041 41.753 73.563 36.98C73.4945 36.7008 73.4945 36.7008 73.4945 36.1383C73.7901 36.0203 74.0861 35.9033 74.3822 35.7867C74.547 35.7215 74.7118 35.6562 74.8815 35.589C75.3226 35.4352 75.3226 35.4352 75.7445 35.4352ZM40.3685 75.6539C40.282 75.7076 40.1954 75.7612 40.1062 75.8165C39.8917 75.9496 39.6775 76.083 39.4633 76.2164C39.6544 76.7897 39.9281 76.8646 40.4476 77.1569C40.6014 77.2444 40.7551 77.332 40.9135 77.4222C41.2408 77.6337 41.2408 77.6337 41.432 77.6227C41.432 76.7874 41.432 75.9521 41.432 75.0914C41.079 75.0914 40.6711 75.4652 40.3685 75.6539Z" fill="white"/>
<path d="M27.3268 62.4745C29.3456 64.1212 30.9926 66.3967 31.3074 69.0446C31.5127 72.099 31.1208 74.9445 29.0604 77.3286C27.2031 79.3629 24.8902 80.7707 22.0888 80.901C19.1792 80.9843 16.5685 80.42 14.3709 78.4137C12.2977 76.4253 11.0841 74.1052 11.0011 71.2052C10.9678 68.337 11.6857 65.8131 13.7012 63.7116C17.2944 60.1141 23.1395 59.3099 27.3268 62.4745ZM16.4012 64.5446C16.312 64.6062 16.2228 64.6678 16.1309 64.7313C14.6944 65.8252 13.8328 67.602 13.4481 69.3258C13.249 71.6688 13.5813 73.5892 14.9949 75.5133C15.0653 75.6128 15.1356 75.7124 15.2081 75.8149C16.281 77.1886 18.068 78.1926 19.7762 78.4664C22.1178 78.684 24.0393 78.3334 25.9637 76.9196C26.0632 76.8492 26.1627 76.7789 26.2653 76.7064C27.6389 75.6335 28.643 73.8465 28.9168 72.1383C29.1343 69.7967 28.7838 67.8752 27.3699 65.9508C27.2996 65.8513 27.2293 65.7518 27.1568 65.6492C26.0839 64.2756 24.2969 63.2715 22.5887 62.9977C20.2419 62.7797 18.3333 63.136 16.4012 64.5446Z" fill="white"/>
<path d="M76.8268 12.9745C78.8456 14.6212 80.4926 16.8967 80.8074 19.5446C81.0127 22.599 80.6208 25.4445 78.5604 27.8286C76.7031 29.8629 74.3902 31.2707 71.5888 31.401C68.6792 31.4843 66.0685 30.92 63.8709 28.9137C61.7977 26.9253 60.5841 24.6052 60.5011 21.7052C60.4678 18.837 61.1857 16.3131 63.2012 14.2116C66.7944 10.6141 72.6395 9.80989 76.8268 12.9745ZM65.1981 15.6071C63.5472 17.3024 62.887 19.2462 62.8969 21.5622C62.9327 23.2928 63.4746 24.6245 64.4949 26.0133C64.5653 26.1128 64.6356 26.2124 64.7081 26.3149C65.781 27.6886 67.568 28.6926 69.2762 28.9664C71.623 29.1844 73.5316 28.8281 75.4637 27.4196C75.5529 27.3579 75.6421 27.2963 75.734 27.2328C77.1705 26.1389 78.0321 24.3621 78.4168 22.6383C78.6158 20.2953 78.2836 18.3749 76.8699 16.4508C76.7996 16.3513 76.7293 16.2518 76.6568 16.1492C75.3918 14.5296 73.3891 13.6696 71.4031 13.3746C69.0075 13.2191 66.9709 14.0351 65.1981 15.6071Z" fill="white"/>
<path d="M20.0578 65.1071C20.8003 65.1071 21.5428 65.1071 22.3078 65.1071C22.3078 65.4783 22.3078 65.8496 22.3078 66.2321C22.4035 66.2408 22.4992 66.2495 22.5978 66.2584C23.2647 66.4429 23.7812 66.7716 24.1831 67.3428C24.5047 67.9379 24.5821 68.3608 24.5578 69.0446C24.1681 69.0559 23.7787 69.0643 23.3888 69.0709C23.2784 69.0745 23.1679 69.078 23.054 69.0816C22.9475 69.083 22.841 69.0844 22.7313 69.0858C22.6334 69.088 22.5354 69.0902 22.4345 69.0924C22.0893 69.0306 21.9774 68.8767 21.7453 68.6227C21.2678 68.5433 20.7772 68.5442 20.339 68.7633C20.339 68.9489 20.339 69.1346 20.339 69.3258C20.7551 69.5338 21.1501 69.4831 21.6134 69.4928C22.6015 69.5397 23.282 69.7488 23.9953 70.4508C24.6177 71.1946 24.6462 71.8617 24.61 72.8195C24.5162 73.6166 24.3111 74.1232 23.691 74.6437C22.8528 75.2321 22.8528 75.2321 22.3078 75.2321C22.3078 75.6033 22.3078 75.9746 22.3078 76.3571C21.5653 76.3571 20.8228 76.3571 20.0578 76.3571C20.0578 75.9858 20.0578 75.6146 20.0578 75.2321C19.9142 75.219 19.9142 75.219 19.7677 75.2057C19.1009 75.0212 18.5844 74.6925 18.1824 74.1213C17.8609 73.5262 17.7835 73.1033 17.8078 72.4196C18.1975 72.4082 18.5869 72.3998 18.9767 72.3932C19.1425 72.3879 19.1425 72.3879 19.3115 72.3825C19.418 72.3811 19.5245 72.3798 19.6343 72.3784C19.7812 72.375 19.7812 72.375 19.9311 72.3717C20.2763 72.4335 20.3882 72.5874 20.6203 72.8414C21.0978 72.9209 21.5884 72.9199 22.0265 72.7008C22.0265 72.5152 22.0265 72.3296 22.0265 72.1383C21.6105 71.9303 21.2155 71.9811 20.7521 71.9713C19.7634 71.9244 19.0845 71.7147 18.3703 71.0133C17.7256 70.2585 17.7056 69.5239 17.7358 68.5458C17.8615 67.698 18.2374 67.1152 18.9119 66.593C19.3092 66.3486 19.5884 66.2321 20.0578 66.2321C20.0578 65.8608 20.0578 65.4896 20.0578 65.1071Z" fill="white"/>
<path d="M74.1984 17.1539C74.354 17.2859 74.5094 17.4182 74.6647 17.5505C74.7513 17.6242 74.8379 17.6978 74.9271 17.7736C75.2632 18.0682 75.5746 18.3801 75.8859 18.7008C75.6744 19.1956 75.3885 19.5143 75.0092 19.8929C74.8862 20.0163 74.7633 20.1397 74.6366 20.2668C74.5023 20.4002 74.3679 20.5335 74.2335 20.6668C74.0958 20.8043 73.9582 20.9419 73.8206 21.0796C73.5326 21.3673 73.2441 21.6547 72.9553 21.9416C72.5847 22.3097 72.2152 22.6788 71.8459 23.0482C71.562 23.3321 71.2777 23.6156 70.9932 23.899C70.8568 24.035 70.7204 24.1711 70.5842 24.3072C70.394 24.4971 70.2033 24.6865 70.0126 24.8758C69.9041 24.9837 69.7957 25.0916 69.6839 25.2028C69.3037 25.5562 68.9763 25.6831 68.4492 25.6755C67.7471 25.4773 67.2463 24.8276 66.7452 24.3258C66.6211 24.2116 66.4969 24.0974 66.369 23.9797C66.2524 23.8706 66.1358 23.7615 66.0157 23.649C65.9093 23.5495 65.8029 23.45 65.6933 23.3475C65.4796 23.0602 65.4796 23.0602 65.4785 22.7844C65.6711 22.3948 65.9217 22.1299 66.2267 21.8209C66.3364 21.7069 66.446 21.5929 66.559 21.4754C66.8859 21.2321 66.8859 21.2321 67.171 21.2299C67.5319 21.4157 67.7664 21.6504 68.046 21.944C68.195 22.0987 68.195 22.0987 68.347 22.2565C68.4217 22.3361 68.4964 22.4157 68.5734 22.4977C69.0209 22.3001 69.3206 22.0661 69.6644 21.7198C69.7658 21.6184 69.8671 21.5171 69.9715 21.4127C70.0793 21.3034 70.1871 21.1941 70.2982 21.0815C70.4656 20.9136 70.4656 20.9136 70.6363 20.7422C70.9923 20.3847 71.3473 20.0262 71.7023 19.6676C71.9435 19.4249 72.1849 19.1823 72.4263 18.9398C73.0177 18.3452 73.6083 17.7499 74.1984 17.1539Z" fill="white"/>
<path d="M49.3076 52.7321C50.0501 52.7321 50.7926 52.7321 51.5576 52.7321C51.5576 53.4746 51.5576 54.2171 51.5576 54.9821C50.8151 54.9821 50.0726 54.9821 49.3076 54.9821C49.3076 54.2396 49.3076 53.4971 49.3076 52.7321Z" fill="white"/>
<path d="M43.6826 52.7321C44.4251 52.7321 45.1676 52.7321 45.9326 52.7321C45.9326 53.4746 45.9326 54.2171 45.9326 54.9821C45.1901 54.9821 44.4476 54.9821 43.6826 54.9821C43.6826 54.2396 43.6826 53.4971 43.6826 52.7321Z" fill="white"/>
<path d="M38.0576 52.7321C38.8001 52.7321 39.5426 52.7321 40.3076 52.7321C40.3076 53.4746 40.3076 54.2171 40.3076 54.9821C39.5651 54.9821 38.8226 54.9821 38.0576 54.9821C38.0576 54.2396 38.0576 53.4971 38.0576 52.7321Z" fill="white"/>
<path d="M54.9326 48.2321C55.6751 48.2321 56.4176 48.2321 57.1826 48.2321C57.1826 48.9746 57.1826 49.7171 57.1826 50.4821C56.4401 50.4821 55.6976 50.4821 54.9326 50.4821C54.9326 49.7396 54.9326 48.9971 54.9326 48.2321Z" fill="white"/>
<path d="M49.3076 48.2321C50.0501 48.2321 50.7926 48.2321 51.5576 48.2321C51.5576 48.9746 51.5576 49.7171 51.5576 50.4821C50.8151 50.4821 50.0726 50.4821 49.3076 50.4821C49.3076 49.7396 49.3076 48.9971 49.3076 48.2321Z" fill="white"/>
<path d="M43.6826 48.2321C44.4251 48.2321 45.1676 48.2321 45.9326 48.2321C45.9326 48.9746 45.9326 49.7171 45.9326 50.4821C45.1901 50.4821 44.4476 50.4821 43.6826 50.4821C43.6826 49.7396 43.6826 48.9971 43.6826 48.2321Z" fill="white"/>
<path d="M38.0576 48.2321C38.8001 48.2321 39.5426 48.2321 40.3076 48.2321C40.3076 48.9746 40.3076 49.7171 40.3076 50.4821C39.5651 50.4821 38.8226 50.4821 38.0576 50.4821C38.0576 49.7396 38.0576 48.9971 38.0576 48.2321Z" fill="white"/>
<path d="M54.9326 43.7321C55.6751 43.7321 56.4176 43.7321 57.1826 43.7321C57.1826 44.4746 57.1826 45.2171 57.1826 45.9821C56.4401 45.9821 55.6976 45.9821 54.9326 45.9821C54.9326 45.2396 54.9326 44.4971 54.9326 43.7321Z" fill="white"/>
<path d="M49.3076 43.7321C50.0501 43.7321 50.7926 43.7321 51.5576 43.7321C51.5576 44.4746 51.5576 45.2171 51.5576 45.9821C50.8151 45.9821 50.0726 45.9821 49.3076 45.9821C49.3076 45.2396 49.3076 44.4971 49.3076 43.7321Z" fill="white"/>
<path d="M43.6826 43.7321C44.4251 43.7321 45.1676 43.7321 45.9326 43.7321C45.9326 44.4746 45.9326 45.2171 45.9326 45.9821C45.1901 45.9821 44.4476 45.9821 43.6826 45.9821C43.6826 45.2396 43.6826 44.4971 43.6826 43.7321Z" fill="white"/>
</svg>
