<svg width="70" height="70" viewBox="0 0 70 70" fill="none" xmlns="http://www.w3.org/2000/svg">
<path d="M36.3623 4.36956C36.4648 4.46145 36.5673 4.55334 36.6729 4.64801C36.7574 4.72374 36.8419 4.79946 36.929 4.87749C37.109 5.08533 37.109 5.08533 37.1817 5.50442C37.0835 6.11972 36.8772 6.32194 36.3822 6.68882C35.8815 6.74905 35.6096 6.75162 35.1784 6.47985C35.0719 6.38345 34.9655 6.28705 34.8558 6.18773C31.9708 3.73642 28.7271 2.59275 25.0435 2.0241C26.3393 3.83137 27.6491 5.62767 28.9684 7.41769C30.1475 9.01746 31.321 10.6209 32.4805 12.235C32.5871 12.3797 32.5871 12.3797 32.6958 12.5274C32.8934 12.8113 32.8934 12.8113 33.0472 13.0974C33.2999 13.5421 33.4885 13.7849 33.9808 13.9598C34.1219 13.9917 34.2631 14.0237 34.4085 14.0566C34.6428 14.1105 34.6428 14.1105 34.8818 14.1654C35.0411 14.1996 35.2004 14.2338 35.3646 14.269C35.5806 14.3155 35.5806 14.3155 35.801 14.3629C36.2418 14.455 36.6832 14.5433 37.1249 14.6306C37.2838 14.6623 37.4426 14.694 37.6063 14.7267C38.1067 14.8266 38.6073 14.9259 39.1078 15.0252C39.45 15.0934 39.7923 15.1616 40.1345 15.2299C40.9672 15.396 41.8 15.5615 42.633 15.7267C42.0453 14.6905 41.4403 13.6858 40.7432 12.7202C40.6686 12.6148 40.594 12.5094 40.5171 12.4008C40.1935 11.9444 39.8662 11.493 39.5274 11.0478C39.3872 10.8609 39.3872 10.8609 39.2441 10.6702C39.1637 10.5674 39.0833 10.4647 39.0005 10.3588C38.7954 9.91647 38.8782 9.63022 38.9988 9.16696C39.237 8.80228 39.4263 8.73298 39.8346 8.57475C40.5357 8.58827 40.8438 8.97473 41.3247 9.4585C41.6479 9.83766 41.9378 10.2352 42.2241 10.6429C42.3043 10.7556 42.3845 10.8684 42.4672 10.9845C43.4405 12.3743 44.3715 13.8338 45.1369 15.3506C45.5304 16.1215 45.8986 16.5583 46.6306 17.0113C48.1238 18.0068 49.3775 19.2539 50.6282 20.5372C50.6182 20.4559 50.6082 20.3745 50.598 20.2907C50.1315 16.1286 50.4565 12.3627 53.0642 8.96937C55.8028 5.73035 59.6027 3.68541 63.5931 2.38854C63.7061 2.35129 63.8192 2.31405 63.9357 2.27568C64.5991 2.07021 65.1927 1.92337 65.8917 2.0241C66.6667 2.57491 67.008 3.44271 67.3999 4.28358C67.4695 4.4321 67.5391 4.58062 67.6109 4.73364C69.496 8.84393 70.8739 14.0619 69.3422 18.5071C67.5781 23.1361 63.8312 25.906 59.4592 27.8714C56.9128 28.992 56.9128 28.992 56.1521 28.992C56.1945 29.0845 56.2368 29.1769 56.2804 29.2722C57.3216 31.6492 57.9373 34.1577 58.3326 36.718C58.3478 36.8154 58.363 36.9128 58.3787 37.0132C59.3487 44.3013 57.3218 52.1548 52.9421 58.0332C52.8014 58.2172 52.66 58.4008 52.5179 58.5838C52.4538 58.6667 52.3896 58.7495 52.3235 58.8349C50.6664 60.9437 48.7301 62.8461 46.5579 64.4147C46.4766 64.4743 46.3953 64.5339 46.3116 64.5953C41.3843 68.1729 35.438 70.0301 29.3773 69.9996C29.2112 69.9992 29.2112 69.9992 29.0417 69.9988C27.2415 69.9916 25.5021 69.8838 23.7352 69.5168C23.613 69.4925 23.4908 69.4683 23.3649 69.4433C18.6331 68.4856 14.1712 66.4223 10.5068 63.2485C10.3934 63.1508 10.2801 63.0531 10.1633 62.9524C8.45457 61.4439 6.90474 59.8477 5.56434 58.0007C5.50428 57.9186 5.44422 57.8365 5.38234 57.7518C1.89164 52.9158 -0.0315997 47.0136 0.00248001 41.0501C0.00404108 40.7268 0.00248185 40.4037 0.000634532 40.0804C-0.00395836 36.1072 -0.00395839 36.1072 0.767219 35.1145C1.28066 34.974 1.62225 34.9129 2.13004 35.0871C2.36626 35.2602 2.36626 35.2602 2.51163 35.5518C2.52586 35.7974 2.53049 36.0437 2.5298 36.2897C2.53036 36.4862 2.53036 36.4862 2.53093 36.6866C2.51163 37.1553 2.51163 37.1553 2.44008 37.731C1.65201 44.5291 3.62192 51.5459 7.74484 56.9803C8.14852 57.4884 8.56686 57.9829 8.99352 58.4716C9.21785 58.7301 9.43658 58.9937 9.64768 59.2631C9.89979 59.5728 10.1484 59.8212 10.4523 60.078C10.7768 60.3545 11.0958 60.6317 11.4051 60.9253C15.2705 64.5796 20.5546 66.7684 25.7704 67.4759C25.8648 67.4895 25.9592 67.503 26.0565 67.5169C32.8574 68.3992 40.0772 66.4073 45.513 62.2281C46.3312 61.5844 47.1124 60.9056 47.8662 60.1873C47.9764 60.0828 47.9764 60.0828 48.0888 59.9761C52.977 55.3085 55.9975 48.6446 56.1867 41.857C56.2916 34.6209 54.1339 27.7943 49.1574 22.4374C48.9296 22.1904 48.7188 21.94 48.5112 21.6761C47.5362 20.5479 46.2856 19.6855 45.1042 18.7879C44.214 19.4462 43.3481 20.1321 42.4876 20.8288C42.6071 20.9188 42.7267 21.0088 42.8499 21.1015C43.8882 21.889 44.8844 22.7002 45.831 23.5984C45.9504 23.7104 46.0698 23.8224 46.1928 23.9378C50.5039 28.1063 52.8859 34.2159 53.0057 40.1697C53.0165 42.0144 52.8684 43.7995 52.5179 45.6101C52.4985 45.7125 52.479 45.8148 52.4589 45.9203C51.5857 50.3201 49.2214 54.2443 46.1218 57.4176C46.0116 57.5355 45.9014 57.6533 45.7879 57.7747C44.3204 59.3134 42.5899 60.4713 40.7432 61.4993C40.6528 61.55 40.5623 61.6007 40.4691 61.653C37.0459 63.546 33.164 64.4396 29.2683 64.4421C29.12 64.4438 28.9716 64.4456 28.8188 64.4475C27.8835 64.4493 26.9588 64.411 26.0611 64.1232C25.6889 63.7499 25.7247 63.4776 25.7034 62.9672C25.8017 62.5243 26.0014 62.3636 26.3518 62.0824C26.7697 62.0231 26.7697 62.0231 27.2553 62.0408C27.5242 62.0471 27.5242 62.0471 27.7986 62.0535C27.9897 62.06 28.1809 62.0665 28.3779 62.0733C32.0354 62.145 35.4115 61.5091 38.708 59.8958C38.8489 59.8272 38.8489 59.8272 38.9926 59.7573C40.8005 58.8656 42.3355 57.7382 43.8016 56.3466C44.0866 56.1057 44.0866 56.1057 44.3774 56.1057C44.4361 55.9741 44.4361 55.9741 44.496 55.8398C44.6696 55.5198 44.8259 55.3522 45.0951 55.1126C48.7269 51.554 50.5813 46.0541 50.6621 41.0618C50.6694 39.7886 50.6059 38.5573 50.401 37.3005C50.3433 36.9038 50.3255 36.5349 50.3374 36.1349C47.1292 37.933 47.1292 37.933 45.199 40.9397C44.9454 42.1247 45.0762 43.3017 45.2496 44.4894C45.6404 47.2445 45.3328 49.2786 43.6505 51.5867C42.3543 53.2917 40.4081 54.8103 38.2719 55.2311C37.1937 55.3308 36.2661 55.2447 35.3777 54.5887C33.877 53.2341 33.7666 51.1069 33.6517 49.2077C33.6102 48.4092 33.5999 47.6104 33.5895 46.811C33.5864 46.5823 33.5864 46.5823 33.5832 46.3489C33.5749 45.7147 33.5669 45.0805 33.5619 44.4463C33.5728 42.0018 33.5728 42.0018 33.0387 39.6334C32.5244 39.4601 32.133 39.5123 31.6021 39.6009C31.3494 39.6412 31.3494 39.6412 31.0916 39.6823C30.8232 39.7258 30.8232 39.7258 30.5493 39.7701C27.9338 40.1662 25.2363 40.5415 22.8994 39.0093C21.5747 37.9946 20.9228 36.5685 20.5372 34.9687C20.3273 32.4974 20.8793 30.5186 22.4724 28.5837C22.9577 28.0306 23.4234 27.5226 24.026 27.097C23.8536 27.065 23.6812 27.0331 23.5036 27.0002C20.9068 26.4992 18.7525 25.6003 16.4423 24.318C16.1552 24.1623 16.1552 24.1623 15.74 24.0357C15.3034 24.309 14.9476 24.7002 14.5771 25.0562C14.3778 25.2397 14.3778 25.2397 14.1745 25.4269C12.594 26.9141 11.4048 28.678 10.3342 30.5591C10.2797 30.6546 10.2253 30.7501 10.1691 30.8485C9.90021 31.338 9.65731 31.7805 9.63462 32.3448C9.77814 32.6704 9.77814 32.6704 10.0253 32.9916C10.6882 33.9694 11.2343 35.0027 11.7894 36.0449C11.8616 36.1796 11.9338 36.3143 12.0082 36.4532C12.1047 36.6348 12.1047 36.6348 12.2031 36.8201C12.3907 37.1617 12.3907 37.1617 12.6389 37.4725C12.8327 37.7384 12.8327 37.7384 12.8327 38.0299C13.0066 38.087 13.1805 38.1442 13.3596 38.203C13.6201 38.291 13.8806 38.3791 14.141 38.4672C14.3074 38.5219 14.4738 38.5766 14.6452 38.6329C16.9143 39.4036 16.9143 39.4036 17.539 40.4534C18.1422 41.7097 17.9315 42.6328 17.5273 43.9136C17.2054 44.8204 16.7922 45.6826 16.376 46.5485C16.2069 46.9033 16.0387 47.2585 15.8706 47.6139C15.7597 47.8454 15.7597 47.8454 15.6466 48.0816C15.2863 48.8924 15.0237 49.5499 15.3039 50.4206C15.5089 50.8506 15.7289 51.2714 15.949 51.6938C16.5441 52.9409 16.9515 54.3039 16.8661 55.6906C16.7226 57.1718 16.7226 57.1718 17.1443 58.5423C17.5354 58.8205 17.9109 58.9887 18.3566 59.1669C18.5505 59.2631 18.7433 59.3614 18.9353 59.4613C19.3293 59.6661 19.7252 59.8647 20.1255 60.0569C21.6407 60.7971 21.6407 60.7971 21.8455 61.2077C21.8864 61.6799 21.8902 61.99 21.6819 62.4195C21.301 62.7632 21.0475 62.7784 20.5372 62.8112C20.1507 62.6896 19.819 62.5632 19.456 62.3921C19.355 62.346 19.2541 62.2998 19.1501 62.2523C16.6594 61.0837 14.5242 59.46 12.542 57.5634C12.4267 57.4556 12.3115 57.3477 12.1927 57.2366C8.0733 53.2726 5.72468 47.2836 5.52232 41.6178C5.39187 35.1827 7.50208 29.0214 11.9628 24.337C12.5839 23.694 13.2127 23.0589 13.8503 22.4323C13.7307 22.3229 13.6112 22.2135 13.488 22.1008C11.9527 20.6918 10.4718 19.2799 9.19851 17.6218C9.08605 17.476 9.08605 17.476 8.97131 17.3274C7.72872 15.7067 6.61801 14.0381 5.60621 12.2634C5.43392 11.9627 5.25739 11.6651 5.0794 11.3678C4.93717 11.1217 4.93717 11.1217 4.79207 10.8707C4.67149 10.6641 4.67149 10.6641 4.54847 10.4533C4.35776 9.91943 4.41573 9.56751 4.54677 9.02118C4.8375 8.66586 4.8375 8.66586 5.2736 8.29232C5.3984 8.17225 5.3984 8.17225 5.52572 8.04975C13.7888 0.245413 27.0247 -3.53147 36.3623 4.36956ZM19.7467 2.72563C19.6016 2.76369 19.4565 2.80174 19.3069 2.84094C18.4849 3.06044 17.6937 3.3129 16.903 3.6276C17.1392 4.36413 17.5766 4.92618 18.0296 5.54087C18.1129 5.65527 18.1963 5.76967 18.2822 5.88754C18.5485 6.25244 18.8159 6.61647 19.0835 6.98037C19.2573 7.21742 19.431 7.45449 19.6048 7.69158C20.2159 8.52894 20.2159 8.52894 20.8411 9.35565C21.0601 9.66682 21.2297 9.95559 21.4038 10.2908C21.9439 11.2573 22.4561 11.9019 23.5361 12.2508C24.515 12.5043 25.5077 12.6588 26.5063 12.8113C26.8539 12.8719 27.2013 12.9334 27.5486 12.9958C28.1794 13.106 28.8103 13.214 29.4432 13.3118C29.6326 13.3412 29.6326 13.3412 29.8257 13.3713C30.1397 13.4214 30.1397 13.4214 30.4221 13.2486C29.1264 11.4413 27.8165 9.64502 26.4972 7.855C26.1548 7.39047 25.8126 6.92585 25.4706 6.46105C25.3876 6.34834 25.3047 6.23563 25.2192 6.11951C24.5241 5.17316 23.837 4.22108 23.1534 3.26627C23.0792 3.16265 23.0049 3.05903 22.9283 2.95227C22.8301 2.81496 22.8301 2.81496 22.73 2.67488C22.5831 2.46512 22.5831 2.46512 22.4269 2.31565C21.4856 2.23666 20.6503 2.47916 19.7467 2.72563ZM13.1325 5.46798C13.005 5.53846 12.8775 5.60893 12.7461 5.68155C11.1022 6.61064 9.3537 7.65226 8.03558 9.02118C10.3309 9.50634 12.6291 9.97526 14.9311 10.4278C15.4324 10.5265 15.9336 10.6258 16.4348 10.7252C16.7553 10.7883 17.0759 10.8514 17.3964 10.9145C17.5454 10.9441 17.6944 10.9737 17.8479 11.0042C17.985 11.031 18.1221 11.0579 18.2634 11.0855C18.3836 11.1092 18.5038 11.1329 18.6277 11.1573C18.9575 11.2194 18.9575 11.2194 19.3742 11.2078C19.1332 10.6744 18.8067 10.2131 18.4657 9.74093C18.4034 9.65411 18.3412 9.56728 18.277 9.47783C17.6278 8.57523 16.9687 7.67989 16.3086 6.78531C16.2265 6.67398 16.1443 6.56266 16.0597 6.44796C15.9412 6.28818 15.9412 6.28818 15.8203 6.12517C15.6723 5.92116 15.5279 5.71443 15.3878 5.50492C15.2243 5.26097 15.0472 5.02626 14.8678 4.79378C14.1948 4.79378 13.7129 5.14627 13.1325 5.46798ZM56.5848 8.5776C56.2736 8.90012 56.2086 9.02323 56.1521 9.4585C56.2288 9.78187 56.2288 9.78187 56.3758 10.1135C56.4282 10.2418 56.4806 10.3702 56.5346 10.5025C56.5926 10.6398 56.6506 10.7771 56.7103 10.9185C56.7686 11.06 56.8269 11.2016 56.8869 11.3474C57.0735 11.7996 57.2624 12.2507 57.4513 12.7019C57.5782 13.0082 57.7049 13.3146 57.8315 13.621C58.1422 14.3722 58.4547 15.1226 58.7687 15.8725C59.0645 15.498 59.2872 15.149 59.4691 14.7079C59.5164 14.5946 59.5636 14.4813 59.6123 14.3645C59.6622 14.2424 59.7121 14.1203 59.7636 13.9945C59.8168 13.8663 59.87 13.7381 59.9248 13.606C60.0975 13.1896 60.269 12.7727 60.4404 12.3557C60.6173 11.928 60.7944 11.5004 60.9716 11.0728C61.089 10.7892 61.2064 10.5055 61.3237 10.2217C61.6618 9.404 62.0029 8.58771 62.3495 7.77358C62.4244 7.59762 62.4992 7.42167 62.5764 7.24038C62.7121 6.92225 62.8482 6.60427 62.9846 6.28645C63.0434 6.14846 63.1021 6.01046 63.1627 5.86828C63.213 5.75092 63.2633 5.63356 63.3152 5.51264C63.4375 5.23571 63.4375 5.23571 63.4205 4.93955C61.1739 4.93955 58.2819 7.1996 56.5848 8.5776ZM65.4556 5.66842C65.4246 5.74401 65.3935 5.8196 65.3615 5.89748C62.4466 12.9926 62.4466 12.9926 61.0946 16.164C61.3736 16.3451 61.3736 16.3451 61.6446 16.2342C61.749 16.1903 61.8533 16.1464 61.9608 16.1012C62.0792 16.052 62.1976 16.0029 62.3195 15.9522C62.4475 15.8977 62.5754 15.8432 62.7073 15.7871C62.8384 15.7322 62.9696 15.6773 63.1048 15.6208C63.5254 15.4446 63.9454 15.2668 64.3653 15.089C64.6487 14.97 64.932 14.8512 65.2154 14.7325C65.7338 14.5149 66.2521 14.2971 66.7699 14.078C66.8742 14.0339 66.9786 13.9897 67.0861 13.9443C67.2719 13.8636 67.455 13.7767 67.6361 13.6859C67.6609 12.8157 67.581 12.0237 67.409 11.1713C67.384 11.0464 67.359 10.9215 67.3332 10.7928C66.9563 9.023 66.3257 7.32282 65.601 5.66842C65.553 5.66842 65.505 5.66842 65.4556 5.66842ZM54.2623 11.062C54.0752 11.4132 53.891 11.7655 53.7081 12.1188C53.6563 12.2154 53.6045 12.312 53.5511 12.4115C52.8114 13.8543 52.5808 15.3289 52.5906 16.9384C52.5915 17.1022 52.5925 17.2659 52.5935 17.4345C52.6434 19.7772 53.1014 23.892 54.8438 25.6392C55.2636 24.6823 55.6796 23.7237 56.0922 22.7636C56.2266 22.4512 56.3616 22.139 56.4971 21.827C56.6842 21.395 56.8682 20.9618 57.0516 20.5281C57.1095 20.3957 57.1673 20.2633 57.227 20.1269C57.2791 20.002 57.3312 19.8772 57.3849 19.7486C57.4312 19.6401 57.4775 19.5317 57.5253 19.42C57.7258 18.5719 57.3138 17.7722 56.9948 17.0011C56.9483 16.8868 56.9018 16.7724 56.854 16.6546C56.7057 16.2903 56.5561 15.9265 56.4065 15.5627C56.3082 15.3217 56.2099 15.0806 56.1118 14.8396C55.5976 13.5781 55.0779 12.319 54.5531 11.062C54.4571 11.062 54.3612 11.062 54.2623 11.062ZM7.74484 11.2078C7.97876 11.8707 8.31857 12.4378 8.68973 13.0299C8.75411 13.1327 8.81849 13.2354 8.88482 13.3413C9.95796 15.0287 11.2421 16.545 12.542 18.0591C13.313 17.8199 13.8969 17.3286 14.5317 16.8473C14.7774 16.6631 15.0233 16.479 15.2693 16.295C15.3947 16.201 15.5202 16.107 15.6494 16.0101C16.3658 15.4777 17.0921 14.9589 17.8187 14.4405C17.9213 14.3668 18.0238 14.2931 18.1295 14.2172C18.2193 14.1531 18.309 14.0889 18.4015 14.0229C18.6501 13.8295 18.8632 13.6191 19.0835 13.3944C16.7881 12.9092 14.4899 12.4403 12.1879 11.9877C11.6866 11.889 11.1855 11.7897 10.6843 11.6904C10.3637 11.6272 10.0432 11.5641 9.72263 11.501C9.57366 11.4714 9.42469 11.4418 9.2712 11.4113C9.13407 11.3845 8.99693 11.3577 8.85565 11.33C8.73543 11.3063 8.61522 11.2826 8.49136 11.2582C8.16161 11.1961 8.16161 11.1961 7.74484 11.2078ZM20.9733 14.7336C20.7608 14.8958 20.5483 15.0577 20.3356 15.2194C20.2249 15.3035 20.1143 15.3876 20.0003 15.4742C19.467 15.8758 18.9257 16.2661 18.3839 16.656C17.0095 17.6466 15.6471 18.6532 14.2864 19.6626C14.7704 20.3369 15.3423 20.8114 15.9944 21.3116C16.1556 21.4357 16.1556 21.4357 16.32 21.5623C17.3661 22.3448 18.4761 22.9216 19.6649 23.4527C20.9198 22.5618 22.1626 21.6558 23.399 20.7393C24.1858 20.1566 24.9765 19.5796 25.7704 19.0066C26.715 18.324 27.6571 17.6381 28.5959 16.9476C28.7729 16.818 28.7729 16.818 28.9534 16.6859C29.0631 16.605 29.1728 16.5241 29.2859 16.4408C29.3826 16.3696 29.4794 16.2985 29.5791 16.2252C29.8317 16.0254 30.0546 15.8139 30.2768 15.5809C28.2995 15.1594 26.3192 14.7555 24.3349 14.3692C24.2345 14.3496 24.1342 14.33 24.0308 14.3097C23.7449 14.2539 23.459 14.1985 23.1731 14.1431C23.008 14.1111 22.8429 14.0791 22.6729 14.0462C21.892 13.909 21.5716 14.2708 20.9733 14.7336ZM32.6867 16.5273C32.5866 16.6053 32.4866 16.6833 32.3835 16.7636C32.2221 16.8907 32.2221 16.8907 32.0575 17.0204C31.2856 17.6208 30.5118 18.2142 29.7135 18.7788C28.9126 19.346 28.1214 19.9252 27.3331 20.5099C26.291 21.2825 25.244 22.0477 24.1913 22.8057C23.4998 23.3044 22.8158 23.8123 22.1362 24.3273C24.7891 25.7475 28.7946 24.8315 31.5192 24.0044C35.4755 22.7354 39.0564 20.5751 42.3422 18.0591C41.8817 17.8003 41.4561 17.6865 40.9387 17.5872C40.7738 17.5552 40.6089 17.5231 40.439 17.49C40.173 17.4397 40.173 17.4397 39.9016 17.3883C39.7192 17.3531 39.5368 17.3179 39.3489 17.2817C38.9636 17.2075 38.5782 17.1337 38.1927 17.0604C37.6982 16.9665 37.2039 16.8715 36.7096 16.7761C36.2383 16.6853 35.7668 16.5949 35.2953 16.5045C35.1174 16.4704 34.9395 16.4362 34.7562 16.401C34.5922 16.3699 34.4282 16.3387 34.2592 16.3066C34.1144 16.279 33.9696 16.2514 33.8204 16.2229C33.269 16.1289 33.1209 16.1855 32.6867 16.5273ZM66.643 16.38C66.471 16.4508 66.471 16.4508 66.2957 16.5232C66.1713 16.5751 66.047 16.627 65.919 16.6805C65.7905 16.7338 65.6621 16.7871 65.5298 16.8419C65.2569 16.9553 64.9842 17.0689 64.7115 17.1828C64.2987 17.355 63.8855 17.5262 63.4721 17.6972C63.2066 17.8077 62.941 17.9183 62.6755 18.0289C62.5535 18.0793 62.4315 18.1298 62.3059 18.1818C62.0685 18.2812 61.8319 18.3829 61.5963 18.4866C61.3512 18.5936 61.1033 18.6945 60.8535 18.7901C59.9585 19.1673 59.5808 19.5477 59.2005 20.4425C59.1476 20.5809 59.0947 20.7192 59.0401 20.8618C58.9809 21.0053 58.9216 21.1488 58.8606 21.2967C58.6739 21.7525 58.4942 22.2106 58.3144 22.6691C58.1884 22.9783 58.062 23.2873 57.9351 23.5962C57.7058 24.16 57.4771 24.7239 57.2548 25.2905C57.1878 25.4606 57.1878 25.4606 57.1194 25.6341C57.0021 25.9482 57.0021 25.9482 57.0243 26.3681C59.983 25.505 62.5577 23.8711 64.7288 21.7034C64.8468 21.5901 64.9649 21.4768 65.0865 21.36C66.2776 20.1432 67.4348 18.2115 67.5089 16.4647C67.5029 16.3655 67.4969 16.2663 67.4907 16.164C67.1522 16.164 66.9557 16.2503 66.643 16.38ZM40.1617 22.1407C39.7665 22.3441 39.7665 22.3441 39.3349 22.6418C36.1943 24.6624 32.5997 26.0991 28.923 26.7325C27.9881 26.9095 27.4864 27.2025 26.7879 27.8258C26.4953 28.043 26.2014 28.2585 25.9067 28.4727C24.4539 29.5722 23.1182 30.9264 22.7177 32.7821C22.5496 34.2614 22.8307 35.5903 23.7443 36.7817C24.6007 37.6659 25.6517 37.9125 26.8515 37.957C28.1551 37.9246 29.4412 37.7115 30.7276 37.5086C33.2301 37.1173 33.2301 37.1173 34.2278 37.6843C35.2513 38.4573 35.4514 39.7478 35.6553 40.9454C35.7225 41.7137 35.7425 42.4798 35.7553 43.2504C35.7601 43.4467 35.7651 43.6431 35.7703 43.8395C35.795 44.8412 35.8028 45.8425 35.8007 46.8446C35.6626 49.9046 35.6626 49.9046 36.6593 52.6499C37.1078 53.0166 37.4039 53.0445 37.9812 53.0445C40.1009 52.4188 41.5737 50.8129 42.6818 48.9845C43.3985 47.6246 43.2914 46.3485 43.0691 44.863C42.7127 42.3591 42.7725 40.0457 44.232 37.8841C45.6402 36.1497 47.7115 35.0624 49.6106 33.9483C49.148 30.1332 45.5818 26.0555 42.7235 23.758C41.5213 22.8079 41.5213 22.8079 40.1617 22.1407ZM8.47168 34.8229C8.37683 35.2813 8.28332 35.7399 8.19003 36.1986C8.15026 36.3907 8.15026 36.3907 8.10968 36.5867C6.97855 42.1756 8.31492 47.9895 11.379 52.7529C12.2981 54.091 13.3753 55.3077 14.5771 56.3972C14.6251 56.3972 14.673 56.3972 14.7225 56.3972C14.8561 54.7555 14.2853 53.2597 13.5232 51.8418C12.8172 50.4988 12.8078 49.5891 13.2415 48.1246C13.6365 46.9624 14.1889 45.8631 14.7337 44.7658C15.4699 43.3648 15.4699 43.3648 15.7315 41.8331C15.5525 41.4345 15.3989 41.3536 15.0041 41.1731C14.8739 41.1124 14.7436 41.0517 14.6095 40.9892C14.2629 40.8489 13.9221 40.7231 13.568 40.6054C13.4677 40.571 13.3674 40.5366 13.264 40.5012C13.0675 40.435 12.8698 40.3724 12.6708 40.3142C11.0368 39.7661 10.2994 38.0698 9.56193 36.636C9.46935 36.4593 9.37661 36.2826 9.28369 36.1061C9.05981 35.6792 8.83766 35.2515 8.61705 34.8229C8.56907 34.8229 8.5211 34.8229 8.47168 34.8229Z" fill="#6A18A4"/>
</svg>
