<svg width="437" height="552" viewBox="0 0 437 552" fill="none" xmlns="http://www.w3.org/2000/svg">
<path d="M3.59961 8.59998C3.59961 5.83855 5.83819 3.59998 8.59961 3.59998H427.6C430.361 3.59998 432.6 5.83855 432.6 8.59998V542.623C432.6 545.384 430.361 547.623 427.6 547.623H8.59962C5.83819 547.623 3.59961 545.384 3.59961 542.623V8.59998Z" fill="url(#paint0_linear_5756_4580)"/>
<path d="M3.59961 3.59998H427.6C430.361 3.59998 432.6 5.83855 432.6 8.59998V487.402C432.6 490.164 430.361 492.402 427.6 492.402H3.59961V3.59998Z" fill="#BEA7E3"/>
<path d="M222.245 110.973C222.278 111.364 222.18 111.754 221.952 112.145C221.724 112.535 221.513 112.877 221.317 113.17C221.22 113.268 221.024 113.414 220.731 113.61C220.471 113.772 220.178 113.935 219.853 114.098C219.56 114.261 219.267 114.44 218.974 114.635C218.713 114.798 218.55 114.928 218.485 115.026C218.323 115.286 218.127 115.628 217.899 116.051C217.704 116.474 217.525 116.816 217.362 117.076C216.907 117.662 216.451 118.118 215.995 118.444C215.572 118.769 215.116 119.062 214.628 119.323C214.172 119.55 213.684 119.778 213.163 120.006C212.642 120.234 212.073 120.559 211.454 120.983L211.063 122.203C210.38 122.138 209.892 122.171 209.599 122.301C209.338 122.399 209.143 122.561 209.013 122.789C208.915 123.017 208.817 123.278 208.72 123.571C208.655 123.864 208.492 124.156 208.231 124.449C208.101 124.612 207.873 124.775 207.548 124.938C207.255 125.101 207.027 125.198 206.864 125.231C206.604 125.231 206.376 125.214 206.181 125.182C206.018 125.149 205.871 125.133 205.741 125.133C205.644 125.133 205.562 125.182 205.497 125.28C205.432 125.345 205.399 125.507 205.399 125.768H205.302C204.944 125.768 204.618 125.849 204.325 126.012C204.032 126.207 203.739 126.386 203.446 126.549C203.153 126.712 202.86 126.809 202.567 126.842C202.274 126.907 201.949 126.826 201.591 126.598H201.542C201.542 125.817 201.396 125.247 201.103 124.889C200.842 124.498 200.533 124.156 200.175 123.864C199.817 123.538 199.475 123.18 199.149 122.789C198.856 122.399 198.677 121.813 198.612 121.031C198.547 120.283 198.629 119.518 198.856 118.737C199.117 117.955 199.247 117.19 199.247 116.442C199.247 115.986 199.166 115.595 199.003 115.27C198.84 114.944 198.759 114.602 198.759 114.244C198.759 113.919 198.84 113.642 199.003 113.414C199.198 113.186 199.377 112.975 199.54 112.78C199.735 112.584 199.849 112.356 199.882 112.096C199.947 111.836 199.849 111.51 199.589 111.119V111.071C199.589 110.778 199.654 110.42 199.784 109.996C199.914 109.541 200.012 109.166 200.077 108.873C200.272 108.059 200.451 107.262 200.614 106.481C200.81 105.667 200.972 104.869 201.103 104.088C201.298 102.884 201.493 101.712 201.688 100.573C201.884 99.4006 202.177 98.245 202.567 97.1057L202.616 97.0569L202.274 96.5686H202.421C202.877 96.4384 203.17 96.1617 203.3 95.7385C203.463 95.3153 203.56 94.8596 203.593 94.3713C203.625 93.8831 203.642 93.4273 203.642 93.0042C203.674 92.5484 203.821 92.2229 204.081 92.0276C203.918 91.8648 203.756 91.7021 203.593 91.5393C203.463 91.344 203.316 91.165 203.153 91.0022C203.121 91.0347 203.104 91.0836 203.104 91.1487C202.812 92.0927 202.356 92.9065 201.737 93.5901C201.151 94.2411 200.533 94.8922 199.882 95.5432C199.263 96.1617 198.694 96.8453 198.173 97.594C197.652 98.3101 197.31 99.2216 197.147 100.328C196.594 101.272 196.09 102.249 195.634 103.258C195.211 104.267 194.755 105.276 194.267 106.285C193.778 107.295 193.241 108.271 192.655 109.215C192.102 110.127 191.435 110.957 190.653 111.705C190.653 111.77 190.653 111.852 190.653 111.949C190.686 112.047 190.702 112.128 190.702 112.194C190.702 112.487 190.637 112.731 190.507 112.926C190.377 113.121 190.23 113.317 190.067 113.512C189.905 113.675 189.726 113.854 189.53 114.049C189.335 114.212 189.172 114.391 189.042 114.586C189.042 115.107 188.912 115.595 188.651 116.051C188.391 116.474 188.098 116.881 187.772 117.272C187.479 117.662 187.203 118.053 186.942 118.444C186.682 118.834 186.552 119.225 186.552 119.615C186.552 120.429 186.405 121.048 186.112 121.471C185.819 121.862 185.461 122.187 185.038 122.448C184.647 122.675 184.224 122.92 183.769 123.18C183.345 123.408 182.987 123.75 182.694 124.205V124.254C182.597 124.222 182.483 124.238 182.353 124.303C182.222 124.368 182.076 124.352 181.913 124.254C181.75 124.189 181.636 124.026 181.571 123.766C181.539 123.473 181.506 123.164 181.474 122.838C181.441 122.513 181.409 122.22 181.376 121.959C181.343 121.699 181.278 121.536 181.181 121.471C181.311 121.373 181.49 121.048 181.718 120.494C181.946 119.941 182.157 119.323 182.353 118.639C182.58 117.955 182.776 117.304 182.938 116.686C183.134 116.067 183.264 115.66 183.329 115.465C183.459 115.042 183.573 114.619 183.671 114.196C183.801 113.772 183.948 113.349 184.11 112.926C184.175 112.763 184.241 112.584 184.306 112.389C184.403 112.161 184.468 111.966 184.501 111.803C184.534 111.543 184.55 111.266 184.55 110.973C184.582 110.68 184.615 110.387 184.647 110.094L184.745 110.045C185.006 110.045 185.185 109.931 185.282 109.703C185.412 109.443 185.494 109.166 185.526 108.873C185.559 108.548 185.559 108.222 185.526 107.897C185.526 107.571 185.543 107.327 185.575 107.164C185.836 105.602 186.177 103.99 186.601 102.33C187.024 100.638 187.235 99.01 187.235 97.4475V96.7151C187.268 96.1943 187.317 95.6571 187.382 95.1038C187.447 94.5504 187.463 93.997 187.431 93.4436C187.431 92.8577 187.349 92.3043 187.187 91.7834C187.056 91.2626 186.828 90.7743 186.503 90.3186V90.2698C185.461 90.2698 184.501 90.5953 183.622 91.2463C182.743 91.8648 181.929 92.6461 181.181 93.5901C180.465 94.5015 179.83 95.4781 179.276 96.5198C178.723 97.5289 178.267 98.4241 177.909 99.2053L177.812 99.303L177.519 98.8635L177.47 98.9124C176.916 99.303 176.526 99.7262 176.298 100.182C176.103 100.605 175.907 101.126 175.712 101.744C175.517 102.395 175.272 103.014 174.979 103.6C174.719 104.186 174.263 104.609 173.612 104.869L173.563 104.918C173.563 105.667 173.45 106.237 173.222 106.627C172.994 106.985 172.733 107.311 172.44 107.604C172.18 107.897 171.936 108.239 171.708 108.629C171.48 108.987 171.366 109.557 171.366 110.338L171.317 110.387C170.666 110.875 170.211 111.396 169.95 111.949C169.69 112.503 169.429 113.138 169.169 113.854C168.941 114.407 168.729 114.944 168.534 115.465C168.339 115.953 168.046 116.409 167.655 116.832L167.704 116.93C167.899 117.028 167.965 117.223 167.899 117.516C167.867 117.776 167.867 117.988 167.899 118.151C167.574 118.704 167.248 119.225 166.923 119.713C166.597 120.169 166.304 120.641 166.044 121.129C165.816 121.585 165.621 122.073 165.458 122.594C165.295 123.115 165.214 123.717 165.214 124.401V124.449H165.116C164.563 124.515 164.172 124.726 163.944 125.084C163.716 125.41 163.537 125.8 163.407 126.256C163.31 126.712 163.244 127.168 163.212 127.623C163.179 128.079 163.082 128.437 162.919 128.698C162.789 128.958 162.561 129.072 162.235 129.039C161.91 129.039 161.422 128.779 160.771 128.258L159.452 127.281C159.81 126.5 160.152 125.719 160.478 124.938C160.771 124.124 161.031 123.294 161.259 122.448C161.487 121.601 161.731 120.771 161.991 119.957C162.252 119.143 162.642 118.362 163.163 117.614V117.565C163.163 117.434 163.196 117.223 163.261 116.93C163.358 116.604 163.456 116.263 163.554 115.905C163.651 115.546 163.749 115.221 163.847 114.928C163.977 114.602 164.075 114.358 164.14 114.196C164.4 113.642 164.628 113.105 164.823 112.584C165.051 112.063 165.165 111.477 165.165 110.826C165.458 110.371 165.686 109.882 165.849 109.362C166.011 108.808 166.158 108.255 166.288 107.701C166.451 107.148 166.63 106.611 166.825 106.09C167.053 105.569 167.362 105.097 167.753 104.674C167.753 104.642 167.802 104.43 167.899 104.039C168.03 103.649 168.16 103.226 168.29 102.77C168.42 102.314 168.534 101.875 168.632 101.451C168.762 101.028 168.843 100.768 168.876 100.67C169.234 99.4983 169.527 98.3915 169.755 97.3499C170.015 96.2756 170.146 95.12 170.146 93.8831C170.146 93.6226 170.129 93.3622 170.097 93.1018C170.064 92.8088 170.064 92.5321 170.097 92.2717C170.65 91.4254 171.122 90.4976 171.513 89.4885C171.903 88.4794 172.18 87.4866 172.343 86.51V86.4612C172.245 86.2659 172.099 86.0055 171.903 85.6799C171.708 85.3544 171.529 85.1428 171.366 85.0452C171.008 84.8824 170.634 84.8824 170.243 85.0452C169.853 85.1754 169.446 85.3056 169.022 85.4358C168.599 85.566 168.192 85.5986 167.802 85.5334C167.411 85.4683 167.053 85.1428 166.728 84.5569V84.4592C166.304 84.622 165.93 84.8173 165.604 85.0452C165.312 85.2405 164.888 85.2405 164.335 85.0452L164.286 84.9963C164.286 84.6383 164.188 84.329 163.993 84.0686C163.798 83.7756 163.619 83.4827 163.456 83.1897C163.293 83.385 163.098 83.4827 162.87 83.4827C162.642 83.4827 162.398 83.4501 162.138 83.385C161.877 83.3199 161.633 83.2385 161.405 83.1409C161.145 83.0107 160.933 82.913 160.771 82.8479L160.673 82.7991C160.575 82.3759 160.396 82.0667 160.136 81.8713C159.875 81.6435 159.599 81.4482 159.306 81.2854C159.013 81.1226 158.769 80.9436 158.573 80.7483C158.345 80.5204 158.231 80.1949 158.231 79.7717C158.231 79.2834 158.362 78.8603 158.622 78.5022C158.85 78.1116 159.143 77.8349 159.501 77.6721C159.859 77.5094 160.25 77.4605 160.673 77.5256C161.096 77.5907 161.487 77.8023 161.845 78.1604V78.2092C162.007 78.372 162.252 78.5673 162.577 78.7952C162.903 79.023 163.228 79.2672 163.554 79.5276C163.912 79.7555 164.254 79.9508 164.579 80.1135C164.937 80.2763 165.23 80.3577 165.458 80.3577C165.588 80.26 165.702 80.2437 165.8 80.3088C165.93 80.3414 166.028 80.4065 166.093 80.5042C166.19 80.6018 166.288 80.7157 166.386 80.8459C166.483 80.9436 166.581 80.9924 166.679 80.9924C166.907 80.9273 167.053 80.7808 167.118 80.553L167.167 80.6018C167.46 80.6995 167.769 80.6669 168.095 80.5042C168.453 80.3088 168.811 80.1298 169.169 79.967C169.56 79.7717 169.95 79.6741 170.341 79.6741C170.764 79.6415 171.171 79.8368 171.562 80.26C171.627 80.1624 171.757 80.081 171.952 80.0159C172.147 79.9508 172.31 79.9182 172.44 79.9182C172.864 79.9182 173.238 80.1135 173.563 80.5042C174.312 81.4482 174.768 82.5061 174.931 83.678C175.093 84.8499 175.175 86.0055 175.175 87.1448V88.5608V88.6096C174.914 89.0979 174.687 89.5862 174.491 90.0745C174.328 90.5627 174.247 91.0836 174.247 91.637C174.247 91.7346 174.247 91.8648 174.247 92.0276C174.28 92.1903 174.312 92.3694 174.345 92.5647C174.377 92.7275 174.394 92.8902 174.394 93.053C174.426 93.1832 174.442 93.2646 174.442 93.2971C174.345 93.8831 174.198 94.469 174.003 95.0549C173.808 95.6409 173.612 96.2105 173.417 96.7639C173.059 97.773 172.75 98.7984 172.489 99.8401C172.229 100.849 172.066 101.891 172.001 102.965C172.652 101.989 172.978 100.865 172.978 99.5959L173.026 99.5471C173.84 98.8961 174.507 98.1962 175.028 97.4475C175.549 96.6663 176.054 95.8362 176.542 94.9573C177.095 93.9807 177.698 93.0204 178.349 92.0764C179.032 91.1324 179.927 90.4488 181.034 90.0256C181.392 89.6676 181.718 89.3095 182.011 88.9514C182.336 88.5933 182.727 88.3329 183.183 88.1702L183.231 88.1213L183.524 88.6096C183.655 88.512 183.752 88.4143 183.817 88.3167C183.915 88.219 184.013 88.1213 184.11 88.0237C184.436 87.6982 184.631 87.4866 184.696 87.3889C184.761 87.2587 184.794 86.9657 184.794 86.51C185.282 86.1194 185.722 85.9078 186.112 85.8752C186.535 85.8427 186.91 85.9241 187.235 86.1194C187.593 86.2821 187.951 86.51 188.31 86.803C188.668 87.0959 189.042 87.3564 189.433 87.5842V87.6331C189.693 89.2932 189.921 90.9371 190.116 92.5647C190.344 94.1923 190.458 95.8525 190.458 97.5452C190.458 98.4241 190.425 99.2216 190.36 99.9377C190.328 100.621 190.246 101.305 190.116 101.989C190.019 102.64 189.872 103.307 189.677 103.99C189.514 104.674 189.319 105.423 189.091 106.237V106.285C189.547 106.774 189.953 106.936 190.312 106.774C190.702 106.611 191.06 106.318 191.386 105.895C191.711 105.439 192.004 104.967 192.265 104.479C192.558 103.958 192.834 103.567 193.095 103.307H193.144C193.111 102.981 193.209 102.591 193.437 102.135C193.664 101.647 193.925 101.158 194.218 100.67C194.511 100.182 194.771 99.7262 194.999 99.303C195.227 98.8472 195.325 98.5217 195.292 98.3264C195.943 97.3824 196.529 96.4547 197.05 95.5432C197.603 94.5992 198.108 93.6226 198.563 92.6135C198.726 92.7437 198.856 92.7437 198.954 92.6135C199.052 92.4833 199.149 92.3694 199.247 92.2717H199.296C199.426 91.4905 199.687 90.8557 200.077 90.3674C200.5 89.8466 200.956 89.3909 201.444 89.0002C201.965 88.5771 202.502 88.1702 203.056 87.7795C203.609 87.3889 204.114 86.9332 204.569 86.4124C205.285 86.4124 205.92 86.5588 206.474 86.8518C207.06 87.1122 207.385 87.6656 207.45 88.512C207.287 89.0328 207.19 89.5699 207.157 90.1233C207.157 90.6441 207.141 91.1812 207.108 91.7346C207.108 92.288 207.076 92.8414 207.011 93.3948C206.946 93.9156 206.799 94.4202 206.571 94.9084C206.571 94.9736 206.522 95.1851 206.425 95.5432C206.327 95.9013 206.213 96.3082 206.083 96.7639C205.985 97.1871 205.871 97.594 205.741 97.9846C205.611 98.3752 205.53 98.6194 205.497 98.717C205.041 100.117 204.683 101.451 204.423 102.721C204.162 103.958 204.032 105.341 204.032 106.871C203.902 107.002 203.772 107.132 203.642 107.262C203.544 107.392 203.43 107.506 203.3 107.604L203.349 107.653C203.479 107.978 203.544 108.271 203.544 108.531C203.544 108.89 203.446 109.28 203.251 109.703C203.088 110.127 202.925 110.55 202.763 110.973C202.632 111.364 202.567 111.77 202.567 112.194C202.567 112.584 202.763 112.942 203.153 113.268C203.153 113.789 203.072 114.358 202.909 114.977C202.746 115.563 202.6 116.165 202.47 116.783C202.372 117.369 202.323 117.955 202.323 118.541C202.323 119.127 202.486 119.664 202.812 120.153L202.86 120.201C203.381 120.201 203.772 120.153 204.032 120.055C204.293 119.957 204.504 119.892 204.667 119.86C204.862 119.827 205.074 119.86 205.302 119.957C205.53 120.022 205.888 120.234 206.376 120.592L209.159 118.688C209.55 118.395 209.892 118.086 210.185 117.76C210.51 117.434 210.836 117.142 211.161 116.881C211.487 116.621 211.845 116.425 212.235 116.295C212.626 116.165 213.098 116.149 213.651 116.246L213.7 116.149C214.156 115.498 214.726 114.944 215.409 114.489C216.125 114.033 216.874 113.626 217.655 113.268C218.437 112.877 219.234 112.519 220.048 112.194C220.862 111.836 221.594 111.429 222.245 110.973ZM255.112 110.533C255.243 111.022 255.194 111.445 254.966 111.803C254.738 112.128 254.429 112.421 254.038 112.682C253.68 112.942 253.273 113.186 252.817 113.414C252.394 113.61 252.036 113.837 251.743 114.098C250.278 114.423 248.944 114.668 247.739 114.83C246.567 114.961 245.265 115.14 243.833 115.367C243.41 115.433 243.003 115.433 242.612 115.367C242.254 115.27 241.88 115.237 241.489 115.27C241.261 115.27 241.05 115.27 240.854 115.27C240.659 115.237 240.464 115.237 240.269 115.27C239.52 115.335 239.032 115.595 238.804 116.051C238.576 116.474 238.381 116.979 238.218 117.565C238.088 118.118 237.909 118.655 237.681 119.176C237.485 119.664 237.046 120.006 236.362 120.201C236.297 120.364 236.313 120.511 236.411 120.641C236.541 120.771 236.639 120.885 236.704 120.983C236.151 121.145 235.776 121.438 235.581 121.862C235.418 122.285 235.272 122.708 235.142 123.131C235.011 123.554 234.816 123.912 234.556 124.205C234.328 124.498 233.872 124.596 233.188 124.498C232.179 125.573 230.991 126.435 229.624 127.086C228.257 127.77 226.841 128.209 225.376 128.405C225.116 128.274 224.855 128.112 224.595 127.916C224.367 127.721 224.123 127.542 223.862 127.379C223.634 127.216 223.374 127.086 223.081 126.989C222.821 126.923 222.511 126.923 222.153 126.989C222.121 126.305 221.991 125.67 221.763 125.084C221.502 124.498 221.177 123.945 220.786 123.424C220.721 122.838 220.802 122.301 221.03 121.813C221.226 121.292 221.437 120.787 221.665 120.299C221.893 119.811 222.088 119.323 222.251 118.834C222.381 118.313 222.349 117.727 222.153 117.076C222.479 116.881 222.69 116.653 222.788 116.393C222.918 116.132 223 115.872 223.032 115.612C223.097 115.319 223.179 115.058 223.276 114.83C223.374 114.57 223.602 114.358 223.96 114.196C223.7 113.414 223.732 112.845 224.058 112.487C224.416 112.096 224.839 111.754 225.327 111.461C225.815 111.168 226.271 110.843 226.694 110.485C227.118 110.127 227.28 109.589 227.183 108.873C227.378 108.678 227.606 108.515 227.866 108.385C228.127 108.255 228.371 108.141 228.599 108.043C228.859 107.913 229.103 107.783 229.331 107.653C229.559 107.522 229.771 107.343 229.966 107.115C229.738 106.953 229.624 106.79 229.624 106.627C229.657 106.464 229.705 106.302 229.771 106.139C229.836 105.944 229.901 105.748 229.966 105.553C230.063 105.358 230.063 105.162 229.966 104.967C230.845 105.097 231.61 104.983 232.261 104.625C232.944 104.235 233.579 103.844 234.165 103.453C234.784 103.063 235.402 102.786 236.021 102.623C236.639 102.461 237.355 102.656 238.169 103.209C238.234 103.437 238.332 103.779 238.462 104.235C238.625 104.658 238.771 105.097 238.901 105.553C239.064 106.009 239.211 106.448 239.341 106.871C239.471 107.295 239.552 107.604 239.585 107.799C239.585 107.962 239.585 108.222 239.585 108.58C239.585 108.938 239.585 109.329 239.585 109.752C239.585 110.143 239.585 110.517 239.585 110.875C239.585 111.233 239.585 111.51 239.585 111.705C240.529 112.259 241.473 112.601 242.417 112.731C243.361 112.828 244.305 112.601 245.249 112.047C245.607 112.373 245.949 112.47 246.274 112.34C246.6 112.177 246.909 111.998 247.202 111.803C247.528 111.608 247.853 111.51 248.179 111.51C248.504 111.477 248.83 111.738 249.155 112.291C249.611 111.868 250.083 111.608 250.571 111.51C251.06 111.38 251.564 111.315 252.085 111.315C252.606 111.282 253.11 111.233 253.599 111.168C254.119 111.103 254.624 110.892 255.112 110.533ZM236.362 111.364C236.362 110.875 236.444 110.354 236.606 109.801C236.769 109.248 236.899 108.711 236.997 108.19C237.095 107.636 237.078 107.115 236.948 106.627C236.851 106.139 236.541 105.699 236.021 105.309C235.662 105.504 235.369 105.781 235.142 106.139C234.914 106.464 234.686 106.806 234.458 107.164C234.23 107.49 233.953 107.767 233.628 107.994C233.335 108.222 232.944 108.287 232.456 108.19C232.293 108.58 232.293 108.906 232.456 109.166C232.619 109.394 232.814 109.622 233.042 109.85C233.27 110.045 233.481 110.257 233.677 110.485C233.905 110.712 233.986 111.005 233.921 111.364C234.051 111.461 234.23 111.559 234.458 111.656C234.686 111.722 234.914 111.77 235.142 111.803C235.402 111.803 235.646 111.77 235.874 111.705C236.102 111.64 236.265 111.526 236.362 111.364ZM236.021 115.27C235.369 115.27 234.8 115.123 234.312 114.83C233.856 114.505 233.384 114.147 232.896 113.756C232.44 113.365 231.951 113.007 231.431 112.682C230.942 112.324 230.34 112.112 229.624 112.047C229.331 112.438 228.989 112.812 228.599 113.17C228.208 113.496 227.866 113.854 227.573 114.244C227.28 114.635 227.069 115.058 226.938 115.514C226.841 115.97 226.922 116.49 227.183 117.076C226.434 117.434 225.929 117.955 225.669 118.639C225.409 119.29 225.229 120.006 225.132 120.787C225.067 121.569 225.002 122.35 224.937 123.131C224.871 123.912 224.66 124.612 224.302 125.231L225.376 124.498C225.506 124.563 225.604 124.661 225.669 124.791C225.767 124.921 225.783 125.068 225.718 125.231C225.978 124.97 226.271 124.775 226.597 124.645C226.922 124.482 227.248 124.368 227.573 124.303C227.931 124.205 228.273 124.124 228.599 124.059C228.957 123.994 229.299 123.896 229.624 123.766C230.438 124.222 231.024 124.319 231.382 124.059C231.74 123.798 232.033 123.408 232.261 122.887C232.489 122.366 232.733 121.829 232.993 121.276C233.254 120.69 233.677 120.332 234.263 120.201L233.921 119.86C234.474 119.176 234.963 118.476 235.386 117.76C235.841 117.011 236.053 116.181 236.021 115.27ZM281.974 124.108C282.006 124.498 281.941 124.791 281.778 124.987C281.616 125.182 281.388 125.328 281.095 125.426C280.834 125.524 280.541 125.605 280.216 125.67C279.89 125.703 279.614 125.784 279.386 125.914C278.442 125.817 277.53 125.686 276.651 125.524C275.772 125.328 274.959 125.052 274.21 124.694C273.461 124.303 272.778 123.798 272.159 123.18C271.573 122.561 271.069 121.78 270.646 120.836C271.069 120.153 271.215 119.404 271.085 118.59C270.955 117.744 270.825 116.93 270.694 116.149C270.597 115.367 270.613 114.651 270.743 114C270.906 113.349 271.476 112.828 272.452 112.438C272.387 112.08 272.387 111.689 272.452 111.266C272.55 110.843 272.436 110.485 272.11 110.192C270.971 110.582 269.978 111.136 269.132 111.852C268.285 112.568 267.472 113.349 266.69 114.196C265.942 115.042 265.177 115.905 264.396 116.783C263.647 117.63 262.817 118.378 261.905 119.03C261.482 119.062 261.026 119.046 260.538 118.981C260.082 118.883 259.692 119.013 259.366 119.371C259.399 119.599 259.48 119.795 259.61 119.957C259.741 120.12 259.838 120.283 259.903 120.446C260.001 120.608 260.05 120.787 260.05 120.983C260.05 121.145 259.936 121.341 259.708 121.569C259.382 121.894 259.024 122.171 258.634 122.399C258.276 122.594 257.918 122.822 257.56 123.082C257.234 123.31 256.957 123.587 256.729 123.912C256.502 124.238 256.388 124.677 256.388 125.231C256.192 125.133 256.013 125.117 255.851 125.182C255.688 125.214 255.541 125.296 255.411 125.426C255.248 125.556 255.102 125.703 254.972 125.865C254.841 126.028 254.711 126.158 254.581 126.256C254.516 126.419 254.532 126.549 254.63 126.647C254.728 126.777 254.841 126.907 254.972 127.037C254.841 127.395 254.679 127.607 254.483 127.672C254.256 127.77 254.028 127.786 253.8 127.721C253.539 127.656 253.295 127.542 253.067 127.379C252.807 127.249 252.579 127.135 252.384 127.037C252.286 126.614 252.221 126.126 252.188 125.573C252.156 125.019 252.172 124.482 252.237 123.961C252.302 123.408 252.433 122.887 252.628 122.399C252.823 121.91 253.116 121.503 253.507 121.178C253.637 121.08 253.718 121.031 253.751 121.031C253.784 120.999 253.8 120.983 253.8 120.983C253.8 120.983 253.816 120.983 253.849 120.983C253.881 120.95 253.946 120.885 254.044 120.787C254.304 120.494 254.483 120.185 254.581 119.86C254.679 119.502 254.76 119.143 254.825 118.785C254.89 118.427 254.988 118.086 255.118 117.76C255.216 117.402 255.411 117.093 255.704 116.832C255.574 116.311 255.574 115.856 255.704 115.465C255.867 115.042 256.062 114.651 256.29 114.293C256.55 113.903 256.795 113.528 257.022 113.17C257.283 112.78 257.446 112.356 257.511 111.901C257.543 111.738 257.543 111.591 257.511 111.461C257.511 111.298 257.511 111.136 257.511 110.973C257.446 110.452 257.494 110.061 257.657 109.801C257.853 109.508 258.08 109.28 258.341 109.117C258.634 108.922 258.927 108.727 259.22 108.531C259.545 108.336 259.822 108.043 260.05 107.653C260.994 108.108 261.547 108.727 261.71 109.508C261.905 110.257 261.97 111.103 261.905 112.047C261.352 112.405 260.929 112.91 260.636 113.561C260.343 114.179 260.147 114.781 260.05 115.367C260.115 115.563 260.196 115.677 260.294 115.709C260.424 115.709 260.554 115.693 260.685 115.66C260.847 115.595 260.994 115.53 261.124 115.465C261.254 115.4 261.384 115.367 261.515 115.367C262.687 114.554 263.842 113.642 264.981 112.633C266.153 111.624 267.065 110.468 267.716 109.166C268.66 108.711 269.555 108.19 270.401 107.604C271.248 106.985 272.175 106.53 273.185 106.237L274.308 105.114C274.47 105.374 274.666 105.439 274.894 105.309C275.121 105.146 275.349 104.967 275.577 104.772C275.805 104.576 276.017 104.462 276.212 104.43C276.44 104.397 276.651 104.625 276.847 105.114C277.172 105.96 277.254 106.79 277.091 107.604C276.928 108.385 276.668 109.166 276.31 109.948C275.984 110.696 275.642 111.461 275.284 112.242C274.926 113.024 274.715 113.821 274.649 114.635C274.649 114.83 274.649 115.042 274.649 115.27C274.649 115.465 274.633 115.677 274.601 115.905C274.535 116.588 274.438 117.337 274.308 118.151C274.21 118.932 274.259 119.648 274.454 120.299C274.617 120.885 274.959 121.406 275.479 121.862C276 122.317 276.456 122.773 276.847 123.229C277.075 123.196 277.302 123.212 277.53 123.278C277.758 123.343 277.97 123.408 278.165 123.473C278.393 123.538 278.604 123.571 278.8 123.571C278.995 123.538 279.19 123.424 279.386 123.229C279.614 123.131 279.825 123.147 280.021 123.278C280.248 123.375 280.46 123.505 280.655 123.668C280.851 123.831 281.046 123.977 281.241 124.108C281.469 124.205 281.713 124.205 281.974 124.108ZM158.128 220.194C157.835 221.007 157.379 221.756 156.761 222.44C156.175 223.123 155.54 223.791 154.856 224.442C154.173 225.093 153.489 225.744 152.806 226.395C152.155 227.013 151.601 227.664 151.146 228.348C150.853 228.25 150.592 228.283 150.364 228.446C150.169 228.608 149.99 228.82 149.827 229.08C149.469 229.211 149.095 229.357 148.704 229.52C148.346 229.65 147.988 229.813 147.63 230.008C147.304 230.203 146.995 230.431 146.702 230.692C146.442 230.952 146.246 231.278 146.116 231.668C145.498 231.701 144.961 231.831 144.505 232.059C144.049 232.254 143.61 232.466 143.187 232.694C142.763 232.921 142.308 233.117 141.819 233.28C141.331 233.41 140.745 233.426 140.062 233.328C139.931 233.817 139.752 234.045 139.524 234.012C139.329 234.012 139.118 233.963 138.89 233.865C138.662 233.735 138.434 233.67 138.206 233.67C137.978 233.638 137.799 233.865 137.669 234.354C137.441 234.354 137.197 234.337 136.937 234.305C136.709 234.305 136.481 234.305 136.253 234.305C136.058 234.337 135.862 234.403 135.667 234.5C135.504 234.598 135.374 234.777 135.276 235.037C134.332 235.037 133.34 235.102 132.298 235.233C131.256 235.363 130.215 235.428 129.173 235.428C128.164 235.428 127.171 235.298 126.194 235.037C125.25 234.809 124.404 234.321 123.655 233.573C123.395 233.312 123.183 233.052 123.021 232.791C122.858 232.531 122.679 232.238 122.483 231.912C122.386 231.75 122.288 231.603 122.19 231.473C122.093 231.31 121.995 231.131 121.897 230.936C121.637 230.35 121.491 229.748 121.458 229.129C121.425 228.511 121.425 227.892 121.458 227.274C121.458 226.655 121.458 226.053 121.458 225.467C121.458 224.849 121.344 224.246 121.116 223.66C121.116 223.107 121.246 222.619 121.507 222.196C121.735 221.74 121.995 221.3 122.288 220.877C122.581 220.454 122.858 220.031 123.118 219.608C123.379 219.152 123.525 218.664 123.558 218.143C123.33 217.589 123.346 217.052 123.606 216.531C123.867 216.011 124.127 215.522 124.388 215.067C124.485 214.904 124.567 214.741 124.632 214.578C124.729 214.383 124.827 214.188 124.925 213.992C125.022 213.797 125.153 213.602 125.315 213.406C125.478 213.211 125.625 213.032 125.755 212.869C126.178 212.283 126.601 211.714 127.024 211.16C127.448 210.607 127.871 210.037 128.294 209.451C128.587 209.061 128.864 208.67 129.124 208.28C129.417 207.889 129.694 207.482 129.954 207.059C130.084 206.864 130.215 206.652 130.345 206.424C130.475 206.164 130.605 205.952 130.735 205.789C130.898 205.594 131.175 205.382 131.565 205.155C131.956 204.894 132.265 204.699 132.493 204.569C133.144 204.243 133.844 204.015 134.593 203.885C135.341 203.722 136.041 203.706 136.692 203.836C137.343 203.966 137.913 204.276 138.401 204.764C138.922 205.22 139.264 205.887 139.427 206.766C139.492 207.189 139.508 207.612 139.476 208.035C139.476 208.426 139.492 208.817 139.524 209.207C139.59 209.598 139.703 209.972 139.866 210.33C140.029 210.656 140.322 210.965 140.745 211.258C140.387 211.811 140.078 212.381 139.817 212.967C139.59 213.553 139.329 214.139 139.036 214.725C139.362 214.823 139.492 215.018 139.427 215.311C139.394 215.571 139.394 215.815 139.427 216.043C138.971 216.401 138.662 216.841 138.499 217.362C138.336 217.882 138.206 218.42 138.108 218.973C138.011 219.494 137.881 219.998 137.718 220.487C137.588 220.942 137.327 221.317 136.937 221.61C137.132 222.651 136.806 223.335 135.96 223.66C135.374 223.888 134.983 223.937 134.788 223.807C134.593 223.644 134.446 223.433 134.349 223.172C134.284 222.879 134.186 222.602 134.056 222.342C133.925 222.082 133.649 221.951 133.226 221.951C133.291 221.561 133.34 221.17 133.372 220.78C133.437 220.356 133.519 219.949 133.616 219.559C133.714 219.168 133.86 218.794 134.056 218.436C134.251 218.078 134.528 217.752 134.886 217.459C134.593 217.296 134.479 217.052 134.544 216.727C134.609 216.369 134.609 216.043 134.544 215.75C134.772 215.099 135.114 214.416 135.569 213.699C136.025 212.983 136.432 212.267 136.79 211.551C137.148 210.802 137.376 210.054 137.474 209.305C137.571 208.556 137.392 207.824 136.937 207.108C136.806 206.912 136.611 206.75 136.351 206.619C136.123 206.489 135.895 206.424 135.667 206.424C135.439 206.424 135.244 206.505 135.081 206.668C134.918 206.831 134.853 207.091 134.886 207.449L135.276 207.791C134.658 207.987 134.104 208.312 133.616 208.768C133.16 209.224 132.721 209.728 132.298 210.281C131.875 210.802 131.451 211.339 131.028 211.893C130.638 212.446 130.215 212.918 129.759 213.309C129.531 214.22 129.173 215.067 128.685 215.848C128.229 216.629 127.773 217.41 127.317 218.192C127.057 218.68 126.862 219.087 126.731 219.412C126.634 219.738 126.487 220.128 126.292 220.584C126.227 220.747 126.146 220.91 126.048 221.073C125.983 221.203 125.918 221.349 125.853 221.512C125.657 222.228 125.478 222.928 125.315 223.612C125.185 224.295 124.811 224.881 124.192 225.369C124.29 225.63 124.371 225.874 124.437 226.102C124.534 226.33 124.697 226.558 124.925 226.785C124.567 226.981 124.355 227.225 124.29 227.518C124.257 227.778 124.274 228.071 124.339 228.397C124.437 228.69 124.55 228.999 124.681 229.324C124.843 229.617 124.925 229.91 124.925 230.203C125.315 230.236 125.674 230.382 125.999 230.643C126.325 230.903 126.65 231.164 126.976 231.424C127.334 231.684 127.675 231.896 128.001 232.059C128.326 232.189 128.685 232.14 129.075 231.912C129.336 231.977 129.58 231.994 129.808 231.961C130.035 231.929 130.263 231.912 130.491 231.912C130.719 231.88 130.931 231.912 131.126 232.01C131.354 232.108 131.582 232.303 131.81 232.596C132.037 232.108 132.347 231.815 132.737 231.717C133.128 231.619 133.535 231.571 133.958 231.571C134.414 231.571 134.837 231.554 135.228 231.522C135.651 231.489 136.009 231.294 136.302 230.936C136.692 231.261 137.034 231.392 137.327 231.326C137.653 231.261 137.946 231.115 138.206 230.887C138.499 230.659 138.792 230.431 139.085 230.203C139.378 229.976 139.703 229.862 140.062 229.862C140.843 229.862 141.526 229.748 142.112 229.52C142.698 229.292 143.268 229.031 143.821 228.739C144.375 228.413 144.928 228.104 145.481 227.811C146.067 227.518 146.735 227.306 147.483 227.176C147.809 226.688 148.183 226.346 148.606 226.151C149.062 225.923 149.518 225.727 149.974 225.565C150.462 225.369 150.918 225.142 151.341 224.881C151.797 224.588 152.203 224.132 152.562 223.514C153.213 223.546 153.75 223.367 154.173 222.977C154.596 222.554 155.003 222.114 155.394 221.658C155.784 221.17 156.175 220.763 156.565 220.438C156.989 220.08 157.509 219.998 158.128 220.194ZM192.509 228.739C192.053 229.52 191.695 230.155 191.435 230.643C191.207 231.099 190.963 231.489 190.702 231.815C190.474 232.108 190.198 232.384 189.872 232.645C189.579 232.873 189.156 233.166 188.603 233.524C188.244 233.849 187.886 234.126 187.528 234.354C187.235 234.582 186.942 234.777 186.649 234.94C186.389 235.102 186.177 235.184 186.015 235.184C185.95 235.184 185.884 235.168 185.819 235.135C185.754 235.135 185.689 235.135 185.624 235.135C185.429 235.135 185.233 235.135 185.038 235.135C184.875 235.168 184.729 235.054 184.599 234.793C184.501 234.891 184.42 235.005 184.354 235.135C184.289 235.265 184.224 235.379 184.159 235.477C184.094 235.607 183.996 235.705 183.866 235.77C183.769 235.835 183.622 235.835 183.427 235.77L183.183 235.477L182.45 236.112C181.539 235.656 180.66 235.265 179.813 234.94C179 234.647 178.267 234.289 177.616 233.865C176.965 233.442 176.412 232.905 175.956 232.254C175.5 231.571 175.175 230.643 174.979 229.471C174.817 229.276 174.638 229.113 174.442 228.983C174.247 228.82 174.019 228.771 173.759 228.836C173.433 229.39 173.043 229.862 172.587 230.252C172.131 230.643 171.675 231.066 171.22 231.522C171.057 231.684 170.927 231.864 170.829 232.059C170.731 232.254 170.601 232.433 170.438 232.596C170.178 232.889 169.869 233.101 169.511 233.231C169.153 233.328 168.795 233.426 168.437 233.524C168.078 233.621 167.737 233.784 167.411 234.012C167.118 234.24 166.907 234.63 166.776 235.184C166.386 234.956 165.995 234.891 165.604 234.989C165.312 235.054 165.002 235.119 164.677 235.184C164.351 235.281 164.026 235.33 163.7 235.33C163.407 235.363 163.114 235.33 162.821 235.233C162.528 235.135 162.268 234.923 162.04 234.598C161.584 234.793 161.161 234.777 160.771 234.549C160.38 234.354 160.006 234.077 159.647 233.719C159.322 233.328 158.996 232.921 158.671 232.498C158.345 232.075 158.036 231.766 157.743 231.571C157.548 231.05 157.564 230.61 157.792 230.252C157.987 229.862 158.215 229.503 158.476 229.178C158.703 228.82 158.866 228.478 158.964 228.153C159.062 227.795 158.915 227.371 158.524 226.883C158.85 226.395 159.143 225.89 159.403 225.369C159.664 224.816 159.924 224.279 160.185 223.758C160.478 223.205 160.771 222.684 161.063 222.196C161.389 221.675 161.78 221.235 162.235 220.877C162.04 220.649 161.942 220.438 161.942 220.242C161.942 220.015 161.991 219.803 162.089 219.608C162.187 219.38 162.3 219.168 162.431 218.973C162.561 218.745 162.659 218.533 162.724 218.338L164.14 217.655L163.798 216.483C164.156 216.548 164.416 216.531 164.579 216.434C164.774 216.336 164.905 216.19 164.97 215.994C165.067 215.799 165.132 215.587 165.165 215.36C165.23 215.099 165.312 214.871 165.409 214.676C165.572 214.383 165.816 214.171 166.142 214.041C166.825 213.52 167.493 212.967 168.144 212.381C168.827 211.795 169.494 211.226 170.146 210.672C170.829 210.119 171.529 209.598 172.245 209.11C172.961 208.589 173.743 208.149 174.589 207.791C175.175 207.889 175.631 208.068 175.956 208.328C176.314 208.589 176.575 208.898 176.737 209.256C176.933 209.614 177.079 210.021 177.177 210.477C177.274 210.9 177.372 211.323 177.47 211.746C177.632 212.3 177.828 212.772 178.056 213.162C178.284 213.553 178.674 213.878 179.228 214.139C178.772 214.92 178.593 215.701 178.69 216.483C178.788 217.231 178.886 218.029 178.983 218.875C179.081 219.656 179.065 220.421 178.935 221.17C178.837 221.919 178.365 222.586 177.519 223.172C177.453 223.4 177.437 223.644 177.47 223.905C177.502 224.165 177.519 224.425 177.519 224.686C177.519 224.946 177.47 225.19 177.372 225.418C177.274 225.646 177.095 225.825 176.835 225.955C177.128 226.313 177.274 226.671 177.274 227.03C177.307 227.388 177.323 227.729 177.323 228.055C177.356 228.38 177.437 228.673 177.567 228.934C177.73 229.194 178.088 229.39 178.642 229.52C178.739 229.943 178.821 230.268 178.886 230.496C178.983 230.692 179.081 230.854 179.179 230.985C179.309 231.115 179.472 231.245 179.667 231.375C179.862 231.473 180.123 231.636 180.448 231.864C180.709 231.929 181.002 231.929 181.327 231.864C181.653 231.798 181.913 231.896 182.108 232.156C182.271 231.994 182.466 231.912 182.694 231.912C182.922 231.88 183.134 231.88 183.329 231.912L183.964 232.987C184.322 232.726 184.729 232.498 185.185 232.303C185.64 232.108 186.08 231.945 186.503 231.815C186.991 231.684 187.479 231.571 187.968 231.473L192.509 228.739ZM173.759 212.039C173.466 212.3 173.108 212.56 172.685 212.821C172.261 213.081 171.838 213.358 171.415 213.651C171.024 213.944 170.683 214.269 170.39 214.627C170.097 214.953 169.918 215.343 169.853 215.799C169.104 215.929 168.583 216.239 168.29 216.727C167.997 217.215 167.753 217.752 167.558 218.338C167.362 218.924 167.151 219.51 166.923 220.096C166.695 220.649 166.288 221.089 165.702 221.414C165.507 221.545 165.328 221.61 165.165 221.61C165.198 221.61 165.1 221.675 164.872 221.805C164.514 222.065 164.205 222.391 163.944 222.781C163.684 223.172 163.456 223.595 163.261 224.051C163.098 224.507 162.935 224.979 162.772 225.467C162.642 225.923 162.512 226.346 162.382 226.737C161.926 226.802 161.584 226.899 161.356 227.03C161.129 227.16 160.982 227.306 160.917 227.469C160.884 227.599 160.901 227.762 160.966 227.957C161.031 228.153 161.129 228.364 161.259 228.592C161.389 228.787 161.519 229.015 161.649 229.276C161.812 229.536 161.942 229.796 162.04 230.057C162.138 230.317 162.187 230.578 162.187 230.838C162.219 231.099 162.154 231.343 161.991 231.571C162.447 231.929 162.886 232.01 163.31 231.815C163.733 231.587 164.123 231.343 164.481 231.082C164.612 230.985 164.742 230.887 164.872 230.789C165.035 230.659 165.198 230.561 165.36 230.496C166.109 230.659 166.793 230.61 167.411 230.35C168.03 230.089 168.599 229.731 169.12 229.276C169.641 228.82 170.146 228.332 170.634 227.811C171.122 227.29 171.61 226.834 172.099 226.444L171.708 226.053C172.294 225.89 172.701 225.679 172.929 225.418C173.189 225.125 173.352 224.8 173.417 224.442C173.482 224.084 173.482 223.709 173.417 223.319C173.352 222.895 173.303 222.456 173.271 222C173.238 221.74 173.222 221.496 173.222 221.268C173.254 221.007 173.319 220.747 173.417 220.487C173.157 219.738 173.108 219.022 173.271 218.338C173.466 217.655 173.71 217.003 174.003 216.385C174.328 215.734 174.638 215.083 174.931 214.432C175.224 213.781 175.37 213.097 175.37 212.381L173.759 212.039ZM232.261 224.198C231.512 224.556 231.007 224.995 230.747 225.516C230.487 226.037 230.275 226.574 230.112 227.127C229.982 227.681 229.803 228.218 229.575 228.739C229.38 229.227 228.94 229.634 228.257 229.959C228.094 230.545 227.769 230.952 227.28 231.18C226.825 231.408 226.336 231.619 225.815 231.815C225.295 231.977 224.823 232.205 224.399 232.498C224.009 232.791 223.813 233.296 223.813 234.012C223.162 234.37 222.446 234.696 221.665 234.989C220.916 235.281 220.119 235.493 219.272 235.623C218.459 235.786 217.645 235.851 216.831 235.819C216.017 235.786 215.252 235.623 214.536 235.33C214.048 235.102 213.576 234.809 213.12 234.451C212.957 234.321 212.795 234.207 212.632 234.11C212.502 234.045 212.355 233.931 212.192 233.768C211.802 233.377 211.476 232.921 211.216 232.401C210.955 231.88 210.744 231.326 210.581 230.74C210.418 230.155 210.288 229.569 210.19 228.983C210.093 228.397 210.011 227.843 209.946 227.323L211.753 222.44C210.809 221.691 210.044 220.828 209.458 219.852C208.872 218.843 208.156 217.915 207.31 217.069C207.147 217.296 206.935 217.492 206.675 217.655C206.414 217.817 206.317 218.078 206.382 218.436L206.87 218.875C205.796 220.047 204.705 221.382 203.599 222.879C202.524 224.344 201.678 225.825 201.06 227.323C200.343 227.29 199.839 227.469 199.546 227.86C199.253 228.218 199.009 228.641 198.813 229.129C198.618 229.585 198.374 230.008 198.081 230.399C197.788 230.789 197.3 230.952 196.616 230.887C196.453 231.245 196.291 231.636 196.128 232.059C195.965 232.449 195.77 232.824 195.542 233.182C195.314 233.54 195.037 233.833 194.712 234.061C194.386 234.321 193.979 234.451 193.491 234.451C193.231 234.191 193.084 233.914 193.052 233.621C193.019 233.328 193.052 233.035 193.149 232.742C193.247 232.417 193.377 232.108 193.54 231.815C193.703 231.489 193.817 231.18 193.882 230.887C194.142 229.943 194.614 229.097 195.298 228.348C195.981 227.567 196.665 226.802 197.349 226.053C198.032 225.272 198.618 224.458 199.106 223.612C199.595 222.765 199.79 221.772 199.692 220.633C200.116 220.601 200.539 220.519 200.962 220.389C201.418 220.226 201.825 220.031 202.183 219.803C202.573 219.543 202.866 219.233 203.062 218.875C203.289 218.485 203.371 218.029 203.306 217.508C203.045 217.378 202.899 217.199 202.866 216.971C202.834 216.711 202.834 216.45 202.866 216.19C203.582 215.962 204.152 215.571 204.575 215.018C205.031 214.432 205.438 213.813 205.796 213.162C206.154 212.511 206.496 211.86 206.821 211.209C207.179 210.526 207.635 209.94 208.188 209.451C208.644 209.712 209.1 209.94 209.556 210.135C210.011 210.298 210.451 210.526 210.874 210.819C210.581 211.209 210.402 211.584 210.337 211.942C210.272 212.3 210.239 212.674 210.239 213.065C210.239 213.423 210.239 213.781 210.239 214.139C210.239 214.497 210.142 214.871 209.946 215.262C210.467 215.718 210.907 216.255 211.265 216.873C211.623 217.492 212.078 218.013 212.632 218.436C213.022 218.143 213.462 217.996 213.95 217.996C214.438 217.964 214.927 217.964 215.415 217.996C215.936 217.996 216.424 217.964 216.88 217.899C217.336 217.801 217.71 217.524 218.003 217.069C218.133 217.199 218.328 217.264 218.589 217.264C218.849 217.264 219.11 217.264 219.37 217.264C219.631 217.264 219.858 217.313 220.054 217.41C220.249 217.476 220.363 217.622 220.396 217.85C220.428 218.11 220.412 218.289 220.347 218.387C220.314 218.485 220.265 218.647 220.2 218.875C220.135 219.136 220.119 219.266 220.151 219.266C220.184 219.266 220.151 219.38 220.054 219.608C219.891 220.031 219.614 220.389 219.224 220.682C218.866 220.975 218.491 221.268 218.101 221.561C217.743 221.821 217.401 222.13 217.075 222.489C216.782 222.814 216.636 223.237 216.636 223.758C215.92 224.018 215.415 224.409 215.122 224.93C214.829 225.418 214.634 225.988 214.536 226.639C214.438 227.257 214.373 227.908 214.341 228.592C214.308 229.243 214.194 229.845 213.999 230.399L214.438 230.887L214.829 230.399C215.285 231.05 215.822 231.457 216.44 231.619C217.091 231.782 217.759 231.831 218.442 231.766C218.768 231.278 219.142 230.887 219.565 230.594C220.021 230.301 220.493 230.057 220.981 229.862C221.502 229.666 222.023 229.487 222.544 229.324C223.097 229.162 223.618 228.966 224.106 228.739C224.497 228.543 224.823 228.332 225.083 228.104C225.376 227.876 225.685 227.615 226.011 227.323C226.987 226.411 227.948 225.516 228.892 224.637C229.868 223.758 230.845 222.863 231.821 221.951C232.017 221.951 232.147 222.049 232.212 222.244C232.277 222.44 232.31 222.668 232.31 222.928C232.31 223.156 232.293 223.4 232.261 223.66C232.261 223.888 232.261 224.067 232.261 224.198ZM262.589 232.108C262.621 232.498 262.556 232.791 262.394 232.987C262.231 233.182 262.003 233.328 261.71 233.426C261.45 233.524 261.157 233.605 260.831 233.67C260.506 233.703 260.229 233.784 260.001 233.914C259.057 233.817 258.146 233.686 257.267 233.524C256.388 233.328 255.574 233.052 254.825 232.694C254.076 232.303 253.393 231.798 252.774 231.18C252.188 230.561 251.684 229.78 251.261 228.836C251.684 228.153 251.83 227.404 251.7 226.59C251.57 225.744 251.44 224.93 251.31 224.149C251.212 223.367 251.228 222.651 251.358 222C251.521 221.349 252.091 220.828 253.067 220.438C253.002 220.08 253.002 219.689 253.067 219.266C253.165 218.843 253.051 218.485 252.726 218.192C251.586 218.582 250.593 219.136 249.747 219.852C248.901 220.568 248.087 221.349 247.306 222.196C246.557 223.042 245.792 223.905 245.011 224.783C244.262 225.63 243.432 226.378 242.521 227.03C242.097 227.062 241.642 227.046 241.153 226.981C240.698 226.883 240.307 227.013 239.981 227.371C240.014 227.599 240.095 227.795 240.226 227.957C240.356 228.12 240.453 228.283 240.519 228.446C240.616 228.608 240.665 228.787 240.665 228.983C240.665 229.145 240.551 229.341 240.323 229.569C239.998 229.894 239.64 230.171 239.249 230.399C238.891 230.594 238.533 230.822 238.175 231.082C237.849 231.31 237.573 231.587 237.345 231.912C237.117 232.238 237.003 232.677 237.003 233.231C236.808 233.133 236.629 233.117 236.466 233.182C236.303 233.214 236.157 233.296 236.026 233.426C235.864 233.556 235.717 233.703 235.587 233.865C235.457 234.028 235.326 234.158 235.196 234.256C235.131 234.419 235.147 234.549 235.245 234.647C235.343 234.777 235.457 234.907 235.587 235.037C235.457 235.395 235.294 235.607 235.099 235.672C234.871 235.77 234.643 235.786 234.415 235.721C234.155 235.656 233.91 235.542 233.683 235.379C233.422 235.249 233.194 235.135 232.999 235.037C232.901 234.614 232.836 234.126 232.804 233.573C232.771 233.019 232.787 232.482 232.853 231.961C232.918 231.408 233.048 230.887 233.243 230.399C233.438 229.91 233.731 229.503 234.122 229.178C234.252 229.08 234.334 229.031 234.366 229.031C234.399 228.999 234.415 228.983 234.415 228.983C234.415 228.983 234.431 228.983 234.464 228.983C234.496 228.95 234.562 228.885 234.659 228.787C234.92 228.494 235.099 228.185 235.196 227.86C235.294 227.502 235.375 227.143 235.44 226.785C235.506 226.427 235.603 226.086 235.733 225.76C235.831 225.402 236.026 225.093 236.319 224.832C236.189 224.311 236.189 223.856 236.319 223.465C236.482 223.042 236.677 222.651 236.905 222.293C237.166 221.903 237.41 221.528 237.638 221.17C237.898 220.78 238.061 220.356 238.126 219.901C238.159 219.738 238.159 219.591 238.126 219.461C238.126 219.298 238.126 219.136 238.126 218.973C238.061 218.452 238.11 218.061 238.272 217.801C238.468 217.508 238.696 217.28 238.956 217.117C239.249 216.922 239.542 216.727 239.835 216.531C240.16 216.336 240.437 216.043 240.665 215.653C241.609 216.108 242.162 216.727 242.325 217.508C242.521 218.257 242.586 219.103 242.521 220.047C241.967 220.405 241.544 220.91 241.251 221.561C240.958 222.179 240.763 222.781 240.665 223.367C240.73 223.563 240.812 223.677 240.909 223.709C241.039 223.709 241.17 223.693 241.3 223.66C241.463 223.595 241.609 223.53 241.739 223.465C241.869 223.4 242 223.367 242.13 223.367C243.302 222.554 244.457 221.642 245.597 220.633C246.769 219.624 247.68 218.468 248.331 217.166C249.275 216.711 250.17 216.19 251.017 215.604C251.863 214.985 252.791 214.53 253.8 214.237L254.923 213.114C255.086 213.374 255.281 213.439 255.509 213.309C255.737 213.146 255.965 212.967 256.192 212.772C256.42 212.576 256.632 212.462 256.827 212.43C257.055 212.397 257.267 212.625 257.462 213.114C257.787 213.96 257.869 214.79 257.706 215.604C257.543 216.385 257.283 217.166 256.925 217.948C256.599 218.696 256.257 219.461 255.899 220.242C255.541 221.024 255.33 221.821 255.265 222.635C255.265 222.83 255.265 223.042 255.265 223.27C255.265 223.465 255.248 223.677 255.216 223.905C255.151 224.588 255.053 225.337 254.923 226.151C254.825 226.932 254.874 227.648 255.069 228.299C255.232 228.885 255.574 229.406 256.095 229.862C256.616 230.317 257.071 230.773 257.462 231.229C257.69 231.196 257.918 231.212 258.146 231.278C258.373 231.343 258.585 231.408 258.78 231.473C259.008 231.538 259.22 231.571 259.415 231.571C259.61 231.538 259.806 231.424 260.001 231.229C260.229 231.131 260.44 231.147 260.636 231.278C260.864 231.375 261.075 231.505 261.271 231.668C261.466 231.831 261.661 231.977 261.856 232.108C262.084 232.205 262.328 232.205 262.589 232.108ZM308.249 218.924C307.956 219.217 307.728 219.445 307.565 219.608C307.435 219.77 307.305 219.933 307.175 220.096C307.077 220.226 306.947 220.373 306.784 220.535C306.654 220.698 306.442 220.942 306.149 221.268C305.889 221.528 305.645 221.805 305.417 222.098C305.189 222.391 304.929 222.651 304.636 222.879C304.245 222.781 303.936 222.83 303.708 223.026C303.513 223.221 303.317 223.449 303.122 223.709C302.959 223.937 302.797 224.165 302.634 224.393C302.504 224.588 302.325 224.67 302.097 224.637C301.315 225.06 300.534 225.434 299.753 225.76C298.972 226.053 298.223 226.492 297.507 227.078L297.116 226.688L292.038 229.129C291.875 229.194 291.713 229.292 291.55 229.422C291.387 229.552 291.224 229.666 291.062 229.764C290.345 230.155 289.597 230.513 288.815 230.838C288.067 231.131 287.318 231.408 286.569 231.668L285.935 231.864C286.195 232.515 286.195 232.97 285.935 233.231C285.674 233.491 285.3 233.686 284.812 233.817C284.323 233.914 283.786 233.979 283.2 234.012C282.614 234.045 282.159 234.158 281.833 234.354C281.442 234.289 281.035 234.256 280.612 234.256C280.222 234.289 279.815 234.337 279.392 234.403C278.936 234.468 278.513 234.5 278.122 234.5C277.731 234.5 277.308 234.451 276.853 234.354H276.755C276.201 234.614 275.713 234.663 275.29 234.5C274.899 234.37 274.541 234.142 274.216 233.817C273.89 233.459 273.581 233.052 273.288 232.596C273.028 232.108 272.751 231.668 272.458 231.278C272.263 231.017 272.019 230.643 271.726 230.155C271.433 229.666 271.188 229.145 270.993 228.592C270.765 228.039 270.635 227.485 270.603 226.932C270.537 226.346 270.651 225.841 270.944 225.418C271.237 224.995 271.481 224.539 271.677 224.051C271.84 223.563 271.921 222.993 271.921 222.342C271.921 222.114 271.921 221.903 271.921 221.707C271.888 221.512 271.872 221.3 271.872 221.073C272.035 221.073 272.214 221.089 272.409 221.121C272.604 221.121 272.784 221.121 272.946 221.121C273.142 221.089 273.288 221.024 273.386 220.926C273.516 220.796 273.581 220.584 273.581 220.291C273.581 220.128 273.516 219.998 273.386 219.901C273.288 219.803 273.223 219.705 273.19 219.608C273.386 219.315 273.565 219.087 273.728 218.924C273.923 218.729 274.086 218.55 274.216 218.387C274.346 218.192 274.444 217.98 274.509 217.752C274.574 217.492 274.558 217.15 274.46 216.727C274.851 216.043 275.306 215.441 275.827 214.92C276.381 214.367 276.95 213.862 277.536 213.406C278.122 212.918 278.724 212.446 279.343 211.99C279.961 211.535 280.547 211.046 281.101 210.526C281.719 210.786 282.207 210.786 282.565 210.526C282.956 210.265 283.298 209.989 283.591 209.696C283.884 209.37 284.177 209.11 284.47 208.914C284.763 208.719 285.153 208.8 285.642 209.158L285.739 209.256C286.618 208.377 287.497 207.987 288.376 208.084C289.287 208.182 290.052 208.475 290.671 208.963C291.322 209.451 291.745 210.021 291.94 210.672C292.136 211.291 291.957 211.714 291.403 211.942C291.761 212.3 291.94 212.723 291.94 213.211C291.94 213.699 291.81 214.123 291.55 214.481C291.257 214.871 290.996 215.278 290.769 215.701C290.573 216.092 290.362 216.515 290.134 216.971C289.808 217.72 289.45 218.436 289.06 219.119C288.669 219.77 288.116 220.324 287.399 220.78C286.813 220.617 286.407 220.682 286.179 220.975C285.983 221.268 285.837 221.593 285.739 221.951C285.642 222.277 285.528 222.537 285.397 222.733C285.267 222.928 284.991 222.863 284.567 222.537L284.47 222.44L284.372 222.537C284.112 222.798 283.9 223.091 283.737 223.416C283.607 223.742 283.412 223.986 283.151 224.149C282.858 224.051 282.549 223.97 282.224 223.905C281.898 223.839 281.589 223.774 281.296 223.709C281.296 224.393 281.166 224.93 280.905 225.321C280.645 225.711 280.303 226.037 279.88 226.297C279.489 226.525 279.034 226.72 278.513 226.883C277.992 227.013 277.471 227.192 276.95 227.42C276.462 227.615 275.99 227.876 275.534 228.201C275.111 228.494 274.769 228.918 274.509 229.471C274.834 229.829 275.241 230.041 275.729 230.106C276.218 230.138 276.722 230.138 277.243 230.106C277.764 230.041 278.269 230.008 278.757 230.008C279.278 230.008 279.733 230.138 280.124 230.399L280.173 230.448L280.222 230.399C281.003 230.301 281.752 230.122 282.468 229.862C283.216 229.569 283.933 229.276 284.616 228.983C285.332 228.657 286.049 228.364 286.765 228.104C287.513 227.811 288.278 227.599 289.06 227.469C289.222 227.729 289.434 227.876 289.694 227.908C289.987 227.941 290.264 227.925 290.524 227.86L290.573 227.762C290.638 227.534 290.703 227.339 290.769 227.176C290.834 226.981 290.931 226.769 291.062 226.541C291.289 226.183 291.566 225.906 291.892 225.711C292.217 225.516 292.559 225.369 292.917 225.272C293.308 225.174 293.715 225.109 294.138 225.076C294.561 225.044 294.984 224.995 295.407 224.93H295.505L295.554 224.783C295.684 224.393 295.847 224.132 296.042 224.002C296.27 223.839 296.498 223.726 296.726 223.66C296.986 223.595 297.246 223.546 297.507 223.514C297.8 223.481 298.076 223.384 298.337 223.221C298.923 223.416 299.411 223.351 299.802 223.026C300.192 222.7 300.567 222.358 300.925 222L301.315 222.489L301.462 222.293C301.95 221.837 302.308 221.496 302.536 221.268C302.797 221.04 303.041 220.845 303.269 220.682C303.496 220.487 303.757 220.308 304.05 220.145C304.375 219.949 304.815 219.673 305.368 219.315C305.824 219.022 306.263 218.729 306.687 218.436C307.142 218.143 307.582 217.817 308.005 217.459C308.168 217.524 308.249 217.655 308.249 217.85C308.249 218.013 308.249 218.175 308.249 218.338C308.216 218.403 308.184 218.501 308.151 218.631C308.151 218.761 308.184 218.859 308.249 218.924ZM288.034 212.821C288.002 212.788 287.969 212.772 287.937 212.772C287.937 212.772 287.92 212.755 287.888 212.723C287.204 212.365 286.634 212.202 286.179 212.235C285.723 212.235 285.3 212.365 284.909 212.625C284.551 212.853 284.209 213.162 283.884 213.553C283.591 213.911 283.265 214.253 282.907 214.578C282.582 214.871 282.191 215.099 281.735 215.262C281.28 215.425 280.726 215.408 280.075 215.213C279.978 215.734 279.88 216.255 279.782 216.776C279.717 217.264 279.668 217.768 279.636 218.289C279.082 218.485 278.643 218.761 278.317 219.119C278.024 219.477 277.764 219.868 277.536 220.291C277.341 220.714 277.146 221.17 276.95 221.658C276.787 222.114 276.56 222.554 276.267 222.977L276.462 223.221C276.592 223.156 276.739 223.205 276.901 223.367C277.064 223.53 277.178 223.644 277.243 223.709C277.601 223.188 278.073 222.749 278.659 222.391C279.278 222.033 279.896 221.707 280.515 221.414C281.166 221.089 281.784 220.747 282.37 220.389C282.956 220.031 283.396 219.559 283.688 218.973C284.73 218.68 285.511 218.094 286.032 217.215C286.553 216.336 286.993 215.425 287.351 214.481C287.416 214.285 287.53 214.009 287.692 213.651C287.888 213.26 288.002 212.983 288.034 212.821ZM342.972 198.563C342.516 199.051 342.011 199.311 341.458 199.344C340.905 199.344 340.351 199.295 339.798 199.198C339.277 199.1 338.756 199.067 338.235 199.1C337.747 199.1 337.324 199.36 336.966 199.881C336.445 199.751 335.908 199.735 335.354 199.832C334.801 199.897 334.231 200.011 333.646 200.174C333.06 200.304 332.474 200.434 331.888 200.565C331.302 200.695 330.716 200.744 330.13 200.711L329.3 199.881C329.072 200.239 328.746 200.467 328.323 200.565C327.933 200.63 327.542 200.532 327.151 200.272C326.468 200.727 325.784 200.939 325.101 200.906C324.417 200.874 323.75 200.858 323.099 200.858C322.448 200.825 321.829 200.955 321.243 201.248C320.69 201.509 320.218 202.176 319.827 203.25C319.534 203.999 319.257 204.764 318.997 205.545C318.737 206.294 318.476 207.043 318.216 207.791C317.5 209.744 316.767 211.681 316.019 213.602C315.302 215.49 314.489 217.362 313.577 219.217C313.512 220.682 313.545 222.163 313.675 223.66C313.805 225.158 313.951 226.639 314.114 228.104C313.984 228.494 313.935 228.901 313.968 229.324C314.033 229.748 314.147 230.171 314.31 230.594C314.472 231.017 314.668 231.424 314.896 231.815C315.123 232.173 315.368 232.498 315.628 232.791L316.507 231.961L317.728 233.67C318.053 233.247 318.427 232.808 318.851 232.352C319.306 231.864 319.778 231.424 320.267 231.033C320.755 230.61 321.259 230.268 321.78 230.008C322.334 229.715 322.887 229.52 323.44 229.422C323.668 229.194 323.88 228.95 324.075 228.69C324.271 228.429 324.482 228.218 324.71 228.055C324.938 227.86 325.182 227.729 325.442 227.664C325.735 227.567 326.077 227.583 326.468 227.713C327.509 227.127 328.437 226.395 329.251 225.516C330.065 224.604 330.879 223.709 331.692 222.83C332.506 221.919 333.353 221.089 334.231 220.34C335.143 219.591 336.201 219.071 337.405 218.778C336.624 220.666 335.631 222.505 334.427 224.295C333.222 226.053 331.871 227.632 330.374 229.031C329.983 229.487 329.495 229.894 328.909 230.252C328.649 230.415 328.372 230.594 328.079 230.789C327.786 230.952 327.509 231.115 327.249 231.278C326.37 231.864 325.524 232.498 324.71 233.182C323.896 233.833 323.115 234.565 322.366 235.379C322.269 235.184 322.138 235.054 321.976 234.989C321.813 234.923 321.618 234.891 321.39 234.891C321.194 234.891 320.983 234.907 320.755 234.94C320.56 234.972 320.381 234.972 320.218 234.94C319.599 235.395 318.785 235.753 317.776 236.014C316.8 236.307 315.921 236.372 315.14 236.209C314.912 236.144 314.603 236.014 314.212 235.819C313.821 235.656 313.528 235.509 313.333 235.379C312.063 234.533 311.103 233.491 310.452 232.254C309.834 230.985 309.492 229.601 309.427 228.104L309.036 227.713C309.459 227.323 309.72 226.932 309.817 226.541C309.948 226.151 309.98 225.76 309.915 225.369C309.882 224.946 309.801 224.523 309.671 224.1C309.573 223.644 309.508 223.188 309.476 222.733C309.443 222.44 309.443 222.196 309.476 222C309.541 221.805 309.606 221.577 309.671 221.317C309.931 220.275 310.175 219.266 310.403 218.289C310.631 217.28 310.875 216.271 311.136 215.262C311.787 212.788 312.535 210.347 313.382 207.938C314.261 205.496 315.172 203.087 316.116 200.711C315.595 200.516 315.075 200.402 314.554 200.369C314.033 200.304 313.496 200.272 312.942 200.272C312.422 200.272 311.884 200.255 311.331 200.223C310.81 200.19 310.289 200.076 309.769 199.881C309.541 199.783 309.427 199.735 309.427 199.735C309.427 199.702 309.297 199.686 309.036 199.686C308.873 199.686 308.646 199.718 308.353 199.783C308.06 199.816 307.767 199.832 307.474 199.832C307.181 199.832 306.92 199.8 306.692 199.735C306.432 199.67 306.285 199.523 306.253 199.295V198.807C306.285 198.286 306.399 197.944 306.595 197.781C306.79 197.586 307.034 197.472 307.327 197.44C307.62 197.375 307.946 197.342 308.304 197.342C308.662 197.309 309.004 197.196 309.329 197C310.241 197.196 311.103 197.342 311.917 197.44C312.731 197.505 313.512 197.489 314.261 197.391C315.042 197.293 315.791 197.082 316.507 196.756C317.256 196.431 317.988 195.942 318.704 195.291C319.225 194.282 319.616 193.208 319.876 192.069C320.136 190.897 320.429 189.757 320.755 188.651C321.113 187.511 321.569 186.47 322.122 185.526C322.675 184.549 323.522 183.735 324.661 183.084C325.182 183.019 325.638 183.084 326.028 183.28C326.419 183.475 326.81 183.686 327.2 183.914C327.037 184.37 326.907 184.842 326.81 185.33C326.712 185.819 326.598 186.307 326.468 186.795C326.37 187.283 326.24 187.755 326.077 188.211C325.914 188.667 325.67 189.09 325.345 189.481C325.768 189.643 326.012 189.839 326.077 190.067C326.142 190.295 326.11 190.539 325.979 190.799C325.849 191.059 325.687 191.336 325.491 191.629C325.296 191.922 325.182 192.183 325.149 192.41C324.791 192.443 324.482 192.671 324.222 193.094C323.994 193.517 323.75 193.843 323.489 194.071C323.229 194.624 323.278 195.096 323.636 195.487C323.994 195.877 324.319 196.252 324.612 196.61C324.905 196.707 325.198 196.724 325.491 196.658C325.784 196.561 326.045 196.463 326.272 196.365C326.533 196.268 326.777 196.219 327.005 196.219C327.233 196.219 327.444 196.349 327.64 196.61C327.965 196.252 328.291 196.105 328.616 196.17C328.942 196.203 329.267 196.284 329.593 196.414C329.918 196.512 330.244 196.561 330.569 196.561C330.895 196.528 331.204 196.268 331.497 195.78C331.888 195.584 332.246 195.535 332.571 195.633C332.929 195.731 333.255 195.861 333.548 196.024C333.841 196.154 334.118 196.268 334.378 196.365C334.671 196.431 334.964 196.365 335.257 196.17C335.745 196.235 336.282 196.252 336.868 196.219C337.487 196.186 338.089 196.121 338.675 196.024C339.293 195.926 339.896 195.812 340.481 195.682C341.1 195.519 341.653 195.389 342.142 195.291C342.63 195.584 342.923 195.845 343.021 196.073C343.118 196.3 343.134 196.528 343.069 196.756C343.037 196.984 342.972 197.244 342.874 197.537C342.809 197.798 342.841 198.14 342.972 198.563Z" fill="#F9E9DB"/>
<g filter="url(#filter0_f_5756_4580)">
<rect width="5.11299" height="426" transform="matrix(0 1 1 0 6.59961 487.289)" fill="url(#paint1_linear_5756_4580)"/>
</g>
<g filter="url(#filter1_f_5756_4580)">
<rect width="16" height="59.3107" transform="matrix(-1 0 0 1 19.5996 488.312)" fill="url(#paint2_linear_5756_4580)"/>
</g>
<g filter="url(#filter2_f_5756_4580)">
<rect width="11.2486" height="59" transform="matrix(0 -1 -1 0 74.5996 547.623)" fill="url(#paint3_linear_5756_4580)"/>
</g>
<g filter="url(#filter3_f_5756_4580)">
<rect width="5" height="488.802" transform="matrix(-1 0 0 1 432.6 3.59998)" fill="#7F7097"/>
</g>
<g filter="url(#filter4_i_5756_4580)">
<path d="M19.5996 492.402H420.6C415.542 510.458 415.569 520.029 420.6 536.374H19.5996V492.402Z" fill="url(#paint4_linear_5756_4580)"/>
</g>
<g filter="url(#filter5_f_5756_4580)">
<rect width="5" height="317.006" transform="matrix(1 0 0 -1 16.5996 322.651)" fill="url(#paint5_linear_5756_4580)"/>
</g>
<defs>
<filter id="filter0_f_5756_4580" x="2.99961" y="483.689" width="433.2" height="12.313" filterUnits="userSpaceOnUse" color-interpolation-filters="sRGB">
<feFlood flood-opacity="0" result="BackgroundImageFix"/>
<feBlend mode="normal" in="SourceGraphic" in2="BackgroundImageFix" result="shape"/>
<feGaussianBlur stdDeviation="1.8" result="effect1_foregroundBlur_5756_4580"/>
</filter>
<filter id="filter1_f_5756_4580" x="-0.00039053" y="484.712" width="23.2" height="66.5108" filterUnits="userSpaceOnUse" color-interpolation-filters="sRGB">
<feFlood flood-opacity="0" result="BackgroundImageFix"/>
<feBlend mode="normal" in="SourceGraphic" in2="BackgroundImageFix" result="shape"/>
<feGaussianBlur stdDeviation="1.8" result="effect1_foregroundBlur_5756_4580"/>
</filter>
<filter id="filter2_f_5756_4580" x="11.9996" y="532.774" width="66.2" height="18.4485" filterUnits="userSpaceOnUse" color-interpolation-filters="sRGB">
<feFlood flood-opacity="0" result="BackgroundImageFix"/>
<feBlend mode="normal" in="SourceGraphic" in2="BackgroundImageFix" result="shape"/>
<feGaussianBlur stdDeviation="1.8" result="effect1_foregroundBlur_5756_4580"/>
</filter>
<filter id="filter3_f_5756_4580" x="424" y="-2.43187e-05" width="12.2" height="496.002" filterUnits="userSpaceOnUse" color-interpolation-filters="sRGB">
<feFlood flood-opacity="0" result="BackgroundImageFix"/>
<feBlend mode="normal" in="SourceGraphic" in2="BackgroundImageFix" result="shape"/>
<feGaussianBlur stdDeviation="1.8" result="effect1_foregroundBlur_5756_4580"/>
</filter>
<filter id="filter4_i_5756_4580" x="19.5996" y="492.402" width="408" height="43.9718" filterUnits="userSpaceOnUse" color-interpolation-filters="sRGB">
<feFlood flood-opacity="0" result="BackgroundImageFix"/>
<feBlend mode="normal" in="SourceGraphic" in2="BackgroundImageFix" result="shape"/>
<feColorMatrix in="SourceAlpha" type="matrix" values="0 0 0 0 0 0 0 0 0 0 0 0 0 0 0 0 0 0 127 0" result="hardAlpha"/>
<feOffset dx="7"/>
<feGaussianBlur stdDeviation="7.5"/>
<feComposite in2="hardAlpha" operator="arithmetic" k2="-1" k3="1"/>
<feColorMatrix type="matrix" values="0 0 0 0 0.6 0 0 0 0 0.6 0 0 0 0 0.6 0 0 0 1 0"/>
<feBlend mode="normal" in2="shape" result="effect1_innerShadow_5756_4580"/>
</filter>
<filter id="filter5_f_5756_4580" x="12.9996" y="2.04514" width="12.2" height="324.206" filterUnits="userSpaceOnUse" color-interpolation-filters="sRGB">
<feFlood flood-opacity="0" result="BackgroundImageFix"/>
<feBlend mode="normal" in="SourceGraphic" in2="BackgroundImageFix" result="shape"/>
<feGaussianBlur stdDeviation="1.8" result="effect1_foregroundBlur_5756_4580"/>
</filter>
<linearGradient id="paint0_linear_5756_4580" x1="432.6" y1="3.59998" x2="241.491" y2="600.92" gradientUnits="userSpaceOnUse">
<stop offset="0.644432" stop-color="#BEA7E3"/>
<stop offset="1" stop-color="#695C7D"/>
</linearGradient>
<linearGradient id="paint1_linear_5756_4580" x1="3.06742" y1="55.1119" x2="0.17455" y2="213.003" gradientUnits="userSpaceOnUse">
<stop offset="0.0629279" stop-color="#74668A"/>
<stop offset="1" stop-color="#7F7097"/>
</linearGradient>
<linearGradient id="paint2_linear_5756_4580" x1="16.0001" y1="35.2787" x2="-0.701919" y2="33.7518" gradientUnits="userSpaceOnUse">
<stop stop-color="#7F7097"/>
<stop offset="0.937072" stop-color="#56476D"/>
</linearGradient>
<linearGradient id="paint3_linear_5756_4580" x1="5.113" y1="59" x2="5.11299" y2="-1.05471e-07" gradientUnits="userSpaceOnUse">
<stop stop-color="#56476D"/>
<stop offset="1" stop-color="#6E6184"/>
</linearGradient>
<linearGradient id="paint4_linear_5756_4580" x1="220.1" y1="536.374" x2="220.1" y2="492.402" gradientUnits="userSpaceOnUse">
<stop offset="0.0144231" stop-color="white"/>
<stop offset="0.605769" stop-color="#E6E6E6"/>
<stop offset="0.807692" stop-color="#CCCCCC"/>
<stop offset="1" stop-color="#999999"/>
</linearGradient>
<linearGradient id="paint5_linear_5756_4580" x1="2.5" y1="317.006" x2="2.5" y2="0" gradientUnits="userSpaceOnUse">
<stop offset="0.389423" stop-color="#7F7097"/>
<stop offset="0.935696" stop-color="#BEA7E3"/>
</linearGradient>
</defs>
</svg>
