<svg width="202" height="252" viewBox="0 0 202 252" fill="none" xmlns="http://www.w3.org/2000/svg">
<path d="M51.795 39.552C51.6575 40.0823 51.4934 40.5224 51.3027 40.8725C51.1338 41.1988 50.9175 41.4815 50.6538 41.7205C50.4119 41.9359 50.1126 42.1422 49.7559 42.3395C49.4211 42.5131 49.0179 42.6895 48.5464 42.8688L48.5137 42.9044L48.4796 42.9058C48.2415 43.2122 47.9588 43.5432 47.6315 43.899C47.3033 44.2319 46.8887 44.4088 46.3878 44.4297C46.2721 44.3889 46.1673 44.3362 46.0734 44.2717C46.0013 44.1835 45.9188 44.1185 45.8258 44.0768C45.8078 44.1916 45.8007 44.2945 45.8044 44.3856C45.8073 44.4539 45.7765 44.535 45.7119 44.6289C45.6029 44.7475 45.4691 44.8214 45.3107 44.8508C45.1513 44.8575 44.981 44.876 44.7999 44.9063C44.6405 44.913 44.4821 44.9424 44.3246 44.9945C44.1671 45.0467 44.0471 45.1771 43.9646 45.3858L43.8949 45.3545C43.5192 45.0965 43.2308 45.0173 43.0297 45.1169C42.8286 45.2165 42.6403 45.3498 42.4648 45.5167C42.3112 45.66 42.1442 45.7581 41.964 45.8112C41.8065 45.8634 41.5727 45.7249 41.2625 45.3957C41.2388 45.3739 41.2269 45.363 41.2269 45.363C41.2259 45.3402 41.2136 45.318 41.1899 45.2961L41.0903 45.3687C40.9129 45.4901 40.755 45.5309 40.6165 45.4911C40.5007 45.4503 40.3731 45.3986 40.2337 45.336C40.117 45.2724 40.0013 45.2316 39.8865 45.2136C39.7708 45.1728 39.6479 45.2349 39.518 45.4C39.4943 45.3782 39.4814 45.3445 39.4796 45.2989C39.379 45.0751 39.2486 44.9551 39.0883 44.9389C38.9507 44.9219 38.7686 44.9294 38.5419 44.9617L38.0638 44.9816C37.912 45.1704 37.7701 45.3245 37.6383 45.444C37.5292 45.5626 37.4813 45.7813 37.4946 46.1C37.4965 46.1455 37.5102 46.202 37.5358 46.2693C37.5614 46.3367 37.5752 46.3931 37.5771 46.4387L37.5102 46.4757C37.09 46.7896 36.7826 47.0761 36.5881 47.3351C36.4164 47.5931 36.2039 47.9669 35.9506 48.4563C35.741 48.8984 35.5399 49.2717 35.3473 49.5762C35.1775 49.8797 34.8815 50.1657 34.4594 50.4342C34.6064 50.6789 34.6505 50.9165 34.5917 51.147C34.5927 51.1698 34.5941 51.204 34.596 51.2495C34.6197 51.2713 34.632 51.2936 34.633 51.3164C34.5514 51.5478 34.4323 51.701 34.2758 51.776C34.1193 51.8509 33.9623 51.9145 33.8048 51.9666C33.6464 51.996 33.4889 52.0482 33.3324 52.1231C33.1749 52.1753 33.0549 52.3057 32.9724 52.5144C32.9013 52.449 32.8301 52.3835 32.759 52.3181C32.6869 52.2299 32.5939 52.1881 32.4801 52.1929C32.3881 52.1739 32.2979 52.2004 32.2097 52.2725C32.1433 52.3209 32.066 52.3811 31.9778 52.4532C31.9123 52.5244 31.8473 52.6069 31.7828 52.7008C31.7183 52.7947 31.6529 52.8659 31.5865 52.9143C31.6254 53.3003 31.511 53.5674 31.2435 53.7153C30.977 53.8861 30.7336 54.0673 30.5136 54.2589C30.0848 53.8206 29.629 53.8282 29.1461 54.2816C28.7382 54.3442 28.3194 54.4187 27.8897 54.505C27.4827 54.5904 27.0744 54.6416 26.6646 54.6587C26.2548 54.6757 25.8544 54.6468 25.4636 54.5718C25.0728 54.4969 24.69 54.3418 24.3153 54.1065C24.2062 54.2251 24.0948 54.2867 23.9809 54.2915C23.8899 54.2953 23.776 54.3 23.6394 54.3057C23.4953 54.1293 23.3292 53.9765 23.1414 53.8475C22.9773 53.7403 22.8009 53.6108 22.6121 53.4591C22.3057 53.2209 21.9751 52.9496 21.6203 52.6451C21.2874 52.3169 21.0232 51.9972 20.8278 51.6861C20.5812 51.2402 20.409 50.6658 20.3113 49.9629C20.2127 49.2372 20.1529 48.6239 20.1321 48.1231C20.0941 47.2124 20.1255 46.3216 20.226 45.4508C20.3029 44.5582 20.3797 43.6655 20.4566 42.7729L20.4552 42.7387C20.6791 42.0908 20.9029 41.4429 21.1268 40.795C21.3498 40.1244 21.5499 39.4547 21.7273 38.7859C21.827 38.4397 21.9147 38.0825 21.9906 37.7144C22.0665 37.3464 22.1543 36.9892 22.2539 36.643L22.2866 36.6074C22.446 36.6008 22.5598 36.596 22.6281 36.5932C22.6954 36.5676 22.7837 36.4955 22.8928 36.3769C22.8662 35.7394 22.9995 35.1067 23.2926 34.4787C23.6076 33.8271 23.9833 33.2641 24.4196 32.7898L24.4182 32.7556C24.4894 32.2737 24.6649 31.8331 24.9447 31.4337C25.2236 31.0116 25.5148 30.6118 25.8184 30.2342C26.1447 29.8557 26.4478 29.4668 26.7277 29.0675C27.0066 28.6453 27.193 28.1928 27.2869 27.71L27.3196 27.6744C27.4496 27.5094 27.5919 27.3666 27.7465 27.2461C27.9002 27.1029 28.0653 26.9592 28.2417 26.815C28.6363 26.4337 29.0201 26.0642 29.3929 25.7066C29.7875 25.3252 30.1589 24.9335 30.507 24.5313C30.7888 24.1774 31.0383 23.8706 31.2555 23.6107C31.4946 23.327 31.7346 23.0662 31.9755 22.8281C32.2165 22.59 32.4688 22.3514 32.7325 22.1123C33.019 21.8724 33.3506 21.6191 33.7272 21.3525L33.7599 21.317L33.9748 21.5475C34.2185 21.3777 34.4519 21.2311 34.6748 21.1078C34.9205 20.9835 35.1653 20.8365 35.4091 20.6667C35.5865 20.5453 35.7861 20.4115 36.0081 20.2655C36.2519 20.0957 36.4967 19.9486 36.7424 19.8244C36.9881 19.7001 37.2352 19.61 37.4837 19.554C37.7541 19.4744 38.0154 19.4521 38.2677 19.4872C38.613 19.564 38.8582 19.702 39.0034 19.9013C39.1485 20.1005 39.351 20.3087 39.611 20.5259C39.9098 20.5819 40.154 20.6972 40.3438 20.8717C40.5325 21.0235 40.6777 21.2227 40.7792 21.4693C40.9025 21.6923 40.9926 21.9394 41.0495 22.2107C41.1282 22.4583 41.196 22.7177 41.253 22.989C41.2805 23.1019 41.308 23.2148 41.3355 23.3277C41.362 23.4178 41.3777 23.5198 41.3824 23.6336C41.2989 23.8195 41.1315 23.9063 40.8801 23.894C40.6515 23.8807 40.4575 23.8774 40.2982 23.884L40.2313 23.921C40.2427 23.6469 40.1635 23.3879 39.9937 23.1441C39.8466 22.8994 39.655 22.6793 39.4188 22.4839C39.1817 22.2657 38.9232 22.0826 38.6433 21.9346C38.3863 21.7857 38.1415 21.659 37.9091 21.5547C37.7517 21.6068 37.6549 21.7477 37.6188 21.9773C37.5818 22.1841 37.5657 22.3444 37.5704 22.4582L37.9276 22.8196C37.9712 22.7722 38.004 22.7366 38.0258 22.7129C38.0476 22.6892 38.0803 22.6536 38.124 22.6062C38.2587 22.555 38.3744 22.5958 38.4712 22.7286C38.5897 22.8377 38.6936 22.8676 38.7828 22.8182L38.8169 22.8168C39.0095 23.0597 39.2163 23.3703 39.4373 23.7488C39.6811 24.1264 39.8324 24.4736 39.8912 24.7904C39.95 25.1073 40.0197 25.4122 40.1003 25.7054C40.181 25.9985 40.3626 26.2532 40.6453 26.4695C40.633 26.7209 40.6681 27.0159 40.7506 27.3545C40.8559 27.6922 40.9142 27.9977 40.9256 28.2709C40.9436 28.7035 40.9716 29.1014 41.0095 29.4647C41.0474 29.8281 41.121 30.2241 41.23 30.6529L41.2315 30.687C41.1907 30.8028 41.1404 30.9645 41.0806 31.1722C41.0427 31.3563 41.0265 31.5166 41.0322 31.6532C41.0474 32.0175 41.1304 32.3675 41.2812 32.7033C41.432 33.0391 41.5596 33.3645 41.664 33.6794C41.7683 33.9944 41.8043 34.3122 41.7721 34.6328C41.7626 34.9525 41.5937 35.2788 41.2655 35.6118C41.3414 35.791 41.3262 35.9741 41.22 36.161C41.1137 36.3479 41.0644 36.5324 41.072 36.7145C41.0758 36.8056 41.1132 36.8838 41.1844 36.9493C41.2546 36.992 41.3139 37.0465 41.3622 37.1129C41.0027 37.2419 40.794 37.4331 40.7361 37.6864C40.7001 37.9159 40.6991 38.1668 40.7333 38.4391C40.7674 38.7113 40.7669 38.9736 40.7318 39.226C40.7195 39.4773 40.5459 39.6898 40.211 39.8634C40.2139 39.9317 40.2276 39.9882 40.2523 40.0327C40.257 40.1466 40.2267 40.2391 40.1612 40.3102C40.0948 40.3586 40.017 40.4074 39.9279 40.4568C39.8387 40.5061 39.7614 40.5663 39.6959 40.6375C39.6295 40.6858 39.5987 40.767 39.6034 40.8808C39.6101 41.0402 39.6063 41.2228 39.592 41.4286C39.6006 41.6335 39.6086 41.827 39.6162 42.0092C39.6466 42.1903 39.6992 42.3592 39.7742 42.5157C39.8719 42.6713 40.0137 42.7908 40.1996 42.8743L40.3362 42.8686C40.6075 42.8117 40.8233 42.7913 40.9836 42.8074C41.1439 42.8236 41.3512 42.872 41.6054 42.9526C41.7904 43.0133 41.9754 43.074 42.1604 43.1347C42.3444 43.1727 42.5251 43.131 42.7025 43.0095C42.8856 43.0247 43.0563 43.0176 43.2148 42.9882C43.3722 42.936 43.5193 42.9071 43.6559 42.9014C43.8143 42.872 43.9737 42.8654 44.134 42.8815C44.3161 42.8739 44.5229 42.9109 44.7544 42.9925L44.7899 43.0252C45.0641 43.0366 45.2785 42.9821 45.4331 42.8616C45.6105 42.7402 45.7651 42.6197 45.897 42.5002C46.0506 42.357 46.2053 42.2365 46.3608 42.1388C46.5164 42.0411 46.709 42.0103 46.9386 42.0463L46.9741 42.079C47.309 41.9054 47.6443 41.7432 47.9801 41.5924C48.316 41.4416 48.6646 41.3244 49.026 41.241C49.2508 41.1632 49.3964 41.1001 49.4628 41.0517C49.5283 40.9806 49.571 40.9104 49.5909 40.8411C49.6326 40.7482 49.6739 40.6438 49.7147 40.5281C49.7555 40.4124 49.8636 40.271 50.0391 40.1041C50.3541 39.9997 50.6467 39.9077 50.9171 39.8281C51.2093 39.7247 51.5019 39.6326 51.795 39.552ZM39.2067 29.7109C38.9847 29.3096 38.7964 28.8955 38.6418 28.4686C38.4872 28.0418 38.3548 27.6026 38.2448 27.151C38.1357 26.7222 38.0162 26.3167 37.8863 25.9344C37.7781 25.5284 37.6259 25.1584 37.4295 24.8245C37.255 24.4669 37.0145 24.169 36.7081 23.9309C36.4236 23.6691 36.0503 23.468 35.5883 23.3276L35.4844 23.2977C35.4 23.4609 35.3625 23.6563 35.372 23.8839C35.3805 24.0888 35.4564 24.2681 35.5997 24.4218L35.6367 24.4887C35.6139 24.4896 35.603 24.5015 35.6039 24.5243C35.6039 24.5243 35.5926 24.5247 35.5698 24.5257C34.9978 25.0284 34.5315 25.6066 34.171 26.2602C33.8105 26.9138 33.5089 27.6105 33.266 28.3504C33.0459 29.0894 32.8723 29.8492 32.7452 30.6299C32.6399 31.3869 32.5336 32.1212 32.4264 32.8326L32.3937 32.8682C32.4439 32.9801 32.4937 33.0807 32.5431 33.1698C32.6152 33.2581 32.654 33.3705 32.6597 33.5071C32.6683 33.712 32.6531 33.8951 32.6142 34.0563C32.5971 34.1939 32.5805 34.3428 32.5644 34.5031C32.5473 34.6407 32.5644 34.7768 32.6156 34.9115C32.6668 35.0462 32.7754 35.1899 32.9414 35.3427C32.968 35.4328 32.9609 35.5357 32.9201 35.6514C32.9011 35.7434 32.894 35.8464 32.8987 35.9602C32.9082 36.1879 32.9542 36.471 33.0367 36.8097C33.1411 37.1246 33.2345 37.4514 33.317 37.7901C33.4223 38.1278 33.5148 38.4318 33.5945 38.7022C33.6742 38.9725 33.7164 39.1646 33.7211 39.2785C34.2637 39.712 34.7949 40.146 35.3148 40.5805C35.8346 41.0149 36.4407 41.3318 37.1332 41.531L37.2371 41.5609C37.3766 41.0762 37.5511 40.6128 37.7608 40.1707C37.9704 39.7287 38.1692 39.2985 38.357 38.8801C38.5666 38.4381 38.7303 37.9866 38.8479 37.5255C38.9874 37.0408 39.0566 36.5134 39.0557 35.9432L39.0899 35.9418C39.1041 35.736 39.143 35.5747 39.2065 35.458C39.2692 35.3186 39.3095 35.1915 39.3275 35.0767C39.3455 34.9619 39.3294 34.8486 39.2791 34.7366C39.2507 34.601 39.153 34.4454 38.986 34.2699L39.0187 34.2343C39.3024 33.926 39.4361 33.5784 39.42 33.1913C39.4267 32.8033 39.3759 32.4064 39.2678 32.0003C39.1824 31.5934 39.0975 31.1978 39.0131 30.8136C38.9515 30.4285 39.0051 30.0728 39.1739 29.7464L39.2067 29.7109ZM36.0205 44.3825C35.9873 44.133 35.8654 43.9443 35.6548 43.8162C35.4432 43.6654 35.2099 43.5382 34.9547 43.4348C34.6986 43.3087 34.4538 43.182 34.2205 43.0549C33.9862 42.905 33.8297 42.7063 33.7509 42.4587C33.6324 42.3496 33.5019 42.2296 33.3596 42.0987C33.2401 41.9668 33.1211 41.8463 33.0025 41.7373C32.8849 41.6509 32.7435 41.5428 32.5785 41.4128C32.4362 41.2819 32.3053 41.1505 32.1858 41.0187C32.0653 40.864 31.9562 40.7089 31.8585 40.5534C31.7826 40.3741 31.7523 40.1929 31.7674 40.0098L31.7319 39.9771C31.452 39.8291 31.2623 39.6545 31.1627 39.4534C31.0631 39.2523 30.9867 39.0616 30.9336 38.8814C30.9023 38.6775 30.8601 38.4854 30.807 38.3051C30.7539 38.1249 30.6329 37.9589 30.4442 37.8071C30.2222 37.4058 30.0567 36.9908 29.9476 36.562C29.8376 36.1105 29.7498 35.6466 29.6844 35.1704C29.6417 34.6933 29.5995 34.2275 29.5578 33.7731C29.5151 33.296 29.4506 32.8425 29.3643 32.4128L29.3629 32.3786C29.5118 32.1216 29.5678 31.8228 29.5308 31.4822C29.5166 31.1407 29.5042 30.8447 29.4938 30.5943C28.8848 31.8512 28.1828 33.0664 27.3878 34.2398C26.6156 35.4122 25.9378 36.6606 25.3544 37.9849L25.602 38.1798L25.5692 38.2154C25.2894 38.6147 25.0906 39.0449 24.973 39.506C24.8781 39.966 24.7842 40.4489 24.6912 40.9545C24.6201 41.4364 24.5148 41.9197 24.3753 42.4044C24.2577 42.8655 24.0357 43.2852 23.7094 43.6637L23.7108 43.6978L23.6766 43.6993C23.209 43.9696 22.9476 44.2656 22.8926 44.5872C22.8366 44.886 22.8499 45.2047 22.9324 45.5434C23.0368 45.8583 23.1421 46.196 23.2483 46.5565C23.3763 46.8932 23.3797 47.2466 23.2582 47.6166L23.2596 47.6507C22.9248 48.3716 22.8152 49.0262 22.9309 49.6143C23.0457 50.1797 23.2767 50.7973 23.6238 51.467L23.6253 51.5011C23.7457 51.6558 23.9421 51.716 24.2143 51.6819C24.4866 51.6477 24.6882 51.5595 24.8191 51.4172L24.8888 51.4485C25.0567 51.6468 25.2678 51.7862 25.522 51.8669C25.7753 51.9247 26.039 51.9594 26.3131 51.9708C26.6101 51.9812 26.8951 51.9807 27.1683 51.9693C27.4633 51.9343 27.7247 51.912 27.9524 51.9025L30.9121 49.8635C31.2004 49.669 31.4447 49.5106 31.6449 49.3883C31.8678 49.2649 32.1111 49.0838 32.3748 48.8447C32.6167 48.6294 32.8027 48.4392 32.9326 48.2741C33.0617 48.0863 33.2462 47.862 33.4862 47.6011L35.7117 45.1822C35.7553 45.1348 35.8184 45.0067 35.9009 44.798C35.9825 44.5665 36.0223 44.4281 36.0205 44.3825ZM74.7862 49.3705C74.513 49.3818 74.2972 49.4022 74.1388 49.4316C74.0022 49.4373 73.8774 49.4539 73.7645 49.4814C73.6516 49.5089 73.5283 49.5597 73.3946 49.6337C73.2608 49.7077 73.0829 49.8177 72.861 49.9638C72.7803 50.218 72.6632 50.4167 72.5095 50.56C72.3776 50.6795 72.2111 50.7891 72.01 50.8887C71.8308 50.9645 71.6406 51.0523 71.4394 51.1519C71.2374 51.2287 71.0491 51.362 70.8745 51.5517C69.1556 51.897 67.6142 51.5735 66.2501 50.5812C66.086 50.474 65.9328 50.3549 65.7905 50.224C65.671 50.0922 65.5291 49.9726 65.365 49.8654C65.2474 49.7791 65.1777 49.7478 65.1559 49.7715C65.1559 49.7715 65.108 49.7165 65.0122 49.6065C64.8433 49.3854 64.7295 49.1165 64.6707 48.7997C64.6337 48.4591 64.5749 48.1423 64.4942 47.8491C64.4127 47.5333 64.2652 47.2771 64.0517 47.0808C63.8601 46.8607 63.5257 46.772 63.0486 46.8147C62.8408 47.3022 62.5311 47.8055 62.1194 48.3244C61.7295 48.8195 61.2808 49.2715 60.7733 49.6804C60.2658 50.0892 59.7212 50.4312 59.1397 50.7063C58.581 50.9804 58.0398 51.1284 57.5162 51.1502C57.3559 51.6814 57.0532 52.0817 56.6083 52.3511C56.1871 52.6423 55.729 52.8667 55.2338 53.0241C55.1892 53.0488 55.0991 53.0753 54.9634 53.1038C54.8287 53.155 54.75 53.1811 54.7272 53.1821C54.4094 53.2181 54.1566 53.1716 53.9688 53.0426C53.781 52.9136 53.6041 52.7727 53.4381 52.62C53.2721 52.4672 53.0952 52.3264 52.9073 52.1974C52.7195 52.0683 52.4662 52.0105 52.1475 52.0237C51.8724 51.4422 51.5978 50.8721 51.3237 50.3134C51.0495 49.7546 50.8432 49.1817 50.7047 48.5945C50.9049 48.4721 51.013 48.3308 51.0292 48.1705C51.0216 47.9883 51.014 47.8062 51.0064 47.6241C50.6374 47.5254 50.4496 47.3964 50.4429 47.237C50.4126 47.0558 50.4391 46.8723 50.5226 46.6863C50.5833 46.5014 50.6559 46.3273 50.7403 46.1641C50.8011 45.9792 50.7494 45.8331 50.5853 45.7259C50.7095 44.3295 51.052 42.9697 51.6127 41.6464C52.1733 40.3231 53.0048 39.2052 54.1071 38.2926C53.9525 37.8657 53.9729 37.5342 54.1683 37.298C54.3865 37.0608 54.6431 36.9247 54.9381 36.8896C55.2559 36.8536 55.5552 36.921 55.836 37.0917C56.1386 37.2387 56.2975 37.4944 56.3127 37.8587C56.3421 38.0171 56.3373 38.1769 56.2984 38.3382C56.2595 38.4995 56.2202 38.6493 56.1803 38.7878C56.0722 39.4765 55.8947 40.1453 55.6481 40.7941C55.4014 41.443 55.1316 42.0814 54.8384 42.7094C54.5453 43.3373 54.2408 43.9658 53.9249 44.5947C53.6317 45.2227 53.3851 45.8715 53.1849 46.5413C52.9193 46.7348 52.8363 46.9321 52.9359 47.1332C53.0355 47.3343 53.1579 47.5345 53.303 47.7337C53.4699 47.9092 53.5572 48.088 53.5648 48.2701C53.5951 48.4513 53.3974 48.6306 52.9714 48.808C52.8481 49.1324 52.8941 49.4155 53.1094 49.6574C53.3238 49.8766 53.5045 50.1085 53.6516 50.3533C53.8346 50.3684 54.0054 50.3613 54.1638 50.3319C54.345 50.3016 54.4887 50.193 54.595 50.0061C54.8757 50.1769 55.1162 50.201 55.3164 50.0787C55.5393 49.9554 55.7613 49.8093 55.9823 49.6404C56.2252 49.4479 56.4808 49.289 56.7493 49.1638C57.0405 49.0376 57.372 49.058 57.7439 49.225C57.8966 49.059 58.0138 48.8602 58.0954 48.6288C58.1997 48.3964 58.3045 48.1753 58.4098 47.9657C58.5151 47.7561 58.6446 47.5796 58.7983 47.4364C58.9748 47.2922 59.2233 47.2362 59.5439 47.2685C59.839 46.6861 60.2407 46.2018 60.7492 45.8157C61.2567 45.4069 61.7651 45.0208 62.2746 44.6575C62.8067 44.2932 63.2697 43.9091 63.6633 43.505C64.0798 43.0999 64.3321 42.5877 64.4204 41.9682C64.8245 41.2672 65.2253 40.4865 65.6228 39.6261C66.0421 38.742 66.5359 38.0031 67.1041 37.4092C67.1648 37.2243 67.2729 37.0829 67.4285 36.9852C67.5831 36.8647 67.7511 36.7893 67.9322 36.759C68.1125 36.7059 68.2951 36.7097 68.4801 36.7704C68.6641 36.8083 68.8273 36.8928 68.9695 37.0237C69.0321 37.4316 68.9909 37.8096 68.8457 38.1577C68.7233 38.5049 68.5782 38.8531 68.4103 39.2021C68.2642 39.5275 68.1532 39.8742 68.0773 40.2423C68.0014 40.6104 68.0531 41.0301 68.2324 41.5016C67.9212 41.697 67.6091 41.8696 67.2961 42.0195C67.0058 42.1684 66.7274 42.3283 66.4608 42.499C66.217 42.6688 65.9979 42.8832 65.8034 43.1422C65.6317 43.4002 65.5203 43.7355 65.469 44.1482C66.0932 44.3502 66.4693 44.6196 66.5974 44.9564C66.7254 45.2932 66.798 45.6664 66.8151 46.0762C66.8312 46.4633 66.871 46.8721 66.9346 47.3028C67.0199 47.7098 67.333 48.1072 67.8737 48.4952C67.9676 48.5597 68.0269 48.6143 68.0515 48.6589C68.098 48.6797 68.1791 48.7106 68.2948 48.7514C68.5254 48.8102 68.7303 48.8016 68.9095 48.7258C69.0879 48.6271 69.2553 48.5403 69.4118 48.4654C69.5911 48.3895 69.7723 48.3591 69.9554 48.3743C70.1603 48.3658 70.3937 48.4929 70.6555 48.7557C70.979 48.3089 71.2977 48.2956 71.6117 48.7158C71.864 48.2036 72.1026 47.9086 72.3274 47.8308C72.5522 47.753 72.7676 47.7212 72.9734 47.7355C73.202 47.7488 73.4288 47.7165 73.6536 47.6387C73.8784 47.561 74.117 47.2659 74.3693 46.7537L74.6895 47.0482C74.8109 46.6783 74.9632 46.5009 75.1462 46.5161C75.3511 46.5076 75.5461 46.5336 75.7311 46.5944C75.9151 46.6323 76.0745 46.6257 76.2092 46.5744C76.3429 46.5005 76.3998 46.2244 76.3799 45.7463C76.5848 45.7378 76.7537 45.6851 76.8865 45.5884C77.0421 45.4907 77.1858 45.3821 77.3176 45.2625C77.4723 45.1421 77.6392 45.0439 77.8185 44.968C77.9969 44.8694 78.2112 44.8148 78.4617 44.8044L77.6634 46.9928L74.7862 49.3705ZM105.836 36.6514C105.765 37.1333 105.59 37.5853 105.311 38.0075C105.055 38.4286 104.728 38.8071 104.332 39.1429C103.958 39.4778 103.548 39.7685 103.102 40.0152C102.655 40.239 102.206 40.406 101.755 40.516C101.084 40.8404 100.456 41.0946 99.8708 41.2786C99.3073 41.4389 98.7306 41.5542 98.1405 41.6244C97.5505 41.6946 96.9363 41.7315 96.2979 41.7353C95.6594 41.7391 94.9409 41.7348 94.1421 41.7225C93.9401 41.7993 93.7968 41.9193 93.7124 42.0825C93.6507 42.2447 93.6123 42.4173 93.5971 42.6004C93.6047 42.7825 93.6242 42.9756 93.6555 43.1795C93.6858 43.3607 93.6929 43.5315 93.6768 43.6918C93.471 43.6776 93.303 43.753 93.1731 43.918C93.0659 44.0821 92.9577 44.2235 92.8486 44.342C92.8913 44.8192 92.8382 45.1863 92.6893 45.4434C92.5394 45.6777 92.3544 45.8906 92.1343 46.0823C91.936 46.2502 91.7046 46.4423 91.4399 46.6585C91.1971 46.8511 90.9922 47.1333 90.8252 47.5052C90.7398 47.6455 90.6886 47.7845 90.6715 47.9221C90.6535 48.0368 90.6255 48.1863 90.5875 48.3703C90.5325 48.6919 90.3812 48.892 90.1336 48.9707C89.9088 49.0485 89.6721 49.1154 89.4236 49.1714C89.1741 49.2046 88.9493 49.2823 88.7491 49.4047C88.548 49.5043 88.4441 49.7481 88.4375 50.1361C87.9423 50.2935 87.4618 50.5302 86.9961 50.8461C86.5312 51.1847 86.0659 51.512 85.6001 51.8279C85.1344 52.1438 84.6539 52.3804 84.1587 52.5379C83.6873 52.7172 83.1745 52.7271 82.6205 52.5677C82.5048 52.5269 82.3426 52.4653 82.1339 52.3827C81.948 52.2993 81.8076 52.2139 81.7127 52.1266C81.6653 52.083 81.5932 51.9948 81.4965 51.8619C81.4234 51.751 81.3632 51.6736 81.3157 51.63C81.0729 51.2752 80.8856 50.8839 80.7537 50.4561C80.6219 50.0283 80.5242 49.599 80.4606 49.1683C80.3961 48.7149 80.3658 48.26 80.3696 47.8038C80.3506 47.3484 80.3326 46.9159 80.3155 46.5061C80.4313 46.5468 80.5446 46.5307 80.6556 46.4577C80.7429 46.3628 80.8193 46.2798 80.8847 46.2087L80.5418 45.3677C80.6803 45.4076 80.7937 45.3914 80.8819 45.3194C80.9701 45.2473 81.0465 45.1643 81.111 45.0703C80.7619 44.9024 80.5836 44.7274 80.576 44.5453C80.5447 44.3413 80.5817 44.1345 80.687 43.9249C80.7913 43.6925 80.9184 43.4591 81.0683 43.2248C81.241 42.9896 81.3221 42.7467 81.3117 42.4963C81.3117 41.9489 81.3473 41.4343 81.4184 40.9524C81.5114 40.4468 81.6162 39.9521 81.7329 39.4683C81.8496 38.9845 81.9777 38.5003 82.1171 38.0155C82.2566 37.5308 82.3723 37.0242 82.4643 36.4959C82.8495 36.4342 83.1953 36.2488 83.5017 35.9395C83.8071 35.6075 84.1135 35.2983 84.4209 35.0118C84.7282 34.7253 85.0512 34.5408 85.3899 34.4583C85.7513 34.3748 86.1682 34.5285 86.6406 34.9194C86.7545 35.462 86.7298 35.9647 86.5666 36.4276C86.4262 36.8896 86.2512 37.3416 86.0415 37.7837C85.8319 38.2257 85.6455 38.6782 85.4823 39.1411C85.3419 39.6031 85.34 40.1049 85.4766 40.6466C84.6276 41.0696 84.0816 41.6511 83.8388 42.391C83.6187 43.13 83.4806 43.9226 83.4246 44.7687C83.4123 45.0201 83.3895 45.2947 83.3563 45.5926C83.3222 45.8677 83.2534 46.1328 83.15 46.388C83.2999 46.7011 83.3359 47.0188 83.2581 47.3414C83.1794 47.6411 83.1006 47.9409 83.0219 48.2406C82.9659 48.5395 82.9545 48.8136 82.9877 49.0631C83.0209 49.3126 83.213 49.544 83.564 49.7575C85.0486 49.2623 86.3084 48.5713 87.3433 47.6844C88.3783 46.7974 89.3136 45.7094 90.1494 44.4203C90.6208 43.6936 91.0473 42.9803 91.4286 42.2802C91.8318 41.5564 92.1548 40.8246 92.3977 40.0847C92.6405 39.3448 92.7909 38.5745 92.8488 37.7739C92.9067 36.9732 92.826 36.1328 92.6069 35.2524C92.8337 35.2202 93.0338 35.0978 93.2074 34.8853C93.381 34.6728 93.556 34.4945 93.7325 34.3503C93.908 34.1834 94.0868 34.0961 94.2689 34.0885C94.4511 34.0809 94.6517 34.2436 94.8708 34.5766C95.2189 34.7217 95.3978 34.9081 95.4072 35.1358C95.4385 35.3398 95.4134 35.5575 95.3318 35.7889C95.273 36.0194 95.2256 36.2495 95.1895 36.479C95.1535 36.7086 95.2649 36.9206 95.5239 37.1151C95.4575 37.1635 95.3821 37.2692 95.2976 37.4324C95.2123 37.5728 95.1397 37.7469 95.0799 37.9546C95.0192 38.1396 94.9699 38.3241 94.9319 38.5081C94.893 38.6694 94.8864 38.7837 94.912 38.851C95.1321 39.2068 95.3678 39.3908 95.6192 39.4032C95.8696 39.3927 96.1295 39.3363 96.3989 39.2338C96.6683 39.1314 96.9392 39.0631 97.2114 39.029C97.5055 38.9711 97.783 39.0622 98.0438 39.3022C98.6102 39.2102 99.1196 39.1205 99.572 39.0333C100.024 38.9232 100.452 38.8142 100.858 38.706C101.287 38.5969 101.715 38.4765 102.143 38.3446C102.593 38.1891 103.099 38.0311 103.663 37.8708C103.944 37.4942 104.263 37.2301 104.622 37.0783C105.003 36.9256 105.408 36.7833 105.836 36.6514ZM129.702 42.0204C129.189 42.2927 128.849 42.6147 128.682 42.9866C128.515 43.3584 128.383 43.7402 128.285 44.132C128.21 44.5228 128.1 44.9037 127.956 45.2746C127.834 45.6218 127.538 45.9192 127.07 46.1667C126.973 46.5813 126.757 46.8753 126.422 47.0489C126.11 47.2216 125.775 47.3838 125.416 47.5356C125.057 47.6646 124.733 47.8377 124.446 48.0549C124.181 48.2712 124.059 48.6298 124.08 49.1306C123.635 49.4 123.144 49.6485 122.606 49.8762C122.091 50.1029 121.539 50.2741 120.951 50.3898C120.387 50.5274 119.819 50.5966 119.249 50.5976C118.679 50.5985 118.139 50.5069 117.63 50.3229C117.282 50.1778 116.943 49.9866 116.614 49.7494C116.496 49.6631 116.379 49.5882 116.263 49.5246C116.17 49.4829 116.064 49.4075 115.945 49.2984C115.661 49.0365 115.42 48.7273 115.222 48.3706C115.025 48.0139 114.861 47.6331 114.73 47.228C114.599 46.8229 114.491 46.4169 114.406 46.01C114.32 45.603 114.247 45.2183 114.187 44.856L115.308 41.3883C114.626 40.8922 114.066 40.3112 113.627 39.6452C113.188 38.9565 112.66 38.3285 112.044 37.7613C111.937 37.9254 111.794 38.0681 111.617 38.1895C111.44 38.311 111.379 38.4959 111.435 38.7445L111.789 39.0376C111.072 39.8885 110.348 40.8537 109.618 41.9332C108.909 42.989 108.36 44.0495 107.971 45.1148C107.469 45.1129 107.122 45.2528 106.928 45.5346C106.734 45.7935 106.575 46.0966 106.453 46.4438C106.33 46.7682 106.171 47.0713 105.978 47.353C105.784 47.6348 105.447 47.7628 104.967 47.7372C104.864 47.9924 104.762 48.2703 104.66 48.571C104.558 48.849 104.432 49.1165 104.283 49.3735C104.134 49.6306 103.949 49.8436 103.728 50.0124C103.508 50.204 103.227 50.307 102.886 50.3212C102.696 50.1466 102.585 49.9574 102.554 49.7534C102.523 49.5495 102.537 49.3436 102.597 49.1359C102.656 48.9054 102.738 48.6853 102.843 48.4757C102.947 48.2432 103.018 48.0236 103.055 47.8168C103.21 47.149 103.515 46.5433 103.971 45.9998C104.427 45.4335 104.883 44.8786 105.339 44.335C105.794 43.7687 106.18 43.1825 106.497 42.5763C106.814 41.9701 106.922 41.2701 106.82 40.4761C107.115 40.441 107.409 40.3717 107.701 40.2684C108.015 40.1412 108.294 39.9928 108.538 39.823C108.803 39.6295 108.999 39.4047 109.125 39.1485C109.273 38.8687 109.317 38.5476 109.256 38.1852C109.07 38.1018 108.963 37.9808 108.933 37.8224C108.903 37.6412 108.895 37.4591 108.911 37.276C109.405 37.0958 109.792 36.806 110.072 36.4066C110.373 35.9835 110.64 35.5391 110.871 35.0733C111.103 34.6076 111.323 34.1423 111.532 33.6775C111.762 33.1889 112.064 32.7659 112.437 32.4082C112.763 32.5771 113.088 32.7232 113.413 32.8465C113.736 32.9471 114.05 33.0937 114.355 33.2862C114.161 33.568 114.047 33.835 114.012 34.0873C113.977 34.3397 113.965 34.6024 113.976 34.8756C113.987 35.1261 113.997 35.3765 114.007 35.6269C114.018 35.8774 113.96 36.142 113.835 36.4209C114.213 36.7245 114.536 37.0873 114.804 37.5095C115.073 37.9316 115.407 38.2826 115.806 38.5624C116.071 38.3462 116.374 38.2309 116.715 38.2167C117.056 38.1797 117.397 38.1655 117.74 38.174C118.104 38.1588 118.445 38.1219 118.761 38.0631C119.077 37.9815 119.331 37.7771 119.523 37.4498C119.618 37.5371 119.756 37.5769 119.938 37.5693C120.12 37.5617 120.302 37.5542 120.485 37.5466C120.667 37.539 120.827 37.5665 120.967 37.6291C121.105 37.669 121.189 37.7681 121.219 37.9265C121.249 38.1077 121.243 38.2334 121.2 38.3036C121.18 38.3728 121.151 38.4881 121.112 38.6493C121.074 38.8334 121.066 38.9249 121.089 38.924C121.112 38.923 121.093 39.0036 121.031 39.1659C120.929 39.4666 120.746 39.7251 120.482 39.9413C120.24 40.1567 119.986 40.3725 119.722 40.5888C119.479 40.7813 119.249 41.0076 119.032 41.2675C118.836 41.5037 118.746 41.8039 118.761 42.1682C118.268 42.3712 117.927 42.6591 117.737 43.0319C117.546 43.3819 117.426 43.786 117.377 44.2442C117.326 44.6796 117.3 45.1368 117.297 45.6159C117.293 46.0722 117.231 46.4967 117.111 46.8894L117.432 47.2181L117.691 46.8652C118.029 47.3073 118.416 47.5762 118.854 47.672C119.314 47.7669 119.782 47.7816 120.258 47.7162C120.472 47.3652 120.722 47.0811 121.009 46.8639C121.32 46.6457 121.643 46.4612 121.978 46.3104C122.337 46.1586 122.696 46.0182 123.056 45.8892C123.438 45.7592 123.796 45.6075 124.131 45.4339C124.399 45.2859 124.62 45.1284 124.796 44.9615C124.994 44.7936 125.203 44.6024 125.422 44.3881C126.078 43.7221 126.724 43.0681 127.359 42.4259C128.016 41.7827 128.673 41.1282 129.329 40.4623C129.466 40.4566 129.56 40.5211 129.611 40.6558C129.662 40.7905 129.692 40.949 129.699 41.1311C129.706 41.2905 129.702 41.4617 129.686 41.6448C129.693 41.8041 129.698 41.9293 129.702 42.0204ZM157.692 37.1601C157.496 37.3735 157.343 37.5395 157.234 37.6581C157.148 37.7757 157.061 37.8934 156.975 38.011C156.911 38.1049 156.824 38.2112 156.715 38.3297C156.628 38.4474 156.488 38.6243 156.292 38.8605C156.118 39.0502 155.955 39.2508 155.804 39.4624C155.653 39.6739 155.479 39.8636 155.28 40.0315C155.004 39.9746 154.789 40.0177 154.636 40.161C154.505 40.3033 154.375 40.4683 154.246 40.6561C154.139 40.8203 154.032 40.9844 153.924 41.1485C153.839 41.2889 153.716 41.351 153.556 41.3349C153.022 41.6536 152.486 41.9382 151.949 42.1886C151.411 42.4162 150.901 42.7454 150.417 43.1761L150.132 42.9142L146.652 44.7697C146.54 44.8199 146.429 44.893 146.319 44.9888C146.209 45.0846 146.098 45.169 145.987 45.2421C145.498 45.5361 144.984 45.8084 144.448 46.0588C143.932 46.2855 143.417 46.5008 142.901 46.7048L142.463 46.8598C142.664 47.3076 142.677 47.6263 142.502 47.816C142.328 48.0058 142.072 48.1533 141.734 48.2586C141.395 48.3411 141.022 48.4023 140.613 48.4421C140.204 48.4819 139.888 48.5749 139.667 48.721C139.391 48.6868 139.106 48.6759 138.81 48.6882C138.538 48.7224 138.255 48.7684 137.96 48.8262C137.644 48.885 137.349 48.9201 137.075 48.9315C136.802 48.9429 136.505 48.9211 136.183 48.866L136.115 48.8689C135.735 49.0671 135.395 49.1155 135.095 49.014C134.818 48.9343 134.561 48.7854 134.323 48.5672C134.085 48.3262 133.857 48.0507 133.639 47.7405C133.443 47.4065 133.236 47.1072 133.02 46.8426C132.876 46.6661 132.694 46.4114 132.475 46.0785C132.256 45.7455 132.07 45.3883 131.917 45.007C131.742 44.6266 131.635 44.2434 131.596 43.8573C131.533 43.4494 131.598 43.0932 131.791 42.7887C131.983 42.4842 132.141 42.1583 132.263 41.8111C132.363 41.4649 132.403 41.0641 132.384 40.6088C132.378 40.4494 132.371 40.3014 132.366 40.1648C132.337 40.0292 132.32 39.8816 132.313 39.7223C132.427 39.7175 132.553 39.7237 132.69 39.7408C132.827 39.7351 132.952 39.7299 133.066 39.7251C133.201 39.6967 133.302 39.6469 133.367 39.5757C133.455 39.4809 133.494 39.331 133.486 39.1261C133.481 39.0123 133.431 38.9231 133.338 38.8586C133.266 38.7931 133.218 38.7267 133.192 38.6594C133.321 38.4488 133.439 38.2842 133.548 38.1656C133.679 38.0233 133.788 37.8934 133.874 37.7758C133.959 37.6354 134.022 37.4845 134.06 37.3233C134.098 37.1392 134.077 36.9007 133.996 36.6075C134.25 36.1181 134.551 35.6836 134.9 35.3042C135.271 34.901 135.655 34.5315 136.051 34.1957C136.447 33.8372 136.854 33.4895 137.273 33.1528C137.693 32.816 138.088 32.4574 138.46 32.0771C138.9 32.2412 139.242 32.227 139.485 32.0344C139.75 31.8409 139.981 31.6374 140.178 31.424C140.373 31.1878 140.57 30.9971 140.77 30.852C140.969 30.7068 141.244 30.7524 141.596 30.9886L141.667 31.054C142.257 30.4137 142.86 30.1149 143.477 30.1576C144.118 30.1994 144.661 30.382 145.108 30.7055C145.578 31.028 145.89 31.4141 146.046 31.8638C146.2 32.2906 146.088 32.5918 145.707 32.7673C145.968 33.0073 146.106 33.2981 146.12 33.6396C146.134 33.9811 146.055 34.2808 145.884 34.5389C145.69 34.8206 145.52 35.1128 145.373 35.4154C145.247 35.6943 145.112 35.9964 144.966 36.3218C144.76 36.8549 144.53 37.3662 144.277 37.8556C144.023 38.3224 143.652 38.7255 143.164 39.0651C142.75 38.9683 142.467 39.0257 142.316 39.2373C142.188 39.4479 142.095 39.6798 142.037 39.9331C141.978 40.1636 141.906 40.349 141.821 40.4894C141.736 40.6298 141.54 40.5923 141.235 40.377L141.164 40.3115L141.098 40.3827C140.924 40.5724 140.784 40.7835 140.68 41.0159C140.598 41.2473 140.469 41.4238 140.291 41.5452C140.084 41.4854 139.865 41.4375 139.635 41.4015C139.406 41.3654 139.188 41.3289 138.981 41.2919C139.001 41.77 138.925 42.1494 138.755 42.4302C138.584 42.711 138.354 42.9486 138.066 43.1431C137.799 43.3138 137.486 43.4637 137.127 43.5927C136.766 43.6989 136.407 43.8393 136.05 44.0139C135.714 44.1647 135.391 44.3606 135.082 44.6015C134.795 44.8187 134.568 45.1247 134.402 45.5193C134.64 45.7602 134.931 45.8964 135.274 45.9277C135.616 45.9362 135.969 45.9215 136.333 45.8836C136.695 45.8229 137.047 45.7854 137.388 45.7712C137.753 45.756 138.075 45.8338 138.356 46.0046L138.392 46.0373L138.424 46.0017C138.968 45.9107 139.486 45.7637 139.98 45.5607C140.495 45.334 140.987 45.1082 141.457 44.8834C141.948 44.6349 142.44 44.4091 142.934 44.2061C143.449 43.9794 143.978 43.8091 144.52 43.6953C144.642 43.8727 144.794 43.969 144.977 43.9842C145.183 43.9984 145.376 43.979 145.556 43.9258L145.587 43.8561C145.626 43.6949 145.666 43.5564 145.707 43.4406C145.747 43.3021 145.809 43.1513 145.893 42.9881C146.042 42.7311 146.228 42.5295 146.45 42.3834C146.672 42.2373 146.906 42.1249 147.154 42.0462C147.424 41.9665 147.707 41.9091 148.002 41.874C148.297 41.839 148.592 41.7925 148.886 41.7346L148.954 41.7318L148.984 41.6279C149.064 41.3509 149.17 41.164 149.303 41.0673C149.457 40.9468 149.613 40.8605 149.771 40.8083C149.951 40.7552 150.132 40.7135 150.313 40.6831C150.517 40.6518 150.708 40.5754 150.885 40.454C151.3 40.5736 151.64 40.5138 151.904 40.2748C152.168 40.0357 152.419 39.7858 152.659 39.5249L152.947 39.855L153.044 39.7142C153.372 39.3812 153.612 39.1317 153.765 38.9657C153.94 38.7988 154.106 38.655 154.26 38.5346C154.414 38.3913 154.591 38.2585 154.791 38.1362C155.013 37.9901 155.312 37.7838 155.689 37.5172C155.999 37.299 156.298 37.0813 156.585 36.8641C156.895 36.6459 157.193 36.4055 157.479 36.1427C157.595 36.1835 157.655 36.2722 157.661 36.4088C157.666 36.5226 157.67 36.6365 157.675 36.7503C157.654 36.7968 157.634 36.866 157.615 36.9581C157.619 37.0491 157.645 37.1165 157.692 37.1601ZM143.376 33.4802C143.353 33.4583 143.329 33.4479 143.307 33.4488C143.307 33.4488 143.295 33.4379 143.271 33.4161C142.783 33.1856 142.379 33.0884 142.062 33.1244C141.743 33.1377 141.451 33.2411 141.185 33.4346C140.941 33.6044 140.711 33.8306 140.495 34.1133C140.3 34.3723 140.083 34.6208 139.842 34.8589C139.623 35.0733 139.356 35.244 139.042 35.3711C138.728 35.4982 138.341 35.503 137.88 35.3853C137.826 35.7524 137.773 36.1196 137.72 36.4867C137.689 36.8301 137.669 37.1844 137.662 37.5496C137.28 37.7023 136.981 37.9086 136.764 38.1685C136.569 38.4275 136.399 38.7083 136.252 39.0109C136.127 39.3126 136.004 39.637 135.882 39.9842C135.781 40.3076 135.635 40.6216 135.442 40.9261L135.586 41.0912C135.675 41.0419 135.779 41.0717 135.897 41.1808C136.016 41.2899 136.099 41.3663 136.146 41.4099C136.382 41.0352 136.699 40.7141 137.098 40.4466C137.52 40.1782 137.944 39.9325 138.368 39.7096C138.813 39.463 139.236 39.2059 139.635 38.9384C140.035 38.6709 140.328 38.328 140.516 37.9096C141.236 37.6744 141.766 37.2418 142.104 36.612C142.443 35.9821 142.724 35.3318 142.947 34.6612C142.986 34.5227 143.058 34.3258 143.161 34.0707C143.287 33.7918 143.358 33.5949 143.376 33.4802ZM170.089 32.4361C170.014 32.8269 169.9 33.1053 169.747 33.2713C169.616 33.4136 169.478 33.6475 169.332 33.9728L169.192 33.9102C169.02 34.1455 168.858 34.3689 168.707 34.5804C168.579 34.791 168.44 35.0248 168.291 35.2819C168.163 35.4925 168.047 35.714 167.943 35.9464C167.86 36.1551 167.755 36.3647 167.627 36.5753C167.751 36.821 167.842 37.0909 167.9 37.385C167.958 37.679 168.026 37.9499 168.105 38.1975C168.187 38.5133 168.256 38.8183 168.314 39.1124C168.395 39.4055 168.453 39.711 168.489 40.0288C168.525 40.3465 168.527 40.6544 168.493 40.9522C168.459 41.2273 168.437 41.5247 168.428 41.8444C168.408 42.461 168.445 43.0866 168.54 43.7212C168.634 44.3331 168.648 44.9483 168.583 45.5668C168.536 46.0932 168.388 46.6467 168.139 47.2273C167.89 47.8306 167.662 48.3647 167.453 48.8295C167.641 48.9585 167.861 49.0292 168.112 49.0415C168.364 49.0766 168.596 49.1696 168.808 49.3204C168.949 49.4286 169.068 49.549 169.165 49.6819C169.263 49.8374 169.371 49.9698 169.489 50.0789C169.608 50.1879 169.771 50.2724 169.979 50.3321C170.21 50.4137 170.308 50.5807 170.273 50.833C170.255 50.9478 170.212 50.9952 170.142 50.9753C170.074 50.9781 169.993 50.9587 169.901 50.917C169.808 50.8752 169.703 50.8226 169.586 50.759C169.469 50.6954 169.365 50.6656 169.274 50.6694C169.161 50.6741 169.059 50.6898 168.968 50.7163C168.902 50.7647 168.836 50.8131 168.769 50.8614C168.704 50.9326 168.637 50.981 168.57 51.0066C168.504 51.055 168.402 51.082 168.266 51.0877C167.992 51.0991 167.729 51.0644 167.474 50.9838C167.22 50.9032 166.956 50.8571 166.682 50.8457C166.621 51.0307 166.583 51.2148 166.568 51.3978C166.553 51.5809 166.526 51.7645 166.488 51.9485C166.45 52.1325 166.378 52.3066 166.271 52.4707C166.163 52.6348 166.091 52.8089 166.053 52.9929L166.121 52.9901C165.915 53.5232 165.721 54.0672 165.539 54.6222C165.381 55.1989 165.199 55.7538 164.993 56.287L164.889 56.2571C164.783 56.4439 164.699 56.6299 164.638 56.8149C164.579 57.0226 164.519 57.2303 164.459 57.4381C164.416 57.5083 164.386 57.5894 164.367 57.6814C164.37 57.7725 164.362 57.8412 164.341 57.8877C164.192 58.1448 164.055 58.4014 163.928 58.6575C163.802 58.9136 163.676 59.1698 163.55 59.4259C163.425 59.7048 163.299 59.9723 163.173 60.2284C163.047 60.4845 162.909 60.7411 162.76 60.9982C162.654 61.1851 162.535 61.3497 162.404 61.4919C162.297 61.6561 162.179 61.8206 162.049 61.9857C162.006 62.0559 161.951 62.1152 161.885 62.1636C161.82 62.2347 161.765 62.3054 161.723 62.3756C161.572 62.5871 161.446 62.8432 161.344 63.1439C161.243 63.4446 161.14 63.7226 161.037 63.9778C161.014 63.9787 161.003 63.9792 161.003 63.9792C161.004 64.0019 160.993 64.0138 160.97 64.0148C160.75 64.2064 160.565 64.4307 160.416 64.6878C160.29 64.9439 160.117 65.1678 159.897 65.3594C159.723 65.5491 159.492 65.7526 159.204 65.9698C158.939 66.1861 158.742 66.3654 158.611 66.5077C158.437 66.7201 158.252 66.9217 158.054 67.1124C157.858 67.3258 157.662 67.5393 157.465 67.7527C157.223 67.968 157.027 68.1815 156.876 68.393C156.726 68.6273 156.519 68.8412 156.253 69.0347C155.986 69.2055 155.717 69.3079 155.445 69.342C155.172 69.3762 154.902 69.4559 154.634 69.5811L154.598 69.5484C154.327 69.6053 154.066 69.6389 153.815 69.6494C153.543 69.6835 153.271 69.729 153 69.786C152.819 69.8163 152.673 69.868 152.562 69.941C152.428 70.015 152.305 70.0772 152.193 70.1274C152.06 70.2014 151.925 70.2526 151.789 70.2811C151.654 70.3323 151.495 70.339 151.311 70.301C150.921 70.2488 150.644 70.1578 150.479 70.0278C150.314 69.8978 150.067 69.7257 149.739 69.5113C149.222 69.1451 148.781 68.6959 148.417 68.1637C148.031 67.6553 147.734 67.1089 147.528 66.5245C147.396 66.0967 147.326 65.7803 147.317 65.5754C147.309 65.3933 147.319 65.085 147.347 64.6505C147.338 64.4456 147.372 64.1478 147.447 63.7569C147.522 63.3661 147.624 63.0882 147.754 62.9231C147.751 62.8548 147.769 62.7286 147.807 62.5446C147.846 62.3833 147.895 62.2102 147.956 62.0252C148.017 61.8403 148.078 61.6667 148.14 61.5045C148.202 61.365 148.255 61.2716 148.299 61.2242C148.344 61.1995 148.412 61.1966 148.504 61.2156C148.574 61.2583 148.621 61.2906 148.645 61.3124C148.728 61.1265 148.788 60.9301 148.825 60.7233C148.862 60.5165 148.899 60.3097 148.936 60.1029C148.956 60.0337 148.964 59.9535 148.961 59.8624C148.958 59.7941 148.967 59.7367 148.988 59.6903C149.17 59.1353 149.41 58.6122 149.709 58.1208C150.008 57.6294 150.401 57.2139 150.889 56.8743C151.059 56.5708 151.138 56.2938 151.128 56.0434C151.117 55.7929 151.22 55.5264 151.437 55.2437C151.609 55.0084 151.807 54.8178 152.029 54.6717C152.251 54.5256 152.448 54.3349 152.621 54.0997C152.815 53.8407 152.987 53.5827 153.136 53.3256C153.263 53.0923 153.447 52.8565 153.688 52.6184C154.061 52.2836 154.473 52.0384 154.923 51.8828C155.373 51.75 155.786 51.5276 156.161 51.2155C156.338 51.0941 156.446 50.9527 156.485 50.7915C156.502 50.6539 156.623 50.5349 156.847 50.4343C156.98 50.3603 157.126 50.3086 157.285 50.2792C157.421 50.2508 157.567 50.2105 157.725 50.1583C158.107 50.0283 158.455 49.8884 158.768 49.7386C159.104 49.6105 159.464 49.4929 159.848 49.3857C160.073 49.3307 160.287 49.2648 160.489 49.1879C160.692 49.1339 160.906 49.0566 161.13 48.956C161.196 48.9076 161.262 48.8592 161.329 48.8109C161.419 48.7843 161.509 48.7577 161.599 48.7312C161.915 48.6496 162.22 48.5799 162.514 48.522C162.808 48.4642 163.114 48.4172 163.432 48.3812C163.726 48.3233 164 48.3233 164.253 48.3812C164.506 48.4391 164.746 48.4519 164.973 48.4196C165.074 48.1189 165.187 47.8177 165.312 47.5161C165.437 47.2372 165.539 46.9593 165.619 46.6823C165.677 46.429 165.712 46.1767 165.724 45.9253C165.758 45.6502 165.816 45.3855 165.897 45.1313C165.885 44.8581 165.897 44.5839 165.931 44.3088C165.964 44.011 165.998 43.7245 166.032 43.4494C166.048 43.2891 166.075 43.1283 166.114 42.967C166.153 42.8058 166.192 42.6445 166.231 42.4832L166.41 41.86C166.424 41.6314 166.413 41.381 166.379 41.1087C166.345 40.8365 166.346 40.5855 166.382 40.356C166.285 40.2232 166.177 40.1022 166.059 39.9931C165.962 39.8603 165.865 39.7275 165.769 39.5947C165.59 39.6934 165.377 39.7707 165.128 39.8266C164.88 39.8826 164.678 39.9594 164.522 40.0571C164.477 40.059 164.376 40.1088 164.22 40.2065C164.088 40.3033 163.933 40.4124 163.755 40.5338C163.578 40.6552 163.412 40.7762 163.257 40.8966C163.102 40.9943 163.001 41.0555 162.957 41.0802C162.825 41.1997 162.716 41.3183 162.63 41.4359C162.543 41.5535 162.422 41.6612 162.267 41.7589C162.111 41.8566 161.911 41.9676 161.665 42.0919C161.441 42.1924 161.194 42.2939 160.925 42.3963C160.655 42.4988 160.397 42.6008 160.151 42.7023C159.903 42.781 159.7 42.8351 159.542 42.8645C159.339 42.9185 159.146 42.9493 158.964 42.9569C158.781 42.9418 158.599 42.9493 158.418 42.9797C158.304 42.9844 158.191 43.0233 158.08 43.0964C157.991 43.1457 157.902 43.195 157.813 43.2443C157.7 43.2718 157.598 43.2875 157.507 43.2913C157.392 43.2733 157.287 43.2092 157.191 43.0992C157.118 42.9882 157.102 42.8862 157.144 42.7933C157.163 42.7012 157.216 42.6078 157.304 42.5129C157.368 42.419 157.444 42.336 157.533 42.2639C157.597 42.17 157.65 42.0652 157.691 41.9495C157.771 41.6953 157.785 41.4894 157.733 41.3319C157.681 41.1745 157.741 40.9667 157.913 40.7087C158.019 40.5218 158.14 40.4255 158.277 40.4199C158.435 40.3905 158.592 40.3155 158.746 40.195C158.923 40.0509 159.007 39.8877 159 39.7056C158.992 39.5234 159.111 39.3702 159.357 39.246C159.581 39.1454 159.806 39.079 160.033 39.0468C160.259 38.9918 160.496 38.9477 160.746 38.9145C160.814 38.9116 160.883 38.9201 160.952 38.9401C161.043 38.9363 161.122 38.9216 161.19 38.896C161.407 38.6361 161.568 38.4013 161.673 38.1916C161.778 37.9592 162.03 37.7207 162.43 37.4759C162.809 37.2549 163.125 37.1733 163.378 37.2312C163.631 37.2891 163.86 37.291 164.063 37.2369C164.237 37.0472 164.412 36.8688 164.588 36.7019C164.785 36.5112 164.982 36.3206 165.18 36.1299C165.354 35.9402 165.529 35.7505 165.703 35.5607C165.877 35.3482 166.075 35.169 166.297 35.0229C166.377 34.7687 166.47 34.5253 166.574 34.2929C166.701 34.0596 166.817 33.8267 166.921 33.5943C167.027 33.3846 167.144 33.1973 167.274 33.0322C167.427 32.8662 167.556 32.6898 167.663 32.5029C167.431 32.4213 167.189 32.363 166.937 32.3279C166.706 32.2691 166.498 32.1865 166.311 32.0803C166.017 32.1381 165.734 32.1841 165.461 32.2183C165.188 32.2297 164.904 32.2529 164.609 32.288C164.201 32.3506 163.794 32.436 163.388 32.5441C163.321 32.5697 163.231 32.5963 163.118 32.6238C163.028 32.6503 162.948 32.665 162.88 32.6679C162.586 32.7257 162.292 32.7722 161.997 32.8073C161.724 32.8415 161.441 32.8761 161.146 32.9112C160.805 32.9482 160.509 32.9491 160.256 32.914C160.027 32.8779 159.751 32.8324 159.43 32.7774C159.039 32.7024 158.73 32.6811 158.503 32.7133C158.276 32.7228 157.986 32.6094 157.634 32.3732C157.399 32.2006 157.279 32.0573 157.274 31.9435C157.245 31.8079 157.171 31.6513 157.049 31.4739C157.001 31.4075 156.929 31.3307 156.834 31.2434C156.739 31.1561 156.656 31.0684 156.584 30.9802C156.512 30.892 156.462 30.8028 156.436 30.7127C156.409 30.6225 156.428 30.5305 156.493 30.4366C156.645 30.2706 156.801 30.1729 156.959 30.1435C157.117 30.0913 157.276 30.0733 157.436 30.0894C157.596 30.0828 157.755 30.0876 157.916 30.1037C158.098 30.0961 158.279 30.0544 158.458 29.9785C158.735 30.0582 159.037 30.1938 159.364 30.3855C159.691 30.5543 159.912 30.6591 160.027 30.6999C160.074 30.7208 160.245 30.7365 160.542 30.7469C160.861 30.7336 161.203 30.7194 161.567 30.7042C161.954 30.6881 162.307 30.6734 162.626 30.6601C162.967 30.6459 163.195 30.6364 163.309 30.6317C163.51 30.5321 163.759 30.4875 164.056 30.498C164.374 30.4847 164.658 30.4614 164.908 30.4282C165.349 30.0678 165.864 29.8411 166.453 29.7481C166.861 29.6855 167.146 29.6851 167.308 29.7467C167.493 29.8074 167.781 29.8753 168.172 29.9502C168.379 29.9872 168.562 30.0024 168.721 29.9958C168.881 29.9891 169.029 29.9943 169.167 30.0114C169.303 30.0057 169.43 30.046 169.548 30.1324C169.687 30.195 169.818 30.3264 169.941 30.5265C170.185 30.9041 170.289 31.219 170.254 31.4714C170.218 31.7009 170.163 32.0225 170.089 32.4361ZM164.381 50.6337C163.197 50.683 162.036 50.9936 160.896 51.5656C160.715 51.596 160.534 51.6377 160.354 51.6908C160.197 51.743 160.028 51.7957 159.848 51.8488L158.053 52.2998C157.81 52.4924 157.578 52.6617 157.356 52.8078C157.179 52.9292 157.012 53.0387 156.857 53.1365C156.679 53.2579 156.58 53.3304 156.558 53.3542C156.535 53.3551 156.48 53.4144 156.394 53.532C156.286 53.6734 156.178 53.8147 156.07 53.956C155.962 54.0974 155.853 54.2387 155.745 54.3801C155.637 54.5214 155.573 54.6153 155.552 54.6618C155.261 54.8107 154.982 54.9478 154.714 55.073C154.446 55.221 154.167 55.3694 153.877 55.5184C153.834 55.5886 153.77 55.6939 153.685 55.8342C153.577 55.9756 153.469 56.1169 153.36 56.2583C153.23 56.4233 153.122 56.5647 153.036 56.6823C152.928 56.8236 152.863 56.9062 152.841 56.9299C152.82 56.9764 152.767 57.0584 152.68 57.176C152.572 57.3174 152.464 57.4587 152.356 57.6001C152.248 57.7414 152.139 57.8827 152.031 58.0241C151.9 58.1664 151.813 58.2612 151.77 58.3087C151.739 58.6748 151.685 59.0078 151.606 59.3075C151.505 59.631 151.451 59.9754 151.444 60.3406C151.134 60.5815 150.94 60.8519 150.862 61.1516C150.784 61.4742 150.764 61.8285 150.803 62.2146C150.636 62.5864 150.467 62.9013 150.295 63.1594C150.102 63.4411 149.851 63.7252 149.544 64.0117C149.512 64.3323 149.49 64.6411 149.48 64.938C149.47 65.2577 149.472 65.5769 149.486 65.8956C149.678 66.1385 149.893 66.369 150.13 66.5872C150.345 66.8063 150.558 67.0141 150.772 67.2104C151.001 67.2465 151.254 67.2816 151.529 67.3157C151.781 67.3508 152.012 67.4097 152.22 67.4922C152.265 67.4675 152.355 67.441 152.491 67.4125C152.626 67.3841 152.784 67.3433 152.965 67.2902C153.123 67.2607 153.281 67.2313 153.44 67.2019C153.576 67.1735 153.666 67.1583 153.712 67.1564C153.914 67.0796 154.139 67.0246 154.389 66.9914C154.638 66.9582 154.865 66.9145 155.068 66.8605C155.507 66.4545 155.922 66.0153 156.313 65.5429C156.704 65.0705 157.094 64.5981 157.485 64.1257C157.681 63.8895 157.887 63.6528 158.106 63.4156C158.301 63.1794 158.496 62.9319 158.691 62.6729C158.862 62.4149 159.023 62.1573 159.171 61.9003C159.343 61.6422 159.515 61.3842 159.687 61.1262C159.858 60.8682 160.018 60.5993 160.166 60.3194C160.337 60.0386 160.508 59.7692 160.68 59.5112C160.723 59.4638 160.799 59.3694 160.907 59.228C161.038 59.0858 161.169 58.9321 161.299 58.767C161.429 58.602 161.548 58.4488 161.656 58.3074C161.765 58.1889 161.83 58.1063 161.851 58.0599C161.976 57.781 162.09 57.5025 162.192 57.2246C162.318 56.9457 162.442 56.6554 162.567 56.3538C162.609 56.2836 162.661 56.156 162.722 55.971C162.783 55.8088 162.844 55.6238 162.904 55.4161C162.987 55.2302 163.049 55.0566 163.087 54.8953C163.15 54.7559 163.203 54.6624 163.247 54.615C163.328 54.3835 163.453 54.0819 163.62 53.71C163.81 53.36 163.925 53.093 163.963 52.9089C163.999 52.6794 164.002 52.4854 163.973 52.327C163.966 52.1676 163.959 52.0082 163.953 51.8489C163.947 51.7123 163.963 51.5406 164 51.3338C164.06 51.1488 164.187 50.9154 164.381 50.6337ZM99.6303 120.16C99.433 120.35 99.1584 120.601 98.8065 120.912C98.4763 121.2 98.2591 121.46 98.1547 121.692C98.0276 121.926 97.9223 122.135 97.8388 122.321C97.7781 122.506 97.6937 122.669 97.5856 122.811C97.4992 122.928 97.3664 123.025 97.1871 123.101C97.0306 123.176 96.8044 123.219 96.5084 123.232C96.5112 123.3 96.3922 123.453 96.1512 123.691C95.9321 123.906 95.6911 124.144 95.4284 124.406C95.1647 124.645 94.9237 124.883 94.7055 125.12C94.4864 125.334 94.3782 125.476 94.3811 125.544L94.0666 125.386C94.0201 125.365 93.884 125.382 93.6582 125.437C93.4543 125.468 93.2067 125.547 92.9155 125.673C92.6461 125.776 92.3786 125.924 92.1129 126.117C91.8473 126.311 91.641 126.559 91.494 126.861L91.3559 126.833C91.0106 126.756 90.6568 126.748 90.2944 126.809C89.9558 126.891 89.6157 126.94 89.2742 126.954C88.5476 127.03 88.0078 126.938 87.6549 126.679C87.303 126.443 86.9183 125.969 86.501 125.256C86.4033 125.101 86.3165 124.933 86.2406 124.754C86.1647 124.575 86.1002 124.395 86.0471 124.215L86.0414 124.078C86.3525 123.883 86.5133 123.637 86.5238 123.34C86.5333 123.02 86.5081 122.69 86.4484 122.351C86.3886 122.011 86.3407 121.682 86.3047 121.365C86.2914 121.046 86.4057 120.779 86.6476 120.564C86.4958 120.205 86.493 119.863 86.6391 119.538C86.807 119.189 86.9645 118.863 87.1115 118.56C87.2586 118.257 87.3264 117.97 87.315 117.696C87.3036 117.423 87.0414 117.149 86.5282 116.874C86.0131 117.101 85.5231 117.383 85.0583 117.722C84.6153 118.037 84.1618 118.375 83.6979 118.736C83.2559 119.074 82.8024 119.412 82.3376 119.751C81.8956 120.089 81.417 120.371 80.9019 120.598C80.4456 121.141 79.9637 121.617 79.4562 122.026C78.9477 122.412 78.4516 122.821 77.9678 123.251C77.5067 123.681 77.0822 124.166 76.6942 124.707C76.328 125.224 76.0581 125.862 75.8845 126.622C75.765 126.49 75.6474 126.404 75.5317 126.363C75.4159 126.322 75.266 126.283 75.082 126.245C74.8287 126.187 74.6438 126.126 74.5271 126.063C74.4095 125.977 74.2563 125.858 74.0675 125.706L74.0988 125.636C74.279 125.036 74.493 124.422 74.7406 123.796C74.9882 123.17 75.0992 122.55 75.0736 121.935C75.0641 121.707 75.0328 121.503 74.9797 121.323C74.9256 121.12 74.8938 120.905 74.8843 120.677C74.8673 120.267 74.9199 119.889 75.0423 119.542C75.1647 119.194 75.2994 118.87 75.4464 118.567C75.6162 118.263 75.7638 117.972 75.889 117.693C76.036 117.391 76.1029 117.08 76.0896 116.761C76.0792 116.511 76.0119 116.263 75.8876 116.017C75.7633 115.771 75.6063 115.561 75.4166 115.387C75.0742 115.378 74.7573 115.437 74.4661 115.563C74.1739 115.667 73.8827 115.793 73.5924 115.942C73.3021 116.091 73 116.229 72.686 116.356C72.3711 116.46 72.031 116.508 71.6658 116.501C71.2076 116.999 70.738 117.497 70.2571 117.996C69.7752 118.472 69.2933 118.949 68.8114 119.425C67.803 120.402 66.8187 121.412 65.8587 122.456C64.9215 123.498 64.1834 124.669 63.6446 125.969C63.5412 126.224 63.4497 126.49 63.37 126.767C63.3121 127.02 63.2315 127.275 63.128 127.53C63.1299 127.575 63.1091 127.622 63.0654 127.669L62.8947 127.676C62.6443 127.687 62.4763 127.762 62.391 127.902C62.3284 128.042 62.2776 128.192 62.2387 128.354C62.2235 128.537 62.1965 128.709 62.1576 128.87C62.1187 129.031 62.0205 129.138 61.863 129.19C61.6828 129.243 61.5106 129.216 61.3465 129.109C61.1596 129.003 61.0069 128.895 60.8884 128.786L60.8528 128.753C60.6099 128.399 60.4691 128.028 60.4302 127.642C60.3913 127.256 60.4212 126.878 60.5199 126.509C60.5948 126.119 60.7271 125.737 60.9169 125.364C61.0838 124.992 61.2518 124.643 61.4206 124.317C61.6739 123.827 61.9039 123.327 62.1108 122.817C62.3394 122.283 62.4418 121.731 62.4181 121.162C62.4077 120.912 62.3646 120.697 62.2887 120.518C62.2346 120.315 62.1805 120.112 62.1265 119.909L62.8564 119.365C62.736 119.21 62.662 119.077 62.6345 118.964C62.6288 118.827 62.6236 118.702 62.6188 118.588C62.6368 118.473 62.644 118.37 62.6402 118.279C62.6582 118.165 62.6421 118.051 62.5918 117.939L62.5875 117.837L62.8479 117.518C62.7711 116.769 62.719 116.064 62.6915 115.404C62.664 114.743 62.4984 114.055 62.1949 113.337C62.5013 113.028 62.8058 112.947 63.1084 113.094C63.4101 113.218 63.7127 113.365 64.0162 113.535L64.0177 113.569L64.0532 113.602C64.2467 113.868 64.4199 114.191 64.5726 114.573C64.7253 114.954 64.8448 115.36 64.9311 115.789C65.0393 116.195 65.1246 116.602 65.1872 117.01C65.2498 117.418 65.2878 117.781 65.301 118.1C65.3048 118.191 65.2972 118.283 65.2783 118.375C65.2811 118.443 65.2844 118.523 65.2882 118.614L65.0919 118.827C65.2104 118.936 65.3404 119.045 65.4817 119.153C65.6231 119.261 65.7729 119.301 65.9314 119.271C66.0509 118.856 66.2563 118.585 66.5475 118.459C66.8378 118.31 67.1295 118.195 67.4226 118.114C67.7385 118.033 68.0079 117.93 68.2308 117.807C68.4756 117.66 68.5894 117.382 68.5723 116.972C68.5686 116.881 68.5543 116.813 68.5297 116.768L68.5951 116.697C69.206 116.033 69.8312 115.437 70.4706 114.909C71.1318 114.356 71.8214 113.94 72.5395 113.659C73.2804 113.378 74.0502 113.243 74.8489 113.255C75.6704 113.267 76.5574 113.481 77.5098 113.897L77.5795 113.928L78.0134 115.313L77.7844 115.562C78.0253 115.871 78.1206 116.243 78.0703 116.679C78.0419 117.091 77.9679 117.504 77.8483 117.92C77.7288 118.335 77.6197 118.727 77.521 119.096C77.4214 119.443 77.4432 119.693 77.5865 119.846C77.707 120.001 77.9147 120.061 78.2097 120.026C78.5275 119.989 78.777 119.956 78.9582 119.926C79.1299 119.668 79.3713 119.441 79.6825 119.246C80.0164 119.049 80.3394 118.865 80.6515 118.692C80.9863 118.519 81.2757 118.347 81.5195 118.177C81.7623 117.985 81.8909 117.785 81.9051 117.58C82.2722 117.633 82.5677 117.609 82.7916 117.508C83.0145 117.385 83.19 117.218 83.3181 117.008C83.4461 116.797 83.5623 116.576 83.6667 116.343C83.7701 116.088 83.8858 115.855 84.0139 115.644C84.1638 115.41 84.3502 115.231 84.5731 115.108C84.796 114.985 85.102 114.938 85.4909 114.967C85.9927 114.422 86.5918 114.02 87.2881 113.763C88.0062 113.483 88.729 113.316 89.4566 113.263C89.9793 113.218 90.3502 113.362 90.5693 113.695C90.7875 114.005 90.9061 114.388 90.925 114.844C90.9497 115.435 90.8368 116.01 90.5863 116.568C90.3359 117.126 90.0518 117.696 89.734 118.28C89.4162 118.863 89.1335 119.468 88.8859 120.094C88.6383 120.72 88.5301 121.409 88.5614 122.16C88.5643 122.228 88.5695 122.354 88.5771 122.536C88.5837 122.695 88.6022 122.865 88.6325 123.047C88.6619 123.205 88.6913 123.363 88.7208 123.522C88.772 123.657 88.8327 123.745 88.9029 123.788C88.9958 123.83 89.0769 123.861 89.1462 123.88L88.9811 124.024C89.5076 124.071 89.9786 124.154 90.3941 124.273C90.8086 124.37 91.2507 124.306 91.7203 124.081C91.855 124.03 91.9901 123.99 92.1258 123.962C92.2842 123.932 92.4308 123.892 92.5655 123.841C92.7694 123.809 92.8913 123.724 92.9312 123.586C92.9701 123.425 93.0436 123.273 93.1517 123.132C93.2817 122.967 93.4809 122.822 93.7494 122.697C94.0396 122.548 94.5149 122.46 95.1751 122.432L95.1524 121.886C95.602 121.73 95.9819 121.543 96.2921 121.325C96.6014 121.084 96.9002 120.866 97.1886 120.672C97.4997 120.476 97.8356 120.326 98.196 120.219C98.5793 120.112 99.0574 120.092 99.6303 120.16ZM125.219 114.305C125.324 114.642 125.302 114.94 125.153 115.197C125.003 115.431 124.796 115.645 124.53 115.839C124.287 116.031 124.01 116.214 123.697 116.386C123.407 116.535 123.163 116.705 122.966 116.896C121.951 117.166 121.025 117.376 120.187 117.525C119.371 117.65 118.466 117.813 117.471 118.014C117.177 118.072 116.892 118.084 116.617 118.05C116.364 117.992 116.101 117.98 115.829 118.014C115.669 118.021 115.521 118.027 115.385 118.033C115.247 118.016 115.111 118.021 114.975 118.05C114.453 118.117 114.119 118.313 113.973 118.639C113.826 118.941 113.704 119.3 113.608 119.714C113.533 120.105 113.423 120.486 113.279 120.857C113.156 121.204 112.859 121.456 112.387 121.613C112.346 121.728 112.361 121.83 112.434 121.919C112.528 122.006 112.6 122.083 112.648 122.149C112.266 122.279 112.013 122.495 111.889 122.796C111.787 123.097 111.697 123.397 111.618 123.697C111.539 123.997 111.413 124.253 111.24 124.466C111.089 124.677 110.773 124.759 110.292 124.71C109.618 125.491 108.812 126.129 107.874 126.624C106.938 127.142 105.961 127.491 104.942 127.67C104.756 127.586 104.569 127.48 104.381 127.351C104.216 127.221 104.04 127.103 103.853 126.997C103.689 126.89 103.503 126.806 103.295 126.746C103.111 126.708 102.895 126.717 102.647 126.773C102.604 126.296 102.494 125.856 102.318 125.453C102.119 125.051 101.875 124.673 101.587 124.32C101.524 123.912 101.565 123.534 101.71 123.186C101.832 122.816 101.965 122.457 102.11 122.109C102.255 121.761 102.378 121.414 102.477 121.067C102.553 120.699 102.513 120.29 102.358 119.841C102.58 119.695 102.721 119.529 102.782 119.344C102.865 119.158 102.915 118.974 102.93 118.791C102.967 118.584 103.016 118.399 103.078 118.237C103.139 118.052 103.292 117.898 103.538 117.773C103.333 117.235 103.339 116.835 103.556 116.575C103.795 116.292 104.081 116.04 104.414 115.821C104.747 115.602 105.056 115.361 105.342 115.098C105.627 114.836 105.726 114.455 105.636 113.957C105.767 113.815 105.922 113.694 106.1 113.596C106.279 113.497 106.446 113.41 106.603 113.335C106.781 113.237 106.948 113.139 107.103 113.041C107.259 112.943 107.402 112.812 107.532 112.647C107.368 112.539 107.283 112.429 107.279 112.315C107.297 112.2 107.326 112.085 107.367 111.969C107.407 111.831 107.446 111.692 107.486 111.554C107.549 111.414 107.543 111.278 107.469 111.144C108.088 111.21 108.619 111.108 109.064 110.838C109.531 110.545 109.964 110.253 110.362 109.963C110.783 109.672 111.208 109.46 111.636 109.329C112.063 109.197 112.57 109.312 113.155 109.676C113.207 109.833 113.286 110.069 113.39 110.384C113.516 110.676 113.631 110.979 113.736 111.294C113.863 111.608 113.978 111.911 114.081 112.203C114.185 112.495 114.251 112.709 114.279 112.845C114.284 112.958 114.292 113.141 114.302 113.391C114.312 113.641 114.324 113.915 114.336 114.211C114.348 114.484 114.358 114.746 114.369 114.996C114.379 115.246 114.387 115.44 114.393 115.577C115.069 115.936 115.74 116.148 116.404 116.211C117.067 116.252 117.72 116.065 118.364 115.651C118.624 115.868 118.866 115.926 119.09 115.826C119.313 115.702 119.524 115.568 119.723 115.423C119.945 115.277 120.17 115.199 120.398 115.19C120.624 115.157 120.86 115.33 121.104 115.708C121.41 115.398 121.732 115.203 122.071 115.12C122.409 115.015 122.76 114.954 123.124 114.939C123.487 114.901 123.839 114.853 124.178 114.793C124.541 114.732 124.888 114.569 125.219 114.305ZM112.129 115.431C112.115 115.09 112.157 114.723 112.254 114.332C112.352 113.94 112.428 113.56 112.481 113.193C112.533 112.803 112.506 112.44 112.401 112.102C112.319 111.763 112.089 111.465 111.714 111.207C111.469 111.354 111.272 111.556 111.123 111.813C110.973 112.047 110.824 112.293 110.675 112.55C110.525 112.784 110.34 112.986 110.119 113.155C109.92 113.323 109.649 113.38 109.305 113.325C109.202 113.603 109.212 113.831 109.333 114.008C109.454 114.163 109.597 114.317 109.763 114.469C109.928 114.599 110.082 114.741 110.225 114.895C110.391 115.048 110.457 115.25 110.422 115.503C110.516 115.567 110.644 115.63 110.806 115.692C110.967 115.731 111.128 115.758 111.288 115.774C111.47 115.767 111.64 115.737 111.798 115.685C111.955 115.633 112.066 115.548 112.129 115.431ZM112.004 118.173C111.549 118.192 111.146 118.106 110.796 117.916C110.468 117.701 110.127 117.465 109.774 117.206C109.444 116.946 109.092 116.71 108.718 116.497C108.366 116.261 107.939 116.13 107.436 116.106C107.243 116.388 107.015 116.659 106.752 116.921C106.488 117.16 106.26 117.421 106.066 117.702C105.873 117.984 105.737 118.286 105.659 118.609C105.604 118.93 105.676 119.292 105.875 119.694C105.362 119.967 105.024 120.346 104.862 120.831C104.699 121.294 104.595 121.8 104.549 122.35C104.526 122.898 104.504 123.446 104.481 123.994C104.458 124.543 104.33 125.038 104.098 125.481L104.828 124.938C104.921 124.98 104.992 125.045 105.041 125.134C105.114 125.222 105.129 125.324 105.088 125.44C105.263 125.25 105.462 125.105 105.686 125.005C105.909 124.881 106.133 124.792 106.359 124.737C106.607 124.658 106.843 124.592 107.069 124.537C107.318 124.481 107.554 124.402 107.778 124.302C108.36 124.597 108.773 124.648 109.016 124.456C109.259 124.263 109.452 123.981 109.596 123.61C109.74 123.239 109.896 122.857 110.062 122.462C110.227 122.045 110.512 121.782 110.918 121.674L110.669 121.445C111.036 120.95 111.357 120.447 111.632 119.934C111.929 119.397 112.053 118.81 112.004 118.173ZM134.207 103.325C133.804 103.502 133.586 103.75 133.554 104.071C133.522 104.392 133.513 104.723 133.527 105.064C133.564 105.405 133.566 105.724 133.533 106.022C133.5 106.32 133.28 106.523 132.874 106.631C132.703 106.364 132.488 106.122 132.228 105.905C131.99 105.664 131.752 105.435 131.515 105.217C131.277 104.976 131.084 104.721 130.936 104.454C130.788 104.186 130.729 103.858 130.758 103.469L132.383 101.417C132.66 101.497 132.881 101.602 133.046 101.732C133.211 101.862 133.354 102.015 133.476 102.193C133.597 102.37 133.708 102.559 133.807 102.761C133.929 102.938 134.062 103.126 134.207 103.325ZM141.47 118.349C141.513 118.849 141.482 119.204 141.377 119.413C141.294 119.622 141.188 119.797 141.057 119.94C140.925 120.059 140.805 120.201 140.698 120.365C140.613 120.505 140.578 120.758 140.593 121.122C140.093 121.713 139.689 122.152 139.382 122.438C139.074 122.702 138.775 122.931 138.487 123.125C138.198 123.297 137.875 123.493 137.519 123.713C137.164 123.933 136.676 124.273 136.057 124.732L135.819 124.776C135.765 125.12 135.648 125.319 135.468 125.372C135.311 125.447 135.119 125.489 134.891 125.499C134.686 125.507 134.482 125.539 134.279 125.593C134.076 125.647 133.914 125.847 133.791 126.195C133.409 126.325 133.081 126.384 132.807 126.372C132.532 126.361 132.179 126.364 131.747 126.382C131.61 126.388 131.427 126.384 131.199 126.371C130.993 126.357 130.823 126.375 130.688 126.427C130.598 126.453 130.498 126.514 130.388 126.61C130.301 126.728 130.203 126.823 130.092 126.896C129.981 126.969 129.868 126.997 129.753 126.979C129.639 126.983 129.533 126.897 129.434 126.718C129.164 126.798 128.914 126.808 128.683 126.749C128.453 126.691 128.231 126.586 128.02 126.435C127.808 126.284 127.607 126.099 127.415 125.879C127.247 125.68 127.08 125.493 126.913 125.318C126.793 125.186 126.663 125.066 126.522 124.958C126.38 124.85 126.25 124.741 126.132 124.632C125.871 124.392 125.675 124.081 125.546 123.699C125.416 123.316 125.331 122.921 125.291 122.512C125.251 122.103 125.245 121.693 125.274 121.281C125.302 120.869 125.355 120.502 125.433 120.18C125.63 119.966 125.768 119.733 125.849 119.478C125.906 119.202 125.951 118.927 125.985 118.652C126.042 118.376 126.1 118.111 126.158 117.858C126.237 117.581 126.375 117.335 126.572 117.122C126.559 116.826 126.593 116.551 126.674 116.297C126.777 116.042 126.904 115.797 127.054 115.562C127.227 115.327 127.412 115.114 127.609 114.924C127.828 114.709 128.025 114.507 128.199 114.317C128.382 114.31 128.564 114.302 128.746 114.295C128.927 114.264 129.098 114.269 129.26 114.307C129.42 114.324 129.559 114.386 129.678 114.495C129.796 114.582 129.893 114.737 129.971 114.962C130.156 115.57 130.131 116.073 129.897 116.47C129.684 116.844 129.437 117.208 129.156 117.562C128.874 117.916 128.65 118.278 128.483 118.65C128.316 119.022 128.381 119.487 128.677 120.045C128.427 120.055 128.259 120.131 128.174 120.271C128.111 120.41 128.061 120.572 128.023 120.756C128.007 120.916 127.968 121.078 127.906 121.24C127.845 121.402 127.713 121.522 127.511 121.598C127.653 121.729 127.731 121.966 127.745 122.307C127.782 122.648 127.83 122.976 127.889 123.293C127.97 123.586 128.082 123.821 128.226 123.998C128.393 124.173 128.678 124.173 129.081 123.996C129.388 124.234 129.745 124.322 130.153 124.259C130.584 124.196 130.982 124.168 131.347 124.175C131.657 123.957 131.926 123.843 132.154 123.834C132.38 123.802 132.598 123.815 132.805 123.875C133.012 123.912 133.23 123.949 133.46 123.985C133.689 124.021 133.961 123.975 134.275 123.848C134.35 123.457 134.5 123.223 134.725 123.145C134.95 123.068 135.176 123.024 135.404 123.014C135.63 122.982 135.833 122.928 136.013 122.852C136.215 122.775 136.342 122.542 136.394 122.152C136.567 121.917 136.778 121.783 137.027 121.75C137.276 121.694 137.524 121.638 137.773 121.582C138.044 121.525 138.279 121.424 138.479 121.279C138.7 121.11 138.847 120.807 138.92 120.371C139.294 120.059 139.559 119.831 139.712 119.688C139.888 119.521 140.03 119.389 140.141 119.294C140.251 119.198 140.394 119.089 140.572 118.968C140.749 118.846 141.048 118.64 141.47 118.349Z" fill="#6A18A4"/>
<g clip-path="url(#clip0_5756_4575)">
<path d="M126.991 158.318C127.315 158.768 127.355 159.02 127.339 159.576C127.089 160.242 126.786 160.376 126.168 160.723C125.698 160.878 125.221 160.978 124.738 161.08C117.124 162.831 110.313 168.34 106.197 174.88C105.067 176.735 104.054 178.605 103.35 180.664C103.295 180.82 103.295 180.82 103.24 180.98C101.393 186.489 101.368 192.403 103.919 197.68C106.203 202.218 110.028 205.416 114.84 207.022C117.043 207.689 119.351 208.045 121.613 208.457C121.638 208.365 121.663 208.273 121.689 208.178C123.581 201.331 127.213 195.092 132.442 190.235C132.537 190.145 132.633 190.055 132.732 189.961C134.189 188.587 135.719 187.372 137.371 186.239C137.759 185.972 138.145 185.701 138.53 185.431C141.963 183.049 145.534 181.48 149.798 182.169C152.237 182.684 154.349 183.921 155.803 185.979C156.889 187.758 157.441 189.99 157.083 192.068C157.056 192.247 157.029 192.425 157.001 192.609C156.006 198.377 152.045 202.823 147.412 206.121C146.036 207.079 144.61 207.878 143.097 208.599C142.828 208.727 142.561 208.86 142.295 208.993C137.667 211.243 130.402 213.807 125.206 212.771C125.292 219.624 127.077 226.061 132.061 231.046C134.714 233.566 137.706 235.46 141.161 236.679C141.362 236.752 141.362 236.752 141.566 236.827C147.413 238.797 154.008 238.236 159.564 235.65C161.574 234.649 163.533 233.464 165.29 232.061C165.84 231.627 165.949 231.543 166.624 231.599C167.288 231.799 167.569 232.082 168.006 232.614C168.24 233.089 168.222 233.274 168.08 233.786C166.447 237.272 160.235 239.905 156.84 241.176C150.369 243.485 143.585 243.125 137.369 240.243C130.336 236.847 124.728 230.417 122.155 223.071C121.06 219.772 120.683 216.402 120.89 212.938C120.724 212.907 120.558 212.877 120.387 212.845C116.393 212.108 112.519 211.352 108.931 209.353C108.833 209.298 108.735 209.244 108.634 209.188C106.254 207.841 104.296 206.165 102.636 203.987C102.549 203.884 102.462 203.781 102.371 203.675C98.7982 199.451 97.7943 192.834 98.1172 187.494C98.2352 186.257 98.4765 185.047 98.7251 183.83C98.7522 183.696 98.7794 183.562 98.8074 183.423C99.2216 181.392 99.6826 179.429 100.548 177.536C100.612 177.397 100.675 177.257 100.741 177.114C104.081 169.941 109.427 163.972 116.615 160.53C116.811 160.436 117.006 160.342 117.207 160.245C119.546 159.178 121.973 158.471 124.522 158.136C124.678 158.115 124.834 158.094 124.994 158.072C126.361 157.917 126.361 157.917 126.991 158.318ZM138.275 190.809C137.827 191.206 137.384 191.609 136.944 192.015C136.704 192.235 136.458 192.45 136.211 192.663C131.956 196.382 126.791 202.702 125.895 208.455C132.009 208.46 138.521 206.276 143.699 203.115C144.111 202.865 144.528 202.63 144.949 202.397C145.574 202.038 146.14 201.639 146.703 201.189C147.008 200.946 147.318 200.709 147.63 200.475C150.09 198.613 152.142 196.409 152.631 193.252C152.909 190.976 152.552 188.469 151.151 186.603C147.877 183.362 140.91 188.531 138.275 190.809Z" fill="#6A18A4"/>
<path d="M174.068 227.602C174.271 227.637 174.474 227.673 174.683 227.709C176.499 228.059 176.499 228.059 177.129 228.951C177.521 229.902 177.154 230.876 176.955 231.86C176.932 231.976 176.909 232.092 176.885 232.212C174.949 241.822 174.949 241.822 172.149 243.876C171.388 244.163 170.803 244.209 170.021 243.976C169.518 243.565 169.365 243.291 169.201 242.667C169.191 241.387 169.574 240.371 170.15 239.249C171.374 236.747 172.084 234.019 172.88 231.358C168.403 230.4 168.403 230.4 163.866 229.827C161.504 229.617 161.504 229.617 160.841 228.924C160.621 228.39 160.511 228.108 160.624 227.543C160.855 227.139 160.855 227.139 161.283 226.818C162.363 226.572 163.488 226.592 164.589 226.61C164.745 226.612 164.902 226.614 165.063 226.617C166.433 226.64 167.791 226.714 169.156 226.847C169.341 226.864 169.526 226.882 169.716 226.9C171.177 227.067 172.623 227.334 174.068 227.602Z" fill="#6A18A4"/>
</g>
<defs>
<clipPath id="clip0_5756_4575">
<rect width="86" height="86" fill="white" transform="translate(105.41 150.586) rotate(11.2819)"/>
</clipPath>
</defs>
</svg>
