<svg width="229" height="75" viewBox="0 0 229 75" fill="none" xmlns="http://www.w3.org/2000/svg">
<path d="M34.0237 25.9587C34.0236 26.04 34.0073 26.0886 33.9748 26.1045C33.9585 26.1205 33.9259 26.1608 33.877 26.2252C33.877 26.3066 33.8688 26.3879 33.8525 26.4691C33.8362 26.5502 33.8361 26.6316 33.8523 26.7132L33.8767 26.7379C33.9579 27.0971 33.9577 27.4064 33.8762 27.6657L33.9006 27.666C33.9005 27.845 33.8271 28.0638 33.6805 28.3222C33.5339 28.5644 33.4198 28.7745 33.3384 28.9524C33.2569 29.1629 33.1754 29.3816 33.0938 29.6083C33.0286 29.8353 32.9227 30.0374 32.7761 30.2144C32.5318 30.5692 32.2387 30.9152 31.8967 31.2525C31.7176 31.4291 31.5222 31.573 31.3105 31.6841C31.1152 31.7791 30.928 31.8987 30.7489 32.0428C30.5209 32.235 30.3092 32.4356 30.1138 32.6446C29.9184 32.8536 29.666 33.0048 29.3567 33.0983C29.3242 33.0816 29.2917 33.073 29.2591 33.0726C29.2428 33.0561 29.2184 33.0314 29.1859 32.9984C28.9905 33.126 28.7138 33.2525 28.3557 33.3779C28.0138 33.4872 27.7209 33.5566 27.4767 33.5858C27.2977 33.616 27.1105 33.6216 26.9152 33.6027C26.72 33.5838 26.5409 33.6059 26.3781 33.6688C26.313 33.7493 26.2722 33.8383 26.2559 33.9357C26.2396 34.0169 26.142 33.9667 25.9631 33.7853C25.6376 33.6507 25.304 33.5974 24.9623 33.6254C24.6367 33.6536 24.3031 33.6898 23.9613 33.7341C23.8311 33.7649 23.7253 33.7797 23.6439 33.7786C23.6276 33.811 23.6113 33.8352 23.595 33.8512C23.5788 33.851 23.5625 33.8589 23.5462 33.875C23.4648 33.8902 23.3834 33.9542 23.302 34.067C23.2368 34.1638 23.1635 34.2849 23.0821 34.4303C23.0169 34.5596 22.9517 34.689 22.8865 34.8183C22.8376 34.9479 22.805 35.0451 22.7887 35.11C22.8701 35.1599 22.9107 35.2337 22.9106 35.3313C22.9106 35.3639 22.8699 35.4691 22.7884 35.6471C22.7069 35.825 22.6173 36.0191 22.5195 36.2294C22.4217 36.4397 22.324 36.6418 22.2262 36.8358C22.1447 37.0301 22.0958 37.1515 22.0795 37.2001C21.998 37.3943 21.8921 37.5719 21.7619 37.7329C21.6316 37.894 21.5094 38.0632 21.3954 38.2407C21.2976 38.4347 21.208 38.637 21.1265 38.8475C21.045 39.0417 20.9554 39.2277 20.8576 39.4054C20.5318 40.0033 20.1734 40.4949 19.7826 40.8803C19.3918 41.2494 18.9115 41.6173 18.3416 41.984C18.2765 42.0157 18.2196 42.0475 18.1707 42.0794C18.1219 42.1113 18.0649 42.1268 17.9998 42.1259C17.9998 42.191 17.9916 42.2316 17.9753 42.2477C17.9753 42.3291 17.9508 42.4183 17.9019 42.5153C17.853 42.6123 17.7879 42.6765 17.7065 42.708C17.6414 42.7396 17.5682 42.7224 17.4868 42.6562C17.4055 42.6063 17.3323 42.4669 17.2674 42.2382C17.1372 42.269 17.007 42.2591 16.8768 42.2086C16.7629 42.1582 16.649 42.0997 16.5351 42.0331C16.3398 42.1118 16.177 42.1097 16.0469 42.0265C15.9167 41.9434 15.8924 41.8617 15.9738 41.7814L15.9738 41.7082C15.9413 41.6589 15.8925 41.6176 15.8274 41.5841C15.7786 41.5672 15.7298 41.5421 15.681 41.5089L15.6566 41.5086C15.4289 41.3265 15.2418 41.1531 15.0954 40.9884C14.9491 40.8237 14.876 40.5785 14.8762 40.253C14.6972 40.1367 14.5915 40.0132 14.559 39.8826C14.5266 39.7356 14.5185 39.5972 14.5349 39.4672C14.5512 39.3209 14.5757 39.1829 14.6083 39.0531C14.6247 38.9231 14.6085 38.809 14.5597 38.7107C14.5598 38.5154 14.5681 38.3283 14.5845 38.1495C14.5846 37.9542 14.5847 37.767 14.5848 37.588C14.5523 37.555 14.5197 37.5301 14.4872 37.5134C14.4546 37.4967 14.4384 37.4558 14.4384 37.3907C14.4385 37.2117 14.4793 37.0413 14.5608 36.8796C14.6423 36.718 14.7156 36.548 14.7808 36.3699C14.7809 36.2885 14.7565 36.2149 14.7077 36.1492C14.6589 36.0834 14.6345 36.0098 14.6346 35.9285C14.6346 35.8959 14.6265 35.8388 14.6103 35.7572C14.5941 35.6594 14.586 35.5697 14.586 35.4884C14.5698 35.3905 14.5617 35.309 14.5618 35.2439C14.5455 35.1623 14.5537 35.1054 14.5863 35.0733C14.6026 35.041 14.627 34.9762 14.6596 34.879C14.6922 34.7818 14.7167 34.717 14.733 34.6847C14.7167 34.6519 14.7086 34.5867 14.7087 34.489L14.7331 34.4649C14.7169 34.4322 14.7006 34.3831 14.6844 34.3178C14.6519 34.2523 14.6356 34.2113 14.6356 34.1951C14.538 34.0961 14.4974 34.0142 14.5137 33.9493C14.53 33.8844 14.5626 33.8279 14.6115 33.7797C14.6603 33.7315 14.7173 33.6997 14.7824 33.6843C14.8475 33.6527 14.8882 33.6288 14.9045 33.6127C14.9696 33.5485 15.0104 33.4026 15.0268 33.1749C15.027 32.9308 15.0108 32.7678 14.9783 32.686C14.9132 32.6363 14.897 32.5465 14.9296 32.4168C14.946 32.2868 14.9786 32.1489 15.0275 32.003C15.0764 31.8572 15.1416 31.7197 15.223 31.5906C15.2882 31.445 15.3371 31.348 15.3697 31.2996L15.4185 31.2758C15.4186 31.1456 15.4105 31.0479 15.3943 30.9826C15.3618 30.9007 15.3456 30.8191 15.3456 30.7378C15.3458 30.4122 15.4192 30.1284 15.5658 29.8862C15.6962 29.6275 15.8021 29.3523 15.8837 29.0604C15.9815 28.7362 16.0712 28.4444 16.1527 28.1851C16.2505 27.9097 16.3809 27.6185 16.5438 27.3114C16.5927 27.2144 16.6497 27.1094 16.7149 26.9963C16.7801 26.8832 16.8208 26.7699 16.8372 26.6561C16.9025 26.1687 17.1062 25.7483 17.4482 25.3948C17.4808 25.2487 17.5216 25.0621 17.5706 24.8349C17.6358 24.5916 17.7092 24.4054 17.7906 24.2763C17.8721 24.1472 17.9617 24.0345 18.0594 23.9381C18.1571 23.8255 18.2304 23.6963 18.2793 23.5504C18.2142 23.4845 18.1817 23.4352 18.1817 23.4026C18.2632 23.2247 18.3854 23.1043 18.5481 23.0413C18.7272 22.9624 18.8656 22.8421 18.9634 22.6807C19.0611 22.5355 19.1588 22.3741 19.2566 22.1963C19.3543 22.0186 19.4684 21.8574 19.5986 21.7126C19.8267 21.4227 20.0628 21.1248 20.3071 20.8188C20.5514 20.4965 20.8283 20.2236 21.1376 19.9998C21.3004 19.8718 21.4714 19.7764 21.6504 19.7137C21.8458 19.635 22.033 19.5561 22.2121 19.4771C22.3748 19.3979 22.5376 19.3187 22.7004 19.2395C22.8632 19.1603 23.026 19.0811 23.1888 19.0019C23.3679 18.9229 23.5388 18.852 23.7016 18.7891C23.8807 18.7264 24.0597 18.6555 24.2388 18.5765C24.4178 18.5138 24.5888 18.4347 24.7516 18.3393C24.9144 18.2275 25.0935 18.1567 25.2888 18.1267C25.4841 18.0968 25.6794 18.0913 25.8747 18.1102C26.07 18.1128 26.2571 18.1153 26.4361 18.1177C26.6477 18.1205 26.843 18.1557 27.022 18.2232C27.201 18.2907 27.3799 18.3501 27.5589 18.4013C27.6077 18.4182 27.6647 18.4271 27.7298 18.428C27.8112 18.4128 27.8681 18.4136 27.9007 18.4303C28.3564 18.4689 28.7469 18.58 29.0723 18.7634C29.235 18.733 29.3896 18.7595 29.536 18.8428C29.6825 18.9099 29.8371 18.9689 29.9998 19.0199C30.0649 19.0208 30.1137 19.0784 30.1461 19.1928L30.1705 19.2419C30.3495 19.3745 30.5121 19.5069 30.6585 19.6391C30.8212 19.7715 30.9839 19.9283 31.1465 20.1095C31.3254 20.291 31.4881 20.4559 31.6344 20.6043C31.7808 20.7528 31.9191 20.9337 32.0491 21.147C32.228 21.4261 32.3906 21.6643 32.5369 21.8616C32.6833 22.0588 32.8703 22.2811 33.098 22.5283C33.1631 22.5942 33.1549 22.6674 33.0735 22.7477C33.106 22.7806 33.1223 22.8053 33.1223 22.8216C33.2361 23.0509 33.3336 23.2883 33.4148 23.5335C33.496 23.7787 33.5528 24.0318 33.5852 24.2926C33.6176 24.5535 33.6419 24.7898 33.658 25.0016C33.6905 25.1973 33.7717 25.4182 33.9018 25.6641C33.9506 25.7298 33.9831 25.7791 33.9993 25.8118C34.0156 25.8283 34.0237 25.8773 34.0237 25.9587ZM31.9488 25.6623C31.9163 25.613 31.8838 25.5638 31.8513 25.5145C31.835 25.4655 31.8188 25.4246 31.8025 25.3918C31.77 25.2286 31.7457 25.0655 31.7296 24.9025C31.7297 24.7235 31.7298 24.5526 31.7299 24.3898C31.6486 24.226 31.551 24.0782 31.4372 23.9464C31.3233 23.8147 31.2258 23.6669 31.1445 23.5031C31.0632 23.3392 30.9982 23.1674 30.9495 22.9878C30.9008 22.8081 30.8276 22.6443 30.7301 22.4965C30.6651 22.3817 30.5919 22.2912 30.5105 22.225C30.4292 22.1426 30.3397 22.0681 30.2421 22.0017C30.1608 21.9192 30.0795 21.8368 29.9982 21.7543C29.9331 21.672 29.8762 21.5736 29.8274 21.459C29.7624 21.3605 29.7625 21.2629 29.8276 21.1661L29.8032 21.1169C29.673 21.1315 29.5347 21.0808 29.3883 20.9649C29.2419 20.8327 29.1443 20.7175 29.0956 20.6192C28.9655 20.4872 28.8028 20.3955 28.6075 20.3441C28.4285 20.2766 28.2495 20.2416 28.0705 20.2392L27.9973 20.1894C27.8834 20.2204 27.7613 20.2432 27.6311 20.2577C27.5009 20.256 27.3788 20.2299 27.2649 20.1796C27.2649 20.2447 27.2567 20.3178 27.2404 20.399C27.2241 20.4639 27.1752 20.512 27.0938 20.5435C27.0613 20.5756 27.0124 20.575 26.9474 20.5415C26.8986 20.4921 26.8416 20.4343 26.7766 20.3684C26.7278 20.3026 26.6709 20.2367 26.6058 20.1708C26.557 20.105 26.5245 20.0557 26.5083 20.023L26.5083 19.9985L26.4594 19.9979C26.2966 20.1422 26.1826 20.2383 26.1175 20.2863C26.0687 20.3182 25.9303 20.3082 25.7025 20.2563C25.6212 20.2389 25.5561 20.2299 25.5072 20.2293C25.4584 20.2286 25.4177 20.1955 25.3852 20.13C25.3527 20.1296 25.3201 20.121 25.2876 20.1043C25.2713 20.0878 25.2469 20.0712 25.2144 20.0545L25.19 20.0785C24.9946 20.1573 24.783 20.2359 24.5551 20.3142C24.3435 20.3765 24.14 20.4551 23.9447 20.5501C23.733 20.6612 23.5133 20.7397 23.2854 20.7855C23.0738 20.8315 22.8703 20.9182 22.675 21.0458C22.4796 21.1734 22.3167 21.3259 22.1864 21.5032C22.0561 21.6805 21.9177 21.8495 21.7711 22.0103C21.7059 22.3024 21.5511 22.577 21.3068 22.8342C21.0788 23.0752 20.8509 23.2756 20.6229 23.4354C20.6066 23.4677 20.5822 23.4836 20.5497 23.4832C20.5334 23.483 20.509 23.4908 20.4764 23.5066C20.4763 23.6368 20.4518 23.8074 20.4029 24.0183C20.3539 24.2293 20.2887 24.3993 20.2073 24.5284C20.1258 24.6738 20.02 24.8026 19.8897 24.9148C19.7757 25.0272 19.6698 25.1479 19.5721 25.2768L19.4988 25.3734C19.4174 25.4537 19.3279 25.5258 19.2302 25.5896C19.1488 25.6536 19.0755 25.7258 19.0103 25.8063C18.9615 25.8708 18.9289 25.9436 18.9126 26.0248C18.9125 26.1061 18.9125 26.1875 18.9124 26.2689C18.9287 26.3017 18.9531 26.3346 18.9856 26.3675C19.0181 26.3843 19.0344 26.417 19.0344 26.4659C18.9692 26.5952 18.8959 26.7163 18.8144 26.8291C18.733 26.942 18.676 27.0714 18.6433 27.2175C18.5618 27.4768 18.4721 27.7441 18.3743 28.0195C18.2928 28.2951 18.1787 28.5459 18.0321 28.7718C18.0321 28.7718 18.0158 28.8448 17.9831 28.9909C17.9505 29.1369 17.9179 29.2992 17.8852 29.4778C17.8526 29.6401 17.8199 29.8106 17.7873 29.9892C17.7709 30.1518 17.7546 30.2573 17.7382 30.3059C17.6893 30.5332 17.6159 30.7519 17.5182 30.9622C17.4367 31.1564 17.3714 31.3753 17.3225 31.6187C17.2572 31.862 17.2245 32.1057 17.2244 32.3499C17.2405 32.5942 17.2322 32.8301 17.1996 33.0575C17.1669 33.2524 17.0936 33.3816 16.9796 33.4452C16.9471 33.4448 16.9145 33.4606 16.8819 33.4927C16.8494 33.5086 16.825 33.5245 16.8087 33.5406C16.8249 33.6059 16.8086 33.6789 16.7597 33.7597C16.7271 33.8243 16.719 33.8812 16.7352 33.9302C16.7677 34.0283 16.7921 34.1182 16.8083 34.1998C16.8245 34.2651 16.8326 34.3628 16.8325 34.4931L16.8081 34.5416C16.808 34.6555 16.8161 34.7614 16.8323 34.8593C16.8648 34.9574 16.8566 35.0549 16.8077 35.1519C16.8076 35.2821 16.7913 35.4121 16.7587 35.5419C16.7261 35.6554 16.7016 35.7771 16.6852 35.9071C16.6689 36.0045 16.6607 36.1021 16.6606 36.1998C16.6606 36.2811 16.6524 36.3787 16.636 36.4924C16.5218 37.0605 16.5052 37.5893 16.5863 38.0787C16.6674 38.5517 16.7973 39.0662 16.976 39.622C17.155 39.6569 17.3014 39.7403 17.4152 39.872C17.5291 40.0037 17.6104 40.1513 17.6591 40.3147C17.8056 40.1865 17.9522 40.0664 18.0987 39.9544C18.2453 39.8262 18.3837 39.6815 18.514 39.5205C18.6443 39.3595 18.742 39.1818 18.8072 38.9873C18.8725 38.7766 18.9702 38.5826 19.1005 38.4053C19.3611 38.067 19.5892 37.7283 19.7847 37.3891C19.9965 37.0338 20.1676 36.6455 20.298 36.2241C20.233 36.1581 20.2004 36.1088 20.2005 36.0763L20.2249 36.0522L20.2249 36.0278C20.1924 35.9785 20.2168 35.9219 20.2982 35.8579C20.3797 35.7776 20.4366 35.7214 20.4692 35.6892C20.5832 35.5768 20.6646 35.4803 20.7135 35.3996C20.7787 35.3028 20.8275 35.2139 20.8601 35.133C20.8927 35.052 20.9253 34.9629 20.9579 34.8657C20.9906 34.7685 21.0313 34.647 21.0802 34.5011C21.0803 34.3384 21.1455 34.2579 21.2757 34.2596C21.3408 34.2279 21.3571 34.1305 21.3247 33.9673C21.3085 33.8043 21.3655 33.6586 21.4958 33.5301C21.3494 33.4793 21.2111 33.4287 21.0809 33.3781C20.9507 33.3112 20.8206 33.2607 20.6904 33.2264C20.2022 33.0896 19.8606 32.9141 19.6654 32.6999C19.4702 32.4857 19.2588 32.1574 19.0313 31.7149C18.9499 31.7138 18.8848 31.6885 18.836 31.639C18.8035 31.5735 18.8279 31.5168 18.9093 31.4691C18.8118 31.3539 18.6898 31.2546 18.5433 31.1712C18.4132 31.0718 18.3807 30.933 18.4459 30.7549C18.5111 30.6581 18.6088 30.6106 18.739 30.6123C18.7227 30.5633 18.7065 30.498 18.6903 30.4164C18.674 30.3348 18.6659 30.2695 18.666 30.2207C18.6009 30.1547 18.5928 30.0977 18.6416 30.0495C18.6905 30.0013 18.7393 29.9613 18.7882 29.9294L18.8126 29.9297C18.8615 29.8653 18.9348 29.7767 19.0325 29.6641C19.1302 29.5515 19.2197 29.4876 19.3011 29.4724C19.4313 29.4578 19.5859 29.5006 19.7649 29.6007C19.9601 29.6847 20.0577 29.7999 20.0576 29.9464C20.1715 29.9805 20.2854 30.039 20.3993 30.1219C20.5294 30.1887 20.627 30.2877 20.692 30.4188L20.692 30.4676C20.6594 30.5323 20.6106 30.5723 20.5455 30.5877C20.6756 30.622 20.7651 30.672 20.8139 30.7378C20.9441 30.7883 21.058 30.855 21.1556 30.9377C21.2532 31.0041 21.3508 31.0786 21.4484 31.1613C21.546 31.244 21.6436 31.3267 21.7412 31.4094C21.8551 31.476 21.9934 31.5186 22.1561 31.537C22.2539 31.2779 22.368 30.9946 22.4984 30.6871C22.6288 30.3796 22.7591 30.064 22.8895 29.7402C23.0199 29.4164 23.1259 29.1004 23.2074 28.7923C23.3053 28.4681 23.3543 28.1676 23.3545 27.8909C23.2894 27.7761 23.3057 27.6868 23.4034 27.623C23.4035 27.5416 23.3954 27.4683 23.3792 27.403C23.3792 27.3216 23.3792 27.2402 23.3793 27.1588C23.3956 27.1102 23.4282 27.0862 23.477 27.0869L23.477 27.0625C23.4445 27.0295 23.4282 26.9967 23.4282 26.9642C23.4445 26.9318 23.4527 26.8994 23.4527 26.8668L23.526 26.7702C23.526 26.7213 23.5505 26.6728 23.5993 26.6247C23.5994 26.5433 23.6645 26.5035 23.7947 26.5052L23.7947 26.4808L23.7703 26.4316C23.7704 26.3503 23.7785 26.2934 23.7948 26.2611C23.8111 26.2287 23.8356 26.1721 23.8682 26.0912C23.8357 26.0256 23.8113 25.9602 23.795 25.8949C23.7788 25.8295 23.7544 25.7641 23.7219 25.6986C23.6894 25.6656 23.6731 25.6328 23.6732 25.6003C23.6895 25.5679 23.7139 25.5357 23.7465 25.5036L23.7465 25.4303C23.5024 25.3131 23.4293 25.2145 23.527 25.1344C23.6247 25.0544 23.7224 24.9661 23.8201 24.8698C23.7875 24.8531 23.7713 24.8122 23.7713 24.7471C23.7714 24.6657 23.7714 24.6087 23.7714 24.5762C23.7715 24.4785 23.7471 24.3317 23.6984 24.1357C23.6497 23.9235 23.6742 23.818 23.7719 23.8193L23.7475 23.7214C23.7476 23.5749 23.7477 23.4772 23.7477 23.4284C23.764 23.3798 23.7884 23.2906 23.8211 23.1608C23.8864 22.8362 24.0167 22.6589 24.212 22.6289C24.4073 22.599 24.5699 22.7721 24.6999 23.1482C24.7976 23.0193 24.9197 22.9721 25.0662 23.0066C25.2126 23.0411 25.3428 23.1161 25.4566 23.2316C25.5868 23.3472 25.6843 23.4869 25.7493 23.6505C25.8306 23.7981 25.8468 23.9204 25.7979 24.0174C25.7979 24.0825 25.7735 24.1147 25.7247 24.1141C25.6921 24.195 25.6513 24.2596 25.6025 24.3077C25.7326 24.3746 25.8302 24.4817 25.8952 24.629C25.9603 24.7601 26.0009 24.9072 26.017 25.0701C26.0495 25.2171 26.0575 25.3799 26.0412 25.5587C26.0411 25.7215 26.041 25.8598 26.0409 25.9738L26.0165 26.0223C26.0164 26.0874 26.0327 26.1771 26.0651 26.2915C26.1139 26.3898 26.122 26.4632 26.0894 26.5115C26.0894 26.5604 26.0731 26.6008 26.0405 26.633C26.0405 26.6981 26.0404 26.8201 26.0403 26.9992C26.0565 27.1784 26.0808 27.2927 26.1133 27.3419L26.1132 27.6105C26.0806 27.6752 26.0236 27.7476 25.9422 27.8279C25.877 27.9084 25.8037 27.9888 25.7223 28.0691C25.6409 28.1494 25.5676 28.2298 25.5025 28.3103C25.4536 28.3911 25.4373 28.4559 25.4535 28.505C25.5348 28.5875 25.6243 28.6456 25.722 28.6795C25.8359 28.6973 25.8928 28.7794 25.8927 28.9259C25.8926 29.0887 25.8356 29.1774 25.7217 29.1922C25.624 29.1909 25.5263 29.2384 25.4286 29.3347C25.1029 29.6396 24.9075 29.9544 24.8422 30.279C24.7769 30.6037 24.7116 30.9609 24.6462 31.3506C24.6136 31.4804 24.5891 31.6022 24.5728 31.7159C24.5727 31.8298 24.5401 31.9352 24.475 32.0319L24.4749 32.0564C24.6051 32.0581 24.8004 32.0444 25.0609 32.0154C25.3213 31.97 25.5003 31.9073 25.598 31.8273C25.6143 31.7787 25.655 31.7548 25.7201 31.7557C26.0131 31.7433 26.2979 31.7227 26.5746 31.6939C26.8513 31.665 27.1361 31.6281 27.4291 31.5832C27.7221 31.5383 27.9499 31.4926 28.1127 31.4459C28.2755 31.3993 28.4138 31.3442 28.5278 31.2806C28.658 31.2172 28.7883 31.1376 28.9185 31.0417C29.0651 30.946 29.2604 30.8102 29.5047 30.6345C29.7001 30.4906 29.9036 30.3713 30.1152 30.2764C30.3431 30.1656 30.5385 30.0217 30.7013 29.8448C30.7666 29.5853 30.8644 29.3669 30.9947 29.1896C31.1412 28.9962 31.3041 28.8194 31.4832 28.659C31.3856 28.5601 31.3776 28.4216 31.459 28.2437C31.5568 28.0496 31.6464 27.9125 31.7278 27.8322C31.7279 27.7346 31.7523 27.6454 31.8012 27.5646C31.8501 27.4676 31.8746 27.3459 31.8747 27.1994C31.8584 27.1829 31.8503 27.1421 31.8503 27.077C31.8015 27.0275 31.7934 26.9867 31.826 26.9546C31.8748 26.9227 31.9155 26.8907 31.9481 26.8586L31.9725 26.8589C31.94 26.8259 31.8749 26.7844 31.7773 26.7342C31.6797 26.6678 31.6716 26.6026 31.753 26.5386L31.7286 26.5138L31.753 26.4898C31.7694 26.3923 31.7775 26.3111 31.7776 26.2459C31.7776 26.1646 31.8102 26.0836 31.8754 26.0031C31.8754 25.9868 31.8998 25.9628 31.9487 25.9309C31.9975 25.899 32.0301 25.875 32.0463 25.8589L31.9488 25.6623ZM52.5752 33.6291C52.5914 33.8735 52.5424 34.1088 52.4283 34.3352C52.3306 34.5617 52.2409 34.764 52.1595 34.9419L51.3778 35.7615L50.9131 37.1469C50.734 37.2747 50.5387 37.4023 50.327 37.5297C50.1317 37.641 49.9526 37.7607 49.7897 37.8887C49.6106 38.0328 49.4478 38.1934 49.3012 38.3705C49.1709 38.5477 49.0243 38.7004 48.8615 38.8284C48.6987 38.9565 48.5033 39.0678 48.2754 39.1624C48.0638 39.2409 47.8685 39.336 47.6894 39.4475C47.3638 39.6385 47.0544 39.8378 46.7614 40.0454C46.4846 40.2533 46.1915 40.4528 45.8822 40.644C45.8008 40.6755 45.7357 40.7153 45.6868 40.7635C45.6542 40.7956 45.5973 40.8274 45.5159 40.8588C45.467 40.8907 45.2554 40.953 44.881 41.0456C44.5067 41.1383 44.0916 41.2466 43.6358 41.3708C43.1964 41.4788 42.7813 41.579 42.3906 41.6715C42 41.7639 41.7803 41.8098 41.7314 41.8091C41.4385 41.8377 41.1374 41.85 40.8282 41.8458C40.519 41.8417 40.2097 41.8457 39.9005 41.8578L39.5342 42.0726C39.3553 41.94 39.16 41.8154 38.9485 41.6986C38.737 41.5818 38.5581 41.4573 38.4117 41.3252C38.249 41.1765 38.0864 41.0116 37.9237 40.8304C37.7611 40.6329 37.6147 40.4519 37.4846 40.2874C37.4034 40.0584 37.3222 39.8376 37.2409 39.6249C37.1597 39.396 37.0947 39.1754 37.046 38.9631L36.9245 38.0337C36.8921 37.7241 36.8598 37.4225 36.8274 37.1291C36.8113 36.8359 36.787 36.5345 36.7547 36.2248C37.0318 35.4635 37.2764 34.7018 37.4884 33.9397C37.7167 33.1615 37.9938 32.4002 38.3198 31.6559C38.4012 31.478 38.4746 31.2999 38.5398 31.1217C38.6213 30.9275 38.7027 30.7414 38.7842 30.5635C38.882 30.3695 38.9879 30.1919 39.1019 30.0306C39.2159 29.8531 39.3137 29.6754 39.3952 29.4974C39.4766 29.3032 39.5419 29.1088 39.5908 28.9141C39.6397 28.7032 39.705 28.5087 39.7864 28.3308C39.8353 28.2338 39.9168 28.0965 40.0308 27.919C40.1448 27.7252 40.267 27.5316 40.3973 27.338C40.5277 27.1282 40.6498 26.9263 40.7639 26.7326C40.8942 26.539 41.0001 26.3858 41.0815 26.2729C41.2118 26.1119 41.3421 25.959 41.4724 25.8143C41.6026 25.6696 41.7085 25.5082 41.79 25.3303C41.9529 25.0558 42.1077 24.7079 42.2544 24.2867C42.4012 23.8655 42.5641 23.4933 42.7433 23.1702C42.9389 22.8147 43.1669 22.4841 43.4275 22.1784C43.7043 21.8565 43.9568 21.5263 44.1848 21.1875C44.4292 20.849 44.6654 20.4778 44.8934 20.074L45.968 19.3071L46.456 19.8019L47.6279 19.6223L48.3596 20.7308C48.3269 20.9745 48.286 21.2506 48.237 21.5592C48.2043 21.868 48.1715 22.185 48.1388 22.51C48.1223 22.8191 48.1059 23.1281 48.0894 23.4371C48.0893 23.7301 48.1054 23.9907 48.1378 24.219C48.0563 24.5109 47.934 24.8185 47.7711 25.1418C47.6244 25.4491 47.4534 25.7154 47.2579 25.9406L47.1595 27.2577L46.1825 28.1235L46.0597 29.367L45.2291 30.3324C45.1802 30.5597 45.1312 30.795 45.0823 31.0385C45.0333 31.2657 44.9681 31.4846 44.8866 31.6951C44.8051 31.8893 44.7073 32.0914 44.5933 32.3015C44.4792 32.4953 44.3652 32.6972 44.2511 32.9073C43.9255 33.1796 43.5917 33.4844 43.2497 33.8216C42.9077 34.1588 42.5983 34.4964 42.3215 34.8345C42.1749 35.0116 42.0364 35.2051 41.9061 35.4149C41.7921 35.6087 41.6699 35.7942 41.5396 35.9715C41.1161 36.503 40.6602 37.0014 40.1716 37.4669C39.6831 37.9324 39.2027 38.4142 38.7305 38.9124L39.267 39.8718C39.6087 39.9903 39.9585 40.1008 40.3165 40.2032C40.6745 40.3057 41.0325 40.4 41.3905 40.4862C41.5532 40.4558 41.7404 40.4258 41.952 40.396C42.1636 40.35 42.3833 40.3042 42.6112 40.2584C42.8391 40.1963 43.0588 40.1342 43.2704 40.0719C43.4983 40.0098 43.6855 39.9473 43.832 39.8841C44.1576 39.7583 44.532 39.5761 44.9553 39.3376C45.3786 39.0829 45.7368 38.8598 46.0298 38.6684C46.5508 38.3499 47.0799 38.0233 47.6172 37.6887C48.1544 37.3541 48.6673 37.0029 49.1558 36.6351C49.4814 36.3953 49.8234 36.0907 50.1816 35.7211C50.5399 35.3515 50.8737 35.0061 51.1831 34.6847C51.5088 34.3473 51.7938 34.0744 52.038 33.8661C52.2985 33.658 52.4776 33.579 52.5752 33.6291ZM45.942 21.9923C45.5999 22.5574 45.2334 23.1059 44.8425 23.6378C44.4679 24.1536 44.1177 24.6941 43.7918 25.2594C43.6778 25.4532 43.58 25.6554 43.4985 25.8659C43.417 26.0601 43.3111 26.254 43.1808 26.4475C43.0668 26.6251 42.9446 26.8025 42.8143 26.9798C42.684 27.157 42.57 27.3508 42.4722 27.5611C42.2767 27.9328 42.0974 28.3292 41.9345 28.7502C41.7877 29.1551 41.6248 29.5517 41.4455 29.94C41.25 30.328 41.0219 30.6911 40.7613 31.0294C40.5007 31.3677 40.2645 31.7308 40.0527 32.1186L39.6617 32.8946C39.6291 32.9755 39.5965 33.0402 39.5639 33.0886C39.5314 33.1207 39.4988 33.1772 39.4662 33.2582C39.401 33.4364 39.3683 33.6312 39.3682 33.8428C39.3681 34.0544 39.3435 34.2494 39.2946 34.4278C39.2457 34.6224 39.1723 34.8086 39.0746 34.9864C38.9768 35.1641 38.8872 35.3419 38.8057 35.5199C38.7242 35.6978 38.659 35.8841 38.6101 36.0788C38.5612 36.2572 38.5041 36.4354 38.4389 36.6136C38.5692 36.4851 38.7076 36.373 38.8541 36.2774C39.0169 36.1656 39.1716 36.0456 39.3181 35.9174C39.4647 35.7728 39.6031 35.6201 39.7334 35.4591C39.8637 35.298 40.0103 35.1535 40.1731 35.0255C40.3196 34.8972 40.4743 34.7854 40.6371 34.6899C40.8162 34.5784 40.9871 34.4667 41.15 34.355C41.4106 34.0004 41.6386 33.6372 41.8341 33.2655C41.9319 33.0878 42.0134 32.8854 42.0786 32.6584C42.1601 32.4316 42.2579 32.2295 42.3719 32.052C42.4697 31.8743 42.5918 31.705 42.7384 31.5442C42.9012 31.3836 43.0397 31.2146 43.1537 31.0371C43.284 30.8598 43.3899 30.674 43.4714 30.4798C43.5692 30.2858 43.6751 30.1 43.7891 29.9225C44.0171 29.5675 44.2696 29.2291 44.5465 28.9073L44.6694 27.3708L45.5489 26.3572L45.6715 25.4311L46.2823 24.5848L46.3563 23.2186L45.942 21.9923ZM69.6869 40.6455C69.4916 40.6429 69.337 40.649 69.223 40.6637C69.1254 40.6624 69.0359 40.6694 68.9545 40.6846C68.8731 40.6997 68.7836 40.7311 68.6859 40.7786C68.5882 40.8261 68.458 40.8976 68.2952 40.9931C68.23 41.1713 68.1404 41.3084 68.0264 41.4045C67.9287 41.4846 67.8066 41.5562 67.6601 41.6194C67.5299 41.6665 67.3915 41.7216 67.245 41.7847C67.0985 41.8316 66.9601 41.9192 66.8298 42.0477C65.5928 42.2264 64.5026 41.9351 63.5591 41.1738C63.4453 41.0909 63.3395 41 63.2419 40.901C63.1606 40.8022 63.063 40.7114 62.9492 40.6285C62.8678 40.5623 62.819 40.5373 62.8027 40.5533C62.8027 40.5533 62.7702 40.5122 62.7051 40.4299C62.5913 40.2656 62.5182 40.0693 62.4858 39.841C62.4697 39.5967 62.4372 39.3684 62.3885 39.1561C62.3399 38.9276 62.2423 38.7391 62.0959 38.5907C61.9658 38.4262 61.7299 38.3498 61.3881 38.3615C61.2252 38.7011 60.989 39.0479 60.6796 39.4018C60.3864 39.7397 60.0526 40.0445 59.6781 40.3161C59.3036 40.5878 58.9048 40.8103 58.4815 40.9837C58.0746 41.1573 57.6839 41.2416 57.3096 41.2366C57.1792 41.6092 56.9512 41.8828 56.6256 42.0575C56.3163 42.2486 55.9825 42.3907 55.6244 42.4835C55.5919 42.4994 55.5268 42.5148 55.4291 42.5297C55.3314 42.561 55.2745 42.5765 55.2582 42.5763C55.0303 42.5895 54.8514 42.5464 54.7212 42.447C54.5911 42.3476 54.4691 42.2402 54.3552 42.1247C54.2414 42.0093 54.1194 41.9018 53.9892 41.8024C53.8591 41.703 53.6801 41.6518 53.4523 41.6488C53.2735 41.2232 53.0947 40.8057 52.9159 40.3964C52.7372 39.9871 52.6072 39.5704 52.5261 39.1461C52.6726 39.0667 52.754 38.9701 52.7704 38.8564C52.7704 38.7262 52.7705 38.596 52.7706 38.4658C52.5103 38.3809 52.3801 38.2815 52.3802 38.1676C52.364 38.0371 52.3885 37.9073 52.4536 37.7779C52.5025 37.6484 52.5596 37.5271 52.6247 37.414C52.6736 37.2844 52.6412 37.1782 52.5273 37.0953C52.6581 36.1042 52.9434 35.1477 53.3834 34.2259C53.8234 33.304 54.4504 32.5393 55.2645 31.9317C55.167 31.6212 55.1916 31.3855 55.3381 31.2247C55.501 31.0641 55.6882 30.9771 55.8998 30.9637C56.1276 30.9505 56.3392 31.0103 56.5344 31.1431C56.7459 31.2599 56.8516 31.4484 56.8514 31.7089C56.8676 31.823 56.8594 31.9368 56.8268 32.0503C56.7942 32.1638 56.7616 32.2692 56.729 32.3664C56.631 32.8534 56.4843 33.3234 56.2887 33.7765C56.0931 34.2296 55.8813 34.6744 55.6532 35.1108C55.4251 35.5472 55.1889 35.9835 54.9445 36.4197C54.7164 36.8561 54.5208 37.3092 54.3578 37.779C54.1624 37.9066 54.0972 38.0441 54.1622 38.1914C54.2273 38.3388 54.3085 38.4864 54.4061 38.6342C54.52 38.7659 54.5768 38.8969 54.5768 39.0271C54.593 39.1575 54.4464 39.2776 54.1371 39.3874C54.0393 39.614 54.0636 39.8177 54.21 39.9987C54.3564 40.1635 54.4783 40.336 54.5759 40.5163C54.7061 40.5344 54.8281 40.536 54.9421 40.5212C55.0723 40.5067 55.1781 40.4349 55.2595 40.3058C55.4548 40.4386 55.6256 40.4653 55.7721 40.3859C55.9349 40.3067 56.0977 40.2112 56.2606 40.0994C56.4397 39.9716 56.6269 39.8684 56.8222 39.7896C57.0338 39.711 57.2698 39.7386 57.5301 39.8723C57.6441 39.7599 57.7337 39.6228 57.7989 39.4609C57.8804 39.2992 57.9618 39.1457 58.0433 39.0003C58.1247 38.8549 58.2225 38.7341 58.3364 38.638C58.4667 38.5421 58.6457 38.5119 58.8736 38.5475C59.1017 38.1437 59.4029 37.8141 59.7774 37.5587C60.1519 37.287 60.5263 37.0316 60.9008 36.7924C61.2915 36.5535 61.6335 36.2977 61.9266 36.0249C62.2359 35.7524 62.4315 35.3969 62.5131 34.9586C62.8226 34.4744 63.1321 33.9333 63.4417 33.3353C63.7676 32.7211 64.1422 32.2134 64.5656 31.8122C64.6145 31.6827 64.6959 31.5861 64.8099 31.5225C64.9238 31.4427 65.0459 31.3955 65.1761 31.3809C65.3063 31.3501 65.4365 31.36 65.5667 31.4106C65.6969 31.4449 65.8108 31.5115 65.9083 31.6105C65.9407 31.9039 65.8999 32.1719 65.7858 32.4145C65.688 32.6573 65.5739 32.8999 65.4436 33.1423C65.3296 33.3687 65.2399 33.6116 65.1746 33.8712C65.1094 34.1307 65.1336 34.4321 65.2473 34.7755C65.0194 34.9026 64.7915 35.0135 64.5636 35.1081C64.352 35.2029 64.1485 35.306 63.9531 35.4173C63.774 35.5288 63.6112 35.6732 63.4646 35.8502C63.3343 36.0275 63.2447 36.2623 63.1957 36.5546C63.635 36.7233 63.8953 36.9302 63.9765 37.1755C64.0577 37.4207 64.0983 37.6898 64.0981 37.9828C64.0979 38.2594 64.114 38.5526 64.1464 38.8623C64.195 39.1559 64.4064 39.4517 64.7806 39.7497C64.8456 39.7994 64.8863 39.8407 64.9026 39.8734C64.9351 39.8901 64.9921 39.9153 65.0734 39.949C65.2361 40 65.3826 40.0019 65.5128 39.9548C65.6431 39.8915 65.7651 39.8362 65.8791 39.7889C66.0093 39.7418 66.1395 39.7272 66.2697 39.7453C66.4162 39.7472 66.5789 39.8471 66.7578 40.0448C67.0021 39.7388 67.2299 39.7418 67.4413 40.0539C67.6368 39.6985 67.816 39.4974 67.9787 39.4508C68.1415 39.4041 68.2961 39.3899 68.4426 39.4082C68.6053 39.4266 68.7681 39.4125 68.9309 39.3659C69.0936 39.3192 69.2728 39.1182 69.4683 38.7627L69.6879 38.9854C69.7857 38.7263 69.8996 38.6057 70.0298 38.6237C70.1763 38.6257 70.3146 38.652 70.4448 38.7026C70.575 38.7368 70.6889 38.7384 70.7866 38.7071C70.8842 38.6596 70.9332 38.465 70.9334 38.1232C71.0798 38.1251 71.2019 38.0942 71.2996 38.0304C71.4136 37.9668 71.5194 37.895 71.6171 37.8149C71.7311 37.7351 71.8532 37.6716 71.9834 37.6245C72.1136 37.5612 72.2683 37.5307 72.4473 37.5331L71.8117 39.0627L69.6869 40.6455ZM91.3284 24.5047C91.1004 24.7458 90.8481 24.8726 90.5714 24.8852C90.2948 24.8815 90.0181 24.8533 89.7415 24.8008C89.4811 24.7485 89.2207 24.7287 88.9603 24.7415C88.7162 24.7382 88.5046 24.8656 88.3254 25.1236C88.065 25.055 87.7965 25.0433 87.5198 25.0884C87.2431 25.1173 86.9583 25.1704 86.6653 25.2479C86.3723 25.3091 86.0793 25.3702 85.7863 25.4314C85.4934 25.4926 85.2004 25.5131 84.9075 25.4929L84.4927 25.0723C84.3787 25.2498 84.2159 25.3615 84.0043 25.4075C83.809 25.4375 83.6137 25.386 83.4185 25.2532C83.0766 25.4765 82.7347 25.5777 82.393 25.5569C82.0512 25.536 81.7176 25.5234 81.3921 25.519C81.0666 25.4984 80.7574 25.5594 80.4644 25.7019C80.1876 25.8284 79.9514 26.1589 79.7558 26.6934C79.6091 27.0658 79.4706 27.4464 79.3401 27.8353C79.2097 28.2079 79.0793 28.5805 78.9489 28.9531C78.5903 29.9249 78.2235 30.8884 77.8486 31.8437C77.49 32.7829 77.0826 33.7133 76.6264 34.6349C76.5934 35.3669 76.6092 36.1077 76.6739 36.8573C76.7385 37.6068 76.8113 38.3484 76.8923 39.0819C76.8271 39.2763 76.8025 39.4795 76.8187 39.6913C76.8511 39.9033 76.9079 40.1156 76.9892 40.3283C77.0704 40.541 77.168 40.7458 77.2818 40.9426C77.3956 41.1232 77.5176 41.2876 77.6477 41.4358L78.0873 41.0266L78.6971 41.8893C78.86 41.6799 79.0473 41.4627 79.259 41.2376C79.487 40.9966 79.7231 40.78 79.9673 40.588C80.2116 40.3796 80.4639 40.2121 80.7244 40.0854C81.0011 39.9426 81.2779 39.8487 81.5546 39.8035C81.6686 39.6911 81.7744 39.5705 81.8721 39.4416C81.9699 39.3127 82.0757 39.2083 82.1897 39.1285C82.3037 39.0323 82.4258 38.9689 82.556 38.938C82.7025 38.8912 82.8733 38.9016 83.0686 38.9693C83.5896 38.6833 84.0536 38.3233 84.4607 37.8893C84.8679 37.4391 85.275 36.9969 85.6821 36.5629C86.0893 36.1126 86.5126 35.7033 86.9523 35.3348C87.4082 34.9666 87.9373 34.7132 88.5395 34.5748C88.1484 35.5136 87.6514 36.4265 87.0487 37.3137C86.4461 38.1845 85.7702 38.9648 85.0212 39.6547C84.8257 39.8799 84.5815 40.0801 84.2884 40.2552C84.1582 40.3349 84.0198 40.4225 83.8733 40.5182C83.7268 40.5976 83.5884 40.6772 83.4581 40.7568C83.0186 41.0439 82.5952 41.3556 82.1882 41.6919C81.7811 42.012 81.3903 42.373 81.0157 42.7749C80.967 42.6766 80.9019 42.6106 80.8206 42.5769C80.7392 42.5433 80.6416 42.5257 80.5276 42.5242C80.43 42.5229 80.3242 42.5296 80.2103 42.5443C80.1126 42.5593 80.0231 42.5581 79.9417 42.5407C79.6324 42.7645 79.2254 42.9381 78.7208 43.0615C78.2325 43.2014 77.7931 43.2281 77.4025 43.1415C77.2886 43.1074 77.1341 43.0402 76.9388 42.94C76.7436 42.856 76.5972 42.7808 76.4995 42.7144C75.8651 42.2827 75.3853 41.7554 75.0602 41.1326C74.7513 40.4937 74.5809 39.7996 74.5487 39.0505L74.3536 38.8526C74.5653 38.6601 74.6956 38.4665 74.7445 38.2719C74.8097 38.0774 74.8261 37.8823 74.7937 37.6866C74.7775 37.4748 74.737 37.2626 74.672 37.0502C74.6233 36.8217 74.5909 36.5934 74.5747 36.3653C74.5586 36.2186 74.5586 36.0965 74.575 35.9991C74.6076 35.9019 74.6402 35.7884 74.6728 35.6586C74.8033 35.1395 74.9257 34.6366 75.0399 34.1498C75.1541 33.6468 75.2765 33.1439 75.407 32.6411C75.7332 31.4084 76.1082 30.1927 76.5321 28.994C76.9722 27.7792 77.4286 26.5809 77.9013 25.399C77.6409 25.2979 77.3806 25.2374 77.1202 25.2177C76.8598 25.1816 76.5913 25.1617 76.3146 25.158C76.0542 25.1545 75.7857 25.1428 75.509 25.1228C75.2487 25.1031 74.9883 25.0426 74.728 24.9415C74.6141 24.8911 74.5571 24.8659 74.5571 24.8659C74.5571 24.8497 74.492 24.8406 74.3618 24.8389C74.2805 24.8378 74.1665 24.8526 74.0201 24.8832C73.8736 24.8975 73.7271 24.9036 73.5806 24.9017C73.4342 24.8997 73.304 24.8817 73.1901 24.8476C73.0599 24.8133 72.9867 24.7391 72.9705 24.625L72.9706 24.3808C72.9871 24.1206 73.0441 23.9505 73.1418 23.8704C73.2395 23.7741 73.3616 23.7187 73.5081 23.7044C73.6546 23.6738 73.8173 23.6597 73.9964 23.6621C74.1754 23.6482 74.3463 23.5936 74.5091 23.4981C74.9647 23.6019 75.396 23.6809 75.8028 23.7352C76.2097 23.7732 76.6003 23.7703 76.9746 23.7264C77.3652 23.6828 77.7396 23.5821 78.0977 23.4241C78.4721 23.2664 78.8385 23.0271 79.1967 22.7064C79.4574 22.2053 79.653 21.6708 79.7835 21.1029C79.9141 20.5187 80.0609 19.951 80.224 19.3998C80.4033 18.8326 80.6315 18.3148 80.9084 17.8465C81.1854 17.3619 81.6087 16.9607 82.1786 16.6428C82.439 16.6137 82.6668 16.6493 82.862 16.7496C83.0573 16.8499 83.2525 16.9583 83.4477 17.0748C83.3662 17.3016 83.301 17.5367 83.252 17.7802C83.203 18.0237 83.1459 18.2671 83.0807 18.5104C83.0317 18.7538 82.9665 18.989 82.885 19.2157C82.8035 19.4425 82.6813 19.6525 82.5184 19.8456C82.7299 19.9298 82.852 20.0291 82.8844 20.1435C82.9169 20.2578 82.9006 20.3797 82.8354 20.509C82.7702 20.6384 82.6888 20.7756 82.591 20.9208C82.4933 21.066 82.4363 21.1954 82.4199 21.3091C82.2409 21.323 82.0862 21.4349 81.9559 21.6447C81.8418 21.8548 81.7197 22.0159 81.5894 22.1281C81.4591 22.403 81.4833 22.6394 81.6622 22.8371C81.8411 23.0348 82.0038 23.2241 82.1501 23.4051C82.2966 23.4559 82.4431 23.466 82.5895 23.4354C82.736 23.3886 82.8663 23.3415 82.9802 23.2942C83.1104 23.2471 83.2325 23.2243 83.3464 23.2259C83.4604 23.2274 83.5661 23.2939 83.6637 23.4254C83.8265 23.2486 83.9893 23.1775 84.152 23.2122C84.3148 23.2307 84.4775 23.2736 84.6402 23.3409C84.8029 23.3919 84.9657 23.4185 85.1284 23.4206C85.2912 23.4065 85.4458 23.2784 85.5925 23.0362C85.7878 22.9412 85.9669 22.9192 86.1296 22.9702C86.3086 23.0214 86.4713 23.0887 86.6177 23.172C86.7641 23.2391 86.9024 23.2979 87.0326 23.3485C87.179 23.383 87.3255 23.3524 87.4721 23.2567C87.7162 23.2925 87.9847 23.3043 88.2776 23.2919C88.5869 23.2798 88.888 23.2513 89.1809 23.2064C89.4902 23.1617 89.7913 23.1088 90.0843 23.0476C90.3935 22.9703 90.6702 22.9089 90.9144 22.8634C91.1584 23.0131 91.3048 23.1453 91.3536 23.2599C91.4023 23.3745 91.4104 23.4885 91.3778 23.602C91.3614 23.7157 91.3288 23.8455 91.2799 23.9913C91.2473 24.1211 91.2635 24.2922 91.3284 24.5047ZM105.313 34.6775C105.378 34.9225 105.354 35.1337 105.24 35.3113C105.126 35.4725 104.971 35.6169 104.776 35.7445C104.597 35.8723 104.393 35.9916 104.165 36.1025C103.954 36.1974 103.775 36.3089 103.628 36.4371C102.896 36.5901 102.228 36.7032 101.626 36.7765C101.04 36.8338 100.389 36.9146 99.6729 37.0189C99.4613 37.0486 99.2579 37.0459 99.0626 37.0107C98.8836 36.9595 98.6965 36.9407 98.5012 36.9544C98.3872 36.9529 98.2814 36.9514 98.1838 36.9501C98.0862 36.9326 97.9885 36.9312 97.8909 36.9462C97.5165 36.9737 97.2723 37.1007 97.1583 37.327C97.0442 37.5371 96.9464 37.7881 96.8649 38.0799C96.7996 38.3558 96.7099 38.6231 96.5959 38.882C96.4981 39.1248 96.2783 39.2928 95.9364 39.3859C95.9038 39.4668 95.9119 39.5402 95.9607 39.6059C96.0258 39.6719 96.0746 39.7295 96.1071 39.7788C95.8304 39.8565 95.6431 40.0004 95.5454 40.2107C95.4639 40.4212 95.3905 40.6318 95.3253 40.8425C95.2601 41.0533 95.1623 41.231 95.032 41.3757C94.918 41.5207 94.6901 41.5665 94.3484 41.513C93.8436 42.0434 93.2493 42.4668 92.5656 42.7831C91.8818 43.1158 91.1738 43.326 90.4414 43.4138C90.3112 43.347 90.181 43.2639 90.0509 43.1645C89.937 43.0653 89.815 42.9741 89.6849 42.891C89.571 42.8081 89.4409 42.7413 89.2944 42.6905C89.1642 42.6562 89.0096 42.6541 88.8306 42.6842C88.8145 42.3422 88.7496 42.024 88.6359 41.7295C88.5058 41.4348 88.3432 41.1559 88.1481 40.8929C88.1157 40.5995 88.1566 40.3315 88.2706 40.0888C88.3684 39.8297 88.4744 39.5789 88.5884 39.3363C88.7025 39.0936 88.8003 38.8508 88.8818 38.6078C88.9471 38.3482 88.931 38.055 88.8335 37.7282C88.9963 37.6327 89.1022 37.5202 89.1511 37.3907C89.2162 37.2613 89.257 37.1317 89.2734 37.0017C89.306 36.8556 89.3468 36.7259 89.3957 36.6127C89.4446 36.4831 89.5585 36.3788 89.7376 36.2999C89.6076 35.9075 89.6241 35.6229 89.7869 35.446C89.9661 35.2531 90.1777 35.0851 90.4219 34.9418C90.6662 34.7986 90.8941 34.6389 91.1058 34.4627C91.3174 34.2865 91.399 34.019 91.3504 33.6603C91.4481 33.564 91.562 33.4841 91.6923 33.4208C91.8225 33.3574 91.9446 33.3021 92.0586 33.2548C92.1888 33.1914 92.3109 33.1279 92.4248 33.0644C92.5388 33.0008 92.6446 32.9127 92.7424 32.8001C92.6285 32.7171 92.5716 32.635 92.5716 32.5536C92.5879 32.4725 92.6124 32.3914 92.645 32.3105C92.6776 32.2132 92.7102 32.116 92.7428 32.0188C92.7917 31.9218 92.7918 31.8241 92.743 31.7258C93.1824 31.7968 93.5649 31.745 93.8905 31.5703C94.2323 31.3796 94.5498 31.1885 94.8429 30.9971C95.1522 30.806 95.4615 30.6718 95.7708 30.5945C96.08 30.5173 96.438 30.6197 96.8447 30.9019C96.8772 31.0162 96.9259 31.1878 96.9909 31.4165C97.0721 31.6292 97.1452 31.8499 97.2102 32.0787C97.2914 32.3076 97.3645 32.5283 97.4295 32.7408C97.4945 32.9532 97.5351 33.1084 97.5513 33.2063C97.5512 33.2877 97.5512 33.4179 97.5511 33.5969C97.551 33.7759 97.5508 33.9713 97.5507 34.1828C97.5506 34.3782 97.5505 34.5653 97.5504 34.7444C97.5503 34.9234 97.5502 35.0617 97.5501 35.1594C98.0219 35.4424 98.4938 35.6196 98.9657 35.6911C99.4377 35.7462 99.9097 35.6386 100.382 35.3682C100.561 35.5334 100.732 35.5845 100.894 35.5216C101.057 35.4424 101.212 35.3549 101.358 35.2593C101.521 35.1638 101.684 35.1171 101.847 35.1193C102.009 35.1052 102.172 35.2376 102.335 35.5165C102.563 35.3079 102.799 35.1809 103.043 35.1353C103.287 35.0735 103.539 35.0443 103.8 35.0478C104.06 35.035 104.312 35.014 104.557 34.9847C104.817 34.9557 105.069 34.8532 105.313 34.6775ZM95.9391 34.9669C95.9392 34.7228 95.98 34.4629 96.0616 34.1873C96.1431 33.9117 96.2084 33.644 96.2574 33.3843C96.3063 33.1082 96.2984 32.8477 96.2334 32.6027C96.1847 32.3579 96.0302 32.1361 95.77 31.9373C95.5909 32.0325 95.4443 32.1689 95.3303 32.3464C95.2163 32.5077 95.1023 32.677 94.9882 32.8546C94.8742 33.0158 94.7358 33.1523 94.573 33.264C94.4264 33.376 94.2311 33.4059 93.987 33.3538C93.9056 33.5481 93.9055 33.7108 93.9868 33.8421C94.0681 33.9571 94.1656 34.0724 94.2795 34.1878C94.3934 34.287 94.4991 34.3942 94.5967 34.5095C94.7105 34.6249 94.7511 34.772 94.7185 34.9506C94.7835 35.0003 94.873 35.0503 94.9869 35.1007C95.1008 35.1347 95.2147 35.1607 95.3286 35.1785C95.4588 35.1802 95.5809 35.1656 95.6948 35.1346C95.8088 35.1035 95.8902 35.0476 95.9391 34.9669ZM95.767 36.9178C95.4415 36.9134 95.1568 36.8363 94.9127 36.6866C94.685 36.5208 94.4491 36.3386 94.2051 36.14C93.9774 35.9416 93.7334 35.7593 93.4731 35.5931C93.2291 35.4108 92.928 35.3009 92.57 35.2636C92.4234 35.4569 92.2524 35.6418 92.057 35.8182C91.8616 35.9784 91.6907 36.1551 91.5441 36.3485C91.3975 36.5418 91.2916 36.752 91.2263 36.979C91.1774 37.2062 91.2179 37.4672 91.3479 37.7619C90.9735 37.9359 90.7211 38.1929 90.5907 38.533C90.4603 38.8568 90.3706 39.2136 90.3215 39.6036C90.2888 39.9938 90.256 40.384 90.2232 40.7742C90.1904 41.1644 90.0844 41.5129 89.9052 41.8197L90.4425 41.4607C90.5076 41.4941 90.5564 41.5436 90.5889 41.6092C90.6377 41.6749 90.6458 41.7483 90.6132 41.8292C90.7434 41.7008 90.89 41.6051 91.0528 41.5421C91.2156 41.4629 91.3783 41.4082 91.5411 41.3778C91.7201 41.3313 91.8911 41.2929 92.0538 41.2626C92.2329 41.2324 92.4038 41.1859 92.5666 41.123C92.9733 41.3563 93.2662 41.409 93.4453 41.2812C93.6244 41.1534 93.771 40.9601 93.8851 40.7012C93.9991 40.4423 94.1213 40.1754 94.2517 39.9004C94.3821 39.6092 94.5938 39.433 94.8867 39.3718L94.716 39.1986C94.9928 38.8605 95.2371 38.5139 95.4489 38.1586C95.677 37.7873 95.783 37.3737 95.767 36.9178ZM99.7272 27.7178C99.5157 27.5685 99.3205 27.3868 99.1416 27.1729C98.9628 26.9426 98.8164 26.7046 98.7026 26.459C98.5889 26.2133 98.5076 25.9599 98.459 25.6989C98.4103 25.4378 98.4105 25.1936 98.4594 24.9664C98.3131 24.7041 98.2156 24.4423 98.1669 24.1813C98.1343 24.2785 98.118 24.3596 98.118 24.4247C97.89 24.6658 97.6702 24.8501 97.4585 24.9774C97.2631 25.0888 97.1003 25.2982 96.9699 25.6057C96.9373 25.6866 96.8884 25.7673 96.8233 25.8478C96.7744 25.9123 96.693 25.9438 96.5791 25.9422C96.5302 26.0392 96.4244 26.1517 96.2615 26.2798C96.115 26.3917 95.9685 26.5118 95.8219 26.6401C95.6917 26.7523 95.5858 26.8729 95.5043 27.0021C95.4392 27.1151 95.4473 27.221 95.5286 27.3198L94.6007 27.6003L94.6739 27.7966C94.5274 27.8597 94.389 27.8823 94.2588 27.8643C94.1449 27.8302 94.0229 27.8042 93.8927 27.7861C93.8765 27.558 93.9011 27.3224 93.9663 27.0791C94.0479 26.8198 94.1538 26.5771 94.2841 26.3509C94.4307 26.125 94.6017 25.9157 94.7972 25.723C94.9926 25.5303 95.2042 25.3704 95.4322 25.2433C95.6277 24.8715 95.9127 24.5335 96.2872 24.2293C96.6617 23.9251 97.0117 23.6368 97.3374 23.3645L97.9236 22.7864C98.0539 22.6579 98.1923 22.5947 98.3388 22.5966C98.5015 22.5825 98.6561 22.609 98.8025 22.6761C98.9327 22.6453 99.0467 22.6387 99.1443 22.6563C99.2582 22.6578 99.3477 22.6834 99.4128 22.7331C99.4453 22.88 99.4615 23.0186 99.4614 23.1488C99.4776 23.2629 99.4857 23.377 99.4856 23.4909C99.5018 23.6051 99.5261 23.7275 99.5586 23.8581C99.5911 23.9887 99.6561 24.128 99.7537 24.2758C99.8024 24.3415 99.8431 24.4234 99.8756 24.5215C99.9081 24.6033 99.8836 24.6763 99.8022 24.7403C99.851 24.8386 99.8753 24.9773 99.8752 25.1563C99.8914 25.3356 99.9075 25.5148 99.9237 25.6941C99.9562 25.8573 99.9968 26.0124 100.045 26.1596C100.111 26.2906 100.216 26.3653 100.363 26.3835L99.9961 27.1599L100.24 27.2608C100.191 27.3904 100.118 27.4789 100.02 27.5264C99.9226 27.5739 99.8249 27.6377 99.7272 27.7178ZM122.972 24.9286C122.744 25.1697 122.492 25.2965 122.215 25.3091C121.938 25.3054 121.662 25.2773 121.385 25.2247C121.125 25.1724 120.864 25.1527 120.604 25.1654C120.36 25.1622 120.148 25.2896 119.969 25.5476C119.709 25.479 119.44 25.4672 119.163 25.5124C118.887 25.5412 118.602 25.5944 118.309 25.6718C118.016 25.733 117.723 25.7942 117.43 25.8554C117.137 25.9165 116.844 25.937 116.551 25.9168L116.136 25.4962C116.022 25.6737 115.86 25.7855 115.648 25.8315C115.453 25.8614 115.257 25.81 115.062 25.6771C114.72 25.9004 114.378 26.0016 114.037 25.9808C113.695 25.9599 113.361 25.9473 113.036 25.943C112.71 25.9223 112.401 25.9833 112.108 26.1259C111.831 26.2524 111.595 26.5829 111.399 27.1173C111.253 27.4897 111.114 27.8704 110.984 28.2592C110.853 28.6319 110.723 29.0045 110.593 29.3771C110.234 30.3488 109.867 31.3123 109.492 32.2676C109.134 33.2068 108.726 34.1373 108.27 35.0589C108.237 35.7909 108.253 36.5316 108.318 37.2812C108.382 38.0308 108.455 38.7723 108.536 39.5058C108.471 39.7003 108.446 39.9034 108.462 40.1152C108.495 40.3272 108.552 40.5396 108.633 40.7523C108.714 40.9649 108.812 41.1697 108.925 41.3665C109.039 41.5471 109.161 41.7115 109.291 41.8597L109.731 41.4506L110.341 42.3132C110.504 42.1038 110.691 41.8866 110.903 41.6616C111.131 41.4205 111.367 41.2039 111.611 41.0119C111.855 40.8036 112.108 40.6361 112.368 40.5093C112.645 40.3666 112.922 40.2726 113.198 40.2275C113.312 40.1151 113.418 39.9944 113.516 39.8655C113.614 39.7366 113.719 39.6322 113.833 39.5524C113.947 39.4563 114.069 39.3928 114.2 39.362C114.346 39.3151 114.517 39.3255 114.712 39.3933C115.233 39.1073 115.697 38.7473 116.104 38.3133C116.512 37.863 116.919 37.4209 117.326 36.9869C117.733 36.5366 118.156 36.1272 118.596 35.7587C119.052 35.3905 119.581 35.1372 120.183 34.9988C119.792 35.9375 119.295 36.8505 118.692 37.7376C118.09 38.6084 117.414 39.3888 116.665 40.0786C116.469 40.3039 116.225 40.504 115.932 40.6792C115.802 40.7588 115.663 40.8465 115.517 40.9421C115.37 41.0216 115.232 41.1011 115.102 41.1807C114.662 41.4678 114.239 41.7795 113.832 42.1159C113.425 42.4359 113.034 42.7969 112.659 43.1988C112.611 43.1005 112.546 43.0345 112.464 43.0009C112.383 42.9672 112.285 42.9496 112.171 42.9481C112.074 42.9468 111.968 42.9535 111.854 42.9683C111.756 42.9833 111.667 42.9821 111.585 42.9647C111.276 43.1884 110.869 43.362 110.364 43.4854C109.876 43.6254 109.437 43.6521 109.046 43.5654C108.932 43.5314 108.778 43.4642 108.582 43.3639C108.387 43.2799 108.241 43.2047 108.143 43.1383C107.509 42.7066 107.029 42.1794 106.704 41.5565C106.395 40.9176 106.224 40.2236 106.192 39.4744L105.997 39.2765C106.209 39.084 106.339 38.8905 106.388 38.6958C106.453 38.5014 106.47 38.3063 106.437 38.1105C106.421 37.8987 106.381 37.6866 106.316 37.4741C106.267 37.2456 106.235 37.0173 106.218 36.7892C106.202 36.6425 106.202 36.5204 106.219 36.423C106.251 36.3258 106.284 36.2123 106.316 36.0825C106.447 35.5634 106.569 35.0605 106.684 34.5738C106.798 34.0707 106.92 33.5678 107.051 33.065C107.377 31.8324 107.752 30.6167 108.176 29.4179C108.616 28.2031 109.072 27.0048 109.545 25.823C109.285 25.7218 109.024 25.6614 108.764 25.6416C108.503 25.6056 108.235 25.5857 107.958 25.582C107.698 25.5785 107.429 25.5667 107.153 25.5468C106.892 25.527 106.632 25.4665 106.372 25.3654C106.258 25.315 106.201 25.2899 106.201 25.2899C106.201 25.2736 106.136 25.2646 106.005 25.2628C105.924 25.2618 105.81 25.2765 105.664 25.3071C105.517 25.3214 105.371 25.3276 105.224 25.3256C105.078 25.3237 104.948 25.3056 104.834 25.2716C104.704 25.2373 104.63 25.163 104.614 25.0489L104.614 24.8047C104.631 24.5445 104.688 24.3744 104.785 24.2943C104.883 24.198 105.005 24.1427 105.152 24.1283C105.298 24.0978 105.461 24.0837 105.64 24.0861C105.819 24.0722 105.99 24.0175 106.153 23.922C106.608 24.0258 107.04 24.1048 107.446 24.1591C107.853 24.1971 108.244 24.1942 108.618 24.1504C109.009 24.1068 109.383 24.006 109.741 23.848C110.116 23.6903 110.482 23.4511 110.84 23.1303C111.101 22.6293 111.297 22.0948 111.427 21.5269C111.558 20.9427 111.705 20.375 111.868 19.8238C112.047 19.2565 112.275 18.7387 112.552 18.2704C112.829 17.7858 113.252 17.3846 113.822 17.0667C114.083 17.0377 114.31 17.0733 114.506 17.1735C114.701 17.2738 114.896 17.3822 115.091 17.4988C115.01 17.7255 114.945 17.9607 114.896 18.2042C114.847 18.4476 114.79 18.691 114.724 18.9343C114.675 19.1778 114.61 19.4129 114.529 19.6397C114.447 19.8665 114.325 20.0764 114.162 20.2695C114.374 20.3538 114.496 20.453 114.528 20.5674C114.561 20.6818 114.544 20.8036 114.479 20.933C114.414 21.0623 114.332 21.1996 114.235 21.3447C114.137 21.4899 114.08 21.6194 114.064 21.7331C113.885 21.747 113.73 21.8588 113.6 22.0687C113.485 22.2787 113.363 22.4398 113.233 22.552C113.103 22.827 113.127 23.0633 113.306 23.261C113.485 23.4587 113.647 23.6481 113.794 23.8291C113.94 23.8799 114.087 23.89 114.233 23.8594C114.38 23.8125 114.51 23.7654 114.624 23.7181C114.754 23.6711 114.876 23.6483 114.99 23.6498C115.104 23.6513 115.21 23.7178 115.307 23.8494C115.47 23.6725 115.633 23.6014 115.796 23.6362C115.958 23.6546 116.121 23.6975 116.284 23.7648C116.447 23.8158 116.609 23.8424 116.772 23.8446C116.935 23.8305 117.089 23.7023 117.236 23.4602C117.431 23.3651 117.61 23.3431 117.773 23.3941C117.952 23.4453 118.115 23.5126 118.261 23.596C118.408 23.663 118.546 23.7219 118.676 23.7724C118.823 23.8069 118.969 23.7763 119.116 23.6807C119.36 23.7165 119.628 23.7282 119.921 23.7159C120.231 23.7037 120.532 23.6752 120.825 23.6303C121.134 23.5856 121.435 23.5327 121.728 23.4715C122.037 23.3943 122.314 23.3329 122.558 23.2873C122.802 23.4371 122.948 23.5692 122.997 23.6838C123.046 23.7984 123.054 23.9125 123.021 24.026C123.005 24.1397 122.972 24.2694 122.924 24.4153C122.891 24.545 122.907 24.7162 122.972 24.9286ZM159.466 38.821C159.319 38.9492 159.116 39.1174 158.855 39.3255C158.611 39.5175 158.448 39.6944 158.367 39.856C158.269 40.0175 158.187 40.1629 158.122 40.2922C158.073 40.4218 158.008 40.5348 157.927 40.6314C157.862 40.7119 157.764 40.7757 157.634 40.8228C157.52 40.8701 157.357 40.8923 157.145 40.8895C157.145 40.9383 157.056 41.0429 156.877 41.2033C156.714 41.3476 156.535 41.5079 156.339 41.6844C156.144 41.8445 155.965 42.0049 155.802 42.1655C155.639 42.3098 155.558 42.4063 155.558 42.4552L155.338 42.3301C155.306 42.3134 155.208 42.3203 155.045 42.3506C154.899 42.3649 154.72 42.4114 154.508 42.4899C154.313 42.5524 154.117 42.6474 153.922 42.775C153.727 42.9026 153.572 43.0715 153.458 43.2815L153.36 43.2558C153.116 43.1874 152.864 43.1678 152.603 43.1968C152.359 43.2424 152.115 43.2635 151.871 43.2603C151.35 43.2858 150.968 43.1993 150.724 43.0007C150.48 42.8184 150.22 42.465 149.943 41.9405C149.878 41.8257 149.821 41.7028 149.773 41.572C149.724 41.4411 149.683 41.3104 149.651 41.1797L149.651 41.0821C149.879 40.9549 150.001 40.7856 150.017 40.5743C150.034 40.3466 150.026 40.1105 149.993 39.8659C149.961 39.6214 149.937 39.385 149.92 39.1569C149.921 38.9291 150.01 38.7431 150.189 38.599C150.092 38.3373 150.1 38.0933 150.214 37.8669C150.344 37.6245 150.467 37.3983 150.581 37.1882C150.695 36.9782 150.752 36.7755 150.752 36.5802C150.752 36.3849 150.573 36.179 150.215 35.9626C149.841 36.1041 149.483 36.2865 149.141 36.5098C148.815 36.717 148.481 36.9404 148.14 37.1799C147.814 37.4035 147.48 37.6268 147.138 37.8501C146.813 38.0736 146.463 38.2561 146.088 38.3976C145.746 38.7674 145.388 39.0881 145.014 39.3598C144.639 39.6152 144.273 39.887 143.914 40.1751C143.573 40.4635 143.255 40.7929 142.962 41.1633C142.685 41.5177 142.473 41.9625 142.326 42.4976C142.245 42.3989 142.164 42.3327 142.082 42.299C142.001 42.2654 141.895 42.2314 141.765 42.1971C141.586 42.1459 141.456 42.0953 141.375 42.0454C141.293 41.9792 141.187 41.8883 141.057 41.7726L141.082 41.7241C141.228 41.3029 141.4 40.8739 141.595 40.437C141.791 40.0002 141.889 39.562 141.889 39.1226C141.889 38.9598 141.873 38.8131 141.84 38.6825C141.808 38.5356 141.792 38.3807 141.792 38.218C141.792 37.925 141.841 37.6571 141.939 37.4143C142.037 37.1714 142.142 36.945 142.256 36.7349C142.387 36.5251 142.501 36.3231 142.599 36.1291C142.713 35.9191 142.77 35.7001 142.77 35.4723C142.77 35.2932 142.729 35.1136 142.648 34.9335C142.567 34.7534 142.461 34.5973 142.331 34.4654C142.087 34.4458 141.859 34.4753 141.647 34.5539C141.436 34.6162 141.224 34.6947 141.013 34.7895C140.801 34.8843 140.581 34.9709 140.353 35.0493C140.125 35.1113 139.881 35.1324 139.621 35.1127C139.279 35.4499 138.929 35.787 138.571 36.124C138.212 36.4447 137.854 36.7655 137.496 37.0862C136.747 37.7435 136.014 38.4254 135.298 39.1319C134.597 39.8387 134.035 40.645 133.612 41.5508C133.53 41.7287 133.457 41.9149 133.392 42.1094C133.343 42.2877 133.278 42.4659 133.196 42.6439C133.196 42.6764 133.18 42.7087 133.147 42.7409L133.025 42.7392C132.846 42.7368 132.724 42.784 132.659 42.8808C132.61 42.9778 132.569 43.083 132.537 43.1965C132.52 43.3265 132.496 43.4483 132.463 43.5618C132.431 43.6753 132.357 43.7475 132.243 43.7786C132.113 43.8094 131.991 43.7833 131.877 43.7004C131.747 43.6173 131.641 43.5345 131.56 43.452L131.536 43.4273C131.373 43.1647 131.284 42.8949 131.268 42.618C131.251 42.3411 131.284 42.073 131.366 41.8137C131.431 41.5378 131.537 41.2707 131.684 41.0122C131.814 40.7536 131.944 40.5112 132.075 40.2851C132.27 39.9459 132.449 39.5983 132.612 39.2424C132.791 38.8705 132.881 38.4811 132.881 38.0742C132.882 37.8951 132.857 37.7402 132.809 37.6093C132.776 37.4624 132.744 37.3155 132.711 37.1686L133.248 36.8095C133.167 36.6945 133.118 36.5962 133.102 36.5146C133.102 36.417 133.102 36.3274 133.102 36.2461C133.119 36.1649 133.127 36.0918 133.127 36.0267C133.143 35.9455 133.135 35.864 133.103 35.7822L133.103 35.709L133.298 35.4918C133.266 34.9543 133.25 34.4495 133.25 33.9775C133.25 33.5055 133.153 33.0078 132.958 32.4843C133.186 32.2758 133.406 32.2299 133.617 32.3467C133.829 32.4472 134.04 32.5639 134.252 32.697L134.252 32.7214L134.276 32.7461C134.406 32.9432 134.52 33.1807 134.617 33.4587C134.715 33.7367 134.788 34.0307 134.837 34.3406C134.902 34.6344 134.95 34.928 134.983 35.2214C135.015 35.5148 135.031 35.7755 135.031 36.0033C135.031 36.0684 135.023 36.1334 135.006 36.1983C135.006 36.2472 135.006 36.3041 135.006 36.3692L134.86 36.5137C134.941 36.5962 135.031 36.6788 135.128 36.7615C135.226 36.8442 135.332 36.8781 135.445 36.8634C135.543 36.5717 135.698 36.3866 135.91 36.3081C136.121 36.2133 136.333 36.1429 136.544 36.0969C136.772 36.0511 136.968 35.9886 137.13 35.9094C137.31 35.8141 137.399 35.62 137.399 35.3271C137.399 35.262 137.391 35.213 137.375 35.1802L137.424 35.1321C137.88 34.6825 138.344 34.2818 138.816 33.93C139.305 33.5622 139.809 33.2923 140.33 33.1202C140.867 32.9484 141.421 32.8825 141.99 32.9227C142.576 32.9631 143.203 33.1506 143.87 33.485L143.918 33.5101L144.186 34.5147L144.015 34.6833C144.178 34.9133 144.235 35.1826 144.186 35.4912C144.153 35.7838 144.088 36.0759 143.99 36.3675C143.892 36.6592 143.802 36.9347 143.721 37.194C143.639 37.437 143.647 37.6162 143.745 37.7314C143.826 37.8465 143.973 37.8972 144.184 37.8838C144.412 37.8706 144.591 37.8567 144.721 37.8422C144.852 37.6649 145.031 37.5127 145.259 37.3855C145.503 37.2586 145.739 37.1396 145.967 37.0288C146.211 36.9181 146.423 36.807 146.602 36.6955C146.781 36.5677 146.879 36.4306 146.895 36.2844C147.155 36.3367 147.367 36.3314 147.53 36.2684C147.693 36.1893 147.823 36.0771 147.921 35.9319C148.018 35.7867 148.108 35.6333 148.189 35.4716C148.271 35.2937 148.36 35.1321 148.458 34.9869C148.572 34.8257 148.711 34.7055 148.873 34.6263C149.036 34.5471 149.256 34.5256 149.533 34.5619C149.907 34.1925 150.347 33.9299 150.851 33.7739C151.372 33.6018 151.893 33.5111 152.414 33.5018C152.788 33.4906 153.048 33.608 153.195 33.8541C153.341 34.0839 153.414 34.3616 153.414 34.6871C153.414 35.1103 153.316 35.5159 153.12 35.9039C152.925 36.2919 152.705 36.6877 152.461 37.0914C152.216 37.495 151.996 37.9152 151.801 38.3521C151.605 38.7889 151.507 39.2759 151.507 39.813C151.507 39.8618 151.507 39.9513 151.507 40.0815C151.507 40.1955 151.515 40.3176 151.531 40.4481C151.547 40.5622 151.563 40.6764 151.58 40.7905C151.612 40.8886 151.653 40.9543 151.701 40.9875C151.767 41.0209 151.823 41.0461 151.872 41.063L151.75 41.159C152.124 41.2129 152.458 41.2906 152.751 41.3921C153.044 41.4775 153.361 41.4492 153.703 41.3072C153.801 41.276 153.898 41.2529 153.996 41.2379C154.11 41.2232 154.216 41.2002 154.313 41.1689C154.46 41.1546 154.549 41.0989 154.582 41.0016C154.615 40.8881 154.672 40.7831 154.753 40.6865C154.851 40.5739 154.997 40.4782 155.193 40.3995C155.404 40.3046 155.746 40.2604 156.218 40.2667L156.218 39.8761C156.544 39.7828 156.821 39.6644 157.049 39.521C157.276 39.3613 157.496 39.2178 157.708 39.0904C157.936 38.9632 158.18 38.8688 158.44 38.8072C158.717 38.7458 159.059 38.7504 159.466 38.821ZM177.902 35.65C177.967 35.895 177.942 36.1062 177.828 36.2837C177.714 36.445 177.559 36.5894 177.364 36.717C177.185 36.8448 176.981 36.9641 176.753 37.075C176.542 37.1698 176.363 37.2814 176.216 37.4096C175.484 37.5626 174.816 37.6757 174.214 37.749C173.628 37.8063 172.977 37.8871 172.261 37.9914C172.05 38.0211 171.846 38.0184 171.651 37.9832C171.472 37.932 171.285 37.9132 171.089 37.9269C170.975 37.9253 170.87 37.9239 170.772 37.9226C170.674 37.905 170.577 37.9037 170.479 37.9187C170.105 37.9462 169.861 38.0732 169.746 38.2995C169.632 38.5096 169.535 38.7605 169.453 39.0524C169.388 39.3282 169.298 39.5956 169.184 39.8545C169.086 40.0973 168.866 40.2653 168.525 40.3583C168.492 40.4393 168.5 40.5126 168.549 40.5784C168.614 40.6444 168.663 40.702 168.695 40.7513C168.419 40.8289 168.231 40.9729 168.134 41.1832C168.052 41.3937 167.979 41.6043 167.913 41.815C167.848 42.0257 167.751 42.2035 167.62 42.3482C167.506 42.4932 167.278 42.5389 166.937 42.4855C166.432 43.0159 165.838 43.4392 165.154 43.7556C164.47 44.0882 163.762 44.2985 163.03 44.3863C162.899 44.3195 162.769 44.2363 162.639 44.1369C162.525 44.0378 162.403 43.9466 162.273 43.8635C162.159 43.7806 162.029 43.7137 161.883 43.6629C161.752 43.6286 161.598 43.6266 161.419 43.6567C161.403 43.3147 161.338 42.9965 161.224 42.702C161.094 42.4073 160.931 42.1284 160.736 41.8653C160.704 41.5719 160.745 41.3039 160.859 41.0613C160.957 40.8022 161.063 40.5513 161.177 40.3087C161.291 40.0661 161.389 39.8233 161.47 39.5802C161.535 39.3207 161.519 39.0275 161.422 38.7007C161.585 38.6052 161.69 38.4927 161.739 38.3631C161.804 38.2338 161.845 38.1041 161.862 37.9741C161.894 37.8281 161.935 37.6984 161.984 37.5851C162.033 37.4556 162.147 37.3513 162.326 37.2723C162.196 36.88 162.212 36.5954 162.375 36.4185C162.554 36.2256 162.766 36.0575 163.01 35.9143C163.254 35.7711 163.482 35.6114 163.694 35.4352C163.906 35.259 163.987 34.9915 163.939 34.6328C164.036 34.5365 164.15 34.4566 164.28 34.3932C164.411 34.3299 164.533 34.2745 164.647 34.2272C164.777 34.1639 164.899 34.1004 165.013 34.0368C165.127 33.9733 165.233 33.8852 165.331 33.7725C165.217 33.6896 165.16 33.6075 165.16 33.5261C165.176 33.4449 165.201 33.3639 165.233 33.2829C165.266 33.1857 165.298 33.0885 165.331 32.9913C165.38 32.8943 165.38 32.7966 165.331 32.6983C165.771 32.7693 166.153 32.7175 166.479 32.5428C166.821 32.3521 167.138 32.161 167.431 31.9696C167.74 31.7784 168.05 31.6442 168.359 31.567C168.668 31.4898 169.026 31.5922 169.433 31.8744C169.465 31.9887 169.514 32.1603 169.579 32.389C169.66 32.6017 169.733 32.8224 169.798 33.0511C169.88 33.2801 169.953 33.5008 170.018 33.7133C170.083 33.9257 170.123 34.0809 170.14 34.1788C170.139 34.2601 170.139 34.3903 170.139 34.5694C170.139 34.7484 170.139 34.9437 170.139 35.1553C170.139 35.3506 170.139 35.5378 170.139 35.7168C170.138 35.8959 170.138 36.0342 170.138 36.1319C170.61 36.4149 171.082 36.5921 171.554 36.6635C172.026 36.7187 172.498 36.6111 172.97 36.3407C173.149 36.5059 173.32 36.557 173.483 36.4941C173.645 36.4149 173.8 36.3274 173.947 36.2317C174.109 36.1363 174.272 36.0896 174.435 36.0918C174.598 36.0777 174.76 36.2101 174.923 36.489C175.151 36.2804 175.387 36.1534 175.631 36.1078C175.875 36.046 176.128 36.0168 176.388 36.0203C176.648 36.0075 176.901 35.9865 177.145 35.9572C177.405 35.9281 177.657 35.8257 177.902 35.65ZM168.527 35.9394C168.527 35.6953 168.568 35.4354 168.65 35.1598C168.731 34.8842 168.797 34.6165 168.846 34.3567C168.895 34.0807 168.887 33.8202 168.822 33.5752C168.773 33.3304 168.618 33.1086 168.358 32.9098C168.179 33.005 168.033 33.1414 167.919 33.3189C167.805 33.4802 167.69 33.6495 167.576 33.827C167.462 33.9883 167.324 34.1248 167.161 34.2365C167.015 34.3485 166.819 34.3784 166.575 34.3263C166.494 34.5205 166.494 34.6833 166.575 34.8146C166.656 34.9296 166.754 35.0449 166.868 35.1603C166.982 35.2595 167.087 35.3667 167.185 35.482C167.299 35.5974 167.339 35.7444 167.307 35.923C167.372 35.9727 167.461 36.0228 167.575 36.0731C167.689 36.1072 167.803 36.1331 167.917 36.151C168.047 36.1527 168.169 36.1381 168.283 36.107C168.397 36.076 168.478 36.0201 168.527 35.9394ZM168.355 37.8902C168.03 37.8859 167.745 37.8088 167.501 37.6591C167.273 37.4933 167.037 37.3111 166.793 37.1125C166.566 36.9141 166.322 36.7318 166.061 36.5655C165.817 36.3832 165.516 36.2734 165.158 36.2361C165.012 36.4294 164.841 36.6143 164.645 36.7907C164.45 36.9509 164.279 37.1276 164.132 37.321C163.986 37.5143 163.88 37.7245 163.815 37.9515C163.766 38.1787 163.806 38.4396 163.936 38.7344C163.562 38.9084 163.309 39.1654 163.179 39.5055C163.049 39.8292 162.959 40.1861 162.91 40.5761C162.877 40.9663 162.844 41.3565 162.811 41.7467C162.779 42.1368 162.673 42.4854 162.493 42.7922L163.031 42.4332C163.096 42.4666 163.145 42.5161 163.177 42.5816C163.226 42.6474 163.234 42.7208 163.201 42.8017C163.332 42.6732 163.478 42.5775 163.641 42.5146C163.804 42.4354 163.967 42.3806 164.129 42.3503C164.308 42.3038 164.479 42.2654 164.642 42.2351C164.821 42.2049 164.992 42.1584 165.155 42.0954C165.561 42.3288 165.854 42.3815 166.034 42.2537C166.213 42.1259 166.359 41.9325 166.473 41.6736C166.587 41.4148 166.71 41.1478 166.84 40.8729C166.97 40.5817 167.182 40.4055 167.475 40.3443L167.304 40.1711C167.581 39.833 167.825 39.4863 168.037 39.1311C168.265 38.7598 168.371 38.3462 168.355 37.8902ZM184.647 28.1719C184.354 28.2819 184.191 28.4506 184.158 28.6781C184.126 28.9055 184.109 29.1413 184.109 29.3854C184.125 29.6298 184.117 29.8575 184.084 30.0687C184.051 30.2798 183.889 30.416 183.596 30.4772C183.482 30.2803 183.336 30.0993 183.157 29.9342C182.994 29.753 182.831 29.5799 182.669 29.4149C182.506 29.2337 182.376 29.0448 182.278 28.8482C182.181 28.6516 182.148 28.4151 182.181 28.1389L183.403 26.7392C183.598 26.8069 183.752 26.8904 183.866 26.9896C183.98 27.0887 184.078 27.204 184.159 27.3353C184.24 27.4666 184.313 27.6059 184.378 27.7533C184.46 27.8846 184.549 28.0241 184.647 28.1719ZM189.376 39.1728C189.392 39.5311 189.36 39.783 189.278 39.9284C189.213 40.074 189.131 40.195 189.034 40.2913C188.936 40.3714 188.847 40.4678 188.765 40.5807C188.7 40.6775 188.667 40.8561 188.667 41.1165C188.293 41.5184 187.991 41.8154 187.763 42.0077C187.535 42.1837 187.316 42.3354 187.104 42.4627C186.892 42.5738 186.656 42.7009 186.396 42.8439C186.135 42.9869 185.777 43.2099 185.321 43.5131L185.15 43.5352C185.101 43.7787 185.012 43.9158 184.882 43.9466C184.768 43.994 184.629 44.0165 184.467 44.0143C184.32 44.0124 184.174 44.0267 184.027 44.0573C183.881 44.0879 183.758 44.2246 183.661 44.4674C183.384 44.5451 183.148 44.5745 182.953 44.5556C182.757 44.5367 182.505 44.5252 182.196 44.521C182.098 44.5197 181.968 44.5098 181.805 44.4914C181.659 44.4731 181.537 44.4796 181.439 44.5109C181.374 44.5263 181.301 44.566 181.219 44.63C181.154 44.7105 181.081 44.7746 181 44.8224C180.918 44.8701 180.837 44.8853 180.755 44.8679C180.674 44.8668 180.601 44.8008 180.536 44.6697C180.34 44.7159 180.161 44.7135 179.999 44.6625C179.836 44.6115 179.681 44.528 179.535 44.4121C179.389 44.2962 179.25 44.156 179.12 43.9915C179.006 43.8435 178.893 43.7037 178.779 43.5719C178.697 43.4732 178.608 43.3825 178.51 43.2998C178.413 43.2171 178.323 43.1345 178.242 43.052C178.063 42.8706 177.933 42.641 177.852 42.3632C177.771 42.0854 177.722 41.7999 177.706 41.5067C177.69 41.2136 177.698 40.9207 177.731 40.6282C177.764 40.3356 177.812 40.0759 177.878 39.8489C178.024 39.7044 178.13 39.543 178.195 39.3649C178.244 39.1702 178.285 38.9754 178.318 38.7805C178.367 38.5859 178.416 38.3994 178.465 38.221C178.53 38.0265 178.636 37.8571 178.782 37.7125C178.782 37.501 178.815 37.3061 178.88 37.1279C178.962 36.95 179.059 36.7804 179.173 36.6191C179.304 36.4581 179.442 36.3135 179.589 36.1853C179.752 36.0409 179.898 35.9046 180.028 35.7761C180.159 35.7778 180.289 35.7796 180.419 35.7813C180.549 35.7668 180.671 35.7766 180.785 35.8107C180.899 35.8285 180.997 35.8786 181.078 35.9611C181.159 36.0273 181.224 36.1421 181.273 36.3055C181.387 36.7465 181.354 37.1041 181.175 37.3784C181.012 37.6366 180.825 37.8864 180.613 38.1277C180.401 38.369 180.23 38.619 180.1 38.8777C179.969 39.1363 180.002 39.4704 180.197 39.88C180.018 39.8776 179.896 39.9247 179.831 40.0215C179.782 40.1185 179.741 40.2319 179.708 40.3617C179.692 40.4754 179.659 40.5889 179.61 40.7022C179.562 40.8155 179.464 40.8955 179.317 40.9424C179.415 41.0414 179.464 41.2129 179.464 41.4571C179.48 41.7014 179.504 41.9377 179.536 42.166C179.585 42.3783 179.658 42.5502 179.756 42.6817C179.87 42.8134 180.073 42.8243 180.366 42.7143C180.578 42.8961 180.83 42.9728 181.123 42.9441C181.432 42.9157 181.717 42.9114 181.977 42.9312C182.205 42.7877 182.4 42.7171 182.563 42.7193C182.726 42.7052 182.88 42.7235 183.027 42.7743C183.173 42.8088 183.328 42.8435 183.491 42.8782C183.653 42.9129 183.849 42.8911 184.077 42.8128C184.142 42.537 184.256 42.3758 184.419 42.3291C184.581 42.2825 184.744 42.2602 184.907 42.2624C185.07 42.2483 185.216 42.2177 185.346 42.1706C185.493 42.1238 185.591 41.9623 185.64 41.6863C185.77 41.5253 185.925 41.4378 186.104 41.4239C186.283 41.3938 186.462 41.3636 186.641 41.3335C186.836 41.3035 187.007 41.2407 187.154 41.145C187.316 41.0333 187.43 40.8232 187.496 40.5148C187.772 40.307 187.968 40.155 188.082 40.0588C188.212 39.9466 188.318 39.8585 188.399 39.7945C188.481 39.7305 188.587 39.6587 188.717 39.5791C188.847 39.4994 189.067 39.364 189.376 39.1728ZM213.365 22.2822C213.397 22.4616 213.389 22.6487 213.34 22.8434C213.307 23.0382 213.266 23.2412 213.218 23.4521C213.169 23.6467 213.12 23.8495 213.071 24.0605C213.038 24.2554 213.038 24.4588 213.07 24.6708L212.679 25.1783L212.85 25.3026C212.622 25.3973 212.468 25.5579 212.386 25.7847C212.321 26.0117 212.272 26.2471 212.239 26.4908C212.207 26.7345 212.149 26.9697 212.068 27.1965C212.003 27.4072 211.848 27.5597 211.604 27.6541C211.571 28.0443 211.473 28.4174 211.31 28.7733C211.147 29.1291 210.976 29.4849 210.797 29.8406C210.732 29.9374 210.658 30.0422 210.577 30.155C210.512 30.2518 210.463 30.3488 210.43 30.4461C210.365 30.6242 210.308 30.7862 210.259 30.932C210.227 31.0781 210.17 31.232 210.088 31.3936C210.007 31.5878 209.909 31.7737 209.795 31.9512C209.681 32.1125 209.575 32.2819 209.477 32.4597C209.445 32.5406 209.412 32.6297 209.379 32.7269C209.347 32.8241 209.306 32.9131 209.257 32.9938C209.11 33.2848 208.964 33.5677 208.817 33.8424C208.687 34.1011 208.605 34.4011 208.573 34.7425C208.345 34.9347 208.165 35.1602 208.035 35.4189C207.921 35.6778 207.807 35.9367 207.693 36.1956C207.595 36.4547 207.489 36.6974 207.375 36.9237C207.261 37.1338 207.106 37.3108 206.911 37.4546C206.781 37.3878 206.683 37.2969 206.618 37.1821C206.553 37.0511 206.504 36.9202 206.472 36.7896C206.456 36.6591 206.44 36.5206 206.423 36.3739C206.423 36.2274 206.407 36.0969 206.375 35.9826C206.603 35.8717 206.749 35.719 206.814 35.5246C206.88 35.3302 206.912 35.1271 206.912 34.9156C206.913 34.6877 206.913 34.468 206.913 34.2564C206.929 34.0287 206.986 33.826 207.084 33.6483C207.133 33.5676 207.182 33.5113 207.231 33.4794C207.279 33.4475 207.336 33.3994 207.402 33.3352C207.597 33.1588 207.752 32.9248 207.866 32.6334C207.996 32.3259 208.11 32.0019 208.208 31.6614C208.306 31.3046 208.396 30.9559 208.477 30.6152C208.575 30.2747 208.681 29.9832 208.795 29.7405L209.333 29.2106L209.162 29.0619C209.325 28.8362 209.455 28.6019 209.553 28.3591C209.651 28.1 209.748 27.849 209.846 27.6062C209.944 27.3633 210.066 27.129 210.213 26.9031C210.359 26.6772 210.555 26.4845 210.799 26.325C210.718 25.9658 210.702 25.6401 210.751 25.3478C210.816 25.0394 210.922 24.7478 211.069 24.4731C211.215 24.1984 211.386 23.9321 211.582 23.6743C211.794 23.4167 211.997 23.1509 212.193 22.8768C212.111 22.5502 212.177 22.2825 212.388 22.0738C212.486 22.0914 212.584 22.0845 212.681 22.0533C212.779 22.022 212.877 21.9989 212.974 21.984C213.072 21.969 213.153 21.9782 213.218 22.0117C213.283 22.0451 213.332 22.1353 213.365 22.2822ZM206.152 41.9123L206.274 42.036C206.176 42.1486 206.07 42.2692 205.956 42.3979C205.842 42.5266 205.712 42.6469 205.565 42.7589C205.435 42.8548 205.288 42.9342 205.126 42.9972C204.979 43.044 204.824 43.0419 204.662 42.9909C204.45 43.0207 204.255 42.9611 204.076 42.8122C203.913 42.6635 203.84 42.4835 203.857 42.2721C203.873 42.0608 203.93 41.8988 204.028 41.7861C204.142 41.6737 204.248 41.5449 204.345 41.3998L204.272 41.3011C204.272 41.1709 204.289 41.0816 204.321 41.0332C204.354 40.9848 204.386 40.9039 204.419 40.7904C204.468 40.5306 204.582 40.345 204.761 40.2335C204.956 40.1059 205.16 40.0516 205.371 40.0707C205.599 40.0738 205.803 40.1498 205.982 40.2986C206.161 40.4312 206.266 40.6198 206.299 40.8644C206.347 40.9464 206.355 41.0442 206.323 41.1577C206.307 41.2551 206.274 41.3442 206.225 41.425C206.274 41.4744 206.363 41.5326 206.493 41.5994L206.152 41.9123Z" fill="#6A18A4"/>
</svg>
