<svg width="109" height="109" viewBox="0 0 109 109" fill="none" xmlns="http://www.w3.org/2000/svg">
<g clip-path="url(#clip0_5756_3727)">
<path d="M61.2459 10.225C60.9769 10.7105 60.9669 10.9647 61.0482 11.5151C61.3751 12.1477 61.6922 12.2445 62.3463 12.5162C62.8312 12.6142 63.3168 12.6581 63.8092 12.7017C71.5763 13.5418 78.9894 18.2085 83.8494 24.2175C85.1904 25.9262 86.4162 27.6635 87.3589 29.6245C87.4314 29.7733 87.4314 29.7733 87.5055 29.9251C89.9893 35.1784 90.7119 41.0474 88.8016 46.5891C87.0692 51.3647 83.6485 54.992 79.0597 57.1545C76.9509 58.0773 74.7008 58.7026 72.5036 59.3793C72.4678 59.2908 72.4319 59.2023 72.395 59.1112C69.7077 52.5346 65.3649 46.7681 59.6 42.5627C59.4943 42.4842 59.3886 42.4057 59.2798 42.3248C57.6705 41.1323 56.0074 40.1058 54.2338 39.1763C53.8165 38.9571 53.4016 38.7336 52.9866 38.5101C49.2969 36.5498 45.5653 35.4139 41.413 36.6007C39.0519 37.4008 37.1007 38.8777 35.8992 41.0929C35.031 42.9881 34.7468 45.2697 35.3474 47.2908C35.3953 47.4649 35.4432 47.6389 35.4925 47.8183C37.1615 53.4288 41.6197 57.376 46.6091 60.1044C48.0886 60.8932 49.5992 61.5186 51.1866 62.0554C51.4686 62.1512 51.7491 62.2514 52.0294 62.3522C56.8902 64.0404 64.4076 65.7293 69.4451 64.0867C70.1683 70.9024 69.1552 77.5045 64.794 83.0428C62.4571 85.8589 59.7097 88.0931 56.4229 89.7103C56.2324 89.8069 56.2324 89.8069 56.038 89.9055C50.4649 92.5522 43.849 92.7728 38.0267 90.8613C35.9126 90.1044 33.8273 89.1584 31.9172 87.9729C31.3199 87.6063 31.2018 87.5358 30.5381 87.6717C29.9027 87.9487 29.6568 88.2627 29.2855 88.8421C29.1094 89.3418 29.1491 89.5231 29.3507 90.0155C31.384 93.284 37.863 95.1654 41.3838 96.0268C48.0823 97.5561 54.7771 96.3976 60.6089 92.8026C67.1916 88.5997 72.002 81.5532 73.6897 73.9545C74.3878 70.5501 74.3651 67.1589 73.7499 63.7431C73.9113 63.6932 74.0727 63.6433 74.239 63.592C78.118 62.3879 81.8761 61.1808 85.2027 58.7719C85.2936 58.7061 85.3844 58.6403 85.478 58.5725C87.6821 56.9543 89.4285 55.0594 90.8198 52.7001C90.8945 52.5877 90.9692 52.4752 91.0461 52.3593C94.096 47.7437 94.3119 41.0544 93.3609 35.7895C93.0978 34.5754 92.7154 33.4015 92.325 32.2232C92.2821 32.093 92.2393 31.9628 92.1951 31.8286C91.5441 29.8603 90.8547 27.9655 89.7717 26.1876C89.6921 26.057 89.6125 25.9263 89.5305 25.7917C85.3676 19.0631 79.3542 13.7669 71.8099 11.1971C71.6048 11.1269 71.3997 11.0567 71.1884 10.9843C68.7405 10.1999 66.2461 9.78457 63.6758 9.75285C63.5185 9.75045 63.3613 9.74806 63.1993 9.7456C61.8234 9.75252 61.8234 9.75252 61.2459 10.225ZM53.8751 43.8209C54.3669 44.1624 54.854 44.5099 55.3389 44.8611C55.6037 45.0513 55.873 45.2354 56.1431 45.418C60.8076 48.6094 66.6825 54.2752 68.2509 59.8826C62.1806 60.6084 55.456 59.2089 49.9414 56.6811C49.5031 56.4815 49.0613 56.2974 48.6155 56.1155C47.9526 55.8326 47.3429 55.5033 46.7309 55.1234C46.3994 54.9178 46.0638 54.719 45.7264 54.5234C43.0637 52.9651 40.766 51.0179 39.9079 47.941C39.363 45.7142 39.4221 43.1821 40.593 41.1635C43.4615 37.5593 50.99 41.8696 53.8751 43.8209Z" fill="#6A18A4"/>
<path d="M22.6738 84.5812C22.4765 84.6403 22.2791 84.6994 22.0757 84.7603C20.3145 85.3219 20.3145 85.3219 19.7943 86.282C19.5171 87.2729 19.9964 88.1964 20.3101 89.1504C20.3466 89.2628 20.3832 89.3752 20.4209 89.491C23.4775 98.8058 23.4775 98.8058 26.5002 100.515C27.2905 100.71 27.876 100.686 28.6259 100.363C29.0763 99.8953 29.1963 99.6051 29.2857 98.9662C29.1444 97.6936 28.6444 96.7307 27.9394 95.684C26.4285 93.3441 25.4013 90.7191 24.297 88.1706C28.6295 86.691 28.6295 86.691 33.0679 85.5867C35.3884 85.0992 35.3884 85.0992 35.9648 84.3329C36.1205 83.7765 36.1957 83.4834 36.0171 82.9356C35.7407 82.562 35.7407 82.562 35.2777 82.2933C34.1762 82.1766 33.0612 82.3297 31.9699 82.4775C31.8149 82.498 31.6598 82.5186 31.5001 82.5397C30.1419 82.725 28.8023 82.9582 27.4631 83.2514C27.2815 83.2908 27.0998 83.3302 26.9127 83.3708C25.4817 83.7087 24.0772 84.1443 22.6738 84.5812Z" fill="#6A18A4"/>
</g>
<defs>
<clipPath id="clip0_5756_3727">
<rect width="86" height="86" fill="white" transform="matrix(-0.950734 0.310009 0.310009 0.950734 81.7631 0)"/>
</clipPath>
</defs>
</svg>
