<svg width="79" height="79" viewBox="0 0 79 79" fill="none" xmlns="http://www.w3.org/2000/svg">
<path d="M50.764 62.4902C51.09 61.9629 51.161 61.5662 51.0726 60.9472C50.7634 60.5308 50.7634 60.5308 50.3011 60.1758C49.8318 60.1391 49.4682 60.1432 49.0088 60.195C48.8849 60.2054 48.761 60.2157 48.6334 60.2263C48.2631 60.2575 47.8935 60.2934 47.5237 60.3301C42.8347 60.7318 37.9592 60.731 33.637 58.6328C33.5472 58.5893 33.4574 58.5457 33.3649 58.5009C31.953 57.807 30.6935 57.0072 29.471 56.0097C29.3837 55.9389 29.2963 55.868 29.2063 55.795C22.9563 50.6933 20.1867 43.0179 19.3507 35.1682C19.2481 33.9369 19.2497 32.7017 19.2488 31.4669C19.2487 31.3375 19.2486 31.2082 19.2485 31.0749C19.2562 25.0462 20.4682 18.845 22.9809 13.337C23.3393 12.4911 23.5036 11.7101 23.2991 10.8008C22.9293 10.1397 22.4583 9.6994 21.7562 9.41208C21.1345 9.36274 20.701 9.34807 20.1168 9.55674C16.7097 12.5155 15.3893 19.8606 14.6585 24.0703C14.6315 24.216 14.6045 24.3617 14.5767 24.5118C13.7516 29.1094 13.7544 34.4531 14.6585 39.0371C14.6892 39.1995 14.7198 39.3618 14.7514 39.5291C16.0652 46.352 18.8148 52.3556 23.6077 57.3984C23.697 57.4959 23.7863 57.5933 23.8783 57.6937C27.3224 61.3363 32.4325 63.7464 37.3401 64.4961C37.5196 64.5243 37.699 64.5526 37.8838 64.5817C41.6868 65.0374 47.5448 64.9308 50.764 62.4902Z" fill="#6A18A4"/>
<path d="M46.9352 69.6458C49.6769 69.5667 52.5596 68.0767 54.9297 66.8105C55.0323 66.7558 55.135 66.7011 55.2408 66.6447C56.6787 65.8717 58.0487 65.0213 59.3941 64.0975C59.7453 63.8567 60.0976 63.6176 60.45 63.3786C64.6835 60.5029 64.6835 60.5029 64.8795 59.7242C64.9429 59.1375 64.8962 58.7689 64.5628 58.2731C64.216 57.8898 63.8534 57.5373 63.4739 57.1863C63.3403 57.0581 63.2067 56.9299 63.0691 56.7979C62.0808 55.8619 61.056 54.9939 59.9598 54.1882C59.715 54.0054 59.4761 53.8148 59.2373 53.6242C55.0958 50.3214 55.0958 50.3214 53.2999 50.0693C52.7695 50.1465 52.7695 50.1465 52.3163 50.4454C51.9447 50.9971 51.8835 51.3143 51.9245 51.9673C52.0458 52.5268 52.3598 52.861 52.7695 53.2324C52.8503 53.3088 52.931 53.3852 53.0142 53.4639C53.3366 53.7567 53.6684 54.0349 54.0039 54.3125C54.1227 54.411 54.1227 54.411 54.2439 54.5115C55.6615 55.6813 57.132 56.7568 58.6409 57.8053C59.3142 58.2766 59.9762 58.7636 60.6387 59.25C60.0538 59.9 59.3472 60.3658 58.6328 60.8605C58.4968 60.955 58.3608 61.0495 58.2207 61.1469C56.0948 62.6164 53.9468 64.0356 51.6715 65.2642C51.3816 65.4215 51.0937 65.582 50.8059 65.7431C49.6674 66.3733 48.5203 66.9084 47.299 67.3609C46.6997 67.5914 46.277 67.765 45.9805 68.3535C46.0271 69.1307 46.0993 69.5474 46.9352 69.6458Z" fill="#6A18A4"/>
</svg>
