<svg width="25" height="25" viewBox="0 0 25 25" fill="none" xmlns="http://www.w3.org/2000/svg">
<path d="M8.78919 1.51367C9.61034 1.57431 10.4284 2.51698 11.0072 3.0571C11.1165 3.15853 11.2274 3.25679 11.3405 3.35388C11.8591 3.80564 12.1717 4.14596 12.2667 4.83932C12.2851 4.95594 12.3037 5.07255 12.3224 5.18913C12.3506 5.37145 12.378 5.55378 12.4035 5.73649C12.4886 6.56758 12.4886 6.56758 12.9573 7.21397C13.0632 7.28759 13.1713 7.35438 13.2814 7.42187C13.3517 7.48309 13.4204 7.54633 13.4864 7.61223C13.5149 7.64027 13.5434 7.6683 13.5728 7.69719C14.7857 8.92235 15.4426 10.3273 15.442 12.069C15.4347 12.7899 15.291 13.4471 15.0874 14.1357C15.0348 14.2927 15.0348 14.2927 15.0392 14.4043C15.0868 14.422 15.0868 14.422 15.1353 14.44C15.2815 14.4947 15.4274 14.5502 15.5733 14.6057C15.6231 14.6242 15.673 14.6427 15.7244 14.6618C16.4588 14.9434 16.7972 15.2904 17.1235 15.9943C17.1491 16.0484 17.1747 16.1025 17.2011 16.1582C17.3212 16.4125 17.4397 16.6674 17.5578 16.9226C17.8213 17.4884 18.1131 18.0301 18.4286 18.5685C18.566 18.804 18.7006 19.0411 18.8356 19.278C18.8852 19.3647 18.9348 19.4515 18.9844 19.5383C19.0202 19.6011 19.0561 19.6638 19.0919 19.7266C19.7064 19.2498 20.1749 18.5408 20.5568 17.8711C20.5835 17.8247 20.5835 17.8247 20.6108 17.7773C21.2725 16.6159 21.5935 15.4213 21.5852 14.0869C21.585 14.0181 21.5847 13.9493 21.5845 13.8805C21.584 13.7133 21.5832 13.5461 21.5822 13.3789C21.5394 13.3927 21.4966 13.4065 21.4525 13.4208C21.396 13.4387 21.3394 13.4566 21.2812 13.475C21.2253 13.4929 21.1694 13.5107 21.1119 13.5291C20.5034 13.696 19.869 13.4969 19.33 13.205C18.319 12.6052 17.6412 11.6887 17.2365 10.5957C17.213 10.5367 17.213 10.5367 17.1892 10.4765C17.045 10.0713 16.9912 9.55291 17.1632 9.14917C17.2923 8.94538 17.447 8.81772 17.6759 8.74023C18.4135 8.62832 19.0626 8.93913 19.645 9.36155C20.7301 10.1888 21.4044 11.2885 21.8751 12.5488C22.5369 11.8705 22.7675 10.9805 22.7661 10.0535C22.7479 8.8827 22.3132 7.75872 21.5333 6.88477C21.4979 6.84473 21.4625 6.8047 21.426 6.76346C21.0107 6.32147 20.4952 5.97949 19.9483 5.71938C19.8732 5.66406 19.8732 5.66406 19.8316 5.56908C19.8244 5.46875 19.8244 5.46875 19.922 5.32227C20.1727 5.28457 20.352 5.37091 20.5659 5.49011C20.5978 5.50747 20.6297 5.52483 20.6625 5.54271C20.9662 5.71354 21.2228 5.9226 21.4845 6.15234C21.5457 6.19936 21.5457 6.19936 21.6081 6.24733C21.8278 6.43019 21.9931 6.66012 22.1681 6.88477C22.1974 6.9214 22.2268 6.95803 22.257 6.99577C23.0572 8.0565 23.3914 9.49296 23.2179 10.803C23.0917 11.6055 22.7604 12.3327 22.2169 12.9395C22.1827 12.9601 22.1486 12.9808 22.1133 13.0021C22.0082 13.0789 22.0082 13.0789 22.0128 13.2067C22.0195 13.2539 22.0262 13.301 22.0331 13.3495C22.2918 15.5345 21.5474 17.5337 20.2186 19.2492C20.0467 19.4647 19.8615 19.6674 19.6697 19.8653C19.4912 20.0428 19.4912 20.0428 19.3849 20.2637C19.4303 20.3831 19.4774 20.4818 19.5398 20.5919C19.557 20.6238 19.5743 20.6558 19.5921 20.6887C19.6484 20.7926 19.7059 20.8958 19.7633 20.9991C19.8021 21.0702 19.8408 21.1414 19.8794 21.2126C19.9558 21.3532 20.0326 21.4937 20.1097 21.634C20.2419 21.8747 20.3709 22.1172 20.4988 22.3602C20.5172 22.3947 20.5356 22.4292 20.5545 22.4647C20.9294 23.1731 20.9294 23.1731 20.8986 23.5352C20.3739 23.5217 19.9686 22.9563 19.629 22.6074C19.5884 22.5639 19.5477 22.5203 19.5058 22.4754C19.3855 22.3639 19.2998 22.3138 19.1469 22.2595C19.1047 22.2439 19.0625 22.2283 19.0191 22.2122C18.9787 22.1976 18.9382 22.183 18.8966 22.168C18.5735 22.0401 18.5735 22.0401 18.4572 21.9238C18.4615 21.7585 18.4757 21.5971 18.4924 21.4327C18.5095 21.2356 18.506 21.1183 18.4083 20.9473C18.3851 20.9615 18.3618 20.9757 18.3379 20.9904C16.8181 21.9132 15.2192 22.3741 13.4401 22.3755C13.4022 22.3755 13.3643 22.3756 13.3253 22.3756C12.698 22.3747 12.0917 22.3377 11.4747 22.2168C11.4319 22.2087 11.389 22.2006 11.3448 22.1922C10.2669 21.9831 9.23699 21.6261 8.25208 21.1426C8.19725 21.1157 8.19725 21.1157 8.14132 21.0882C6.47911 20.2619 4.97376 18.9997 3.90638 17.4805C3.88433 17.4495 3.86227 17.4186 3.83955 17.3867C2.91568 16.0835 2.30119 14.535 2.14857 12.9395C2.14322 12.8843 2.13787 12.8291 2.13236 12.7722C1.96307 10.743 2.42179 8.75166 3.32044 6.93359C3.33831 6.89725 3.35618 6.86091 3.37459 6.82347C4.10854 5.34682 5.19859 3.9979 6.49427 2.97852C6.55406 2.92967 6.61375 2.8807 6.67337 2.83165C7.43439 2.2081 7.43439 2.2081 7.71498 2.09961C7.86156 2.1159 7.90159 2.13974 8.00794 2.24609C8.0108 2.35806 8.0108 2.35806 7.95912 2.49023C7.84754 2.58655 7.74162 2.66765 7.62037 2.74963C7.5528 2.79724 7.48528 2.84493 7.41781 2.89268C7.38484 2.91577 7.35188 2.93885 7.31791 2.96264C6.51467 3.53242 5.78698 4.21034 5.17591 4.98047C5.13382 5.0317 5.09167 5.08288 5.04946 5.13401C4.48903 5.82001 4.03432 6.57019 3.66224 7.37305C3.64799 7.40298 3.63374 7.43292 3.61906 7.46377C2.5254 9.76855 2.24369 12.416 3.09006 14.844C3.5006 15.9841 4.08892 17.0029 4.88294 17.9199C4.91737 17.9598 4.9518 17.9996 4.98728 18.0407C5.47978 18.5986 5.99673 19.0861 6.59193 19.5312C6.66142 19.584 6.66142 19.584 6.73231 19.6379C8.32287 20.8239 10.2007 21.5516 12.1583 21.8262C12.1922 21.8312 12.2261 21.8362 12.261 21.8414C12.6277 21.8898 12.9976 21.8869 13.3668 21.8872C13.4025 21.8872 13.4382 21.8873 13.475 21.8873C15.0464 21.885 16.7875 21.5286 18.0665 20.5566C18.0988 20.5566 18.131 20.5566 18.1642 20.5566C17.9936 20.3169 17.8114 20.0951 17.6118 19.8792C17.5886 19.854 17.5654 19.8288 17.5414 19.8029C17.4339 19.6868 17.3258 19.5713 17.2172 19.4563C16.5758 18.7655 16.0549 17.9014 15.7516 17.0067C15.6577 16.7252 15.6577 16.7252 15.4619 16.5115C15.3228 16.446 15.1865 16.4013 15.0392 16.3574C14.9271 16.3121 14.8152 16.2663 14.7035 16.2201C14.5117 16.1435 14.3668 16.0962 14.1603 16.1133C14.0622 16.1611 14.0622 16.1611 13.9734 16.2333C13.9388 16.2591 13.9042 16.285 13.8685 16.3117C13.8319 16.3399 13.7952 16.3681 13.7575 16.3971C13.6787 16.4558 13.5998 16.5144 13.5208 16.5728C13.4808 16.6023 13.4409 16.6318 13.3998 16.6622C13.0934 16.8843 12.7722 17.0848 12.4513 17.2852C12.4208 17.3043 12.3903 17.3234 12.3589 17.3431C12.148 17.4746 11.9346 17.6011 11.7189 17.7246C11.6853 17.7439 11.6518 17.7632 11.6172 17.7831C10.9468 18.1645 10.2448 18.4369 9.52162 18.7012C9.41728 18.7397 9.31294 18.7783 9.20862 18.8169C9.02483 18.8846 8.84099 18.9521 8.65682 19.0187C8.62092 19.0317 8.58502 19.0447 8.54803 19.0581C8.20633 19.1724 7.89652 19.1823 7.56277 19.0416C7.27165 18.8912 7.12245 18.6932 6.98255 18.4082C6.94234 18.2739 6.9253 18.1474 6.91739 18.0077C6.915 17.9671 6.91261 17.9264 6.91014 17.8845C6.90773 17.8403 6.90532 17.796 6.90284 17.7505C6.90013 17.7035 6.89742 17.6565 6.89463 17.6081C6.88567 17.4517 6.87698 17.2953 6.8683 17.1389C6.86205 17.0284 6.85579 16.9179 6.84951 16.8074C6.8363 16.5741 6.82322 16.3408 6.81024 16.1075C6.79398 15.8156 6.77745 15.5237 6.76083 15.2317C6.69621 14.0953 6.63456 12.9588 6.58296 11.8217C6.57988 11.7552 6.57988 11.7552 6.57673 11.6873C6.54198 10.9325 6.53079 10.1795 6.5431 9.42383C6.74875 9.41404 6.82089 9.41427 7.00086 9.52759C7.41495 9.92074 7.6189 10.5005 7.81863 11.022C7.92706 11.3042 8.04891 11.5648 8.20173 11.8261C8.2888 12.0626 8.29811 12.282 8.20726 12.5196C8.16776 12.6004 8.12721 12.6808 8.08574 12.7607C7.87221 13.1737 7.75377 13.4875 7.88547 13.9402C7.91017 14.017 7.9358 14.0936 7.96217 14.1699C8.02698 14.3635 8.08162 14.5597 8.13737 14.756C8.20264 14.9856 8.26947 15.2147 8.33715 15.4436C8.43478 15.7746 8.52803 16.1067 8.6183 16.4398C8.63608 16.5054 8.63608 16.5054 8.65423 16.5723C8.70067 16.7445 8.74632 16.9167 8.78919 17.0898C9.12633 16.9919 9.423 16.8514 9.72914 16.6809C9.77567 16.6552 9.82221 16.6295 9.87016 16.603C10.7982 16.0851 11.7274 15.5212 12.549 14.8437C12.5206 14.6303 12.441 14.4833 12.3292 14.3005C12.1295 13.9723 12.0389 13.7154 12.1095 13.3301C12.1677 13.1978 12.2395 13.0754 12.314 12.9517C12.7333 12.2514 12.9317 11.5429 12.759 10.7275C12.7145 10.5948 12.6624 10.4756 12.5978 10.3516C12.5771 10.3108 12.5564 10.27 12.535 10.228C12.2279 9.67364 11.7681 9.27532 11.2794 8.88672C11.1589 8.94296 11.0818 8.98671 10.9865 9.08203C11.0135 9.10387 11.0406 9.12571 11.0685 9.14822C11.4326 9.4521 11.4326 9.4521 11.4747 9.66797C11.4966 9.94291 11.4855 10.1157 11.3283 10.3516C11.1362 10.5457 10.9794 10.6386 10.7026 10.6567C10.4722 10.6525 10.3022 10.594 10.1346 10.4282C9.94525 10.2107 9.90713 10.057 9.90099 9.77211C9.91482 9.64413 9.95821 9.5411 10.0099 9.42383C9.94966 9.4175 9.94966 9.4175 9.88821 9.41105C9.38492 9.3477 8.97225 9.21913 8.62001 8.83942C8.27421 8.38186 8.21144 7.93423 8.25208 7.37305C8.33426 6.94494 8.55932 6.62992 8.88685 6.34766C9.34041 6.06254 9.77774 6.00669 10.3029 6.05469C10.6471 6.13324 10.9142 6.31874 11.1818 6.54297C11.2972 6.03243 11.3028 5.48599 11.3042 4.96426C11.3054 4.90911 11.3054 4.90911 11.3066 4.85285C11.304 4.58221 11.2333 4.38504 11.0689 4.1687C10.9858 4.09206 10.8998 4.02377 10.8104 3.9546C10.6587 3.82853 10.522 3.69045 10.3837 3.54996C10.356 3.52181 10.3283 3.49367 10.2998 3.46468C10.2429 3.40677 10.186 3.34885 10.1291 3.29091C10.0184 3.17904 9.90637 3.06871 9.79426 2.95836C9.54582 2.71354 9.30495 2.46611 9.08216 2.19727C9.05057 2.15931 9.01897 2.12136 8.98641 2.08225C8.7467 1.77169 8.7467 1.77169 8.74037 1.5625C8.75648 1.54639 8.77259 1.53027 8.78919 1.51367ZM17.6271 9.27734C17.4682 9.50978 17.4997 9.79031 17.5294 10.0586C17.7051 10.7297 18.0331 11.3217 18.4572 11.8652C18.4788 11.8938 18.5003 11.9224 18.5226 11.9518C18.9796 12.5335 19.7253 13.0165 20.4591 13.1348C20.792 13.1577 21.0694 13.0863 21.3869 12.9883C21.4732 12.7388 21.3878 12.5519 21.2983 12.3169C21.2829 12.2761 21.2675 12.2353 21.2517 12.1933C20.9762 11.4928 20.5769 10.9024 20.0685 10.3516C20.0366 10.3157 20.0047 10.2798 19.9718 10.2428C19.5246 9.76419 18.8265 9.22244 18.1535 9.17149C18.1168 9.17117 18.08 9.17086 18.0421 9.17053C17.987 9.16949 17.987 9.16949 17.9307 9.16843C17.8053 9.18146 17.7318 9.20703 17.6271 9.27734Z" fill="#A76724"/>
<path d="M8.7892 1.51367C9.61035 1.57431 10.4284 2.51698 11.0073 3.0571C11.1165 3.15853 11.2274 3.25679 11.3405 3.35388C11.8591 3.80564 12.1717 4.14596 12.2667 4.83932C12.2851 4.95594 12.3037 5.07255 12.3224 5.18913C12.3506 5.37145 12.378 5.55378 12.4035 5.73649C12.4886 6.56758 12.4886 6.56758 12.9573 7.21397C13.0632 7.28759 13.1713 7.35438 13.2814 7.42187C13.3517 7.48309 13.4204 7.54633 13.4864 7.61223C13.5149 7.64027 13.5434 7.6683 13.5728 7.69719C14.7857 8.92235 15.4426 10.3273 15.442 12.069C15.4373 12.5354 15.3876 12.9738 15.2833 13.4277C15.276 13.4614 15.2687 13.4951 15.2611 13.5298C15.0709 14.3796 14.7039 15.1949 14.3068 15.9668C14.1266 15.9359 14.009 15.857 13.8605 15.7526C13.8122 15.7188 13.7639 15.6851 13.7142 15.6503C13.664 15.6147 13.6138 15.5792 13.5621 15.5426C13.5127 15.508 13.4633 15.4734 13.4124 15.4378C13.3154 15.3697 13.2186 15.3011 13.1222 15.2322C13.039 15.1728 12.9553 15.114 12.8711 15.0561C12.6651 14.9108 12.5432 14.7933 12.4391 14.5569C12.4161 14.5057 12.393 14.4545 12.3693 14.4018C12.348 14.3543 12.3267 14.3068 12.3048 14.2578C12.2664 14.1916 12.2278 14.1254 12.1889 14.0594C12.0724 13.815 12.0496 13.5946 12.1095 13.3301C12.1851 13.1629 12.2804 13.0077 12.3745 12.8505C12.7674 12.1898 12.9201 11.4882 12.759 10.7275C12.7145 10.5948 12.6624 10.4756 12.5978 10.3516C12.5771 10.3108 12.5564 10.27 12.535 10.228C12.2279 9.67364 11.7681 9.27532 11.2794 8.88672C11.1589 8.94296 11.0818 8.98671 10.9865 9.08203C11.0135 9.10387 11.0406 9.12571 11.0685 9.14822C11.4326 9.4521 11.4326 9.4521 11.4747 9.66797C11.4966 9.94291 11.4855 10.1157 11.3283 10.3516C11.1363 10.5457 10.9794 10.6386 10.7027 10.6567C10.4722 10.6525 10.3022 10.594 10.1346 10.4282C9.94525 10.2107 9.90714 10.057 9.90099 9.77211C9.91482 9.64413 9.95821 9.5411 10.0099 9.42383C9.94967 9.4175 9.94967 9.4175 9.88821 9.41105C9.38492 9.3477 8.97226 9.21913 8.62002 8.83942C8.27421 8.38186 8.21145 7.93423 8.25209 7.37305C8.33427 6.94494 8.55933 6.62992 8.88686 6.34766C9.34042 6.06254 9.77775 6.00669 10.3029 6.05469C10.6471 6.13324 10.9142 6.31874 11.1818 6.54297C11.2972 6.03243 11.3028 5.48599 11.3042 4.96426C11.305 4.92749 11.3058 4.89073 11.3066 4.85285C11.304 4.58221 11.2333 4.38504 11.0689 4.1687C10.9858 4.09206 10.8998 4.02377 10.8104 3.9546C10.6587 3.82853 10.522 3.69045 10.3837 3.54996C10.356 3.52181 10.3284 3.49367 10.2998 3.46468C10.2429 3.40677 10.186 3.34885 10.1291 3.29091C10.0185 3.17904 9.90638 3.06871 9.79426 2.95836C9.54582 2.71354 9.30496 2.46611 9.08217 2.19727C9.05057 2.15931 9.01897 2.12136 8.98642 2.08225C8.74671 1.77169 8.74671 1.77169 8.74037 1.5625C8.75648 1.54639 8.7726 1.53027 8.7892 1.51367Z" fill="#AA94EF"/>
<path d="M6.54292 9.42384C6.74857 9.41404 6.82071 9.41428 7.00069 9.52759C7.41477 9.92075 7.61873 10.5005 7.81845 11.022C7.92688 11.3042 8.04874 11.5648 8.20155 11.8261C8.28862 12.0626 8.29794 12.282 8.20708 12.5196C8.16758 12.6004 8.12703 12.6808 8.08556 12.7607C7.87203 13.1737 7.75359 13.4875 7.88529 13.9402C7.90999 14.0171 7.93563 14.0936 7.96199 14.1699C8.0268 14.3635 8.08144 14.5597 8.13719 14.756C8.20247 14.9856 8.26929 15.2147 8.33697 15.4436C8.4346 15.7746 8.52785 16.1067 8.61812 16.4398C8.6359 16.5054 8.6359 16.5054 8.65405 16.5723C8.70049 16.7445 8.74615 16.9167 8.78902 17.0899C9.12615 16.9919 9.42282 16.8514 9.72896 16.6809C9.7755 16.6552 9.82203 16.6295 9.86998 16.603C10.798 16.0851 11.7272 15.5212 12.5488 14.8438C12.8027 14.9239 12.9969 15.0808 13.208 15.2374C13.2861 15.2947 13.3643 15.3519 13.4426 15.4091C13.4811 15.4373 13.5197 15.4656 13.5594 15.4946C13.8052 15.673 14.0559 15.8442 14.3066 16.0156C12.5901 17.3152 10.8028 18.2468 8.78616 18.9726C8.72558 18.9944 8.665 19.0162 8.60258 19.0387C8.24012 19.1626 7.92086 19.1927 7.56259 19.0416C7.27147 18.8912 7.12227 18.6932 6.98238 18.4082C6.94216 18.2739 6.92512 18.1474 6.91721 18.0077C6.91482 17.9671 6.91243 17.9264 6.90996 17.8845C6.90755 17.8403 6.90514 17.7961 6.90266 17.7505C6.89995 17.7035 6.89724 17.6565 6.89445 17.6081C6.88549 17.4517 6.8768 17.2953 6.86813 17.1389C6.86187 17.0284 6.85561 16.9179 6.84933 16.8074C6.83612 16.5741 6.82304 16.3408 6.81006 16.1075C6.7938 15.8156 6.77728 15.5237 6.76065 15.2317C6.69603 14.0953 6.63438 12.9588 6.58279 11.8218C6.58073 11.7774 6.57867 11.733 6.57655 11.6873C6.5418 10.9325 6.53061 10.1795 6.54292 9.42384Z" fill="#C4813B"/>
<path d="M7.91029 2.1494C8.00794 2.24705 8.00794 2.24705 8.0108 2.35901C7.93492 2.55308 7.78704 2.63789 7.62037 2.75059C7.5528 2.7982 7.48528 2.84588 7.41781 2.89364C7.38484 2.91673 7.35188 2.93981 7.31791 2.9636C6.51467 3.53338 5.78698 4.2113 5.17591 4.98143C5.13382 5.03266 5.09167 5.08384 5.04945 5.13497C4.48903 5.82097 4.03432 6.57114 3.66224 7.37401C3.64799 7.40394 3.63374 7.43388 3.61906 7.46472C2.5254 9.76951 2.24369 12.417 3.09006 14.845C3.5006 15.9851 4.08892 17.0038 4.88294 17.9209C4.91737 17.9607 4.9518 18.0006 4.98728 18.0416C5.47978 18.5996 5.99673 19.087 6.59193 19.5322C6.66142 19.585 6.66142 19.585 6.73231 19.6388C8.32287 20.8248 10.2007 21.5525 12.1583 21.8271C12.1922 21.8322 12.2261 21.8372 12.261 21.8424C12.6277 21.8908 12.9976 21.8879 13.3668 21.8882C13.4025 21.8882 13.4382 21.8882 13.475 21.8883C15.2241 21.8857 16.7107 21.3746 18.213 20.5088C18.4083 20.7285 18.4083 20.7285 18.4083 20.9482C18.3379 21.0135 18.3379 21.0135 18.238 21.0711C18.1824 21.1035 18.1824 21.1035 18.1257 21.1365C18.085 21.159 18.0444 21.1814 18.0024 21.2046C17.9605 21.2281 17.9186 21.2517 17.8754 21.2759C16.4979 22.0339 15.0053 22.3752 13.4401 22.3764C13.4022 22.3765 13.3643 22.3765 13.3253 22.3765C12.6979 22.3757 12.0917 22.3387 11.4747 22.2178C11.4319 22.2096 11.389 22.2015 11.3448 22.1932C10.2669 21.984 9.23699 21.6271 8.25208 21.1435C8.19725 21.1166 8.19725 21.1166 8.14131 21.0892C6.47911 20.2628 4.97376 19.0006 3.90638 17.4814C3.88433 17.4505 3.86227 17.4196 3.83955 17.3877C2.91568 16.0844 2.30119 14.536 2.14857 12.9404C2.14322 12.8852 2.13787 12.83 2.13236 12.7731C1.96307 10.744 2.42179 8.75261 3.32044 6.93455C3.33831 6.89821 3.35618 6.86187 3.37459 6.82443C4.10854 5.34778 5.19859 3.99886 6.49427 2.97947C6.55406 2.93063 6.61375 2.88166 6.67337 2.83261C7.64175 2.03916 7.64175 2.03916 7.91029 2.1494Z" fill="#E256B3"/>
<path d="M19.9219 5.32144C20.1726 5.28375 20.3519 5.37009 20.5658 5.48929C20.5977 5.50665 20.6296 5.524 20.6624 5.54188C20.9661 5.71271 21.2227 5.92178 21.4844 6.15152C21.5456 6.19854 21.5456 6.19854 21.608 6.24651C21.8277 6.42936 21.993 6.6593 22.168 6.88394C22.1973 6.92057 22.2267 6.95721 22.2569 6.99495C23.0571 8.05568 23.3913 9.49213 23.2178 10.8022C23.0917 11.6047 22.7603 12.3319 22.2168 12.9386C22.1827 12.9593 22.1485 12.9799 22.1133 13.0012C22.0081 13.0781 22.0081 13.0781 22.0127 13.2059C22.0194 13.253 22.0261 13.3002 22.033 13.3487C22.2916 15.5324 21.5483 17.5342 20.2185 19.2479C19.9606 19.5712 19.6771 19.8729 19.3848 20.1652C19.3365 20.1652 19.2881 20.1652 19.2383 20.1652C19.159 20.0309 19.159 20.0309 19.0918 19.8722C19.1532 19.6826 19.2948 19.5584 19.4306 19.4175C20.789 17.9678 21.5975 16.073 21.5851 14.0861C21.5849 14.0173 21.5847 13.9485 21.5845 13.8797C21.5839 13.7125 21.5831 13.5453 21.5821 13.3781C21.5393 13.3919 21.4965 13.4057 21.4525 13.4199C21.3959 13.4379 21.3394 13.4558 21.2811 13.4742C21.2252 13.4921 21.1694 13.5099 21.1118 13.5283C20.5033 13.6952 19.8689 13.4961 19.3299 13.2041C18.3189 12.6043 17.6411 11.6879 17.2364 10.5949C17.2208 10.5555 17.2052 10.5162 17.1891 10.4757C17.0449 10.0705 16.9911 9.55208 17.1631 9.14835C17.2922 8.94455 17.4469 8.8169 17.6758 8.73941C18.4134 8.6275 19.0625 8.9383 19.6449 9.36073C20.73 10.188 21.4044 11.2877 21.875 12.548C22.5369 11.8696 22.7674 10.9796 22.766 10.0527C22.7478 8.88188 22.3132 7.7579 21.5333 6.88394C21.4978 6.84391 21.4624 6.80388 21.4259 6.76263C21.0106 6.32065 20.4951 5.97867 19.9482 5.71855C19.8731 5.66324 19.8731 5.66324 19.8315 5.56825C19.8243 5.46793 19.8243 5.46793 19.9219 5.32144ZM17.627 9.27652C17.4682 9.50895 17.4996 9.78949 17.5293 10.0578C17.705 10.7289 18.0331 11.3209 18.4571 11.8644C18.4787 11.893 18.5003 11.9216 18.5225 11.951C18.9795 12.5327 19.7252 13.0157 20.459 13.1339C20.792 13.1569 21.0693 13.0855 21.3868 12.9875C21.4731 12.738 21.3877 12.5511 21.2983 12.3161C21.2829 12.2753 21.2675 12.2345 21.2516 12.1925C20.9762 11.492 20.5768 10.9015 20.0684 10.3507C20.0365 10.3149 20.0046 10.279 19.9717 10.242C19.5245 9.76337 18.8265 9.22161 18.1534 9.17066C18.1167 9.17035 18.0799 9.17003 18.042 9.16971C17.9869 9.16867 17.9869 9.16867 17.9307 9.16761C17.8053 9.18063 17.7317 9.20621 17.627 9.27652Z" fill="#E256B3"/>
<path d="M10.6853 6.19005C10.7377 6.21998 10.7377 6.21998 10.7912 6.25051C10.8256 6.26895 10.86 6.2874 10.8955 6.3064C11.2386 6.52271 11.4546 6.91589 11.5564 7.30299C11.6301 7.85216 11.559 8.36591 11.2245 8.82009C11.1487 8.9132 11.0715 8.99755 10.9865 9.08254C11.0271 9.1153 11.0271 9.1153 11.0685 9.14873C11.4326 9.45261 11.4326 9.45261 11.4747 9.66848C11.4966 9.94342 11.4855 10.1162 11.3283 10.3521C11.1363 10.5462 10.9794 10.6391 10.7027 10.6572C10.4722 10.653 10.3022 10.5945 10.1346 10.4287C9.94525 10.2112 9.90714 10.0575 9.90099 9.77262C9.91482 9.64465 9.95821 9.54161 10.0099 9.42434C9.94967 9.41801 9.94967 9.41801 9.88821 9.41156C9.38492 9.34821 8.97226 9.21965 8.62002 8.83993C8.27421 8.38237 8.21145 7.93474 8.25209 7.37356C8.33427 6.94545 8.55933 6.63043 8.88686 6.34817C9.41813 6.0142 10.1052 5.90727 10.6853 6.19005Z" fill="#C4813B"/>
<path d="M14.5996 9.0332C14.7709 9.23976 14.8824 9.43654 14.9902 9.68018C15.0157 9.73761 15.0157 9.73761 15.0417 9.7962C15.5256 10.9286 15.5566 12.2379 15.2832 13.4277C15.2759 13.4614 15.2685 13.4951 15.261 13.5298C15.0708 14.3796 14.7038 15.1949 14.3066 15.9668C14.1333 15.936 14.0213 15.8652 13.8786 15.7637C13.8135 15.7176 13.8135 15.7176 13.747 15.6707C13.7021 15.6385 13.6571 15.6063 13.6108 15.5731C13.5651 15.5407 13.5194 15.5084 13.4724 15.475C13.3596 15.395 13.2471 15.3148 13.1348 15.2344C13.1801 15.1663 13.2254 15.0983 13.2708 15.0303C13.2976 14.99 13.3244 14.9498 13.352 14.9083C13.4074 14.8254 13.4631 14.7427 13.5191 14.6603C14.3067 13.47 14.6126 12.0347 14.6044 10.6211C14.6043 10.5523 14.6043 10.5523 14.6042 10.4822C14.6039 10.3379 14.6033 10.1937 14.6027 10.0494C14.6024 9.95073 14.6022 9.85203 14.602 9.75332C14.6015 9.51328 14.6006 9.27324 14.5996 9.0332Z" fill="#7F4DC5"/>
<path d="M8.25219 7.37305C8.38043 7.49762 8.49349 7.61335 8.60009 7.75757C8.92753 8.15213 9.42424 8.34249 9.91235 8.44727C10.1703 8.46843 10.426 8.46611 10.6844 8.45947C10.7521 8.45849 10.8198 8.4576 10.8875 8.4568C11.0508 8.45453 11.214 8.45133 11.3772 8.44727C11.3219 8.70835 11.1765 8.89912 10.9866 9.08203C11.0272 9.11479 11.0272 9.11479 11.0686 9.14822C11.4327 9.4521 11.4327 9.4521 11.4748 9.66797C11.4967 9.94291 11.4856 10.1157 11.3284 10.3516C11.1364 10.5457 10.9795 10.6386 10.7028 10.6567C10.4723 10.6525 10.3023 10.594 10.1347 10.4282C9.94535 10.2107 9.90724 10.057 9.90109 9.77211C9.91492 9.64413 9.95831 9.5411 10.01 9.42383C9.96984 9.41961 9.92969 9.41539 9.88831 9.41105C9.38502 9.3477 8.97236 9.21913 8.62012 8.83942C8.35029 8.48239 8.24505 8.144 8.24914 7.70264C8.24958 7.64095 8.25002 7.57927 8.25047 7.51572C8.25104 7.46864 8.25161 7.42155 8.25219 7.37305Z" fill="#7F4DC5"/>
<path d="M10.8398 6.29883C11.0929 6.46145 11.2319 6.58637 11.3708 6.86035C11.3989 6.91423 11.427 6.96811 11.4559 7.02362C11.5557 7.25131 11.5805 7.4524 11.5845 7.69959C11.5857 7.7461 11.587 7.79261 11.5883 7.84054C11.5663 8.06961 11.4976 8.27821 11.4258 8.49609C11.2174 8.49853 11.009 8.50029 10.8005 8.50146C10.7298 8.50195 10.659 8.50261 10.5883 8.50346C9.86467 8.51194 9.86467 8.51194 9.52148 8.39844C9.52148 8.38232 9.52148 8.36621 9.52148 8.34961C9.5522 8.34243 9.58292 8.33526 9.61456 8.32787C10.1005 8.20054 10.4348 7.95351 10.6934 7.51953C10.8383 7.24265 10.8587 7.02667 10.849 6.71692C10.8483 6.67654 10.8477 6.63616 10.847 6.59456C10.8453 6.49597 10.8427 6.39739 10.8398 6.29883Z" fill="#A76724"/>
<path d="M11.2788 6.25C11.6423 6.56912 11.8333 7.16693 11.8819 7.63645C11.8961 7.99312 11.8559 8.29679 11.7519 8.63647C11.7363 8.68747 11.7363 8.68747 11.7204 8.7395C11.6883 8.83446 11.6883 8.83446 11.6206 8.98438C11.5481 9.00854 11.5481 9.00854 11.4741 9.0332C11.3429 8.9386 11.3429 8.9386 11.23 8.83789C11.244 8.80321 11.258 8.76853 11.2724 8.7328C11.4975 8.16693 11.6414 7.66651 11.4188 7.07417C11.3756 6.97409 11.3756 6.97409 11.2941 6.86035C11.1993 6.67979 11.2085 6.49931 11.23 6.29883C11.2461 6.28271 11.2622 6.2666 11.2788 6.25Z" fill="#7F4DC5"/>
<path d="M14.9414 14.4043C15.0542 14.4365 15.167 14.4687 15.2832 14.502C15.1859 14.8925 15.0253 15.2292 14.8346 15.5823C14.8073 15.6336 14.78 15.685 14.7519 15.7379C14.6853 15.8633 14.6182 15.9884 14.5508 16.1133C14.4318 16.095 14.4318 16.095 14.3066 16.0645C14.2905 16.0322 14.2744 16 14.2578 15.9668C14.2887 15.8806 14.2887 15.8806 14.3406 15.7766C14.3687 15.7191 14.3687 15.7191 14.3974 15.6604C14.428 15.5991 14.428 15.5991 14.4592 15.5365C14.6404 15.1648 14.8022 14.794 14.9414 14.4043Z" fill="#824E18"/>
<path d="M12.5978 6.93359C12.7962 7.00058 12.9236 7.09085 13.0769 7.23267C13.1348 7.28573 13.1348 7.28573 13.1938 7.33986C13.2227 7.36692 13.2516 7.39399 13.2813 7.42188C13.2067 7.67084 13.1002 7.89339 12.9823 8.12378C12.9641 8.15972 12.9459 8.19566 12.9272 8.23269C12.8826 8.32058 12.8379 8.40835 12.7931 8.49609C12.7608 8.49609 12.7286 8.49609 12.6954 8.49609C12.6789 8.30894 12.6627 8.12176 12.6466 7.93457C12.6396 7.85564 12.6396 7.85564 12.6325 7.77512C12.6084 7.49338 12.5923 7.21635 12.5978 6.93359Z" fill="#7F4DC5"/>
</svg>
