<svg width="25" height="25" viewBox="0 0 25 25" fill="none" xmlns="http://www.w3.org/2000/svg">
<g clip-path="url(#clip0_7682_6796)">
<path d="M11.2667 -0.0121393C11.2045 -0.0128563 11.2045 -0.0128563 11.1411 -0.0135878C10.2091 -0.0221178 9.30807 -0.0127788 8.39457 0.194714C8.34838 0.205174 8.30219 0.215633 8.25461 0.22641C6.9516 0.532607 5.67135 1.06023 4.5877 1.85412C4.52739 1.89689 4.46708 1.93966 4.40677 1.98243C3.90903 2.34058 3.46019 2.73952 3.0259 3.17188C2.98392 3.21357 2.98392 3.21357 2.94109 3.2561C2.19366 4.00726 1.61581 4.87296 1.12247 5.80741C1.10374 5.84273 1.085 5.87805 1.0657 5.91443C0.302449 7.37774 -0.0221539 9.02782 -0.0153227 10.6667C-0.0152175 10.712 -0.0151123 10.7574 -0.015004 10.8041C-0.00501869 13.486 0.96185 16.0142 2.80589 17.9738C2.89254 18.0678 2.97451 18.1613 3.05526 18.26C3.14765 18.37 3.23426 18.4626 3.34314 18.5549C3.37668 18.5834 3.41021 18.6119 3.44476 18.6413C3.4837 18.6742 3.52265 18.7071 3.56277 18.741C3.61027 18.7825 3.65777 18.8239 3.70671 18.8666C5.93316 20.801 8.77406 21.5943 11.6854 21.415C12.99 21.309 14.3079 20.9454 15.4671 20.3354C15.5213 20.3079 15.5213 20.3079 15.5767 20.2797C15.6083 20.263 15.6399 20.2463 15.6725 20.229C15.7661 20.1958 15.7661 20.1958 15.8626 20.2386C15.9681 20.3085 16.0484 20.383 16.1357 20.4746C16.1685 20.5084 16.2013 20.5422 16.2352 20.577C16.3029 20.6477 16.3705 20.7185 16.438 20.7894C16.8709 21.2342 17.2577 21.4315 17.8849 21.4431C18.0582 21.4253 18.0582 21.4253 18.1758 21.3665C18.3471 21.2916 18.4561 21.2661 18.6438 21.2789C18.9513 21.4453 19.186 21.7413 19.4223 21.9927C19.4957 22.068 19.5693 22.1431 19.6431 22.2181C19.8369 22.4158 20.0284 22.6155 20.2195 22.8157C20.5253 23.1354 20.8344 23.4518 21.1433 23.7684C21.2506 23.8789 21.357 23.9902 21.4633 24.1017C21.5294 24.1703 21.5956 24.2388 21.6617 24.3074C21.6907 24.3382 21.7197 24.3691 21.7496 24.4008C22.099 24.7601 22.5289 24.996 23.0371 25.0067C23.5987 25.0054 24.0859 24.9104 24.5006 24.5001C24.8371 24.0965 25.0171 23.7153 25.01 23.1885C25.0096 23.1499 25.0092 23.1114 25.0089 23.0717C24.9902 22.4086 24.6266 21.974 24.1716 21.5246C24.1402 21.4931 24.1087 21.4616 24.0763 21.4292C23.9735 21.3265 23.8704 21.2242 23.7673 21.1218C23.6955 21.0502 23.6237 20.9785 23.5519 20.9068C23.3639 20.7192 23.1756 20.5318 22.9872 20.3446C22.7947 20.153 22.6024 19.9612 22.4101 19.7694C22.0335 19.3938 21.6565 19.0185 21.2794 18.6434C21.2897 18.6068 21.3 18.5702 21.3106 18.5325C21.324 18.4843 21.3374 18.4361 21.3512 18.3865C21.3713 18.315 21.3713 18.315 21.3917 18.242C21.4909 17.8479 21.4739 17.42 21.3009 17.05C21.1608 16.8214 20.9797 16.6364 20.7913 16.4471C20.7657 16.4212 20.7402 16.3953 20.7139 16.3687C20.5457 16.1983 20.3762 16.0294 20.2056 15.8615C20.2696 15.6502 20.3537 15.4565 20.4482 15.2579C20.8781 14.3477 21.1711 13.39 21.3282 12.3962C21.3366 12.3462 21.3366 12.3462 21.3453 12.2951C21.7594 9.77128 21.1709 6.85702 19.679 4.76668C19.6595 4.73968 19.64 4.71269 19.62 4.68487C19.5978 4.65378 19.5757 4.62269 19.5529 4.59067C19.264 4.18708 18.9599 3.80745 18.6181 3.44756C18.5316 3.35494 18.4505 3.26282 18.3704 3.16502C18.2789 3.05584 18.1937 2.96429 18.0856 2.87295C17.9598 2.76618 17.8347 2.65897 17.7116 2.54903C17.313 2.19586 16.8994 1.89131 16.4476 1.61009C16.3994 1.57971 16.3994 1.57971 16.3502 1.54872C14.8465 0.607202 13.0504 0.00497674 11.2667 -0.0121393Z" fill="#8B47FF"/>
<path d="M10.8969 3.25648C10.796 3.257 10.6952 3.25649 10.5943 3.25586C8.66972 3.25376 6.88731 4.04245 5.51516 5.36787C5.46999 5.40996 5.42481 5.45205 5.37827 5.49541C4.41316 6.41815 3.70805 7.70216 3.44051 9.01044C3.4215 9.10185 3.40085 9.19293 3.37962 9.28385C3.27598 9.75079 3.2446 10.1949 3.24873 10.6725C3.24886 10.7086 3.24899 10.7448 3.24913 10.782C3.25238 11.3705 3.30276 11.9262 3.4653 12.4935C3.47496 12.5286 3.48462 12.5636 3.49457 12.5997C3.75849 13.5448 4.17032 14.456 4.78307 15.2267C4.81654 15.27 4.85001 15.3134 4.88449 15.358C6.12627 16.9281 7.9319 17.8774 9.90577 18.1392C11.8569 18.3479 13.8387 17.7554 15.3644 16.5281C15.8232 16.1496 16.2356 15.7523 16.5941 15.2755C16.6138 15.2497 16.6335 15.2239 16.6538 15.1974C17.3342 14.3015 17.7794 13.3017 18.0095 12.2007C18.0168 12.1681 18.0241 12.1354 18.0316 12.1018C18.2607 11.0604 18.1999 10.0123 17.9607 8.97951C17.9494 8.92776 17.9494 8.92776 17.9378 8.87497C17.8276 8.37656 17.6444 7.92419 17.4238 7.46653C17.4019 7.42047 17.4019 7.42047 17.3796 7.37349C17.0357 6.65931 16.5552 6.03707 16.0085 5.46548C15.9783 5.43277 15.9481 5.40005 15.9169 5.36634C14.9268 4.32666 13.5033 3.63682 12.104 3.36682C12.0674 3.35856 12.0307 3.35031 11.993 3.3418C11.6278 3.26519 11.2687 3.25421 10.8969 3.25648Z" fill="#FEFEFE"/>
<path d="M11.2667 -0.0121393C11.2045 -0.0128563 11.2045 -0.0128563 11.1411 -0.0135878C10.2091 -0.0221178 9.30807 -0.0127788 8.39457 0.194714C8.34838 0.205174 8.30219 0.215633 8.25461 0.22641C6.9516 0.532607 5.67135 1.06023 4.5877 1.85412C4.52739 1.89689 4.46708 1.93966 4.40677 1.98243C3.90903 2.34058 3.46019 2.73952 3.0259 3.17188C2.98392 3.21357 2.98392 3.21357 2.94109 3.2561C2.19366 4.00726 1.61581 4.87296 1.12247 5.80741C1.10374 5.84273 1.085 5.87805 1.0657 5.91443C0.302449 7.37774 -0.0221539 9.02782 -0.0153227 10.6667C-0.0152175 10.712 -0.0151123 10.7574 -0.015004 10.8041C-0.00501869 13.486 0.96185 16.0142 2.80589 17.9738C2.89254 18.0678 2.97451 18.1613 3.05526 18.26C3.14765 18.37 3.23426 18.4626 3.34314 18.5549C3.37668 18.5834 3.41021 18.6119 3.44476 18.6413C3.4837 18.6742 3.52265 18.7071 3.56277 18.741C3.61027 18.7825 3.65777 18.8239 3.70671 18.8666C5.93316 20.801 8.77406 21.5943 11.6854 21.415C12.99 21.309 14.3079 20.9454 15.4671 20.3354C15.5213 20.3079 15.5213 20.3079 15.5767 20.2797C15.6083 20.263 15.6399 20.2463 15.6725 20.229C15.7661 20.1958 15.7661 20.1958 15.8626 20.2386C15.9681 20.3085 16.0484 20.383 16.1357 20.4746C16.1685 20.5084 16.2013 20.5422 16.2352 20.577C16.3029 20.6477 16.3705 20.7185 16.438 20.7894C16.8709 21.2342 17.2577 21.4315 17.8849 21.4431C18.0582 21.4253 18.0582 21.4253 18.1758 21.3665C18.3471 21.2916 18.4561 21.2661 18.6438 21.2789C18.9513 21.4453 19.186 21.7413 19.4223 21.9927C19.4957 22.068 19.5693 22.1431 19.6431 22.2181C19.8369 22.4158 20.0284 22.6155 20.2195 22.8157C20.5253 23.1354 20.8344 23.4518 21.1433 23.7684C21.2506 23.8789 21.357 23.9902 21.4633 24.1017C21.5294 24.1703 21.5956 24.2388 21.6617 24.3074C21.6907 24.3382 21.7197 24.3691 21.7496 24.4008C22.099 24.7601 22.5289 24.996 23.0371 25.0067C23.5987 25.0054 24.0859 24.9104 24.5006 24.5001C24.8371 24.0965 25.0171 23.7153 25.01 23.1885C25.0096 23.1499 25.0092 23.1114 25.0089 23.0717C24.9902 22.4086 24.6266 21.974 24.1716 21.5246C24.1402 21.4931 24.1087 21.4616 24.0763 21.4292C23.9735 21.3265 23.8704 21.2242 23.7673 21.1218C23.6955 21.0502 23.6237 20.9785 23.5519 20.9068C23.3639 20.7192 23.1756 20.5318 22.9872 20.3446C22.7947 20.153 22.6024 19.9612 22.4101 19.7694C22.0335 19.3938 21.6565 19.0185 21.2794 18.6434C21.2897 18.6068 21.3 18.5702 21.3106 18.5325C21.324 18.4843 21.3374 18.4361 21.3512 18.3865C21.3713 18.315 21.3713 18.315 21.3917 18.242C21.4909 17.8479 21.4739 17.42 21.3009 17.05C21.1608 16.8214 20.9797 16.6364 20.7913 16.4471C20.7657 16.4212 20.7402 16.3953 20.7139 16.3687C20.5457 16.1983 20.3762 16.0294 20.2056 15.8615C20.2696 15.6502 20.3537 15.4565 20.4482 15.2579C20.8781 14.3477 21.1711 13.39 21.3282 12.3962C21.3366 12.3462 21.3366 12.3462 21.3453 12.2951C21.7594 9.77128 21.1709 6.85702 19.679 4.76668C19.6595 4.73968 19.64 4.71269 19.62 4.68487C19.5978 4.65378 19.5757 4.62269 19.5529 4.59067C19.264 4.18708 18.9599 3.80745 18.6181 3.44756C18.5316 3.35494 18.4505 3.26282 18.3704 3.16502C18.2789 3.05584 18.1937 2.96429 18.0856 2.87295C17.9598 2.76618 17.8347 2.65897 17.7116 2.54903C17.313 2.19586 16.8994 1.89131 16.4476 1.61009C16.3994 1.57971 16.3994 1.57971 16.3502 1.54872C14.8465 0.607202 13.0504 0.00497674 11.2667 -0.0121393ZM12.4943 1.12203C12.5364 1.13014 12.5786 1.13826 12.622 1.14662C15.1163 1.64687 17.3296 3.12253 18.7603 5.22348C18.9083 5.44615 19.0468 5.67367 19.1807 5.90502C19.1996 5.93744 19.2184 5.96987 19.2378 6.00328C20.0678 7.44921 20.4224 9.02923 20.4192 10.685C20.4191 10.7337 20.4191 10.7824 20.4191 10.8327C20.4176 11.5497 20.3945 12.237 20.2056 12.9331C20.1965 12.9678 20.1874 13.0025 20.1779 13.0383C20.125 13.2341 20.0638 13.4258 19.9958 13.6169C19.9598 13.7191 19.9261 13.822 19.8924 13.925C19.5765 14.8625 19.1142 15.7694 18.4974 16.5447C18.4615 16.5908 18.4256 16.6368 18.3886 16.6843C17.5102 17.785 16.4773 18.6778 15.2235 19.3267C15.1441 19.368 15.0657 19.4113 14.9876 19.455C14.227 19.8667 13.3446 20.1489 12.4943 20.3028C12.4524 20.3113 12.4105 20.3199 12.3674 20.3287C11.889 20.4163 11.4143 20.4152 10.9293 20.4131C10.7863 20.4126 10.6434 20.4131 10.5005 20.4138C10.0159 20.4141 9.55409 20.3992 9.07785 20.3028C9.04216 20.2964 9.00648 20.29 8.96971 20.2834C7.04308 19.9382 5.33834 19.0388 3.92841 17.6882C3.86138 17.624 3.79379 17.5604 3.72616 17.4968C2.64255 16.4526 1.89104 15.0806 1.4153 13.6652C1.40311 13.6289 1.39092 13.5927 1.37837 13.5554C0.894849 12.0746 0.795095 10.3596 1.12247 8.83338C1.13623 8.76816 1.13623 8.76816 1.15028 8.70162C1.52219 7.00242 2.31661 5.49383 3.46516 4.19681C3.50398 4.15201 3.54279 4.10722 3.58279 4.06107C3.80504 3.80794 4.03612 3.58227 4.29486 3.36711C4.35865 3.31152 4.35865 3.31152 4.42374 3.25481C6.61923 1.36752 9.65339 0.57444 12.4943 1.12203Z" fill="#7A1BA6"/>
<path d="M12.7382 4.53889C12.6282 4.59684 12.6282 4.59684 12.5155 4.6853C12.47 4.72029 12.4244 4.75527 12.3775 4.79131C12.3508 4.81229 12.3241 4.83327 12.2966 4.85489C12.1362 4.98028 11.9739 5.10323 11.812 5.22656C11.721 5.2959 11.6301 5.36542 11.5394 5.43513C11.4556 5.4994 11.3715 5.56332 11.2871 5.62682C11.2203 5.67717 11.154 5.72825 11.0888 5.78068C11.0086 5.84524 11.0086 5.84524 10.8836 5.90546C10.7002 5.85121 10.5653 5.76144 10.4155 5.64465C10.3736 5.61218 10.3316 5.57972 10.2883 5.54627C10.2442 5.5118 10.2 5.47732 10.1545 5.4418C10.0626 5.37107 9.97055 5.30041 9.87849 5.2298C9.83357 5.19526 9.78865 5.16072 9.74236 5.12513C9.70021 5.09273 9.65806 5.06033 9.61463 5.02695C9.57839 4.99908 9.54215 4.97121 9.50482 4.94249C9.41283 4.87226 9.3202 4.80302 9.22723 4.73411C9.17646 4.69586 9.12569 4.65761 9.07338 4.6182C8.91147 4.52779 8.82107 4.51718 8.63851 4.53889C8.46798 4.62028 8.40294 4.67262 8.29687 4.83172C8.27369 5.08201 8.29425 5.21642 8.44328 5.4174C8.56535 5.52639 8.69576 5.62265 8.82763 5.71938C8.90225 5.77523 8.97685 5.83109 9.05145 5.88696C9.08862 5.91457 9.12579 5.94219 9.16408 5.97063C9.32364 6.08966 9.48141 6.21095 9.63903 6.33251C9.68987 6.37152 9.7407 6.41052 9.79308 6.45071C9.89944 6.52991 9.89944 6.52991 9.95627 6.58874C9.90953 6.62366 9.86278 6.65857 9.81462 6.69455C9.60124 6.85411 9.38825 7.01418 9.17538 7.17441C9.13863 7.20204 9.10189 7.22967 9.06404 7.25813C8.03995 8.02953 7.16318 8.8674 6.94402 10.1914C6.80843 11.2448 7.04711 12.3101 7.68431 13.1671C8.11233 13.7179 8.6468 14.1094 9.21017 14.5122C9.37499 14.6314 9.53626 14.755 9.69699 14.8797C9.74751 14.9188 9.79803 14.9579 9.85008 14.9982C9.90265 15.0392 9.90265 15.0392 9.95627 15.081C9.76587 15.2824 9.56041 15.4452 9.33705 15.6087C9.26748 15.6603 9.19796 15.712 9.12848 15.7637C9.09483 15.7887 9.06119 15.8137 9.02653 15.8395C8.89899 15.9349 8.77286 16.0319 8.64766 16.1303C8.61111 16.159 8.57455 16.1877 8.53689 16.2173C8.30489 16.4252 8.30489 16.4252 8.28467 16.6047C8.30573 16.7968 8.32272 16.9071 8.44634 17.0607C8.63849 17.1547 8.77524 17.1905 8.98015 17.1308C9.15516 17.0266 9.3095 16.8999 9.46695 16.771C9.67523 16.6037 9.88975 16.4442 10.1027 16.2828C10.1912 16.2154 10.2796 16.1479 10.3681 16.0804C10.5069 15.9744 10.6461 15.8689 10.786 15.7643C10.9295 15.8316 11.0535 15.9095 11.1808 16.0037C11.2188 16.0318 11.2568 16.0598 11.296 16.0887C11.336 16.1185 11.3761 16.1484 11.4174 16.1791C11.4585 16.2096 11.4997 16.2401 11.5421 16.2714C11.8382 16.4913 12.1315 16.7144 12.4225 16.941C12.6181 17.0908 12.7305 17.1524 12.9821 17.1469C13.135 17.1218 13.2183 17.0445 13.3239 16.9356C13.4075 16.7684 13.4226 16.6248 13.3727 16.4476C13.2345 16.2731 13.0608 16.1424 12.8846 16.0083C12.8538 15.9846 12.8229 15.9609 12.7912 15.9365C12.5961 15.787 12.3993 15.6402 12.2013 15.4946C12.0379 15.374 11.8756 15.2519 11.7133 15.1298C11.9289 14.8973 12.1753 14.7164 12.4301 14.5289C12.5182 14.4633 12.6063 14.3976 12.6944 14.3319C12.757 14.2853 12.757 14.2853 12.8208 14.2377C13.6554 13.6148 14.2635 12.9643 14.5928 11.9574C14.6084 11.9132 14.624 11.8689 14.6401 11.8234C14.9369 10.8546 14.7159 9.81386 14.276 8.93181C13.8756 8.1943 13.2853 7.74639 12.6183 7.26457C12.4247 7.12396 12.2338 6.97985 12.0427 6.83582C11.9784 6.78757 11.9141 6.73933 11.8498 6.69112C11.8047 6.65733 11.7597 6.62355 11.7133 6.58874C12.0985 6.25504 12.4984 5.94883 12.9133 5.65282C12.9517 5.62509 12.9901 5.59735 13.0297 5.56877C13.0812 5.53202 13.0812 5.53202 13.1338 5.49454C13.3083 5.34897 13.3681 5.25864 13.3971 5.03C13.3913 4.85841 13.3726 4.83156 13.2568 4.68836C13.0712 4.54251 12.9744 4.5202 12.7382 4.53889Z" fill="#00CEC9"/>
<path d="M11.291 2.2873C11.229 2.28724 11.1669 2.28717 11.103 2.28711C11.0387 2.2873 10.9744 2.28749 10.9082 2.28768C10.814 2.2874 10.814 2.2874 10.7179 2.28711C10.1634 2.28767 9.60201 2.29185 9.05964 2.41885C9.02391 2.42707 8.98818 2.4353 8.95137 2.44377C8.14457 2.63909 7.36129 2.91032 6.63764 3.31871C6.59176 3.34407 6.59176 3.34407 6.54496 3.36995C5.6031 3.89424 4.75281 4.60731 4.09972 5.46617C4.06437 5.51053 4.02901 5.55488 3.99258 5.60058C3.16396 6.66162 2.63986 7.90472 2.39151 9.22424C2.38318 9.26572 2.37486 9.3072 2.36627 9.34994C2.29169 9.74878 2.27444 10.14 2.2756 10.5451C2.27561 10.5787 2.27562 10.6124 2.27563 10.647C2.27853 11.6044 2.38239 12.5733 2.73315 13.4704C2.74725 13.5068 2.76135 13.5432 2.77588 13.5808C3.09354 14.3903 3.47414 15.1215 4.00211 15.8131C4.03552 15.8575 4.06893 15.9019 4.10335 15.9477C5.47923 17.7035 7.52012 18.8169 9.72576 19.0998C11.9508 19.3416 14.1571 18.7039 15.9199 17.3291C17.7078 15.8521 18.8868 13.8348 19.1217 11.5028C19.2463 9.9154 18.9734 8.3534 18.2535 6.93036C18.2368 6.89718 18.22 6.86401 18.2028 6.82984C17.8334 6.10988 17.3497 5.46343 16.7893 4.8805C16.7677 4.85763 16.7461 4.83476 16.7238 4.8112C15.4352 3.45185 13.7377 2.65857 11.9087 2.34259C11.8627 2.3339 11.8167 2.32522 11.7694 2.31627C11.6077 2.29259 11.4543 2.28746 11.291 2.2873ZM15.8132 5.27095C15.8588 5.31247 15.9044 5.354 15.9514 5.39678C16.5471 5.96608 17.0015 6.63832 17.375 7.36961C17.391 7.40102 17.4071 7.43243 17.4236 7.46479C17.7392 8.09186 17.9254 8.73092 18.0582 9.41946C18.0684 9.46552 18.0785 9.51157 18.0889 9.55902C18.3472 10.8956 18.1236 12.3824 17.5702 13.6168C17.5549 13.651 17.5396 13.6851 17.5238 13.7203C17.0132 14.8374 16.2594 15.8511 15.2763 16.594C15.2383 16.6232 15.2383 16.6232 15.1995 16.653C13.6961 17.8038 11.7888 18.3332 9.90314 18.1403C8.19889 17.9133 6.71397 17.1848 5.46629 16.0083C5.43339 15.978 5.40048 15.9476 5.36658 15.9164C4.29153 14.8907 3.64457 13.4453 3.36763 12.0062C3.35937 11.9729 3.35112 11.9395 3.34261 11.9052C3.25079 11.5133 3.25063 11.1221 3.25172 10.722C3.25174 10.6853 3.25177 10.6486 3.2518 10.6107C3.25382 10.0008 3.3005 9.42384 3.46524 8.83379C3.48054 8.77809 3.48054 8.77809 3.49615 8.72126C3.74513 7.84434 4.14478 7.02887 4.6854 6.29588C4.71874 6.25064 4.75208 6.20541 4.78644 6.1588C5.95975 4.65758 7.71255 3.55746 9.62005 3.3051C11.9287 3.05256 14.0909 3.70144 15.8132 5.27095Z" fill="#5E0482" fill-opacity="0.7"/>
<path d="M4.43274 3.26065C4.33373 3.35079 4.23604 3.44202 4.13857 3.53385C4.04328 3.62193 3.94852 3.70535 3.8484 3.78741C3.66524 3.94089 3.52017 4.11056 3.36797 4.29416C3.34694 4.31921 3.32591 4.34425 3.30425 4.37006C2.91065 4.84062 2.56182 5.33031 2.24543 5.85595C2.21865 5.90042 2.21865 5.90042 2.19133 5.94579C0.933849 8.07467 0.654015 10.7449 1.25608 13.1221C1.32003 13.3548 1.39416 13.5825 1.47702 13.809C1.51242 13.9064 1.54549 14.0043 1.57816 14.1026C1.845 14.883 2.24711 15.6352 2.73349 16.3004C2.76324 16.342 2.76324 16.342 2.79359 16.3844C2.85721 16.4729 2.92174 16.5606 2.98667 16.6482C3.0064 16.6754 3.02613 16.7026 3.04645 16.7306C3.20537 16.9395 3.33523 17.0114 3.59046 17.0527C4.11789 17.0914 4.64524 17.086 5.17379 17.0813C4.99982 16.8729 4.82127 16.6773 4.62472 16.4896C3.87402 15.7503 3.34231 14.8221 2.92872 13.8601C2.90519 13.8055 2.88166 13.7509 2.85741 13.6947C2.24382 12.1848 2.14095 10.3594 2.53827 8.78431C2.55263 8.72079 2.56687 8.65724 2.58097 8.59366C2.88732 7.31357 3.5402 6.09538 4.43865 5.13454C4.52831 5.03809 4.61145 4.93891 4.69488 4.83713C5.14721 4.32137 5.71587 3.92004 6.29633 3.56207C6.32662 3.54314 6.35692 3.52421 6.38813 3.50471C8.148 2.41733 10.4326 2.03321 12.4507 2.47899C12.5305 2.49806 12.6102 2.51743 12.6899 2.53714C12.7268 2.54602 12.7636 2.5549 12.8016 2.56405C13.3612 2.70254 13.8805 2.92035 14.3981 3.17162C14.4307 3.18742 14.4633 3.20322 14.4969 3.2195C14.9694 3.45196 15.3956 3.73055 15.8135 4.05013C15.8591 4.08467 15.9046 4.11921 15.9515 4.15479C16.2614 4.39895 16.5388 4.67001 16.8137 4.95204C16.8863 5.02634 16.9599 5.09961 17.0337 5.17267C17.0498 5.17267 17.0659 5.17267 17.0825 5.17267C17.0968 3.53474 17.0968 3.53474 16.936 3.22043C16.7892 3.07108 16.6172 2.9529 16.448 2.82998C16.3978 2.79324 16.3476 2.75649 16.2958 2.71864C15.0783 1.85569 13.7126 1.33367 12.2507 1.07296C12.2157 1.06655 12.1807 1.06014 12.1446 1.05354C9.48181 0.588772 6.44439 1.45545 4.43274 3.26065Z" fill="#7F4DC5"/>
<path d="M16.9358 6.58789C16.9197 6.58789 16.9036 6.58789 16.887 6.58789C16.8792 6.64521 16.8715 6.70252 16.8635 6.76157C16.7913 7.26977 16.6887 7.75251 16.5303 8.24067C16.4958 8.34722 16.4626 8.45412 16.4294 8.5611C16.0892 9.63997 15.5845 10.6533 14.9622 11.5966C14.9327 11.6415 14.9033 11.6864 14.8729 11.7326C14.8451 11.7739 14.8172 11.8152 14.7885 11.8578C14.7637 11.8946 14.739 11.9314 14.7135 11.9693C14.6429 12.068 14.6429 12.068 14.4955 12.103C14.4308 12.2383 14.4308 12.2383 14.3643 12.4141C14.0122 13.2856 13.3236 13.8404 12.581 14.3744C12.3658 14.5291 12.1561 14.6898 11.9484 14.8544C11.9194 14.8774 11.8904 14.9003 11.8605 14.924C11.7952 14.9759 11.7299 15.028 11.6647 15.0801C11.8704 15.2982 12.0981 15.4777 12.3358 15.6597C12.3729 15.6883 12.41 15.717 12.4483 15.7465C12.5231 15.8042 12.598 15.8619 12.673 15.9195C12.7917 16.0109 12.9105 16.1023 13.029 16.1939C13.0646 16.2213 13.1001 16.2488 13.1368 16.2771C13.3069 16.4127 13.3069 16.4127 13.3455 16.6328C13.3404 16.797 13.3227 16.8393 13.2265 16.9836C13.0448 17.1047 12.9002 17.1185 12.6896 17.0812C12.5577 17.0174 12.4512 16.9305 12.3389 16.8372C12.2716 16.784 12.2043 16.7309 12.137 16.6778C12.1009 16.6488 12.0648 16.6198 12.0276 16.59C11.8039 16.4122 11.5752 16.241 11.3475 16.0685C11.2585 16.0006 11.1695 15.9328 11.0806 15.8648C11.0426 15.8359 11.0046 15.8069 10.9655 15.777C10.9386 15.7564 10.9116 15.7358 10.8838 15.7146C10.7422 15.7812 10.6197 15.8574 10.4941 15.9506C10.4569 15.9782 10.4197 16.0057 10.3813 16.0341C10.3418 16.0636 10.3023 16.093 10.2615 16.1234C10.2206 16.1535 10.1797 16.1837 10.1375 16.2147C9.93576 16.3636 9.73616 16.5143 9.54032 16.6709C9.48882 16.7115 9.48882 16.7115 9.43627 16.7528C9.372 16.8036 9.30831 16.8552 9.24534 16.9076C9.01958 17.0847 8.87608 17.1109 8.58994 17.0812C8.46792 17.0405 8.46792 17.0405 8.39471 16.9348C8.37436 16.8684 8.35664 16.8011 8.34095 16.7334C8.31925 16.6398 8.31925 16.6398 8.2971 16.5443C8.25749 16.5529 8.21788 16.5616 8.17708 16.5704C8.02874 16.6026 7.88038 16.6347 7.73201 16.6668C7.63676 16.6873 7.54155 16.7081 7.44633 16.7288C7.38578 16.7418 7.32522 16.7549 7.26283 16.7683C7.17964 16.7864 7.17964 16.7864 7.09476 16.8047C6.92668 16.8379 6.75867 16.8632 6.58889 16.886C7.32936 17.53 8.37425 17.8563 9.3211 18.0382C9.40596 18.0547 9.49053 18.0726 9.57502 18.0909C11.3902 18.438 13.3736 17.907 14.8859 16.886C15.5336 16.4361 16.1197 15.9063 16.5941 15.2754C16.6138 15.2496 16.6335 15.2238 16.6538 15.1972C17.3342 14.3014 17.7794 13.3016 18.0095 12.2006C18.0168 12.1679 18.0241 12.1353 18.0316 12.1017C18.2607 11.0602 18.1999 10.0122 17.9607 8.97939C17.9531 8.94489 17.9456 8.91039 17.9378 8.87484C17.7605 8.07258 17.3916 7.27168 16.9358 6.58789Z" fill="#D0DAFC"/>
<path d="M20.5476 19.3281C20.4931 19.3745 20.4387 19.421 20.3842 19.4674C20.3388 19.5062 20.3388 19.5062 20.2924 19.5458C20.1839 19.6402 20.0817 19.7397 19.9804 19.8417C19.9419 19.8804 19.9034 19.9191 19.8637 19.959C19.8051 20.0182 19.8051 20.0182 19.7454 20.0785C19.705 20.1191 19.6646 20.1597 19.6231 20.2015C19.5244 20.3007 19.4259 20.4 19.3275 20.4995C19.5184 20.7277 19.7165 20.9448 19.9267 21.1553C19.9557 21.1847 19.9848 21.214 20.0148 21.2442C20.1099 21.34 20.2052 21.4357 20.3005 21.5313C20.3496 21.5806 20.3496 21.5806 20.3998 21.6309C20.5728 21.8046 20.7459 21.9782 20.9191 22.1517C21.0977 22.3305 21.2758 22.5098 21.4538 22.6891C21.5912 22.8275 21.7289 22.9655 21.8668 23.1034C21.9326 23.1694 21.9983 23.2354 22.0639 23.3016C22.1555 23.3942 22.2476 23.4862 22.3399 23.5781C22.3667 23.6053 22.3935 23.6326 22.421 23.6606C22.6412 23.8785 22.862 24.0343 23.1831 24.0349C23.4513 24.0256 23.6035 23.9395 23.7902 23.7453C23.9524 23.5604 24.02 23.4149 24.0281 23.1716C24.0299 23.1361 24.0317 23.1006 24.0336 23.0641C23.9773 22.727 23.7291 22.4889 23.4953 22.2592C23.4633 22.2272 23.4314 22.1953 23.3985 22.1624C23.2938 22.0577 23.1885 21.9536 23.0832 21.8495C23.0102 21.7767 22.9371 21.7038 22.8641 21.631C22.6725 21.4399 22.4805 21.2493 22.2884 21.0588C22.0921 20.8641 21.8963 20.6689 21.7005 20.4738C21.3166 20.0915 20.9322 19.7097 20.5476 19.3281Z" fill="#8B47FF"/>
<path d="M13.6654 10.1035C11.7971 10.1035 9.92876 10.1035 8.00385 10.1035C7.92851 10.3672 7.89286 10.5222 7.89404 10.7837C7.89366 10.8675 7.89366 10.8675 7.89328 10.9529C7.90624 11.1284 7.90624 11.1284 8.00385 11.5189C9.88826 11.5189 11.7727 11.5189 13.7142 11.5189C13.7566 11.2645 13.7719 11.039 13.7721 10.7837C13.7727 10.7452 13.7733 10.7067 13.7739 10.667C13.774 10.6294 13.7741 10.5919 13.7742 10.5533C13.7745 10.5028 13.7745 10.5028 13.7748 10.4512C13.763 10.3475 13.763 10.3475 13.6654 10.1035Z" fill="#FCFCFE"/>
<path d="M19.6199 16.6914C19.4436 16.8605 19.2961 17.0344 19.1502 17.2313C18.9232 17.5318 18.68 17.8112 18.4199 18.0834C18.3742 18.1313 18.3288 18.1794 18.2836 18.2278C17.957 18.5772 17.6076 18.8748 17.2223 19.1585C17.0292 19.3009 16.8561 19.4449 16.6916 19.6198C16.801 19.732 16.9109 19.8437 17.021 19.9553C17.052 19.9871 17.0829 20.0189 17.1148 20.0516C17.145 20.0821 17.1752 20.1126 17.2063 20.1441C17.2339 20.1722 17.2615 20.2003 17.29 20.2292C17.4754 20.3905 17.6475 20.4301 17.8886 20.4207C18.2619 20.3586 18.5815 19.9411 18.8368 19.6855C18.8769 19.6456 18.9171 19.6057 18.9584 19.5645C19.0427 19.4805 19.1269 19.3964 19.2109 19.3121C19.3392 19.1837 19.4681 19.0559 19.5971 18.9282C19.6792 18.8462 19.7613 18.7641 19.8434 18.682C19.8817 18.6441 19.92 18.6062 19.9595 18.5672C20.1953 18.3294 20.4182 18.1043 20.474 17.7621C20.4185 17.4356 20.1532 17.212 19.925 16.9903C19.8956 16.9614 19.8662 16.9325 19.8359 16.9026C19.7642 16.832 19.6921 16.7617 19.6199 16.6914Z" fill="#DDEAFA"/>
<path d="M13.226 12.4941C11.6476 12.4941 10.0692 12.4941 8.443 12.4941C8.72924 12.9235 9.05203 13.1902 9.46588 13.4939C9.67973 13.6526 9.89079 13.815 10.1024 13.9766C10.1909 14.0441 10.2793 14.1116 10.3678 14.1791C10.406 14.2082 10.4442 14.2374 10.4835 14.2674C10.5839 14.3438 10.6847 14.4196 10.7857 14.4952C10.9256 14.4293 11.0475 14.3543 11.1719 14.2626C11.2087 14.2356 11.2454 14.2086 11.2832 14.1807C11.3224 14.1516 11.3615 14.1225 11.4019 14.0925C11.4425 14.0624 11.4832 14.0323 11.5251 14.0012C11.8131 13.7868 12.0996 13.5704 12.3841 13.3513C12.4195 13.3243 12.4549 13.2972 12.4914 13.2694C12.7814 13.0442 13.0599 12.8263 13.226 12.4941Z" fill="#FBFBFE"/>
<path d="M10.7598 7.20612C10.6479 7.26688 10.5519 7.32911 10.4524 7.40829C10.4178 7.43555 10.3832 7.46281 10.3475 7.4909C10.2926 7.53485 10.2926 7.53485 10.2366 7.57968C10.1582 7.64175 10.0797 7.70377 10.0012 7.76575C9.9613 7.79727 9.92146 7.82879 9.8804 7.86127C9.76594 7.95081 9.65039 8.03861 9.53406 8.1257C8.7387 8.7212 8.7387 8.7212 8.49179 9.02861C8.49179 9.06082 8.49179 9.09303 8.49179 9.12622C10.038 9.12622 11.5841 9.12622 13.1772 9.12622C12.9455 8.66289 12.4915 8.36851 12.0817 8.07003C11.9184 7.95095 11.759 7.82782 11.6005 7.70246C11.5569 7.6684 11.5132 7.63434 11.4683 7.59925C11.3824 7.53215 11.297 7.46441 11.2122 7.39597C11.1729 7.36562 11.1336 7.33527 11.0932 7.304C11.0412 7.26282 11.0412 7.26282 10.9882 7.22081C10.8833 7.17398 10.8833 7.17398 10.7598 7.20612Z" fill="#FEFDFE"/>
<g clip-path="url(#clip1_7682_6796)">
<path d="M11.3292 0.276923C11.267 0.276206 11.267 0.276206 11.2036 0.275475C10.2716 0.266945 9.37057 0.276284 8.45707 0.483777C8.41088 0.494236 8.36469 0.504696 8.31711 0.515472C7.0141 0.821669 5.73385 1.34929 4.6502 2.14318C4.58989 2.18595 4.52958 2.22872 4.46927 2.27149C3.97153 2.62964 3.52269 3.02859 3.0884 3.46094C3.04642 3.50263 3.04642 3.50263 3.00359 3.54516C2.25616 4.29632 1.67831 5.16202 1.18497 6.09647C1.16624 6.13179 1.1475 6.16711 1.1282 6.2035C0.364949 7.6668 0.0403461 9.31688 0.0471773 10.9557C0.0472825 11.0011 0.0473877 11.0464 0.047496 11.0931C0.0574813 13.7751 1.02435 16.3033 2.86839 18.2629C2.95504 18.3568 3.03701 18.4504 3.11776 18.5491C3.21015 18.6591 3.29676 18.7517 3.40564 18.844C3.43918 18.8725 3.47271 18.901 3.50726 18.9304C3.5462 18.9633 3.58515 18.9962 3.62527 19.0301C3.67277 19.0715 3.72027 19.113 3.76921 19.1557C5.99566 21.0901 8.83656 21.8833 11.7479 21.7041C13.0525 21.598 14.3704 21.2345 15.5296 20.6245C15.5838 20.5969 15.5838 20.5969 15.6392 20.5688C15.6708 20.5521 15.7024 20.5353 15.735 20.5181C15.8286 20.4848 15.8286 20.4848 15.9251 20.5277C16.0306 20.5975 16.1109 20.6721 16.1982 20.7636C16.231 20.7975 16.2638 20.8313 16.2977 20.8661C16.3654 20.9368 16.433 21.0076 16.5005 21.0785C16.9334 21.5233 17.3202 21.7206 17.9474 21.7321C18.1207 21.7144 18.1207 21.7144 18.2383 21.6555C18.4096 21.5806 18.5186 21.5552 18.7063 21.568C19.0138 21.7343 19.2485 22.0304 19.4848 22.2818C19.5582 22.3571 19.6318 22.4322 19.7056 22.5072C19.8994 22.7048 20.0909 22.9045 20.282 23.1048C20.5878 23.4245 20.8969 23.7409 21.2058 24.0575C21.3131 24.168 21.4195 24.2793 21.5258 24.3907C21.5919 24.4593 21.6581 24.5279 21.7242 24.5964C21.7532 24.6273 21.7822 24.6581 21.8121 24.6899C22.1615 25.0492 22.5914 25.285 23.0996 25.2958C23.6612 25.2944 24.1484 25.1994 24.5631 24.7892C24.8996 24.3856 25.0796 24.0044 25.0725 23.4775C25.0721 23.439 25.0717 23.4005 25.0714 23.3608C25.0527 22.6976 24.6891 22.2631 24.2341 21.8136C24.2027 21.7822 24.1712 21.7507 24.1388 21.7183C24.036 21.6156 23.9329 21.5132 23.8298 21.4109C23.758 21.3392 23.6862 21.2676 23.6144 21.1959C23.4264 21.0083 23.2381 20.8209 23.0497 20.6336C22.8572 20.4421 22.6649 20.2502 22.4726 20.0584C22.096 19.6828 21.719 19.3075 21.3419 18.9325C21.3522 18.8958 21.3625 18.8592 21.3731 18.8215C21.3865 18.7734 21.3999 18.7252 21.4137 18.6756C21.4338 18.604 21.4338 18.604 21.4542 18.5311C21.5534 18.137 21.5364 17.709 21.3634 17.339C21.2233 17.1104 21.0422 16.9254 20.8538 16.7362C20.8282 16.7103 20.8027 16.6844 20.7764 16.6577C20.6082 16.4874 20.4387 16.3185 20.2681 16.1505C20.3321 15.9392 20.4162 15.7456 20.5107 15.5469C20.9406 14.6368 21.2336 13.6791 21.3907 12.6853C21.3991 12.6352 21.3991 12.6352 21.4078 12.5841C21.8219 10.0603 21.2334 7.14608 19.7415 5.05574C19.722 5.02875 19.7025 5.00175 19.6825 4.97393C19.6603 4.94284 19.6382 4.91176 19.6154 4.87973C19.3265 4.47614 19.0224 4.09651 18.6806 3.73662C18.5941 3.644 18.513 3.55188 18.4329 3.45408C18.3414 3.3449 18.2562 3.25336 18.1481 3.16201C18.0223 3.05524 17.8972 2.94803 17.7741 2.8381C17.3755 2.48492 16.9619 2.18037 16.5101 1.89915C16.4619 1.86878 16.4619 1.86878 16.4127 1.83779C14.909 0.896265 13.1129 0.294039 11.3292 0.276923Z" fill="#8B47FF"/>
<path d="M10.9594 3.54555C10.8585 3.54607 10.7577 3.54555 10.6568 3.54493C8.73222 3.54282 6.94981 4.33151 5.57766 5.65693C5.53249 5.69902 5.48731 5.74111 5.44077 5.78447C4.47566 6.70721 3.77055 7.99123 3.50301 9.2995C3.484 9.39091 3.46335 9.48199 3.44212 9.57291C3.33848 10.0399 3.3071 10.484 3.31123 10.9615C3.31136 10.9977 3.31149 11.0338 3.31163 11.0711C3.31488 11.6596 3.36526 12.2153 3.5278 12.7826C3.53746 12.8176 3.54712 12.8527 3.55707 12.8888C3.82099 13.8338 4.23282 14.7451 4.84557 15.5158C4.87904 15.5591 4.91251 15.6024 4.94699 15.6471C6.18877 17.2172 7.9944 18.1665 9.96827 18.4282C11.9194 18.637 13.9012 18.0445 15.4269 16.8171C15.8857 16.4386 16.2981 16.0413 16.6566 15.5646C16.6763 15.5388 16.696 15.513 16.7163 15.4864C17.3967 14.5906 17.8419 13.5908 18.072 12.4898C18.0793 12.4571 18.0866 12.4245 18.0941 12.3909C18.3232 11.3494 18.2624 10.3014 18.0232 9.26858C18.0119 9.21683 18.0119 9.21683 18.0003 9.16403C17.8901 8.66563 17.7069 8.21326 17.4863 7.75559C17.4644 7.70954 17.4644 7.70954 17.4421 7.66255C17.0982 6.94837 16.6177 6.32613 16.071 5.75454C16.0408 5.72183 16.0106 5.68911 15.9794 5.65541C14.9893 4.61572 13.5658 3.92588 12.1665 3.65588C12.1299 3.64763 12.0932 3.63937 12.0555 3.63086C11.6903 3.55426 11.3312 3.54327 10.9594 3.54555Z" fill="#FEFEFE"/>
<path d="M11.3292 0.276923C11.267 0.276206 11.267 0.276206 11.2036 0.275475C10.2716 0.266945 9.37057 0.276284 8.45707 0.483777C8.41088 0.494236 8.36469 0.504696 8.31711 0.515472C7.0141 0.821669 5.73385 1.34929 4.6502 2.14318C4.58989 2.18595 4.52958 2.22872 4.46927 2.27149C3.97153 2.62964 3.52269 3.02859 3.0884 3.46094C3.04642 3.50263 3.04642 3.50263 3.00359 3.54516C2.25616 4.29632 1.67831 5.16202 1.18497 6.09647C1.16624 6.13179 1.1475 6.16711 1.1282 6.2035C0.364949 7.6668 0.0403461 9.31688 0.0471773 10.9557C0.0472825 11.0011 0.0473877 11.0464 0.047496 11.0931C0.0574813 13.7751 1.02435 16.3033 2.86839 18.2629C2.95504 18.3568 3.03701 18.4504 3.11776 18.5491C3.21015 18.6591 3.29676 18.7517 3.40564 18.844C3.43918 18.8725 3.47271 18.901 3.50726 18.9304C3.5462 18.9633 3.58515 18.9962 3.62527 19.0301C3.67277 19.0715 3.72027 19.113 3.76921 19.1557C5.99566 21.0901 8.83656 21.8833 11.7479 21.7041C13.0525 21.598 14.3704 21.2345 15.5296 20.6245C15.5838 20.5969 15.5838 20.5969 15.6392 20.5688C15.6708 20.5521 15.7024 20.5353 15.735 20.5181C15.8286 20.4848 15.8286 20.4848 15.9251 20.5277C16.0306 20.5975 16.1109 20.6721 16.1982 20.7636C16.231 20.7975 16.2638 20.8313 16.2977 20.8661C16.3654 20.9368 16.433 21.0076 16.5005 21.0785C16.9334 21.5233 17.3202 21.7206 17.9474 21.7321C18.1207 21.7144 18.1207 21.7144 18.2383 21.6555C18.4096 21.5806 18.5186 21.5552 18.7063 21.568C19.0138 21.7343 19.2485 22.0304 19.4848 22.2818C19.5582 22.3571 19.6318 22.4322 19.7056 22.5072C19.8994 22.7048 20.0909 22.9045 20.282 23.1048C20.5878 23.4245 20.8969 23.7409 21.2058 24.0575C21.3131 24.168 21.4195 24.2793 21.5258 24.3907C21.5919 24.4593 21.6581 24.5279 21.7242 24.5964C21.7532 24.6273 21.7822 24.6581 21.8121 24.6899C22.1615 25.0492 22.5914 25.285 23.0996 25.2958C23.6612 25.2944 24.1484 25.1994 24.5631 24.7892C24.8996 24.3856 25.0796 24.0044 25.0725 23.4775C25.0721 23.439 25.0717 23.4005 25.0714 23.3608C25.0527 22.6976 24.6891 22.2631 24.2341 21.8136C24.2027 21.7822 24.1712 21.7507 24.1388 21.7183C24.036 21.6156 23.9329 21.5132 23.8298 21.4109C23.758 21.3392 23.6862 21.2676 23.6144 21.1959C23.4264 21.0083 23.2381 20.8209 23.0497 20.6336C22.8572 20.4421 22.6649 20.2502 22.4726 20.0584C22.096 19.6828 21.719 19.3075 21.3419 18.9325C21.3522 18.8958 21.3625 18.8592 21.3731 18.8215C21.3865 18.7734 21.3999 18.7252 21.4137 18.6756C21.4338 18.604 21.4338 18.604 21.4542 18.5311C21.5534 18.137 21.5364 17.709 21.3634 17.339C21.2233 17.1104 21.0422 16.9254 20.8538 16.7362C20.8282 16.7103 20.8027 16.6844 20.7764 16.6577C20.6082 16.4874 20.4387 16.3185 20.2681 16.1505C20.3321 15.9392 20.4162 15.7456 20.5107 15.5469C20.9406 14.6368 21.2336 13.6791 21.3907 12.6853C21.3991 12.6352 21.3991 12.6352 21.4078 12.5841C21.8219 10.0603 21.2334 7.14608 19.7415 5.05574C19.722 5.02875 19.7025 5.00175 19.6825 4.97393C19.6603 4.94284 19.6382 4.91176 19.6154 4.87973C19.3265 4.47614 19.0224 4.09651 18.6806 3.73662C18.5941 3.644 18.513 3.55188 18.4329 3.45408C18.3414 3.3449 18.2562 3.25336 18.1481 3.16201C18.0223 3.05524 17.8972 2.94803 17.7741 2.8381C17.3755 2.48492 16.9619 2.18037 16.5101 1.89915C16.4619 1.86878 16.4619 1.86878 16.4127 1.83779C14.909 0.896265 13.1129 0.294039 11.3292 0.276923ZM12.5568 1.41109C12.5989 1.41921 12.6411 1.42732 12.6845 1.43569C15.1788 1.93593 17.3921 3.4116 18.8228 5.51254C18.9708 5.73521 19.1093 5.96273 19.2432 6.19408C19.2621 6.22651 19.2809 6.25893 19.3003 6.29234C20.1303 7.73827 20.4849 9.31829 20.4817 10.974C20.4816 11.0228 20.4816 11.0715 20.4816 11.1217C20.4801 11.8388 20.457 12.5261 20.2681 13.2222C20.259 13.2569 20.2499 13.2916 20.2404 13.3274C20.1875 13.5232 20.1263 13.7148 20.0583 13.9059C20.0223 14.0082 19.9886 14.1111 19.9549 14.2141C19.639 15.1516 19.1767 16.0585 18.5599 16.8338C18.524 16.8799 18.4881 16.9259 18.4511 16.9734C17.5727 18.0741 16.5398 18.9668 15.286 19.6157C15.2066 19.6571 15.1282 19.7004 15.0501 19.744C14.2895 20.1558 13.4071 20.438 12.5568 20.5919C12.5149 20.6004 12.473 20.609 12.4299 20.6178C11.9515 20.7054 11.4768 20.7043 10.9918 20.7022C10.8488 20.7017 10.7059 20.7022 10.563 20.7028C10.0784 20.7032 9.61659 20.6882 9.14035 20.5919C9.10466 20.5855 9.06898 20.5791 9.03221 20.5725C7.10558 20.2272 5.40084 19.3279 3.99091 17.9773C3.92388 17.9131 3.85629 17.8495 3.78866 17.7859C2.70505 16.7417 1.95354 15.3697 1.4778 13.9542C1.46561 13.918 1.45342 13.8818 1.44087 13.8444C0.957349 12.3637 0.857595 10.6487 1.18497 9.12245C1.19873 9.05722 1.19873 9.05722 1.21278 8.99068C1.58469 7.29148 2.37911 5.7829 3.52766 4.48587C3.56648 4.44108 3.60529 4.39628 3.64529 4.35013C3.86754 4.097 4.09862 3.87133 4.35736 3.65617C4.42115 3.60058 4.42115 3.60058 4.48624 3.54388C6.68173 1.65658 9.71589 0.863503 12.5568 1.41109Z" fill="#FEF0F9"/>
<path d="M12.8007 4.82795C12.6907 4.88591 12.6907 4.88591 12.578 4.97437C12.5325 5.00935 12.4869 5.04433 12.44 5.08037C12.4133 5.10135 12.3866 5.12233 12.3591 5.14395C12.1987 5.26934 12.0364 5.39229 11.8745 5.51562C11.7835 5.58497 11.6926 5.65448 11.6019 5.72419C11.5181 5.78846 11.434 5.85238 11.3496 5.91589C11.2828 5.96623 11.2165 6.01731 11.1513 6.06974C11.0711 6.1343 11.0711 6.1343 10.9461 6.19452C10.7627 6.14027 10.6278 6.0505 10.478 5.93371C10.4361 5.90125 10.3941 5.86878 10.3508 5.83534C10.3067 5.80086 10.2625 5.76638 10.217 5.73086C10.1251 5.66014 10.0331 5.58947 9.94099 5.51886C9.89607 5.48432 9.85115 5.44978 9.80486 5.41419C9.76271 5.38179 9.72056 5.34939 9.67713 5.31601C9.64089 5.28814 9.60465 5.26027 9.56732 5.23155C9.47533 5.16133 9.3827 5.09209 9.28973 5.02317C9.23896 4.98492 9.18819 4.94667 9.13588 4.90726C8.97397 4.81685 8.88357 4.80625 8.70101 4.82795C8.53048 4.90934 8.46544 4.96168 8.35937 5.12079C8.33619 5.37107 8.35675 5.50548 8.50578 5.70646C8.62785 5.81545 8.75826 5.91171 8.89013 6.00845C8.96475 6.06429 9.03935 6.12015 9.11395 6.17603C9.15112 6.20364 9.18829 6.23125 9.22658 6.2597C9.38614 6.37872 9.54391 6.50001 9.70153 6.62157C9.75237 6.66058 9.8032 6.69958 9.85558 6.73977C9.96194 6.81897 9.96194 6.81897 10.0188 6.8778C9.97203 6.91272 9.92528 6.94764 9.87712 6.98361C9.66374 7.14318 9.45075 7.30324 9.23788 7.46347C9.20113 7.4911 9.16439 7.51873 9.12654 7.54719C8.10245 8.31859 7.22568 9.15646 7.00652 10.4804C6.87093 11.5338 7.10961 12.5992 7.74681 13.4561C8.17483 14.0069 8.7093 14.3984 9.27267 14.8013C9.43749 14.9205 9.59876 15.0441 9.75949 15.1687C9.81001 15.2079 9.86053 15.247 9.91258 15.2873C9.96515 15.3283 9.96515 15.3283 10.0188 15.3701C9.82837 15.5715 9.62291 15.7343 9.39955 15.8978C9.32998 15.9494 9.26046 16.001 9.19098 16.0528C9.15733 16.0778 9.12369 16.1028 9.08903 16.1286C8.96149 16.224 8.83536 16.321 8.71016 16.4194C8.67361 16.4481 8.63705 16.4768 8.59939 16.5063C8.36739 16.7142 8.36739 16.7142 8.34717 16.8937C8.36823 17.0859 8.38522 17.1962 8.50884 17.3497C8.70099 17.4438 8.83774 17.4796 9.04265 17.4199C9.21766 17.3156 9.372 17.1889 9.52945 17.0601C9.73773 16.8927 9.95225 16.7333 10.1652 16.5719C10.2537 16.5044 10.3421 16.437 10.4306 16.3694C10.5694 16.2634 10.7086 16.158 10.8485 16.0533C10.992 16.1207 11.116 16.1985 11.2433 16.2928C11.2813 16.3208 11.3193 16.3489 11.3585 16.3778C11.3985 16.4076 11.4386 16.4374 11.4799 16.4682C11.521 16.4987 11.5622 16.5291 11.6046 16.5605C11.9007 16.7803 12.194 17.0035 12.485 17.23C12.6806 17.3798 12.793 17.4415 13.0446 17.4359C13.1975 17.4109 13.2808 17.3335 13.3864 17.2247C13.47 17.0575 13.4851 16.9139 13.4352 16.7366C13.297 16.5621 13.1233 16.4314 12.9471 16.2974C12.9163 16.2737 12.8854 16.2499 12.8537 16.2255C12.6586 16.0761 12.4618 15.9292 12.2638 15.7837C12.1004 15.6631 11.9381 15.541 11.7758 15.4189C11.9914 15.1863 12.2378 15.0055 12.4926 14.8179C12.5807 14.7523 12.6688 14.6867 12.7569 14.621C12.8195 14.5744 12.8195 14.5744 12.8833 14.5268C13.7179 13.9039 14.326 13.2533 14.6553 12.2465C14.6709 12.2022 14.6865 12.158 14.7026 12.1124C14.9994 11.1437 14.7784 10.1029 14.3385 9.22087C13.9381 8.48337 13.3478 8.03545 12.6808 7.55363C12.4872 7.41302 12.2963 7.26891 12.1052 7.12488C12.0409 7.07663 11.9766 7.02839 11.9123 6.98018C11.8672 6.9464 11.8222 6.91261 11.7758 6.8778C12.161 6.5441 12.5609 6.23789 12.9758 5.94189C13.0142 5.91415 13.0526 5.88641 13.0922 5.85783C13.1437 5.82109 13.1437 5.82109 13.1963 5.7836C13.3708 5.63803 13.4306 5.5477 13.4596 5.31906C13.4538 5.14747 13.4351 5.12063 13.3193 4.97742C13.1337 4.83157 13.0369 4.80926 12.8007 4.82795Z" fill="#00CEC9"/>
<path d="M11.3535 2.57636C11.2915 2.5763 11.2294 2.57624 11.1655 2.57617C11.1012 2.57636 11.0369 2.57655 10.9707 2.57674C10.8765 2.57646 10.8765 2.57646 10.7804 2.57617C10.2259 2.57673 9.66451 2.58091 9.12214 2.70791C9.08641 2.71614 9.05068 2.72436 9.01387 2.73284C8.20707 2.92815 7.42379 3.19938 6.70014 3.60777C6.65426 3.63313 6.65426 3.63313 6.60746 3.65901C5.6656 4.1833 4.81531 4.89637 4.16222 5.75524C4.12687 5.79959 4.09151 5.84395 4.05508 5.88964C3.22646 6.95068 2.70236 8.19379 2.45401 9.5133C2.44568 9.55478 2.43736 9.59626 2.42877 9.639C2.35419 10.0378 2.33694 10.429 2.3381 10.8341C2.33811 10.8678 2.33812 10.9014 2.33813 10.9361C2.34103 11.8935 2.44489 12.8624 2.79565 13.7594C2.80975 13.7959 2.82385 13.8323 2.83838 13.8698C3.15604 14.6794 3.53664 15.4105 4.06461 16.1021C4.09802 16.1465 4.13143 16.191 4.16585 16.2367C5.54173 17.9926 7.58262 19.106 9.78826 19.3889C12.0133 19.6307 14.2196 18.993 15.9824 17.6182C17.7703 16.1411 18.9493 14.1239 19.1842 11.7919C19.3088 10.2045 19.0359 8.64246 18.316 7.21942C18.2993 7.18625 18.2825 7.15307 18.2653 7.1189C17.8959 6.39894 17.4122 5.75249 16.8518 5.16956C16.8302 5.1467 16.8086 5.12383 16.7863 5.10026C15.4977 3.74091 13.8002 2.94763 11.9712 2.63165C11.9252 2.62296 11.8792 2.61428 11.8319 2.60533C11.6702 2.58166 11.5168 2.57652 11.3535 2.57636ZM15.8757 5.56001C15.9213 5.60154 15.9669 5.64306 16.0139 5.68584C16.6096 6.25514 17.064 6.92739 17.4375 7.65867C17.4535 7.69008 17.4696 7.72149 17.4861 7.75385C17.8017 8.38092 17.9879 9.01998 18.1207 9.70853C18.1309 9.75458 18.141 9.80063 18.1514 9.84808C18.4097 11.1847 18.1861 12.6714 17.6327 13.9058C17.6174 13.94 17.6021 13.9742 17.5863 14.0094C17.0757 15.1265 16.3219 16.1401 15.3388 16.883C15.3008 16.9122 15.3008 16.9122 15.262 16.9421C13.7586 18.0929 11.8513 18.6223 9.96564 18.4294C8.26139 18.2024 6.77647 17.4739 5.52879 16.2973C5.49589 16.267 5.46298 16.2367 5.42908 16.2054C4.35403 15.1797 3.70707 13.7344 3.43013 12.2952C3.42187 12.2619 3.41362 12.2286 3.40511 12.1943C3.31329 11.8024 3.31313 11.4111 3.31422 11.011C3.31424 10.9743 3.31427 10.9376 3.3143 10.8998C3.31632 10.2899 3.363 9.7129 3.52774 9.12285C3.54304 9.06715 3.54304 9.06715 3.55865 9.01032C3.80763 8.1334 4.20728 7.31793 4.7479 6.58494C4.78124 6.5397 4.81458 6.49447 4.84894 6.44786C6.02225 4.94665 7.77505 3.84652 9.68255 3.59416C11.9912 3.34162 14.1534 3.9905 15.8757 5.56001Z" fill="#5E0482" fill-opacity="0.7"/>
<path d="M4.49524 3.54972C4.39623 3.63985 4.29854 3.73108 4.20107 3.82291C4.10578 3.911 4.01102 3.99442 3.9109 4.07648C3.72774 4.22995 3.58267 4.39962 3.43047 4.58322C3.40944 4.60827 3.38841 4.63332 3.36675 4.65912C2.97315 5.12968 2.62432 5.61938 2.30793 6.14501C2.28115 6.18949 2.28115 6.18949 2.25383 6.23486C0.996349 8.36373 0.716515 11.034 1.31858 13.4112C1.38253 13.6438 1.45666 13.8715 1.53952 14.0981C1.57492 14.1955 1.60799 14.2934 1.64066 14.3917C1.9075 15.1721 2.30961 15.9242 2.79599 16.5895C2.82574 16.6311 2.82574 16.6311 2.85609 16.6734C2.91971 16.7619 2.98424 16.8497 3.04917 16.9372C3.0689 16.9645 3.08863 16.9917 3.10895 17.0197C3.26787 17.2286 3.39773 17.3005 3.65296 17.3418C4.18039 17.3804 4.70774 17.375 5.23629 17.3704C5.06232 17.162 4.88377 16.9663 4.68722 16.7786C3.93652 16.0393 3.40481 15.1112 2.99122 14.1492C2.96769 14.0946 2.94416 14.04 2.91991 13.9837C2.30632 12.4739 2.20345 10.6485 2.60077 9.07338C2.61513 9.00986 2.62937 8.94631 2.64347 8.88273C2.94982 7.60264 3.6027 6.38445 4.50115 5.4236C4.59081 5.32715 4.67395 5.22797 4.75738 5.12619C5.20971 4.61043 5.77837 4.2091 6.35883 3.85113C6.38912 3.8322 6.41942 3.81327 6.45063 3.79377C8.2105 2.70639 10.4951 2.32228 12.5132 2.76806C12.593 2.78712 12.6727 2.80649 12.7524 2.8262C12.7893 2.83508 12.8261 2.84396 12.8641 2.85311C13.4237 2.99161 13.943 3.20941 14.4606 3.46068C14.4932 3.47648 14.5258 3.49228 14.5594 3.50856C15.0319 3.74102 15.4581 4.01961 15.876 4.33919C15.9216 4.37373 15.9671 4.40827 16.014 4.44386C16.3239 4.68801 16.6013 4.95907 16.8762 5.2411C16.9488 5.3154 17.0224 5.38867 17.0962 5.46173C17.1123 5.46173 17.1284 5.46173 17.145 5.46173C17.1593 3.8238 17.1593 3.8238 16.9985 3.50949C16.8517 3.36014 16.6797 3.24196 16.5105 3.11904C16.4603 3.0823 16.4101 3.04556 16.3583 3.0077C15.1408 2.14475 13.7751 1.62273 12.3132 1.36202C12.2782 1.35561 12.2432 1.3492 12.2071 1.3426C9.54431 0.877835 6.50689 1.74451 4.49524 3.54972Z" fill="#C0ACFF"/>
<path d="M16.9983 6.87695C16.9822 6.87695 16.9661 6.87695 16.9495 6.87695C16.9417 6.93427 16.934 6.99158 16.926 7.05063C16.8538 7.55883 16.7512 8.04157 16.5928 8.52973C16.5583 8.63629 16.5251 8.74319 16.4919 8.85017C16.1517 9.92904 15.647 10.9424 15.0247 11.8857C14.9952 11.9305 14.9658 11.9754 14.9354 12.0217C14.9076 12.063 14.8797 12.1043 14.851 12.1469C14.8262 12.1836 14.8015 12.2204 14.776 12.2583C14.7054 12.357 14.7054 12.357 14.558 12.392C14.4933 12.5274 14.4933 12.5274 14.4268 12.7032C14.0747 13.5747 13.3861 14.1295 12.6435 14.6634C12.4283 14.8182 12.2186 14.9789 12.0109 15.1435C11.9819 15.1664 11.9529 15.1894 11.923 15.2131C11.8577 15.265 11.7924 15.3171 11.7272 15.3692C11.9329 15.5873 12.1606 15.7667 12.3983 15.9488C12.4354 15.9774 12.4725 16.006 12.5108 16.0355C12.5856 16.0932 12.6605 16.1509 12.7355 16.2086C12.8542 16.2999 12.973 16.3913 13.0915 16.483C13.1271 16.5104 13.1626 16.5378 13.1993 16.5661C13.3694 16.7018 13.3694 16.7018 13.408 16.9218C13.4029 17.0861 13.3852 17.1284 13.289 17.2726C13.1073 17.3938 12.9627 17.4075 12.7521 17.3702C12.6202 17.3065 12.5137 17.2195 12.4014 17.1262C12.3341 17.0731 12.2668 17.0199 12.1995 16.9668C12.1634 16.9379 12.1273 16.9089 12.0901 16.879C11.8664 16.7013 11.6377 16.5301 11.41 16.3575C11.321 16.2897 11.232 16.2218 11.1431 16.1539C11.1051 16.1249 11.0671 16.0959 11.028 16.0661C11.0011 16.0455 10.9741 16.0249 10.9463 16.0037C10.8047 16.0702 10.6822 16.1465 10.5566 16.2397C10.5194 16.2673 10.4822 16.2948 10.4438 16.3232C10.4043 16.3526 10.3648 16.3821 10.324 16.4124C10.2831 16.4426 10.2422 16.4727 10.2 16.5038C9.99826 16.6527 9.79866 16.8034 9.60282 16.96C9.55132 17.0005 9.55132 17.0005 9.49877 17.0419C9.4345 17.0927 9.37081 17.1442 9.30784 17.1966C9.08208 17.3738 8.93858 17.3999 8.65244 17.3702C8.53042 17.3296 8.53042 17.3296 8.45721 17.2238C8.43686 17.1574 8.41914 17.0902 8.40345 17.0225C8.38175 16.9289 8.38175 16.9289 8.3596 16.8334C8.31999 16.842 8.28038 16.8506 8.23958 16.8595C8.09124 16.8917 7.94288 16.9238 7.79451 16.9558C7.69926 16.9764 7.60405 16.9971 7.50883 17.0178C7.44828 17.0309 7.38772 17.0439 7.32533 17.0574C7.24214 17.0754 7.24214 17.0754 7.15726 17.0938C6.98918 17.127 6.82117 17.1523 6.65139 17.175C7.39186 17.819 8.43675 18.1454 9.3836 18.3273C9.46846 18.3437 9.55303 18.3617 9.63752 18.3799C11.4527 18.727 13.4361 18.1961 14.9484 17.175C15.5961 16.7252 16.1822 16.1953 16.6566 15.5644C16.6763 15.5386 16.696 15.5129 16.7163 15.4863C17.3967 14.5904 17.8419 13.5906 18.072 12.4896C18.0793 12.457 18.0866 12.4244 18.0941 12.3907C18.3232 11.3493 18.2624 10.3013 18.0232 9.26845C18.0156 9.23395 18.0081 9.19945 18.0003 9.1639C17.823 8.36164 17.4541 7.56074 16.9983 6.87695Z" fill="#D0DAFC"/>
<path d="M20.6101 19.6172C20.5556 19.6636 20.5012 19.71 20.4467 19.7565C20.4013 19.7953 20.4013 19.7953 20.3549 19.8348C20.2464 19.9293 20.1442 20.0287 20.0429 20.1308C20.0044 20.1695 19.9659 20.2082 19.9262 20.248C19.8676 20.3072 19.8676 20.3072 19.8079 20.3676C19.7675 20.4082 19.7271 20.4487 19.6856 20.4905C19.5869 20.5898 19.4884 20.6891 19.39 20.7885C19.5809 21.0167 19.779 21.2338 19.9892 21.4444C20.0182 21.4737 20.0473 21.5031 20.0773 21.5333C20.1724 21.6291 20.2677 21.7247 20.363 21.8203C20.4121 21.8697 20.4121 21.8697 20.4623 21.92C20.6353 22.0937 20.8084 22.2673 20.9816 22.4407C21.1602 22.6196 21.3383 22.7988 21.5163 22.9782C21.6537 23.1165 21.7914 23.2545 21.9293 23.3925C21.9951 23.4584 22.0608 23.5245 22.1264 23.5907C22.218 23.6832 22.3101 23.7752 22.4024 23.8672C22.4292 23.8944 22.456 23.9216 22.4835 23.9497C22.7037 24.1675 22.9245 24.3234 23.2456 24.3239C23.5138 24.3147 23.666 24.2286 23.8527 24.0343C24.0149 23.8495 24.0825 23.704 24.0906 23.4607C24.0924 23.4252 24.0942 23.3897 24.0961 23.3531C24.0398 23.0161 23.7916 22.778 23.5578 22.5482C23.5258 22.5163 23.4939 22.4843 23.461 22.4514C23.3563 22.3468 23.251 22.2426 23.1457 22.1385C23.0727 22.0657 22.9996 21.9929 22.9266 21.92C22.735 21.729 22.543 21.5384 22.3509 21.3479C22.1546 21.1532 21.9588 20.958 21.763 20.7629C21.3791 20.3806 20.9947 19.9987 20.6101 19.6172Z" fill="#8B47FF"/>
<path d="M13.7279 10.3926C11.8596 10.3926 9.99126 10.3926 8.06635 10.3926C7.99101 10.6563 7.95536 10.8112 7.95654 11.0728C7.95616 11.1565 7.95616 11.1565 7.95578 11.2419C7.96874 11.4175 7.96874 11.4175 8.06635 11.808C9.95076 11.808 11.8352 11.808 13.7767 11.808C13.8191 11.5536 13.8344 11.3281 13.8346 11.0728C13.8352 11.0343 13.8358 10.9957 13.8364 10.956C13.8365 10.9185 13.8366 10.881 13.8367 10.8423C13.837 10.7918 13.837 10.7918 13.8373 10.7403C13.8255 10.6366 13.8255 10.6366 13.7279 10.3926Z" fill="#FCFCFE"/>
<path d="M19.6824 16.9805C19.5061 17.1496 19.3586 17.3234 19.2127 17.5204C18.9857 17.8209 18.7425 18.1003 18.4824 18.3724C18.4367 18.4203 18.3913 18.4685 18.3461 18.5169C18.0195 18.8663 17.6701 19.1639 17.2848 19.4475C17.0917 19.59 16.9186 19.734 16.7541 19.9088C16.8635 20.0211 16.9734 20.1328 17.0835 20.2444C17.1145 20.2761 17.1454 20.3079 17.1773 20.3407C17.2075 20.3712 17.2377 20.4017 17.2688 20.4331C17.2964 20.4612 17.324 20.4893 17.3525 20.5183C17.5379 20.6796 17.71 20.7192 17.9511 20.7098C18.3244 20.6477 18.644 20.2302 18.8993 19.9746C18.9394 19.9347 18.9796 19.8947 19.0209 19.8536C19.1052 19.7696 19.1894 19.6854 19.2734 19.6012C19.4017 19.4728 19.5306 19.345 19.6596 19.2173C19.7417 19.1352 19.8238 19.0531 19.9059 18.971C19.9442 18.9331 19.9825 18.8953 20.022 18.8562C20.2578 18.6184 20.4807 18.3933 20.5365 18.0512C20.481 17.7247 20.2157 17.5011 19.9875 17.2794C19.9581 17.2505 19.9287 17.2215 19.8984 17.1917C19.8267 17.1211 19.7546 17.0507 19.6824 16.9805Z" fill="#DDEAFA"/>
<path d="M13.2885 12.7832C11.7101 12.7832 10.1317 12.7832 8.5055 12.7832C8.79174 13.2126 9.11453 13.4793 9.52838 13.783C9.74223 13.9417 9.95329 14.1041 10.1649 14.2657C10.2534 14.3332 10.3418 14.4007 10.4303 14.4682C10.4685 14.4973 10.5067 14.5265 10.546 14.5565C10.6464 14.6329 10.7472 14.7087 10.8482 14.7843C10.9881 14.7183 11.11 14.6434 11.2344 14.5517C11.2712 14.5246 11.3079 14.4976 11.3457 14.4698C11.3849 14.4407 11.424 14.4116 11.4644 14.3816C11.505 14.3515 11.5457 14.3213 11.5876 14.2903C11.8756 14.0759 12.1621 13.8595 12.4466 13.6404C12.482 13.6133 12.5174 13.5863 12.5539 13.5584C12.8439 13.3332 13.1224 13.1153 13.2885 12.7832Z" fill="#FBFBFE"/>
<path d="M10.8223 7.49518C10.7104 7.55594 10.6144 7.61817 10.5149 7.69735C10.4803 7.72461 10.4457 7.75187 10.41 7.77996C10.3551 7.82391 10.3551 7.82391 10.2991 7.86874C10.2207 7.93081 10.1422 7.99284 10.0637 8.05482C10.0238 8.08634 9.98396 8.11786 9.9429 8.15033C9.82844 8.23988 9.71289 8.32767 9.59656 8.41476C8.8012 9.01027 8.8012 9.01026 8.55429 9.31767C8.55429 9.34988 8.55429 9.3821 8.55429 9.41528C10.1005 9.41528 11.6466 9.41528 13.2397 9.41528C13.008 8.95195 12.554 8.65757 12.1442 8.35909C11.9809 8.24001 11.8215 8.11689 11.663 7.99152C11.6194 7.95746 11.5757 7.9234 11.5308 7.88831C11.4449 7.82122 11.3595 7.75347 11.2747 7.68503C11.2354 7.65468 11.1961 7.62433 11.1557 7.59307C11.1037 7.55188 11.1037 7.55188 11.0507 7.50987C10.9458 7.46304 10.9458 7.46304 10.8223 7.49518Z" fill="#FEFDFE"/>
</g>
</g>
<defs>
<clipPath id="clip0_7682_6796">
<rect width="24.9887" height="24.9887" fill="white" transform="matrix(-1 0 0 1 24.9887 0)"/>
</clipPath>
<clipPath id="clip1_7682_6796">
<rect width="24.9887" height="24.9887" fill="white" transform="matrix(-1 0 0 1 25.0512 0.289062)"/>
</clipPath>
</defs>
</svg>
