<svg width="25" height="25" viewBox="0 0 25 25" fill="none" xmlns="http://www.w3.org/2000/svg">
<path d="M24.5506 0.231339C24.7624 0.411836 24.9015 0.635865 24.989 0.897834C25.058 1.82156 24.7966 2.5311 24.355 3.33044C24.3384 3.36071 24.3218 3.39099 24.3047 3.42218C23.6386 4.62228 22.67 5.67437 21.6796 6.61602C21.5079 6.77984 21.338 6.94557 21.1678 7.11089C21.0192 7.25501 20.87 7.39845 20.7195 7.54065C20.5722 7.6799 20.4267 7.82076 20.2822 7.96286C20.2273 8.01623 20.1718 8.069 20.1157 8.1211C19.7949 8.40481 19.7949 8.40481 19.6608 8.79318C19.6848 8.94223 19.7207 9.07498 19.7703 9.21734C19.785 9.28228 19.799 9.34738 19.8118 9.41271C19.8305 9.4906 19.8305 9.4906 19.8496 9.57007C19.8686 9.65022 19.8686 9.65022 19.8881 9.73199C19.8975 9.77087 19.9069 9.80976 19.9166 9.84982C19.9649 9.83376 20.0132 9.81771 20.063 9.80117C20.4688 9.68942 20.8142 9.75488 21.1847 9.94712C21.3626 10.0794 21.5182 10.2262 21.6725 10.385C21.7172 10.4298 21.7172 10.4298 21.7628 10.4755C22.0865 10.8223 22.1414 11.1626 22.1274 11.6311C22.071 12.2122 21.6149 12.6059 21.2021 12.9801C21.1728 13.0073 21.1435 13.0345 21.1134 13.0625C21.0565 13.115 20.9987 13.1663 20.9397 13.2164C20.8221 13.3253 20.75 13.3946 20.7376 13.5586C20.7491 13.6713 20.7684 13.7777 20.7945 13.8879C20.8032 13.9308 20.8118 13.9737 20.8206 14.0179C20.8291 14.0513 20.8376 14.0847 20.8464 14.119C20.8828 14.2726 20.9024 14.4102 20.8921 14.5691C20.918 14.5556 20.9439 14.5421 20.9706 14.5282C21.005 14.5106 21.0395 14.493 21.075 14.4748C21.1089 14.4573 21.1429 14.4398 21.1779 14.4218C21.5198 14.2668 21.9171 14.2756 22.2669 14.4018C22.5161 14.5142 22.7012 14.6675 22.8918 14.861C22.9441 14.9133 22.9441 14.9133 22.9975 14.9666C23.3116 15.2977 23.4321 15.5452 23.4496 16.0013C23.4359 16.4945 23.2349 16.8061 22.8918 17.1476C22.7966 17.2241 22.7004 17.2993 22.6035 17.3737C22.0304 17.8171 22.0304 17.8171 21.7384 18.4514C21.7488 18.9084 21.8758 19.3409 22.0095 19.7754C22.0729 19.9865 22.1271 20.2002 22.1828 20.4135C22.2263 20.5795 22.271 20.7449 22.3199 20.9094C22.5622 21.7452 22.5622 21.7452 22.4061 22.1271C22.2649 22.3759 22.0547 22.5794 21.8523 22.7791C21.8218 22.8105 21.7913 22.8419 21.7598 22.8743C21.5142 23.1191 21.2484 23.3314 20.889 23.3477C20.5442 23.3095 20.3395 23.1931 20.1117 22.9372C20.0155 22.7915 19.931 22.6399 19.8465 22.4872C19.8214 22.4426 19.7963 22.3981 19.7705 22.3521C19.6888 22.2068 19.6076 22.0612 19.5264 21.9155C19.4706 21.816 19.4147 21.7166 19.3588 21.6172C19.2439 21.4128 19.1291 21.2083 19.0145 21.0037C18.8528 20.7152 18.6899 20.4274 18.5266 20.1397C18.277 19.6999 18.0292 19.2592 17.7819 18.8181C17.592 18.4797 17.4013 18.1419 17.2097 17.8044C16.9602 17.3646 16.7123 16.9239 16.465 16.4828C16.2497 16.099 16.0332 15.7159 15.8156 15.3333C15.6724 15.081 15.5303 14.8281 15.3895 14.5744C15.3586 14.5187 15.3276 14.4631 15.2957 14.4057C15.2357 14.2978 15.176 14.1898 15.1164 14.0817C15.0893 14.0331 15.0623 13.9844 15.0344 13.9343C15.0106 13.8912 14.9868 13.8482 14.9623 13.8038C14.8982 13.7016 14.8331 13.6303 14.7467 13.5474C14.7186 13.5755 14.7186 13.5755 14.6899 13.6042C14.2324 14.0616 13.7748 14.5189 13.317 14.976C13.0957 15.1971 12.8743 15.4182 12.6531 15.6395C12.4394 15.8531 12.2256 16.0667 12.0118 16.2802C11.9304 16.3615 11.849 16.4428 11.7677 16.5242C11.6534 16.6385 11.539 16.7527 11.4245 16.8668C11.3913 16.9002 11.358 16.9335 11.3238 16.9679C11.1345 17.1563 10.9402 17.3359 10.7374 17.5097C10.5718 17.653 10.413 17.8039 10.2544 17.9549C10.0961 18.1034 9.94132 18.2164 9.75359 18.3274C9.65139 18.3991 9.65139 18.3991 9.57679 18.5099C9.56224 18.6713 9.56224 18.6713 9.58383 18.8536C9.58674 18.8877 9.58966 18.9219 9.59267 18.9571C9.6025 19.0676 9.61385 19.178 9.62556 19.2883C9.63101 19.342 9.63101 19.342 9.63658 19.3967C9.65981 19.6236 9.68542 19.8501 9.71201 20.0767C9.72679 20.2028 9.74126 20.329 9.75566 20.4552C9.79657 20.8133 9.83788 21.1714 9.87965 21.5295C9.90539 21.7502 9.93068 21.971 9.95572 22.1918C9.96522 22.2748 9.97488 22.3578 9.98471 22.4408C10.1594 23.9155 10.1594 23.9155 9.94563 24.2235C9.8896 24.2831 9.83148 24.3407 9.77188 24.3968C9.73604 24.4348 9.70021 24.4728 9.66328 24.512C9.23315 24.9611 9.23315 24.9611 8.94579 25C8.8965 24.9996 8.84721 24.9992 8.79642 24.9989C8.74713 24.9992 8.69784 24.9996 8.64706 25C8.42783 24.9703 8.30803 24.8861 8.15857 24.7263C8.04926 24.569 7.96446 24.4048 7.88193 24.2326C7.84772 24.1627 7.81343 24.0929 7.77905 24.0232C7.76173 23.988 7.74441 23.9528 7.72656 23.9166C7.64745 23.7587 7.56371 23.6034 7.47956 23.4481C7.29358 23.1036 7.11774 22.7545 6.9437 22.4039C6.89335 22.3029 6.84255 22.2021 6.79159 22.1014C6.26023 21.0503 6.26023 21.0503 6.26023 20.8938C6.20751 20.9174 6.20751 20.9174 6.15372 20.9414C5.99322 21.013 5.83257 21.0842 5.67191 21.1553C5.61662 21.1801 5.56132 21.2048 5.50435 21.2302C4.61623 21.6228 4.61623 21.6228 4.15691 21.4655C3.89044 21.3547 3.7024 21.2089 3.5682 20.9467C3.38798 20.4806 3.52645 20.0933 3.71671 19.6555C3.79292 19.4872 3.87127 19.32 3.94972 19.1528C3.96555 19.119 3.98139 19.0852 3.99771 19.0503C4.03653 18.9675 4.07538 18.8846 4.11423 18.8018C4.06711 18.7787 4.01999 18.7556 3.97145 18.7317C3.52688 18.5135 3.08267 18.2945 2.63881 18.0747C2.41062 17.9618 2.18231 17.8491 1.95371 17.7371C1.73299 17.6288 1.51261 17.5199 1.29246 17.4106C1.20851 17.369 1.12445 17.3277 1.04027 17.2866C0.922136 17.229 0.804461 17.1704 0.686853 17.1117C0.652157 17.095 0.617461 17.0783 0.581714 17.0611C0.324993 16.9312 0.148872 16.7776 0.0173104 16.5152C-0.0107409 16.2385 -0.0245357 15.9673 0.137718 15.728C0.475422 15.3275 0.793133 14.9582 1.33418 14.9096C1.49407 14.9161 1.65192 14.9343 1.81076 14.9532C1.85736 14.9585 1.90395 14.9637 1.95196 14.969C2.10527 14.9863 2.25851 15.0041 2.41175 15.022C2.5187 15.0341 2.62565 15.0461 2.7326 15.0582C3.01379 15.0899 3.29492 15.1221 3.57603 15.1544C4.02594 15.2061 4.47592 15.2571 4.92593 15.308C5.08284 15.3258 5.23971 15.3438 5.39658 15.362C5.49309 15.373 5.5896 15.3839 5.68611 15.3949C5.72949 15.4 5.77288 15.4051 5.81758 15.4103C6.04717 15.4362 6.27273 15.4585 6.5041 15.4448C6.61452 15.3565 6.61452 15.3565 6.69919 15.2259C6.88738 14.977 7.08725 14.7493 7.30275 14.5235C7.36107 14.4622 7.41937 14.401 7.47765 14.3397C7.52193 14.2932 7.52193 14.2932 7.56711 14.2457C7.68207 14.1233 7.79455 13.9989 7.90726 13.8744C8.25232 13.4969 8.61564 13.1378 8.97837 12.7773C9.05088 12.7051 9.12337 12.6328 9.19586 12.5606C9.38474 12.3723 9.57375 12.1843 9.76281 11.9962C9.95647 11.8035 10.15 11.6107 10.3435 11.4179C10.7219 11.041 11.1003 10.6643 11.4789 10.2877C11.3136 10.1535 11.1531 10.0406 10.9661 9.93838C10.9137 9.90958 10.8613 9.88079 10.8074 9.85112C10.7514 9.82059 10.6953 9.79005 10.6376 9.75859C10.5786 9.7262 10.5196 9.69377 10.4606 9.66131C10.3696 9.6113 10.2787 9.5613 10.1877 9.51138C9.88975 9.34794 9.59293 9.18253 9.29634 9.01665C9.24625 8.98866 9.19616 8.96066 9.14455 8.93182C8.76238 8.71808 8.38091 8.5031 7.99962 8.2878C7.65611 8.09392 7.31191 7.9013 6.96744 7.70913C6.53047 7.46535 6.09427 7.22026 5.65858 6.97421C5.31504 6.78034 4.97083 6.58771 4.62634 6.39552C4.13766 6.12277 3.64913 5.84976 3.1624 5.57357C2.98486 5.47286 2.80653 5.37384 2.62742 5.27595C2.54384 5.22953 2.46026 5.18309 2.3767 5.13665C2.33886 5.11641 2.30102 5.09617 2.26203 5.07532C1.99639 4.92615 1.78813 4.75394 1.69471 4.45041C1.62694 4.10213 1.68198 3.86704 1.87068 3.5737C1.99804 3.42139 2.13675 3.28321 2.27915 3.14495C2.31537 3.10848 2.35158 3.07201 2.38889 3.03444C2.65903 2.76807 2.85686 2.59521 3.24938 2.5877C3.58089 2.59078 3.88646 2.65648 4.20726 2.73572C4.30823 2.76054 4.4094 2.78432 4.51069 2.80783C4.79815 2.87465 5.0853 2.9426 5.37195 3.0128C5.54844 3.05594 5.72526 3.09736 5.90241 3.13771C5.9694 3.15332 6.03624 3.16958 6.1029 3.18651C6.458 3.28993 6.458 3.28993 6.80876 3.23337C6.89862 3.1585 6.96805 3.08134 7.0406 2.98987C7.08533 2.94606 7.13006 2.90224 7.17614 2.8571C7.21887 2.81299 7.26159 2.76888 7.30561 2.72343C7.35382 2.67425 7.40206 2.62509 7.45031 2.57595C7.52458 2.50006 7.59869 2.42403 7.67242 2.34761C8.06165 1.94496 8.40494 1.62569 8.99761 1.61241C9.50392 1.61802 9.8107 1.81301 10.1621 2.16279C10.1929 2.19295 10.2237 2.22312 10.2554 2.2542C10.545 2.55841 10.7044 2.88353 10.7229 3.30611C10.7117 3.62099 10.5939 3.87978 10.4547 4.15752C10.4999 4.1611 10.4999 4.1611 10.546 4.16475C10.7976 4.18691 11.0348 4.22202 11.2787 4.28866C11.4109 4.30775 11.4966 4.29287 11.6252 4.25483C11.7416 4.16394 11.7416 4.16394 11.8504 4.04578C11.8921 4.00313 11.9338 3.96048 11.9768 3.91654C12.0197 3.87164 12.0626 3.82674 12.1069 3.78047C12.886 2.9723 12.886 2.9723 13.399 2.92659C13.9842 2.92464 14.2564 3.00722 14.6819 3.41216C14.7194 3.44941 14.7569 3.48666 14.7955 3.52505C14.8249 3.55327 14.8543 3.58149 14.8846 3.61057C15.1404 3.8773 15.29 4.23746 15.3015 4.60756C15.283 4.79212 15.2388 4.9533 15.1857 5.13057C15.3603 5.17285 15.5351 5.21413 15.71 5.25524C15.7595 5.26725 15.8091 5.27926 15.8601 5.29163C15.9318 5.30833 15.9318 5.30833 16.0049 5.32536C16.0488 5.33581 16.0928 5.34626 16.138 5.35702C16.2729 5.3758 16.3272 5.37458 16.4538 5.32517C16.5532 5.23884 16.6443 5.15252 16.736 5.05863C16.7637 5.03086 16.7914 5.00308 16.82 4.97446C16.8801 4.91407 16.9401 4.85351 16.9999 4.7928C17.095 4.6963 17.1906 4.60023 17.2862 4.50427C17.4553 4.33454 17.6239 4.16441 17.7924 3.99416C18.0609 3.723 18.3296 3.45219 18.5988 3.18185C18.6922 3.08794 18.7852 2.99372 18.8782 2.89948C19.2092 2.56568 19.546 2.25839 19.9166 1.96818C19.9668 1.92569 20.0168 1.88288 20.0662 1.83952C21.0508 0.986491 23.1792 -0.593242 24.5506 0.231339ZM20.5019 2.64931C20.4575 2.6853 20.413 2.72128 20.3672 2.75836C19.8042 3.22229 19.2949 3.74237 18.78 4.25768C18.6413 4.39635 18.5023 4.53473 18.3634 4.67316C18.0922 4.94345 17.8212 5.21399 17.5504 5.48463C17.2345 5.80025 16.9183 6.11561 16.6021 6.43097C16.038 6.99372 15.474 7.5567 14.9102 8.11982C14.3639 8.66553 13.8173 9.21106 13.2706 9.75641C13.2369 9.79004 13.2031 9.82367 13.1684 9.85833C13.1347 9.8919 13.1011 9.92548 13.0664 9.96007C12.4426 10.5823 11.8189 11.2047 11.1953 11.8272C10.9753 12.0469 10.7552 12.2665 10.5351 12.486C10.2669 12.7536 9.99878 13.0213 9.73079 13.289C9.5942 13.4255 9.45756 13.562 9.32082 13.6983C9.19549 13.8233 9.07027 13.9483 8.94514 14.0735C8.87878 14.1398 8.81231 14.206 8.74584 14.2722C8.53523 14.4831 8.33136 14.6969 8.13725 14.9231C8.02152 15.0571 7.89954 15.1851 7.77829 15.3141C7.5624 15.5458 7.3559 15.7825 7.15739 16.0294C7.07072 16.1371 6.98329 16.2439 6.89485 16.3502C5.86889 17.5871 4.86796 18.9681 4.35809 20.5046C4.43052 20.5769 4.43052 20.5769 4.50441 20.6506C4.9674 20.5019 5.39245 20.2926 5.82128 20.0668C5.85382 20.0496 5.88637 20.0325 5.9199 20.0148C6.90061 19.493 7.79048 18.8201 8.6501 18.1207C8.69298 18.0864 8.73586 18.0521 8.78004 18.0167C9.06195 17.7898 9.33285 17.5538 9.59946 17.3092C9.70034 17.2171 9.80232 17.1271 9.906 17.0382C10.5875 16.4445 11.2243 15.8035 11.8635 15.1656C11.9985 15.0309 12.1336 14.8964 12.2686 14.7619C12.5322 14.4994 12.7956 14.2368 13.0589 13.9742C13.2731 13.7605 13.4873 13.547 13.7015 13.3334C14.3104 12.7264 14.9193 12.1193 15.528 11.5121C15.5607 11.4795 15.5933 11.4469 15.627 11.4133C15.6761 11.3643 15.6761 11.3643 15.7262 11.3144C16.2574 10.7845 16.7889 10.2548 17.3204 9.72523C17.8677 9.17996 18.4149 8.6345 18.9618 8.08886C19.2683 7.78312 19.5749 7.47746 19.8816 7.172C20.1425 6.9122 20.4032 6.65223 20.6637 6.39205C20.7964 6.25952 20.9292 6.12708 21.0622 5.99484C21.2067 5.8511 21.3509 5.70697 21.4951 5.56281C21.5573 5.5011 21.5573 5.5011 21.6208 5.43815C21.8643 5.19383 22.0882 4.94003 22.304 4.67096C22.4052 4.54536 22.5093 4.42281 22.6144 4.30044C23.2872 3.47907 24.1324 2.33444 24.1599 1.2384C24.1254 1.10495 24.1254 1.10495 24.0623 0.995138C23.0535 0.453265 21.2005 2.07689 20.5019 2.64931ZM8.45501 2.84392C8.39982 2.89732 8.34457 2.95065 8.28926 3.00394C8.23064 3.06101 8.17209 3.11815 8.1136 3.17536C8.08489 3.20334 8.05619 3.23133 8.02661 3.26016C7.95613 3.33036 7.8883 3.40319 7.82097 3.47639C7.82097 3.5085 7.82097 3.54062 7.82097 3.5737C8.3521 3.68608 8.88324 3.79847 9.43047 3.91426C9.76962 3.57937 9.76962 3.57937 9.82065 3.18448C9.69247 2.92876 9.449 2.63422 9.18661 2.50335C8.82724 2.446 8.69183 2.60615 8.45501 2.84392ZM3.12828 3.52893C3.10402 3.55568 3.07975 3.58243 3.05475 3.61C3.02756 3.63869 3.00037 3.66738 2.97235 3.69694C2.94579 3.72752 2.91923 3.75809 2.89186 3.78959C2.8636 3.81998 2.83534 3.85036 2.80622 3.88167C2.73707 3.95635 2.66951 4.03247 2.60227 4.10887C2.66563 4.29847 2.73058 4.31266 2.90443 4.40649C2.95791 4.43568 3.01139 4.46488 3.06649 4.49496C3.12513 4.52641 3.18377 4.55786 3.24241 4.58931C3.30267 4.62207 3.3629 4.65488 3.4231 4.68774C3.51524 4.73804 3.60739 4.78829 3.69964 4.83839C3.97979 4.99054 4.25759 5.14665 4.5349 5.30389C4.92238 5.523 5.31058 5.7408 5.69935 5.95765C6.13632 6.20142 6.57252 6.44652 7.00821 6.69256C7.35174 6.88644 7.69596 7.07908 8.04044 7.27126C8.47742 7.51503 8.91362 7.76013 9.34931 8.00617C9.74334 8.22854 10.1381 8.44961 10.5336 8.66935C10.794 8.81423 11.0532 8.96084 11.3107 9.11072C11.362 9.14036 11.4133 9.16999 11.4662 9.20052C11.5641 9.25717 11.6617 9.31429 11.759 9.37194C11.8027 9.39712 11.8464 9.4223 11.8914 9.44825C11.9296 9.47066 11.9678 9.49308 12.0072 9.51618C12.1357 9.56688 12.1795 9.55431 12.3081 9.50925C12.3865 9.45232 12.3865 9.45232 12.4574 9.3778C12.4856 9.3499 12.5138 9.322 12.5428 9.29325C12.5731 9.26249 12.6034 9.23173 12.6347 9.20003C12.667 9.16776 12.6994 9.13548 12.7328 9.10223C12.8397 8.99543 12.9462 8.88812 13.0526 8.7808C13.1267 8.70667 13.2007 8.63256 13.2749 8.55849C13.4699 8.36341 13.6644 8.1679 13.8589 7.97229C14.0574 7.77278 14.2563 7.57368 14.4552 7.37455C14.8454 6.98374 15.2352 6.59247 15.6246 6.20091C15.4476 6.08322 15.2759 6.05099 15.0714 6.00776C15.0292 5.9986 14.9871 5.98943 14.9437 5.97999C14.8014 5.94913 14.6591 5.91871 14.5168 5.88828C14.4142 5.86612 14.3117 5.84392 14.2092 5.8217C13.9867 5.77352 13.7641 5.72553 13.5415 5.67769C13.0006 5.56143 12.4599 5.44431 11.9192 5.32728C11.7912 5.29959 11.6632 5.2719 11.5352 5.24424C10.5068 5.02196 9.47893 4.79717 8.45136 4.57097C8.30302 4.53832 8.15467 4.50569 8.00631 4.47306C7.35329 4.32942 6.70028 4.18574 6.04737 4.04158C5.77386 3.98121 5.50031 3.921 5.22674 3.86091C5.06801 3.82604 4.9093 3.79107 4.75063 3.75593C4.57745 3.7176 4.40421 3.67955 4.23096 3.64156C4.18075 3.63037 4.13055 3.61918 4.07882 3.60766C3.59651 3.47429 3.59651 3.47429 3.12828 3.52893ZM12.6007 4.59539C12.9772 4.69038 13.3539 4.78484 13.7316 4.87514C13.7806 4.88693 13.8296 4.89872 13.88 4.91087C14.0119 4.93536 14.1254 4.94843 14.259 4.93596C14.3722 4.80792 14.4038 4.7263 14.4114 4.55586C14.3306 4.32757 14.1843 4.18137 14.0151 4.01157C13.9759 3.97143 13.9367 3.93129 13.8962 3.88994C13.76 3.8104 13.6498 3.77457 13.4906 3.78237C13.1234 3.89832 12.8356 4.30554 12.6007 4.59539ZM18.8436 9.41195C18.4031 9.84459 17.9634 10.278 17.5247 10.7124C17.321 10.9141 17.117 11.1155 16.9124 11.3163C16.7151 11.51 16.5185 11.7044 16.3223 11.8993C16.2473 11.9736 16.172 12.0477 16.0964 12.1215C15.9908 12.2247 15.8862 12.3288 15.7817 12.4332C15.75 12.4637 15.7184 12.4942 15.6858 12.5256C15.6084 12.604 15.5386 12.6769 15.4783 12.7689C15.4805 12.9679 15.5726 13.1123 15.6696 13.284C15.6992 13.3367 15.7288 13.3894 15.7592 13.4437C15.7916 13.5006 15.8239 13.5574 15.8563 13.6143C15.8897 13.6734 15.923 13.7326 15.9563 13.7918C16.0408 13.9418 16.1257 14.0916 16.2107 14.2413C16.282 14.367 16.3531 14.4927 16.4242 14.6185C16.5275 14.8009 16.6309 14.9832 16.7344 15.1654C16.902 15.4607 17.0681 15.7568 17.2341 16.053C17.4526 16.4427 17.672 16.832 17.8926 17.2206C18.1421 17.6604 18.39 18.1011 18.6373 18.5422C18.853 18.9267 19.07 19.3104 19.2877 19.6938C19.4245 19.9348 19.5606 20.1762 19.6956 20.4182C20.0682 21.0856 20.45 21.7465 20.8433 22.4021C21.0301 22.3145 21.1726 22.1989 21.3219 22.0584C21.347 22.037 21.3721 22.0156 21.398 21.9935C21.4975 21.8991 21.5732 21.8175 21.5783 21.6764C21.5381 21.389 21.4832 21.1069 21.4198 20.8238C21.409 20.7744 21.3982 20.7251 21.387 20.6743C21.3508 20.5101 21.3144 20.3459 21.2779 20.1817C21.2519 20.0638 21.2259 19.9458 21.1999 19.8279C21.1368 19.5417 21.0735 19.2556 21.01 18.9696C20.9363 18.6368 20.8627 18.3039 20.7892 17.971C20.69 17.5219 20.5907 17.0727 20.4913 16.6236C20.2969 15.7449 20.1033 14.8661 19.9104 13.9871C19.8155 13.5546 19.7204 13.122 19.6252 12.6895C19.5552 12.3709 19.4852 12.0523 19.4154 11.7336C19.35 11.4347 19.2843 11.1359 19.2184 10.8371C19.1942 10.7275 19.1702 10.6178 19.1462 10.5082C19.1137 10.3589 19.0807 10.2098 19.0478 10.0607C19.0383 10.0171 19.0289 9.9735 19.0191 9.92858C19.0103 9.88867 19.0014 9.84876 18.9922 9.80764C18.9846 9.77326 18.9771 9.73887 18.9693 9.70345C18.9388 9.59844 18.8954 9.5081 18.8436 9.41195ZM20.1117 10.7742C20.1438 11.1202 20.2051 11.4536 20.2794 11.7929C20.29 11.8434 20.3006 11.894 20.3115 11.9461C20.3219 11.9943 20.3324 12.0425 20.3432 12.0922C20.3526 12.1358 20.362 12.1794 20.3717 12.2243C20.3979 12.3398 20.3979 12.3398 20.5019 12.4284C20.6057 12.3262 20.7093 12.2238 20.8128 12.1213C20.8423 12.0923 20.8717 12.0634 20.902 12.0336C20.9303 12.0055 20.9586 11.9774 20.9877 11.9485C21.0138 11.9228 21.0398 11.897 21.0667 11.8705C21.2149 11.7109 21.2635 11.5855 21.2586 11.3673C21.2084 11.1545 21.0471 11.0174 20.8921 10.8715C20.8508 10.8324 20.8096 10.7932 20.7671 10.7529C20.5161 10.5924 20.3498 10.5996 20.1117 10.7742ZM21.2214 15.5022C21.125 15.657 21.1274 15.729 21.1659 15.9043C21.1744 15.9371 21.1829 15.9699 21.1916 16.0037C21.1994 16.0379 21.2073 16.0722 21.2154 16.1074C21.2406 16.2162 21.2675 16.3246 21.2945 16.4331C21.3119 16.5069 21.3292 16.5808 21.3465 16.6547C21.3889 16.8356 21.4327 17.016 21.4774 17.1963C21.6398 17.1257 21.7466 17.037 21.8712 16.912C21.9077 16.8754 21.9443 16.8388 21.982 16.8012C22.0196 16.763 22.0573 16.7248 22.0962 16.6854C22.1344 16.6472 22.1727 16.609 22.2121 16.5697C22.4624 16.3347 22.4624 16.3347 22.5748 16.0226C22.5399 15.7532 22.4 15.6286 22.209 15.4448C22.1486 15.3861 22.1486 15.3861 22.087 15.3262C21.7256 15.1009 21.5015 15.2312 21.2214 15.5022ZM1.08726 16.0043C1.05954 16.0359 1.03181 16.0675 1.00325 16.1001C0.983693 16.1247 0.96414 16.1493 0.943995 16.1746C1.10791 16.3077 1.28617 16.4005 1.47464 16.4934C1.50797 16.5101 1.54129 16.5267 1.57563 16.5438C1.68532 16.5985 1.79514 16.6529 1.90497 16.7073C1.98125 16.7452 2.05751 16.7832 2.13377 16.8212C2.33414 16.9209 2.53462 17.0205 2.73513 17.1199C2.93986 17.2215 3.14448 17.3234 3.34911 17.4252C3.75036 17.6248 4.15173 17.8242 4.55318 18.0234C4.74732 17.8349 4.74732 17.8349 4.91041 17.6207C4.92915 17.592 4.9479 17.5633 4.96721 17.5337C4.9865 17.5036 5.00579 17.4736 5.02567 17.4426C5.26456 17.0773 5.5161 16.7224 5.77251 16.3692C5.60088 16.2551 5.45773 16.2418 5.25837 16.2206C5.22099 16.2164 5.18362 16.2121 5.14512 16.2077C5.02139 16.1936 4.8976 16.1801 4.77381 16.1666C4.68758 16.157 4.60136 16.1473 4.51515 16.1376C4.3342 16.1173 4.15322 16.0973 3.97222 16.0775C3.74111 16.0522 3.51006 16.0263 3.27904 16.0003C3.10081 15.9802 2.92255 15.9604 2.74428 15.9407C2.65915 15.9312 2.57402 15.9217 2.4889 15.9121C2.36931 15.8987 2.24968 15.8857 2.13005 15.8727C2.09537 15.8687 2.06069 15.8648 2.02496 15.8607C1.50908 15.7783 1.50908 15.7783 1.08726 16.0043ZM8.6501 19.2397C8.61596 19.2646 8.61596 19.2646 8.58112 19.29C8.14715 19.6061 7.71266 19.9192 7.26054 20.2092C7.09992 20.3073 7.09992 20.3073 6.99183 20.456C7.04135 20.5733 7.09404 20.6844 7.15195 20.7975C7.16954 20.8326 7.18713 20.8678 7.20526 20.904C7.26375 21.0205 7.32278 21.1368 7.38182 21.253C7.42238 21.3336 7.46291 21.4142 7.50341 21.4948C7.61027 21.7072 7.7176 21.9194 7.82502 22.1316C7.93448 22.348 8.0435 22.5646 8.15256 22.7812C8.36675 23.2064 8.58143 23.6314 8.79642 24.0562C8.85233 24.0086 8.90821 23.961 8.96408 23.9133C8.9952 23.8868 9.02632 23.8603 9.05839 23.8329C9.10222 23.7951 9.14561 23.7566 9.18661 23.7157C9.20658 23.4342 9.17979 23.1526 9.14786 22.8731C9.14373 22.8353 9.13961 22.7975 9.13536 22.7586C9.12183 22.6353 9.10794 22.512 9.09401 22.3888C9.0844 22.3025 9.07479 22.2162 9.06519 22.1299C9.0451 21.9499 9.02482 21.7699 9.00442 21.5899C8.97829 21.3591 8.95275 21.1282 8.92736 20.8974C8.90772 20.7195 8.88771 20.5417 8.8676 20.364C8.85802 20.2788 8.84858 20.1937 8.83926 20.1085C8.82622 19.9898 8.81269 19.8712 8.79902 19.7525C8.79526 19.7174 8.79151 19.6822 8.78764 19.6459C8.76748 19.4757 8.74742 19.3853 8.6501 19.2397Z" fill="#6A18A4"/>
</svg>
