<svg width="135" height="135" viewBox="0 0 135 135" fill="none" xmlns="http://www.w3.org/2000/svg">
<g clip-path="url(#clip0_2920_6495)">
<path d="M62.4904 37.9689C62.2255 38.1171 61.9605 38.2654 61.6876 38.4182C61.4491 38.5544 61.2107 38.6906 60.965 38.8309C60.7577 38.9478 60.5503 39.0647 60.3367 39.1851C59.8537 39.5509 59.8537 39.5509 59.4912 40.5067C59.59 41.3966 59.59 41.3966 60.002 42.0393C60.8212 42.5644 61.2644 42.5291 62.2268 42.4513C62.8919 42.1743 62.8919 42.1743 63.5503 41.7849C63.7958 41.6423 64.0414 41.4997 64.2944 41.3528C64.5529 41.1987 64.8114 41.0445 65.0777 40.8857C65.623 40.5698 66.1686 40.2543 66.7143 39.9392C67.1164 39.7052 67.1164 39.7052 67.5266 39.4666C74.9581 35.1608 81.4742 34.2404 89.9288 35.5958C90.6524 35.7098 91.3761 35.8228 92.1001 35.9343C92.5459 36.0032 92.9914 36.0735 93.4366 36.1456C94.6518 36.3355 95.8014 36.4212 97.0314 36.3868C96.3701 37.1298 95.6342 37.5621 94.7707 38.0482C94.4727 38.2169 94.1747 38.3857 93.8678 38.5596C93.7094 38.6486 93.551 38.7375 93.3878 38.8291C92.5461 39.302 91.7068 39.779 90.8671 40.2554C90.6114 40.4002 90.6114 40.4002 90.3505 40.5479C88.7795 41.4384 87.2188 42.346 85.6606 43.2588C85.1501 43.5572 84.6396 43.8555 84.129 44.1538C83.8721 44.3039 83.6152 44.454 83.3505 44.6087C81.9837 45.4066 80.6164 46.2036 79.2471 46.9973C78.7994 47.257 78.3524 47.5177 77.9053 47.7783C77.6329 47.936 77.3606 48.0937 77.0799 48.2562C76.8399 48.3956 76.5999 48.5351 76.3526 48.6787C74.8948 49.4615 74.2034 49.6397 72.5644 49.1898C72.3876 49.1425 72.2108 49.0952 72.0286 49.0465C71.4371 48.8872 70.8474 48.7221 70.2574 48.5569C69.8335 48.4415 69.4095 48.3265 68.9855 48.2118C68.0726 47.9642 67.1605 47.714 66.2489 47.4618C64.8057 47.0626 63.361 46.6693 61.916 46.2768C59.8916 45.7266 57.8677 45.174 55.8443 44.6199C51.5412 43.4419 47.2348 42.2762 42.9268 41.1165C41.5135 40.736 40.1009 40.3535 38.6886 39.9693C37.8059 39.7295 36.9228 39.4912 36.0396 39.2533C35.6335 39.1436 35.2276 39.0333 34.8218 38.9223C28.4744 37.1866 22.3661 36.719 16.3478 39.8146C15.3993 40.3609 14.471 40.9405 13.5401 41.5163C11.9979 42.4406 10.5415 42.9011 8.79818 43.301C5.5695 44.0464 2.71762 45.782 0.791199 48.5157C-0.298431 50.3625 -0.34993 52.4054 0.173218 54.4731C0.42099 55.0797 0.705338 55.6082 1.05487 56.1622C1.23792 56.4533 1.23792 56.4533 1.42464 56.7503C5.5889 62.6658 13.7849 63.9818 20.3091 65.7121C20.8888 65.8666 21.4685 66.0211 22.0481 66.1758C23.5641 66.58 25.0803 66.9833 26.5966 67.3862C29.0205 68.0306 31.444 68.6766 33.8675 69.3224C34.9702 69.6161 36.0732 69.9092 37.1761 70.2021C37.9329 70.4039 38.6891 70.6079 39.4453 70.812C40.3815 71.0641 41.3195 71.3044 42.2611 71.5356C42.4788 71.591 42.6966 71.6464 42.9209 71.7035C43.3226 71.8057 43.7254 71.904 44.1293 71.9975C45.4554 72.3421 46.0846 72.8569 46.8833 73.957C47.2172 74.5485 47.5357 75.1491 47.8402 75.7563C48.0187 76.0822 48.1988 76.4072 48.3805 76.7313C48.764 77.4193 49.1395 78.1108 49.5099 78.8059C50.4177 80.4989 51.4005 82.1481 52.3812 83.7994C52.691 84.3241 52.9957 84.8515 53.2994 85.3796C58.1697 93.7632 64.8202 97.6871 73.6228 101.191C74.4781 101.533 75.3301 101.883 76.1823 102.232C76.732 102.452 77.2818 102.672 77.8318 102.891C78.0832 102.995 78.3345 103.099 78.5935 103.207C80.1376 103.81 81.432 104.101 83.0568 103.623C84.0347 102.951 84.3141 102.488 84.6883 101.365C84.8564 98.9149 82.5664 96.1337 81.3594 94.098C81.0341 93.545 80.709 92.9919 80.3841 92.4387C80.217 92.1548 80.05 91.8709 79.878 91.5783C79.0181 90.1101 78.1704 88.635 77.322 87.1601C75.8207 84.553 74.3061 81.9543 72.7736 79.3653C73.0168 79.417 73.0168 79.417 73.2649 79.4696C80.1072 80.9017 86.8458 81.8316 93.8344 81.8537C94.0505 81.8554 94.2666 81.857 94.4892 81.8587C98.6994 81.8792 102.821 81.4259 106.837 80.1069C107.066 80.035 107.295 79.9631 107.53 79.8891C108.075 79.7177 108.618 79.542 109.16 79.3653C109.257 79.6279 109.257 79.6279 109.355 79.8958C110.807 83.334 112.706 86.83 116.279 88.3302C117.411 88.7239 118.551 89.0692 119.707 89.3849C119.891 89.4359 120.075 89.4868 120.264 89.5394C121.386 89.7855 122.598 89.9469 123.631 89.3725C124.2 88.9055 124.65 88.4647 124.981 87.8028C125.131 86.1487 124.676 84.8773 124.095 83.341C124.004 83.093 123.913 82.845 123.819 82.5894C123.528 81.7993 123.233 81.0108 122.937 80.2223C122.743 79.6964 122.548 79.1704 122.354 78.6444C121.994 77.6691 121.632 76.6945 121.269 75.7205C120.74 74.3017 120.223 72.8789 119.707 71.4552C119.905 71.239 119.905 71.239 120.107 71.0185C121.322 69.6869 122.446 68.3013 123.551 66.8799C124.496 65.6674 125.459 64.4716 126.431 63.2814C127.869 61.518 129.283 59.7365 130.683 57.9428C131.065 57.4557 131.449 56.9705 131.833 56.4856C131.963 56.3212 132.093 56.1567 132.227 55.9873C132.474 55.6754 132.721 55.3639 132.969 55.0528C135.151 52.2911 135.151 52.2911 135.149 50.8723C135.154 50.6572 135.16 50.442 135.166 50.2203C134.923 49.2698 134.418 48.8879 133.682 48.2521C132.86 47.9171 132.86 47.9171 131.945 47.6804C131.613 47.5919 131.28 47.5033 130.938 47.4121C130.589 47.3239 130.24 47.2359 129.892 47.1479C129.545 47.0572 129.198 46.9661 128.851 46.8745C128.21 46.706 127.568 46.5394 126.926 46.3753C126.3 46.2119 125.677 46.0378 125.057 45.856C124.13 45.5989 123.32 45.5183 122.36 45.5C121.908 45.4842 121.908 45.4842 121.447 45.4681C119.326 45.7973 117.851 47.3501 116.362 48.7959C115.991 49.1496 115.62 49.5032 115.25 49.8568C115.067 50.0314 114.885 50.206 114.697 50.3859C113.942 51.1063 113.175 51.8141 112.407 52.5203C112.132 52.7736 111.857 53.027 111.582 53.2804C111.302 53.5379 111.022 53.7954 110.742 54.0528C110.116 54.6294 109.49 55.2062 108.864 55.7832C108.72 55.9153 108.576 56.0474 108.428 56.1835C107.328 57.1979 107.328 57.1979 106.998 57.6781C106.498 58.1034 106.498 58.1034 105.647 57.9024C105.282 57.8114 104.918 57.7153 104.555 57.6152C104.357 57.5644 104.159 57.5137 103.955 57.4614C103.316 57.2964 102.679 57.125 102.041 56.9532C101.63 56.8459 101.219 56.739 100.808 56.6325C99.5009 56.292 98.1966 55.9417 96.8924 55.5906C96.4153 55.4626 95.9382 55.3347 95.4612 55.2068C94.4721 54.9416 93.4833 54.6759 92.4945 54.4098C91.226 54.0685 89.9572 53.7283 88.6883 53.3884C87.7081 53.1258 86.7281 52.8626 85.7481 52.5993C85.2798 52.4735 84.8114 52.3478 84.343 52.2224C83.693 52.0482 83.0433 51.8733 82.3936 51.6981C82.2004 51.6465 82.0071 51.5949 81.808 51.5417C80.8269 51.2798 80.8269 51.2798 79.8928 50.8888C80.1571 50.7418 80.1571 50.7418 80.4267 50.5918C86.4317 47.2485 86.4317 47.2485 89.2229 45.5904C90.6571 44.7393 92.101 43.9059 93.5471 43.0752C94.974 42.2551 96.3986 41.431 97.8225 40.6056C98.0313 40.4849 98.2402 40.3642 98.4554 40.2398C98.9494 39.9528 99.4412 39.6624 99.9318 39.3696C100.182 39.2218 100.432 39.0739 100.69 38.9216C101.473 38.3273 101.718 37.8269 101.866 36.8658C101.884 35.8328 101.858 35.2144 101.349 34.2939C99.8971 33.033 97.8189 32.9811 95.9809 32.7098C95.6725 32.6638 95.3641 32.6177 95.0464 32.5702C94.3931 32.4733 93.7397 32.3771 93.0863 32.2818C92.1015 32.1372 91.1177 31.9874 90.1337 31.8375C79.2685 30.2194 71.8339 32.5689 62.4904 37.9689ZM29.8018 41.3071C30.0075 41.3537 30.2133 41.4004 30.4253 41.4484C33.0302 42.0486 35.6101 42.7446 38.1914 43.438C38.7458 43.5861 39.3001 43.7341 39.8545 43.8821C41.3356 44.2776 42.8164 44.6744 44.2971 45.0714C45.8581 45.4897 47.4193 45.9069 48.9806 46.3243C52.4103 47.2414 55.8395 48.1602 59.2687 49.0793C60.5573 49.4247 61.846 49.7698 63.1347 50.1149C65.1553 50.656 67.1759 51.1975 69.1963 51.7393C70.266 52.0261 71.3357 52.3129 72.4054 52.5994C77.1855 53.8796 81.9634 55.1671 86.7376 56.4687C88.7376 57.0139 90.7381 57.557 92.7388 58.0996C94.3961 58.5493 96.0526 59.0018 97.7085 59.4565C98.7315 59.7367 99.7551 60.0141 100.779 60.2909C101.256 60.4204 101.733 60.5511 102.209 60.6829C102.863 60.8637 103.517 61.0404 104.172 61.2162C104.362 61.2697 104.552 61.3232 104.747 61.3783C105.868 61.6737 106.721 61.7502 107.842 61.4357C108.416 60.9946 108.899 60.5742 109.408 60.0679C109.709 59.7787 110.01 59.4897 110.312 59.2006C110.468 59.0486 110.624 58.8966 110.785 58.74C111.601 57.9515 112.433 57.1817 113.264 56.4094C113.598 56.0974 113.932 55.7853 114.266 55.4732C115.383 54.4312 116.506 53.3958 117.639 52.3709C118.157 51.8932 118.659 51.4136 119.155 50.9145C119.403 50.6722 119.65 50.4298 119.905 50.1802C120.121 49.9616 120.337 49.7431 120.56 49.5179C121.763 48.7345 123.012 48.9655 124.364 49.2367C124.685 49.3251 125.005 49.4135 125.335 49.5045C125.594 49.5747 125.594 49.5747 125.858 49.6464C126.401 49.7944 126.943 49.946 127.486 50.0978C127.857 50.1996 128.228 50.3013 128.6 50.4026C129.504 50.6498 130.406 50.9002 131.309 51.1525C130.752 51.9991 130.199 52.8368 129.561 53.6244C129.374 53.856 129.374 53.856 129.184 54.0922C128.988 54.3338 128.988 54.3338 128.787 54.5802C128.505 54.9303 128.223 55.2804 127.941 55.6308C127.799 55.807 127.657 55.9832 127.511 56.1648C126.864 56.9718 126.227 57.7864 125.59 58.6012C124.563 59.9125 123.521 61.2092 122.462 62.4955C121.371 63.823 120.289 65.1571 119.208 66.4928C118.714 67.1029 118.216 67.7091 117.71 68.3097C117.521 68.5374 117.331 68.7651 117.136 68.9997C116.894 69.2868 116.894 69.2868 116.646 69.5796C116.199 70.2586 116.054 70.6385 116.016 71.4552C116.221 72.2132 116.45 72.9146 116.724 73.647C116.804 73.8675 116.884 74.0881 116.966 74.3153C117.527 75.8567 118.11 77.3899 118.69 78.9245C118.761 79.1141 118.833 79.3038 118.906 79.4992C119.266 80.4548 119.628 81.4097 119.994 82.3634C120.129 82.7184 120.263 83.0735 120.398 83.4286C120.519 83.7443 120.64 84.0601 120.764 84.3855C121.067 85.1539 121.067 85.1539 121.026 85.9571C118.252 85.5251 116.399 84.8582 114.697 82.5294C113.978 81.3749 113.315 80.191 112.654 79.0028C112.375 78.507 112.095 78.0117 111.816 77.5164C111.631 77.1888 111.446 76.8612 111.262 76.5333C110.49 75.1606 109.699 73.7995 108.897 72.444C108.787 72.2589 108.678 72.0739 108.565 71.8833C108.325 71.4766 108.083 71.0704 107.842 70.6642C108.591 70.2897 108.964 70.5368 109.754 70.7795C112.29 71.4998 112.29 71.4998 113.363 70.9114C113.799 70.1163 113.525 69.4231 113.379 68.5548C112.502 68.2864 111.622 68.0246 110.742 67.7638C110.496 67.6883 110.25 67.6129 109.996 67.5351C108.523 67.1026 107.268 66.8406 105.733 66.9728C104.825 67.5329 104.489 67.8029 104.151 68.8185C103.905 70.6581 104.67 71.7416 105.617 73.235C105.895 73.6771 106.17 74.1206 106.442 74.5657C106.565 74.7597 106.688 74.9537 106.815 75.1535C107.139 75.7101 107.139 75.7101 106.787 76.465C105.379 77.1961 104.355 76.8957 102.912 76.4856C102.686 76.4251 102.46 76.3646 102.227 76.3022C101.475 76.1001 100.725 75.8916 99.9751 75.6832C99.4437 75.539 98.9122 75.3953 98.3806 75.2519C96.9593 74.8674 95.5396 74.4776 94.1201 74.0865C92.6592 73.6846 91.1973 73.2867 89.7355 72.8886C87.9924 72.4138 86.2495 71.9387 84.5071 71.4616C81.4233 70.6182 78.3365 69.7915 75.2379 69.0041C74.6982 68.8668 74.1588 68.7286 73.6195 68.5899C70.9652 67.9079 70.9652 67.9079 69.7941 67.6204C68.96 67.4153 68.1286 67.2018 67.2973 66.9862C67.061 66.9309 66.8246 66.8757 66.5811 66.8188C65.4464 66.5156 64.7998 66.2758 64.184 65.2416C63.7751 64.4182 63.7751 64.4182 63.8088 63.8087C63.0257 63.8087 62.2426 63.8087 61.4357 63.8087C60.8771 64.926 60.83 65.0642 61.1721 66.1817C61.4581 66.7877 61.4581 66.7877 61.8179 67.4146C61.9526 67.6513 62.0873 67.888 62.2261 68.1318C62.4467 68.5125 62.4467 68.5125 62.6717 68.9009C62.8249 69.1684 62.978 69.436 63.1358 69.7116C64.5247 72.1322 65.9329 74.5416 67.3426 76.9501C68.823 79.4812 70.284 82.0235 71.7477 84.5644C72.4083 85.711 73.0696 86.8572 73.731 88.0033C74.0573 88.5689 74.3835 89.1346 74.7095 89.7004C75.485 91.0462 76.2622 92.3911 77.0444 93.733C77.4161 94.3707 77.7869 95.009 78.1577 95.6472C78.4214 96.1005 78.6864 96.553 78.9514 97.0056C79.1094 97.2779 79.2675 97.5501 79.4303 97.8306C79.5708 98.0714 79.7114 98.3122 79.8561 98.5603C80.1968 99.1099 80.1968 99.1099 80.1564 99.6681C78.9196 99.477 77.8149 99.0426 76.6566 98.5876C76.4455 98.5052 76.2343 98.4228 76.0168 98.3379C75.5693 98.1627 75.1221 97.9869 74.6751 97.8106C74.0055 97.5471 73.3345 97.2873 72.6634 97.0277C68.7428 95.4952 65.1101 93.8343 61.9631 90.9669C61.7772 90.8024 61.5912 90.6379 61.3997 90.4684C58.8747 88.1071 57.1482 84.9499 55.4173 81.9881C54.8747 81.0597 54.3275 80.1339 53.781 79.2078C53.6705 79.0203 53.56 78.8328 53.4462 78.6396C52.3902 76.8501 51.3122 75.0745 50.2297 73.3009C48.3585 70.2329 46.5193 67.1468 44.6941 64.0513C44.4952 63.7146 44.2963 63.378 44.0973 63.0414C44.0024 62.8809 43.9076 62.7204 43.8099 62.5551C43.0573 61.2883 42.2663 60.0489 41.4545 58.8191C41.0885 58.3016 41.0885 58.3016 41.133 57.7442C40.2629 57.7442 39.3928 57.7442 38.4963 57.7442C38.4093 58.0923 38.3223 58.4403 38.2326 58.7989C36.3527 58.483 34.5209 58.0875 32.6844 57.5782C32.4375 57.5109 32.1906 57.4435 31.9362 57.3741C31.4058 57.2293 30.8755 57.084 30.3454 56.9382C29.5055 56.7075 28.6651 56.4787 27.8245 56.2505C25.4366 55.602 23.0493 54.9515 20.6633 54.2962C19.199 53.8942 17.7339 53.4957 16.2681 53.0994C15.7114 52.9482 15.1551 52.7956 14.5991 52.6417C13.8227 52.4269 13.0452 52.2166 12.2674 52.0071C12.0394 51.9429 11.8114 51.8787 11.5766 51.8125C10.2429 51.4593 9.26025 51.3602 7.91035 51.6798C7.64668 51.9435 7.64668 51.9435 7.59724 52.8498C7.64668 53.7892 7.64668 53.7892 8.17402 54.3165C8.64156 54.4889 8.64156 54.4889 9.21651 54.6413C9.43445 54.7001 9.6524 54.7588 9.87695 54.8193C10.1166 54.8819 10.3563 54.9445 10.6032 55.009C10.8554 55.0764 11.1076 55.1438 11.3674 55.2132C12.2059 55.4368 13.045 55.6579 13.8842 55.879C14.4692 56.0345 15.0541 56.1902 15.639 56.3461C17.1851 56.7576 18.7318 57.1671 20.2786 57.576C22.1403 58.0686 24.0013 58.5635 25.8623 59.0582C27.5863 59.5164 29.3106 59.9737 31.0351 60.4299C31.809 60.6353 32.5824 60.8426 33.3557 61.0502C34.3028 61.3042 35.2516 61.5488 36.2031 61.786C36.6312 61.8962 37.0593 62.0064 37.4874 62.1167C37.6787 62.1621 37.87 62.2075 38.0671 62.2543C40.082 62.7836 40.9844 64.1232 42.0064 65.8357C42.1011 65.9888 42.1957 66.1419 42.2933 66.2997C42.8155 67.1056 42.8155 67.1056 42.9787 68.0275C39.6359 67.2632 36.3198 66.415 33.0066 65.5318C32.4904 65.3946 31.9742 65.2574 31.4581 65.1202C30.3841 64.8346 29.3103 64.5484 28.2366 64.262C26.8716 63.8978 25.5062 63.5355 24.1406 63.1735C23.0772 62.8914 22.014 62.6081 20.9509 62.3245C20.448 62.1905 19.9449 62.0569 19.4418 61.9237C10.5631 59.8451 10.5631 59.8451 3.79047 54.1847C3.33366 53.0219 3.12115 52.1159 3.42792 50.8888C5.08813 47.9821 8.31535 46.988 11.3381 46.1427C11.7896 45.9976 12.2402 45.8497 12.6894 45.6977C12.8695 45.6369 13.0497 45.5761 13.2353 45.5134C13.3923 45.46 13.5493 45.4067 13.7111 45.3517C14.7952 44.9903 15.5909 45.3372 16.6486 45.6483C17.0822 45.7706 17.5158 45.8928 17.9494 46.015C18.6314 46.2099 19.3129 46.406 19.9941 46.6036C20.6524 46.7937 21.3118 46.9792 21.9715 47.1644C22.1729 47.2243 22.3743 47.2841 22.5817 47.3458C23.8436 47.6973 24.7977 47.7617 26.1037 47.461C26.3674 47.1974 26.3674 47.1974 26.4663 46.3075C26.4336 45.9921 26.401 45.6766 26.3674 45.3517C25.4975 44.7023 24.6383 44.4 23.5937 44.1373C23.3243 44.0685 23.0549 43.9997 22.7774 43.9288C22.4992 43.8599 22.221 43.7911 21.9344 43.7202C21.6511 43.6483 21.3678 43.5764 21.0759 43.5024C20.3793 43.3259 19.6822 43.1514 18.9846 42.9786C18.9846 42.8046 18.9846 42.6306 18.9846 42.4513C19.6543 42.2357 20.3245 42.0217 20.9951 41.8086C21.183 41.7479 21.371 41.6872 21.5646 41.6247C24.3927 40.7296 26.9041 40.6404 29.8018 41.3071ZM70.257 70.8738C70.457 70.9273 70.6569 70.9809 70.863 71.0361C71.5283 71.2149 72.1926 71.3968 72.8571 71.5788C73.3242 71.705 73.7914 71.831 74.2586 71.9568C75.4958 72.2905 76.7323 72.6269 77.9686 72.9638C79.1996 73.2988 80.4312 73.6314 81.6628 73.9642C83.553 74.4752 85.4428 74.9875 87.3324 75.5009C90.476 76.355 93.6216 77.2021 96.7678 78.047C96.7678 78.134 96.7678 78.221 96.7678 78.3107C88.6604 78.4635 80.9701 77.6031 73.0373 75.9376C72.7603 75.8897 72.4833 75.8419 72.1979 75.7926C70.8461 75.5157 70.0667 75.257 69.2769 74.0888C69.0541 73.683 68.8409 73.2717 68.6373 72.8559C68.4683 72.5406 68.4683 72.5406 68.2958 72.2189C68.0217 71.7045 67.7572 71.1873 67.5002 70.6642C68.5311 70.3205 69.2463 70.5935 70.257 70.8738Z" fill="#6A18A4"/>
<path d="M47.56 50.6415C46.6701 50.8887 46.6701 50.8887 46.1427 51.6797C46.1922 52.619 46.1922 52.619 46.4064 53.5254C47.1974 54.0528 47.1974 54.0528 48.1367 53.9868C49.0431 53.7891 49.0431 53.7891 49.5705 53.2617C49.6935 52.3182 49.6765 51.8452 49.1585 51.037C48.5158 50.625 48.5158 50.625 47.56 50.6415Z" fill="#6A18A4"/>
<path d="M65.6544 55.6347C65.0117 56.0631 65.0117 56.0631 64.5997 56.6894C64.6168 57.5264 64.7403 58.0593 65.16 58.7822C65.9699 59.2412 66.6257 59.0054 67.5001 58.7987C68.0275 58.2714 68.0275 58.2714 68.1099 57.365C68.0275 56.4257 68.0275 56.4257 67.7308 55.9148C66.9899 55.4949 66.4909 55.5152 65.6544 55.6347Z" fill="#6A18A4"/>
<path d="M37.7051 48.252C37.1942 48.5487 37.1942 48.5487 36.914 49.043C36.8101 49.8745 36.7604 50.3906 37.2272 51.103C37.8412 51.5053 38.2911 51.6262 39.0234 51.6798C39.737 51.4221 39.9997 51.3093 40.3418 50.6251C40.4588 49.2496 40.4588 49.2496 40.0616 48.5487C39.2589 48.0826 38.6113 48.1549 37.7051 48.252Z" fill="#6A18A4"/>
<path d="M74.619 58.2715C74.0917 58.8483 74.0917 58.8483 73.828 59.5899C74.0093 60.4468 74.0093 60.4468 74.3554 61.1719C75.0933 61.5409 75.6487 61.5022 76.4648 61.4356C76.9591 61.1555 76.9591 61.1555 77.2558 60.6446C77.3711 59.7217 77.3711 59.7217 77.2558 58.7989C76.4745 57.8373 75.746 57.8879 74.619 58.2715Z" fill="#6A18A4"/>
<path d="M84.1112 60.6444C83.6169 60.9246 83.6169 60.9246 83.3202 61.4354C83.2049 62.3583 83.2049 62.3583 83.3202 63.2812C83.7487 63.8085 83.7487 63.8085 84.3749 64.0722C85.3434 64.0141 85.7907 63.9747 86.4843 63.2812C86.5636 62.7868 86.5636 62.7868 86.5667 62.2265C86.5711 62.0416 86.5755 61.8567 86.5801 61.6662C86.5485 61.503 86.5169 61.3399 86.4843 61.1718C85.5696 60.562 85.1865 60.5324 84.1112 60.6444Z" fill="#6A18A4"/>
<path d="M56.162 53.2618C55.6347 53.6903 55.6347 53.6903 55.371 54.3165C55.4291 55.285 55.4685 55.7324 56.162 56.4259C57.7579 56.571 57.7579 56.571 58.5186 56.1293C58.9317 55.4003 58.9015 54.875 58.7988 54.0529C58.1986 52.9937 57.2714 53.1232 56.162 53.2618Z" fill="#6A18A4"/>
</g>
<defs>
<clipPath id="clip0_2920_6495">
<rect width="135" height="135" fill="white" transform="matrix(-1 0 0 1 135 0)"/>
</clipPath>
</defs>
</svg>
