<svg width="25" height="25" viewBox="0 0 25 25" fill="none" xmlns="http://www.w3.org/2000/svg">
<path d="M10.2403 0.651424C11.2584 1.48815 11.7691 2.71188 12.2613 3.90098C12.2805 3.94723 12.2997 3.99348 12.3195 4.04112C12.3458 4.10576 12.3458 4.10576 12.3726 4.17171C12.396 4.22902 12.396 4.22902 12.4199 4.28749C12.4532 4.38768 12.4532 4.38768 12.4532 4.53369C12.4853 4.53369 12.5175 4.53369 12.5506 4.53369C12.5564 4.49959 12.5621 4.46548 12.568 4.43034C12.6296 4.15557 12.7505 3.89886 12.8583 3.63938C12.8712 3.60817 12.8842 3.57695 12.8975 3.54479C13.2549 2.68717 13.6344 1.82833 14.2563 1.12681C14.3049 1.07119 14.3049 1.07119 14.3544 1.01445C14.9192 0.409182 15.7215 0.0710229 16.5429 0.0397251C17.561 0.0249349 18.5276 0.190587 19.3004 0.904754C19.3916 0.993358 19.48 1.08398 19.5684 1.17548C19.6043 1.20986 19.6403 1.24424 19.6773 1.27966C20.3081 1.91939 20.5587 2.8321 20.5675 3.70631C20.5601 4.49966 20.3519 5.1851 19.9095 5.84777C19.9505 5.84795 19.9914 5.84813 20.0336 5.84831C20.4214 5.85016 20.8093 5.85294 21.1971 5.85672C21.3964 5.85864 21.5958 5.86021 21.7951 5.86096C21.9879 5.86171 22.1806 5.86339 22.3734 5.8657C22.4465 5.86642 22.5197 5.86681 22.5928 5.86685C23.2939 5.86764 23.8105 6.01201 24.3444 6.48048C24.5745 6.72481 24.7535 6.99717 24.8805 7.30787C24.897 7.34715 24.9136 7.38644 24.9307 7.42692C24.9951 7.66271 24.9938 7.88616 24.9943 8.12955C24.9946 8.18068 24.995 8.23182 24.9953 8.2845C24.9958 8.39258 24.996 8.50066 24.996 8.60874C24.9962 8.77248 24.998 8.93617 24.9998 9.0999C25.0044 9.9558 24.9164 10.5448 24.3092 11.1938C24.1535 11.3379 23.9875 11.4328 23.7973 11.5258C23.7536 11.5472 23.71 11.5687 23.665 11.5907C23.6319 11.6068 23.5988 11.6229 23.5646 11.6395C23.5645 11.7287 23.5645 11.7287 23.5644 11.8196C23.5627 13.2323 23.5599 14.645 23.556 16.0577C23.5555 16.2317 23.555 16.4058 23.5545 16.5798C23.5544 16.6318 23.5544 16.6318 23.5542 16.6848C23.5527 17.2451 23.5519 17.8054 23.5513 18.3658C23.5507 18.9411 23.5494 19.5164 23.5474 20.0918C23.5462 20.4147 23.5455 20.7377 23.5455 21.0607C23.5456 21.3649 23.5447 21.6691 23.5431 21.9733C23.5427 22.0848 23.5426 22.1962 23.5429 22.3077C23.5446 23.1183 23.4879 23.7094 22.9311 24.3423C22.5308 24.7183 22.0424 24.9868 21.485 24.9875C21.4534 24.9877 21.4218 24.9878 21.3892 24.988C21.2834 24.9885 21.1777 24.9882 21.0719 24.988C20.9952 24.9882 20.9186 24.9884 20.8419 24.9887C20.6313 24.9893 20.4208 24.9892 20.2102 24.9891C19.9831 24.9891 19.7559 24.9897 19.5288 24.9901C19.0838 24.9909 18.6388 24.9912 18.1938 24.9912C17.8321 24.9913 17.4703 24.9915 17.1086 24.9918C16.0828 24.9927 15.057 24.9931 14.0313 24.993C13.9483 24.993 13.9483 24.993 13.8637 24.993C13.8083 24.993 13.753 24.993 13.6959 24.993C12.7988 24.993 11.9016 24.9939 11.0045 24.9953C10.0832 24.9967 9.1619 24.9973 8.24061 24.9973C7.72342 24.9972 7.20624 24.9975 6.68905 24.9985C6.24865 24.9994 5.80826 24.9996 5.36786 24.999C5.14324 24.9987 4.91864 24.9987 4.69402 24.9995C4.48818 25.0003 4.28235 25.0001 4.07651 24.9993C4.00226 24.9991 3.92801 24.9993 3.85376 24.9998C3.16004 25.0046 2.6491 24.854 2.12142 24.3909C1.89129 24.1466 1.71232 23.8743 1.58534 23.5636C1.56871 23.5232 1.55208 23.4828 1.53495 23.4412C1.47419 23.2222 1.47382 23.021 1.4743 22.7948C1.47402 22.7471 1.47374 22.6993 1.47345 22.6501C1.47262 22.4903 1.47248 22.3304 1.47233 22.1706C1.47188 22.056 1.47139 21.9413 1.47085 21.8267C1.46952 21.5155 1.46878 21.2043 1.46815 20.8931C1.46747 20.6008 1.46634 20.3085 1.46521 20.0162C1.463 19.4374 1.46121 18.8586 1.4597 18.2798C1.45823 17.7176 1.45655 17.1554 1.45461 16.5932C1.45449 16.5585 1.45437 16.5239 1.45424 16.4881C1.45364 16.3142 1.45303 16.1403 1.45242 15.9664C1.44738 14.5241 1.44304 13.0818 1.43914 11.6395C1.40548 11.623 1.37183 11.6064 1.33716 11.5894C1.29311 11.5676 1.24907 11.5459 1.20369 11.5234C1.15998 11.5019 1.11628 11.4804 1.07125 11.4582C0.597227 11.212 0.259021 10.7545 0.0956659 10.253C0.0150192 9.97788 0.0038543 9.71956 0.00470495 9.43432C0.00444949 9.38334 0.00419403 9.33237 0.00393083 9.27985C0.00361971 9.17273 0.00368079 9.06561 0.00409815 8.95849C0.00451306 8.79593 0.00310833 8.63345 0.00156386 8.4709C0.00148528 8.36618 0.00151348 8.26146 0.00165904 8.15674C0.00111156 8.10886 0.000564074 8.06099 0 8.01166C0.00578507 7.42788 0.227933 6.96412 0.610651 6.52915C1.01884 6.14569 1.50696 5.88714 2.07343 5.88093C2.10627 5.88044 2.13911 5.87995 2.17294 5.87944C2.28053 5.87795 2.3881 5.87712 2.49569 5.87629C2.57066 5.87538 2.64564 5.87443 2.72061 5.87344C2.91722 5.87094 3.11383 5.86901 3.31044 5.8672C3.51136 5.86525 3.71227 5.86276 3.91318 5.86032C4.30686 5.85562 4.70054 5.85151 5.09423 5.84777C5.07403 5.81462 5.05384 5.78146 5.03303 5.7473C5.00659 5.70367 4.98016 5.66004 4.95293 5.61508C4.9267 5.57189 4.90047 5.5287 4.87345 5.4842C4.79007 5.34087 4.72578 5.19693 4.66781 5.04168C4.64896 4.99243 4.63011 4.94318 4.61069 4.89244C4.28891 3.88762 4.40691 2.82902 4.87913 1.89507C5.06307 1.55687 5.30596 1.29517 5.58158 1.02947C5.616 0.993584 5.65043 0.957697 5.6859 0.920724C6.81709 -0.191715 8.98991 -0.313919 10.2403 0.651424ZM6.605 2.14887C6.57397 2.17786 6.54294 2.20684 6.51096 2.23671C6.09733 2.66397 5.95507 3.2168 5.95269 3.7946C5.96301 4.35494 6.17445 4.80823 6.55627 5.21507C6.59981 5.26156 6.59981 5.26156 6.64422 5.30898C7.251 5.89484 8.0922 5.91191 8.88715 5.90595C8.95953 5.90577 9.0319 5.90563 9.10427 5.90553C9.2927 5.90516 9.48113 5.90421 9.66956 5.90313C9.86266 5.90212 10.0558 5.90169 10.2489 5.9012C10.6262 5.90016 11.0036 5.8985 11.381 5.89644C11.1984 5.36638 11.005 4.84344 10.787 4.32684C10.7735 4.29467 10.76 4.2625 10.746 4.22936C10.1608 2.7125 10.1608 2.7125 8.99559 1.67004C8.72088 1.5689 8.46831 1.53826 8.17669 1.5405C8.13421 1.54078 8.09172 1.54106 8.04795 1.54135C7.47672 1.55699 7.02094 1.75956 6.605 2.14887ZM15.8646 1.75952C15.831 1.77959 15.7975 1.79967 15.7629 1.82035C15.3352 2.10838 15.0488 2.55893 14.8168 3.00972C14.793 3.05546 14.7692 3.10119 14.7448 3.14831C14.4973 3.63944 14.2882 4.14682 14.0797 4.65537C14.0624 4.69737 14.0452 4.73938 14.0275 4.78265C13.9779 4.90386 13.9288 5.0252 13.8798 5.14663C13.8651 5.18284 13.8504 5.21905 13.8352 5.25636C13.751 5.46728 13.6815 5.67704 13.6228 5.89644C14.0384 5.89871 14.454 5.90043 14.8697 5.90149C15.0627 5.90199 15.2558 5.90268 15.4488 5.90379C15.6356 5.90485 15.8223 5.90543 16.0091 5.90568C16.0799 5.90586 16.1507 5.90621 16.2215 5.90674C17.0864 5.91295 17.8321 5.82407 18.4761 5.19948C18.6483 5.00852 18.7753 4.8138 18.8861 4.58236C18.9108 4.53427 18.9108 4.53427 18.936 4.48521C19.1343 4.01929 19.0984 3.39186 18.9318 2.92455C18.8079 2.64821 18.6546 2.41816 18.4475 2.19754C18.404 2.15105 18.404 2.15105 18.3596 2.10363C17.8631 1.62427 17.2517 1.54177 16.5946 1.55134C16.3188 1.56163 16.1007 1.61385 15.8646 1.75952ZM1.74068 7.57251C1.44005 7.92421 1.47879 8.2652 1.47884 8.71004C1.47874 8.80991 1.47785 8.90974 1.47693 9.0096C1.47683 9.07328 1.47674 9.13696 1.47664 9.20256C1.47644 9.2604 1.47624 9.31824 1.47603 9.37783C1.49407 9.63506 1.5335 9.82763 1.70413 10.0242C1.97575 10.2558 2.17834 10.2829 2.52757 10.2826C2.58982 10.2826 2.65208 10.2827 2.71622 10.2828C2.78484 10.2826 2.85346 10.2824 2.92208 10.2822C2.99462 10.2822 3.06715 10.2822 3.13969 10.2823C3.33632 10.2823 3.53295 10.282 3.72958 10.2817C3.93518 10.2814 4.14078 10.2813 4.34637 10.2813C4.73558 10.2811 5.12478 10.2807 5.51398 10.2802C5.95712 10.2797 6.40027 10.2794 6.84341 10.2792C7.75488 10.2787 8.66635 10.2778 9.57781 10.2767C9.57781 9.31306 9.57781 8.3494 9.57781 7.35654C8.62422 7.35434 7.67063 7.35255 6.71704 7.35149C6.27426 7.35099 5.83148 7.35031 5.3887 7.34919C5.00273 7.34822 4.61676 7.3476 4.23078 7.34738C4.02645 7.34725 3.82213 7.34695 3.6178 7.34624C3.42536 7.34558 3.23292 7.34538 3.04048 7.34553C2.96997 7.3455 2.89946 7.34531 2.82896 7.34493C2.7324 7.34445 2.63585 7.34462 2.53929 7.34483C2.45836 7.3447 2.45836 7.3447 2.3758 7.34456C2.12349 7.36382 1.93343 7.40568 1.74068 7.57251ZM11.0399 7.35654C11.0399 12.6888 11.0399 18.021 11.0399 23.5149C12.0048 23.5149 12.9697 23.5149 13.9639 23.5149C13.9639 18.1826 13.9639 12.8504 13.9639 7.35654C12.999 7.35654 12.034 7.35654 11.0399 7.35654ZM15.426 7.35654C15.426 8.3202 15.426 9.28386 15.426 10.2767C16.3796 10.2789 17.3331 10.2807 18.2867 10.2818C18.7295 10.2823 19.1723 10.2829 19.6151 10.2841C20.0011 10.285 20.387 10.2857 20.773 10.2859C20.9773 10.286 21.1816 10.2863 21.386 10.287C21.5784 10.2877 21.7709 10.2879 21.9633 10.2877C22.0338 10.2878 22.1043 10.2879 22.1748 10.2883C22.2714 10.2888 22.3679 10.2886 22.4645 10.2884C22.5454 10.2886 22.5454 10.2886 22.628 10.2887C22.8803 10.2694 23.0703 10.2276 23.2631 10.0607C23.5637 9.70905 23.525 9.36805 23.5249 8.92321C23.525 8.82335 23.5259 8.72352 23.5269 8.62366C23.5269 8.55998 23.527 8.4963 23.5271 8.43069C23.5273 8.37286 23.5275 8.31502 23.5277 8.25543C23.5097 7.9982 23.4703 7.80563 23.2996 7.60901C23.028 7.37745 22.8254 7.35039 22.4762 7.35068C22.414 7.35062 22.3517 7.35055 22.2876 7.35048C22.2189 7.35065 22.1503 7.35083 22.0817 7.35101C22.0092 7.35103 21.9366 7.35102 21.8641 7.35099C21.6675 7.35098 21.4708 7.35126 21.2742 7.3516C21.0686 7.35191 20.863 7.35193 20.6574 7.35199C20.2682 7.35214 19.879 7.35254 19.4898 7.35303C19.0467 7.35358 18.6035 7.35384 18.1604 7.35409C17.2489 7.3546 16.3374 7.35549 15.426 7.35654ZM2.94991 11.7368C2.94707 13.6921 2.94707 13.6921 2.94515 15.6474C2.94496 15.911 2.94476 16.1747 2.94456 16.4383C2.94453 16.4714 2.94451 16.5044 2.94448 16.5385C2.94405 17.0717 2.94329 17.605 2.94239 18.1383C2.94148 18.6857 2.94095 19.2331 2.94074 19.7805C2.94061 20.0879 2.94031 20.3954 2.93961 20.7028C2.93894 20.9921 2.93874 21.2814 2.93889 21.5708C2.93886 21.677 2.93867 21.7832 2.93829 21.8894C2.93781 22.0344 2.93792 22.1794 2.93819 22.3244C2.93791 22.3664 2.93762 22.4084 2.93733 22.4517C2.93886 22.7608 2.95586 23.0201 3.16617 23.2624C4.79292 24.6493 7.43894 23.5149 9.57781 23.5149C9.57781 19.6281 9.57781 15.7414 9.57781 11.7368C7.39061 11.7368 5.2034 11.7368 2.94991 11.7368ZM15.426 11.7368C15.426 15.6236 15.426 19.5103 15.426 23.5149C18.8732 24.1023 18.8732 24.1023 21.8011 23.2989C22.0661 22.9888 22.061 22.7255 22.0597 22.3362C22.0598 22.2908 22.0598 22.2455 22.0599 22.1988C22.0599 22.0469 22.0597 21.895 22.0594 21.743C22.0594 21.6342 22.0594 21.5253 22.0594 21.4164C22.0594 21.1207 22.0591 20.825 22.0588 20.5293C22.0585 20.2203 22.0585 19.9113 22.0584 19.6023C22.0583 19.0836 22.058 18.5649 22.0575 18.0463C22.0571 17.5121 22.0568 16.9779 22.0565 16.4437C22.0565 16.4104 22.0565 16.3771 22.0565 16.3428C22.0564 16.0534 22.0563 15.764 22.0562 15.4746C22.0557 14.2286 22.0548 12.9827 22.0539 11.7368C19.8667 11.7368 17.6795 11.7368 15.426 11.7368Z" fill="#6A18A4"/>
</svg>
