<svg width="25" height="25" viewBox="0 0 25 25" fill="none" xmlns="http://www.w3.org/2000/svg">
<path d="M6.6316 6.81659C7.09488 7.19784 7.41069 7.69286 7.55372 8.27596C7.56889 8.33731 7.56889 8.33731 7.58437 8.3999C7.71665 9.21654 7.60875 9.98745 7.13625 10.6729C6.99104 10.874 6.84324 11.0553 6.66313 11.226C6.74794 11.2655 6.74794 11.2655 6.83446 11.3058C7.72745 11.7308 8.5827 12.3159 9.11224 13.1742C9.11224 13.2109 9.11224 13.2476 9.11224 13.2855C9.14253 13.2692 9.17282 13.2529 9.20402 13.2362C9.34259 13.1619 9.48137 13.088 9.62016 13.0141C9.6678 12.9885 9.71544 12.9629 9.76453 12.9365C10.0068 12.8079 10.2386 12.6932 10.5038 12.6176C10.4688 12.5858 10.4338 12.554 10.3977 12.5212C9.70956 11.8694 9.28775 11.1304 9.25032 10.1715C9.23565 9.19792 9.47802 8.37616 10.1559 7.64977C10.8831 6.97114 11.7032 6.73137 12.6773 6.74383C13.098 6.75951 13.4545 6.82815 13.8435 6.99575C13.8909 7.01397 13.9383 7.0322 13.9872 7.05097C14.6846 7.35188 15.2493 7.97773 15.5286 8.67581C15.8422 9.58462 15.8699 10.5667 15.4577 11.4487C15.2197 11.9144 14.8928 12.2638 14.5114 12.6176C14.5519 12.6338 14.5924 12.65 14.6341 12.6667C15.0488 12.8358 15.4493 13.0245 15.8473 13.2298C15.8764 13.1927 15.9054 13.1556 15.9354 13.1174C16.6216 12.2581 17.3254 11.643 18.3521 11.226C18.305 11.1732 18.2579 11.1204 18.2094 11.066C17.5796 10.3214 17.3357 9.64093 17.3956 8.66749C17.4188 8.41126 17.4785 8.1806 17.5728 7.94199C17.5911 7.89543 17.6094 7.84886 17.6283 7.80088C17.9291 7.12748 18.4573 6.66356 19.1313 6.38347C19.9586 6.11871 20.7791 6.16518 21.5746 6.50871C22.3015 6.91168 22.7378 7.5371 22.965 8.32467C23.1312 9.08114 23.0278 9.79173 22.6715 10.4748C22.5331 10.6905 22.3633 10.8724 22.1866 11.0573C22.0788 11.1625 22.0788 11.1625 22.0257 11.2817C22.0654 11.2881 22.105 11.2945 22.1458 11.301C23.1403 11.5292 24.0514 12.4431 24.5851 13.2681C24.934 13.8404 25.0574 14.348 24.9758 15.011C24.837 15.5441 24.5526 15.9674 24.0991 16.2808C23.4535 16.6335 22.7719 16.5915 22.0581 16.5858C21.943 16.5855 21.8278 16.5853 21.7126 16.5851C21.4113 16.5845 21.1099 16.5828 20.8086 16.581C20.5004 16.5793 20.1922 16.5785 19.884 16.5777C19.2806 16.5759 18.6772 16.573 18.0738 16.5695C18.0743 16.6036 18.0749 16.6377 18.0754 16.6729C18.0761 16.7402 18.0761 16.7402 18.0767 16.8089C18.0773 16.8533 18.0778 16.8978 18.0784 16.9436C18.0611 17.4188 17.7368 17.9146 17.4058 18.2394C16.811 18.7081 16.2415 18.8213 15.4979 18.8176C15.426 18.8179 15.354 18.8182 15.2799 18.8185C15.0842 18.8192 14.8884 18.8189 14.6927 18.8184C14.4869 18.818 14.2811 18.8184 14.0753 18.8186C13.7298 18.8189 13.3843 18.8185 13.0388 18.8177C12.6406 18.8168 12.2424 18.8171 11.8442 18.8181C11.501 18.8188 11.1578 18.8189 10.8146 18.8185C10.6102 18.8182 10.4058 18.8182 10.2014 18.8187C9.97338 18.8193 9.74536 18.8185 9.51731 18.8176C9.45044 18.8179 9.38357 18.8183 9.31468 18.8186C8.58297 18.8131 8.05871 18.6095 7.51545 18.1211C7.09194 17.6798 6.93823 17.1592 6.94144 16.5695C6.87819 16.57 6.81495 16.5705 6.74979 16.571C6.15123 16.5755 5.55269 16.5789 4.95412 16.5811C4.64645 16.5822 4.3388 16.5838 4.03115 16.5863C3.73376 16.5888 3.43638 16.5901 3.13898 16.5906C3.02602 16.5911 2.91305 16.5919 2.80008 16.5931C2.01844 16.6011 1.2749 16.606 0.647973 16.0677C0.466825 15.8818 0.330743 15.6835 0.206376 15.4563C0.187434 15.4234 0.168491 15.3906 0.148975 15.3567C-0.050516 14.9374 -0.0274496 14.3753 0.0883125 13.9339C0.542871 12.7727 1.57782 11.8325 2.69811 11.323C2.82247 11.2817 2.82247 11.2817 2.98946 11.2817C2.96585 11.2566 2.94225 11.2316 2.91793 11.2058C2.2794 10.5055 1.96592 9.81891 1.97581 8.87106C2.01675 8.15463 2.30844 7.43661 2.83117 6.93661C3.94018 6.01983 5.46584 5.96332 6.6316 6.81659ZM3.23102 8.00418C2.95578 8.41664 2.88299 8.84463 2.9338 9.33353C3.05303 9.90728 3.40124 10.3441 3.88352 10.6694C4.30693 10.9057 4.78876 10.9696 5.2605 10.8538C5.85833 10.6553 6.24173 10.3286 6.55181 9.77882C6.71968 9.36976 6.73406 8.88801 6.62486 8.45991C6.57238 8.33439 6.51312 8.22393 6.44048 8.10898C6.40507 8.05086 6.40507 8.05086 6.36895 7.99157C6.0811 7.565 5.68101 7.31624 5.18592 7.18904C4.38712 7.03562 3.72286 7.37694 3.23102 8.00418ZM18.693 7.9072C18.3417 8.39953 18.294 8.83939 18.3521 9.44485C18.4004 9.6326 18.4715 9.78239 18.5747 9.94581C18.5983 9.98455 18.6219 10.0233 18.6463 10.0632C18.9432 10.5033 19.3911 10.7867 19.9106 10.8921C20.3937 10.9478 20.8567 10.8585 21.2569 10.5755C21.7219 10.1923 22.0188 9.78971 22.1025 9.17981C22.1263 8.64149 21.9675 8.21141 21.6152 7.80632C21.2185 7.39865 20.7935 7.16432 20.2167 7.14186C19.603 7.16779 19.0816 7.43465 18.693 7.9072ZM10.6629 8.5347C10.5621 8.68598 10.4748 8.83753 10.3925 8.99956C10.3624 9.05757 10.3624 9.05757 10.3318 9.11675C10.1267 9.60538 10.1482 10.2825 10.3159 10.7807C10.6111 11.4632 11.0406 11.8919 11.7283 12.1723C12.377 12.3859 13.0159 12.2986 13.6313 12.0192C14.193 11.7137 14.5808 11.2083 14.7636 10.5957C14.8949 9.84664 14.778 9.16504 14.3523 8.53274C13.9938 8.09519 13.4612 7.76736 12.8938 7.70717C12.0277 7.64694 11.2362 7.82548 10.6629 8.5347ZM1.52421 13.3859C1.41267 13.5348 1.30865 13.6855 1.20829 13.8421C1.18296 13.8811 1.15763 13.92 1.13153 13.9602C0.965707 14.2473 0.941623 14.5172 0.985639 14.844C1.08336 15.1429 1.28102 15.3435 1.54226 15.512C1.82634 15.6289 2.08322 15.6436 2.38561 15.65C2.43579 15.6515 2.48598 15.6529 2.53769 15.6544C3.06044 15.6685 3.58338 15.6748 4.10628 15.6806C4.35408 15.6836 4.60164 15.689 4.84934 15.6966C5.14931 15.7057 5.44905 15.7105 5.74915 15.7121C5.86306 15.7135 5.97697 15.7164 6.0908 15.7208C6.68519 15.7636 6.68519 15.7636 7.20857 15.5366C7.38318 15.3239 7.49805 15.0904 7.61005 14.8406C7.7869 14.4935 8.11577 14.2251 8.38864 13.9534C8.07595 13.0688 7.20249 12.5548 6.40939 12.1564C4.72679 11.4102 2.67996 11.9913 1.52421 13.3859ZM17.0162 13.2855C16.8702 13.4612 16.7263 13.6357 16.6266 13.8421C16.6841 14.0147 16.7496 14.0813 16.8768 14.2052C17.1088 14.433 17.3176 14.6495 17.4511 14.9497C17.6534 15.389 17.6534 15.389 18.0251 15.6739C18.3758 15.7521 18.7334 15.7297 19.09 15.7161C19.2055 15.7149 19.3209 15.714 19.4364 15.7135C19.7392 15.7111 20.0417 15.7031 20.3445 15.6942C20.5912 15.6878 20.8379 15.6854 21.0847 15.6831C21.38 15.6804 21.6752 15.6759 21.9705 15.6709C22.0264 15.67 22.0823 15.6691 22.1399 15.6682C22.299 15.6652 22.458 15.661 22.617 15.6564C22.6634 15.6556 22.7099 15.6548 22.7577 15.6539C23.1101 15.6418 23.4342 15.5839 23.711 15.3484C23.7568 15.2916 23.7568 15.2916 23.8034 15.2336C23.8349 15.1958 23.8664 15.1579 23.8989 15.1188C24.0746 14.8663 24.0646 14.5825 24.0296 14.2874C23.7718 13.4328 22.9297 12.7401 22.1823 12.3253C20.4033 11.3805 18.3739 11.8777 17.0162 13.2855ZM8.6354 14.9709C8.1908 15.5048 7.85688 16.0136 7.87051 16.7239C7.90838 17.1199 8.08674 17.3574 8.38451 17.609C8.78457 17.8644 9.12254 17.8743 9.58924 17.8731C9.65898 17.8736 9.72872 17.8741 9.80057 17.8745C9.99104 17.8756 10.1815 17.8759 10.3719 17.8758C10.5314 17.8758 10.6909 17.8763 10.8503 17.8768C11.2269 17.8778 11.6034 17.878 11.98 17.8776C12.3673 17.8772 12.7545 17.8785 13.1418 17.8806C13.4753 17.8823 13.8088 17.8829 14.1424 17.8827C14.3411 17.8826 14.5398 17.8829 14.7386 17.8843C14.9605 17.8857 15.1824 17.885 15.4044 17.884C15.5019 17.8851 15.5019 17.8851 15.6015 17.8862C16.05 17.8816 16.4262 17.7948 16.772 17.4931C17.0668 17.1664 17.1614 16.8178 17.1462 16.3886C17.0501 15.6015 16.3244 14.8357 15.736 14.3431C13.5877 12.6808 10.443 12.946 8.6354 14.9709Z" fill="#6A18A4"/>
<path d="M2.15482 17.8498C2.39692 18.0079 2.50833 18.1809 2.64186 18.4342C2.85449 18.8238 3.10292 19.1719 3.37937 19.5196C3.41884 19.5699 3.4583 19.6201 3.49896 19.6718C5.41382 22.0637 8.14495 23.5427 11.179 23.9502C13.4956 24.1907 15.801 23.7731 17.8646 22.6881C17.9504 22.6431 18.0369 22.5993 18.1234 22.5556C18.8442 22.1817 19.4984 21.6922 20.1038 21.154C20.1883 21.0789 20.2736 21.005 20.359 20.931C21.2525 20.1463 21.9472 19.1789 22.5481 18.1581C22.6272 18.0342 22.6892 17.939 22.8053 17.8498C23.187 17.8074 23.187 17.8074 23.3863 17.9403C23.4926 18.1019 23.5126 18.214 23.5289 18.4064C23.2607 19.3063 22.4771 20.1678 21.859 20.8555C21.8082 20.9132 21.7573 20.9709 21.7064 21.0286C19.7087 23.2728 16.8146 24.6172 13.8438 24.9188C13.7882 24.925 13.7326 24.9311 13.6753 24.9375C10.5281 25.2372 7.14926 24.3394 4.69286 22.3136C4.64514 22.2733 4.59743 22.2329 4.54827 22.1914C4.51791 22.166 4.48755 22.1406 4.45627 22.1144C3.84981 21.6061 3.31811 21.0855 2.82276 20.4659C2.76873 20.4017 2.76873 20.4017 2.71361 20.3363C1.49555 18.8746 1.49555 18.8746 1.4834 18.2186C1.62143 17.8776 1.79149 17.7988 2.15482 17.8498Z" fill="#6A18A4"/>
<path d="M20.7525 3.06463C20.8623 3.16828 20.9713 3.27243 21.0795 3.37772C21.1127 3.40978 21.1459 3.44185 21.1801 3.47488C21.2862 3.57769 21.3917 3.68108 21.497 3.78475C21.5297 3.81674 21.5624 3.84873 21.5962 3.88169C22.0615 4.34619 22.0615 4.34619 22.1093 4.69272C22.0814 4.88058 22.0814 4.88058 21.9945 5.01278C21.8042 5.1396 21.6995 5.17041 21.4692 5.15889C21.1986 4.99546 20.9982 4.74268 20.7908 4.50834C18.9666 2.45455 16.1638 1.23105 13.4416 1.04801C10.7421 0.907159 8.05092 1.51512 5.82822 3.09941C5.77944 3.13415 5.77944 3.13415 5.72967 3.16959C5.1726 3.57169 4.64514 4.02362 4.18838 4.5377C4.15656 4.57334 4.12473 4.60898 4.09195 4.6457C4.03109 4.71473 3.97109 4.78453 3.91214 4.8552C3.75835 5.03063 3.68427 5.09615 3.4513 5.15758C3.24102 5.15908 3.15265 5.12148 2.98948 4.9919C2.89835 4.80964 2.90803 4.69405 2.93382 4.49095C3.88261 2.97351 5.6342 1.8908 7.21976 1.15126C7.31168 1.10778 7.31168 1.10778 7.40545 1.06342C11.7251 -0.886037 17.2239 -0.118548 20.7525 3.06463Z" fill="#6A18A4"/>
<path d="M5.18811 17.8181C5.51085 17.87 5.67671 18.0767 5.86649 18.3295C7.22604 20.0594 9.37899 21.0068 11.5231 21.2774C13.7826 21.5094 16.1289 20.9214 17.9277 19.5158C18.0141 19.4435 18.1 19.3704 18.1851 19.2966C18.2533 19.2385 18.2533 19.2385 18.323 19.1792C18.7232 18.8297 19.0911 18.4482 19.4188 18.0295C19.5549 17.8639 19.6016 17.8529 19.8167 17.8286C20.0219 17.8494 20.0219 17.8494 20.1854 17.9677C20.3003 18.1277 20.3003 18.1277 20.3316 18.2912C20.2503 18.7339 19.8409 19.0662 19.5414 19.3829C19.476 19.4522 19.4116 19.5224 19.3473 19.5928C18.1037 20.9066 16.3601 21.7208 14.6228 22.1354C14.5832 22.1453 14.5436 22.1552 14.5028 22.1654C13.8458 22.3229 13.176 22.3195 12.5041 22.3232C12.4596 22.3237 12.4151 22.3241 12.3692 22.3246C11.5374 22.3309 10.7306 22.2303 9.92631 22.0136C9.88342 22.0021 9.84053 21.9906 9.79634 21.9788C7.89517 21.446 5.87903 20.2417 4.77065 18.573C4.69025 18.4122 4.69401 18.306 4.71499 18.1277C4.8605 17.9249 4.93998 17.858 5.18811 17.8181Z" fill="#6A18A4"/>
<path d="M14.5671 2.87655C14.6152 2.88732 14.6633 2.89808 14.7129 2.90917C15.8447 3.17088 17.8342 3.74163 18.5191 4.76904C18.5557 5.15334 18.5557 5.15334 18.4356 5.35349C18.2414 5.47002 18.0694 5.47482 17.8512 5.43698C17.6743 5.35496 17.5199 5.24605 17.3606 5.13432C16.2858 4.42118 15.1175 3.97091 13.8435 3.76714C13.7798 3.75688 13.7161 3.74662 13.6504 3.73605C11.4613 3.47509 9.18584 3.99725 7.39372 5.29783C7.15525 5.46037 7.00423 5.48535 6.71883 5.43698C6.57967 5.35349 6.57967 5.35349 6.49618 5.21434C6.4531 4.91275 6.4531 4.91275 6.49618 4.76904C6.69357 4.53603 6.924 4.38059 7.18151 4.22287C7.23984 4.18689 7.23984 4.18689 7.29935 4.15019C8.28324 3.55296 9.32429 3.12545 10.4482 2.87655C10.4895 2.86728 10.5308 2.85801 10.5733 2.84845C11.8342 2.57959 13.3111 2.59023 14.5671 2.87655Z" fill="#6A18A4"/>
</svg>
