<svg width="30" height="28" viewBox="0 0 30 28" fill="none" xmlns="http://www.w3.org/2000/svg">
<path d="M15.8802 0.254957C16.2058 0.495216 16.422 0.800174 16.5247 1.19237C16.5979 1.7574 16.4714 2.14584 16.1659 2.61313C15.8707 2.89542 15.5208 3.05898 15.1186 3.12578C15.1665 3.178 15.1665 3.178 15.2154 3.23128C15.4968 3.54059 15.7667 3.85627 16.0297 4.18128C16.1918 4.37884 16.3578 4.57271 16.5247 4.76625C16.7778 5.05995 17.0257 5.35713 17.2701 5.65811C17.4201 5.84098 17.5726 6.02147 17.7258 6.20166C18.0132 6.54001 18.296 6.88182 18.5753 7.22695C18.6189 7.27891 18.6625 7.33087 18.7074 7.3844C18.8097 7.51989 18.8097 7.51989 18.8097 7.63707C18.7488 7.66055 18.6879 7.68404 18.6252 7.70824C17.7181 8.07229 17.0929 8.61405 16.7025 9.52402C16.4249 10.2732 16.4648 11.0561 16.7719 11.7922C17.1615 12.5584 17.7589 13.103 18.5643 13.4043C19.1176 13.5621 19.7047 13.5158 20.2744 13.4959C20.2744 13.4572 20.2744 13.4185 20.2744 13.3787C20.2254 13.3588 20.2254 13.3588 20.1755 13.3384C19.8202 13.1367 19.5851 12.7997 19.4688 12.412C19.4167 11.8911 19.4785 11.4277 19.8166 11.0132C20.1487 10.6657 20.5154 10.5365 20.9847 10.4896C21.4033 10.5233 21.8553 10.6655 22.1492 10.9766C22.4921 11.4596 22.5453 11.8488 22.5007 12.4413C22.405 12.859 22.1524 13.1459 21.7977 13.3787C21.6658 13.419 21.6658 13.419 21.5633 13.4373C21.9511 14.1436 22.5066 14.5853 23.2715 14.8484C23.534 14.9109 23.7737 14.9222 24.0423 14.9203C24.0917 14.92 24.1411 14.9196 24.192 14.9193C24.9546 14.9044 25.639 14.6068 26.2009 14.0841C26.8578 13.3576 27.064 12.5219 27.0225 11.5691C26.9661 10.9044 26.5608 10.1972 26.0746 9.74624C25.9361 9.64775 25.7959 9.55632 25.6503 9.46863C25.6163 9.44424 25.5823 9.41984 25.5473 9.39471C25.5473 9.35604 25.5473 9.31737 25.5473 9.27753C26.1192 9.04825 26.6911 8.81907 27.263 8.59003C27.5286 8.48368 27.7941 8.3773 28.0596 8.27084C28.3156 8.16818 28.5717 8.06562 28.8277 7.96314C28.9257 7.92393 29.0236 7.88468 29.1214 7.8454C29.2581 7.79058 29.3947 7.73589 29.5314 7.68124C29.5723 7.6648 29.6131 7.64837 29.6553 7.63143C29.9347 7.51989 29.9347 7.51989 30 7.51989C29.9686 7.90959 29.9121 8.28404 29.8258 8.66516C29.8082 8.7448 29.8082 8.7448 29.7902 8.82605C29.7512 9.0023 29.7117 9.17843 29.6722 9.35456C29.6439 9.48153 29.6157 9.60851 29.5876 9.7355C29.5113 10.0791 29.4345 10.4225 29.3577 10.766C29.2774 11.1254 29.1974 11.485 29.1173 11.8445C28.983 12.4476 28.8484 13.0507 28.7137 13.6537C28.5749 14.2744 28.4365 14.8952 28.2983 15.516C28.1317 16.2647 27.9649 17.0133 27.7978 17.7619C27.734 18.0479 27.6703 18.3338 27.6067 18.6198C27.5318 18.9559 27.4568 19.2919 27.3816 19.6278C27.354 19.7514 27.3264 19.8751 27.2989 19.9987C27.2616 20.1668 27.2239 20.3348 27.1862 20.5027C27.1753 20.5523 27.1643 20.6019 27.153 20.653C27.0773 20.9885 27.0773 20.9885 27.012 21.0538C26.8847 21.0595 26.7571 21.061 26.6296 21.061C26.5687 21.0611 26.5687 21.0611 26.5065 21.0612C26.3687 21.0613 26.2309 21.0611 26.093 21.0608C25.9939 21.0608 25.8948 21.0609 25.7956 21.061C25.5219 21.0611 25.2481 21.0608 24.9744 21.0606C24.6797 21.0603 24.385 21.0604 24.0903 21.0604C23.5793 21.0605 23.0682 21.0603 22.5572 21.0599C21.8183 21.0595 21.0794 21.0593 20.3406 21.0592C19.1419 21.0591 17.9433 21.0587 16.7446 21.0582C15.5799 21.0576 14.4153 21.0572 13.2506 21.057C13.1788 21.057 13.1071 21.0569 13.0332 21.0569C12.6733 21.0569 12.3135 21.0568 11.9536 21.0567C8.96602 21.0561 5.97843 21.0551 2.99084 21.0538C2.91765 20.8782 2.85565 20.709 2.81441 20.5234C2.80418 20.4779 2.79395 20.4324 2.7834 20.3855C2.77257 20.3362 2.76174 20.2868 2.75059 20.236C2.73876 20.1831 2.72694 20.1302 2.71476 20.0756C2.67521 19.8984 2.63602 19.721 2.59683 19.5436C2.56855 19.4165 2.54025 19.2894 2.51193 19.1622C2.43508 18.8169 2.35854 18.4716 2.28208 18.1262C2.21826 17.838 2.15428 17.5499 2.0903 17.2617C1.93077 16.5433 1.77155 15.8248 1.61246 15.1062C1.4743 14.4822 1.33577 13.8583 1.19706 13.2343C1.05461 12.5936 0.9124 11.9528 0.770426 11.3119C0.690728 10.9522 0.61094 10.5924 0.530927 10.2328C0.455728 9.89467 0.380829 9.5565 0.306162 9.21829C0.278683 9.09406 0.251096 8.96985 0.223398 8.84566C0.185661 8.67638 0.148304 8.50703 0.111044 8.33764C0.0999539 8.28831 0.0888639 8.23899 0.0774375 8.18817C0.0279646 7.9614 -0.011062 7.75365 0.0028452 7.51989C0.88784 7.84208 1.76023 8.19666 2.63418 8.54738C2.84 8.62995 3.04588 8.7124 3.25174 8.79487C3.65306 8.95564 4.05432 9.11655 4.45555 9.27753C4.45555 9.3162 4.45555 9.35487 4.45555 9.39471C4.35902 9.4675 4.25956 9.5364 4.15895 9.60343C3.53343 10.0491 3.13003 10.6863 2.99084 11.4453C2.89971 12.3259 3.07 13.0562 3.57672 13.7888C3.60248 13.8261 3.62823 13.8634 3.65477 13.9019C4.06305 14.4314 4.74962 14.7596 5.39296 14.902C6.23257 14.9456 6.23257 14.9456 7.03343 14.7262C7.08546 14.7033 7.1375 14.6805 7.19111 14.6569C7.71824 14.3981 8.15278 14.0115 8.43955 13.4959C8.40556 13.4759 8.37157 13.456 8.33656 13.4355C7.95576 13.1992 7.64733 12.9355 7.50213 12.4999C7.45655 11.9627 7.45252 11.4792 7.79507 11.0352C8.12557 10.6975 8.52786 10.5366 8.99247 10.4859C9.51449 10.5409 9.90734 10.689 10.2558 11.0938C10.4965 11.4615 10.5841 11.8267 10.5487 12.2655C10.4363 12.7245 10.261 13.0155 9.90425 13.3201C9.84538 13.3784 9.78675 13.437 9.72849 13.4959C10.866 13.5357 11.7599 13.4695 12.6432 12.6647C13.2127 12.0555 13.5057 11.2516 13.4903 10.4241C13.4239 9.60052 13.086 8.8675 12.484 8.29893C12.1015 8.00912 11.648 7.78865 11.1932 7.63707C11.273 7.40048 11.3772 7.25368 11.5484 7.07315C11.7361 6.87049 11.9167 6.66551 12.0903 6.45066C12.2949 6.19788 12.5041 5.9499 12.7165 5.70366C12.9697 5.40979 13.2177 5.1124 13.4623 4.81133C13.6896 4.53396 13.9223 4.26114 14.1545 3.98786C14.304 3.81178 14.4531 3.63537 14.6023 3.459C14.6568 3.39453 14.7114 3.33007 14.7659 3.26561C14.805 3.21947 14.844 3.17332 14.8842 3.12578C14.8474 3.11717 14.8105 3.10856 14.7726 3.09969C14.3121 2.97902 13.988 2.7985 13.6905 2.42272C13.4714 2.01821 13.4235 1.64865 13.4781 1.19237C13.6234 0.716082 13.9224 0.375195 14.3535 0.132288C14.868 -0.0921994 15.4005 -0.0175551 15.8802 0.254957ZM14.8198 13.722C14.769 13.773 14.7183 13.824 14.666 13.8766C14.638 13.9046 14.61 13.9326 14.5811 13.9614C14.4883 14.0544 14.3958 14.1477 14.3034 14.241C14.2392 14.3054 14.175 14.3698 14.1108 14.4341C13.9416 14.6038 13.7728 14.7738 13.604 14.9439C13.4318 15.1172 13.2593 15.2903 13.0868 15.4634C12.7482 15.8032 12.41 16.1434 12.072 16.4839C12.1622 16.6982 12.2912 16.8344 12.4553 16.9976C12.4821 17.0245 12.509 17.0514 12.5367 17.0791C12.6252 17.1675 12.7141 17.2555 12.803 17.3435C12.8646 17.4049 12.9262 17.4663 12.9877 17.5277C13.1495 17.689 13.3115 17.8499 13.4737 18.0108C13.6393 18.1752 13.8045 18.3398 13.9697 18.5045C14.2938 18.8273 14.6182 19.1497 14.9428 19.4719C15.1572 19.3817 15.2934 19.2527 15.4566 19.0886C15.4969 19.0483 15.4969 19.0483 15.5381 19.0072C15.6265 18.9187 15.7144 18.8298 15.8024 18.7409C15.8638 18.6793 15.9252 18.6177 15.9866 18.5562C16.1479 18.3944 16.3089 18.2323 16.4698 18.0702C16.6341 17.9046 16.7988 17.7394 16.9634 17.5742C17.2862 17.2501 17.6086 16.9257 17.9308 16.6011C17.8407 16.3875 17.7124 16.2506 17.5494 16.0873C17.5227 16.0604 17.4961 16.0335 17.4686 16.0058C17.3807 15.9174 17.2923 15.8294 17.204 15.7415C17.1427 15.6801 17.0814 15.6187 17.0201 15.5572C16.8918 15.4288 16.7634 15.3006 16.6348 15.1725C16.4697 15.0081 16.3051 14.8431 16.1407 14.678C16.0143 14.5512 15.8877 14.4248 15.761 14.2984C15.7002 14.2376 15.6394 14.1768 15.5788 14.1159C15.4942 14.031 15.4092 13.9465 15.3242 13.8621C15.2518 13.7898 15.2518 13.7898 15.1779 13.716C15.0137 13.5726 14.9828 13.5777 14.8198 13.722Z" fill="#6A18A4"/>
<path d="M2.99072 24.0417C10.9177 24.0417 18.8447 24.0417 27.0119 24.0417C27.0119 25.0471 27.0119 26.0525 27.0119 27.0883C19.0849 27.0883 11.1579 27.0883 2.99072 27.0883C2.99072 26.083 2.99072 25.0776 2.99072 24.0417Z" fill="#6A18A4"/>
</svg>
