<svg width="88" height="88" viewBox="0 0 88 88" fill="none" xmlns="http://www.w3.org/2000/svg">
<path d="M43.418 0C43.534 0 43.65 0 43.7695 0C43.7897 0.294394 43.7897 0.294394 43.8102 0.594735C44.1365 5.36391 44.4637 10.133 44.7918 14.9021C44.9504 17.2083 45.1088 19.5146 45.2665 21.8209C45.4039 23.8304 45.5418 25.8399 45.6803 27.8493C45.7537 28.9139 45.8269 29.9785 45.8994 31.0431C45.9675 32.0442 46.0364 33.0452 46.1058 34.0461C46.1312 34.4145 46.1564 34.7828 46.1813 35.1512C46.2152 35.6522 46.25 36.1532 46.285 36.6541C46.2996 36.8752 46.2996 36.8752 46.3146 37.1008C46.352 37.8217 46.352 37.8217 46.582 38.4961C48.227 36.9927 48.227 36.9927 49.8168 35.4316C50.1266 35.1279 50.4498 34.8457 50.7788 34.563C51.3079 34.1075 51.8046 33.6318 52.2949 33.1348C52.8857 32.5358 53.4967 31.9791 54.1351 31.4319C54.5337 31.0762 54.908 30.7026 55.2832 30.3223C55.874 29.7233 56.485 29.1666 57.1234 28.6194C57.522 28.2637 57.8963 27.8901 58.2715 27.5098C58.8623 26.9108 59.4733 26.3541 60.1117 25.8069C60.6515 25.3252 61.1522 24.8063 61.6601 24.2915C62.1258 23.8322 62.6153 23.4083 63.1116 22.9827C63.4761 22.6589 63.8181 22.32 64.1602 21.9727C64.6101 21.5157 65.0686 21.0827 65.5554 20.6653C66.0811 20.2137 66.5738 19.7414 67.0605 19.248C67.6514 18.6491 68.2624 18.0924 68.9008 17.5452C69.2994 17.1895 69.6737 16.8158 70.0488 16.4355C70.6397 15.8366 71.2506 15.2799 71.889 14.7327C72.2876 14.377 72.6619 14.0033 73.0371 13.623C73.6265 13.0256 74.2352 12.4695 74.8732 11.925C75.4387 11.4186 75.9604 10.8702 76.4854 10.3223C76.8164 10.0195 76.8164 10.0195 77.168 10.0195C76.8766 10.784 76.3046 11.2661 75.7288 11.8213C74.9844 12.551 74.2696 13.2865 73.5947 14.0817C73.1232 14.6149 72.6104 15.1058 72.104 15.6054C71.6447 16.0712 71.2208 16.5607 70.7952 17.057C70.3607 17.546 69.8934 17.9989 69.4274 18.4577C69.0957 18.7947 68.7855 19.1418 68.4778 19.5007C68.0262 20.0264 67.5539 20.5191 67.0605 21.0059C66.5708 21.489 66.102 21.9777 65.6543 22.5C65.0827 23.1668 64.4665 23.7786 63.8416 24.3951C63.4927 24.749 63.1651 25.1111 62.8418 25.4883C62.2702 26.1551 61.654 26.7669 61.0291 27.3834C60.6802 27.7373 60.3526 28.0994 60.0293 28.4766C59.4577 29.1434 58.8415 29.7552 58.2166 30.3717C57.8677 30.7256 57.5401 31.0877 57.2168 31.4648C56.6452 32.1317 56.029 32.7435 55.4041 33.36C55.0552 33.7138 54.7276 34.076 54.4043 34.4531C53.8327 35.12 53.2165 35.7317 52.5916 36.3483C52.137 36.8093 51.7181 37.2939 51.2972 37.7854C50.8055 38.3361 50.2757 38.8471 49.7502 39.3654C49.3651 39.7565 49.0185 40.1646 48.6914 40.6055C49.2643 40.8919 49.9022 40.8607 50.5334 40.9025C50.6894 40.9134 50.8455 40.9243 51.0063 40.9356C51.5323 40.9722 52.0584 41.0077 52.5844 41.0432C52.9603 41.0692 53.3361 41.0952 53.712 41.1213C54.735 41.192 55.758 41.2618 56.7811 41.3315C57.8493 41.4044 58.9174 41.4781 59.9855 41.5518C62.0094 41.6912 64.0333 41.8299 66.0572 41.9683C68.3608 42.1258 70.6644 42.2842 72.968 42.4427C77.7078 42.7687 82.4476 43.0937 87.1875 43.418C87.1875 43.534 87.1875 43.65 87.1875 43.7695C86.8933 43.7897 86.8933 43.7897 86.5933 43.8102C81.827 44.1366 77.0607 44.4638 72.2945 44.7918C69.9897 44.9504 67.6848 45.1087 65.3799 45.2665C63.3714 45.4039 61.3631 45.5418 59.3547 45.6803C58.2908 45.7537 57.2269 45.8268 56.1629 45.8994C55.1623 45.9676 54.1618 46.0364 53.1612 46.1058C52.7933 46.1312 52.4253 46.1564 52.0573 46.1813C51.5563 46.2152 51.0554 46.25 50.5545 46.285C50.3342 46.2996 50.3342 46.2996 50.1094 46.3146C49.5454 46.3547 49.0545 46.4024 48.5156 46.582C48.6663 46.7434 48.817 46.9047 48.9722 47.0709C50.8326 49.0663 50.8326 49.0663 51.714 50.088C52.1346 50.5669 52.5663 51.0352 52.998 51.5039C53.6386 52.1997 54.2706 52.9017 54.8904 53.616C55.5108 54.3259 56.1456 55.0229 56.7773 55.7227C57.0411 56.0156 57.3047 56.3085 57.5684 56.6016C57.6989 56.7466 57.8294 56.8916 57.9639 57.041C60.7324 60.1172 60.7324 60.1172 61.1224 60.5518C61.4027 60.8624 61.6849 61.1712 61.9684 61.4788C62.1116 61.6349 62.2548 61.791 62.4023 61.9519C62.5329 62.0931 62.6634 62.2342 62.7979 62.3797C63.1055 62.7539 63.1055 62.7539 63.2812 63.2812C62.7474 63.0411 62.3656 62.7661 61.9437 62.3618C61.8254 62.2496 61.7071 62.1373 61.5852 62.0216C61.4024 61.8457 61.4024 61.8457 61.2158 61.6663C60.3878 60.8752 59.5528 60.0988 58.6874 59.3486C58.2183 58.9395 57.7619 58.5181 57.3047 58.0957C56.7247 57.5614 56.1429 57.0302 55.5469 56.5137C54.9509 55.9972 54.3692 55.4658 53.7891 54.9316C53.0932 54.2911 52.3913 53.6591 51.6769 53.0392C50.8117 52.283 49.9632 51.5077 49.1109 50.7369C48.2776 49.9845 47.4384 49.2417 46.582 48.5156C46.3574 49.1894 46.3317 49.851 46.285 50.5545C46.2741 50.7107 46.2632 50.8669 46.2519 51.0279C46.2154 51.5533 46.1798 52.0789 46.1443 52.6044C46.1183 52.9803 46.0923 53.3562 46.0662 53.732C45.9955 54.7543 45.9257 55.7766 45.856 56.7989C45.7831 57.8666 45.7093 58.9343 45.6357 60.002C45.4963 62.0246 45.3577 64.0472 45.2192 66.0699C45.0616 68.3722 44.9033 70.6746 44.7448 72.9769C44.4188 77.7137 44.0939 82.4506 43.7695 87.1875C43.6535 87.1875 43.5375 87.1875 43.418 87.1875C43.4045 86.9912 43.3911 86.795 43.3773 86.5928C43.051 81.8236 42.7238 77.0545 42.3957 72.2854C42.2371 69.9792 42.0787 67.6729 41.921 65.3666C41.7836 63.3571 41.6457 61.3476 41.5072 59.3382C41.4338 58.2736 41.3606 57.209 41.2881 56.1444C41.22 55.1433 41.1511 54.1423 41.0817 53.1414C41.0563 52.773 41.0311 52.4047 41.0062 52.0363C40.9723 51.5353 40.9375 51.0343 40.9025 50.5334C40.8927 50.386 40.883 50.2386 40.873 50.0867C40.8355 49.3658 40.8355 49.3658 40.6055 48.6914C38.9605 50.1948 38.9605 50.1948 37.3707 51.7559C37.0609 52.0596 36.7377 52.3418 36.4087 52.6245C35.8796 53.08 35.3829 53.5557 34.8926 54.0527C34.3018 54.6517 33.6908 55.2084 33.0524 55.7556C32.6538 56.1113 32.2795 56.4849 31.9043 56.8652C31.3135 57.4642 30.7025 58.0209 30.0641 58.5681C29.6655 58.9238 29.2912 59.2974 28.916 59.6777C28.3252 60.2767 27.7142 60.8334 27.0758 61.3806C26.6772 61.7363 26.3029 62.1099 25.9277 62.4902C25.3369 63.0892 24.7259 63.6459 24.0875 64.1931C23.6889 64.5488 23.3146 64.9224 22.9395 65.3027C22.3486 65.9017 21.7376 66.4584 21.0992 67.0056C20.7006 67.3613 20.3263 67.7349 19.9512 68.1152C19.3603 68.7142 18.7494 69.2709 18.111 69.8181C17.7124 70.1738 17.338 70.5474 16.9629 70.9277C16.3721 71.5267 15.7611 72.0834 15.1227 72.6306C14.5829 73.1123 14.0822 73.6312 13.5743 74.146C13.11 74.6038 12.6225 75.0268 12.1268 75.45C11.6125 75.9087 11.1388 76.4048 10.6636 76.9036C10.3711 77.168 10.3711 77.168 10.0195 77.168C10.3109 76.4035 10.8829 75.9214 11.4587 75.3662C12.2031 74.6365 12.9179 73.901 13.5928 73.1058C14.0643 72.5726 14.5771 72.0817 15.0835 71.5821C15.5428 71.1163 15.9667 70.6268 16.3923 70.1305C16.8268 69.6415 17.2941 69.1886 17.7601 68.7298C18.0918 68.3928 18.402 68.0457 18.7097 67.6868C19.1613 67.1611 19.6336 66.6684 20.127 66.1816C20.6167 65.6985 21.0855 65.2098 21.5332 64.6875C22.1048 64.0207 22.721 63.4089 23.3459 62.7924C23.6948 62.4385 24.0224 62.0764 24.3457 61.6992C24.9173 61.0324 25.5335 60.4206 26.1584 59.8041C26.5073 59.4502 26.8349 59.0881 27.1582 58.7109C27.7298 58.0441 28.346 57.4323 28.9709 56.8158C29.3198 56.4619 29.6474 56.0998 29.9707 55.7227C30.5423 55.0558 31.1585 54.444 31.7834 53.8275C32.1323 53.4737 32.4599 53.1115 32.7832 52.7344C33.3548 52.0675 33.971 51.4558 34.5959 50.8392C35.0505 50.3782 35.4694 49.8936 35.8903 49.4021C36.382 48.8514 36.9118 48.3404 37.4373 47.8221C37.8224 47.431 38.169 47.0229 38.4961 46.582C38.1284 46.2143 37.3528 46.3184 36.8444 46.285C36.6878 46.2741 36.5311 46.2632 36.3697 46.2519C35.8408 46.2153 35.3117 46.1798 34.7827 46.1443C34.4051 46.1183 34.0275 46.0923 33.65 46.0662C32.6215 45.9954 31.593 45.9256 30.5645 45.856C29.4909 45.7831 28.4174 45.7094 27.3439 45.6357C25.3094 45.4962 23.275 45.3576 21.2405 45.2192C18.9249 45.0617 16.6094 44.9033 14.2939 44.7448C9.52935 44.4187 4.7647 44.0937 0 43.7695C0 43.6535 0 43.5375 0 43.418C0.295753 43.3978 0.295753 43.3978 0.597481 43.3773C5.38866 43.051 10.1798 42.7238 14.9708 42.3957C17.2877 42.2371 19.6046 42.0787 21.9216 41.921C23.9404 41.7836 25.9591 41.6457 27.9778 41.5072C29.0473 41.4338 30.1168 41.3606 31.1864 41.2881C32.192 41.22 33.1976 41.1511 34.2032 41.0817C34.5732 41.0563 34.9433 41.0311 35.3134 41.0062C35.8167 40.9723 36.32 40.9375 36.8232 40.9025C36.9713 40.8927 37.1194 40.883 37.272 40.873C37.9952 40.8358 37.9952 40.8358 38.6719 40.6055C38.5212 40.4441 38.3705 40.2828 38.2153 40.1166C36.3376 38.1027 36.3376 38.1027 35.4618 37.0878C35.0732 36.6433 34.6753 36.2076 34.2773 35.7715C33.7772 35.2232 33.2803 34.6733 32.7942 34.1125C32.1912 33.4184 31.5685 32.7427 30.9458 32.0664C30.3986 31.4711 29.863 30.8674 29.3335 30.2563C28.908 29.7741 28.4727 29.3012 28.0371 28.8281C27.4057 28.1424 26.7832 27.4506 26.1742 26.7448C25.8987 26.4336 25.6189 26.1284 25.3352 25.8247C25.2463 25.7293 25.1575 25.6339 25.066 25.5357C24.8884 25.3455 24.7102 25.1559 24.5311 24.9671C23.9062 24.2968 23.9062 24.2968 23.9062 23.9062C24.4401 24.1464 24.8219 24.4214 25.2438 24.8257C25.3621 24.9379 25.4804 25.0502 25.6023 25.1659C25.7851 25.3418 25.7851 25.3418 25.9717 25.5212C26.7997 26.3123 27.6347 27.0887 28.5001 27.8389C28.9692 28.248 29.4256 28.6694 29.8828 29.0918C30.574 29.7285 31.2719 30.3556 31.9819 30.9711C32.5994 31.5137 33.2038 32.0706 33.8111 32.6246C34.1938 32.9712 34.5794 33.3129 34.9695 33.6511C35.5688 34.1717 36.1543 34.7065 36.7383 35.2441C37.5479 35.9893 38.3673 36.7212 39.1992 37.4414C39.463 37.672 39.7267 37.9027 39.9902 38.1335C40.167 38.2882 40.167 38.2882 40.3473 38.446C40.4325 38.5205 40.5177 38.5951 40.6055 38.6719C40.8301 37.9981 40.8558 37.3365 40.9025 36.633C40.9134 36.4768 40.9243 36.3206 40.9356 36.1596C40.9721 35.6342 41.0077 35.1086 41.0432 34.5831C41.0692 34.2072 41.0952 33.8313 41.1213 33.4555C41.192 32.4332 41.2618 31.4109 41.3315 30.3886C41.4044 29.3209 41.4782 28.2532 41.5518 27.1855C41.6912 25.163 41.8298 23.1403 41.9683 21.1176C42.1259 18.8153 42.2842 16.5129 42.4427 14.2106C42.7687 9.47381 43.0936 4.73693 43.418 0Z" fill="white"/>
</svg>
