<svg width="87" height="87" viewBox="0 0 87 87" fill="none" xmlns="http://www.w3.org/2000/svg">
<path d="M86.8359 0C86.5807 0.588943 86.259 0.967652 85.8012 1.41449C85.6651 1.54863 85.529 1.68278 85.3888 1.82098C85.2464 1.95966 85.104 2.09833 84.9573 2.24121C84.0639 3.11491 83.197 3.99208 82.3832 4.94059C81.901 5.4877 81.3802 5.994 80.8594 6.50391C79.9073 7.44323 79.9073 7.44323 79.0137 8.4375C78.3366 9.23895 77.5814 9.96196 76.8363 10.6993C76.3123 11.22 75.7994 11.7399 75.3223 12.3047C74.6452 13.1061 73.89 13.8291 73.1449 14.5665C72.6209 15.0872 72.108 15.6071 71.6309 16.1719C70.9539 16.9732 70.1988 17.6961 69.4539 18.4333C68.8259 19.0573 68.2302 19.6931 67.6586 20.3693C67.0912 21.002 66.4791 21.5906 65.875 22.188C65.3754 22.6841 64.8897 23.1813 64.4348 23.7195C63.8533 24.4059 63.2171 25.0317 62.5781 25.6641C61.6263 26.6036 61.6263 26.6036 60.7324 27.5977C60.0553 28.3991 59.3001 29.1221 58.5551 29.8595C58.031 30.3802 57.5182 30.9001 57.041 31.4648C56.3639 32.2663 55.6087 32.9893 54.8637 33.7267C54.3396 34.2474 53.8267 34.7673 53.3496 35.332C52.7723 36.0153 52.139 36.6368 51.5039 37.2656C48.763 39.9014 48.763 39.9014 47.7246 43.429C47.7392 46.0268 49.3433 47.5488 51.0561 49.2905C51.3647 49.6079 51.6567 49.9362 51.9434 50.2734C52.5387 50.9659 53.1645 51.6289 53.7891 52.2949C54.5166 53.0707 55.2358 53.8497 55.93 54.6556C56.633 55.4551 57.364 56.2299 58.0875 57.0109C59.2244 58.2397 60.3515 59.4771 61.4699 60.7228C61.9175 61.2189 62.3682 61.7122 62.8198 62.2046C62.8997 62.2918 62.9795 62.379 63.0618 62.4689C63.4905 62.9367 63.9214 63.4024 64.3552 63.8656C64.4439 63.9609 64.5326 64.0562 64.6241 64.1544C64.7945 64.3374 64.9656 64.5198 65.1375 64.7015C65.516 65.1091 65.7395 65.3825 65.918 65.918C65.3463 65.6688 64.9839 65.3686 64.5557 64.9182C64.1044 64.4553 63.6504 64.0105 63.1604 63.5889C62.5209 63.0386 61.9002 62.4705 61.2817 61.897C60.4614 61.1367 59.6351 60.3839 58.8023 59.6372C57.8548 58.7838 56.9181 57.9186 55.9791 57.0558C55.0767 56.2268 54.1736 55.3987 53.2617 54.5801C52.6212 54.005 51.9844 53.4261 51.3501 52.8442C51.262 52.7635 51.1739 52.6828 51.0831 52.5996C50.6314 52.1853 50.1809 51.7698 49.7324 51.3522C46.7613 48.5013 46.7613 48.5013 42.8542 47.7225C41.3384 47.9271 40.1469 48.6688 39.1312 49.7887C38.8452 50.1003 38.5455 50.3645 38.2214 50.636C37.5157 51.2427 36.8651 51.8976 36.2109 52.5586C35.4823 53.2948 34.7503 54.0047 33.9587 54.6735C33.3988 55.1775 32.8736 55.7146 32.3438 56.25C31.6151 56.9862 30.8832 57.6961 30.0916 58.3649C29.5316 58.8689 29.0064 59.406 28.4766 59.9414C27.7479 60.6777 27.016 61.3875 26.2244 62.0563C25.6644 62.5603 25.1392 63.0974 24.6094 63.6328C23.8807 64.3691 23.1488 65.0789 22.3572 65.7477C21.6821 66.3553 21.053 67.0101 20.4144 67.6555C19.7904 68.2835 19.1546 68.8792 18.4783 69.4508C17.9523 69.9225 17.4596 70.4254 16.9629 70.9277C16.367 71.5304 15.776 72.127 15.1282 72.6746C14.4417 73.2561 13.8159 73.8923 13.1836 74.5312C12.455 75.2675 11.723 75.9773 10.9314 76.6461C10.3714 77.1501 9.84624 77.6873 9.31641 78.2227C8.58778 78.9589 7.85581 79.6688 7.06421 80.3375C6.50422 80.8415 5.97905 81.3787 5.44922 81.9141C4.7221 82.6488 3.99282 83.3586 3.20114 84.0241C2.49863 84.6584 1.84389 85.3437 1.18584 86.0236C1.08319 86.1283 0.980543 86.233 0.874786 86.3409C0.782478 86.4361 0.69017 86.5314 0.595064 86.6296C0.351562 86.8359 0.351562 86.8359 0 86.8359C0.255214 86.247 0.576908 85.8683 1.03477 85.4214C1.17084 85.2873 1.30691 85.1532 1.44711 85.015C1.58952 84.8763 1.73193 84.7376 1.87866 84.5947C2.77202 83.721 3.63891 82.8439 4.45277 81.8954C4.93491 81.3482 5.4557 80.8419 5.97656 80.332C6.92859 79.3927 6.92859 79.3927 7.82227 78.3984C8.49936 77.597 9.25455 76.874 9.99962 76.1366C10.5237 75.6159 11.0365 75.096 11.5137 74.5312C12.1908 73.7298 12.946 73.0068 13.691 72.2694C14.2151 71.7487 14.7279 71.2288 15.2051 70.6641C15.8822 69.8626 16.6374 69.1396 17.3824 68.4023C17.9065 67.8815 18.4193 67.3616 18.8965 66.7969C19.5735 65.9956 20.3285 65.2727 21.0735 64.5355C21.7014 63.9115 22.2972 63.2757 22.8687 62.5994C23.4362 61.9667 24.0482 61.3781 24.6524 60.7807C25.152 60.2846 25.6377 59.7874 26.0925 59.2493C26.6741 58.5628 27.3103 57.937 27.9492 57.3047C28.9011 56.3652 28.9011 56.3652 29.7949 55.3711C30.472 54.5696 31.2272 53.8466 31.9723 53.1093C32.4963 52.5886 33.0092 52.0687 33.4863 51.5039C34.0636 50.8206 34.6969 50.1991 35.332 49.5703C38.0729 46.9346 38.0729 46.9346 39.1113 43.407C39.0968 40.8091 37.4927 39.2871 35.7798 37.5454C35.4713 37.228 35.1792 36.8998 34.8926 36.5625C34.2973 35.87 33.6715 35.207 33.0469 34.541C32.3194 33.7652 31.6002 32.9862 30.9059 32.1803C30.2029 31.3808 29.4719 30.606 28.7484 29.825C27.6119 28.5967 26.4851 27.3599 25.3674 26.1145C24.8314 25.5205 24.2901 24.9314 23.7487 24.3423C23.085 23.6196 22.4286 22.8905 21.7749 22.1587C21.4571 21.8008 21.4571 21.8008 21.1377 21.5064C20.918 21.2695 20.918 21.2695 20.918 20.918C21.4465 21.1535 21.7965 21.4099 22.1924 21.8298C22.6034 22.2529 23.0188 22.6546 23.4668 23.0383C24.1884 23.6599 24.8818 24.3094 25.5762 24.9609C26.352 25.6885 27.131 26.4076 27.9369 27.1019C28.7364 27.8049 29.5112 28.5359 30.2921 29.2594C31.5209 30.3963 32.7584 31.5234 34.0041 32.6418C34.5002 33.0893 34.9934 33.54 35.4858 33.9917C35.574 34.0724 35.6621 34.1532 35.7529 34.2364C36.2046 34.6506 36.655 35.0661 37.1036 35.4838C40.0746 38.3346 40.0746 38.3346 43.9817 39.1134C45.4975 38.9089 46.6891 38.1671 47.7047 37.0473C47.9907 36.7356 48.2905 36.4715 48.6145 36.2C49.3202 35.5933 49.9709 34.9384 50.625 34.2773C51.3536 33.5411 52.0856 32.8312 52.8772 32.1625C53.4372 31.6585 53.9624 31.1213 54.4922 30.5859C55.2208 29.8497 55.9528 29.1398 56.7444 28.4711C57.4195 27.8635 58.0485 27.2086 58.6872 26.5633C59.3112 25.9353 59.947 25.3396 60.6232 24.768C61.1493 24.2962 61.642 23.7933 62.1387 23.291C62.7346 22.6884 63.3255 22.0917 63.9734 21.5442C64.6599 20.9627 65.2857 20.3264 65.918 19.6875C66.6466 18.9513 67.3786 18.2414 68.1702 17.5726C68.7302 17.0686 69.2553 16.5315 69.7852 15.9961C70.5138 15.2598 71.2458 14.55 72.0374 13.8812C72.5973 13.3772 73.1225 12.8401 73.6523 12.3047C74.381 11.5684 75.1129 10.8586 75.9045 10.1898C76.4645 9.68583 76.9897 9.14865 77.5195 8.61328C78.2482 7.87703 78.9801 7.16718 79.7717 6.49841C80.3317 5.99442 80.8569 5.45725 81.3867 4.92188C82.1138 4.18715 82.8431 3.47731 83.6348 2.81181C84.3373 2.17757 84.992 1.49225 85.6501 0.812302C85.7527 0.707616 85.8554 0.60293 85.9612 0.495071C86.0535 0.399803 86.1458 0.304535 86.2409 0.20638C86.4844 0 86.4844 0 86.8359 0Z" fill="white"/>
</svg>
