<svg width="302" height="128" viewBox="0 0 302 128" fill="none" xmlns="http://www.w3.org/2000/svg">
<g filter="url(#filter0_dd_5147_8031)">
<mask id="path-1-outside-1_5147_8031" maskUnits="userSpaceOnUse" x="17.7051" y="40" width="228" height="50" fill="black">
<rect fill="white" x="17.7051" y="40" width="228" height="50"/>
<path d="M25.7996 63.5V76H19.7996V42H31.1496C34.5829 42 37.2163 42.8833 39.0496 44.65C40.9163 46.3833 41.8496 48.7167 41.8496 51.65V53.8C41.8496 55.7333 41.4329 57.4333 40.5996 58.9C39.7663 60.3667 38.5663 61.4833 36.9996 62.25C39.7329 66.9167 42.0663 71.5 43.9996 76H37.1496C35.4829 71.8333 33.4996 67.6667 31.1996 63.5H25.7996ZM31.1496 47.5H25.7996V58H31.1496C32.6163 58 33.7329 57.6333 34.4996 56.9C35.2996 56.1333 35.6996 55.1 35.6996 53.8V51.65C35.6996 50.3833 35.2996 49.3833 34.4996 48.65C33.7329 47.8833 32.6163 47.5 31.1496 47.5ZM75.2184 76.25C73.5184 76.25 72.1517 75.9 71.1184 75.2C70.1184 74.5 69.385 73.6333 68.9184 72.6C67.485 73.9333 66.1017 74.9167 64.7684 75.55C63.435 76.1833 62.0017 76.5 60.4684 76.5C58.235 76.5 56.585 75.7833 55.5184 74.35C54.485 72.9167 53.9684 71.1 53.9684 68.9C53.9684 67.4333 54.235 66.15 54.7684 65.05C55.335 63.9167 56.2517 63.0333 57.5184 62.4C58.785 61.7667 60.5184 61.45 62.7184 61.45C63.585 61.45 64.485 61.5167 65.4184 61.65C66.3517 61.75 67.285 61.8833 68.2184 62.05V59.1C68.2184 57.7 67.835 56.75 67.0684 56.25C66.3017 55.7167 65.2684 55.45 63.9684 55.45C62.9684 55.45 61.8684 55.5833 60.6684 55.85C59.5017 56.1167 58.235 56.5333 56.8684 57.1L55.2184 52.2C58.585 50.8333 61.635 50.15 64.3684 50.15C66.835 50.15 68.735 50.5667 70.0684 51.4C71.435 52.2333 72.385 53.3333 72.9184 54.7C73.4517 56.0667 73.7184 57.5333 73.7184 59.1V68.85C73.7184 69.35 73.8517 69.8333 74.1184 70.3C74.4184 70.7333 74.985 70.95 75.8184 70.95H76.3684V76.25H75.2184ZM59.5184 68.8C59.5184 69.7 59.7184 70.4167 60.1184 70.95C60.5184 71.45 61.1017 71.7 61.8684 71.7C62.635 71.7 63.5017 71.5 64.4684 71.1C65.435 70.7 66.685 69.7667 68.2184 68.3V66.15C66.485 65.85 64.785 65.7 63.1184 65.7C61.8184 65.7 60.885 65.9667 60.3184 66.5C59.785 67.0333 59.5184 67.8 59.5184 68.8ZM97.3777 78.5C96.2777 81.5667 94.8777 83.7667 93.1777 85.1C91.4777 86.4667 89.1444 87.15 86.1777 87.15V81.4C87.9444 81.3333 89.3277 80.9333 90.3277 80.2C91.3611 79.5 92.1277 78.5167 92.6277 77.25L93.0777 76.1L84.0277 50.65H89.7277L94.0777 63.3L95.7777 68.65L97.4277 63.3L101.578 50.65H107.278L97.3777 78.5ZM138.841 61.8V64.8C138.841 68.3333 137.874 71.1667 135.941 73.3C134.007 75.4333 131.274 76.5 127.741 76.5C124.207 76.5 121.474 75.4333 119.541 73.3C117.607 71.1667 116.641 68.3333 116.641 64.8V61.8C116.641 58.2667 117.591 55.45 119.491 53.35C121.424 51.2167 124.174 50.15 127.741 50.15C131.307 50.15 134.041 51.2167 135.941 53.35C137.874 55.45 138.841 58.2667 138.841 61.8ZM132.941 61.8C132.941 59.7667 132.491 58.1833 131.591 57.05C130.691 55.8833 129.407 55.3 127.741 55.3C126.074 55.3 124.791 55.8833 123.891 57.05C122.991 58.1833 122.541 59.7667 122.541 61.8V64.8C122.541 66.8333 122.991 68.4333 123.891 69.6C124.791 70.7667 126.074 71.35 127.741 71.35C129.407 71.35 130.691 70.7667 131.591 69.6C132.491 68.4333 132.941 66.8333 132.941 64.8V61.8ZM164.188 55.5C163.355 55.5 162.405 55.7 161.338 56.1C160.271 56.5 159.005 57.2833 157.538 58.45V76H151.788V50.65H157.238V54.05C158.805 52.6833 160.288 51.7 161.688 51.1C163.088 50.4667 164.505 50.15 165.938 50.15C168.371 50.15 170.221 50.9333 171.488 52.5C172.755 54.0333 173.388 56.2 173.388 59V76H167.638V59.7C167.638 56.9 166.488 55.5 164.188 55.5ZM199.887 55.5C199.054 55.5 198.104 55.7 197.037 56.1C195.97 56.5 194.704 57.2833 193.237 58.45V76H187.487V50.65H192.937V54.05C194.504 52.6833 195.987 51.7 197.387 51.1C198.787 50.4667 200.204 50.15 201.637 50.15C204.07 50.15 205.92 50.9333 207.187 52.5C208.454 54.0333 209.087 56.2 209.087 59V76H203.337V59.7C203.337 56.9 202.187 55.5 199.887 55.5ZM242.436 74.55C240.703 75.25 239.07 75.75 237.536 76.05C236.003 76.35 234.553 76.5 233.186 76.5C229.42 76.5 226.57 75.4333 224.636 73.3C222.703 71.1667 221.736 68.3333 221.736 64.8V61.8C221.736 59.4333 222.17 57.3833 223.036 55.65C223.903 53.9167 225.136 52.5667 226.736 51.6C228.336 50.6333 230.22 50.15 232.386 50.15C234.153 50.15 235.803 50.5167 237.336 51.25C238.903 51.95 240.17 53.0667 241.136 54.6C242.136 56.1 242.636 58.0333 242.636 60.4C242.636 61.1 242.586 61.85 242.486 62.65C242.386 63.4167 242.22 64.2333 241.986 65.1H227.286C227.353 67.1667 227.87 68.7167 228.836 69.75C229.803 70.7833 231.353 71.3 233.486 71.3C234.62 71.3 235.786 71.1667 236.986 70.9C238.22 70.6333 239.486 70.2333 240.786 69.7L242.436 74.55ZM232.386 55C230.853 55 229.653 55.5 228.786 56.5C227.953 57.4667 227.47 58.8667 227.336 60.7H236.936C236.97 60.5333 236.986 60.3833 236.986 60.25C236.986 60.0833 236.986 59.9333 236.986 59.8C236.986 58.2 236.536 57 235.636 56.2C234.736 55.4 233.653 55 232.386 55Z"/>
</mask>
<path d="M25.7996 63.5V76H19.7996V42H31.1496C34.5829 42 37.2163 42.8833 39.0496 44.65C40.9163 46.3833 41.8496 48.7167 41.8496 51.65V53.8C41.8496 55.7333 41.4329 57.4333 40.5996 58.9C39.7663 60.3667 38.5663 61.4833 36.9996 62.25C39.7329 66.9167 42.0663 71.5 43.9996 76H37.1496C35.4829 71.8333 33.4996 67.6667 31.1996 63.5H25.7996ZM31.1496 47.5H25.7996V58H31.1496C32.6163 58 33.7329 57.6333 34.4996 56.9C35.2996 56.1333 35.6996 55.1 35.6996 53.8V51.65C35.6996 50.3833 35.2996 49.3833 34.4996 48.65C33.7329 47.8833 32.6163 47.5 31.1496 47.5ZM75.2184 76.25C73.5184 76.25 72.1517 75.9 71.1184 75.2C70.1184 74.5 69.385 73.6333 68.9184 72.6C67.485 73.9333 66.1017 74.9167 64.7684 75.55C63.435 76.1833 62.0017 76.5 60.4684 76.5C58.235 76.5 56.585 75.7833 55.5184 74.35C54.485 72.9167 53.9684 71.1 53.9684 68.9C53.9684 67.4333 54.235 66.15 54.7684 65.05C55.335 63.9167 56.2517 63.0333 57.5184 62.4C58.785 61.7667 60.5184 61.45 62.7184 61.45C63.585 61.45 64.485 61.5167 65.4184 61.65C66.3517 61.75 67.285 61.8833 68.2184 62.05V59.1C68.2184 57.7 67.835 56.75 67.0684 56.25C66.3017 55.7167 65.2684 55.45 63.9684 55.45C62.9684 55.45 61.8684 55.5833 60.6684 55.85C59.5017 56.1167 58.235 56.5333 56.8684 57.1L55.2184 52.2C58.585 50.8333 61.635 50.15 64.3684 50.15C66.835 50.15 68.735 50.5667 70.0684 51.4C71.435 52.2333 72.385 53.3333 72.9184 54.7C73.4517 56.0667 73.7184 57.5333 73.7184 59.1V68.85C73.7184 69.35 73.8517 69.8333 74.1184 70.3C74.4184 70.7333 74.985 70.95 75.8184 70.95H76.3684V76.25H75.2184ZM59.5184 68.8C59.5184 69.7 59.7184 70.4167 60.1184 70.95C60.5184 71.45 61.1017 71.7 61.8684 71.7C62.635 71.7 63.5017 71.5 64.4684 71.1C65.435 70.7 66.685 69.7667 68.2184 68.3V66.15C66.485 65.85 64.785 65.7 63.1184 65.7C61.8184 65.7 60.885 65.9667 60.3184 66.5C59.785 67.0333 59.5184 67.8 59.5184 68.8ZM97.3777 78.5C96.2777 81.5667 94.8777 83.7667 93.1777 85.1C91.4777 86.4667 89.1444 87.15 86.1777 87.15V81.4C87.9444 81.3333 89.3277 80.9333 90.3277 80.2C91.3611 79.5 92.1277 78.5167 92.6277 77.25L93.0777 76.1L84.0277 50.65H89.7277L94.0777 63.3L95.7777 68.65L97.4277 63.3L101.578 50.65H107.278L97.3777 78.5ZM138.841 61.8V64.8C138.841 68.3333 137.874 71.1667 135.941 73.3C134.007 75.4333 131.274 76.5 127.741 76.5C124.207 76.5 121.474 75.4333 119.541 73.3C117.607 71.1667 116.641 68.3333 116.641 64.8V61.8C116.641 58.2667 117.591 55.45 119.491 53.35C121.424 51.2167 124.174 50.15 127.741 50.15C131.307 50.15 134.041 51.2167 135.941 53.35C137.874 55.45 138.841 58.2667 138.841 61.8ZM132.941 61.8C132.941 59.7667 132.491 58.1833 131.591 57.05C130.691 55.8833 129.407 55.3 127.741 55.3C126.074 55.3 124.791 55.8833 123.891 57.05C122.991 58.1833 122.541 59.7667 122.541 61.8V64.8C122.541 66.8333 122.991 68.4333 123.891 69.6C124.791 70.7667 126.074 71.35 127.741 71.35C129.407 71.35 130.691 70.7667 131.591 69.6C132.491 68.4333 132.941 66.8333 132.941 64.8V61.8ZM164.188 55.5C163.355 55.5 162.405 55.7 161.338 56.1C160.271 56.5 159.005 57.2833 157.538 58.45V76H151.788V50.65H157.238V54.05C158.805 52.6833 160.288 51.7 161.688 51.1C163.088 50.4667 164.505 50.15 165.938 50.15C168.371 50.15 170.221 50.9333 171.488 52.5C172.755 54.0333 173.388 56.2 173.388 59V76H167.638V59.7C167.638 56.9 166.488 55.5 164.188 55.5ZM199.887 55.5C199.054 55.5 198.104 55.7 197.037 56.1C195.97 56.5 194.704 57.2833 193.237 58.45V76H187.487V50.65H192.937V54.05C194.504 52.6833 195.987 51.7 197.387 51.1C198.787 50.4667 200.204 50.15 201.637 50.15C204.07 50.15 205.92 50.9333 207.187 52.5C208.454 54.0333 209.087 56.2 209.087 59V76H203.337V59.7C203.337 56.9 202.187 55.5 199.887 55.5ZM242.436 74.55C240.703 75.25 239.07 75.75 237.536 76.05C236.003 76.35 234.553 76.5 233.186 76.5C229.42 76.5 226.57 75.4333 224.636 73.3C222.703 71.1667 221.736 68.3333 221.736 64.8V61.8C221.736 59.4333 222.17 57.3833 223.036 55.65C223.903 53.9167 225.136 52.5667 226.736 51.6C228.336 50.6333 230.22 50.15 232.386 50.15C234.153 50.15 235.803 50.5167 237.336 51.25C238.903 51.95 240.17 53.0667 241.136 54.6C242.136 56.1 242.636 58.0333 242.636 60.4C242.636 61.1 242.586 61.85 242.486 62.65C242.386 63.4167 242.22 64.2333 241.986 65.1H227.286C227.353 67.1667 227.87 68.7167 228.836 69.75C229.803 70.7833 231.353 71.3 233.486 71.3C234.62 71.3 235.786 71.1667 236.986 70.9C238.22 70.6333 239.486 70.2333 240.786 69.7L242.436 74.55ZM232.386 55C230.853 55 229.653 55.5 228.786 56.5C227.953 57.4667 227.47 58.8667 227.336 60.7H236.936C236.97 60.5333 236.986 60.3833 236.986 60.25C236.986 60.0833 236.986 59.9333 236.986 59.8C236.986 58.2 236.536 57 235.636 56.2C234.736 55.4 233.653 55 232.386 55Z" fill="white"/>
<path d="M25.7996 63.5V61.5H23.7996V63.5H25.7996ZM25.7996 76V78H27.7996V76H25.7996ZM19.7996 76H17.7996V78H19.7996V76ZM19.7996 42V40H17.7996V42H19.7996ZM39.0496 44.65L37.6618 46.0902L37.6751 46.103L37.6887 46.1156L39.0496 44.65ZM40.5996 58.9L42.3385 59.888V59.888L40.5996 58.9ZM36.9996 62.25L36.1205 60.4536L34.1845 61.401L35.2738 63.2608L36.9996 62.25ZM43.9996 76V78H47.0356L45.8372 75.2105L43.9996 76ZM37.1496 76L35.2927 76.7428L35.7955 78H37.1496V76ZM31.1996 63.5L32.9506 62.5335L32.3801 61.5H31.1996V63.5ZM25.7996 47.5V45.5H23.7996V47.5H25.7996ZM25.7996 58H23.7996V60H25.7996V58ZM34.4996 56.9L35.8821 58.3453L35.8834 58.344L34.4996 56.9ZM34.4996 48.65L33.0854 50.0642L33.1161 50.0949L33.1482 50.1243L34.4996 48.65ZM25.7996 63.5H23.7996V76H25.7996H27.7996V63.5H25.7996ZM25.7996 76V74H19.7996V76V78H25.7996V76ZM19.7996 76H21.7996V42H19.7996H17.7996V76H19.7996ZM19.7996 42V44H31.1496V42V40H19.7996V42ZM31.1496 42V44C34.2499 44 36.3158 44.793 37.6618 46.0902L39.0496 44.65L40.4374 43.2098C38.1168 40.9736 34.916 40 31.1496 40V42ZM39.0496 44.65L37.6887 46.1156C39.0847 47.4119 39.8496 49.1804 39.8496 51.65H41.8496H43.8496C43.8496 48.253 42.7479 45.3548 40.4105 43.1844L39.0496 44.65ZM41.8496 51.65H39.8496V53.8H41.8496H43.8496V51.65H41.8496ZM41.8496 53.8H39.8496C39.8496 55.4382 39.4992 56.7882 38.8607 57.912L40.5996 58.9L42.3385 59.888C43.3667 58.0785 43.8496 56.0284 43.8496 53.8H41.8496ZM40.5996 58.9L38.8607 57.912C38.2332 59.0164 37.3388 59.8574 36.1205 60.4536L36.9996 62.25L37.8787 64.0464C39.7937 63.1093 41.2994 61.7169 42.3385 59.888L40.5996 58.9ZM36.9996 62.25L35.2738 63.2608C37.9696 67.8633 40.2645 72.3729 42.162 76.7895L43.9996 76L45.8372 75.2105C43.868 70.6271 41.4963 65.97 38.7254 61.2392L36.9996 62.25ZM43.9996 76V74H37.1496V76V78H43.9996V76ZM37.1496 76L39.0066 75.2572C37.3074 71.0094 35.2881 66.7681 32.9506 62.5335L31.1996 63.5L29.4487 64.4665C31.7111 68.5652 33.6585 72.6573 35.2927 76.7428L37.1496 76ZM31.1996 63.5V61.5H25.7996V63.5V65.5H31.1996V63.5ZM31.1496 47.5V45.5H25.7996V47.5V49.5H31.1496V47.5ZM25.7996 47.5H23.7996V58H25.7996H27.7996V47.5H25.7996ZM25.7996 58V60H31.1496V58V56H25.7996V58ZM31.1496 58V60C32.9318 60 34.6204 59.5521 35.8821 58.3453L34.4996 56.9L33.1172 55.4547C32.8455 55.7146 32.3007 56 31.1496 56V58ZM34.4996 56.9L35.8834 58.344C37.1454 57.1346 37.6996 55.5427 37.6996 53.8H35.6996H33.6996C33.6996 54.6573 33.4539 55.1321 33.1158 55.456L34.4996 56.9ZM35.6996 53.8H37.6996V51.65H35.6996H33.6996V53.8H35.6996ZM35.6996 51.65H37.6996C37.6996 49.9253 37.1343 48.352 35.8511 47.1757L34.4996 48.65L33.1482 50.1243C33.4649 50.4146 33.6996 50.8413 33.6996 51.65H35.6996ZM34.4996 48.65L35.9138 47.2358C34.6551 45.977 32.9544 45.5 31.1496 45.5V47.5V49.5C32.2781 49.5 32.8108 49.7896 33.0854 50.0642L34.4996 48.65ZM71.1184 75.2L69.9714 76.8385L69.984 76.8472L69.9967 76.8558L71.1184 75.2ZM68.9184 72.6L70.7411 71.7768L69.595 69.239L67.5562 71.1356L68.9184 72.6ZM64.7684 75.55L63.9102 73.7434L64.7684 75.55ZM55.5184 74.35L53.896 75.5196L53.9049 75.5319L53.9139 75.544L55.5184 74.35ZM54.7684 65.05L52.9795 64.1556L52.9741 64.1665L52.9687 64.1775L54.7684 65.05ZM57.5184 62.4L58.4128 64.1889V64.1889L57.5184 62.4ZM65.4184 61.65L65.1355 63.6299L65.1703 63.6349L65.2053 63.6386L65.4184 61.65ZM68.2184 62.05L67.8668 64.0189L70.2184 64.4388V62.05H68.2184ZM67.0684 56.25L65.9262 57.8918L65.9508 57.9089L65.9758 57.9252L67.0684 56.25ZM60.6684 55.85L60.2345 53.8976L60.2227 53.9003L60.6684 55.85ZM56.8684 57.1L54.9729 57.7383L55.6563 59.7677L57.6344 58.9475L56.8684 57.1ZM55.2184 52.2L54.4661 50.3469L52.7224 51.0547L53.3229 52.8383L55.2184 52.2ZM70.0684 51.4L69.0084 53.096L69.0177 53.1018L69.0271 53.1076L70.0684 51.4ZM72.9184 54.7L74.7815 53.9729V53.9729L72.9184 54.7ZM74.1184 70.3L72.3819 71.2923L72.4248 71.3673L72.474 71.4384L74.1184 70.3ZM76.3684 70.95H78.3684V68.95H76.3684V70.95ZM76.3684 76.25V78.25H78.3684V76.25H76.3684ZM60.1184 70.95L58.5184 72.15L58.5371 72.175L58.5566 72.1994L60.1184 70.95ZM68.2184 68.3L69.6008 69.7453L70.2184 69.1546V68.3H68.2184ZM68.2184 66.15H70.2184V64.4664L68.5594 64.1793L68.2184 66.15ZM60.3184 66.5L58.9476 65.0436L58.9256 65.0644L58.9041 65.0858L60.3184 66.5ZM75.2184 76.25V74.25C73.7772 74.25 72.8421 73.952 72.2401 73.5442L71.1184 75.2L69.9967 76.8558C71.4613 77.848 73.2595 78.25 75.2184 78.25V76.25ZM71.1184 75.2L72.2653 73.5615C71.5364 73.0513 71.0485 72.4576 70.7411 71.7768L68.9184 72.6L67.0956 73.4232C67.7215 74.8091 68.7004 75.9487 69.9714 76.8385L71.1184 75.2ZM68.9184 72.6L67.5562 71.1356C66.2267 72.3723 65.0101 73.221 63.9102 73.7434L64.7684 75.55L65.6265 77.3566C67.1933 76.6123 68.7433 75.4944 70.2806 74.0644L68.9184 72.6ZM64.7684 75.55L63.9102 73.7434C62.8555 74.2444 61.7167 74.5 60.4684 74.5V76.5V78.5C62.2867 78.5 64.0145 78.1222 65.6265 77.3566L64.7684 75.55ZM60.4684 76.5V74.5C58.6916 74.5 57.7183 73.9562 57.1228 73.156L55.5184 74.35L53.9139 75.544C55.4517 77.6105 57.7784 78.5 60.4684 78.5V76.5ZM55.5184 74.35L57.1407 73.1804C56.4075 72.1633 55.9684 70.7842 55.9684 68.9H53.9684H51.9684C51.9684 71.4158 52.5626 73.67 53.896 75.5196L55.5184 74.35ZM53.9684 68.9H55.9684C55.9684 67.676 56.1903 66.7016 56.568 65.9225L54.7684 65.05L52.9687 64.1775C52.2798 65.5984 51.9684 67.1907 51.9684 68.9H53.9684ZM54.7684 65.05L56.5572 65.9444C56.9077 65.2434 57.4853 64.6526 58.4128 64.1889L57.5184 62.4L56.6239 60.6111C55.0181 61.4141 53.7623 62.5899 52.9795 64.1556L54.7684 65.05ZM57.5184 62.4L58.4128 64.1889C59.2901 63.7502 60.6737 63.45 62.7184 63.45V61.45V59.45C60.3631 59.45 58.28 59.7831 56.6239 60.6111L57.5184 62.4ZM62.7184 61.45V63.45C63.4826 63.45 64.2878 63.5088 65.1355 63.6299L65.4184 61.65L65.7012 59.6701C64.6823 59.5245 63.6875 59.45 62.7184 59.45V61.45ZM65.4184 61.65L65.2053 63.6386C66.0918 63.7336 66.9789 63.8603 67.8668 64.0189L68.2184 62.05L68.5699 60.0811C67.5911 59.9064 66.6116 59.7664 65.6314 59.6614L65.4184 61.65ZM68.2184 62.05H70.2184V59.1H68.2184H66.2184V62.05H68.2184ZM68.2184 59.1H70.2184C70.2184 57.4015 69.75 55.6112 68.1609 54.5748L67.0684 56.25L65.9758 57.9252C65.976 57.9253 66.0187 57.9434 66.0762 58.0859C66.1437 58.2532 66.2184 58.5685 66.2184 59.1H68.2184ZM67.0684 56.25L68.2105 54.6082C67.0005 53.7665 65.5215 53.45 63.9684 53.45V55.45V57.45C65.0152 57.45 65.6029 57.6669 65.9262 57.8918L67.0684 56.25ZM63.9684 55.45V53.45C62.7937 53.45 61.5459 53.6062 60.2345 53.8976L60.6684 55.85L61.1022 57.8024C62.1909 57.5605 63.143 57.45 63.9684 57.45V55.45ZM60.6684 55.85L60.2227 53.9003C58.9245 54.197 57.5495 54.6525 56.1023 55.2525L56.8684 57.1L57.6344 58.9475C58.9205 58.4142 60.0788 58.0363 61.114 57.7997L60.6684 55.85ZM56.8684 57.1L58.7638 56.4617L57.1138 51.5617L55.2184 52.2L53.3229 52.8383L54.9729 57.7383L56.8684 57.1ZM55.2184 52.2L55.9706 54.0531C59.1727 52.7533 61.9626 52.15 64.3684 52.15V50.15V48.15C61.3075 48.15 57.9973 48.9134 54.4661 50.3469L55.2184 52.2ZM64.3684 50.15V52.15C66.6554 52.15 68.1255 52.5442 69.0084 53.096L70.0684 51.4L71.1284 49.704C69.3446 48.5891 67.0146 48.15 64.3684 48.15V50.15ZM70.0684 51.4L69.0271 53.1076C70.056 53.7349 70.6958 54.5062 71.0552 55.4271L72.9184 54.7L74.7815 53.9729C74.0742 52.1605 72.8141 50.7317 71.1096 49.6924L70.0684 51.4ZM72.9184 54.7L71.0552 55.4271C71.4921 56.5466 71.7184 57.765 71.7184 59.1H73.7184H75.7184C75.7184 57.3016 75.4113 55.5867 74.7815 53.9729L72.9184 54.7ZM73.7184 59.1H71.7184V68.85H73.7184H75.7184V59.1H73.7184ZM73.7184 68.85H71.7184C71.7184 69.724 71.9559 70.5468 72.3819 71.2923L74.1184 70.3L75.8548 69.3077C75.7475 69.1199 75.7184 68.976 75.7184 68.85H73.7184ZM74.1184 70.3L72.474 71.4384C73.3258 72.6688 74.721 72.95 75.8184 72.95V70.95V68.95C75.6951 68.95 75.6072 68.9419 75.5492 68.9329C75.4912 68.9239 75.4726 68.9156 75.4826 68.9194C75.494 68.9238 75.5364 68.9417 75.5934 68.9844C75.6522 69.0285 75.712 69.0883 75.7627 69.1616L74.1184 70.3ZM75.8184 70.95V72.95H76.3684V70.95V68.95H75.8184V70.95ZM76.3684 70.95H74.3684V76.25H76.3684H78.3684V70.95H76.3684ZM76.3684 76.25V74.25H75.2184V76.25V78.25H76.3684V76.25ZM59.5184 68.8H57.5184C57.5184 69.983 57.7813 71.1673 58.5184 72.15L60.1184 70.95L61.7184 69.75C61.6554 69.6661 61.5184 69.417 61.5184 68.8H59.5184ZM60.1184 70.95L58.5566 72.1994C59.4123 73.269 60.6274 73.7 61.8684 73.7V71.7V69.7C61.7849 69.7 61.7276 69.6932 61.6919 69.6866C61.6742 69.6833 61.662 69.6801 61.6544 69.6778C61.6506 69.6767 61.6479 69.6758 61.6462 69.6752C61.6453 69.6749 61.6447 69.6746 61.6443 69.6745C61.6439 69.6743 61.6437 69.6742 61.6437 69.6742C61.6437 69.6742 61.6439 69.6743 61.6442 69.6744C61.6446 69.6746 61.6451 69.6749 61.6457 69.6752C61.647 69.6758 61.6488 69.6768 61.6509 69.678C61.6554 69.6806 61.6605 69.6839 61.6656 69.6879C61.677 69.6966 61.6818 69.7027 61.6801 69.7006L60.1184 70.95ZM61.8684 71.7V73.7C62.9743 73.7 64.1068 73.4141 65.2331 72.948L64.4684 71.1L63.7037 69.252C62.8966 69.5859 62.2958 69.7 61.8684 69.7V71.7ZM64.4684 71.1L65.2331 72.948C66.5611 72.3985 68.0341 71.2439 69.6008 69.7453L68.2184 68.3L66.8359 66.8547C65.336 68.2894 64.3089 69.0015 63.7037 69.252L64.4684 71.1ZM68.2184 68.3H70.2184V66.15H68.2184H66.2184V68.3H68.2184ZM68.2184 66.15L68.5594 64.1793C66.7197 63.8609 64.9055 63.7 63.1184 63.7V65.7V67.7C64.6646 67.7 66.2504 67.8391 67.8773 68.1207L68.2184 66.15ZM63.1184 65.7V63.7C61.6287 63.7 60.0664 63.9907 58.9476 65.0436L60.3184 66.5L61.6891 67.9564C61.7037 67.9427 62.008 67.7 63.1184 67.7V65.7ZM60.3184 66.5L58.9041 65.0858C57.8858 66.1041 57.5184 67.4485 57.5184 68.8H59.5184H61.5184C61.5184 68.1515 61.6843 67.9625 61.7326 67.9142L60.3184 66.5ZM97.3777 78.5L99.2603 79.1753L99.2622 79.1699L97.3777 78.5ZM93.1777 85.1L91.9435 83.5263L91.934 83.5337L91.9246 83.5412L93.1777 85.1ZM86.1777 87.15H84.1777V89.15H86.1777V87.15ZM86.1777 81.4L86.1023 79.4014L84.1777 79.474V81.4H86.1777ZM90.3277 80.2L89.206 78.5442L89.1751 78.5651L89.145 78.5872L90.3277 80.2ZM92.6277 77.25L94.4881 77.9843L94.4902 77.9788L92.6277 77.25ZM93.0777 76.1L94.9402 76.8288L95.2123 76.1334L94.9621 75.4299L93.0777 76.1ZM84.0277 50.65V48.65H81.1938L82.1433 51.3201L84.0277 50.65ZM89.7277 50.65L91.619 49.9996L91.1549 48.65H89.7277V50.65ZM94.0777 63.3L95.9838 62.6943L95.9767 62.6719L95.969 62.6496L94.0777 63.3ZM95.7777 68.65L93.8717 69.2557L95.8062 75.3439L97.6889 69.2394L95.7777 68.65ZM97.4277 63.3L95.5274 62.6766L95.5218 62.6935L95.5166 62.7106L97.4277 63.3ZM101.578 50.65V48.65H100.129L99.6774 50.0266L101.578 50.65ZM107.278 50.65L109.162 51.3199L110.111 48.65H107.278V50.65ZM97.3777 78.5L95.4952 77.8247C94.4622 80.7045 93.2327 82.5151 91.9435 83.5263L93.1777 85.1L94.412 86.6737C96.5228 85.0182 98.0933 82.4288 99.2603 79.1753L97.3777 78.5ZM93.1777 85.1L91.9246 83.5412C90.689 84.5346 88.8519 85.15 86.1777 85.15V87.15V89.15C89.437 89.15 92.2664 88.3988 94.4308 86.6588L93.1777 85.1ZM86.1777 87.15H88.1777V81.4H86.1777H84.1777V87.15H86.1777ZM86.1777 81.4L86.2532 83.3986C88.2563 83.323 90.0779 82.8633 91.5105 81.8128L90.3277 80.2L89.145 78.5872C88.5775 79.0033 87.6325 79.3437 86.1023 79.4014L86.1777 81.4ZM90.3277 80.2L91.4494 81.8558C92.8465 80.9094 93.8543 79.5898 94.488 77.9843L92.6277 77.25L90.7674 76.5157C90.4012 77.4435 89.8756 78.0906 89.206 78.5442L90.3277 80.2ZM92.6277 77.25L94.4902 77.9788L94.9402 76.8288L93.0777 76.1L91.2152 75.3712L90.7653 76.5212L92.6277 77.25ZM93.0777 76.1L94.9621 75.4299L85.9121 49.9799L84.0277 50.65L82.1433 51.3201L91.1933 76.7701L93.0777 76.1ZM84.0277 50.65V52.65H89.7277V50.65V48.65H84.0277V50.65ZM89.7277 50.65L87.8364 51.3004L92.1864 63.9504L94.0777 63.3L95.969 62.6496L91.619 49.9996L89.7277 50.65ZM94.0777 63.3L92.1716 63.9057L93.8717 69.2557L95.7777 68.65L97.6838 68.0443L95.9838 62.6943L94.0777 63.3ZM95.7777 68.65L97.6889 69.2394L99.3389 63.8894L97.4277 63.3L95.5166 62.7106L93.8666 68.0606L95.7777 68.65ZM97.4277 63.3L99.3281 63.9234L103.478 51.2734L101.578 50.65L99.6774 50.0266L95.5274 62.6766L97.4277 63.3ZM101.578 50.65V52.65H107.278V50.65V48.65H101.578V50.65ZM107.278 50.65L105.393 49.9801L95.4933 77.8301L97.3777 78.5L99.2622 79.1699L109.162 51.3199L107.278 50.65ZM135.941 73.3L137.423 74.643V74.643L135.941 73.3ZM119.541 73.3L118.059 74.643V74.643L119.541 73.3ZM119.491 53.35L118.009 52.007L118.008 52.0082L119.491 53.35ZM135.941 53.35L134.447 54.6802L134.458 54.6925L134.469 54.7046L135.941 53.35ZM131.591 57.05L130.007 58.2716L130.016 58.2827L130.024 58.2938L131.591 57.05ZM123.891 57.05L125.457 58.2938L125.466 58.2827L125.474 58.2716L123.891 57.05ZM123.891 69.6L122.307 70.8216V70.8216L123.891 69.6ZM131.591 69.6L130.007 68.3784V68.3784L131.591 69.6ZM138.841 61.8H136.841V64.8H138.841H140.841V61.8H138.841ZM138.841 64.8H136.841C136.841 67.955 135.987 70.2705 134.459 71.957L135.941 73.3L137.423 74.643C139.761 72.0628 140.841 68.7117 140.841 64.8H138.841ZM135.941 73.3L134.459 71.957C132.988 73.5793 130.848 74.5 127.741 74.5V76.5V78.5C131.7 78.5 135.026 77.2874 137.423 74.643L135.941 73.3ZM127.741 76.5V74.5C124.633 74.5 122.493 73.5793 121.023 71.957L119.541 73.3L118.059 74.643C120.455 77.2874 123.781 78.5 127.741 78.5V76.5ZM119.541 73.3L121.023 71.957C119.494 70.2705 118.641 67.955 118.641 64.8H116.641H114.641C114.641 68.7117 115.72 72.0628 118.059 74.643L119.541 73.3ZM116.641 64.8H118.641V61.8H116.641H114.641V64.8H116.641ZM116.641 61.8H118.641C118.641 58.6347 119.483 56.3392 120.974 54.6918L119.491 53.35L118.008 52.0082C115.698 54.5608 114.641 57.8986 114.641 61.8H116.641ZM119.491 53.35L120.973 54.693C122.439 53.0747 124.593 52.15 127.741 52.15V50.15V48.15C123.755 48.15 120.409 49.3586 118.009 52.007L119.491 53.35ZM127.741 50.15V52.15C130.889 52.15 133.018 53.075 134.447 54.6802L135.941 53.35L137.434 52.0198C135.064 49.3583 131.725 48.15 127.741 48.15V50.15ZM135.941 53.35L134.469 54.7046C135.987 56.3528 136.841 58.6436 136.841 61.8H138.841H140.841C140.841 57.8897 139.761 54.5472 137.412 51.9954L135.941 53.35ZM132.941 61.8H134.941C134.941 59.4945 134.432 57.412 133.157 55.8062L131.591 57.05L130.024 58.2938C130.549 58.9546 130.941 60.0388 130.941 61.8H132.941ZM131.591 57.05L133.174 55.8284C131.842 54.1019 129.935 53.3 127.741 53.3V55.3V57.3C128.88 57.3 129.539 57.6648 130.007 58.2716L131.591 57.05ZM127.741 55.3V53.3C125.547 53.3 123.639 54.1019 122.307 55.8284L123.891 57.05L125.474 58.2716C125.942 57.6648 126.601 57.3 127.741 57.3V55.3ZM123.891 57.05L122.324 55.8062C121.049 57.412 120.541 59.4945 120.541 61.8H122.541H124.541C124.541 60.0388 124.932 58.9546 125.457 58.2938L123.891 57.05ZM122.541 61.8H120.541V64.8H122.541H124.541V61.8H122.541ZM122.541 64.8H120.541C120.541 67.1101 121.051 69.1934 122.307 70.8216L123.891 69.6L125.474 68.3784C124.93 67.6733 124.541 66.5566 124.541 64.8H122.541ZM123.891 69.6L122.307 70.8216C123.639 72.5481 125.547 73.35 127.741 73.35V71.35V69.35C126.601 69.35 125.942 68.9852 125.474 68.3784L123.891 69.6ZM127.741 71.35V73.35C129.935 73.35 131.842 72.5481 133.174 70.8216L131.591 69.6L130.007 68.3784C129.539 68.9852 128.88 69.35 127.741 69.35V71.35ZM131.591 69.6L133.174 70.8216C134.43 69.1934 134.941 67.1101 134.941 64.8H132.941H130.941C130.941 66.5566 130.551 67.6733 130.007 68.3784L131.591 69.6ZM132.941 64.8H134.941V61.8H132.941H130.941V64.8H132.941ZM161.338 56.1L160.636 54.2273V54.2273L161.338 56.1ZM157.538 58.45L156.293 56.8848L155.538 57.4853V58.45H157.538ZM157.538 76V78H159.538V76H157.538ZM151.788 76H149.788V78H151.788V76ZM151.788 50.65V48.65H149.788V50.65H151.788ZM157.238 50.65H159.238V48.65H157.238V50.65ZM157.238 54.05H155.238V58.4487L158.553 55.5571L157.238 54.05ZM161.688 51.1L162.476 52.9383L162.494 52.9304L162.512 52.9222L161.688 51.1ZM171.488 52.5L169.933 53.7574L169.939 53.7656L169.946 53.7738L171.488 52.5ZM173.388 76V78H175.388V76H173.388ZM167.638 76H165.638V78H167.638V76ZM164.188 55.5V53.5C163.044 53.5 161.85 53.772 160.636 54.2273L161.338 56.1L162.04 57.9727C162.959 57.628 163.665 57.5 164.188 57.5V55.5ZM161.338 56.1L160.636 54.2273C159.288 54.7328 157.832 55.6604 156.293 56.8848L157.538 58.45L158.783 60.0152C160.177 58.9062 161.255 58.2672 162.04 57.9727L161.338 56.1ZM157.538 58.45H155.538V76H157.538H159.538V58.45H157.538ZM157.538 76V74H151.788V76V78H157.538V76ZM151.788 76H153.788V50.65H151.788H149.788V76H151.788ZM151.788 50.65V52.65H157.238V50.65V48.65H151.788V50.65ZM157.238 50.65H155.238V54.05H157.238H159.238V50.65H157.238ZM157.238 54.05L158.553 55.5571C160.015 54.2812 161.323 53.4322 162.476 52.9383L161.688 51.1L160.9 49.2617C159.253 49.9678 157.594 51.0854 155.923 52.5429L157.238 54.05ZM161.688 51.1L162.512 52.9222C163.672 52.3975 164.809 52.15 165.938 52.15V50.15V48.15C164.2 48.15 162.504 48.5359 160.864 49.2778L161.688 51.1ZM165.938 50.15V52.15C167.906 52.15 169.125 52.7587 169.933 53.7574L171.488 52.5L173.043 51.2426C171.317 49.1079 168.836 48.15 165.938 48.15V50.15ZM171.488 52.5L169.946 53.7738C170.816 54.8271 171.388 56.478 171.388 59H173.388H175.388C175.388 55.922 174.693 53.2396 173.03 51.2262L171.488 52.5ZM173.388 59H171.388V76H173.388H175.388V59H173.388ZM173.388 76V74H167.638V76V78H173.388V76ZM167.638 76H169.638V59.7H167.638H165.638V76H167.638ZM167.638 59.7H169.638C169.638 58.0769 169.313 56.4878 168.321 55.2805C167.267 53.9979 165.761 53.5 164.188 53.5V55.5V57.5C164.914 57.5 165.134 57.7021 165.23 57.8195C165.388 58.0122 165.638 58.5231 165.638 59.7H167.638ZM197.037 56.1L196.335 54.2273V54.2273L197.037 56.1ZM193.237 58.45L191.992 56.8848L191.237 57.4853V58.45H193.237ZM193.237 76V78H195.237V76H193.237ZM187.487 76H185.487V78H187.487V76ZM187.487 50.65V48.65H185.487V50.65H187.487ZM192.937 50.65H194.937V48.65H192.937V50.65ZM192.937 54.05H190.937V58.4487L194.252 55.5571L192.937 54.05ZM197.387 51.1L198.175 52.9383L198.193 52.9304L198.211 52.9222L197.387 51.1ZM207.187 52.5L205.632 53.7574L205.638 53.7656L205.645 53.7738L207.187 52.5ZM209.087 76V78H211.087V76H209.087ZM203.337 76H201.337V78H203.337V76ZM199.887 55.5V53.5C198.744 53.5 197.549 53.772 196.335 54.2273L197.037 56.1L197.739 57.9727C198.658 57.628 199.364 57.5 199.887 57.5V55.5ZM197.037 56.1L196.335 54.2273C194.987 54.7328 193.531 55.6604 191.992 56.8848L193.237 58.45L194.482 60.0152C195.876 58.9062 196.954 58.2672 197.739 57.9727L197.037 56.1ZM193.237 58.45H191.237V76H193.237H195.237V58.45H193.237ZM193.237 76V74H187.487V76V78H193.237V76ZM187.487 76H189.487V50.65H187.487H185.487V76H187.487ZM187.487 50.65V52.65H192.937V50.65V48.65H187.487V50.65ZM192.937 50.65H190.937V54.05H192.937H194.937V50.65H192.937ZM192.937 54.05L194.252 55.5571C195.714 54.2812 197.022 53.4322 198.175 52.9383L197.387 51.1L196.599 49.2617C194.952 49.9678 193.293 51.0854 191.622 52.5429L192.937 54.05ZM197.387 51.1L198.211 52.9222C199.371 52.3975 200.508 52.15 201.637 52.15V50.15V48.15C199.899 48.15 198.203 48.5359 196.563 49.2778L197.387 51.1ZM201.637 50.15V52.15C203.605 52.15 204.824 52.7587 205.632 53.7574L207.187 52.5L208.742 51.2426C207.017 49.1079 204.535 48.15 201.637 48.15V50.15ZM207.187 52.5L205.645 53.7738C206.515 54.8271 207.087 56.478 207.087 59H209.087H211.087C211.087 55.922 210.392 53.2396 208.729 51.2262L207.187 52.5ZM209.087 59H207.087V76H209.087H211.087V59H209.087ZM209.087 76V74H203.337V76V78H209.087V76ZM203.337 76H205.337V59.7H203.337H201.337V76H203.337ZM203.337 59.7H205.337C205.337 58.0769 205.012 56.4878 204.02 55.2805C202.966 53.9979 201.461 53.5 199.887 53.5V55.5V57.5C200.614 57.5 200.833 57.7021 200.929 57.8195C201.087 58.0122 201.337 58.5231 201.337 59.7H203.337ZM242.436 74.55L243.185 76.4045L244.939 75.6963L244.33 73.9058L242.436 74.55ZM237.536 76.05L237.152 74.0872L237.536 76.05ZM224.636 73.3L223.154 74.643V74.643L224.636 73.3ZM223.036 55.65L224.825 56.5444V56.5444L223.036 55.65ZM226.736 51.6L225.702 49.8882V49.8882L226.736 51.6ZM237.336 51.25L236.473 53.0543L236.497 53.0654L236.52 53.076L237.336 51.25ZM241.136 54.6L239.444 55.6666L239.458 55.6882L239.472 55.7094L241.136 54.6ZM242.486 62.65L244.47 62.9087L244.471 62.8981L242.486 62.65ZM241.986 65.1V67.1H243.519L243.918 65.6199L241.986 65.1ZM227.286 65.1V63.1H225.221L225.287 65.1645L227.286 65.1ZM228.836 69.75L227.376 71.1163H227.376L228.836 69.75ZM236.986 70.9L236.564 68.9451L236.552 68.9476L236.986 70.9ZM240.786 69.7L242.68 69.0558L241.995 67.0425L240.027 67.8497L240.786 69.7ZM228.786 56.5L227.275 55.1901L227.272 55.1941L228.786 56.5ZM227.336 60.7L225.342 60.5549L225.186 62.7H227.336V60.7ZM236.936 60.7V62.7H238.576L238.897 61.0922L236.936 60.7ZM235.636 56.2L236.965 54.7052V54.7052L235.636 56.2ZM242.436 74.55L241.687 72.6955C240.05 73.3569 238.539 73.8158 237.152 74.0872L237.536 76.05L237.92 78.0128C239.6 77.6842 241.356 77.1431 243.185 76.4045L242.436 74.55ZM237.536 76.05L237.152 74.0872C235.728 74.3659 234.407 74.5 233.186 74.5V76.5V78.5C234.699 78.5 236.278 78.3341 237.92 78.0128L237.536 76.05ZM233.186 76.5V74.5C229.8 74.5 227.564 73.5527 226.118 71.957L224.636 73.3L223.154 74.643C225.575 77.3139 229.039 78.5 233.186 78.5V76.5ZM224.636 73.3L226.118 71.957C224.59 70.2705 223.736 67.955 223.736 64.8H221.736H219.736C219.736 68.7117 220.816 72.0628 223.154 74.643L224.636 73.3ZM221.736 64.8H223.736V61.8H221.736H219.736V64.8H221.736ZM221.736 61.8H223.736C223.736 59.6762 224.125 57.9453 224.825 56.5444L223.036 55.65L221.247 54.7556C220.215 56.8214 219.736 59.1905 219.736 61.8H221.736ZM223.036 55.65L224.825 56.5444C225.529 55.1364 226.507 54.0755 227.771 53.3118L226.736 51.6L225.702 49.8882C223.766 51.0579 222.277 52.697 221.247 54.7556L223.036 55.65ZM226.736 51.6L227.771 53.3118C229.012 52.562 230.525 52.15 232.386 52.15V50.15V48.15C229.914 48.15 227.661 48.7047 225.702 49.8882L226.736 51.6ZM232.386 50.15V52.15C233.866 52.15 235.22 52.4549 236.473 53.0543L237.336 51.25L238.199 49.4457C236.386 48.5784 234.44 48.15 232.386 48.15V50.15ZM237.336 51.25L236.52 53.076C237.706 53.6056 238.676 54.4475 239.444 55.6666L241.136 54.6L242.828 53.5334C241.663 51.6858 240.1 50.2944 238.152 49.424L237.336 51.25ZM241.136 54.6L239.472 55.7094C240.194 56.7924 240.636 58.3065 240.636 60.4H242.636H244.636C244.636 57.7602 244.078 55.4076 242.8 53.4906L241.136 54.6ZM242.636 60.4H240.636C240.636 61.0058 240.593 61.6722 240.502 62.4019L242.486 62.65L244.471 62.8981C244.58 62.0278 244.636 61.1942 244.636 60.4H242.636ZM242.486 62.65L240.503 62.3913C240.416 63.0572 240.269 63.7859 240.055 64.5801L241.986 65.1L243.918 65.6199C244.17 64.6807 244.356 63.7762 244.47 62.9087L242.486 62.65ZM241.986 65.1V63.1H227.286V65.1V67.1H241.986V65.1ZM227.286 65.1L225.287 65.1645C225.363 67.4969 225.954 69.596 227.376 71.1163L228.836 69.75L230.297 68.3837C229.786 67.8373 229.343 66.8364 229.285 65.0355L227.286 65.1ZM228.836 69.75L227.376 71.1163C228.877 72.7209 231.079 73.3 233.486 73.3V71.3V69.3C231.627 69.3 230.729 68.8458 230.297 68.3837L228.836 69.75ZM233.486 71.3V73.3C234.777 73.3 236.09 73.148 237.42 72.8524L236.986 70.9L236.552 68.9476C235.483 69.1853 234.462 69.3 233.486 69.3V71.3ZM236.986 70.9L237.409 72.8548C238.769 72.5607 240.149 72.1234 241.545 71.5503L240.786 69.7L240.027 67.8497C238.824 68.3433 237.67 68.706 236.564 68.9452L236.986 70.9ZM240.786 69.7L238.893 70.3442L240.543 75.1942L242.436 74.55L244.33 73.9058L242.68 69.0558L240.786 69.7ZM232.386 55V53C230.375 53 228.584 53.6802 227.275 55.1901L228.786 56.5L230.298 57.8099C230.722 57.3198 231.331 57 232.386 57V55ZM228.786 56.5L227.272 55.1941C226.058 56.6014 225.493 58.4751 225.342 60.5549L227.336 60.7L229.331 60.8451C229.446 59.2583 229.848 58.3319 230.301 57.8059L228.786 56.5ZM227.336 60.7V62.7H236.936V60.7V58.7H227.336V60.7ZM236.936 60.7L238.897 61.0922C238.95 60.8297 238.986 60.5452 238.986 60.25H236.986H234.986C234.986 60.234 234.987 60.2306 234.986 60.2416C234.985 60.2525 234.982 60.2742 234.975 60.3078L236.936 60.7ZM236.986 60.25H238.986C238.986 60.2497 238.986 60.2493 238.986 60.249C238.986 60.2487 238.986 60.2484 238.986 60.248C238.986 60.2477 238.986 60.2474 238.986 60.2471C238.986 60.2467 238.986 60.2464 238.986 60.2461C238.986 60.2458 238.986 60.2454 238.986 60.2451C238.986 60.2448 238.986 60.2445 238.986 60.2441C238.986 60.2438 238.986 60.2435 238.986 60.2432C238.986 60.2428 238.986 60.2425 238.986 60.2422C238.986 60.2419 238.986 60.2416 238.986 60.2412C238.986 60.2409 238.986 60.2406 238.986 60.2403C238.986 60.2399 238.986 60.2396 238.986 60.2393C238.986 60.239 238.986 60.2386 238.986 60.2383C238.986 60.238 238.986 60.2377 238.986 60.2373C238.986 60.237 238.986 60.2367 238.986 60.2364C238.986 60.236 238.986 60.2357 238.986 60.2354C238.986 60.2351 238.986 60.2347 238.986 60.2344C238.986 60.2341 238.986 60.2338 238.986 60.2335C238.986 60.2331 238.986 60.2328 238.986 60.2325C238.986 60.2322 238.986 60.2318 238.986 60.2315C238.986 60.2312 238.986 60.2309 238.986 60.2305C238.986 60.2302 238.986 60.2299 238.986 60.2296C238.986 60.2293 238.986 60.2289 238.986 60.2286C238.986 60.2283 238.986 60.228 238.986 60.2276C238.986 60.2273 238.986 60.227 238.986 60.2267C238.986 60.2263 238.986 60.226 238.986 60.2257C238.986 60.2254 238.986 60.2251 238.986 60.2247C238.986 60.2244 238.986 60.2241 238.986 60.2238C238.986 60.2234 238.986 60.2231 238.986 60.2228C238.986 60.2225 238.986 60.2222 238.986 60.2218C238.986 60.2215 238.986 60.2212 238.986 60.2209C238.986 60.2206 238.986 60.2202 238.986 60.2199C238.986 60.2196 238.986 60.2193 238.986 60.2189C238.986 60.2186 238.986 60.2183 238.986 60.218C238.986 60.2177 238.986 60.2173 238.986 60.217C238.986 60.2167 238.986 60.2164 238.986 60.2161C238.986 60.2157 238.986 60.2154 238.986 60.2151C238.986 60.2148 238.986 60.2144 238.986 60.2141C238.986 60.2138 238.986 60.2135 238.986 60.2132C238.986 60.2128 238.986 60.2125 238.986 60.2122C238.986 60.2119 238.986 60.2116 238.986 60.2112C238.986 60.2109 238.986 60.2106 238.986 60.2103C238.986 60.21 238.986 60.2096 238.986 60.2093C238.986 60.209 238.986 60.2087 238.986 60.2084C238.986 60.208 238.986 60.2077 238.986 60.2074C238.986 60.2071 238.986 60.2068 238.986 60.2064C238.986 60.2061 238.986 60.2058 238.986 60.2055C238.986 60.2052 238.986 60.2048 238.986 60.2045C238.986 60.2042 238.986 60.2039 238.986 60.2036C238.986 60.2032 238.986 60.2029 238.986 60.2026C238.986 60.2023 238.986 60.202 238.986 60.2016C238.986 60.2013 238.986 60.201 238.986 60.2007C238.986 60.2004 238.986 60.2001 238.986 60.1997C238.986 60.1994 238.986 60.1991 238.986 60.1988C238.986 60.1985 238.986 60.1981 238.986 60.1978C238.986 60.1975 238.986 60.1972 238.986 60.1969C238.986 60.1965 238.986 60.1962 238.986 60.1959C238.986 60.1956 238.986 60.1953 238.986 60.195C238.986 60.1946 238.986 60.1943 238.986 60.194C238.986 60.1937 238.986 60.1934 238.986 60.193C238.986 60.1927 238.986 60.1924 238.986 60.1921C238.986 60.1918 238.986 60.1915 238.986 60.1911C238.986 60.1908 238.986 60.1905 238.986 60.1902C238.986 60.1899 238.986 60.1895 238.986 60.1892C238.986 60.1889 238.986 60.1886 238.986 60.1883C238.986 60.188 238.986 60.1876 238.986 60.1873C238.986 60.187 238.986 60.1867 238.986 60.1864C238.986 60.1861 238.986 60.1857 238.986 60.1854C238.986 60.1851 238.986 60.1848 238.986 60.1845C238.986 60.1842 238.986 60.1838 238.986 60.1835C238.986 60.1832 238.986 60.1829 238.986 60.1826C238.986 60.1823 238.986 60.1819 238.986 60.1816C238.986 60.1813 238.986 60.181 238.986 60.1807C238.986 60.1804 238.986 60.18 238.986 60.1797C238.986 60.1794 238.986 60.1791 238.986 60.1788C238.986 60.1785 238.986 60.1781 238.986 60.1778C238.986 60.1775 238.986 60.1772 238.986 60.1769C238.986 60.1766 238.986 60.1763 238.986 60.1759C238.986 60.1756 238.986 60.1753 238.986 60.175C238.986 60.1747 238.986 60.1744 238.986 60.174C238.986 60.1737 238.986 60.1734 238.986 60.1731C238.986 60.1728 238.986 60.1725 238.986 60.1721C238.986 60.1718 238.986 60.1715 238.986 60.1712C238.986 60.1709 238.986 60.1706 238.986 60.1703C238.986 60.1699 238.986 60.1696 238.986 60.1693C238.986 60.169 238.986 60.1687 238.986 60.1684C238.986 60.1681 238.986 60.1677 238.986 60.1674C238.986 60.1671 238.986 60.1668 238.986 60.1665C238.986 60.1662 238.986 60.1659 238.986 60.1655C238.986 60.1652 238.986 60.1649 238.986 60.1646C238.986 60.1643 238.986 60.164 238.986 60.1637C238.986 60.1633 238.986 60.163 238.986 60.1627C238.986 60.1624 238.986 60.1621 238.986 60.1618C238.986 60.1615 238.986 60.1611 238.986 60.1608C238.986 60.1605 238.986 60.1602 238.986 60.1599C238.986 60.1596 238.986 60.1593 238.986 60.1589C238.986 60.1586 238.986 60.1583 238.986 60.158C238.986 60.1577 238.986 60.1574 238.986 60.1571C238.986 60.1568 238.986 60.1564 238.986 60.1561C238.986 60.1558 238.986 60.1555 238.986 60.1552C238.986 60.1549 238.986 60.1546 238.986 60.1543C238.986 60.1539 238.986 60.1536 238.986 60.1533C238.986 60.153 238.986 60.1527 238.986 60.1524C238.986 60.1521 238.986 60.1517 238.986 60.1514C238.986 60.1511 238.986 60.1508 238.986 60.1505C238.986 60.1502 238.986 60.1499 238.986 60.1496C238.986 60.1493 238.986 60.1489 238.986 60.1486C238.986 60.1483 238.986 60.148 238.986 60.1477C238.986 60.1474 238.986 60.1471 238.986 60.1468C238.986 60.1464 238.986 60.1461 238.986 60.1458C238.986 60.1455 238.986 60.1452 238.986 60.1449C238.986 60.1446 238.986 60.1443 238.986 60.144C238.986 60.1436 238.986 60.1433 238.986 60.143C238.986 60.1427 238.986 60.1424 238.986 60.1421C238.986 60.1418 238.986 60.1415 238.986 60.1412C238.986 60.1408 238.986 60.1405 238.986 60.1402C238.986 60.1399 238.986 60.1396 238.986 60.1393C238.986 60.139 238.986 60.1387 238.986 60.1384C238.986 60.138 238.986 60.1377 238.986 60.1374C238.986 60.1371 238.986 60.1368 238.986 60.1365C238.986 60.1362 238.986 60.1359 238.986 60.1356C238.986 60.1352 238.986 60.1349 238.986 60.1346C238.986 60.1343 238.986 60.134 238.986 60.1337C238.986 60.1334 238.986 60.1331 238.986 60.1328C238.986 60.1325 238.986 60.1321 238.986 60.1318C238.986 60.1315 238.986 60.1312 238.986 60.1309C238.986 60.1306 238.986 60.1303 238.986 60.13C238.986 60.1297 238.986 60.1294 238.986 60.1291C238.986 60.1287 238.986 60.1284 238.986 60.1281C238.986 60.1278 238.986 60.1275 238.986 60.1272C238.986 60.1269 238.986 60.1266 238.986 60.1263C238.986 60.126 238.986 60.1257 238.986 60.1253C238.986 60.125 238.986 60.1247 238.986 60.1244C238.986 60.1241 238.986 60.1238 238.986 60.1235C238.986 60.1232 238.986 60.1229 238.986 60.1226C238.986 60.1223 238.986 60.1219 238.986 60.1216C238.986 60.1213 238.986 60.121 238.986 60.1207C238.986 60.1204 238.986 60.1201 238.986 60.1198C238.986 60.1195 238.986 60.1192 238.986 60.1189C238.986 60.1186 238.986 60.1182 238.986 60.1179C238.986 60.1176 238.986 60.1173 238.986 60.117C238.986 60.1167 238.986 60.1164 238.986 60.1161C238.986 60.1158 238.986 60.1155 238.986 60.1152C238.986 60.1149 238.986 60.1146 238.986 60.1143C238.986 60.1139 238.986 60.1136 238.986 60.1133C238.986 60.113 238.986 60.1127 238.986 60.1124C238.986 60.1121 238.986 60.1118 238.986 60.1115C238.986 60.1112 238.986 60.1109 238.986 60.1106C238.986 60.1103 238.986 60.11 238.986 60.1096C238.986 60.1093 238.986 60.109 238.986 60.1087C238.986 60.1084 238.986 60.1081 238.986 60.1078C238.986 60.1075 238.986 60.1072 238.986 60.1069C238.986 60.1066 238.986 60.1063 238.986 60.106C238.986 60.1057 238.986 60.1054 238.986 60.105C238.986 60.1047 238.986 60.1044 238.986 60.1041C238.986 60.1038 238.986 60.1035 238.986 60.1032C238.986 60.1029 238.986 60.1026 238.986 60.1023C238.986 60.102 238.986 60.1017 238.986 60.1014C238.986 60.1011 238.986 60.1008 238.986 60.1005C238.986 60.1002 238.986 60.0999 238.986 60.0995C238.986 60.0992 238.986 60.0989 238.986 60.0986C238.986 60.0983 238.986 60.098 238.986 60.0977C238.986 60.0974 238.986 60.0971 238.986 60.0968C238.986 60.0965 238.986 60.0962 238.986 60.0959C238.986 60.0956 238.986 60.0953 238.986 60.095C238.986 60.0947 238.986 60.0944 238.986 60.0941C238.986 60.0938 238.986 60.0934 238.986 60.0931C238.986 60.0928 238.986 60.0925 238.986 60.0922C238.986 60.0919 238.986 60.0916 238.986 60.0913C238.986 60.091 238.986 60.0907 238.986 60.0904C238.986 60.0901 238.986 60.0898 238.986 60.0895C238.986 60.0892 238.986 60.0889 238.986 60.0886C238.986 60.0883 238.986 60.088 238.986 60.0877C238.986 60.0874 238.986 60.0871 238.986 60.0868C238.986 60.0865 238.986 60.0862 238.986 60.0859C238.986 60.0855 238.986 60.0852 238.986 60.0849C238.986 60.0846 238.986 60.0843 238.986 60.084C238.986 60.0837 238.986 60.0834 238.986 60.0831C238.986 60.0828 238.986 60.0825 238.986 60.0822C238.986 60.0819 238.986 60.0816 238.986 60.0813C238.986 60.081 238.986 60.0807 238.986 60.0804C238.986 60.0801 238.986 60.0798 238.986 60.0795C238.986 60.0792 238.986 60.0789 238.986 60.0786C238.986 60.0783 238.986 60.078 238.986 60.0777C238.986 60.0774 238.986 60.0771 238.986 60.0768C238.986 60.0765 238.986 60.0762 238.986 60.0759C238.986 60.0756 238.986 60.0753 238.986 60.075C238.986 60.0747 238.986 60.0744 238.986 60.0741C238.986 60.0737 238.986 60.0734 238.986 60.0731C238.986 60.0728 238.986 60.0725 238.986 60.0722C238.986 60.0719 238.986 60.0716 238.986 60.0713C238.986 60.071 238.986 60.0707 238.986 60.0704C238.986 60.0701 238.986 60.0698 238.986 60.0695C238.986 60.0692 238.986 60.0689 238.986 60.0686C238.986 60.0683 238.986 60.068 238.986 60.0677C238.986 60.0674 238.986 60.0671 238.986 60.0668C238.986 60.0665 238.986 60.0662 238.986 60.0659C238.986 60.0656 238.986 60.0653 238.986 60.065C238.986 60.0647 238.986 60.0644 238.986 60.0641C238.986 60.0638 238.986 60.0635 238.986 60.0632C238.986 60.0629 238.986 60.0626 238.986 60.0623C238.986 60.062 238.986 60.0617 238.986 60.0614C238.986 60.0611 238.986 60.0608 238.986 60.0605C238.986 60.0602 238.986 60.0599 238.986 60.0596C238.986 60.0593 238.986 60.059 238.986 60.0587C238.986 60.0584 238.986 60.0581 238.986 60.0578C238.986 60.0575 238.986 60.0572 238.986 60.0569C238.986 60.0566 238.986 60.0563 238.986 60.056C238.986 60.0557 238.986 60.0554 238.986 60.0551C238.986 60.0548 238.986 60.0545 238.986 60.0542C238.986 60.0539 238.986 60.0536 238.986 60.0533C238.986 60.053 238.986 60.0527 238.986 60.0524C238.986 60.0521 238.986 60.0518 238.986 60.0515C238.986 60.0512 238.986 60.0509 238.986 60.0506C238.986 60.0503 238.986 60.05 238.986 60.0498C238.986 60.0494 238.986 60.0492 238.986 60.0489C238.986 60.0486 238.986 60.0483 238.986 60.048C238.986 60.0477 238.986 60.0474 238.986 60.0471C238.986 60.0468 238.986 60.0465 238.986 60.0462C238.986 60.0459 238.986 60.0456 238.986 60.0453C238.986 60.045 238.986 60.0447 238.986 60.0444C238.986 60.0441 238.986 60.0438 238.986 60.0435C238.986 60.0432 238.986 60.0429 238.986 60.0426C238.986 60.0423 238.986 60.042 238.986 60.0417C238.986 60.0414 238.986 60.0411 238.986 60.0408C238.986 60.0405 238.986 60.0402 238.986 60.0399C238.986 60.0396 238.986 60.0393 238.986 60.039C238.986 60.0387 238.986 60.0384 238.986 60.0381C238.986 60.0378 238.986 60.0376 238.986 60.0373C238.986 60.037 238.986 60.0367 238.986 60.0364C238.986 60.0361 238.986 60.0358 238.986 60.0355C238.986 60.0352 238.986 60.0349 238.986 60.0346C238.986 60.0343 238.986 60.034 238.986 60.0337C238.986 60.0334 238.986 60.0331 238.986 60.0328C238.986 60.0325 238.986 60.0322 238.986 60.0319C238.986 60.0316 238.986 60.0313 238.986 60.031C238.986 60.0307 238.986 60.0304 238.986 60.0302C238.986 60.0299 238.986 60.0296 238.986 60.0293C238.986 60.029 238.986 60.0287 238.986 60.0284C238.986 60.0281 238.986 60.0278 238.986 60.0275C238.986 60.0272 238.986 60.0269 238.986 60.0266C238.986 60.0263 238.986 60.026 238.986 60.0257C238.986 60.0254 238.986 60.0251 238.986 60.0248C238.986 60.0245 238.986 60.0243 238.986 60.024C238.986 60.0237 238.986 60.0234 238.986 60.0231C238.986 60.0228 238.986 60.0225 238.986 60.0222C238.986 60.0219 238.986 60.0216 238.986 60.0213C238.986 60.021 238.986 60.0207 238.986 60.0204C238.986 60.0201 238.986 60.0198 238.986 60.0195C238.986 60.0192 238.986 60.019 238.986 60.0187C238.986 60.0184 238.986 60.0181 238.986 60.0178C238.986 60.0175 238.986 60.0172 238.986 60.0169C238.986 60.0166 238.986 60.0163 238.986 60.016C238.986 60.0157 238.986 60.0154 238.986 60.0151C238.986 60.0148 238.986 60.0145 238.986 60.0143C238.986 60.014 238.986 60.0137 238.986 60.0134C238.986 60.0131 238.986 60.0128 238.986 60.0125C238.986 60.0122 238.986 60.0119 238.986 60.0116C238.986 60.0113 238.986 60.011 238.986 60.0107C238.986 60.0104 238.986 60.0102 238.986 60.0099C238.986 60.0096 238.986 60.0093 238.986 60.009C238.986 60.0087 238.986 60.0084 238.986 60.0081C238.986 60.0078 238.986 60.0075 238.986 60.0072C238.986 60.0069 238.986 60.0066 238.986 60.0064C238.986 60.0061 238.986 60.0058 238.986 60.0055C238.986 60.0052 238.986 60.0049 238.986 60.0046C238.986 60.0043 238.986 60.004 238.986 60.0037C238.986 60.0034 238.986 60.0031 238.986 60.0029C238.986 60.0026 238.986 60.0023 238.986 60.002C238.986 60.0017 238.986 60.0014 238.986 60.0011C238.986 60.0008 238.986 60.0005 238.986 60.0002C238.986 59.9999 238.986 59.9996 238.986 59.9994C238.986 59.9991 238.986 59.9988 238.986 59.9985C238.986 59.9982 238.986 59.9979 238.986 59.9976C238.986 59.9973 238.986 59.997 238.986 59.9967C238.986 59.9965 238.986 59.9962 238.986 59.9959C238.986 59.9956 238.986 59.9953 238.986 59.995C238.986 59.9947 238.986 59.9944 238.986 59.9941C238.986 59.9938 238.986 59.9935 238.986 59.9933C238.986 59.993 238.986 59.9927 238.986 59.9924C238.986 59.9921 238.986 59.9918 238.986 59.9915C238.986 59.9912 238.986 59.9909 238.986 59.9906C238.986 59.9904 238.986 59.9901 238.986 59.9898C238.986 59.9895 238.986 59.9892 238.986 59.9889C238.986 59.9886 238.986 59.9883 238.986 59.988C238.986 59.9877 238.986 59.9875 238.986 59.9872C238.986 59.9869 238.986 59.9866 238.986 59.9863C238.986 59.986 238.986 59.9857 238.986 59.9854C238.986 59.9851 238.986 59.9849 238.986 59.9846C238.986 59.9843 238.986 59.984 238.986 59.9837C238.986 59.9834 238.986 59.9831 238.986 59.9828C238.986 59.9825 238.986 59.9823 238.986 59.982C238.986 59.9817 238.986 59.9814 238.986 59.9811C238.986 59.9808 238.986 59.9805 238.986 59.9802C238.986 59.9799 238.986 59.9797 238.986 59.9794C238.986 59.9791 238.986 59.9788 238.986 59.9785C238.986 59.9782 238.986 59.9779 238.986 59.9776C238.986 59.9774 238.986 59.9771 238.986 59.9768C238.986 59.9765 238.986 59.9762 238.986 59.9759C238.986 59.9756 238.986 59.9753 238.986 59.9751C238.986 59.9748 238.986 59.9745 238.986 59.9742C238.986 59.9739 238.986 59.9736 238.986 59.9733C238.986 59.973 238.986 59.9728 238.986 59.9725C238.986 59.9722 238.986 59.9719 238.986 59.9716C238.986 59.9713 238.986 59.971 238.986 59.9707C238.986 59.9705 238.986 59.9702 238.986 59.9699C238.986 59.9696 238.986 59.9693 238.986 59.969C238.986 59.9687 238.986 59.9685 238.986 59.9682C238.986 59.9679 238.986 59.9676 238.986 59.9673C238.986 59.967 238.986 59.9667 238.986 59.9665C238.986 59.9662 238.986 59.9659 238.986 59.9656C238.986 59.9653 238.986 59.965 238.986 59.9647C238.986 59.9645 238.986 59.9642 238.986 59.9639C238.986 59.9636 238.986 59.9633 238.986 59.963C238.986 59.9627 238.986 59.9624 238.986 59.9622C238.986 59.9619 238.986 59.9616 238.986 59.9613C238.986 59.961 238.986 59.9607 238.986 59.9604C238.986 59.9602 238.986 59.9599 238.986 59.9596C238.986 59.9593 238.986 59.959 238.986 59.9587C238.986 59.9585 238.986 59.9582 238.986 59.9579C238.986 59.9576 238.986 59.9573 238.986 59.957C238.986 59.9567 238.986 59.9565 238.986 59.9562C238.986 59.9559 238.986 59.9556 238.986 59.9553C238.986 59.955 238.986 59.9548 238.986 59.9545C238.986 59.9542 238.986 59.9539 238.986 59.9536C238.986 59.9533 238.986 59.953 238.986 59.9528C238.986 59.9525 238.986 59.9522 238.986 59.9519C238.986 59.9516 238.986 59.9513 238.986 59.9511C238.986 59.9508 238.986 59.9505 238.986 59.9502C238.986 59.9499 238.986 59.9496 238.986 59.9494C238.986 59.9491 238.986 59.9488 238.986 59.9485C238.986 59.9482 238.986 59.9479 238.986 59.9477C238.986 59.9474 238.986 59.9471 238.986 59.9468C238.986 59.9465 238.986 59.9462 238.986 59.946C238.986 59.9457 238.986 59.9454 238.986 59.9451C238.986 59.9448 238.986 59.9445 238.986 59.9443C238.986 59.944 238.986 59.9437 238.986 59.9434C238.986 59.9431 238.986 59.9428 238.986 59.9426C238.986 59.9423 238.986 59.942 238.986 59.9417C238.986 59.9414 238.986 59.9411 238.986 59.9409C238.986 59.9406 238.986 59.9403 238.986 59.94C238.986 59.9397 238.986 59.9395 238.986 59.9392C238.986 59.9389 238.986 59.9386 238.986 59.9383C238.986 59.938 238.986 59.9378 238.986 59.9375C238.986 59.9372 238.986 59.9369 238.986 59.9366C238.986 59.9364 238.986 59.9361 238.986 59.9358C238.986 59.9355 238.986 59.9352 238.986 59.9349C238.986 59.9347 238.986 59.9344 238.986 59.9341C238.986 59.9338 238.986 59.9335 238.986 59.9333C238.986 59.933 238.986 59.9327 238.986 59.9324C238.986 59.9321 238.986 59.9318 238.986 59.9316C238.986 59.9313 238.986 59.931 238.986 59.9307C238.986 59.9304 238.986 59.9302 238.986 59.9299C238.986 59.9296 238.986 59.9293 238.986 59.929C238.986 59.9288 238.986 59.9285 238.986 59.9282C238.986 59.9279 238.986 59.9276 238.986 59.9274C238.986 59.9271 238.986 59.9268 238.986 59.9265C238.986 59.9262 238.986 59.926 238.986 59.9257C238.986 59.9254 238.986 59.9251 238.986 59.9248C238.986 59.9246 238.986 59.9243 238.986 59.924C238.986 59.9237 238.986 59.9234 238.986 59.9232C238.986 59.9229 238.986 59.9226 238.986 59.9223C238.986 59.922 238.986 59.9218 238.986 59.9215C238.986 59.9212 238.986 59.9209 238.986 59.9206C238.986 59.9204 238.986 59.9201 238.986 59.9198C238.986 59.9195 238.986 59.9192 238.986 59.919C238.986 59.9187 238.986 59.9184 238.986 59.9181C238.986 59.9178 238.986 59.9176 238.986 59.9173C238.986 59.917 238.986 59.9167 238.986 59.9165C238.986 59.9162 238.986 59.9159 238.986 59.9156C238.986 59.9153 238.986 59.9151 238.986 59.9148C238.986 59.9145 238.986 59.9142 238.986 59.9139C238.986 59.9137 238.986 59.9134 238.986 59.9131C238.986 59.9128 238.986 59.9126 238.986 59.9123C238.986 59.912 238.986 59.9117 238.986 59.9114C238.986 59.9112 238.986 59.9109 238.986 59.9106C238.986 59.9103 238.986 59.9101 238.986 59.9098C238.986 59.9095 238.986 59.9092 238.986 59.9089C238.986 59.9087 238.986 59.9084 238.986 59.9081C238.986 59.9078 238.986 59.9076 238.986 59.9073C238.986 59.907 238.986 59.9067 238.986 59.9064C238.986 59.9062 238.986 59.9059 238.986 59.9056C238.986 59.9053 238.986 59.9051 238.986 59.9048C238.986 59.9045 238.986 59.9042 238.986 59.904C238.986 59.9037 238.986 59.9034 238.986 59.9031C238.986 59.9028 238.986 59.9026 238.986 59.9023C238.986 59.902 238.986 59.9017 238.986 59.9015C238.986 59.9012 238.986 59.9009 238.986 59.9006C238.986 59.9004 238.986 59.9001 238.986 59.8998C238.986 59.8995 238.986 59.8993 238.986 59.899C238.986 59.8987 238.986 59.8984 238.986 59.8982C238.986 59.8979 238.986 59.8976 238.986 59.8973C238.986 59.897 238.986 59.8968 238.986 59.8965C238.986 59.8962 238.986 59.8959 238.986 59.8957C238.986 59.8954 238.986 59.8951 238.986 59.8948C238.986 59.8946 238.986 59.8943 238.986 59.894C238.986 59.8937 238.986 59.8935 238.986 59.8932C238.986 59.8929 238.986 59.8926 238.986 59.8924C238.986 59.8921 238.986 59.8918 238.986 59.8915C238.986 59.8913 238.986 59.891 238.986 59.8907C238.986 59.8904 238.986 59.8902 238.986 59.8899C238.986 59.8896 238.986 59.8893 238.986 59.8891C238.986 59.8888 238.986 59.8885 238.986 59.8882C238.986 59.888 238.986 59.8877 238.986 59.8874C238.986 59.8871 238.986 59.8869 238.986 59.8866C238.986 59.8863 238.986 59.8861 238.986 59.8858C238.986 59.8855 238.986 59.8852 238.986 59.885C238.986 59.8847 238.986 59.8844 238.986 59.8841C238.986 59.8839 238.986 59.8836 238.986 59.8833C238.986 59.883 238.986 59.8828 238.986 59.8825C238.986 59.8822 238.986 59.8819 238.986 59.8817C238.986 59.8814 238.986 59.8811 238.986 59.8809C238.986 59.8806 238.986 59.8803 238.986 59.88C238.986 59.8798 238.986 59.8795 238.986 59.8792C238.986 59.8789 238.986 59.8787 238.986 59.8784C238.986 59.8781 238.986 59.8778 238.986 59.8776C238.986 59.8773 238.986 59.877 238.986 59.8768C238.986 59.8765 238.986 59.8762 238.986 59.8759C238.986 59.8757 238.986 59.8754 238.986 59.8751C238.986 59.8748 238.986 59.8746 238.986 59.8743C238.986 59.874 238.986 59.8738 238.986 59.8735C238.986 59.8732 238.986 59.8729 238.986 59.8727C238.986 59.8724 238.986 59.8721 238.986 59.8719C238.986 59.8716 238.986 59.8713 238.986 59.871C238.986 59.8708 238.986 59.8705 238.986 59.8702C238.986 59.87 238.986 59.8697 238.986 59.8694C238.986 59.8691 238.986 59.8689 238.986 59.8686C238.986 59.8683 238.986 59.8681 238.986 59.8678C238.986 59.8675 238.986 59.8672 238.986 59.867C238.986 59.8667 238.986 59.8664 238.986 59.8662C238.986 59.8659 238.986 59.8656 238.986 59.8653C238.986 59.8651 238.986 59.8648 238.986 59.8645C238.986 59.8643 238.986 59.864 238.986 59.8637C238.986 59.8634 238.986 59.8632 238.986 59.8629C238.986 59.8626 238.986 59.8624 238.986 59.8621C238.986 59.8618 238.986 59.8616 238.986 59.8613C238.986 59.861 238.986 59.8607 238.986 59.8605C238.986 59.8602 238.986 59.8599 238.986 59.8597C238.986 59.8594 238.986 59.8591 238.986 59.8589C238.986 59.8586 238.986 59.8583 238.986 59.858C238.986 59.8578 238.986 59.8575 238.986 59.8572C238.986 59.857 238.986 59.8567 238.986 59.8564C238.986 59.8562 238.986 59.8559 238.986 59.8556C238.986 59.8554 238.986 59.8551 238.986 59.8548C238.986 59.8545 238.986 59.8543 238.986 59.854C238.986 59.8537 238.986 59.8535 238.986 59.8532C238.986 59.8529 238.986 59.8527 238.986 59.8524C238.986 59.8521 238.986 59.8519 238.986 59.8516C238.986 59.8513 238.986 59.8511 238.986 59.8508C238.986 59.8505 238.986 59.8502 238.986 59.85C238.986 59.8497 238.986 59.8494 238.986 59.8492C238.986 59.8489 238.986 59.8486 238.986 59.8484C238.986 59.8481 238.986 59.8478 238.986 59.8476C238.986 59.8473 238.986 59.847 238.986 59.8468C238.986 59.8465 238.986 59.8462 238.986 59.846C238.986 59.8457 238.986 59.8454 238.986 59.8451C238.986 59.8449 238.986 59.8446 238.986 59.8443C238.986 59.8441 238.986 59.8438 238.986 59.8435C238.986 59.8433 238.986 59.843 238.986 59.8427C238.986 59.8425 238.986 59.8422 238.986 59.8419C238.986 59.8417 238.986 59.8414 238.986 59.8411C238.986 59.8409 238.986 59.8406 238.986 59.8403C238.986 59.8401 238.986 59.8398 238.986 59.8395C238.986 59.8393 238.986 59.839 238.986 59.8387C238.986 59.8385 238.986 59.8382 238.986 59.8379C238.986 59.8377 238.986 59.8374 238.986 59.8371C238.986 59.8369 238.986 59.8366 238.986 59.8363C238.986 59.8361 238.986 59.8358 238.986 59.8355C238.986 59.8353 238.986 59.835 238.986 59.8347C238.986 59.8345 238.986 59.8342 238.986 59.8339C238.986 59.8337 238.986 59.8334 238.986 59.8331C238.986 59.8329 238.986 59.8326 238.986 59.8324C238.986 59.8321 238.986 59.8318 238.986 59.8316C238.986 59.8313 238.986 59.831 238.986 59.8308C238.986 59.8305 238.986 59.8302 238.986 59.83C238.986 59.8297 238.986 59.8294 238.986 59.8292C238.986 59.8289 238.986 59.8286 238.986 59.8284C238.986 59.8281 238.986 59.8278 238.986 59.8276C238.986 59.8273 238.986 59.827 238.986 59.8268C238.986 59.8265 238.986 59.8263 238.986 59.826C238.986 59.8257 238.986 59.8255 238.986 59.8252C238.986 59.8249 238.986 59.8247 238.986 59.8244C238.986 59.8241 238.986 59.8239 238.986 59.8236C238.986 59.8233 238.986 59.8231 238.986 59.8228C238.986 59.8226 238.986 59.8223 238.986 59.822C238.986 59.8218 238.986 59.8215 238.986 59.8212C238.986 59.821 238.986 59.8207 238.986 59.8204C238.986 59.8202 238.986 59.8199 238.986 59.8196C238.986 59.8194 238.986 59.8191 238.986 59.8189C238.986 59.8186 238.986 59.8183 238.986 59.8181C238.986 59.8178 238.986 59.8175 238.986 59.8173C238.986 59.817 238.986 59.8168 238.986 59.8165C238.986 59.8162 238.986 59.816 238.986 59.8157C238.986 59.8154 238.986 59.8152 238.986 59.8149C238.986 59.8147 238.986 59.8144 238.986 59.8141C238.986 59.8139 238.986 59.8136 238.986 59.8133C238.986 59.8131 238.986 59.8128 238.986 59.8125C238.986 59.8123 238.986 59.812 238.986 59.8118C238.986 59.8115 238.986 59.8112 238.986 59.811C238.986 59.8107 238.986 59.8104 238.986 59.8102C238.986 59.8099 238.986 59.8097 238.986 59.8094C238.986 59.8091 238.986 59.8089 238.986 59.8086C238.986 59.8084 238.986 59.8081 238.986 59.8078C238.986 59.8076 238.986 59.8073 238.986 59.807C238.986 59.8068 238.986 59.8065 238.986 59.8063C238.986 59.806 238.986 59.8057 238.986 59.8055C238.986 59.8052 238.986 59.805 238.986 59.8047C238.986 59.8044 238.986 59.8042 238.986 59.8039C238.986 59.8036 238.986 59.8034 238.986 59.8031C238.986 59.8029 238.986 59.8026 238.986 59.8023C238.986 59.8021 238.986 59.8018 238.986 59.8016C238.986 59.8013 238.986 59.801 238.986 59.8008C238.986 59.8005 238.986 59.8003 238.986 59.8H236.986H234.986C234.986 59.8003 234.986 59.8005 234.986 59.8008C234.986 59.801 234.986 59.8013 234.986 59.8016C234.986 59.8018 234.986 59.8021 234.986 59.8023C234.986 59.8026 234.986 59.8029 234.986 59.8031C234.986 59.8034 234.986 59.8036 234.986 59.8039C234.986 59.8042 234.986 59.8044 234.986 59.8047C234.986 59.805 234.986 59.8052 234.986 59.8055C234.986 59.8057 234.986 59.806 234.986 59.8063C234.986 59.8065 234.986 59.8068 234.986 59.807C234.986 59.8073 234.986 59.8076 234.986 59.8078C234.986 59.8081 234.986 59.8084 234.986 59.8086C234.986 59.8089 234.986 59.8091 234.986 59.8094C234.986 59.8097 234.986 59.8099 234.986 59.8102C234.986 59.8104 234.986 59.8107 234.986 59.811C234.986 59.8112 234.986 59.8115 234.986 59.8118C234.986 59.812 234.986 59.8123 234.986 59.8125C234.986 59.8128 234.986 59.8131 234.986 59.8133C234.986 59.8136 234.986 59.8139 234.986 59.8141C234.986 59.8144 234.986 59.8147 234.986 59.8149C234.986 59.8152 234.986 59.8154 234.986 59.8157C234.986 59.816 234.986 59.8162 234.986 59.8165C234.986 59.8168 234.986 59.817 234.986 59.8173C234.986 59.8175 234.986 59.8178 234.986 59.8181C234.986 59.8183 234.986 59.8186 234.986 59.8189C234.986 59.8191 234.986 59.8194 234.986 59.8196C234.986 59.8199 234.986 59.8202 234.986 59.8204C234.986 59.8207 234.986 59.821 234.986 59.8212C234.986 59.8215 234.986 59.8218 234.986 59.822C234.986 59.8223 234.986 59.8226 234.986 59.8228C234.986 59.8231 234.986 59.8233 234.986 59.8236C234.986 59.8239 234.986 59.8241 234.986 59.8244C234.986 59.8247 234.986 59.8249 234.986 59.8252C234.986 59.8255 234.986 59.8257 234.986 59.826C234.986 59.8263 234.986 59.8265 234.986 59.8268C234.986 59.827 234.986 59.8273 234.986 59.8276C234.986 59.8278 234.986 59.8281 234.986 59.8284C234.986 59.8286 234.986 59.8289 234.986 59.8292C234.986 59.8294 234.986 59.8297 234.986 59.83C234.986 59.8302 234.986 59.8305 234.986 59.8308C234.986 59.831 234.986 59.8313 234.986 59.8316C234.986 59.8318 234.986 59.8321 234.986 59.8324C234.986 59.8326 234.986 59.8329 234.986 59.8331C234.986 59.8334 234.986 59.8337 234.986 59.8339C234.986 59.8342 234.986 59.8345 234.986 59.8347C234.986 59.835 234.986 59.8353 234.986 59.8355C234.986 59.8358 234.986 59.8361 234.986 59.8363C234.986 59.8366 234.986 59.8369 234.986 59.8371C234.986 59.8374 234.986 59.8377 234.986 59.8379C234.986 59.8382 234.986 59.8385 234.986 59.8387C234.986 59.839 234.986 59.8393 234.986 59.8395C234.986 59.8398 234.986 59.8401 234.986 59.8403C234.986 59.8406 234.986 59.8409 234.986 59.8411C234.986 59.8414 234.986 59.8417 234.986 59.8419C234.986 59.8422 234.986 59.8425 234.986 59.8427C234.986 59.843 234.986 59.8433 234.986 59.8435C234.986 59.8438 234.986 59.8441 234.986 59.8443C234.986 59.8446 234.986 59.8449 234.986 59.8451C234.986 59.8454 234.986 59.8457 234.986 59.846C234.986 59.8462 234.986 59.8465 234.986 59.8468C234.986 59.847 234.986 59.8473 234.986 59.8476C234.986 59.8478 234.986 59.8481 234.986 59.8484C234.986 59.8486 234.986 59.8489 234.986 59.8492C234.986 59.8494 234.986 59.8497 234.986 59.85C234.986 59.8502 234.986 59.8505 234.986 59.8508C234.986 59.8511 234.986 59.8513 234.986 59.8516C234.986 59.8519 234.986 59.8521 234.986 59.8524C234.986 59.8527 234.986 59.8529 234.986 59.8532C234.986 59.8535 234.986 59.8537 234.986 59.854C234.986 59.8543 234.986 59.8545 234.986 59.8548C234.986 59.8551 234.986 59.8554 234.986 59.8556C234.986 59.8559 234.986 59.8562 234.986 59.8564C234.986 59.8567 234.986 59.857 234.986 59.8572C234.986 59.8575 234.986 59.8578 234.986 59.858C234.986 59.8583 234.986 59.8586 234.986 59.8589C234.986 59.8591 234.986 59.8594 234.986 59.8597C234.986 59.8599 234.986 59.8602 234.986 59.8605C234.986 59.8607 234.986 59.861 234.986 59.8613C234.986 59.8616 234.986 59.8618 234.986 59.8621C234.986 59.8624 234.986 59.8626 234.986 59.8629C234.986 59.8632 234.986 59.8634 234.986 59.8637C234.986 59.864 234.986 59.8643 234.986 59.8645C234.986 59.8648 234.986 59.8651 234.986 59.8653C234.986 59.8656 234.986 59.8659 234.986 59.8662C234.986 59.8664 234.986 59.8667 234.986 59.867C234.986 59.8672 234.986 59.8675 234.986 59.8678C234.986 59.8681 234.986 59.8683 234.986 59.8686C234.986 59.8689 234.986 59.8691 234.986 59.8694C234.986 59.8697 234.986 59.87 234.986 59.8702C234.986 59.8705 234.986 59.8708 234.986 59.871C234.986 59.8713 234.986 59.8716 234.986 59.8719C234.986 59.8721 234.986 59.8724 234.986 59.8727C234.986 59.8729 234.986 59.8732 234.986 59.8735C234.986 59.8738 234.986 59.874 234.986 59.8743C234.986 59.8746 234.986 59.8748 234.986 59.8751C234.986 59.8754 234.986 59.8757 234.986 59.8759C234.986 59.8762 234.986 59.8765 234.986 59.8768C234.986 59.877 234.986 59.8773 234.986 59.8776C234.986 59.8778 234.986 59.8781 234.986 59.8784C234.986 59.8787 234.986 59.8789 234.986 59.8792C234.986 59.8795 234.986 59.8798 234.986 59.88C234.986 59.8803 234.986 59.8806 234.986 59.8809C234.986 59.8811 234.986 59.8814 234.986 59.8817C234.986 59.8819 234.986 59.8822 234.986 59.8825C234.986 59.8828 234.986 59.883 234.986 59.8833C234.986 59.8836 234.986 59.8839 234.986 59.8841C234.986 59.8844 234.986 59.8847 234.986 59.885C234.986 59.8852 234.986 59.8855 234.986 59.8858C234.986 59.8861 234.986 59.8863 234.986 59.8866C234.986 59.8869 234.986 59.8871 234.986 59.8874C234.986 59.8877 234.986 59.888 234.986 59.8882C234.986 59.8885 234.986 59.8888 234.986 59.8891C234.986 59.8893 234.986 59.8896 234.986 59.8899C234.986 59.8902 234.986 59.8904 234.986 59.8907C234.986 59.891 234.986 59.8913 234.986 59.8915C234.986 59.8918 234.986 59.8921 234.986 59.8924C234.986 59.8926 234.986 59.8929 234.986 59.8932C234.986 59.8935 234.986 59.8937 234.986 59.894C234.986 59.8943 234.986 59.8946 234.986 59.8948C234.986 59.8951 234.986 59.8954 234.986 59.8957C234.986 59.8959 234.986 59.8962 234.986 59.8965C234.986 59.8968 234.986 59.897 234.986 59.8973C234.986 59.8976 234.986 59.8979 234.986 59.8982C234.986 59.8984 234.986 59.8987 234.986 59.899C234.986 59.8993 234.986 59.8995 234.986 59.8998C234.986 59.9001 234.986 59.9004 234.986 59.9006C234.986 59.9009 234.986 59.9012 234.986 59.9015C234.986 59.9017 234.986 59.902 234.986 59.9023C234.986 59.9026 234.986 59.9028 234.986 59.9031C234.986 59.9034 234.986 59.9037 234.986 59.904C234.986 59.9042 234.986 59.9045 234.986 59.9048C234.986 59.9051 234.986 59.9053 234.986 59.9056C234.986 59.9059 234.986 59.9062 234.986 59.9064C234.986 59.9067 234.986 59.907 234.986 59.9073C234.986 59.9076 234.986 59.9078 234.986 59.9081C234.986 59.9084 234.986 59.9087 234.986 59.9089C234.986 59.9092 234.986 59.9095 234.986 59.9098C234.986 59.9101 234.986 59.9103 234.986 59.9106C234.986 59.9109 234.986 59.9112 234.986 59.9114C234.986 59.9117 234.986 59.912 234.986 59.9123C234.986 59.9126 234.986 59.9128 234.986 59.9131C234.986 59.9134 234.986 59.9137 234.986 59.9139C234.986 59.9142 234.986 59.9145 234.986 59.9148C234.986 59.9151 234.986 59.9153 234.986 59.9156C234.986 59.9159 234.986 59.9162 234.986 59.9165C234.986 59.9167 234.986 59.917 234.986 59.9173C234.986 59.9176 234.986 59.9178 234.986 59.9181C234.986 59.9184 234.986 59.9187 234.986 59.919C234.986 59.9192 234.986 59.9195 234.986 59.9198C234.986 59.9201 234.986 59.9204 234.986 59.9206C234.986 59.9209 234.986 59.9212 234.986 59.9215C234.986 59.9218 234.986 59.922 234.986 59.9223C234.986 59.9226 234.986 59.9229 234.986 59.9232C234.986 59.9234 234.986 59.9237 234.986 59.924C234.986 59.9243 234.986 59.9246 234.986 59.9248C234.986 59.9251 234.986 59.9254 234.986 59.9257C234.986 59.926 234.986 59.9262 234.986 59.9265C234.986 59.9268 234.986 59.9271 234.986 59.9274C234.986 59.9276 234.986 59.9279 234.986 59.9282C234.986 59.9285 234.986 59.9288 234.986 59.929C234.986 59.9293 234.986 59.9296 234.986 59.9299C234.986 59.9302 234.986 59.9304 234.986 59.9307C234.986 59.931 234.986 59.9313 234.986 59.9316C234.986 59.9318 234.986 59.9321 234.986 59.9324C234.986 59.9327 234.986 59.933 234.986 59.9333C234.986 59.9335 234.986 59.9338 234.986 59.9341C234.986 59.9344 234.986 59.9347 234.986 59.9349C234.986 59.9352 234.986 59.9355 234.986 59.9358C234.986 59.9361 234.986 59.9364 234.986 59.9366C234.986 59.9369 234.986 59.9372 234.986 59.9375C234.986 59.9378 234.986 59.938 234.986 59.9383C234.986 59.9386 234.986 59.9389 234.986 59.9392C234.986 59.9395 234.986 59.9397 234.986 59.94C234.986 59.9403 234.986 59.9406 234.986 59.9409C234.986 59.9411 234.986 59.9414 234.986 59.9417C234.986 59.942 234.986 59.9423 234.986 59.9426C234.986 59.9428 234.986 59.9431 234.986 59.9434C234.986 59.9437 234.986 59.944 234.986 59.9443C234.986 59.9445 234.986 59.9448 234.986 59.9451C234.986 59.9454 234.986 59.9457 234.986 59.946C234.986 59.9462 234.986 59.9465 234.986 59.9468C234.986 59.9471 234.986 59.9474 234.986 59.9477C234.986 59.9479 234.986 59.9482 234.986 59.9485C234.986 59.9488 234.986 59.9491 234.986 59.9494C234.986 59.9496 234.986 59.9499 234.986 59.9502C234.986 59.9505 234.986 59.9508 234.986 59.9511C234.986 59.9513 234.986 59.9516 234.986 59.9519C234.986 59.9522 234.986 59.9525 234.986 59.9528C234.986 59.953 234.986 59.9533 234.986 59.9536C234.986 59.9539 234.986 59.9542 234.986 59.9545C234.986 59.9548 234.986 59.955 234.986 59.9553C234.986 59.9556 234.986 59.9559 234.986 59.9562C234.986 59.9565 234.986 59.9567 234.986 59.957C234.986 59.9573 234.986 59.9576 234.986 59.9579C234.986 59.9582 234.986 59.9585 234.986 59.9587C234.986 59.959 234.986 59.9593 234.986 59.9596C234.986 59.9599 234.986 59.9602 234.986 59.9604C234.986 59.9607 234.986 59.961 234.986 59.9613C234.986 59.9616 234.986 59.9619 234.986 59.9622C234.986 59.9624 234.986 59.9627 234.986 59.963C234.986 59.9633 234.986 59.9636 234.986 59.9639C234.986 59.9642 234.986 59.9645 234.986 59.9647C234.986 59.965 234.986 59.9653 234.986 59.9656C234.986 59.9659 234.986 59.9662 234.986 59.9665C234.986 59.9667 234.986 59.967 234.986 59.9673C234.986 59.9676 234.986 59.9679 234.986 59.9682C234.986 59.9685 234.986 59.9687 234.986 59.969C234.986 59.9693 234.986 59.9696 234.986 59.9699C234.986 59.9702 234.986 59.9705 234.986 59.9707C234.986 59.971 234.986 59.9713 234.986 59.9716C234.986 59.9719 234.986 59.9722 234.986 59.9725C234.986 59.9728 234.986 59.973 234.986 59.9733C234.986 59.9736 234.986 59.9739 234.986 59.9742C234.986 59.9745 234.986 59.9748 234.986 59.9751C234.986 59.9753 234.986 59.9756 234.986 59.9759C234.986 59.9762 234.986 59.9765 234.986 59.9768C234.986 59.9771 234.986 59.9774 234.986 59.9776C234.986 59.9779 234.986 59.9782 234.986 59.9785C234.986 59.9788 234.986 59.9791 234.986 59.9794C234.986 59.9797 234.986 59.9799 234.986 59.9802C234.986 59.9805 234.986 59.9808 234.986 59.9811C234.986 59.9814 234.986 59.9817 234.986 59.982C234.986 59.9823 234.986 59.9825 234.986 59.9828C234.986 59.9831 234.986 59.9834 234.986 59.9837C234.986 59.984 234.986 59.9843 234.986 59.9846C234.986 59.9849 234.986 59.9851 234.986 59.9854C234.986 59.9857 234.986 59.986 234.986 59.9863C234.986 59.9866 234.986 59.9869 234.986 59.9872C234.986 59.9875 234.986 59.9877 234.986 59.988C234.986 59.9883 234.986 59.9886 234.986 59.9889C234.986 59.9892 234.986 59.9895 234.986 59.9898C234.986 59.9901 234.986 59.9904 234.986 59.9906C234.986 59.9909 234.986 59.9912 234.986 59.9915C234.986 59.9918 234.986 59.9921 234.986 59.9924C234.986 59.9927 234.986 59.993 234.986 59.9933C234.986 59.9935 234.986 59.9938 234.986 59.9941C234.986 59.9944 234.986 59.9947 234.986 59.995C234.986 59.9953 234.986 59.9956 234.986 59.9959C234.986 59.9962 234.986 59.9965 234.986 59.9967C234.986 59.997 234.986 59.9973 234.986 59.9976C234.986 59.9979 234.986 59.9982 234.986 59.9985C234.986 59.9988 234.986 59.9991 234.986 59.9994C234.986 59.9996 234.986 59.9999 234.986 60.0002C234.986 60.0005 234.986 60.0008 234.986 60.0011C234.986 60.0014 234.986 60.0017 234.986 60.002C234.986 60.0023 234.986 60.0026 234.986 60.0029C234.986 60.0031 234.986 60.0034 234.986 60.0037C234.986 60.004 234.986 60.0043 234.986 60.0046C234.986 60.0049 234.986 60.0052 234.986 60.0055C234.986 60.0058 234.986 60.0061 234.986 60.0064C234.986 60.0066 234.986 60.0069 234.986 60.0072C234.986 60.0075 234.986 60.0078 234.986 60.0081C234.986 60.0084 234.986 60.0087 234.986 60.009C234.986 60.0093 234.986 60.0096 234.986 60.0099C234.986 60.0102 234.986 60.0104 234.986 60.0107C234.986 60.011 234.986 60.0113 234.986 60.0116C234.986 60.0119 234.986 60.0122 234.986 60.0125C234.986 60.0128 234.986 60.0131 234.986 60.0134C234.986 60.0137 234.986 60.014 234.986 60.0143C234.986 60.0145 234.986 60.0148 234.986 60.0151C234.986 60.0154 234.986 60.0157 234.986 60.016C234.986 60.0163 234.986 60.0166 234.986 60.0169C234.986 60.0172 234.986 60.0175 234.986 60.0178C234.986 60.0181 234.986 60.0184 234.986 60.0187C234.986 60.019 234.986 60.0192 234.986 60.0195C234.986 60.0198 234.986 60.0201 234.986 60.0204C234.986 60.0207 234.986 60.021 234.986 60.0213C234.986 60.0216 234.986 60.0219 234.986 60.0222C234.986 60.0225 234.986 60.0228 234.986 60.0231C234.986 60.0234 234.986 60.0237 234.986 60.024C234.986 60.0243 234.986 60.0245 234.986 60.0248C234.986 60.0251 234.986 60.0254 234.986 60.0257C234.986 60.026 234.986 60.0263 234.986 60.0266C234.986 60.0269 234.986 60.0272 234.986 60.0275C234.986 60.0278 234.986 60.0281 234.986 60.0284C234.986 60.0287 234.986 60.029 234.986 60.0293C234.986 60.0296 234.986 60.0299 234.986 60.0302C234.986 60.0304 234.986 60.0307 234.986 60.031C234.986 60.0313 234.986 60.0316 234.986 60.0319C234.986 60.0322 234.986 60.0325 234.986 60.0328C234.986 60.0331 234.986 60.0334 234.986 60.0337C234.986 60.034 234.986 60.0343 234.986 60.0346C234.986 60.0349 234.986 60.0352 234.986 60.0355C234.986 60.0358 234.986 60.0361 234.986 60.0364C234.986 60.0367 234.986 60.037 234.986 60.0373C234.986 60.0376 234.986 60.0378 234.986 60.0381C234.986 60.0384 234.986 60.0387 234.986 60.039C234.986 60.0393 234.986 60.0396 234.986 60.0399C234.986 60.0402 234.986 60.0405 234.986 60.0408C234.986 60.0411 234.986 60.0414 234.986 60.0417C234.986 60.042 234.986 60.0423 234.986 60.0426C234.986 60.0429 234.986 60.0432 234.986 60.0435C234.986 60.0438 234.986 60.0441 234.986 60.0444C234.986 60.0447 234.986 60.045 234.986 60.0453C234.986 60.0456 234.986 60.0459 234.986 60.0462C234.986 60.0465 234.986 60.0468 234.986 60.0471C234.986 60.0474 234.986 60.0477 234.986 60.048C234.986 60.0483 234.986 60.0486 234.986 60.0489C234.986 60.0492 234.986 60.0494 234.986 60.0498C234.986 60.05 234.986 60.0503 234.986 60.0506C234.986 60.0509 234.986 60.0512 234.986 60.0515C234.986 60.0518 234.986 60.0521 234.986 60.0524C234.986 60.0527 234.986 60.053 234.986 60.0533C234.986 60.0536 234.986 60.0539 234.986 60.0542C234.986 60.0545 234.986 60.0548 234.986 60.0551C234.986 60.0554 234.986 60.0557 234.986 60.056C234.986 60.0563 234.986 60.0566 234.986 60.0569C234.986 60.0572 234.986 60.0575 234.986 60.0578C234.986 60.0581 234.986 60.0584 234.986 60.0587C234.986 60.059 234.986 60.0593 234.986 60.0596C234.986 60.0599 234.986 60.0602 234.986 60.0605C234.986 60.0608 234.986 60.0611 234.986 60.0614C234.986 60.0617 234.986 60.062 234.986 60.0623C234.986 60.0626 234.986 60.0629 234.986 60.0632C234.986 60.0635 234.986 60.0638 234.986 60.0641C234.986 60.0644 234.986 60.0647 234.986 60.065C234.986 60.0653 234.986 60.0656 234.986 60.0659C234.986 60.0662 234.986 60.0665 234.986 60.0668C234.986 60.0671 234.986 60.0674 234.986 60.0677C234.986 60.068 234.986 60.0683 234.986 60.0686C234.986 60.0689 234.986 60.0692 234.986 60.0695C234.986 60.0698 234.986 60.0701 234.986 60.0704C234.986 60.0707 234.986 60.071 234.986 60.0713C234.986 60.0716 234.986 60.0719 234.986 60.0722C234.986 60.0725 234.986 60.0728 234.986 60.0731C234.986 60.0734 234.986 60.0737 234.986 60.0741C234.986 60.0744 234.986 60.0747 234.986 60.075C234.986 60.0753 234.986 60.0756 234.986 60.0759C234.986 60.0762 234.986 60.0765 234.986 60.0768C234.986 60.0771 234.986 60.0774 234.986 60.0777C234.986 60.078 234.986 60.0783 234.986 60.0786C234.986 60.0789 234.986 60.0792 234.986 60.0795C234.986 60.0798 234.986 60.0801 234.986 60.0804C234.986 60.0807 234.986 60.081 234.986 60.0813C234.986 60.0816 234.986 60.0819 234.986 60.0822C234.986 60.0825 234.986 60.0828 234.986 60.0831C234.986 60.0834 234.986 60.0837 234.986 60.084C234.986 60.0843 234.986 60.0846 234.986 60.0849C234.986 60.0852 234.986 60.0855 234.986 60.0859C234.986 60.0862 234.986 60.0865 234.986 60.0868C234.986 60.0871 234.986 60.0874 234.986 60.0877C234.986 60.088 234.986 60.0883 234.986 60.0886C234.986 60.0889 234.986 60.0892 234.986 60.0895C234.986 60.0898 234.986 60.0901 234.986 60.0904C234.986 60.0907 234.986 60.091 234.986 60.0913C234.986 60.0916 234.986 60.0919 234.986 60.0922C234.986 60.0925 234.986 60.0928 234.986 60.0931C234.986 60.0934 234.986 60.0938 234.986 60.0941C234.986 60.0944 234.986 60.0947 234.986 60.095C234.986 60.0953 234.986 60.0956 234.986 60.0959C234.986 60.0962 234.986 60.0965 234.986 60.0968C234.986 60.0971 234.986 60.0974 234.986 60.0977C234.986 60.098 234.986 60.0983 234.986 60.0986C234.986 60.0989 234.986 60.0992 234.986 60.0995C234.986 60.0999 234.986 60.1002 234.986 60.1005C234.986 60.1008 234.986 60.1011 234.986 60.1014C234.986 60.1017 234.986 60.102 234.986 60.1023C234.986 60.1026 234.986 60.1029 234.986 60.1032C234.986 60.1035 234.986 60.1038 234.986 60.1041C234.986 60.1044 234.986 60.1047 234.986 60.105C234.986 60.1054 234.986 60.1057 234.986 60.106C234.986 60.1063 234.986 60.1066 234.986 60.1069C234.986 60.1072 234.986 60.1075 234.986 60.1078C234.986 60.1081 234.986 60.1084 234.986 60.1087C234.986 60.109 234.986 60.1093 234.986 60.1096C234.986 60.11 234.986 60.1103 234.986 60.1106C234.986 60.1109 234.986 60.1112 234.986 60.1115C234.986 60.1118 234.986 60.1121 234.986 60.1124C234.986 60.1127 234.986 60.113 234.986 60.1133C234.986 60.1136 234.986 60.1139 234.986 60.1143C234.986 60.1146 234.986 60.1149 234.986 60.1152C234.986 60.1155 234.986 60.1158 234.986 60.1161C234.986 60.1164 234.986 60.1167 234.986 60.117C234.986 60.1173 234.986 60.1176 234.986 60.1179C234.986 60.1182 234.986 60.1186 234.986 60.1189C234.986 60.1192 234.986 60.1195 234.986 60.1198C234.986 60.1201 234.986 60.1204 234.986 60.1207C234.986 60.121 234.986 60.1213 234.986 60.1216C234.986 60.1219 234.986 60.1223 234.986 60.1226C234.986 60.1229 234.986 60.1232 234.986 60.1235C234.986 60.1238 234.986 60.1241 234.986 60.1244C234.986 60.1247 234.986 60.125 234.986 60.1253C234.986 60.1257 234.986 60.126 234.986 60.1263C234.986 60.1266 234.986 60.1269 234.986 60.1272C234.986 60.1275 234.986 60.1278 234.986 60.1281C234.986 60.1284 234.986 60.1287 234.986 60.1291C234.986 60.1294 234.986 60.1297 234.986 60.13C234.986 60.1303 234.986 60.1306 234.986 60.1309C234.986 60.1312 234.986 60.1315 234.986 60.1318C234.986 60.1321 234.986 60.1325 234.986 60.1328C234.986 60.1331 234.986 60.1334 234.986 60.1337C234.986 60.134 234.986 60.1343 234.986 60.1346C234.986 60.1349 234.986 60.1352 234.986 60.1356C234.986 60.1359 234.986 60.1362 234.986 60.1365C234.986 60.1368 234.986 60.1371 234.986 60.1374C234.986 60.1377 234.986 60.138 234.986 60.1384C234.986 60.1387 234.986 60.139 234.986 60.1393C234.986 60.1396 234.986 60.1399 234.986 60.1402C234.986 60.1405 234.986 60.1408 234.986 60.1412C234.986 60.1415 234.986 60.1418 234.986 60.1421C234.986 60.1424 234.986 60.1427 234.986 60.143C234.986 60.1433 234.986 60.1436 234.986 60.144C234.986 60.1443 234.986 60.1446 234.986 60.1449C234.986 60.1452 234.986 60.1455 234.986 60.1458C234.986 60.1461 234.986 60.1464 234.986 60.1468C234.986 60.1471 234.986 60.1474 234.986 60.1477C234.986 60.148 234.986 60.1483 234.986 60.1486C234.986 60.1489 234.986 60.1493 234.986 60.1496C234.986 60.1499 234.986 60.1502 234.986 60.1505C234.986 60.1508 234.986 60.1511 234.986 60.1514C234.986 60.1517 234.986 60.1521 234.986 60.1524C234.986 60.1527 234.986 60.153 234.986 60.1533C234.986 60.1536 234.986 60.1539 234.986 60.1543C234.986 60.1546 234.986 60.1549 234.986 60.1552C234.986 60.1555 234.986 60.1558 234.986 60.1561C234.986 60.1564 234.986 60.1568 234.986 60.1571C234.986 60.1574 234.986 60.1577 234.986 60.158C234.986 60.1583 234.986 60.1586 234.986 60.1589C234.986 60.1593 234.986 60.1596 234.986 60.1599C234.986 60.1602 234.986 60.1605 234.986 60.1608C234.986 60.1611 234.986 60.1615 234.986 60.1618C234.986 60.1621 234.986 60.1624 234.986 60.1627C234.986 60.163 234.986 60.1633 234.986 60.1637C234.986 60.164 234.986 60.1643 234.986 60.1646C234.986 60.1649 234.986 60.1652 234.986 60.1655C234.986 60.1659 234.986 60.1662 234.986 60.1665C234.986 60.1668 234.986 60.1671 234.986 60.1674C234.986 60.1677 234.986 60.1681 234.986 60.1684C234.986 60.1687 234.986 60.169 234.986 60.1693C234.986 60.1696 234.986 60.1699 234.986 60.1703C234.986 60.1706 234.986 60.1709 234.986 60.1712C234.986 60.1715 234.986 60.1718 234.986 60.1721C234.986 60.1725 234.986 60.1728 234.986 60.1731C234.986 60.1734 234.986 60.1737 234.986 60.174C234.986 60.1744 234.986 60.1747 234.986 60.175C234.986 60.1753 234.986 60.1756 234.986 60.1759C234.986 60.1763 234.986 60.1766 234.986 60.1769C234.986 60.1772 234.986 60.1775 234.986 60.1778C234.986 60.1781 234.986 60.1785 234.986 60.1788C234.986 60.1791 234.986 60.1794 234.986 60.1797C234.986 60.18 234.986 60.1804 234.986 60.1807C234.986 60.181 234.986 60.1813 234.986 60.1816C234.986 60.1819 234.986 60.1823 234.986 60.1826C234.986 60.1829 234.986 60.1832 234.986 60.1835C234.986 60.1838 234.986 60.1842 234.986 60.1845C234.986 60.1848 234.986 60.1851 234.986 60.1854C234.986 60.1857 234.986 60.1861 234.986 60.1864C234.986 60.1867 234.986 60.187 234.986 60.1873C234.986 60.1876 234.986 60.188 234.986 60.1883C234.986 60.1886 234.986 60.1889 234.986 60.1892C234.986 60.1895 234.986 60.1899 234.986 60.1902C234.986 60.1905 234.986 60.1908 234.986 60.1911C234.986 60.1915 234.986 60.1918 234.986 60.1921C234.986 60.1924 234.986 60.1927 234.986 60.193C234.986 60.1934 234.986 60.1937 234.986 60.194C234.986 60.1943 234.986 60.1946 234.986 60.195C234.986 60.1953 234.986 60.1956 234.986 60.1959C234.986 60.1962 234.986 60.1965 234.986 60.1969C234.986 60.1972 234.986 60.1975 234.986 60.1978C234.986 60.1981 234.986 60.1985 234.986 60.1988C234.986 60.1991 234.986 60.1994 234.986 60.1997C234.986 60.2001 234.986 60.2004 234.986 60.2007C234.986 60.201 234.986 60.2013 234.986 60.2016C234.986 60.202 234.986 60.2023 234.986 60.2026C234.986 60.2029 234.986 60.2032 234.986 60.2036C234.986 60.2039 234.986 60.2042 234.986 60.2045C234.986 60.2048 234.986 60.2052 234.986 60.2055C234.986 60.2058 234.986 60.2061 234.986 60.2064C234.986 60.2068 234.986 60.2071 234.986 60.2074C234.986 60.2077 234.986 60.208 234.986 60.2084C234.986 60.2087 234.986 60.209 234.986 60.2093C234.986 60.2096 234.986 60.21 234.986 60.2103C234.986 60.2106 234.986 60.2109 234.986 60.2112C234.986 60.2116 234.986 60.2119 234.986 60.2122C234.986 60.2125 234.986 60.2128 234.986 60.2132C234.986 60.2135 234.986 60.2138 234.986 60.2141C234.986 60.2144 234.986 60.2148 234.986 60.2151C234.986 60.2154 234.986 60.2157 234.986 60.2161C234.986 60.2164 234.986 60.2167 234.986 60.217C234.986 60.2173 234.986 60.2177 234.986 60.218C234.986 60.2183 234.986 60.2186 234.986 60.2189C234.986 60.2193 234.986 60.2196 234.986 60.2199C234.986 60.2202 234.986 60.2206 234.986 60.2209C234.986 60.2212 234.986 60.2215 234.986 60.2218C234.986 60.2222 234.986 60.2225 234.986 60.2228C234.986 60.2231 234.986 60.2234 234.986 60.2238C234.986 60.2241 234.986 60.2244 234.986 60.2247C234.986 60.2251 234.986 60.2254 234.986 60.2257C234.986 60.226 234.986 60.2263 234.986 60.2267C234.986 60.227 234.986 60.2273 234.986 60.2276C234.986 60.228 234.986 60.2283 234.986 60.2286C234.986 60.2289 234.986 60.2293 234.986 60.2296C234.986 60.2299 234.986 60.2302 234.986 60.2305C234.986 60.2309 234.986 60.2312 234.986 60.2315C234.986 60.2318 234.986 60.2322 234.986 60.2325C234.986 60.2328 234.986 60.2331 234.986 60.2335C234.986 60.2338 234.986 60.2341 234.986 60.2344C234.986 60.2347 234.986 60.2351 234.986 60.2354C234.986 60.2357 234.986 60.236 234.986 60.2364C234.986 60.2367 234.986 60.237 234.986 60.2373C234.986 60.2377 234.986 60.238 234.986 60.2383C234.986 60.2386 234.986 60.239 234.986 60.2393C234.986 60.2396 234.986 60.2399 234.986 60.2403C234.986 60.2406 234.986 60.2409 234.986 60.2412C234.986 60.2416 234.986 60.2419 234.986 60.2422C234.986 60.2425 234.986 60.2428 234.986 60.2432C234.986 60.2435 234.986 60.2438 234.986 60.2441C234.986 60.2445 234.986 60.2448 234.986 60.2451C234.986 60.2454 234.986 60.2458 234.986 60.2461C234.986 60.2464 234.986 60.2467 234.986 60.2471C234.986 60.2474 234.986 60.2477 234.986 60.248C234.986 60.2484 234.986 60.2487 234.986 60.249C234.986 60.2493 234.986 60.2497 234.986 60.25H236.986ZM236.986 59.8H238.986C238.986 57.8267 238.421 55.9989 236.965 54.7052L235.636 56.2L234.308 57.6948C234.652 58.0011 234.986 58.5733 234.986 59.8H236.986ZM235.636 56.2L236.965 54.7052C235.679 53.5618 234.115 53 232.386 53V55V57C233.191 57 233.794 57.2382 234.308 57.6948L235.636 56.2Z" fill="#280267" mask="url(#path-1-outside-1_5147_8031)"/>
</g>
<path d="M96.541 0C96.2858 0.588943 95.9641 0.967652 95.5062 1.41449C95.3702 1.54863 95.2341 1.68278 95.0939 1.82098C94.9515 1.95966 94.8091 2.09833 94.6624 2.24121C93.769 3.11491 92.9021 3.99208 92.0882 4.94059C91.6061 5.4877 91.0853 5.994 90.5645 6.50391C89.6124 7.44323 89.6124 7.44323 88.7188 8.4375C88.0417 9.23895 87.2865 9.96196 86.5414 10.6993C86.0173 11.22 85.5045 11.7399 85.0273 12.3047C84.3503 13.1061 83.5951 13.8291 82.85 14.5665C82.3259 15.0872 81.8131 15.6071 81.3359 16.1719C80.659 16.9732 79.9039 17.6961 79.159 18.4333C78.531 19.0573 77.9353 19.6931 77.3637 20.3693C76.7963 21.002 76.1842 21.5906 75.58 22.188C75.0805 22.6841 74.5947 23.1813 74.1399 23.7195C73.5584 24.4059 72.9221 25.0317 72.2832 25.6641C71.3314 26.6036 71.3314 26.6036 70.4375 27.5977C69.7604 28.3991 69.0052 29.1221 68.2601 29.8595C67.7361 30.3802 67.2232 30.9001 66.7461 31.4648C66.069 32.2663 65.3138 32.9893 64.5687 33.7267C64.0447 34.2474 63.5318 34.7673 63.0547 35.332C62.4774 36.0153 61.8441 36.6368 61.209 37.2656C58.4681 39.9014 58.4681 39.9014 57.4297 43.429C57.4442 46.0268 59.0483 47.5488 60.7612 49.2905C61.0698 49.6079 61.3618 49.9362 61.6484 50.2734C62.2437 50.9659 62.8696 51.6289 63.4941 52.2949C64.2216 53.0707 64.9409 53.8497 65.6351 54.6556C66.3381 55.4551 67.0691 56.2299 67.7926 57.0109C68.9295 58.2397 70.0566 59.4771 71.175 60.7228C71.6225 61.2189 72.0732 61.7122 72.5249 62.2046C72.6047 62.2918 72.6846 62.379 72.7669 62.4689C73.1956 62.9367 73.6265 63.4024 74.0602 63.8656C74.149 63.9609 74.2377 64.0562 74.3291 64.1544C74.4996 64.3374 74.6707 64.5198 74.8426 64.7015C75.2211 65.1091 75.4446 65.3825 75.623 65.918C75.0514 65.6688 74.689 65.3686 74.2607 64.9182C73.8094 64.4553 73.3555 64.0105 72.8655 63.5889C72.226 63.0386 71.6053 62.4705 70.9868 61.897C70.1665 61.1367 69.3401 60.3839 68.5073 59.6372C67.5599 58.7838 66.6231 57.9186 65.6842 57.0558C64.7818 56.2268 63.8787 55.3987 62.9668 54.5801C62.3263 54.005 61.6895 53.4261 61.0552 52.8442C60.9671 52.7635 60.8789 52.6828 60.7882 52.5996C60.3364 52.1853 59.886 51.7698 59.4374 51.3522C56.4664 48.5013 56.4664 48.5013 52.5593 47.7225C51.0435 47.9271 49.852 48.6688 48.8363 49.7887C48.5503 50.1003 48.2506 50.3645 47.9265 50.636C47.2208 51.2427 46.5702 51.8976 45.916 52.5586C45.1874 53.2948 44.4554 54.0047 43.6638 54.6735C43.1038 55.1775 42.5787 55.7146 42.0488 56.25C41.3202 56.9862 40.5882 57.6961 39.7966 58.3649C39.2366 58.8689 38.7115 59.406 38.1816 59.9414C37.453 60.6777 36.721 61.3875 35.9294 62.0563C35.3695 62.5603 34.8443 63.0974 34.3145 63.6328C33.5858 64.3691 32.8539 65.0789 32.0623 65.7477C31.3872 66.3553 30.7581 67.0101 30.1194 67.6555C29.4955 68.2835 28.8597 68.8792 28.1834 69.4508C27.6574 69.9225 27.1647 70.4254 26.668 70.9277C26.0721 71.5304 25.4811 72.127 24.8333 72.6746C24.1468 73.2561 23.521 73.8923 22.8887 74.5312C22.16 75.2675 21.4281 75.9773 20.6365 76.6461C20.0765 77.1501 19.5513 77.6873 19.0215 78.2227C18.2929 78.9589 17.5609 79.6688 16.7693 80.3375C16.2093 80.8415 15.6841 81.3787 15.1543 81.9141C14.4272 82.6488 13.6979 83.3586 12.9062 84.0241C12.2037 84.6584 11.549 85.3437 10.8909 86.0236C10.7883 86.1283 10.6856 86.233 10.5799 86.3409C10.4876 86.4361 10.3952 86.5314 10.3001 86.6296C10.0566 86.8359 10.0566 86.8359 9.70508 86.8359C9.96029 86.247 10.282 85.8683 10.7399 85.4214C10.8759 85.2873 11.012 85.1532 11.1522 85.015C11.2946 84.8763 11.437 84.7376 11.5837 84.5947C12.4771 83.721 13.344 82.8439 14.1578 81.8954C14.64 81.3482 15.1608 80.8419 15.6816 80.332C16.6337 79.3927 16.6337 79.3927 17.5273 78.3984C18.2044 77.597 18.9596 76.874 19.7047 76.1366C20.2288 75.6159 20.7416 75.096 21.2188 74.5312C21.8958 73.7298 22.651 73.0068 23.3961 72.2694C23.9202 71.7487 24.433 71.2288 24.9102 70.6641C25.5872 69.8626 26.3424 69.1396 27.0875 68.4023C27.6116 67.8815 28.1244 67.3616 28.6016 66.7969C29.2785 65.9956 30.0336 65.2727 30.7785 64.5355C31.4065 63.9115 32.0022 63.2757 32.5738 62.5994C33.1412 61.9667 33.7533 61.3781 34.3575 60.7807C34.857 60.2846 35.3428 59.7874 35.7976 59.2493C36.3791 58.5628 37.0154 57.937 37.6543 57.3047C38.6061 56.3652 38.6061 56.3652 39.5 55.3711C40.1771 54.5696 40.9323 53.8466 41.6774 53.1093C42.2014 52.5886 42.7143 52.0687 43.1914 51.5039C43.7687 50.8206 44.402 50.1991 45.0371 49.5703C47.778 46.9346 47.778 46.9346 48.8164 43.407C48.8019 40.8091 47.1978 39.2871 45.4849 37.5454C45.1763 37.228 44.8843 36.8998 44.5977 36.5625C44.0023 35.87 43.3765 35.207 42.752 34.541C42.0244 33.7652 41.3052 32.9862 40.611 32.1803C39.908 31.3808 39.177 30.606 38.4535 29.825C37.317 28.5967 36.1902 27.3599 35.0725 26.1145C34.5365 25.5205 33.9952 24.9314 33.4537 24.3423C32.7901 23.6196 32.1337 22.8905 31.48 22.1587C31.1622 21.8008 31.1622 21.8008 30.8428 21.5064C30.623 21.2695 30.623 21.2695 30.623 20.918C31.1516 21.1535 31.5015 21.4099 31.8975 21.8298C32.3085 22.2529 32.7239 22.6546 33.1719 23.0383C33.8935 23.6599 34.5869 24.3094 35.2812 24.9609C36.057 25.6885 36.8361 26.4076 37.6419 27.1019C38.4415 27.8049 39.2163 28.5359 39.9972 29.2594C41.226 30.3963 42.4634 31.5234 43.7091 32.6418C44.2053 33.0893 44.6985 33.54 45.1909 33.9917C45.279 34.0724 45.3671 34.1532 45.4579 34.2364C45.9096 34.6506 46.3601 35.0661 46.8087 35.4838C49.7797 38.3346 49.7797 38.3346 53.6868 39.1134C55.2026 38.9089 56.3941 38.1671 57.4098 37.0473C57.6958 36.7356 57.9955 36.4715 58.3196 36.2C59.0253 35.5933 59.6759 34.9384 60.3301 34.2773C61.0587 33.5411 61.7907 32.8312 62.5823 32.1625C63.1423 31.6585 63.6674 31.1213 64.1973 30.5859C64.9259 29.8497 65.6579 29.1398 66.4495 28.4711C67.1245 27.8635 67.7536 27.2086 68.3923 26.5633C69.0162 25.9353 69.652 25.3396 70.3283 24.768C70.8543 24.2962 71.347 23.7933 71.8438 23.291C72.4397 22.6884 73.0306 22.0917 73.6785 21.5442C74.3649 20.9627 74.9907 20.3264 75.623 19.6875C76.3517 18.9513 77.0836 18.2414 77.8752 17.5726C78.4352 17.0686 78.9604 16.5315 79.4902 15.9961C80.2189 15.2598 80.9508 14.55 81.7424 13.8812C82.3024 13.3772 82.8276 12.8401 83.3574 12.3047C84.0861 11.5684 84.818 10.8586 85.6096 10.1898C86.1696 9.68583 86.6948 9.14865 87.2246 8.61328C87.9532 7.87703 88.6852 7.16718 89.4768 6.49841C90.0368 5.99442 90.562 5.45725 91.0918 4.92188C91.8189 4.18715 92.5482 3.47731 93.3399 2.81181C94.0424 2.17757 94.6971 1.49225 95.3552 0.812302C95.4578 0.707616 95.5605 0.60293 95.6662 0.495071C95.7585 0.399803 95.8508 0.304535 95.946 0.20638C96.1895 0 96.1895 0 96.541 0Z" fill="white"/>
<path d="M258.123 40C258.239 40 258.355 40 258.475 40C258.495 40.2944 258.495 40.2944 258.515 40.5947C258.842 45.3639 259.169 50.133 259.497 54.9021C259.655 57.2083 259.814 59.5146 259.972 61.8209C260.109 63.8304 260.247 65.8399 260.385 67.8493C260.459 68.9139 260.532 69.9785 260.604 71.0431C260.673 72.0442 260.741 73.0452 260.811 74.0461C260.836 74.4145 260.861 74.7828 260.886 75.1512C260.92 75.6522 260.955 76.1532 260.99 76.6541C261.005 76.8752 261.005 76.8752 261.02 77.1008C261.057 77.8217 261.057 77.8217 261.287 78.4961C262.932 76.9927 262.932 76.9927 264.522 75.4316C264.832 75.1279 265.155 74.8457 265.484 74.563C266.013 74.1075 266.51 73.6318 267 73.1348C267.591 72.5358 268.202 71.9791 268.84 71.4319C269.239 71.0762 269.613 70.7026 269.988 70.3223C270.579 69.7233 271.19 69.1666 271.828 68.6194C272.227 68.2637 272.601 67.8901 272.977 67.5098C273.567 66.9108 274.178 66.3541 274.817 65.8069C275.357 65.3252 275.857 64.8063 276.365 64.2915C276.831 63.8322 277.32 63.4083 277.817 62.9827C278.181 62.6589 278.523 62.32 278.865 61.9727C279.315 61.5157 279.774 61.0827 280.26 60.6653C280.786 60.2137 281.279 59.7414 281.766 59.248C282.356 58.6491 282.967 58.0924 283.606 57.5452C284.004 57.1895 284.379 56.8158 284.754 56.4355C285.345 55.8366 285.956 55.2799 286.594 54.7327C286.993 54.377 287.367 54.0033 287.742 53.623C288.332 53.0256 288.94 52.4695 289.578 51.925C290.144 51.4186 290.666 50.8702 291.191 50.3223C291.521 50.0195 291.521 50.0195 291.873 50.0195C291.582 50.784 291.01 51.2661 290.434 51.8213C289.689 52.551 288.975 53.2865 288.3 54.0817C287.828 54.6149 287.316 55.1058 286.809 55.6054C286.35 56.0712 285.926 56.5607 285.5 57.057C285.066 57.546 284.598 57.9989 284.132 58.4577C283.801 58.7947 283.491 59.1418 283.183 59.5007C282.731 60.0264 282.259 60.5191 281.766 61.0059C281.276 61.489 280.807 61.9777 280.359 62.5C279.788 63.1668 279.172 63.7786 278.547 64.3951C278.198 64.749 277.87 65.1111 277.547 65.4883C276.975 66.1551 276.359 66.7669 275.734 67.3834C275.385 67.7373 275.058 68.0994 274.734 68.4766C274.163 69.1434 273.547 69.7552 272.922 70.3717C272.573 70.7256 272.245 71.0877 271.922 71.4648C271.35 72.1317 270.734 72.7435 270.109 73.36C269.76 73.7138 269.433 74.076 269.109 74.4531C268.538 75.12 267.922 75.7317 267.297 76.3483C266.842 76.8093 266.423 77.2939 266.002 77.7854C265.511 78.3361 264.981 78.8471 264.455 79.3654C264.07 79.7565 263.724 80.1646 263.396 80.6055C263.969 80.8919 264.607 80.8607 265.238 80.9025C265.395 80.9134 265.551 80.9243 265.711 80.9356C266.237 80.9722 266.763 81.0077 267.29 81.0432C267.665 81.0692 268.041 81.0952 268.417 81.1213C269.44 81.192 270.463 81.2618 271.486 81.3315C272.554 81.4044 273.622 81.4781 274.691 81.5518C276.714 81.6912 278.738 81.8299 280.762 81.9683C283.066 82.1258 285.37 82.2842 287.673 82.4427C292.413 82.7687 297.153 83.0937 301.893 83.418C301.893 83.534 301.893 83.65 301.893 83.7695C301.598 83.7897 301.598 83.7897 301.298 83.8102C296.532 84.1366 291.766 84.4638 287 84.7918C284.695 84.9504 282.39 85.1087 280.085 85.2665C278.077 85.4039 276.068 85.5418 274.06 85.6803C272.996 85.7537 271.932 85.8268 270.868 85.8994C269.867 85.9676 268.867 86.0364 267.866 86.1058C267.498 86.1312 267.13 86.1564 266.762 86.1813C266.261 86.2152 265.76 86.25 265.26 86.285C265.039 86.2996 265.039 86.2996 264.814 86.3146C264.251 86.3547 263.76 86.4024 263.221 86.582C263.371 86.7434 263.522 86.9047 263.677 87.0709C265.538 89.0663 265.538 89.0663 266.419 90.088C266.84 90.5669 267.271 91.0352 267.703 91.5039C268.344 92.1997 268.976 92.9017 269.596 93.616C270.216 94.3259 270.851 95.0229 271.482 95.7227C271.746 96.0156 272.01 96.3085 272.273 96.6016C272.404 96.7466 272.534 96.8916 272.669 97.041C275.438 100.117 275.438 100.117 275.828 100.552C276.108 100.862 276.39 101.171 276.673 101.479C276.817 101.635 276.96 101.791 277.107 101.952C277.238 102.093 277.368 102.234 277.503 102.38C277.811 102.754 277.811 102.754 277.986 103.281C277.452 103.041 277.071 102.766 276.649 102.362C276.53 102.25 276.412 102.137 276.29 102.022C276.107 101.846 276.107 101.846 275.921 101.666C275.093 100.875 274.258 100.099 273.392 99.3486C272.923 98.9395 272.467 98.5181 272.01 98.0957C271.43 97.5614 270.848 97.0302 270.252 96.5137C269.656 95.9972 269.074 95.4658 268.494 94.9316C267.798 94.2911 267.096 93.6591 266.382 93.0392C265.517 92.283 264.668 91.5077 263.816 90.7369C262.983 89.9845 262.144 89.2417 261.287 88.5156C261.063 89.1894 261.037 89.851 260.99 90.5545C260.979 90.7107 260.968 90.8669 260.957 91.0279C260.92 91.5533 260.885 92.0789 260.849 92.6044C260.823 92.9803 260.797 93.3562 260.771 93.732C260.701 94.7543 260.631 95.7766 260.561 96.7989C260.488 97.8666 260.414 98.9343 260.341 100.002C260.201 102.025 260.063 104.047 259.924 106.07C259.767 108.372 259.608 110.675 259.45 112.977C259.124 117.714 258.799 122.451 258.475 127.188C258.359 127.188 258.243 127.188 258.123 127.188C258.11 126.991 258.096 126.795 258.082 126.593C257.756 121.824 257.429 117.054 257.101 112.285C256.942 109.979 256.784 107.673 256.626 105.367C256.489 103.357 256.351 101.348 256.212 99.3382C256.139 98.2736 256.066 97.209 255.993 96.1444C255.925 95.1433 255.856 94.1423 255.787 93.1414C255.761 92.773 255.736 92.4047 255.711 92.0363C255.677 91.5353 255.643 91.0343 255.608 90.5334C255.598 90.386 255.588 90.2386 255.578 90.0867C255.541 89.3658 255.541 89.3658 255.311 88.6914C253.666 90.1948 253.666 90.1948 252.076 91.7559C251.766 92.0596 251.443 92.3418 251.114 92.6245C250.585 93.08 250.088 93.5557 249.598 94.0527C249.007 94.6517 248.396 95.2084 247.757 95.7556C247.359 96.1113 246.985 96.4849 246.609 96.8652C246.019 97.4642 245.408 98.0209 244.769 98.5681C244.371 98.9238 243.996 99.2974 243.621 99.6777C243.03 100.277 242.419 100.833 241.781 101.381C241.382 101.736 241.008 102.11 240.633 102.49C240.042 103.089 239.431 103.646 238.793 104.193C238.394 104.549 238.02 104.922 237.645 105.303C237.054 105.902 236.443 106.458 235.804 107.006C235.406 107.361 235.031 107.735 234.656 108.115C234.065 108.714 233.454 109.271 232.816 109.818C232.417 110.174 232.043 110.547 231.668 110.928C231.077 111.527 230.466 112.083 229.828 112.631C229.288 113.112 228.787 113.631 228.279 114.146C227.815 114.604 227.328 115.027 226.832 115.45C226.318 115.909 225.844 116.405 225.369 116.904C225.076 117.168 225.076 117.168 224.725 117.168C225.016 116.403 225.588 115.921 226.164 115.366C226.908 114.636 227.623 113.901 228.298 113.106C228.769 112.573 229.282 112.082 229.789 111.582C230.248 111.116 230.672 110.627 231.097 110.131C231.532 109.642 231.999 109.189 232.465 108.73C232.797 108.393 233.107 108.046 233.415 107.687C233.866 107.161 234.339 106.668 234.832 106.182C235.322 105.698 235.791 105.21 236.238 104.688C236.81 104.021 237.426 103.409 238.051 102.792C238.4 102.438 238.728 102.076 239.051 101.699C239.622 101.032 240.239 100.421 240.864 99.8041C241.212 99.4502 241.54 99.0881 241.863 98.7109C242.435 98.0441 243.051 97.4323 243.676 96.8158C244.025 96.4619 244.353 96.0998 244.676 95.7227C245.247 95.0558 245.864 94.444 246.489 93.8275C246.837 93.4737 247.165 93.1115 247.488 92.7344C248.06 92.0675 248.676 91.4558 249.301 90.8392C249.756 90.3782 250.174 89.8936 250.595 89.4021C251.087 88.8514 251.617 88.3404 252.142 87.8221C252.527 87.431 252.874 87.0229 253.201 86.582C252.833 86.2143 252.058 86.3184 251.549 86.285C251.393 86.2741 251.236 86.2632 251.075 86.2519C250.546 86.2153 250.017 86.1798 249.488 86.1443C249.11 86.1183 248.733 86.0923 248.355 86.0662C247.327 85.9954 246.298 85.9256 245.27 85.856C244.196 85.7831 243.122 85.7094 242.049 85.6357C240.015 85.4962 237.98 85.3576 235.946 85.2192C233.63 85.0617 231.314 84.9033 228.999 84.7448C224.234 84.4187 219.47 84.0937 214.705 83.7695C214.705 83.6535 214.705 83.5375 214.705 83.418C215.001 83.3978 215.001 83.3978 215.303 83.3773C220.094 83.051 224.885 82.7238 229.676 82.3957C231.993 82.2371 234.31 82.0787 236.627 81.921C238.645 81.7836 240.664 81.6457 242.683 81.5072C243.752 81.4338 244.822 81.3606 245.891 81.2881C246.897 81.22 247.903 81.1511 248.908 81.0817C249.278 81.0563 249.648 81.0311 250.018 81.0062C250.522 80.9723 251.025 80.9375 251.528 80.9025C251.676 80.8927 251.824 80.883 251.977 80.873C252.7 80.8358 252.7 80.8358 253.377 80.6055C253.226 80.4441 253.076 80.2828 252.92 80.1166C251.043 78.1027 251.043 78.1027 250.167 77.0878C249.778 76.6433 249.38 76.2076 248.982 75.7715C248.482 75.2232 247.985 74.6733 247.499 74.1125C246.896 73.4184 246.274 72.7427 245.651 72.0664C245.104 71.4711 244.568 70.8674 244.039 70.2563C243.613 69.7741 243.178 69.3012 242.742 68.8281C242.111 68.1424 241.488 67.4506 240.879 66.7448C240.604 66.4336 240.324 66.1284 240.04 65.8247C239.951 65.7293 239.863 65.6339 239.771 65.5357C239.594 65.3455 239.415 65.1559 239.236 64.9671C238.611 64.2968 238.611 64.2968 238.611 63.9062C239.145 64.1464 239.527 64.4214 239.949 64.8257C240.067 64.9379 240.185 65.0502 240.307 65.1659C240.49 65.3418 240.49 65.3418 240.677 65.5212C241.505 66.3123 242.34 67.0887 243.205 67.8389C243.674 68.248 244.131 68.6694 244.588 69.0918C245.279 69.7285 245.977 70.3556 246.687 70.9711C247.304 71.5137 247.909 72.0706 248.516 72.6246C248.899 72.9712 249.284 73.3129 249.675 73.6511C250.274 74.1717 250.859 74.7065 251.443 75.2441C252.253 75.9893 253.072 76.7212 253.904 77.4414C254.168 77.672 254.432 77.9027 254.695 78.1335C254.872 78.2882 254.872 78.2882 255.052 78.446C255.138 78.5205 255.223 78.5951 255.311 78.6719C255.535 77.9981 255.561 77.3365 255.608 76.633C255.618 76.4768 255.629 76.3206 255.641 76.1596C255.677 75.6342 255.713 75.1086 255.748 74.5831C255.774 74.2072 255.8 73.8313 255.826 73.4555C255.897 72.4332 255.967 71.4109 256.037 70.3886C256.11 69.3209 256.183 68.2532 256.257 67.1855C256.396 65.163 256.535 63.1403 256.673 61.1176C256.831 58.8153 256.989 56.5129 257.148 54.2106C257.474 49.4738 257.799 44.7369 258.123 40Z" fill="white"/>
<defs>
<filter id="filter0_dd_5147_8031" x="-0.000195503" y="24.2" width="262.739" height="80.7499" filterUnits="userSpaceOnUse" color-interpolation-filters="sRGB">
<feFlood flood-opacity="0" result="BackgroundImageFix"/>
<feColorMatrix in="SourceAlpha" type="matrix" values="0 0 0 0 0 0 0 0 0 0 0 0 0 0 0 0 0 0 127 0" result="hardAlpha"/>
<feOffset dx="7" dy="5"/>
<feGaussianBlur stdDeviation="5.4"/>
<feComposite in2="hardAlpha" operator="out"/>
<feColorMatrix type="matrix" values="0 0 0 0 0.156863 0 0 0 0 0.00784314 0 0 0 0 0.403922 0 0 0 1 0"/>
<feBlend mode="normal" in2="BackgroundImageFix" result="effect1_dropShadow_5147_8031"/>
<feColorMatrix in="SourceAlpha" type="matrix" values="0 0 0 0 0 0 0 0 0 0 0 0 0 0 0 0 0 0 127 0" result="hardAlpha"/>
<feOffset dx="-7" dy="-5"/>
<feGaussianBlur stdDeviation="5.4"/>
<feComposite in2="hardAlpha" operator="out"/>
<feColorMatrix type="matrix" values="0 0 0 0 0.156863 0 0 0 0 0.00784314 0 0 0 0 0.403922 0 0 0 1 0"/>
<feBlend mode="normal" in2="effect1_dropShadow_5147_8031" result="effect2_dropShadow_5147_8031"/>
<feBlend mode="normal" in="SourceGraphic" in2="effect2_dropShadow_5147_8031" result="shape"/>
</filter>
</defs>
</svg>
