<svg width="298" height="201" viewBox="0 0 298 201" fill="none" xmlns="http://www.w3.org/2000/svg">
<path d="M19.4193 137.775L12.9393 158.175H9.24934L2.73934 137.775H6.69934L9.78934 148.035L11.1993 153.315L12.6993 148.005L15.7593 137.775H19.4193ZM36.6042 149.655V151.455C36.6042 153.575 36.0242 155.275 34.8642 156.555C33.7042 157.835 32.0642 158.475 29.9442 158.475C27.8242 158.475 26.1842 157.835 25.0242 156.555C23.8642 155.275 23.2842 153.575 23.2842 151.455V149.655C23.2842 147.535 23.8542 145.845 24.9942 144.585C26.1542 143.305 27.8042 142.665 29.9442 142.665C32.0842 142.665 33.7242 143.305 34.8642 144.585C36.0242 145.845 36.6042 147.535 36.6042 149.655ZM33.0642 149.655C33.0642 148.435 32.7942 147.485 32.2542 146.805C31.7142 146.105 30.9442 145.755 29.9442 145.755C28.9442 145.755 28.1742 146.105 27.6342 146.805C27.0942 147.485 26.8242 148.435 26.8242 149.655V151.455C26.8242 152.675 27.0942 153.635 27.6342 154.335C28.1742 155.035 28.9442 155.385 29.9442 155.385C30.9442 155.385 31.7142 155.035 32.2542 154.335C32.7942 153.635 33.0642 152.675 33.0642 151.455V149.655ZM52.6225 157.665C52.1025 157.905 51.5025 158.095 50.8225 158.235C50.1425 158.395 49.4525 158.475 48.7525 158.475C47.5925 158.475 46.6625 158.235 45.9625 157.755C45.2625 157.275 44.7525 156.605 44.4325 155.745C44.1325 154.885 43.9825 153.905 43.9825 152.805V145.965H41.5225V142.965H43.9825V139.005H47.4325V142.965H52.1725V145.965H47.4325V152.805C47.4325 153.725 47.6025 154.365 47.9425 154.725C48.3025 155.065 48.8125 155.235 49.4725 155.235C49.7925 155.235 50.1325 155.205 50.4925 155.145C50.8725 155.065 51.2925 154.935 51.7525 154.755L52.6225 157.665ZM66.9764 146.115C66.0364 146.115 65.1364 146.265 64.2764 146.565C63.4364 146.845 62.6264 147.305 61.8464 147.945V158.175H58.3964V142.965H61.6664V145.305C62.6864 144.345 63.5964 143.665 64.3964 143.265C65.1964 142.865 66.0564 142.665 66.9764 142.665V146.115ZM84.5479 157.305C83.5079 157.725 82.5279 158.025 81.6079 158.205C80.6879 158.385 79.8179 158.475 78.9979 158.475C76.7379 158.475 75.0279 157.835 73.8679 156.555C72.7079 155.275 72.1279 153.575 72.1279 151.455V149.655C72.1279 148.235 72.3879 147.005 72.9079 145.965C73.4279 144.925 74.1679 144.115 75.1279 143.535C76.0879 142.955 77.2179 142.665 78.5179 142.665C79.5779 142.665 80.5679 142.885 81.4879 143.325C82.4279 143.745 83.1879 144.415 83.7679 145.335C84.3679 146.235 84.6679 147.395 84.6679 148.815C84.6679 149.235 84.6379 149.685 84.5779 150.165C84.5179 150.625 84.4179 151.115 84.2779 151.635H75.4579C75.4979 152.875 75.8079 153.805 76.3879 154.425C76.9679 155.045 77.8979 155.355 79.1779 155.355C79.8579 155.355 80.5579 155.275 81.2779 155.115C82.0179 154.955 82.7779 154.715 83.5579 154.395L84.5479 157.305ZM78.5179 145.575C77.5979 145.575 76.8779 145.875 76.3579 146.475C75.8579 147.055 75.5679 147.895 75.4879 148.995H81.2479C81.2679 148.895 81.2779 148.805 81.2779 148.725C81.2779 148.625 81.2779 148.535 81.2779 148.455C81.2779 147.495 81.0079 146.775 80.4679 146.295C79.9279 145.815 79.2779 145.575 78.5179 145.575ZM112.198 157.305C111.158 157.725 110.178 158.025 109.258 158.205C108.338 158.385 107.468 158.475 106.648 158.475C104.388 158.475 102.678 157.835 101.518 156.555C100.358 155.275 99.7783 153.575 99.7783 151.455V149.655C99.7783 148.235 100.038 147.005 100.558 145.965C101.078 144.925 101.818 144.115 102.778 143.535C103.738 142.955 104.868 142.665 106.168 142.665C107.228 142.665 108.218 142.885 109.138 143.325C110.078 143.745 110.838 144.415 111.418 145.335C112.018 146.235 112.318 147.395 112.318 148.815C112.318 149.235 112.288 149.685 112.228 150.165C112.168 150.625 112.068 151.115 111.928 151.635H103.108C103.148 152.875 103.458 153.805 104.038 154.425C104.618 155.045 105.548 155.355 106.828 155.355C107.508 155.355 108.208 155.275 108.928 155.115C109.668 154.955 110.428 154.715 111.208 154.395L112.198 157.305ZM106.168 145.575C105.248 145.575 104.528 145.875 104.008 146.475C103.508 147.055 103.218 147.895 103.138 148.995H108.898C108.918 148.895 108.928 148.805 108.928 148.725C108.928 148.625 108.928 148.535 108.928 148.455C108.928 147.495 108.658 146.775 108.118 146.295C107.578 145.815 106.928 145.575 106.168 145.575ZM126.733 145.875C126.233 145.875 125.663 145.995 125.023 146.235C124.383 146.475 123.623 146.945 122.743 147.645V158.175H119.293V142.965H122.563V145.005C123.503 144.185 124.393 143.595 125.233 143.235C126.073 142.855 126.923 142.665 127.783 142.665C129.243 142.665 130.353 143.135 131.113 144.075C131.873 144.995 132.253 146.295 132.253 147.975V158.175H128.803V148.395C128.803 146.715 128.113 145.875 126.733 145.875ZM152.442 159.705C152.442 161.325 151.802 162.585 150.522 163.485C149.262 164.405 147.502 164.865 145.242 164.865C144.182 164.865 143.062 164.745 141.882 164.505C140.702 164.265 139.612 163.865 138.612 163.305L139.602 160.575C140.562 161.055 141.512 161.395 142.452 161.595C143.392 161.815 144.312 161.925 145.212 161.925C146.472 161.925 147.432 161.755 148.092 161.415C148.752 161.075 149.082 160.625 149.082 160.065C149.082 159.205 148.572 158.775 147.552 158.775H143.952C142.972 158.775 142.182 158.615 141.582 158.295C140.982 157.975 140.542 157.565 140.262 157.065C139.982 156.545 139.842 156.005 139.842 155.445C139.842 154.865 139.962 154.325 140.202 153.825C140.462 153.305 140.812 152.825 141.252 152.385C140.532 151.945 139.952 151.355 139.512 150.615C139.092 149.875 138.882 148.985 138.882 147.945C138.882 146.765 139.132 145.785 139.632 145.005C140.132 144.225 140.812 143.645 141.672 143.265C142.552 142.865 143.522 142.665 144.582 142.665H145.092C145.492 142.665 145.882 142.695 146.262 142.755C146.642 142.795 147.002 142.865 147.342 142.965H152.772V145.905L149.772 145.425C150.072 145.745 150.302 146.145 150.462 146.625C150.642 147.085 150.732 147.655 150.732 148.335C150.732 149.355 150.472 150.235 149.952 150.975C149.452 151.695 148.772 152.255 147.912 152.655C147.072 153.035 146.132 153.225 145.092 153.225H144.582C144.182 153.225 143.802 153.195 143.442 153.135C143.222 153.375 143.062 153.625 142.962 153.885C142.862 154.125 142.812 154.355 142.812 154.575C142.812 155.275 143.262 155.625 144.162 155.625H147.822C149.202 155.625 150.312 155.985 151.152 156.705C152.012 157.405 152.442 158.405 152.442 159.705ZM145.092 150.405C145.712 150.405 146.252 150.195 146.712 149.775C147.192 149.355 147.432 148.745 147.432 147.945C147.432 147.145 147.192 146.535 146.712 146.115C146.252 145.695 145.712 145.485 145.092 145.485H144.582C143.942 145.485 143.382 145.695 142.902 146.115C142.442 146.535 142.212 147.145 142.212 147.945C142.212 148.745 142.442 149.355 142.902 149.775C143.382 150.195 143.942 150.405 144.582 150.405H145.092ZM170.27 158.325C169.25 158.325 168.43 158.115 167.81 157.695C167.21 157.275 166.77 156.755 166.49 156.135C165.63 156.935 164.8 157.525 164 157.905C163.2 158.285 162.34 158.475 161.42 158.475C160.08 158.475 159.09 158.045 158.45 157.185C157.83 156.325 157.52 155.235 157.52 153.915C157.52 153.035 157.68 152.265 158 151.605C158.34 150.925 158.89 150.395 159.65 150.015C160.41 149.635 161.45 149.445 162.77 149.445C163.29 149.445 163.83 149.485 164.39 149.565C164.95 149.625 165.51 149.705 166.07 149.805V148.035C166.07 147.195 165.84 146.625 165.38 146.325C164.92 146.005 164.3 145.845 163.52 145.845C162.92 145.845 162.26 145.925 161.54 146.085C160.84 146.245 160.08 146.495 159.26 146.835L158.27 143.895C160.29 143.075 162.12 142.665 163.76 142.665C165.24 142.665 166.38 142.915 167.18 143.415C168 143.915 168.57 144.575 168.89 145.395C169.21 146.215 169.37 147.095 169.37 148.035V153.885C169.37 154.185 169.45 154.475 169.61 154.755C169.79 155.015 170.13 155.145 170.63 155.145H170.96V158.325H170.27ZM160.85 153.855C160.85 154.395 160.97 154.825 161.21 155.145C161.45 155.445 161.8 155.595 162.26 155.595C162.72 155.595 163.24 155.475 163.82 155.235C164.4 154.995 165.15 154.435 166.07 153.555V152.265C165.03 152.085 164.01 151.995 163.01 151.995C162.23 151.995 161.67 152.155 161.33 152.475C161.01 152.795 160.85 153.255 160.85 153.855ZM189.585 159.705C189.585 161.325 188.945 162.585 187.665 163.485C186.405 164.405 184.645 164.865 182.385 164.865C181.325 164.865 180.205 164.745 179.025 164.505C177.845 164.265 176.755 163.865 175.755 163.305L176.745 160.575C177.705 161.055 178.655 161.395 179.595 161.595C180.535 161.815 181.455 161.925 182.355 161.925C183.615 161.925 184.575 161.755 185.235 161.415C185.895 161.075 186.225 160.625 186.225 160.065C186.225 159.205 185.715 158.775 184.695 158.775H181.095C180.115 158.775 179.325 158.615 178.725 158.295C178.125 157.975 177.685 157.565 177.405 157.065C177.125 156.545 176.985 156.005 176.985 155.445C176.985 154.865 177.105 154.325 177.345 153.825C177.605 153.305 177.955 152.825 178.395 152.385C177.675 151.945 177.095 151.355 176.655 150.615C176.235 149.875 176.025 148.985 176.025 147.945C176.025 146.765 176.275 145.785 176.775 145.005C177.275 144.225 177.955 143.645 178.815 143.265C179.695 142.865 180.665 142.665 181.725 142.665H182.235C182.635 142.665 183.025 142.695 183.405 142.755C183.785 142.795 184.145 142.865 184.485 142.965H189.915V145.905L186.915 145.425C187.215 145.745 187.445 146.145 187.605 146.625C187.785 147.085 187.875 147.655 187.875 148.335C187.875 149.355 187.615 150.235 187.095 150.975C186.595 151.695 185.915 152.255 185.055 152.655C184.215 153.035 183.275 153.225 182.235 153.225H181.725C181.325 153.225 180.945 153.195 180.585 153.135C180.365 153.375 180.205 153.625 180.105 153.885C180.005 154.125 179.955 154.355 179.955 154.575C179.955 155.275 180.405 155.625 181.305 155.625H184.965C186.345 155.625 187.455 155.985 188.295 156.705C189.155 157.405 189.585 158.405 189.585 159.705ZM182.235 150.405C182.855 150.405 183.395 150.195 183.855 149.775C184.335 149.355 184.575 148.745 184.575 147.945C184.575 147.145 184.335 146.535 183.855 146.115C183.395 145.695 182.855 145.485 182.235 145.485H181.725C181.085 145.485 180.525 145.695 180.045 146.115C179.585 146.535 179.355 147.145 179.355 147.945C179.355 148.745 179.585 149.355 180.045 149.775C180.525 150.195 181.085 150.405 181.725 150.405H182.235ZM207.442 157.305C206.402 157.725 205.422 158.025 204.502 158.205C203.582 158.385 202.712 158.475 201.892 158.475C199.632 158.475 197.922 157.835 196.762 156.555C195.602 155.275 195.022 153.575 195.022 151.455V149.655C195.022 148.235 195.282 147.005 195.802 145.965C196.322 144.925 197.062 144.115 198.022 143.535C198.982 142.955 200.112 142.665 201.412 142.665C202.472 142.665 203.462 142.885 204.382 143.325C205.322 143.745 206.082 144.415 206.662 145.335C207.262 146.235 207.562 147.395 207.562 148.815C207.562 149.235 207.532 149.685 207.472 150.165C207.412 150.625 207.312 151.115 207.172 151.635H198.352C198.392 152.875 198.702 153.805 199.282 154.425C199.862 155.045 200.792 155.355 202.072 155.355C202.752 155.355 203.452 155.275 204.172 155.115C204.912 154.955 205.672 154.715 206.452 154.395L207.442 157.305ZM201.412 145.575C200.492 145.575 199.772 145.875 199.252 146.475C198.752 147.055 198.462 147.895 198.382 148.995H204.142C204.162 148.895 204.172 148.805 204.172 148.725C204.172 148.625 204.172 148.535 204.172 148.455C204.172 147.495 203.902 146.775 203.362 146.295C202.822 145.815 202.172 145.575 201.412 145.575ZM217.987 147.645V158.175H214.537V142.965H217.807V144.975C218.747 144.155 219.617 143.565 220.417 143.205C221.217 142.845 222.037 142.665 222.877 142.665C224.737 142.665 226.007 143.485 226.687 145.125C227.687 144.245 228.617 143.615 229.477 143.235C230.337 142.855 231.207 142.665 232.087 142.665C233.487 142.665 234.557 143.135 235.297 144.075C236.037 144.995 236.407 146.295 236.407 147.975V158.175H232.957V148.395C232.957 146.715 232.317 145.875 231.037 145.875C230.537 145.875 229.987 145.995 229.387 146.235C228.787 146.475 228.057 146.945 227.197 147.645V158.175H223.747V148.395C223.747 146.715 223.107 145.875 221.827 145.875C221.327 145.875 220.777 145.995 220.177 146.235C219.577 146.475 218.847 146.945 217.987 147.645ZM255.513 157.305C254.473 157.725 253.493 158.025 252.573 158.205C251.653 158.385 250.783 158.475 249.963 158.475C247.703 158.475 245.993 157.835 244.833 156.555C243.673 155.275 243.093 153.575 243.093 151.455V149.655C243.093 148.235 243.353 147.005 243.873 145.965C244.393 144.925 245.133 144.115 246.093 143.535C247.053 142.955 248.183 142.665 249.483 142.665C250.543 142.665 251.533 142.885 252.453 143.325C253.393 143.745 254.153 144.415 254.733 145.335C255.333 146.235 255.633 147.395 255.633 148.815C255.633 149.235 255.603 149.685 255.543 150.165C255.483 150.625 255.383 151.115 255.243 151.635H246.423C246.463 152.875 246.773 153.805 247.353 154.425C247.933 155.045 248.863 155.355 250.143 155.355C250.823 155.355 251.523 155.275 252.243 155.115C252.983 154.955 253.743 154.715 254.523 154.395L255.513 157.305ZM249.483 145.575C248.563 145.575 247.843 145.875 247.323 146.475C246.823 147.055 246.533 147.895 246.453 148.995H252.213C252.233 148.895 252.243 148.805 252.243 148.725C252.243 148.625 252.243 148.535 252.243 148.455C252.243 147.495 251.973 146.775 251.433 146.295C250.893 145.815 250.243 145.575 249.483 145.575ZM270.047 145.875C269.547 145.875 268.977 145.995 268.337 146.235C267.697 146.475 266.937 146.945 266.057 147.645V158.175H262.607V142.965H265.877V145.005C266.817 144.185 267.707 143.595 268.547 143.235C269.387 142.855 270.237 142.665 271.097 142.665C272.557 142.665 273.667 143.135 274.427 144.075C275.187 144.995 275.567 146.295 275.567 147.975V158.175H272.117V148.395C272.117 146.715 271.427 145.875 270.047 145.875ZM292.277 157.665C291.757 157.905 291.157 158.095 290.477 158.235C289.797 158.395 289.107 158.475 288.407 158.475C287.247 158.475 286.317 158.235 285.617 157.755C284.917 157.275 284.407 156.605 284.087 155.745C283.787 154.885 283.637 153.905 283.637 152.805V145.965H281.177V142.965H283.637V139.005H287.087V142.965H291.827V145.965H287.087V152.805C287.087 153.725 287.257 154.365 287.597 154.725C287.957 155.065 288.467 155.235 289.127 155.235C289.447 155.235 289.787 155.205 290.147 155.145C290.527 155.065 290.947 154.935 291.407 154.755L292.277 157.665ZM38.3614 193.305C37.3214 193.725 36.3414 194.025 35.4214 194.205C34.5014 194.385 33.6314 194.475 32.8114 194.475C30.5514 194.475 28.8414 193.835 27.6814 192.555C26.5214 191.275 25.9414 189.575 25.9414 187.455V185.655C25.9414 184.235 26.2014 183.005 26.7214 181.965C27.2414 180.925 27.9814 180.115 28.9414 179.535C29.9014 178.955 31.0314 178.665 32.3314 178.665C33.3914 178.665 34.3814 178.885 35.3014 179.325C36.2414 179.745 37.0014 180.415 37.5814 181.335C38.1814 182.235 38.4814 183.395 38.4814 184.815C38.4814 185.235 38.4514 185.685 38.3914 186.165C38.3314 186.625 38.2314 187.115 38.0914 187.635H29.2714C29.3114 188.875 29.6214 189.805 30.2014 190.425C30.7814 191.045 31.7114 191.355 32.9914 191.355C33.6714 191.355 34.3714 191.275 35.0914 191.115C35.8314 190.955 36.5914 190.715 37.3714 190.395L38.3614 193.305ZM32.3314 181.575C31.4114 181.575 30.6914 181.875 30.1714 182.475C29.6714 183.055 29.3814 183.895 29.3014 184.995H35.0614C35.0814 184.895 35.0914 184.805 35.0914 184.725C35.0914 184.625 35.0914 184.535 35.0914 184.455C35.0914 183.495 34.8214 182.775 34.2814 182.295C33.7414 181.815 33.0914 181.575 32.3314 181.575ZM49.7159 191.475C50.4559 191.475 51.0659 191.355 51.5459 191.115C52.0259 190.855 52.2659 190.475 52.2659 189.975C52.2659 189.535 52.1059 189.195 51.7859 188.955C51.4859 188.695 50.9359 188.465 50.1359 188.265L48.4259 187.815C47.1059 187.475 46.1259 186.905 45.4859 186.105C44.8659 185.305 44.5559 184.355 44.5559 183.255C44.5559 181.955 45.0059 180.865 45.9059 179.985C46.8059 179.105 48.1959 178.665 50.0759 178.665C50.8359 178.665 51.6359 178.755 52.4759 178.935C53.3159 179.115 54.1959 179.405 55.1159 179.805L54.1259 182.745C53.2859 182.345 52.5259 182.065 51.8459 181.905C51.1659 181.745 50.5659 181.665 50.0459 181.665C48.6259 181.665 47.9159 182.145 47.9159 183.105C47.9159 183.485 48.0359 183.785 48.2759 184.005C48.5359 184.225 49.0059 184.425 49.6859 184.605L51.3959 185.055C52.8559 185.435 53.9159 186.015 54.5759 186.795C55.2559 187.575 55.5959 188.555 55.5959 189.735C55.5959 191.135 55.1159 192.275 54.1559 193.155C53.2159 194.035 51.7259 194.475 49.6859 194.475C47.9459 194.475 46.1159 194.075 44.1959 193.275L45.1259 190.425C46.0659 190.805 46.9159 191.075 47.6759 191.235C48.4359 191.395 49.1159 191.475 49.7159 191.475ZM71.2876 193.665C70.7676 193.905 70.1676 194.095 69.4876 194.235C68.8076 194.395 68.1176 194.475 67.4176 194.475C66.2576 194.475 65.3276 194.235 64.6276 193.755C63.9276 193.275 63.4176 192.605 63.0976 191.745C62.7976 190.885 62.6476 189.905 62.6476 188.805V181.965H60.1876V178.965H62.6476V175.005H66.0976V178.965H70.8376V181.965H66.0976V188.805C66.0976 189.725 66.2676 190.365 66.6076 190.725C66.9676 191.065 67.4776 191.235 68.1376 191.235C68.4576 191.235 68.7976 191.205 69.1576 191.145C69.5376 191.065 69.9576 190.935 70.4176 190.755L71.2876 193.665ZM94.6473 182.115C93.7073 182.115 92.8073 182.265 91.9473 182.565C91.1073 182.845 90.2973 183.305 89.5173 183.945V194.175H86.0673V178.965H89.3373V181.305C90.3573 180.345 91.2673 179.665 92.0673 179.265C92.8673 178.865 93.7273 178.665 94.6473 178.665V182.115ZM112.219 193.305C111.179 193.725 110.199 194.025 109.279 194.205C108.359 194.385 107.489 194.475 106.669 194.475C104.409 194.475 102.699 193.835 101.539 192.555C100.379 191.275 99.7988 189.575 99.7988 187.455V185.655C99.7988 184.235 100.059 183.005 100.579 181.965C101.099 180.925 101.839 180.115 102.799 179.535C103.759 178.955 104.889 178.665 106.189 178.665C107.249 178.665 108.239 178.885 109.159 179.325C110.099 179.745 110.859 180.415 111.439 181.335C112.039 182.235 112.339 183.395 112.339 184.815C112.339 185.235 112.309 185.685 112.249 186.165C112.189 186.625 112.089 187.115 111.949 187.635H103.129C103.169 188.875 103.479 189.805 104.059 190.425C104.639 191.045 105.569 191.355 106.849 191.355C107.529 191.355 108.229 191.275 108.949 191.115C109.689 190.955 110.449 190.715 111.229 190.395L112.219 193.305ZM106.189 181.575C105.269 181.575 104.549 181.875 104.029 182.475C103.529 183.055 103.239 183.895 103.159 184.995H108.919C108.939 184.895 108.949 184.805 108.949 184.725C108.949 184.625 108.949 184.535 108.949 184.455C108.949 183.495 108.679 182.775 108.139 182.295C107.599 181.815 106.949 181.575 106.189 181.575ZM107.749 176.805H104.719L107.599 171.825L110.839 173.205L107.749 176.805ZM121.953 185.685V187.455C121.953 188.735 122.183 189.695 122.643 190.335C123.103 190.975 123.843 191.295 124.863 191.295C125.363 191.295 125.923 191.235 126.543 191.115C127.183 190.975 127.873 190.765 128.613 190.485L129.603 193.395C128.703 193.755 127.853 194.025 127.053 194.205C126.253 194.385 125.463 194.475 124.683 194.475C122.683 194.475 121.153 193.835 120.093 192.555C119.033 191.275 118.503 189.575 118.503 187.455V185.685C118.503 183.545 119.033 181.845 120.093 180.585C121.153 179.305 122.683 178.665 124.683 178.665C125.443 178.665 126.213 178.755 126.993 178.935C127.773 179.115 128.593 179.375 129.453 179.715L128.463 182.685C127.023 182.125 125.823 181.845 124.863 181.845C123.843 181.845 123.103 182.165 122.643 182.805C122.183 183.425 121.953 184.385 121.953 185.685ZM148.211 185.655V187.455C148.211 189.575 147.631 191.275 146.471 192.555C145.311 193.835 143.671 194.475 141.551 194.475C139.431 194.475 137.791 193.835 136.631 192.555C135.471 191.275 134.891 189.575 134.891 187.455V185.655C134.891 183.535 135.461 181.845 136.601 180.585C137.761 179.305 139.411 178.665 141.551 178.665C143.691 178.665 145.331 179.305 146.471 180.585C147.631 181.845 148.211 183.535 148.211 185.655ZM144.671 185.655C144.671 184.435 144.401 183.485 143.861 182.805C143.321 182.105 142.551 181.755 141.551 181.755C140.551 181.755 139.781 182.105 139.241 182.805C138.701 183.485 138.431 184.435 138.431 185.655V187.455C138.431 188.675 138.701 189.635 139.241 190.335C139.781 191.035 140.551 191.385 141.551 191.385C142.551 191.385 143.321 191.035 143.861 190.335C144.401 189.635 144.671 188.675 144.671 187.455V185.655ZM158.529 183.645V194.175H155.079V178.965H158.349V180.975C159.289 180.155 160.159 179.565 160.959 179.205C161.759 178.845 162.579 178.665 163.419 178.665C165.279 178.665 166.549 179.485 167.229 181.125C168.229 180.245 169.159 179.615 170.019 179.235C170.879 178.855 171.749 178.665 172.629 178.665C174.029 178.665 175.099 179.135 175.839 180.075C176.579 180.995 176.949 182.295 176.949 183.975V194.175H173.499V184.395C173.499 182.715 172.859 181.875 171.579 181.875C171.079 181.875 170.529 181.995 169.929 182.235C169.329 182.475 168.599 182.945 167.739 183.645V194.175H164.289V184.395C164.289 182.715 163.649 181.875 162.369 181.875C161.869 181.875 161.319 181.995 160.719 182.235C160.119 182.475 159.389 182.945 158.529 183.645ZM191.015 194.475C190.515 194.475 190.005 194.425 189.485 194.325C188.985 194.225 188.475 194.085 187.955 193.905V200.565H184.505V178.965H187.775V181.035C188.715 180.095 189.515 179.465 190.175 179.145C190.835 178.825 191.525 178.665 192.245 178.665C193.905 178.665 195.185 179.285 196.085 180.525C196.985 181.765 197.435 183.505 197.435 185.745V187.365C197.435 189.545 196.885 191.275 195.785 192.555C194.685 193.835 193.095 194.475 191.015 194.475ZM191.315 181.875C190.855 181.875 190.365 182.015 189.845 182.295C189.345 182.555 188.715 183.065 187.955 183.825V190.785C188.935 191.185 189.835 191.385 190.655 191.385C191.815 191.385 192.645 191.025 193.145 190.305C193.645 189.585 193.895 188.605 193.895 187.365V185.745C193.895 184.405 193.665 183.425 193.205 182.805C192.765 182.185 192.135 181.875 191.315 181.875ZM215.988 193.305C214.948 193.725 213.968 194.025 213.048 194.205C212.128 194.385 211.258 194.475 210.438 194.475C208.178 194.475 206.468 193.835 205.308 192.555C204.148 191.275 203.568 189.575 203.568 187.455V185.655C203.568 184.235 203.828 183.005 204.348 181.965C204.868 180.925 205.608 180.115 206.568 179.535C207.528 178.955 208.658 178.665 209.958 178.665C211.018 178.665 212.008 178.885 212.928 179.325C213.868 179.745 214.628 180.415 215.208 181.335C215.808 182.235 216.108 183.395 216.108 184.815C216.108 185.235 216.078 185.685 216.018 186.165C215.958 186.625 215.858 187.115 215.718 187.635H206.898C206.938 188.875 207.248 189.805 207.828 190.425C208.408 191.045 209.338 191.355 210.618 191.355C211.298 191.355 211.998 191.275 212.718 191.115C213.458 190.955 214.218 190.715 214.998 190.395L215.988 193.305ZM209.958 181.575C209.038 181.575 208.318 181.875 207.798 182.475C207.298 183.055 207.008 183.895 206.928 184.995H212.688C212.708 184.895 212.718 184.805 212.718 184.725C212.718 184.625 212.718 184.535 212.718 184.455C212.718 183.495 212.448 182.775 211.908 182.295C211.368 181.815 210.718 181.575 209.958 181.575ZM230.523 181.875C230.023 181.875 229.453 181.995 228.813 182.235C228.173 182.475 227.413 182.945 226.533 183.645V194.175H223.083V178.965H226.353V181.005C227.293 180.185 228.183 179.595 229.023 179.235C229.863 178.855 230.713 178.665 231.573 178.665C233.033 178.665 234.143 179.135 234.903 180.075C235.663 180.995 236.043 182.295 236.043 183.975V194.175H232.593V184.395C232.593 182.715 231.903 181.875 230.523 181.875ZM247.862 191.475C248.602 191.475 249.212 191.355 249.692 191.115C250.172 190.855 250.412 190.475 250.412 189.975C250.412 189.535 250.252 189.195 249.932 188.955C249.632 188.695 249.082 188.465 248.282 188.265L246.572 187.815C245.252 187.475 244.272 186.905 243.632 186.105C243.012 185.305 242.702 184.355 242.702 183.255C242.702 181.955 243.152 180.865 244.052 179.985C244.952 179.105 246.342 178.665 248.222 178.665C248.982 178.665 249.782 178.755 250.622 178.935C251.462 179.115 252.342 179.405 253.262 179.805L252.272 182.745C251.432 182.345 250.672 182.065 249.992 181.905C249.312 181.745 248.712 181.665 248.192 181.665C246.772 181.665 246.062 182.145 246.062 183.105C246.062 183.485 246.182 183.785 246.422 184.005C246.682 184.225 247.152 184.425 247.832 184.605L249.542 185.055C251.002 185.435 252.062 186.015 252.722 186.795C253.402 187.575 253.742 188.555 253.742 189.735C253.742 191.135 253.262 192.275 252.302 193.155C251.362 194.035 249.872 194.475 247.832 194.475C246.092 194.475 244.262 194.075 242.342 193.275L243.272 190.425C244.212 190.805 245.062 191.075 245.822 191.235C246.582 191.395 247.262 191.475 247.862 191.475ZM271.834 193.305C270.794 193.725 269.814 194.025 268.894 194.205C267.974 194.385 267.104 194.475 266.284 194.475C264.024 194.475 262.314 193.835 261.154 192.555C259.994 191.275 259.414 189.575 259.414 187.455V185.655C259.414 184.235 259.674 183.005 260.194 181.965C260.714 180.925 261.454 180.115 262.414 179.535C263.374 178.955 264.504 178.665 265.804 178.665C266.864 178.665 267.854 178.885 268.774 179.325C269.714 179.745 270.474 180.415 271.054 181.335C271.654 182.235 271.954 183.395 271.954 184.815C271.954 185.235 271.924 185.685 271.864 186.165C271.804 186.625 271.704 187.115 271.564 187.635H262.744C262.784 188.875 263.094 189.805 263.674 190.425C264.254 191.045 265.184 191.355 266.464 191.355C267.144 191.355 267.844 191.275 268.564 191.115C269.304 190.955 270.064 190.715 270.844 190.395L271.834 193.305ZM265.804 181.575C264.884 181.575 264.164 181.875 263.644 182.475C263.144 183.055 262.854 183.895 262.774 184.995H268.534C268.554 184.895 268.564 184.805 268.564 184.725C268.564 184.625 268.564 184.535 268.564 184.455C268.564 183.495 268.294 182.775 267.754 182.295C267.214 181.815 266.564 181.575 265.804 181.575ZM267.364 176.805H264.334L267.214 171.825L270.454 173.205L267.364 176.805Z" fill="#6A18A4"/>
<g clip-path="url(#clip0_5147_8091)">
<path d="M82.6269 42.8729C83.7105 46.5952 82.8696 49.5038 81.1828 52.8352C80.5678 53.9464 79.7636 54.8525 78.8781 55.7583C78.7446 55.896 78.6111 56.0338 78.4736 56.1757C78.1999 56.45 77.9183 56.7164 77.6341 56.9798C79.3241 56.9001 81.0115 56.8009 82.6987 56.6738C82.8386 56.6633 82.9785 56.6529 83.1227 56.6421C83.8324 56.5891 84.5421 56.5348 85.2516 56.4789C85.5152 56.459 85.7788 56.4392 86.0504 56.4187C86.2874 56.4003 86.5244 56.3818 86.7686 56.3628C88.0757 56.3201 89.247 56.7565 90.2555 57.5924C91.8493 59.253 91.9114 61.4677 92.0426 63.6581C92.0681 64.0831 92.0968 64.5078 92.1261 64.9325C92.2681 67.0779 92.2906 68.5895 91.1566 70.4789C89.8408 71.9485 88.1258 72.186 86.2496 72.3161C85.9319 72.3404 85.9319 72.3404 85.6079 72.3652C84.89 72.4192 84.1719 72.4698 83.4537 72.5196C83.1914 72.538 82.9292 72.5563 82.6589 72.5752C81.5298 72.6539 80.4007 72.7315 79.2714 72.8075C77.228 72.9449 75.1855 73.0915 73.1433 73.2466C71.3579 73.3821 69.5723 73.5163 67.7867 73.6498C67.3889 73.6796 67.3889 73.6796 66.9831 73.71C66.3387 73.7582 65.6944 73.8063 65.0501 73.8545C65.2249 73.9363 65.3998 74.018 65.58 74.1023C69.8366 76.0924 74.0911 78.0868 78.3436 80.0856C80.4002 81.0521 82.4573 82.0173 84.516 82.9792C86.3105 83.8177 88.1038 84.6587 89.8957 85.5029C90.8443 85.9497 91.7936 86.3952 92.7443 86.8376C93.6396 87.2543 94.5332 87.6744 95.4257 88.0972C95.753 88.2515 96.081 88.4046 96.4096 88.5564C96.8593 88.7643 97.3067 88.9766 97.7538 89.1902C97.8833 89.2487 98.0128 89.3073 98.1462 89.3676C99.2519 89.9059 100.067 90.7394 100.509 91.8909C100.527 92.0271 100.545 92.1632 100.564 92.3034C100.585 92.4411 100.607 92.5788 100.629 92.7206C100.663 93.6598 100.312 94.3872 99.923 95.2307C99.8353 95.4216 99.8353 95.4216 99.7459 95.6164C99.5499 96.0428 99.3525 96.4685 99.1551 96.8943C99.0142 97.1999 98.8734 97.5056 98.7326 97.8113C98.2699 98.8152 97.8053 99.8181 97.3406 100.821C97.1805 101.167 97.0204 101.512 96.8604 101.858C96.1082 103.483 95.3552 105.107 94.601 106.731C93.7315 108.603 92.8651 110.476 92.0013 112.351C91.3328 113.801 90.6615 115.25 89.988 116.698C89.5862 117.563 89.1855 118.427 88.7879 119.294C88.4134 120.109 88.0354 120.923 87.6547 121.736C87.5161 122.033 87.3787 122.331 87.2427 122.63C86.3564 124.574 85.4858 126.009 83.6365 127.147C82.0882 127.672 80.6012 127.716 79.1114 127.025C78.9424 126.947 78.7735 126.869 78.5994 126.789C78.3226 126.66 78.3226 126.66 78.0403 126.528C77.745 126.392 77.745 126.392 77.4437 126.252C76.7819 125.946 76.1208 125.639 75.4596 125.331C74.9861 125.112 74.5126 124.893 74.0391 124.673C72.751 124.076 71.4636 123.478 70.1763 122.88C69.3722 122.506 68.5681 122.133 67.7639 121.759C65.5366 120.725 63.3094 119.69 61.0829 118.654C60.9404 118.588 60.7979 118.522 60.6511 118.454C60.5083 118.387 60.3655 118.321 60.2183 118.252C59.9289 118.118 59.6395 117.983 59.3501 117.848C59.2066 117.781 59.063 117.715 58.9151 117.646C56.5899 116.564 54.2635 115.485 51.9366 114.407C49.5468 113.299 47.1578 112.19 44.7699 111.078C43.4295 110.454 42.0887 109.831 40.7469 109.21C39.4844 108.626 38.2233 108.04 36.9631 107.451C36.5006 107.235 36.0376 107.021 35.5742 106.807C34.9411 106.515 34.3096 106.22 33.6784 105.924C33.4036 105.799 33.4036 105.799 33.1233 105.671C31.4087 104.858 30.2634 103.877 29.554 102.098C29.109 100.666 29.2284 99.4839 29.8555 98.1406C29.9939 97.8424 29.9939 97.8424 30.1351 97.5381C30.2876 97.2131 30.2876 97.2131 30.4433 96.8814C30.55 96.6522 30.6567 96.4229 30.7667 96.1867C31.0591 95.5588 31.3524 94.9314 31.646 94.3041C31.9529 93.6482 32.2586 92.9918 32.5645 92.3354C33.1438 91.0929 33.7239 89.8508 34.3044 88.6089C34.9654 87.1948 35.6252 85.7803 36.285 84.3657C37.6421 81.4562 39.0005 78.5472 40.3598 75.6387C39.5201 75.698 38.6805 75.7575 37.8409 75.8172C37.5567 75.8373 37.2726 75.8574 36.9885 75.8775C34.3791 76.0618 31.7719 76.2691 29.1652 76.4882C27.7715 76.5582 26.3181 75.8758 25.2608 74.99C23.898 73.4022 23.9089 71.2877 23.8133 69.2989C23.7999 69.0572 23.7865 68.8155 23.7727 68.5665C23.7473 68.0965 23.7238 67.6264 23.7025 67.1561C23.6843 66.7646 23.6631 66.3733 23.6366 65.9822C23.5468 64.4182 24.0471 63.1074 25.0708 61.9017C26.7122 60.4688 29.005 60.5273 31.0626 60.4069C31.6024 60.3728 32.1421 60.3384 32.6819 60.3036C32.9439 60.287 33.206 60.2703 33.476 60.2532C34.6833 60.1687 35.8874 60.0552 37.0918 59.9364C36.546 59.46 35.9998 58.9885 35.4382 58.5307C33.2177 56.6944 31.6149 54.7266 30.6624 51.9907C30.604 51.8394 30.5457 51.688 30.4855 51.5321C29.5023 48.6562 30.3975 46.0389 31.6496 43.4538C32.8246 41.1592 35.047 39.4679 37.4947 38.6709C40.4737 38.0053 43.0793 38.2814 45.8306 39.5971C46.1212 39.7352 46.1212 39.7352 46.4177 39.8761C47.9936 40.6517 49.2467 41.5103 50.4892 42.765C50.5924 42.8674 50.6957 42.9698 50.8021 43.0754C52.6417 44.9155 54.1315 46.9335 55.4382 49.1825C55.7435 49.7688 55.7435 49.7688 56.287 49.9523C56.8691 49.9872 57.2529 49.9659 57.8054 49.773C58.1415 49.2952 58.1415 49.2952 58.3783 48.6805C58.4774 48.4537 58.5765 48.227 58.6786 47.9934C58.833 47.6294 58.833 47.6294 58.9905 47.258C60.574 43.702 62.6328 40.086 66.1533 38.1288C66.6956 37.931 66.6956 37.931 67.4501 38.1839C68.06 38.4884 68.1557 38.577 68.4549 39.2285C68.4901 40.0072 68.3528 40.3271 67.968 40.9995C67.4886 41.4454 67.4886 41.4454 66.9255 41.8787C64.8727 43.5532 63.4845 45.6939 62.4029 48.0871C62.304 48.3027 62.304 48.3027 62.2032 48.5226C62.043 48.8721 61.8841 49.2222 61.7254 49.5724C61.9702 49.575 62.215 49.5776 62.4673 49.5802C63.5992 49.6602 64.5073 50.1312 65.4985 50.654C65.5894 50.5353 65.6804 50.4166 65.7741 50.2943C67.241 48.4265 68.8354 46.607 71.0168 45.5703C71.6755 45.5519 72.0226 45.7287 72.5828 46.0744C72.9316 46.7151 72.9316 46.7151 73.077 47.43C72.754 48.4252 72.1605 48.937 71.3561 49.5548C70.1142 50.5545 68.9119 51.6157 68.0276 52.957C67.9595 53.4129 67.9595 53.4129 68.053 53.8692C68.0883 54.1289 68.0883 54.1289 68.1244 54.3939C68.154 54.5752 68.1837 54.7564 68.2142 54.9431C68.5594 57.1324 68.5594 57.1324 68.3398 57.6042C71.2352 57.7823 73.5396 55.8211 75.6345 54.0229C77.7269 52.1606 79.3755 49.7299 79.7149 46.8911C79.7632 44.8499 79.234 43.1267 77.8558 41.6081C76.3974 40.2192 74.7378 39.6314 72.7619 39.4051C72.019 39.138 71.5792 38.9792 71.1507 38.3032C71.0397 37.4816 71.2143 37.1067 71.6746 36.4228C72.8331 35.7337 73.8854 35.9545 75.1384 36.2349C75.3495 36.2806 75.3495 36.2806 75.565 36.3271C78.7993 37.2244 81.4725 39.7643 82.6269 42.8729ZM86.5649 59.7269C86.3972 59.7352 86.2294 59.7434 86.0566 59.7519C85.8731 59.7626 85.6897 59.7734 85.5006 59.7844C85.3066 59.7948 85.1125 59.8053 84.9125 59.816C83.2088 59.9122 81.5084 60.0453 79.8077 60.1844C77.0779 60.4069 74.3454 60.5868 71.6128 60.7706C70.6746 60.8344 69.7367 60.901 68.7988 60.9692C68.6663 61.902 68.6591 62.7616 68.7281 63.7006C68.7377 63.8349 68.7474 63.9691 68.7573 64.1075C68.7778 64.3897 68.7989 64.6719 68.8206 64.9541C68.8533 65.382 68.8842 65.81 68.9147 66.238C69.0075 67.4995 69.1204 68.7438 69.3243 69.9924C70.2001 70.1136 71.0051 70.1391 71.8859 70.071C72.1331 70.0526 72.3804 70.0342 72.6351 70.0152C72.8997 69.9943 73.1644 69.9734 73.437 69.9518C73.7163 69.9306 73.9957 69.9095 74.275 69.8885C74.8562 69.8448 75.4374 69.8005 76.0186 69.756C76.8617 69.6918 77.705 69.6319 78.5484 69.5735C80.951 69.407 83.3532 69.2363 85.7529 69.0321C85.9347 69.0173 86.1165 69.0025 86.3039 68.9873C86.47 68.9726 86.6362 68.9579 86.8074 68.9427C86.95 68.9305 87.0927 68.9182 87.2397 68.9055C87.7039 68.8327 88.0399 68.7728 88.4552 68.5459C89.0111 67.6819 89.0164 67.0005 88.9446 65.9935C88.9353 65.8583 88.926 65.7231 88.9164 65.5839C88.896 65.2993 88.8742 65.0149 88.851 64.7306C88.8161 64.2982 88.7871 63.8656 88.7587 63.4327C88.7381 63.1551 88.7172 62.8775 88.6959 62.5999C88.6673 62.2246 88.6673 62.2246 88.6381 61.8417C88.5169 61.1142 88.3279 60.6057 87.9424 59.9788C87.3731 59.7137 87.1702 59.6955 86.5649 59.7269ZM37.9091 42.1092C35.7972 42.9702 34.712 44.4545 33.8298 46.493C33.0142 48.658 33.5297 50.5196 34.4521 52.5815C36.2844 55.9473 40.1819 58.1194 43.6873 59.3355C44.7161 59.6212 45.342 59.6071 46.3861 59.312C46.3709 59.0768 46.3556 58.8416 46.3399 58.5993C46.3209 58.2863 46.3019 57.9732 46.283 57.6602C46.2728 57.5057 46.2626 57.3513 46.2521 57.1921C46.2098 56.4722 46.195 55.8663 46.3232 55.151C46.408 54.5441 46.408 54.5441 45.9827 54.0921C45.802 53.9462 45.6213 53.8003 45.4351 53.6499C45.2321 53.4851 45.0291 53.3204 44.82 53.1507C43.8856 52.4456 42.9056 51.8017 41.9139 51.1806C41.7792 51.0943 41.6446 51.008 41.5058 50.9191C41.3852 50.8439 41.2647 50.7688 41.1404 50.6913C40.769 50.3629 40.6676 50.092 40.5469 49.6153C40.6336 49.2196 40.6336 49.2196 40.8105 48.8377C40.8656 48.7101 40.9206 48.5826 40.9773 48.4511C41.236 48.1355 41.236 48.1355 41.6912 47.9527C43.5684 47.8572 45.7016 50.0138 47.104 51.1288C47.6859 51.6135 47.6859 51.6135 48.2781 51.8646C48.6273 51.6715 48.6273 51.6715 48.9835 51.377C49.9546 50.6973 50.9124 50.581 52.0738 50.4806C51.1939 47.3662 47.8915 44.4468 45.2239 42.8035C42.8545 41.5673 40.4601 41.2836 37.9091 42.1092ZM60.9239 52.9554C60.7587 52.9671 60.5936 52.9788 60.4234 52.9908C60.0576 53.0174 59.6919 53.0458 59.3264 53.0759C58.6665 53.1297 58.0064 53.177 57.3461 53.2239C56.8723 53.2586 56.3985 53.2935 55.9247 53.3288C55.7021 53.3453 55.4795 53.3619 55.2502 53.3789C52.3583 53.4356 52.3583 53.4356 49.9078 54.6492C49.3231 55.6656 49.2526 56.3689 49.3547 57.5289C49.3764 57.7963 49.3981 58.0638 49.4205 58.3394C49.4401 58.5415 49.4598 58.7436 49.48 58.9518C50.2724 59.1864 50.9223 59.204 51.744 59.139C51.9923 59.1202 52.2406 59.1015 52.4964 59.0822C52.8965 59.0496 52.8965 59.0496 53.3046 59.0163C53.5833 58.9947 53.862 58.9733 54.1407 58.952C54.5751 58.9188 55.0095 58.8854 55.4438 58.8513C56.4701 58.7709 57.4967 58.6964 58.5238 58.6258C58.6648 58.616 58.8057 58.6062 58.951 58.5962C59.6272 58.5494 60.3034 58.5029 60.9796 58.4568C62.3183 58.3628 63.6447 58.2427 64.9748 58.0632C65.2305 56.695 65.0935 55.286 64.5252 54.0132C63.4658 52.9678 62.3494 52.8282 60.9239 52.9554ZM63.8575 61.322C63.6048 61.3406 63.3522 61.3592 63.0919 61.3783C62.8152 61.3997 62.5385 61.4211 62.2618 61.4425C61.9784 61.4637 61.6949 61.4849 61.4114 61.5059C60.8249 61.5497 60.2385 61.594 59.652 61.6387C58.8222 61.7019 57.9923 61.763 57.1623 61.8236C56.6567 61.8607 56.1511 61.8979 55.6455 61.9351C55.4158 61.952 55.1861 61.9688 54.9495 61.9861C54.2818 62.036 53.6142 62.0882 52.9468 62.1416C52.6884 62.1617 52.43 62.1819 52.1638 62.2026C51.9082 62.224 51.6525 62.2454 51.389 62.2674C51.0388 62.2961 51.0388 62.2961 50.6815 62.3253C50.1221 62.3551 50.1221 62.3551 49.7668 62.6868C49.7583 63.3376 49.7583 63.3376 49.8277 64.1158C49.8381 64.2601 49.8485 64.4044 49.8592 64.553C49.893 65.0171 49.9295 65.481 49.966 65.9449C49.9888 66.2507 50.0114 66.5565 50.0339 66.8623C50.0774 67.4513 50.1218 68.0402 50.1673 68.629C50.2413 69.5941 50.3108 70.5594 50.3784 71.525C52.3498 71.506 54.3015 71.3655 56.2656 71.2036C57.5735 71.0961 58.8814 70.9958 60.1908 70.9079C60.3326 70.8983 60.4744 70.8886 60.6206 70.8787C61.3143 70.8316 62.008 70.7855 62.7018 70.7411C63.08 70.7154 63.08 70.7154 63.4658 70.6892C63.6883 70.6747 63.9108 70.6602 64.1401 70.6453C64.796 70.5735 65.4086 70.4364 66.0455 70.2664C66.001 69.4613 65.9559 68.6563 65.9101 67.8514C65.8873 67.4467 65.865 67.042 65.8426 66.6373C65.7668 65.3076 65.682 63.9789 65.5756 62.6513C65.5574 62.42 65.5392 62.1888 65.5204 61.9505C65.4918 61.7781 65.4632 61.6058 65.4338 61.4282C64.8928 61.1763 64.4514 61.2771 63.8575 61.322ZM45.2133 62.6636C44.9001 62.6897 44.9001 62.6897 44.5806 62.7162C44.3516 62.7361 44.1226 62.7561 43.8867 62.7766C43.3932 62.8176 42.8997 62.8583 42.4062 62.8988C42.1472 62.9202 41.8882 62.9416 41.6213 62.9636C40.3293 63.0676 39.0364 63.1591 37.7434 63.2503C37.485 63.2688 37.2266 63.2873 36.9604 63.3063C35.7137 63.3951 34.4669 63.4821 33.2199 63.5648C32.639 63.6034 32.0581 63.6429 31.4773 63.6825C31.0662 63.7101 30.6549 63.7365 30.2437 63.7628C29.995 63.7798 29.7463 63.7968 29.4901 63.8143C29.271 63.8287 29.0519 63.8431 28.8262 63.858C28.3067 63.9198 27.9109 63.9919 27.4432 64.2223C26.615 65.4002 26.8425 66.5625 26.9933 67.9379C27.0239 68.257 27.0239 68.257 27.055 68.5825C27.096 69.0022 27.1404 69.4217 27.1883 69.8407C27.2287 70.2227 27.2594 70.6059 27.2778 70.9896C27.3301 71.8203 27.3804 72.2221 27.9346 72.8656C29.1155 73.2818 30.2093 73.139 31.4433 73.0345C31.7111 73.0152 31.9789 72.996 32.2548 72.9762C33.0741 72.9171 33.8927 72.8505 34.7114 72.7836C35.1682 72.7484 35.6249 72.7134 36.0818 72.6787C36.95 72.6119 37.818 72.5424 38.686 72.4712C40.5717 72.3184 42.4592 72.1889 44.3466 72.0586C44.727 72.032 44.727 72.032 45.1151 72.0049C45.3405 71.9893 45.5658 71.9738 45.798 71.9578C46.2336 71.922 46.6676 71.8653 47.0996 71.799C47.1606 70.973 47.1455 70.1726 47.0978 69.346C47.0829 69.0867 47.068 68.8275 47.0526 68.5604C47.0405 68.3592 47.0405 68.3592 47.0281 68.1539C47.0039 67.749 46.981 67.344 46.9581 66.939C46.8398 64.8496 46.8398 64.8496 46.574 62.7758C46.0815 62.5465 45.7551 62.6169 45.2133 62.6636ZM52.7915 74.4796C51.6106 74.654 50.4219 74.7206 49.2317 74.8035C48.8084 74.8378 48.3851 74.8725 47.9619 74.9078C47.1016 74.9775 46.2413 75.0377 45.3799 75.0917C45.0413 75.113 45.0413 75.113 44.6958 75.1348C44.5259 75.1454 44.356 75.156 44.1809 75.1669C42.6677 78.3717 41.1587 81.5784 39.6548 84.7874C38.9563 86.2775 38.2566 87.7668 37.5535 89.2547C36.9406 90.5516 36.3304 91.8497 35.7233 93.1493C35.4018 93.8373 35.079 94.5246 34.7531 95.2106C34.3891 95.9766 34.031 96.7453 33.6733 97.5144C33.5646 97.7409 33.4559 97.9675 33.3439 98.2009C32.6201 99.7653 32.6201 99.7653 32.8623 101.409C33.2818 102.236 34.1309 102.51 34.9378 102.877C35.168 102.984 35.168 102.984 35.4028 103.094C35.9094 103.329 36.4172 103.562 36.925 103.795C37.2768 103.958 37.6285 104.121 37.9802 104.285C38.9053 104.714 39.8315 105.14 40.7579 105.567C41.7033 106.002 42.6477 106.44 43.5922 106.878C45.4451 107.735 47.2991 108.591 49.1538 109.445C49.2365 109.268 49.3193 109.091 49.4046 108.908C50.1846 107.241 50.9694 105.576 51.759 103.914C52.1648 103.059 52.5688 102.203 52.9691 101.346C53.3552 100.518 53.7458 99.6932 54.1395 98.8695C54.289 98.5546 54.437 98.2389 54.5833 97.9225C54.7883 97.4799 54.9988 97.0404 55.2108 96.6012C55.2703 96.4692 55.3298 96.3373 55.3911 96.2013C55.5698 95.8398 55.5698 95.8398 55.9709 95.2874C56.7406 95.0787 57.0225 95.0921 57.7277 95.4723C58.178 95.8649 58.178 95.8649 58.3757 96.4071C58.3082 97.1914 57.9584 97.8639 57.6379 98.5745C57.5783 98.7072 57.5188 98.8398 57.4574 98.9765C57.261 99.4136 57.0633 99.8502 56.8657 100.287C56.729 100.59 56.5924 100.894 56.4559 101.197C56.0968 101.995 55.7366 102.792 55.3763 103.59C54.9439 104.547 54.5128 105.505 54.0815 106.463C53.4265 107.917 52.7699 109.37 52.1135 110.823C55.471 112.387 58.8285 113.95 62.2877 115.561C67.2334 104.939 72.1792 94.3168 77.2747 83.3731C73.9172 81.8098 70.5598 80.2465 67.1005 78.6358C66.4789 79.9354 66.4789 79.9354 65.8447 81.2612C65.581 81.8104 65.3173 82.3594 65.0531 82.9084C64.6341 83.7792 64.2154 84.6503 63.799 85.5225C63.4633 86.2258 63.1257 86.9282 62.787 87.6301C62.6582 87.8978 62.5301 88.1657 62.4025 88.434C62.2235 88.8103 62.0423 89.1854 61.8605 89.5604C61.758 89.7741 61.6555 89.9878 61.5499 90.208C61.227 90.7653 60.9421 91.1229 60.4302 91.5114C59.703 91.6229 59.703 91.6229 59.0655 91.2698C58.4942 90.835 58.4942 90.835 58.2965 90.2928C58.4946 89.7327 58.4946 89.7327 58.8105 89.0347C58.8675 88.9074 58.9245 88.7802 58.9832 88.6491C59.1723 88.2281 59.3639 87.8083 59.5556 87.3884C59.6871 87.097 59.8184 86.8055 59.9496 86.514C60.2955 85.7462 60.6436 84.9795 60.9921 84.213C61.3473 83.4308 61.7004 82.6478 62.0537 81.8648C62.7473 80.3282 63.4433 78.7926 64.1408 77.2577C63.2742 76.8221 62.4044 76.3941 61.531 75.9722C61.2355 75.8283 60.9409 75.6824 60.6474 75.5345C57.9321 74.1694 55.8137 73.9961 52.7915 74.4796ZM80.2345 84.7512C75.2888 95.373 70.3431 105.995 65.2475 116.939C73.4316 122.15 73.4316 122.15 82.1546 124.136C83.0529 123.573 83.4469 122.991 83.8883 122.04C83.9466 121.916 84.0048 121.793 84.0648 121.666C84.2582 121.254 84.4476 120.84 84.637 120.427C84.7753 120.13 84.9138 119.834 85.0525 119.537C85.4277 118.734 85.7994 117.929 86.1704 117.124C86.5592 116.282 86.951 115.441 87.3424 114.6C87.9989 113.188 88.6532 111.776 89.3062 110.362C90.1451 108.547 90.9874 106.733 91.8309 104.919C92.5555 103.361 93.2785 101.802 94.0013 100.243C94.234 99.7412 94.467 99.2395 94.6999 98.7378C95.0652 97.9509 95.4295 97.1635 95.7931 96.3757C95.9269 96.0861 96.061 95.7967 96.1955 95.5074C96.3784 95.1138 96.5602 94.7196 96.7416 94.3253C96.8949 93.994 96.8949 93.994 97.0512 93.6561C97.2973 93.1555 97.2973 93.1555 97.2532 92.6753C91.637 90.0604 86.0208 87.4454 80.2345 84.7512Z" fill="#6A18A4"/>
<path d="M121.769 74.8287C122.252 76.2078 122.312 77.6334 122.386 79.0844C122.468 80.053 122.573 80.6777 123.289 81.3661C123.545 81.5744 123.805 81.7779 124.068 81.9766C124.321 82.187 124.574 82.398 124.826 82.6098C125.206 82.9227 125.586 83.2341 125.971 83.5416C126.687 84.1364 127.186 84.5794 127.363 85.5364C127.241 86.3216 126.871 86.9782 126.245 87.4708C125.523 87.8684 124.803 88.1595 124.021 88.4197C122.79 88.8584 121.762 89.2304 121.141 90.4449C120.815 91.2132 120.556 92.0006 120.314 92.7992C119.975 93.8855 119.581 94.9365 118.74 95.7162C118.188 95.95 117.93 96.0522 117.337 95.9494C115.958 95.2076 115.059 94.1667 114.04 92.9977C113.157 92.0174 112.607 91.5951 111.255 91.511C110.494 91.4764 109.733 91.4561 108.972 91.4451C107.711 91.4006 106.918 91.2691 105.954 90.4242C105.592 89.6404 105.6 89.2924 105.867 88.4713C105.986 88.2339 106.105 87.9966 106.228 87.752C106.29 87.6231 106.352 87.4942 106.416 87.3614C106.728 86.7249 107.06 86.1384 107.451 85.5447C108.23 84.3683 108.23 84.3683 108.363 83.0002C108.177 82.276 107.949 81.5845 107.696 80.8813C106.863 78.1353 106.863 78.1353 107.582 76.7763C107.998 76.3368 107.998 76.3368 108.567 76.1098C109.52 76.1332 110.352 76.2391 111.266 76.5053C113.33 77.1263 113.33 77.1263 115.359 76.6607C116.057 76.2273 116.699 75.7293 117.333 75.2075C117.765 74.8625 118.221 74.5925 118.708 74.3321C118.836 74.2619 118.963 74.1918 119.094 74.1195C120.102 73.7387 121.049 74.0403 121.769 74.8287ZM118.85 78.1966C118.617 78.3515 118.389 78.5153 118.163 78.6822C115.458 80.6005 115.458 80.6005 113.861 80.3613C113.439 80.2562 113.018 80.1414 112.602 80.0141C112.27 79.9493 111.937 79.8875 111.604 79.8308C111.388 79.786 111.172 79.7412 110.95 79.695C110.975 79.816 111.001 79.937 111.027 80.0616C111.101 80.4148 111.174 80.7683 111.246 81.1221C111.325 81.4842 111.414 81.8444 111.516 82.2008C112.022 84.0698 111.328 85.2718 110.42 86.9047C110.219 87.2517 110.016 87.5982 109.81 87.943C110.512 88.1369 111.129 88.2061 111.855 88.2055C113.662 88.3018 114.839 88.9538 116.049 90.2853C116.193 90.4565 116.336 90.6277 116.484 90.8041C116.802 91.2292 116.802 91.2292 117.21 91.3883C117.255 91.2822 117.299 91.1761 117.345 91.0667C117.553 90.5791 117.768 90.0944 117.982 89.6094C118.087 89.359 118.087 89.359 118.195 89.1035C118.926 87.4706 119.902 86.6629 121.568 86.0175C122.33 85.7803 122.33 85.7803 122.789 85.2075C122.585 85.0445 122.382 84.8816 122.172 84.7137C121.905 84.4941 121.637 84.2744 121.37 84.0546C121.236 83.9479 121.102 83.8411 120.964 83.7312C119.733 82.709 119.397 81.7621 119.233 80.1619C119.221 80.0261 119.209 79.8902 119.196 79.7503C119.149 79.2596 119.096 78.772 119.035 78.2827C118.974 78.2543 118.913 78.2259 118.85 78.1966Z" fill="#6A18A4"/>
<path d="M109.292 30.0787C109.787 31.143 109.928 32.2083 110.057 33.3609C110.088 33.6114 110.088 33.6114 110.12 33.8668C110.202 34.5646 110.266 35.1832 110.192 35.8848C110.144 36.3722 110.144 36.3722 110.514 36.6764C110.665 36.7676 110.817 36.8588 110.973 36.9528C111.804 37.4927 112.589 38.0666 113.355 38.6951C113.658 38.9398 113.658 38.9398 113.967 39.1894C114.517 39.7282 114.803 40.1537 115.071 40.8725C114.966 41.7102 114.862 42.1733 114.232 42.7388C113.469 43.2314 112.685 43.5908 111.834 43.9026C110.103 44.5193 110.103 44.5193 108.838 45.7746C108.565 46.5103 108.356 47.2471 108.149 48.0037C107.946 48.5568 107.715 49.0937 107.475 49.6315C107.373 49.8747 107.271 50.1178 107.166 50.3683C106.771 50.9635 106.771 50.9635 106.153 51.3423C105.298 51.4761 104.911 51.3871 104.161 50.9858C103.548 50.5334 103.142 49.9707 102.688 49.3644C101.699 48.0693 100.856 47.0822 99.1821 46.8463C98.3081 46.7847 97.448 46.798 96.5729 46.8263C95.506 46.8512 94.6275 46.6847 93.761 46.0314C93.3554 45.2678 93.2378 44.8841 93.4792 44.059C93.8523 43.2205 94.3027 42.4492 94.8026 41.6813C95.886 40.0316 95.886 40.0316 96.0501 38.1315C95.8405 37.285 95.5284 36.4847 95.2067 35.6751C94.8045 34.4072 94.6802 33.5851 95.2443 32.3559C95.7382 31.8222 96.2047 31.5918 96.9166 31.5193C97.5436 31.6253 98.1458 31.785 98.7605 31.9474C101.176 32.5877 101.176 32.5877 103.507 31.9492C104.349 31.3957 105.101 30.752 105.865 30.0975C107.067 29.2108 108.096 29.2724 109.292 30.0787ZM106.472 33.7177C106.124 33.9667 105.776 34.216 105.429 34.4672C103.281 35.9894 103.281 35.9894 101.985 35.8627C101.609 35.7869 101.236 35.7022 100.865 35.6086C100.464 35.5499 100.064 35.4943 99.6621 35.4425C99.3602 35.3964 99.0583 35.35 98.7567 35.3023C98.9041 36.3938 99.1359 37.4478 99.4009 38.5169C99.5595 39.333 99.368 39.8493 99.0233 40.578C98.9419 40.7512 98.8606 40.9244 98.7767 41.1028C98.6911 41.2827 98.6054 41.4626 98.5172 41.648C98.4312 41.8304 98.3453 42.0128 98.2567 42.2007C98.0444 42.6509 97.8313 43.1008 97.6174 43.5503C97.8634 43.5647 98.1094 43.5791 98.3628 43.594C100.843 43.7661 102.116 44.0278 103.822 45.9048C103.969 46.0781 104.115 46.2514 104.266 46.4299C104.392 46.5597 104.517 46.6895 104.647 46.8233C104.797 46.8191 104.948 46.8149 105.103 46.8106C105.184 46.5904 105.265 46.3702 105.349 46.1433C105.459 45.8506 105.571 45.5579 105.682 45.2653C105.735 45.1206 105.787 44.9759 105.842 44.8268C106.308 43.6126 106.833 42.7438 108.009 42.0979C108.237 42.0007 108.466 41.9035 108.701 41.8033C109.746 41.3942 109.746 41.3942 110.312 40.4575C110.108 40.3019 109.903 40.1464 109.693 39.9862C107.262 38.0733 107.262 38.0733 107.042 36.9655C107.017 36.6393 107.001 36.3125 106.992 35.9855C106.936 35.5814 106.875 35.178 106.81 34.7752C106.772 34.5 106.772 34.5 106.734 34.2193C106.709 34.0822 106.683 33.9451 106.657 33.8038C106.596 33.7754 106.535 33.747 106.472 33.7177Z" fill="#6A18A4"/>
<path d="M135.033 41.0521C136.056 43.0233 136.419 44.9703 135.786 47.1416C134.92 49.4261 133.681 51.0402 131.451 52.1009C129.452 52.8969 127.583 53.0957 125.549 52.3244C123.109 51.2359 121.74 49.7274 120.698 47.2771C119.978 45.1611 120.487 43.0999 121.418 41.1558C122.509 39.1799 124.241 38.0249 126.341 37.3027C129.708 36.5059 133.278 38.1052 135.033 41.0521ZM126.2 40.888C124.992 41.5288 124.226 42.523 123.826 43.8235C123.521 45.1485 123.75 46.2646 124.384 47.4596C125.169 48.5566 126.193 49.1876 127.499 49.4878C128.816 49.6666 130.012 49.3429 131.093 48.5684C132.086 47.6681 132.628 46.6161 132.808 45.2904C132.856 43.9749 132.419 42.7751 131.535 41.7998C129.975 40.3854 128.14 40.088 126.2 40.888Z" fill="#6A18A4"/>
<path d="M109.405 54.9746C110.034 55.2933 110.392 55.4997 110.777 56.1067C111.456 61.1339 105.025 69.9231 102.189 73.6684C100.15 76.2854 96.7758 80.4819 93.2455 80.973C92.5553 80.9054 92.1433 80.5649 91.6087 80.1432C91.3418 79.7798 91.3418 79.7798 91.3121 79.3298C91.5337 78.4315 91.7323 78.0258 92.5132 77.5151C92.9344 77.2916 93.3571 77.0709 93.781 76.8524C97.1889 75.0194 99.5892 71.573 101.596 68.3619C101.67 68.2457 101.745 68.1294 101.821 68.0097C102.61 66.7531 103.274 65.4314 103.942 64.1085C104.006 63.9829 104.07 63.8573 104.136 63.7279C104.862 62.297 105.553 60.8601 106.163 59.3753C106.265 59.1267 106.367 58.878 106.472 58.6219C106.663 58.1469 106.851 57.6704 107.034 57.1923C107.12 56.978 107.205 56.7638 107.293 56.543C107.365 56.3548 107.438 56.1666 107.512 55.9727C107.943 55.2888 108.577 54.8654 109.405 54.9746Z" fill="#6A18A4"/>
<path d="M140.069 57.7032C140.135 58.4325 139.871 59.0764 139.421 59.6384C138.451 60.1791 137.609 59.9888 136.562 59.8266C131.059 59.1004 125.873 60.5781 121.423 63.8951C119.988 65.0135 118.661 66.199 117.467 67.5765C117.073 67.9587 116.827 68.118 116.29 68.2259C114.977 67.7833 114.977 67.7833 114.477 67.0441C114.391 66.2275 114.699 65.6602 115.104 64.9725C115.473 64.5429 115.824 64.166 116.235 63.7827C116.344 63.6787 116.453 63.5746 116.565 63.4674C121.704 58.6388 127.868 56.0146 134.929 56.1366C139.052 56.2772 139.052 56.2772 140.069 57.7032Z" fill="#6A18A4"/>
</g>
<defs>
<clipPath id="clip0_5147_8091">
<rect width="104.476" height="104.476" fill="white" transform="translate(51.9438) rotate(24.9674)"/>
</clipPath>
</defs>
</svg>
