<svg width="342" height="239" viewBox="0 0 342 239" fill="none" xmlns="http://www.w3.org/2000/svg">
<path d="M121.017 104.6L114.537 125H110.847L104.337 104.6H108.297L111.387 114.86L112.797 120.14L114.297 114.83L117.357 104.6H121.017ZM130.347 106.91H126.717V103.34H130.347V106.91ZM130.257 125H126.807V109.79H130.257V125ZM150.1 109.79L144.7 125H141.55L136.15 109.79H139.63L142.24 117.38L143.23 120.53L144.19 117.38L146.68 109.79H150.1ZM167.237 124.13C166.197 124.55 165.217 124.85 164.297 125.03C163.377 125.21 162.507 125.3 161.687 125.3C159.427 125.3 157.717 124.66 156.557 123.38C155.397 122.1 154.817 120.4 154.817 118.28V116.48C154.817 115.06 155.077 113.83 155.597 112.79C156.117 111.75 156.857 110.94 157.817 110.36C158.777 109.78 159.907 109.49 161.207 109.49C162.267 109.49 163.257 109.71 164.177 110.15C165.117 110.57 165.877 111.24 166.457 112.16C167.057 113.06 167.357 114.22 167.357 115.64C167.357 116.06 167.327 116.51 167.267 116.99C167.207 117.45 167.107 117.94 166.967 118.46H158.147C158.187 119.7 158.497 120.63 159.077 121.25C159.657 121.87 160.587 122.18 161.867 122.18C162.547 122.18 163.247 122.1 163.967 121.94C164.707 121.78 165.467 121.54 166.247 121.22L167.237 124.13ZM161.207 112.4C160.287 112.4 159.567 112.7 159.047 113.3C158.547 113.88 158.257 114.72 158.177 115.82H163.937C163.957 115.72 163.967 115.63 163.967 115.55C163.967 115.45 163.967 115.36 163.967 115.28C163.967 114.32 163.697 113.6 163.157 113.12C162.617 112.64 161.967 112.4 161.207 112.4ZM183.872 122V125H173.012V122.3L179.432 112.79H173.312V109.79H183.572V112.49L177.152 122H183.872ZM211.377 109.79L205.977 125H202.827L197.427 109.79H200.907L203.517 117.38L204.507 120.53L205.467 117.38L207.957 109.79H211.377ZM229.415 116.48V118.28C229.415 120.4 228.835 122.1 227.675 123.38C226.515 124.66 224.875 125.3 222.755 125.3C220.635 125.3 218.995 124.66 217.835 123.38C216.675 122.1 216.095 120.4 216.095 118.28V116.48C216.095 114.36 216.665 112.67 217.805 111.41C218.965 110.13 220.615 109.49 222.755 109.49C224.895 109.49 226.535 110.13 227.675 111.41C228.835 112.67 229.415 114.36 229.415 116.48ZM225.875 116.48C225.875 115.26 225.605 114.31 225.065 113.63C224.525 112.93 223.755 112.58 222.755 112.58C221.755 112.58 220.985 112.93 220.445 113.63C219.905 114.31 219.635 115.26 219.635 116.48V118.28C219.635 119.5 219.905 120.46 220.445 121.16C220.985 121.86 221.755 122.21 222.755 122.21C223.755 122.21 224.525 121.86 225.065 121.16C225.605 120.46 225.875 119.5 225.875 118.28V116.48ZM245.433 124.49C244.913 124.73 244.313 124.92 243.633 125.06C242.953 125.22 242.263 125.3 241.563 125.3C240.403 125.3 239.473 125.06 238.773 124.58C238.073 124.1 237.563 123.43 237.243 122.57C236.943 121.71 236.793 120.73 236.793 119.63V112.79H234.333V109.79H236.793V105.83H240.243V109.79H244.983V112.79H240.243V119.63C240.243 120.55 240.413 121.19 240.753 121.55C241.113 121.89 241.623 122.06 242.283 122.06C242.603 122.06 242.943 122.03 243.303 121.97C243.683 121.89 244.103 121.76 244.563 121.58L245.433 124.49ZM259.787 112.94C258.847 112.94 257.947 113.09 257.087 113.39C256.247 113.67 255.437 114.13 254.657 114.77V125H251.207V109.79H254.477V112.13C255.497 111.17 256.407 110.49 257.207 110.09C258.007 109.69 258.867 109.49 259.787 109.49V112.94ZM277.358 124.13C276.318 124.55 275.338 124.85 274.418 125.03C273.498 125.21 272.628 125.3 271.808 125.3C269.548 125.3 267.838 124.66 266.678 123.38C265.518 122.1 264.938 120.4 264.938 118.28V116.48C264.938 115.06 265.198 113.83 265.718 112.79C266.238 111.75 266.978 110.94 267.938 110.36C268.898 109.78 270.028 109.49 271.328 109.49C272.388 109.49 273.378 109.71 274.298 110.15C275.238 110.57 275.998 111.24 276.578 112.16C277.178 113.06 277.478 114.22 277.478 115.64C277.478 116.06 277.448 116.51 277.388 116.99C277.328 117.45 277.228 117.94 277.088 118.46H268.268C268.308 119.7 268.618 120.63 269.198 121.25C269.778 121.87 270.708 122.18 271.988 122.18C272.668 122.18 273.368 122.1 274.088 121.94C274.828 121.78 275.588 121.54 276.368 121.22L277.358 124.13ZM271.328 112.4C270.408 112.4 269.688 112.7 269.168 113.3C268.668 113.88 268.378 114.72 268.298 115.82H274.058C274.078 115.72 274.088 115.63 274.088 115.55C274.088 115.45 274.088 115.36 274.088 115.28C274.088 114.32 273.818 113.6 273.278 113.12C272.738 112.64 272.088 112.4 271.328 112.4ZM70.6007 161.3C70.1007 161.3 69.5907 161.25 69.0707 161.15C68.5707 161.05 68.0607 160.91 67.5407 160.73V167.39H64.0907V145.79H67.3607V147.86C68.3007 146.92 69.1007 146.29 69.7607 145.97C70.4207 145.65 71.1107 145.49 71.8307 145.49C73.4907 145.49 74.7707 146.11 75.6707 147.35C76.5707 148.59 77.0207 150.33 77.0207 152.57V154.19C77.0207 156.37 76.4707 158.1 75.3707 159.38C74.2707 160.66 72.6807 161.3 70.6007 161.3ZM70.9007 148.7C70.4407 148.7 69.9507 148.84 69.4307 149.12C68.9307 149.38 68.3007 149.89 67.5407 150.65V157.61C68.5207 158.01 69.4207 158.21 70.2407 158.21C71.4007 158.21 72.2307 157.85 72.7307 157.13C73.2307 156.41 73.4807 155.43 73.4807 154.19V152.57C73.4807 151.23 73.2507 150.25 72.7907 149.63C72.3507 149.01 71.7207 148.7 70.9007 148.7ZM95.5443 161.15C94.5243 161.15 93.7043 160.94 93.0843 160.52C92.4843 160.1 92.0443 159.58 91.7643 158.96C90.9043 159.76 90.0743 160.35 89.2743 160.73C88.4743 161.11 87.6143 161.3 86.6943 161.3C85.3543 161.3 84.3643 160.87 83.7243 160.01C83.1043 159.15 82.7943 158.06 82.7943 156.74C82.7943 155.86 82.9543 155.09 83.2743 154.43C83.6143 153.75 84.1643 153.22 84.9243 152.84C85.6843 152.46 86.7243 152.27 88.0443 152.27C88.5643 152.27 89.1043 152.31 89.6643 152.39C90.2243 152.45 90.7843 152.53 91.3443 152.63V150.86C91.3443 150.02 91.1143 149.45 90.6543 149.15C90.1943 148.83 89.5743 148.67 88.7943 148.67C88.1943 148.67 87.5343 148.75 86.8143 148.91C86.1143 149.07 85.3543 149.32 84.5343 149.66L83.5443 146.72C85.5643 145.9 87.3943 145.49 89.0343 145.49C90.5143 145.49 91.6543 145.74 92.4543 146.24C93.2743 146.74 93.8443 147.4 94.1643 148.22C94.4843 149.04 94.6443 149.92 94.6443 150.86V156.71C94.6443 157.01 94.7243 157.3 94.8843 157.58C95.0643 157.84 95.4043 157.97 95.9043 157.97H96.2343V161.15H95.5443ZM86.1243 156.68C86.1243 157.22 86.2443 157.65 86.4843 157.97C86.7243 158.27 87.0743 158.42 87.5343 158.42C87.9943 158.42 88.5143 158.3 89.0943 158.06C89.6743 157.82 90.4243 157.26 91.3443 156.38V155.09C90.3043 154.91 89.2843 154.82 88.2843 154.82C87.5043 154.82 86.9443 154.98 86.6043 155.3C86.2843 155.62 86.1243 156.08 86.1243 156.68ZM106.489 158.3C107.229 158.3 107.839 158.18 108.319 157.94C108.799 157.68 109.039 157.3 109.039 156.8C109.039 156.36 108.879 156.02 108.559 155.78C108.259 155.52 107.709 155.29 106.909 155.09L105.199 154.64C103.879 154.3 102.899 153.73 102.259 152.93C101.639 152.13 101.329 151.18 101.329 150.08C101.329 148.78 101.779 147.69 102.679 146.81C103.579 145.93 104.969 145.49 106.849 145.49C107.609 145.49 108.409 145.58 109.249 145.76C110.089 145.94 110.969 146.23 111.889 146.63L110.899 149.57C110.059 149.17 109.299 148.89 108.619 148.73C107.939 148.57 107.339 148.49 106.819 148.49C105.399 148.49 104.689 148.97 104.689 149.93C104.689 150.31 104.809 150.61 105.049 150.83C105.309 151.05 105.779 151.25 106.459 151.43L108.169 151.88C109.629 152.26 110.689 152.84 111.349 153.62C112.029 154.4 112.369 155.38 112.369 156.56C112.369 157.96 111.889 159.1 110.929 159.98C109.989 160.86 108.499 161.3 106.459 161.3C104.719 161.3 102.889 160.9 100.969 160.1L101.899 157.25C102.839 157.63 103.689 157.9 104.449 158.06C105.209 158.22 105.889 158.3 106.489 158.3ZM123.171 158.3C123.911 158.3 124.521 158.18 125.001 157.94C125.481 157.68 125.721 157.3 125.721 156.8C125.721 156.36 125.561 156.02 125.241 155.78C124.941 155.52 124.391 155.29 123.591 155.09L121.881 154.64C120.561 154.3 119.581 153.73 118.941 152.93C118.321 152.13 118.011 151.18 118.011 150.08C118.011 148.78 118.461 147.69 119.361 146.81C120.261 145.93 121.651 145.49 123.531 145.49C124.291 145.49 125.091 145.58 125.931 145.76C126.771 145.94 127.651 146.23 128.571 146.63L127.581 149.57C126.741 149.17 125.981 148.89 125.301 148.73C124.621 148.57 124.021 148.49 123.501 148.49C122.081 148.49 121.371 148.97 121.371 149.93C121.371 150.31 121.491 150.61 121.731 150.83C121.991 151.05 122.461 151.25 123.141 151.43L124.851 151.88C126.311 152.26 127.371 152.84 128.031 153.62C128.711 154.4 129.051 155.38 129.051 156.56C129.051 157.96 128.571 159.1 127.611 159.98C126.671 160.86 125.181 161.3 123.141 161.3C121.401 161.3 119.571 160.9 117.651 160.1L118.581 157.25C119.521 157.63 120.371 157.9 121.131 158.06C121.891 158.22 122.571 158.3 123.171 158.3ZM139.133 142.91H135.503V139.34H139.133V142.91ZM139.043 161H135.593V145.79H139.043V161ZM159.246 152.48V154.28C159.246 156.4 158.666 158.1 157.506 159.38C156.346 160.66 154.706 161.3 152.586 161.3C150.466 161.3 148.826 160.66 147.666 159.38C146.506 158.1 145.926 156.4 145.926 154.28V152.48C145.926 150.36 146.496 148.67 147.636 147.41C148.796 146.13 150.446 145.49 152.586 145.49C154.726 145.49 156.366 146.13 157.506 147.41C158.666 148.67 159.246 150.36 159.246 152.48ZM155.706 152.48C155.706 151.26 155.436 150.31 154.896 149.63C154.356 148.93 153.586 148.58 152.586 148.58C151.586 148.58 150.816 148.93 150.276 149.63C149.736 150.31 149.466 151.26 149.466 152.48V154.28C149.466 155.5 149.736 156.46 150.276 157.16C150.816 157.86 151.586 158.21 152.586 158.21C153.586 158.21 154.356 157.86 154.896 157.16C155.436 156.46 155.706 155.5 155.706 154.28V152.48ZM173.554 148.7C173.054 148.7 172.484 148.82 171.844 149.06C171.204 149.3 170.444 149.77 169.564 150.47V161H166.114V145.79H169.384V147.83C170.324 147.01 171.214 146.42 172.054 146.06C172.894 145.68 173.744 145.49 174.604 145.49C176.064 145.49 177.174 145.96 177.934 146.9C178.694 147.82 179.074 149.12 179.074 150.8V161H175.624V151.22C175.624 149.54 174.934 148.7 173.554 148.7ZM204.55 161V158.93C203.63 159.85 202.83 160.48 202.15 160.82C201.49 161.14 200.8 161.3 200.08 161.3C198.44 161.3 197.16 160.68 196.24 159.44C195.34 158.2 194.89 156.46 194.89 154.22V152.6C194.89 150.42 195.44 148.69 196.54 147.41C197.64 146.13 199.23 145.49 201.31 145.49C201.83 145.49 202.34 145.54 202.84 145.64C203.36 145.74 203.87 145.88 204.37 146.06V138.8H207.82V161H204.55ZM198.43 154.22C198.43 155.56 198.65 156.54 199.09 157.16C199.55 157.78 200.19 158.09 201.01 158.09C201.47 158.09 201.96 157.96 202.48 157.7C203 157.42 203.63 156.9 204.37 156.14V149.18C203.39 148.78 202.49 148.58 201.67 148.58C200.51 148.58 199.68 148.94 199.18 149.66C198.68 150.38 198.43 151.36 198.43 152.6V154.22ZM224.633 161V158.99C223.713 159.79 222.853 160.38 222.053 160.76C221.253 161.12 220.443 161.3 219.623 161.3C218.263 161.3 217.213 160.84 216.473 159.92C215.733 158.98 215.363 157.67 215.363 155.99V145.79H218.813V155.57C218.813 157.25 219.433 158.09 220.673 158.09C221.173 158.09 221.713 157.97 222.293 157.73C222.893 157.49 223.613 157.03 224.453 156.35V145.79H227.903V161H224.633ZM257.469 154.19C257.469 156.37 256.929 158.1 255.849 159.38C254.769 160.66 253.189 161.3 251.109 161.3C248.949 161.3 246.759 160.7 244.539 159.5V138.8H247.989V147.8C248.909 146.88 249.699 146.27 250.359 145.97C251.019 145.65 251.699 145.49 252.399 145.49C253.999 145.49 255.239 146.11 256.119 147.35C257.019 148.59 257.469 150.33 257.469 152.57V154.19ZM251.469 148.7C250.989 148.7 250.479 148.84 249.939 149.12C249.419 149.4 248.769 149.95 247.989 150.77V157.58C248.529 157.8 249.019 157.96 249.459 158.06C249.919 158.16 250.369 158.21 250.809 158.21C251.929 158.21 252.729 157.85 253.209 157.13C253.689 156.41 253.929 155.43 253.929 154.19V152.57C253.929 151.23 253.709 150.25 253.269 149.63C252.849 149.01 252.249 148.7 251.469 148.7ZM267.986 142.91H264.356V139.34H267.986V142.91ZM267.896 161H264.446V145.79H267.896V161ZM287.199 160.13C286.159 160.55 285.179 160.85 284.259 161.03C283.339 161.21 282.469 161.3 281.649 161.3C279.389 161.3 277.679 160.66 276.519 159.38C275.359 158.1 274.779 156.4 274.779 154.28V152.48C274.779 151.06 275.039 149.83 275.559 148.79C276.079 147.75 276.819 146.94 277.779 146.36C278.739 145.78 279.869 145.49 281.169 145.49C282.229 145.49 283.219 145.71 284.139 146.15C285.079 146.57 285.839 147.24 286.419 148.16C287.019 149.06 287.319 150.22 287.319 151.64C287.319 152.06 287.289 152.51 287.229 152.99C287.169 153.45 287.069 153.94 286.929 154.46H278.109C278.149 155.7 278.459 156.63 279.039 157.25C279.619 157.87 280.549 158.18 281.829 158.18C282.509 158.18 283.209 158.1 283.929 157.94C284.669 157.78 285.429 157.54 286.209 157.22L287.199 160.13ZM281.169 148.4C280.249 148.4 279.529 148.7 279.009 149.3C278.509 149.88 278.219 150.72 278.139 151.82H283.899C283.919 151.72 283.929 151.63 283.929 151.55C283.929 151.45 283.929 151.36 283.929 151.28C283.929 150.32 283.659 149.6 283.119 149.12C282.579 148.64 281.929 148.4 281.169 148.4ZM301.734 148.7C301.234 148.7 300.664 148.82 300.024 149.06C299.384 149.3 298.624 149.77 297.744 150.47V161H294.294V145.79H297.564V147.83C298.504 147.01 299.394 146.42 300.234 146.06C301.074 145.68 301.924 145.49 302.784 145.49C304.244 145.49 305.354 145.96 306.114 146.9C306.874 147.82 307.254 149.12 307.254 150.8V161H303.804V151.22C303.804 149.54 303.114 148.7 301.734 148.7ZM313.65 153.05V150.05H322.77V153.05H313.65ZM75.8399 196.13C74.7999 196.55 73.8199 196.85 72.8999 197.03C71.9799 197.21 71.1099 197.3 70.2899 197.3C68.0299 197.3 66.3199 196.66 65.1599 195.38C63.9999 194.1 63.4199 192.4 63.4199 190.28V188.48C63.4199 187.06 63.6799 185.83 64.1999 184.79C64.7199 183.75 65.4599 182.94 66.4199 182.36C67.3799 181.78 68.5099 181.49 69.8099 181.49C70.8699 181.49 71.8599 181.71 72.7799 182.15C73.7199 182.57 74.4799 183.24 75.0599 184.16C75.6599 185.06 75.9599 186.22 75.9599 187.64C75.9599 188.06 75.9299 188.51 75.8699 188.99C75.8099 189.45 75.7099 189.94 75.5699 190.46H66.7499C66.7899 191.7 67.0999 192.63 67.6799 193.25C68.2599 193.87 69.1899 194.18 70.4699 194.18C71.1499 194.18 71.8499 194.1 72.5699 193.94C73.3099 193.78 74.0699 193.54 74.8499 193.22L75.8399 196.13ZM69.8099 184.4C68.8899 184.4 68.1699 184.7 67.6499 185.3C67.1499 185.88 66.8599 186.72 66.7799 187.82H72.5399C72.5599 187.72 72.5699 187.63 72.5699 187.55C72.5699 187.45 72.5699 187.36 72.5699 187.28C72.5699 186.32 72.2999 185.6 71.7599 185.12C71.2199 184.64 70.5699 184.4 69.8099 184.4ZM71.5799 179.63L69.7499 177.23L67.9199 179.63H65.2499L68.1299 174.8H71.4899L74.3699 179.63H71.5799ZM92.0845 196.49C91.5645 196.73 90.9645 196.92 90.2845 197.06C89.6045 197.22 88.9145 197.3 88.2145 197.3C87.0545 197.3 86.1245 197.06 85.4245 196.58C84.7245 196.1 84.2145 195.43 83.8945 194.57C83.5945 193.71 83.4445 192.73 83.4445 191.63V184.79H80.9845V181.79H83.4445V177.83H86.8945V181.79H91.6345V184.79H86.8945V191.63C86.8945 192.55 87.0645 193.19 87.4045 193.55C87.7645 193.89 88.2745 194.06 88.9345 194.06C89.2545 194.06 89.5945 194.03 89.9545 193.97C90.3345 193.89 90.7545 193.76 91.2145 193.58L92.0845 196.49ZM106.438 184.94C105.498 184.94 104.598 185.09 103.738 185.39C102.898 185.67 102.088 186.13 101.308 186.77V197H97.8583V181.79H101.128V184.13C102.148 183.17 103.058 182.49 103.858 182.09C104.658 181.69 105.518 181.49 106.438 181.49V184.94ZM124.01 196.13C122.97 196.55 121.99 196.85 121.07 197.03C120.15 197.21 119.28 197.3 118.46 197.3C116.2 197.3 114.49 196.66 113.33 195.38C112.17 194.1 111.59 192.4 111.59 190.28V188.48C111.59 187.06 111.85 185.83 112.37 184.79C112.89 183.75 113.63 182.94 114.59 182.36C115.55 181.78 116.68 181.49 117.98 181.49C119.04 181.49 120.03 181.71 120.95 182.15C121.89 182.57 122.65 183.24 123.23 184.16C123.83 185.06 124.13 186.22 124.13 187.64C124.13 188.06 124.1 188.51 124.04 188.99C123.98 189.45 123.88 189.94 123.74 190.46H114.92C114.96 191.7 115.27 192.63 115.85 193.25C116.43 193.87 117.36 194.18 118.64 194.18C119.32 194.18 120.02 194.1 120.74 193.94C121.48 193.78 122.24 193.54 123.02 193.22L124.01 196.13ZM117.98 184.4C117.06 184.4 116.34 184.7 115.82 185.3C115.32 185.88 115.03 186.72 114.95 187.82H120.71C120.73 187.72 120.74 187.63 120.74 187.55C120.74 187.45 120.74 187.36 120.74 187.28C120.74 186.32 120.47 185.6 119.93 185.12C119.39 184.64 118.74 184.4 117.98 184.4ZM144.37 194.3C145.11 194.3 145.72 194.18 146.2 193.94C146.68 193.68 146.92 193.3 146.92 192.8C146.92 192.36 146.76 192.02 146.44 191.78C146.14 191.52 145.59 191.29 144.79 191.09L143.08 190.64C141.76 190.3 140.78 189.73 140.14 188.93C139.52 188.13 139.21 187.18 139.21 186.08C139.21 184.78 139.66 183.69 140.56 182.81C141.46 181.93 142.85 181.49 144.73 181.49C145.49 181.49 146.29 181.58 147.13 181.76C147.97 181.94 148.85 182.23 149.77 182.63L148.78 185.57C147.94 185.17 147.18 184.89 146.5 184.73C145.82 184.57 145.22 184.49 144.7 184.49C143.28 184.49 142.57 184.97 142.57 185.93C142.57 186.31 142.69 186.61 142.93 186.83C143.19 187.05 143.66 187.25 144.34 187.43L146.05 187.88C147.51 188.26 148.57 188.84 149.23 189.62C149.91 190.4 150.25 191.38 150.25 192.56C150.25 193.96 149.77 195.1 148.81 195.98C147.87 196.86 146.38 197.3 144.34 197.3C142.6 197.3 140.77 196.9 138.85 196.1L139.78 193.25C140.72 193.63 141.57 193.9 142.33 194.06C143.09 194.22 143.77 194.3 144.37 194.3ZM169.242 188.48V190.28C169.242 192.4 168.662 194.1 167.502 195.38C166.342 196.66 164.702 197.3 162.582 197.3C160.462 197.3 158.822 196.66 157.662 195.38C156.502 194.1 155.922 192.4 155.922 190.28V188.48C155.922 186.36 156.492 184.67 157.632 183.41C158.792 182.13 160.442 181.49 162.582 181.49C164.722 181.49 166.362 182.13 167.502 183.41C168.662 184.67 169.242 186.36 169.242 188.48ZM165.702 188.48C165.702 187.26 165.432 186.31 164.892 185.63C164.352 184.93 163.582 184.58 162.582 184.58C161.582 184.58 160.812 184.93 160.272 185.63C159.732 186.31 159.462 187.26 159.462 188.48V190.28C159.462 191.5 159.732 192.46 160.272 193.16C160.812 193.86 161.582 194.21 162.582 194.21C163.582 194.21 164.352 193.86 164.892 193.16C165.432 192.46 165.702 191.5 165.702 190.28V188.48ZM185.17 197V194.99C184.25 195.79 183.39 196.38 182.59 196.76C181.79 197.12 180.98 197.3 180.16 197.3C178.8 197.3 177.75 196.84 177.01 195.92C176.27 194.98 175.9 193.67 175.9 191.99V181.79H179.35V191.57C179.35 193.25 179.97 194.09 181.21 194.09C181.71 194.09 182.25 193.97 182.83 193.73C183.43 193.49 184.15 193.03 184.99 192.35V181.79H188.44V197H185.17ZM200.45 194.3C201.19 194.3 201.8 194.18 202.28 193.94C202.76 193.68 203 193.3 203 192.8C203 192.36 202.84 192.02 202.52 191.78C202.22 191.52 201.67 191.29 200.87 191.09L199.16 190.64C197.84 190.3 196.86 189.73 196.22 188.93C195.6 188.13 195.29 187.18 195.29 186.08C195.29 184.78 195.74 183.69 196.64 182.81C197.54 181.93 198.93 181.49 200.81 181.49C201.57 181.49 202.37 181.58 203.21 181.76C204.05 181.94 204.93 182.23 205.85 182.63L204.86 185.57C204.02 185.17 203.26 184.89 202.58 184.73C201.9 184.57 201.3 184.49 200.78 184.49C199.36 184.49 198.65 184.97 198.65 185.93C198.65 186.31 198.77 186.61 199.01 186.83C199.27 187.05 199.74 187.25 200.42 187.43L202.13 187.88C203.59 188.26 204.65 188.84 205.31 189.62C205.99 190.4 206.33 191.38 206.33 192.56C206.33 193.96 205.85 195.1 204.89 195.98C203.95 196.86 202.46 197.3 200.42 197.3C198.68 197.3 196.85 196.9 194.93 196.1L195.86 193.25C196.8 193.63 197.65 193.9 198.41 194.06C199.17 194.22 199.85 194.3 200.45 194.3ZM231.028 196.49C230.508 196.73 229.908 196.92 229.228 197.06C228.548 197.22 227.858 197.3 227.158 197.3C225.998 197.3 225.068 197.06 224.368 196.58C223.668 196.1 223.158 195.43 222.838 194.57C222.538 193.71 222.388 192.73 222.388 191.63V184.79H219.928V181.79H222.388V177.83H225.838V181.79H230.578V184.79H225.838V191.63C225.838 192.55 226.008 193.19 226.348 193.55C226.708 193.89 227.218 194.06 227.878 194.06C228.198 194.06 228.538 194.03 228.898 193.97C229.278 193.89 229.698 193.76 230.158 193.58L231.028 196.49ZM249.252 188.48V190.28C249.252 192.4 248.672 194.1 247.512 195.38C246.352 196.66 244.712 197.3 242.592 197.3C240.472 197.3 238.832 196.66 237.672 195.38C236.512 194.1 235.932 192.4 235.932 190.28V188.48C235.932 186.36 236.502 184.67 237.642 183.41C238.802 182.13 240.452 181.49 242.592 181.49C244.732 181.49 246.372 182.13 247.512 183.41C248.672 184.67 249.252 186.36 249.252 188.48ZM245.712 188.48C245.712 187.26 245.442 186.31 244.902 185.63C244.362 184.93 243.592 184.58 242.592 184.58C241.592 184.58 240.822 184.93 240.282 185.63C239.742 186.31 239.472 187.26 239.472 188.48V190.28C239.472 191.5 239.742 192.46 240.282 193.16C240.822 193.86 241.592 194.21 242.592 194.21C243.592 194.21 244.362 193.86 244.902 193.16C245.442 192.46 245.712 191.5 245.712 190.28V188.48ZM265.18 197V194.99C264.26 195.79 263.4 196.38 262.6 196.76C261.8 197.12 260.99 197.3 260.17 197.3C258.81 197.3 257.76 196.84 257.02 195.92C256.28 194.98 255.91 193.67 255.91 191.99V181.79H259.36V191.57C259.36 193.25 259.98 194.09 261.22 194.09C261.72 194.09 262.26 193.97 262.84 193.73C263.44 193.49 264.16 193.03 265 192.35V181.79H268.45V197H265.18ZM285.35 196.49C284.83 196.73 284.23 196.92 283.55 197.06C282.87 197.22 282.18 197.3 281.48 197.3C280.32 197.3 279.39 197.06 278.69 196.58C277.99 196.1 277.48 195.43 277.16 194.57C276.86 193.71 276.71 192.73 276.71 191.63V184.79H274.25V181.79H276.71V177.83H280.16V181.79H284.9V184.79H280.16V191.63C280.16 192.55 280.33 193.19 280.67 193.55C281.03 193.89 281.54 194.06 282.2 194.06C282.52 194.06 282.86 194.03 283.22 193.97C283.6 193.89 284.02 193.76 284.48 193.58L285.35 196.49ZM302.674 196.13C301.634 196.55 300.654 196.85 299.734 197.03C298.814 197.21 297.944 197.3 297.124 197.3C294.864 197.3 293.154 196.66 291.994 195.38C290.834 194.1 290.254 192.4 290.254 190.28V188.48C290.254 187.06 290.514 185.83 291.034 184.79C291.554 183.75 292.294 182.94 293.254 182.36C294.214 181.78 295.344 181.49 296.644 181.49C297.704 181.49 298.694 181.71 299.614 182.15C300.554 182.57 301.314 183.24 301.894 184.16C302.494 185.06 302.794 186.22 302.794 187.64C302.794 188.06 302.764 188.51 302.704 188.99C302.644 189.45 302.544 189.94 302.404 190.46H293.584C293.624 191.7 293.934 192.63 294.514 193.25C295.094 193.87 296.024 194.18 297.304 194.18C297.984 194.18 298.684 194.1 299.404 193.94C300.144 193.78 300.904 193.54 301.684 193.22L302.674 196.13ZM296.644 184.4C295.724 184.4 295.004 184.7 294.484 185.3C293.984 185.88 293.694 186.72 293.614 187.82H299.374C299.394 187.72 299.404 187.63 299.404 187.55C299.404 187.45 299.404 187.36 299.404 187.28C299.404 186.32 299.134 185.6 298.594 185.12C298.054 184.64 297.404 184.4 296.644 184.4ZM314.028 194.3C314.768 194.3 315.378 194.18 315.858 193.94C316.338 193.68 316.578 193.3 316.578 192.8C316.578 192.36 316.418 192.02 316.098 191.78C315.798 191.52 315.248 191.29 314.448 191.09L312.738 190.64C311.418 190.3 310.438 189.73 309.798 188.93C309.178 188.13 308.868 187.18 308.868 186.08C308.868 184.78 309.318 183.69 310.218 182.81C311.118 181.93 312.508 181.49 314.388 181.49C315.148 181.49 315.948 181.58 316.788 181.76C317.628 181.94 318.508 182.23 319.428 182.63L318.438 185.57C317.598 185.17 316.838 184.89 316.158 184.73C315.478 184.57 314.878 184.49 314.358 184.49C312.938 184.49 312.228 184.97 312.228 185.93C312.228 186.31 312.348 186.61 312.588 186.83C312.848 187.05 313.318 187.25 313.998 187.43L315.708 187.88C317.168 188.26 318.228 188.84 318.888 189.62C319.568 190.4 319.908 191.38 319.908 192.56C319.908 193.96 319.428 195.1 318.468 195.98C317.528 196.86 316.038 197.3 313.998 197.3C312.258 197.3 310.428 196.9 308.508 196.1L309.438 193.25C310.378 193.63 311.228 193.9 311.988 194.06C312.748 194.22 313.428 194.3 314.028 194.3ZM114.133 230.3C114.873 230.3 115.483 230.18 115.963 229.94C116.443 229.68 116.683 229.3 116.683 228.8C116.683 228.36 116.523 228.02 116.203 227.78C115.903 227.52 115.353 227.29 114.553 227.09L112.843 226.64C111.523 226.3 110.543 225.73 109.903 224.93C109.283 224.13 108.973 223.18 108.973 222.08C108.973 220.78 109.423 219.69 110.323 218.81C111.223 217.93 112.613 217.49 114.493 217.49C115.253 217.49 116.053 217.58 116.893 217.76C117.733 217.94 118.613 218.23 119.533 218.63L118.543 221.57C117.703 221.17 116.943 220.89 116.263 220.73C115.583 220.57 114.983 220.49 114.463 220.49C113.043 220.49 112.333 220.97 112.333 221.93C112.333 222.31 112.453 222.61 112.693 222.83C112.953 223.05 113.423 223.25 114.103 223.43L115.813 223.88C117.273 224.26 118.333 224.84 118.993 225.62C119.673 226.4 120.013 227.38 120.013 228.56C120.013 229.96 119.533 231.1 118.573 231.98C117.633 232.86 116.143 233.3 114.103 233.3C112.363 233.3 110.533 232.9 108.613 232.1L109.543 229.25C110.483 229.63 111.333 229.9 112.093 230.06C112.853 230.22 113.533 230.3 114.133 230.3ZM138.105 232.13C137.065 232.55 136.085 232.85 135.165 233.03C134.245 233.21 133.375 233.3 132.555 233.3C130.295 233.3 128.585 232.66 127.425 231.38C126.265 230.1 125.685 228.4 125.685 226.28V224.48C125.685 223.06 125.945 221.83 126.465 220.79C126.985 219.75 127.725 218.94 128.685 218.36C129.645 217.78 130.775 217.49 132.075 217.49C133.135 217.49 134.125 217.71 135.045 218.15C135.985 218.57 136.745 219.24 137.325 220.16C137.925 221.06 138.225 222.22 138.225 223.64C138.225 224.06 138.195 224.51 138.135 224.99C138.075 225.45 137.975 225.94 137.835 226.46H129.015C129.055 227.7 129.365 228.63 129.945 229.25C130.525 229.87 131.455 230.18 132.735 230.18C133.415 230.18 134.115 230.1 134.835 229.94C135.575 229.78 136.335 229.54 137.115 229.22L138.105 232.13ZM132.075 220.4C131.155 220.4 130.435 220.7 129.915 221.3C129.415 221.88 129.125 222.72 129.045 223.82H134.805C134.825 223.72 134.835 223.63 134.835 223.55C134.835 223.45 134.835 223.36 134.835 223.28C134.835 222.32 134.565 221.6 134.025 221.12C133.485 220.64 132.835 220.4 132.075 220.4ZM149.459 230.3C150.199 230.3 150.809 230.18 151.289 229.94C151.769 229.68 152.009 229.3 152.009 228.8C152.009 228.36 151.849 228.02 151.529 227.78C151.229 227.52 150.679 227.29 149.879 227.09L148.169 226.64C146.849 226.3 145.869 225.73 145.229 224.93C144.609 224.13 144.299 223.18 144.299 222.08C144.299 220.78 144.749 219.69 145.649 218.81C146.549 217.93 147.939 217.49 149.819 217.49C150.579 217.49 151.379 217.58 152.219 217.76C153.059 217.94 153.939 218.23 154.859 218.63L153.869 221.57C153.029 221.17 152.269 220.89 151.589 220.73C150.909 220.57 150.309 220.49 149.789 220.49C148.369 220.49 147.659 220.97 147.659 221.93C147.659 222.31 147.779 222.61 148.019 222.83C148.279 223.05 148.749 223.25 149.429 223.43L151.139 223.88C152.599 224.26 153.659 224.84 154.319 225.62C154.999 226.4 155.339 227.38 155.339 228.56C155.339 229.96 154.859 231.1 153.899 231.98C152.959 232.86 151.469 233.3 149.429 233.3C147.689 233.3 145.859 232.9 143.939 232.1L144.869 229.25C145.809 229.63 146.659 229.9 147.419 230.06C148.179 230.22 148.859 230.3 149.459 230.3ZM179.677 220.79H174.937V233H171.487V220.79H169.027V217.79H171.487V216.2C171.487 214.54 171.907 213.18 172.747 212.12C173.587 211.04 174.937 210.5 176.797 210.5C177.477 210.5 178.177 210.57 178.897 210.71C179.617 210.85 180.267 211.03 180.847 211.25L180.007 214.22C179.047 213.9 178.187 213.74 177.427 213.74C176.627 213.74 176.007 213.92 175.567 214.28C175.147 214.62 174.937 215.26 174.937 216.2V217.79H179.677V220.79ZM197.645 224.48V226.28C197.645 228.4 197.065 230.1 195.905 231.38C194.745 232.66 193.105 233.3 190.985 233.3C188.865 233.3 187.225 232.66 186.065 231.38C184.905 230.1 184.325 228.4 184.325 226.28V224.48C184.325 222.36 184.895 220.67 186.035 219.41C187.195 218.13 188.845 217.49 190.985 217.49C193.125 217.49 194.765 218.13 195.905 219.41C197.065 220.67 197.645 222.36 197.645 224.48ZM194.105 224.48C194.105 223.26 193.835 222.31 193.295 221.63C192.755 220.93 191.985 220.58 190.985 220.58C189.985 220.58 189.215 220.93 188.675 221.63C188.135 222.31 187.865 223.26 187.865 224.48V226.28C187.865 227.5 188.135 228.46 188.675 229.16C189.215 229.86 189.985 230.21 190.985 230.21C191.985 230.21 192.755 229.86 193.295 229.16C193.835 228.46 194.105 227.5 194.105 226.28V224.48ZM213.094 220.94C212.154 220.94 211.254 221.09 210.394 221.39C209.554 221.67 208.744 222.13 207.964 222.77V233H204.514V217.79H207.784V220.13C208.804 219.17 209.714 218.49 210.514 218.09C211.314 217.69 212.174 217.49 213.094 217.49V220.94ZM222.565 222.47V233H219.115V217.79H222.385V219.8C223.325 218.98 224.195 218.39 224.995 218.03C225.795 217.67 226.615 217.49 227.455 217.49C229.315 217.49 230.585 218.31 231.265 219.95C232.265 219.07 233.195 218.44 234.055 218.06C234.915 217.68 235.785 217.49 236.665 217.49C238.065 217.49 239.135 217.96 239.875 218.9C240.615 219.82 240.985 221.12 240.985 222.8V233H237.535V223.22C237.535 221.54 236.895 220.7 235.615 220.7C235.115 220.7 234.565 220.82 233.965 221.06C233.365 221.3 232.635 221.77 231.775 222.47V233H228.325V223.22C228.325 221.54 227.685 220.7 226.405 220.7C225.905 220.7 225.355 220.82 224.755 221.06C224.155 221.3 223.425 221.77 222.565 222.47ZM260.091 232.13C259.051 232.55 258.071 232.85 257.151 233.03C256.231 233.21 255.361 233.3 254.541 233.3C252.281 233.3 250.571 232.66 249.411 231.38C248.251 230.1 247.671 228.4 247.671 226.28V224.48C247.671 223.06 247.931 221.83 248.451 220.79C248.971 219.75 249.711 218.94 250.671 218.36C251.631 217.78 252.761 217.49 254.061 217.49C255.121 217.49 256.111 217.71 257.031 218.15C257.971 218.57 258.731 219.24 259.311 220.16C259.911 221.06 260.211 222.22 260.211 223.64C260.211 224.06 260.181 224.51 260.121 224.99C260.061 225.45 259.961 225.94 259.821 226.46H251.001C251.041 227.7 251.351 228.63 251.931 229.25C252.511 229.87 253.441 230.18 254.721 230.18C255.401 230.18 256.101 230.1 256.821 229.94C257.561 229.78 258.321 229.54 259.101 229.22L260.091 232.13ZM254.061 220.4C253.141 220.4 252.421 220.7 251.901 221.3C251.401 221.88 251.111 222.72 251.031 223.82H256.791C256.811 223.72 256.821 223.63 256.821 223.55C256.821 223.45 256.821 223.36 256.821 223.28C256.821 222.32 256.551 221.6 256.011 221.12C255.471 220.64 254.821 220.4 254.061 220.4ZM271.445 230.3C272.185 230.3 272.795 230.18 273.275 229.94C273.755 229.68 273.995 229.3 273.995 228.8C273.995 228.36 273.835 228.02 273.515 227.78C273.215 227.52 272.665 227.29 271.865 227.09L270.155 226.64C268.835 226.3 267.855 225.73 267.215 224.93C266.595 224.13 266.285 223.18 266.285 222.08C266.285 220.78 266.735 219.69 267.635 218.81C268.535 217.93 269.925 217.49 271.805 217.49C272.565 217.49 273.365 217.58 274.205 217.76C275.045 217.94 275.925 218.23 276.845 218.63L275.855 221.57C275.015 221.17 274.255 220.89 273.575 220.73C272.895 220.57 272.295 220.49 271.775 220.49C270.355 220.49 269.645 220.97 269.645 221.93C269.645 222.31 269.765 222.61 270.005 222.83C270.265 223.05 270.735 223.25 271.415 223.43L273.125 223.88C274.585 224.26 275.645 224.84 276.305 225.62C276.985 226.4 277.325 227.38 277.325 228.56C277.325 229.96 276.845 231.1 275.885 231.98C274.945 232.86 273.455 233.3 271.415 233.3C269.675 233.3 267.845 232.9 265.925 232.1L266.855 229.25C267.795 229.63 268.645 229.9 269.405 230.06C270.165 230.22 270.845 230.3 271.445 230.3Z" fill="#6A18A4"/>
<g clip-path="url(#clip0_5147_8081)">
<path d="M62.4904 37.9689C62.2255 38.1171 61.9605 38.2654 61.6876 38.4182C61.4491 38.5544 61.2107 38.6906 60.965 38.8309C60.7577 38.9478 60.5503 39.0647 60.3367 39.1851C59.8537 39.5509 59.8537 39.5509 59.4912 40.5067C59.59 41.3966 59.59 41.3966 60.002 42.0393C60.8212 42.5644 61.2644 42.5291 62.2268 42.4513C62.8919 42.1743 62.8919 42.1743 63.5503 41.7849C63.7958 41.6423 64.0414 41.4997 64.2944 41.3528C64.5529 41.1987 64.8114 41.0445 65.0777 40.8857C65.623 40.5698 66.1686 40.2543 66.7143 39.9392C67.1164 39.7052 67.1164 39.7052 67.5266 39.4666C74.9581 35.1608 81.4742 34.2404 89.9288 35.5958C90.6524 35.7098 91.3761 35.8228 92.1001 35.9343C92.5459 36.0032 92.9914 36.0735 93.4366 36.1456C94.6518 36.3355 95.8014 36.4212 97.0314 36.3868C96.3701 37.1298 95.6342 37.5621 94.7707 38.0482C94.4727 38.2169 94.1747 38.3857 93.8678 38.5596C93.7094 38.6486 93.551 38.7375 93.3878 38.8291C92.5461 39.302 91.7068 39.779 90.8671 40.2554C90.6114 40.4002 90.6114 40.4002 90.3505 40.5479C88.7795 41.4384 87.2188 42.346 85.6606 43.2588C85.1501 43.5572 84.6396 43.8555 84.129 44.1538C83.8721 44.3039 83.6152 44.454 83.3505 44.6087C81.9837 45.4066 80.6164 46.2036 79.2471 46.9973C78.7994 47.257 78.3524 47.5177 77.9053 47.7783C77.6329 47.936 77.3606 48.0937 77.0799 48.2562C76.8399 48.3956 76.5999 48.5351 76.3526 48.6787C74.8948 49.4615 74.2034 49.6397 72.5644 49.1898C72.3876 49.1425 72.2108 49.0952 72.0286 49.0465C71.4371 48.8872 70.8474 48.7221 70.2574 48.5569C69.8335 48.4415 69.4095 48.3265 68.9855 48.2118C68.0726 47.9642 67.1605 47.714 66.2489 47.4618C64.8057 47.0626 63.361 46.6693 61.916 46.2768C59.8916 45.7266 57.8677 45.174 55.8443 44.6199C51.5412 43.4419 47.2348 42.2762 42.9268 41.1165C41.5135 40.736 40.1009 40.3535 38.6886 39.9693C37.8059 39.7295 36.9228 39.4912 36.0396 39.2533C35.6335 39.1436 35.2276 39.0333 34.8218 38.9223C28.4744 37.1866 22.3661 36.719 16.3478 39.8146C15.3993 40.3609 14.471 40.9405 13.5401 41.5163C11.9979 42.4406 10.5415 42.9011 8.79818 43.301C5.5695 44.0464 2.71762 45.782 0.791199 48.5157C-0.298431 50.3625 -0.34993 52.4054 0.173218 54.4731C0.42099 55.0797 0.705338 55.6082 1.05487 56.1622C1.23792 56.4533 1.23792 56.4533 1.42464 56.7503C5.5889 62.6658 13.7849 63.9818 20.3091 65.7121C20.8888 65.8666 21.4685 66.0211 22.0481 66.1758C23.5641 66.58 25.0803 66.9833 26.5966 67.3862C29.0205 68.0306 31.444 68.6766 33.8675 69.3224C34.9702 69.6161 36.0732 69.9092 37.1761 70.2021C37.9329 70.4039 38.6891 70.6079 39.4453 70.812C40.3815 71.0641 41.3195 71.3044 42.2611 71.5356C42.4788 71.591 42.6966 71.6464 42.9209 71.7035C43.3226 71.8057 43.7254 71.904 44.1293 71.9975C45.4554 72.3421 46.0846 72.8569 46.8833 73.957C47.2172 74.5485 47.5357 75.1491 47.8402 75.7563C48.0187 76.0822 48.1988 76.4072 48.3805 76.7313C48.764 77.4193 49.1395 78.1108 49.5099 78.8059C50.4177 80.4989 51.4005 82.1481 52.3812 83.7994C52.691 84.3241 52.9957 84.8515 53.2994 85.3796C58.1697 93.7632 64.8202 97.6871 73.6228 101.191C74.4781 101.533 75.3301 101.883 76.1823 102.232C76.732 102.452 77.2818 102.672 77.8318 102.891C78.0832 102.995 78.3345 103.099 78.5935 103.207C80.1376 103.81 81.432 104.101 83.0568 103.623C84.0347 102.951 84.3141 102.488 84.6883 101.365C84.8564 98.9149 82.5664 96.1337 81.3594 94.098C81.0341 93.545 80.709 92.9919 80.3841 92.4387C80.217 92.1548 80.05 91.8709 79.878 91.5783C79.0181 90.1101 78.1704 88.635 77.322 87.1601C75.8207 84.553 74.3061 81.9543 72.7736 79.3653C73.0168 79.417 73.0168 79.417 73.2649 79.4696C80.1072 80.9017 86.8458 81.8316 93.8344 81.8537C94.0505 81.8554 94.2666 81.857 94.4892 81.8587C98.6994 81.8792 102.821 81.4259 106.837 80.1069C107.066 80.035 107.295 79.9631 107.53 79.8891C108.075 79.7177 108.618 79.542 109.16 79.3653C109.257 79.6279 109.257 79.6279 109.355 79.8958C110.807 83.334 112.706 86.83 116.279 88.3302C117.411 88.7239 118.551 89.0692 119.707 89.3849C119.891 89.4359 120.075 89.4868 120.264 89.5394C121.386 89.7855 122.598 89.9469 123.631 89.3725C124.2 88.9055 124.65 88.4647 124.981 87.8028C125.131 86.1487 124.676 84.8773 124.095 83.341C124.004 83.093 123.913 82.845 123.819 82.5894C123.528 81.7993 123.233 81.0108 122.937 80.2223C122.743 79.6964 122.548 79.1704 122.354 78.6444C121.994 77.6691 121.632 76.6945 121.269 75.7205C120.74 74.3017 120.223 72.8789 119.707 71.4552C119.905 71.239 119.905 71.239 120.107 71.0185C121.322 69.6869 122.446 68.3013 123.551 66.8799C124.496 65.6674 125.459 64.4716 126.431 63.2814C127.869 61.518 129.283 59.7365 130.683 57.9428C131.065 57.4557 131.449 56.9705 131.833 56.4856C131.963 56.3212 132.093 56.1567 132.227 55.9873C132.474 55.6754 132.721 55.3639 132.969 55.0528C135.151 52.2911 135.151 52.2911 135.149 50.8723C135.154 50.6572 135.16 50.442 135.166 50.2203C134.923 49.2698 134.418 48.8879 133.682 48.2521C132.86 47.9171 132.86 47.9171 131.945 47.6804C131.613 47.5919 131.28 47.5033 130.938 47.4121C130.589 47.3239 130.24 47.2359 129.892 47.1479C129.545 47.0572 129.198 46.9661 128.851 46.8745C128.21 46.706 127.568 46.5394 126.926 46.3753C126.3 46.2119 125.677 46.0378 125.057 45.856C124.13 45.5989 123.32 45.5183 122.36 45.5C121.908 45.4842 121.908 45.4842 121.447 45.4681C119.326 45.7973 117.851 47.3501 116.362 48.7959C115.991 49.1496 115.62 49.5032 115.25 49.8568C115.067 50.0314 114.885 50.206 114.697 50.3859C113.942 51.1063 113.175 51.8141 112.407 52.5203C112.132 52.7736 111.857 53.027 111.582 53.2804C111.302 53.5379 111.022 53.7954 110.742 54.0528C110.116 54.6294 109.49 55.2062 108.864 55.7832C108.72 55.9153 108.576 56.0474 108.428 56.1835C107.328 57.1979 107.328 57.1979 106.998 57.6781C106.498 58.1034 106.498 58.1034 105.647 57.9024C105.282 57.8114 104.918 57.7153 104.555 57.6152C104.357 57.5644 104.159 57.5137 103.955 57.4614C103.316 57.2964 102.679 57.125 102.041 56.9532C101.63 56.8459 101.219 56.739 100.808 56.6325C99.5009 56.292 98.1966 55.9417 96.8924 55.5906C96.4153 55.4626 95.9382 55.3347 95.4612 55.2068C94.4721 54.9416 93.4833 54.6759 92.4945 54.4098C91.226 54.0685 89.9572 53.7283 88.6883 53.3884C87.7081 53.1258 86.7281 52.8626 85.7481 52.5993C85.2798 52.4735 84.8114 52.3478 84.343 52.2224C83.693 52.0482 83.0433 51.8733 82.3936 51.6981C82.2004 51.6465 82.0071 51.5949 81.808 51.5417C80.8269 51.2798 80.8269 51.2798 79.8928 50.8888C80.1571 50.7418 80.1571 50.7418 80.4267 50.5918C86.4317 47.2485 86.4317 47.2485 89.2229 45.5904C90.6571 44.7393 92.101 43.9059 93.5471 43.0752C94.974 42.2551 96.3986 41.431 97.8225 40.6056C98.0313 40.4849 98.2402 40.3642 98.4554 40.2398C98.9494 39.9528 99.4412 39.6624 99.9318 39.3696C100.182 39.2218 100.432 39.0739 100.69 38.9216C101.473 38.3273 101.718 37.8269 101.866 36.8658C101.884 35.8328 101.858 35.2144 101.349 34.2939C99.8971 33.033 97.8189 32.9811 95.9809 32.7098C95.6725 32.6638 95.3641 32.6177 95.0464 32.5702C94.3931 32.4733 93.7397 32.3771 93.0863 32.2818C92.1015 32.1372 91.1177 31.9874 90.1337 31.8375C79.2685 30.2194 71.8339 32.5689 62.4904 37.9689ZM29.8018 41.3071C30.0075 41.3537 30.2133 41.4004 30.4253 41.4484C33.0302 42.0486 35.6101 42.7446 38.1914 43.438C38.7458 43.5861 39.3001 43.7341 39.8545 43.8821C41.3356 44.2776 42.8164 44.6744 44.2971 45.0714C45.8581 45.4897 47.4193 45.9069 48.9806 46.3243C52.4103 47.2414 55.8395 48.1602 59.2687 49.0793C60.5573 49.4247 61.846 49.7698 63.1347 50.1149C65.1553 50.656 67.1759 51.1975 69.1963 51.7393C70.266 52.0261 71.3357 52.3129 72.4054 52.5994C77.1855 53.8796 81.9634 55.1671 86.7376 56.4687C88.7376 57.0139 90.7381 57.557 92.7388 58.0996C94.3961 58.5493 96.0526 59.0018 97.7085 59.4565C98.7315 59.7367 99.7551 60.0141 100.779 60.2909C101.256 60.4204 101.733 60.5511 102.209 60.6829C102.863 60.8637 103.517 61.0404 104.172 61.2162C104.362 61.2697 104.552 61.3232 104.747 61.3783C105.868 61.6737 106.721 61.7502 107.842 61.4357C108.416 60.9946 108.899 60.5742 109.408 60.0679C109.709 59.7787 110.01 59.4897 110.312 59.2006C110.468 59.0486 110.624 58.8966 110.785 58.74C111.601 57.9515 112.433 57.1817 113.264 56.4094C113.598 56.0974 113.932 55.7853 114.266 55.4732C115.383 54.4312 116.506 53.3958 117.639 52.3709C118.157 51.8932 118.659 51.4136 119.155 50.9145C119.403 50.6722 119.65 50.4298 119.905 50.1802C120.121 49.9616 120.337 49.7431 120.56 49.5179C121.763 48.7345 123.012 48.9655 124.364 49.2367C124.685 49.3251 125.005 49.4135 125.335 49.5045C125.594 49.5747 125.594 49.5747 125.858 49.6464C126.401 49.7944 126.943 49.946 127.486 50.0978C127.857 50.1996 128.228 50.3013 128.6 50.4026C129.504 50.6498 130.406 50.9002 131.309 51.1525C130.752 51.9991 130.199 52.8368 129.561 53.6244C129.374 53.856 129.374 53.856 129.184 54.0922C128.988 54.3338 128.988 54.3338 128.787 54.5802C128.505 54.9303 128.223 55.2804 127.941 55.6308C127.799 55.807 127.657 55.9832 127.511 56.1648C126.864 56.9718 126.227 57.7864 125.59 58.6012C124.563 59.9125 123.521 61.2092 122.462 62.4955C121.371 63.823 120.289 65.1571 119.208 66.4928C118.714 67.1029 118.216 67.7091 117.71 68.3097C117.521 68.5374 117.331 68.7651 117.136 68.9997C116.894 69.2868 116.894 69.2868 116.646 69.5796C116.199 70.2586 116.054 70.6385 116.016 71.4552C116.221 72.2132 116.45 72.9146 116.724 73.647C116.804 73.8675 116.884 74.0881 116.966 74.3153C117.527 75.8567 118.11 77.3899 118.69 78.9245C118.761 79.1141 118.833 79.3038 118.906 79.4992C119.266 80.4548 119.628 81.4097 119.994 82.3634C120.129 82.7184 120.263 83.0735 120.398 83.4286C120.519 83.7443 120.64 84.0601 120.764 84.3855C121.067 85.1539 121.067 85.1539 121.026 85.9571C118.252 85.5251 116.399 84.8582 114.697 82.5294C113.978 81.3749 113.315 80.191 112.654 79.0028C112.375 78.507 112.095 78.0117 111.816 77.5164C111.631 77.1888 111.446 76.8612 111.262 76.5333C110.49 75.1606 109.699 73.7995 108.897 72.444C108.787 72.2589 108.678 72.0739 108.565 71.8833C108.325 71.4766 108.083 71.0704 107.842 70.6642C108.591 70.2897 108.964 70.5368 109.754 70.7795C112.29 71.4998 112.29 71.4998 113.363 70.9114C113.799 70.1163 113.525 69.4231 113.379 68.5548C112.502 68.2864 111.622 68.0246 110.742 67.7638C110.496 67.6883 110.25 67.6129 109.996 67.5351C108.523 67.1026 107.268 66.8406 105.733 66.9728C104.825 67.5329 104.489 67.8029 104.151 68.8185C103.905 70.6581 104.67 71.7416 105.617 73.235C105.895 73.6771 106.17 74.1206 106.442 74.5657C106.565 74.7597 106.688 74.9537 106.815 75.1535C107.139 75.7101 107.139 75.7101 106.787 76.465C105.379 77.1961 104.355 76.8957 102.912 76.4856C102.686 76.4251 102.46 76.3646 102.227 76.3022C101.475 76.1001 100.725 75.8916 99.9751 75.6832C99.4437 75.539 98.9122 75.3953 98.3806 75.2519C96.9593 74.8674 95.5396 74.4776 94.1201 74.0865C92.6592 73.6846 91.1973 73.2867 89.7355 72.8886C87.9924 72.4138 86.2495 71.9387 84.5071 71.4616C81.4233 70.6182 78.3365 69.7915 75.2379 69.0041C74.6982 68.8668 74.1588 68.7286 73.6195 68.5899C70.9652 67.9079 70.9652 67.9079 69.7941 67.6204C68.96 67.4153 68.1286 67.2018 67.2973 66.9862C67.061 66.9309 66.8246 66.8757 66.5811 66.8188C65.4464 66.5156 64.7998 66.2758 64.184 65.2416C63.7751 64.4182 63.7751 64.4182 63.8088 63.8087C63.0257 63.8087 62.2426 63.8087 61.4357 63.8087C60.8771 64.926 60.83 65.0642 61.1721 66.1817C61.4581 66.7877 61.4581 66.7877 61.8179 67.4146C61.9526 67.6513 62.0873 67.888 62.2261 68.1318C62.4467 68.5125 62.4467 68.5125 62.6717 68.9009C62.8249 69.1684 62.978 69.436 63.1358 69.7116C64.5247 72.1322 65.9329 74.5416 67.3426 76.9501C68.823 79.4812 70.284 82.0235 71.7477 84.5644C72.4083 85.711 73.0696 86.8572 73.731 88.0033C74.0573 88.5689 74.3835 89.1346 74.7095 89.7004C75.485 91.0462 76.2622 92.3911 77.0444 93.733C77.4161 94.3707 77.7869 95.009 78.1577 95.6472C78.4214 96.1005 78.6864 96.553 78.9514 97.0056C79.1094 97.2779 79.2675 97.5501 79.4303 97.8306C79.5708 98.0714 79.7114 98.3122 79.8561 98.5603C80.1968 99.1099 80.1968 99.1099 80.1564 99.6681C78.9196 99.477 77.8149 99.0426 76.6566 98.5876C76.4455 98.5052 76.2343 98.4228 76.0168 98.3379C75.5693 98.1627 75.1221 97.9869 74.6751 97.8106C74.0055 97.5471 73.3345 97.2873 72.6634 97.0277C68.7428 95.4952 65.1101 93.8343 61.9631 90.9669C61.7772 90.8024 61.5912 90.6379 61.3997 90.4684C58.8747 88.1071 57.1482 84.9499 55.4173 81.9881C54.8747 81.0597 54.3275 80.1339 53.781 79.2078C53.6705 79.0203 53.56 78.8328 53.4462 78.6396C52.3902 76.8501 51.3122 75.0745 50.2297 73.3009C48.3585 70.2329 46.5193 67.1468 44.6941 64.0513C44.4952 63.7146 44.2963 63.378 44.0973 63.0414C44.0024 62.8809 43.9076 62.7204 43.8099 62.5551C43.0573 61.2883 42.2663 60.0489 41.4545 58.8191C41.0885 58.3016 41.0885 58.3016 41.133 57.7442C40.2629 57.7442 39.3928 57.7442 38.4963 57.7442C38.4093 58.0923 38.3223 58.4403 38.2326 58.7989C36.3527 58.483 34.5209 58.0875 32.6844 57.5782C32.4375 57.5109 32.1906 57.4435 31.9362 57.3741C31.4058 57.2293 30.8755 57.084 30.3454 56.9382C29.5055 56.7075 28.6651 56.4787 27.8245 56.2505C25.4366 55.602 23.0493 54.9515 20.6633 54.2962C19.199 53.8942 17.7339 53.4957 16.2681 53.0994C15.7114 52.9482 15.1551 52.7956 14.5991 52.6417C13.8227 52.4269 13.0452 52.2166 12.2674 52.0071C12.0394 51.9429 11.8114 51.8787 11.5766 51.8125C10.2429 51.4593 9.26025 51.3602 7.91035 51.6798C7.64668 51.9435 7.64668 51.9435 7.59724 52.8498C7.64668 53.7892 7.64668 53.7892 8.17402 54.3165C8.64156 54.4889 8.64156 54.4889 9.21651 54.6413C9.43445 54.7001 9.6524 54.7588 9.87695 54.8193C10.1166 54.8819 10.3563 54.9445 10.6032 55.009C10.8554 55.0764 11.1076 55.1438 11.3674 55.2132C12.2059 55.4368 13.045 55.6579 13.8842 55.879C14.4692 56.0345 15.0541 56.1902 15.639 56.3461C17.1851 56.7576 18.7318 57.1671 20.2786 57.576C22.1403 58.0686 24.0013 58.5635 25.8623 59.0582C27.5863 59.5164 29.3106 59.9737 31.0351 60.4299C31.809 60.6353 32.5824 60.8426 33.3557 61.0502C34.3028 61.3042 35.2516 61.5488 36.2031 61.786C36.6312 61.8962 37.0593 62.0064 37.4874 62.1167C37.6787 62.1621 37.87 62.2075 38.0671 62.2543C40.082 62.7836 40.9844 64.1232 42.0064 65.8357C42.1011 65.9888 42.1957 66.1419 42.2933 66.2997C42.8155 67.1056 42.8155 67.1056 42.9787 68.0275C39.6359 67.2632 36.3198 66.415 33.0066 65.5318C32.4904 65.3946 31.9742 65.2574 31.4581 65.1202C30.3841 64.8346 29.3103 64.5484 28.2366 64.262C26.8716 63.8978 25.5062 63.5355 24.1406 63.1735C23.0772 62.8914 22.014 62.6081 20.9509 62.3245C20.448 62.1905 19.9449 62.0569 19.4418 61.9237C10.5631 59.8451 10.5631 59.8451 3.79047 54.1847C3.33366 53.0219 3.12115 52.1159 3.42792 50.8888C5.08813 47.9821 8.31535 46.988 11.3381 46.1427C11.7896 45.9976 12.2402 45.8497 12.6894 45.6977C12.8695 45.6369 13.0497 45.5761 13.2353 45.5134C13.3923 45.46 13.5493 45.4067 13.7111 45.3517C14.7952 44.9903 15.5909 45.3372 16.6486 45.6483C17.0822 45.7706 17.5158 45.8928 17.9494 46.015C18.6314 46.2099 19.3129 46.406 19.9941 46.6036C20.6524 46.7937 21.3118 46.9792 21.9715 47.1644C22.1729 47.2243 22.3743 47.2841 22.5817 47.3458C23.8436 47.6973 24.7977 47.7617 26.1037 47.461C26.3674 47.1974 26.3674 47.1974 26.4663 46.3075C26.4336 45.9921 26.401 45.6766 26.3674 45.3517C25.4975 44.7023 24.6383 44.4 23.5937 44.1373C23.3243 44.0685 23.0549 43.9997 22.7774 43.9288C22.4992 43.8599 22.221 43.7911 21.9344 43.7202C21.6511 43.6483 21.3678 43.5764 21.0759 43.5024C20.3793 43.3259 19.6822 43.1514 18.9846 42.9786C18.9846 42.8046 18.9846 42.6306 18.9846 42.4513C19.6543 42.2357 20.3245 42.0217 20.9951 41.8086C21.183 41.7479 21.371 41.6872 21.5646 41.6247C24.3927 40.7296 26.9041 40.6404 29.8018 41.3071ZM70.257 70.8738C70.457 70.9273 70.6569 70.9809 70.863 71.0361C71.5283 71.2149 72.1926 71.3968 72.8571 71.5788C73.3242 71.705 73.7914 71.831 74.2586 71.9568C75.4958 72.2905 76.7323 72.6269 77.9686 72.9638C79.1996 73.2988 80.4312 73.6314 81.6628 73.9642C83.553 74.4752 85.4428 74.9875 87.3324 75.5009C90.476 76.355 93.6216 77.2021 96.7678 78.047C96.7678 78.134 96.7678 78.221 96.7678 78.3107C88.6604 78.4635 80.9701 77.6031 73.0373 75.9376C72.7603 75.8897 72.4833 75.8419 72.1979 75.7926C70.8461 75.5157 70.0667 75.257 69.2769 74.0888C69.0541 73.683 68.8409 73.2717 68.6373 72.8559C68.4683 72.5406 68.4683 72.5406 68.2958 72.2189C68.0217 71.7045 67.7572 71.1873 67.5002 70.6642C68.5311 70.3205 69.2463 70.5935 70.257 70.8738Z" fill="#6A18A4"/>
<path d="M47.56 50.6415C46.6701 50.8887 46.6701 50.8887 46.1427 51.6797C46.1922 52.619 46.1922 52.619 46.4064 53.5254C47.1974 54.0528 47.1974 54.0528 48.1367 53.9868C49.0431 53.7891 49.0431 53.7891 49.5705 53.2617C49.6935 52.3182 49.6765 51.8452 49.1585 51.037C48.5158 50.625 48.5158 50.625 47.56 50.6415Z" fill="#6A18A4"/>
<path d="M65.6544 55.6347C65.0117 56.0631 65.0117 56.0631 64.5997 56.6894C64.6168 57.5264 64.7403 58.0593 65.16 58.7822C65.9699 59.2412 66.6257 59.0054 67.5001 58.7987C68.0275 58.2714 68.0275 58.2714 68.1099 57.365C68.0275 56.4257 68.0275 56.4257 67.7308 55.9148C66.9899 55.4949 66.4909 55.5152 65.6544 55.6347Z" fill="#6A18A4"/>
<path d="M37.7051 48.252C37.1942 48.5487 37.1942 48.5487 36.914 49.043C36.8101 49.8745 36.7604 50.3906 37.2272 51.103C37.8412 51.5053 38.2911 51.6262 39.0234 51.6798C39.737 51.4221 39.9997 51.3093 40.3418 50.6251C40.4588 49.2496 40.4588 49.2496 40.0616 48.5487C39.2589 48.0826 38.6113 48.1549 37.7051 48.252Z" fill="#6A18A4"/>
<path d="M74.619 58.2715C74.0917 58.8483 74.0917 58.8483 73.828 59.5899C74.0093 60.4468 74.0093 60.4468 74.3554 61.1719C75.0933 61.5409 75.6487 61.5022 76.4648 61.4356C76.9591 61.1555 76.9591 61.1555 77.2558 60.6446C77.3711 59.7217 77.3711 59.7217 77.2558 58.7989C76.4745 57.8373 75.746 57.8879 74.619 58.2715Z" fill="#6A18A4"/>
<path d="M84.1112 60.6444C83.6169 60.9246 83.6169 60.9246 83.3202 61.4354C83.2049 62.3583 83.2049 62.3583 83.3202 63.2812C83.7487 63.8085 83.7487 63.8085 84.3749 64.0722C85.3434 64.0141 85.7907 63.9747 86.4843 63.2812C86.5636 62.7868 86.5636 62.7868 86.5667 62.2265C86.5711 62.0416 86.5755 61.8567 86.5801 61.6662C86.5485 61.503 86.5169 61.3399 86.4843 61.1718C85.5696 60.562 85.1865 60.5324 84.1112 60.6444Z" fill="#6A18A4"/>
<path d="M56.162 53.2618C55.6347 53.6903 55.6347 53.6903 55.371 54.3165C55.4291 55.285 55.4685 55.7324 56.162 56.4259C57.7579 56.571 57.7579 56.571 58.5186 56.1293C58.9317 55.4003 58.9015 54.875 58.7988 54.0529C58.1986 52.9937 57.2714 53.1232 56.162 53.2618Z" fill="#6A18A4"/>
</g>
<defs>
<clipPath id="clip0_5147_8081">
<rect width="135" height="135" fill="white" transform="matrix(-1 0 0 1 135 0)"/>
</clipPath>
</defs>
</svg>
