<svg width="298" height="210" viewBox="0 0 298 210" fill="none" xmlns="http://www.w3.org/2000/svg">
<path d="M43.4444 124.5V132H39.8444V111.6H46.6544C48.7144 111.6 50.2944 112.13 51.3944 113.19C52.5144 114.23 53.0744 115.63 53.0744 117.39V118.68C53.0744 119.84 52.8244 120.86 52.3244 121.74C51.8244 122.62 51.1044 123.29 50.1644 123.75C51.8044 126.55 53.2044 129.3 54.3644 132H50.2544C49.2544 129.5 48.0644 127 46.6844 124.5H43.4444ZM46.6544 114.9H43.4444V121.2H46.6544C47.5344 121.2 48.2044 120.98 48.6644 120.54C49.1444 120.08 49.3844 119.46 49.3844 118.68V117.39C49.3844 116.63 49.1444 116.03 48.6644 115.59C48.2044 115.13 47.5344 114.9 46.6544 114.9ZM72.2257 131.13C71.1857 131.55 70.2057 131.85 69.2857 132.03C68.3657 132.21 67.4957 132.3 66.6757 132.3C64.4157 132.3 62.7057 131.66 61.5457 130.38C60.3857 129.1 59.8057 127.4 59.8057 125.28V123.48C59.8057 122.06 60.0657 120.83 60.5857 119.79C61.1057 118.75 61.8457 117.94 62.8057 117.36C63.7657 116.78 64.8957 116.49 66.1957 116.49C67.2557 116.49 68.2457 116.71 69.1657 117.15C70.1057 117.57 70.8657 118.24 71.4457 119.16C72.0457 120.06 72.3457 121.22 72.3457 122.64C72.3457 123.06 72.3157 123.51 72.2557 123.99C72.1957 124.45 72.0957 124.94 71.9557 125.46H63.1357C63.1757 126.7 63.4857 127.63 64.0657 128.25C64.6457 128.87 65.5757 129.18 66.8557 129.18C67.5357 129.18 68.2357 129.1 68.9557 128.94C69.6957 128.78 70.4557 128.54 71.2357 128.22L72.2257 131.13ZM66.1957 119.4C65.2757 119.4 64.5557 119.7 64.0357 120.3C63.5357 120.88 63.2457 121.72 63.1657 122.82H68.9257C68.9457 122.72 68.9557 122.63 68.9557 122.55C68.9557 122.45 68.9557 122.36 68.9557 122.28C68.9557 121.32 68.6857 120.6 68.1457 120.12C67.6057 119.64 66.9557 119.4 66.1957 119.4ZM82.8602 113.91H79.2302V110.34H82.8602V113.91ZM76.2002 138.69V135.45C77.2002 135.45 77.9702 135.21 78.5102 134.73C79.0502 134.25 79.3202 133.38 79.3202 132.12V116.79H82.7702V132.12C82.7702 133.26 82.5802 134.33 82.2002 135.33C81.8402 136.33 81.1802 137.14 80.2202 137.76C79.2802 138.38 77.9402 138.69 76.2002 138.69ZM102.973 123.48V125.28C102.973 127.4 102.393 129.1 101.233 130.38C100.073 131.66 98.4333 132.3 96.3133 132.3C94.1933 132.3 92.5533 131.66 91.3933 130.38C90.2333 129.1 89.6533 127.4 89.6533 125.28V123.48C89.6533 121.36 90.2233 119.67 91.3633 118.41C92.5233 117.13 94.1733 116.49 96.3133 116.49C98.4533 116.49 100.093 117.13 101.233 118.41C102.393 119.67 102.973 121.36 102.973 123.48ZM99.4333 123.48C99.4333 122.26 99.1633 121.31 98.6233 120.63C98.0833 119.93 97.3133 119.58 96.3133 119.58C95.3133 119.58 94.5433 119.93 94.0033 120.63C93.4633 121.31 93.1933 122.26 93.1933 123.48V125.28C93.1933 126.5 93.4633 127.46 94.0033 128.16C94.5433 128.86 95.3133 129.21 96.3133 129.21C97.3133 129.21 98.0833 128.86 98.6233 128.16C99.1633 127.46 99.4333 126.5 99.4333 125.28V123.48ZM113.382 113.91H109.752V110.34H113.382V113.91ZM113.292 132H109.842V116.79H113.292V132ZM133.675 133.53C133.675 135.15 133.035 136.41 131.755 137.31C130.495 138.23 128.735 138.69 126.475 138.69C125.415 138.69 124.295 138.57 123.115 138.33C121.935 138.09 120.845 137.69 119.845 137.13L120.835 134.4C121.795 134.88 122.745 135.22 123.685 135.42C124.625 135.64 125.545 135.75 126.445 135.75C127.705 135.75 128.665 135.58 129.325 135.24C129.985 134.9 130.315 134.45 130.315 133.89C130.315 133.03 129.805 132.6 128.785 132.6H125.185C124.205 132.6 123.415 132.44 122.815 132.12C122.215 131.8 121.775 131.39 121.495 130.89C121.215 130.37 121.075 129.83 121.075 129.27C121.075 128.69 121.195 128.15 121.435 127.65C121.695 127.13 122.045 126.65 122.485 126.21C121.765 125.77 121.185 125.18 120.745 124.44C120.325 123.7 120.115 122.81 120.115 121.77C120.115 120.59 120.365 119.61 120.865 118.83C121.365 118.05 122.045 117.47 122.905 117.09C123.785 116.69 124.755 116.49 125.815 116.49H126.325C126.725 116.49 127.115 116.52 127.495 116.58C127.875 116.62 128.235 116.69 128.575 116.79H134.005V119.73L131.005 119.25C131.305 119.57 131.535 119.97 131.695 120.45C131.875 120.91 131.965 121.48 131.965 122.16C131.965 123.18 131.705 124.06 131.185 124.8C130.685 125.52 130.005 126.08 129.145 126.48C128.305 126.86 127.365 127.05 126.325 127.05H125.815C125.415 127.05 125.035 127.02 124.675 126.96C124.455 127.2 124.295 127.45 124.195 127.71C124.095 127.95 124.045 128.18 124.045 128.4C124.045 129.1 124.495 129.45 125.395 129.45H129.055C130.435 129.45 131.545 129.81 132.385 130.53C133.245 131.23 133.675 132.23 133.675 133.53ZM126.325 124.23C126.945 124.23 127.485 124.02 127.945 123.6C128.425 123.18 128.665 122.57 128.665 121.77C128.665 120.97 128.425 120.36 127.945 119.94C127.485 119.52 126.945 119.31 126.325 119.31H125.815C125.175 119.31 124.615 119.52 124.135 119.94C123.675 120.36 123.445 120.97 123.445 121.77C123.445 122.57 123.675 123.18 124.135 123.6C124.615 124.02 125.175 124.23 125.815 124.23H126.325ZM147.422 119.7C146.922 119.7 146.352 119.82 145.712 120.06C145.072 120.3 144.312 120.77 143.432 121.47V132H139.982V116.79H143.252V118.83C144.192 118.01 145.082 117.42 145.922 117.06C146.762 116.68 147.612 116.49 148.472 116.49C149.932 116.49 151.042 116.96 151.802 117.9C152.562 118.82 152.942 120.12 152.942 121.8V132H149.492V122.22C149.492 120.54 148.802 119.7 147.422 119.7ZM172.052 131.13C171.012 131.55 170.032 131.85 169.112 132.03C168.192 132.21 167.322 132.3 166.502 132.3C164.242 132.3 162.532 131.66 161.372 130.38C160.212 129.1 159.632 127.4 159.632 125.28V123.48C159.632 122.06 159.892 120.83 160.412 119.79C160.932 118.75 161.672 117.94 162.632 117.36C163.592 116.78 164.722 116.49 166.022 116.49C167.082 116.49 168.072 116.71 168.992 117.15C169.932 117.57 170.692 118.24 171.272 119.16C171.872 120.06 172.172 121.22 172.172 122.64C172.172 123.06 172.142 123.51 172.082 123.99C172.022 124.45 171.922 124.94 171.782 125.46H162.962C163.002 126.7 163.312 127.63 163.892 128.25C164.472 128.87 165.402 129.18 166.682 129.18C167.362 129.18 168.062 129.1 168.782 128.94C169.522 128.78 170.282 128.54 171.062 128.22L172.052 131.13ZM166.022 119.4C165.102 119.4 164.382 119.7 163.862 120.3C163.362 120.88 163.072 121.72 162.992 122.82H168.752C168.772 122.72 168.782 122.63 168.782 122.55C168.782 122.45 168.782 122.36 168.782 122.28C168.782 121.32 168.512 120.6 167.972 120.12C167.432 119.64 166.782 119.4 166.022 119.4ZM188.686 129V132H177.826V129.3L184.246 119.79H178.126V116.79H188.386V119.49L181.966 129H188.686ZM213.161 132V129.99C212.241 130.79 211.381 131.38 210.581 131.76C209.781 132.12 208.971 132.3 208.151 132.3C206.791 132.3 205.741 131.84 205.001 130.92C204.261 129.98 203.891 128.67 203.891 126.99V116.79H207.341V126.57C207.341 128.25 207.961 129.09 209.201 129.09C209.701 129.09 210.241 128.97 210.821 128.73C211.421 128.49 212.141 128.03 212.981 127.35V116.79H216.431V132H213.161ZM231.622 119.7C231.122 119.7 230.552 119.82 229.912 120.06C229.272 120.3 228.512 120.77 227.632 121.47V132H224.182V116.79H227.452V118.83C228.392 118.01 229.282 117.42 230.122 117.06C230.962 116.68 231.812 116.49 232.672 116.49C234.132 116.49 235.242 116.96 236.002 117.9C236.762 118.82 237.142 120.12 237.142 121.8V132H233.692V122.22C233.692 120.54 233.002 119.7 231.622 119.7ZM256.251 131.13C255.211 131.55 254.231 131.85 253.311 132.03C252.391 132.21 251.521 132.3 250.701 132.3C248.441 132.3 246.731 131.66 245.571 130.38C244.411 129.1 243.831 127.4 243.831 125.28V123.48C243.831 122.06 244.091 120.83 244.611 119.79C245.131 118.75 245.871 117.94 246.831 117.36C247.791 116.78 248.921 116.49 250.221 116.49C251.281 116.49 252.271 116.71 253.191 117.15C254.131 117.57 254.891 118.24 255.471 119.16C256.071 120.06 256.371 121.22 256.371 122.64C256.371 123.06 256.341 123.51 256.281 123.99C256.221 124.45 256.121 124.94 255.981 125.46H247.161C247.201 126.7 247.511 127.63 248.091 128.25C248.671 128.87 249.601 129.18 250.881 129.18C251.561 129.18 252.261 129.1 252.981 128.94C253.721 128.78 254.481 128.54 255.261 128.22L256.251 131.13ZM250.221 119.4C249.301 119.4 248.581 119.7 248.061 120.3C247.561 120.88 247.271 121.72 247.191 122.82H252.951C252.971 122.72 252.981 122.63 252.981 122.55C252.981 122.45 252.981 122.36 252.981 122.28C252.981 121.32 252.711 120.6 252.171 120.12C251.631 119.64 250.981 119.4 250.221 119.4ZM20.4221 159.51V161.28C20.4221 162.56 20.6521 163.52 21.1121 164.16C21.5721 164.8 22.3121 165.12 23.3321 165.12C23.8321 165.12 24.3921 165.06 25.0121 164.94C25.6521 164.8 26.3421 164.59 27.0821 164.31L28.0721 167.22C27.1721 167.58 26.3221 167.85 25.5221 168.03C24.7221 168.21 23.9321 168.3 23.1521 168.3C21.1521 168.3 19.6221 167.66 18.5621 166.38C17.5021 165.1 16.9721 163.4 16.9721 161.28V159.51C16.9721 157.37 17.5021 155.67 18.5621 154.41C19.6221 153.13 21.1521 152.49 23.1521 152.49C23.9121 152.49 24.6821 152.58 25.4621 152.76C26.2421 152.94 27.0621 153.2 27.9221 153.54L26.9321 156.51C25.4921 155.95 24.2921 155.67 23.3321 155.67C22.3121 155.67 21.5721 155.99 21.1121 156.63C20.6521 157.25 20.4221 158.21 20.4221 159.51ZM46.6794 159.48V161.28C46.6794 163.4 46.0994 165.1 44.9394 166.38C43.7794 167.66 42.1394 168.3 40.0194 168.3C37.8994 168.3 36.2594 167.66 35.0994 166.38C33.9394 165.1 33.3594 163.4 33.3594 161.28V159.48C33.3594 157.36 33.9294 155.67 35.0694 154.41C36.2294 153.13 37.8794 152.49 40.0194 152.49C42.1594 152.49 43.7994 153.13 44.9394 154.41C46.0994 155.67 46.6794 157.36 46.6794 159.48ZM43.1394 159.48C43.1394 158.26 42.8694 157.31 42.3294 156.63C41.7894 155.93 41.0194 155.58 40.0194 155.58C39.0194 155.58 38.2494 155.93 37.7094 156.63C37.1694 157.31 36.8994 158.26 36.8994 159.48V161.28C36.8994 162.5 37.1694 163.46 37.7094 164.16C38.2494 164.86 39.0194 165.21 40.0194 165.21C41.0194 165.21 41.7894 164.86 42.3294 164.16C42.8694 163.46 43.1394 162.5 43.1394 161.28V159.48ZM56.9977 157.47V168H53.5477V152.79H56.8177V154.8C57.7577 153.98 58.6277 153.39 59.4277 153.03C60.2277 152.67 61.0477 152.49 61.8877 152.49C63.7477 152.49 65.0177 153.31 65.6977 154.95C66.6977 154.07 67.6277 153.44 68.4877 153.06C69.3477 152.68 70.2177 152.49 71.0977 152.49C72.4977 152.49 73.5677 152.96 74.3077 153.9C75.0477 154.82 75.4177 156.12 75.4177 157.8V168H71.9677V158.22C71.9677 156.54 71.3277 155.7 70.0477 155.7C69.5477 155.7 68.9977 155.82 68.3977 156.06C67.7977 156.3 67.0677 156.77 66.2077 157.47V168H62.7577V158.22C62.7577 156.54 62.1177 155.7 60.8377 155.7C60.3377 155.7 59.7877 155.82 59.1877 156.06C58.5877 156.3 57.8577 156.77 56.9977 157.47ZM86.4235 157.47V168H82.9735V152.79H86.2435V154.8C87.1835 153.98 88.0535 153.39 88.8535 153.03C89.6535 152.67 90.4735 152.49 91.3135 152.49C93.1735 152.49 94.4435 153.31 95.1235 154.95C96.1235 154.07 97.0535 153.44 97.9135 153.06C98.7735 152.68 99.6435 152.49 100.524 152.49C101.924 152.49 102.994 152.96 103.734 153.9C104.474 154.82 104.844 156.12 104.844 157.8V168H101.394V158.22C101.394 156.54 100.754 155.7 99.4735 155.7C98.9735 155.7 98.4235 155.82 97.8235 156.06C97.2235 156.3 96.4935 156.77 95.6335 157.47V168H92.1835V158.22C92.1835 156.54 91.5435 155.7 90.2635 155.7C89.7635 155.7 89.2135 155.82 88.6135 156.06C88.0135 156.3 87.2835 156.77 86.4235 157.47ZM121.459 168V165.99C120.539 166.79 119.679 167.38 118.879 167.76C118.079 168.12 117.269 168.3 116.449 168.3C115.089 168.3 114.039 167.84 113.299 166.92C112.559 165.98 112.189 164.67 112.189 162.99V152.79H115.639V162.57C115.639 164.25 116.259 165.09 117.499 165.09C117.999 165.09 118.539 164.97 119.119 164.73C119.719 164.49 120.439 164.03 121.279 163.35V152.79H124.729V168H121.459ZM139.919 155.7C139.419 155.7 138.849 155.82 138.209 156.06C137.569 156.3 136.809 156.77 135.929 157.47V168H132.479V152.79H135.749V154.83C136.689 154.01 137.579 153.42 138.419 153.06C139.259 152.68 140.109 152.49 140.969 152.49C142.429 152.49 143.539 152.96 144.299 153.9C145.059 154.82 145.439 156.12 145.439 157.8V168H141.989V158.22C141.989 156.54 141.299 155.7 139.919 155.7ZM164.519 168.15C163.499 168.15 162.679 167.94 162.059 167.52C161.459 167.1 161.019 166.58 160.739 165.96C159.879 166.76 159.049 167.35 158.249 167.73C157.449 168.11 156.589 168.3 155.669 168.3C154.329 168.3 153.339 167.87 152.699 167.01C152.079 166.15 151.769 165.06 151.769 163.74C151.769 162.86 151.929 162.09 152.249 161.43C152.589 160.75 153.139 160.22 153.899 159.84C154.659 159.46 155.699 159.27 157.019 159.27C157.539 159.27 158.079 159.31 158.639 159.39C159.199 159.45 159.759 159.53 160.319 159.63V157.86C160.319 157.02 160.089 156.45 159.629 156.15C159.169 155.83 158.549 155.67 157.769 155.67C157.169 155.67 156.509 155.75 155.789 155.91C155.089 156.07 154.329 156.32 153.509 156.66L152.519 153.72C154.539 152.9 156.369 152.49 158.009 152.49C159.489 152.49 160.629 152.74 161.429 153.24C162.249 153.74 162.819 154.4 163.139 155.22C163.459 156.04 163.619 156.92 163.619 157.86V163.71C163.619 164.01 163.699 164.3 163.859 164.58C164.039 164.84 164.379 164.97 164.879 164.97H165.209V168.15H164.519ZM155.099 163.68C155.099 164.22 155.219 164.65 155.459 164.97C155.699 165.27 156.049 165.42 156.509 165.42C156.969 165.42 157.489 165.3 158.069 165.06C158.649 164.82 159.399 164.26 160.319 163.38V162.09C159.279 161.91 158.259 161.82 157.259 161.82C156.479 161.82 155.919 161.98 155.579 162.3C155.259 162.62 155.099 163.08 155.099 163.68ZM180.264 168V165.99C179.344 166.79 178.484 167.38 177.684 167.76C176.884 168.12 176.074 168.3 175.254 168.3C173.894 168.3 172.844 167.84 172.104 166.92C171.364 165.98 170.994 164.67 170.994 162.99V152.79H174.444V162.57C174.444 164.25 175.064 165.09 176.304 165.09C176.804 165.09 177.344 164.97 177.924 164.73C178.524 164.49 179.244 164.03 180.084 163.35V152.79H183.534V168H180.264ZM200.434 167.49C199.914 167.73 199.314 167.92 198.634 168.06C197.954 168.22 197.264 168.3 196.564 168.3C195.404 168.3 194.474 168.06 193.774 167.58C193.074 167.1 192.564 166.43 192.244 165.57C191.944 164.71 191.794 163.73 191.794 162.63V155.79H189.334V152.79H191.794V148.83H195.244V152.79H199.984V155.79H195.244V162.63C195.244 163.55 195.414 164.19 195.754 164.55C196.114 164.89 196.624 165.06 197.284 165.06C197.604 165.06 197.944 165.03 198.304 164.97C198.684 164.89 199.104 164.76 199.564 164.58L200.434 167.49ZM217.758 167.13C216.718 167.55 215.738 167.85 214.818 168.03C213.898 168.21 213.028 168.3 212.208 168.3C209.948 168.3 208.238 167.66 207.078 166.38C205.918 165.1 205.338 163.4 205.338 161.28V159.48C205.338 158.06 205.598 156.83 206.118 155.79C206.638 154.75 207.378 153.94 208.338 153.36C209.298 152.78 210.428 152.49 211.728 152.49C212.788 152.49 213.778 152.71 214.698 153.15C215.638 153.57 216.398 154.24 216.978 155.16C217.578 156.06 217.878 157.22 217.878 158.64C217.878 159.06 217.848 159.51 217.788 159.99C217.728 160.45 217.628 160.94 217.488 161.46H208.668C208.708 162.7 209.018 163.63 209.598 164.25C210.178 164.87 211.108 165.18 212.388 165.18C213.068 165.18 213.768 165.1 214.488 164.94C215.228 164.78 215.988 164.54 216.768 164.22L217.758 167.13ZM211.728 155.4C210.808 155.4 210.088 155.7 209.568 156.3C209.068 156.88 208.778 157.72 208.698 158.82H214.458C214.478 158.72 214.488 158.63 214.488 158.55C214.488 158.45 214.488 158.36 214.488 158.28C214.488 157.32 214.218 156.6 213.678 156.12C213.138 155.64 212.488 155.4 211.728 155.4ZM213.288 150.63H210.258L213.138 145.65L216.378 147.03L213.288 150.63ZM246.038 154.29V174.39H242.588V165.99C241.668 166.91 240.878 167.53 240.218 167.85C239.558 168.15 238.878 168.3 238.178 168.3C236.578 168.3 235.328 167.68 234.428 166.44C233.548 165.2 233.108 163.46 233.108 161.22V159.6C233.108 157.42 233.648 155.69 234.728 154.41C235.828 153.13 237.408 152.49 239.468 152.49C241.628 152.49 243.818 153.09 246.038 154.29ZM236.648 161.22C236.648 162.56 236.858 163.54 237.278 164.16C237.718 164.78 238.328 165.09 239.108 165.09C239.588 165.09 240.088 164.95 240.608 164.67C241.148 164.39 241.808 163.84 242.588 163.02V156.21C242.048 155.99 241.548 155.83 241.088 155.73C240.648 155.63 240.208 155.58 239.768 155.58C238.668 155.58 237.868 155.94 237.368 156.66C236.888 157.38 236.648 158.36 236.648 159.6V161.22ZM262.735 168V165.99C261.815 166.79 260.955 167.38 260.155 167.76C259.355 168.12 258.545 168.3 257.725 168.3C256.365 168.3 255.315 167.84 254.575 166.92C253.835 165.98 253.465 164.67 253.465 162.99V152.79H256.915V162.57C256.915 164.25 257.535 165.09 258.775 165.09C259.275 165.09 259.815 164.97 260.395 164.73C260.995 164.49 261.715 164.03 262.555 163.35V152.79H266.005V168H262.735ZM277.295 149.91H273.665V146.34H277.295V149.91ZM277.205 168H273.755V152.79H277.205V168ZM5.0266 195.51V197.28C5.0266 198.56 5.2566 199.52 5.7166 200.16C6.1766 200.8 6.9166 201.12 7.9366 201.12C8.4366 201.12 8.9966 201.06 9.6166 200.94C10.2566 200.8 10.9466 200.59 11.6866 200.31L12.6766 203.22C11.7766 203.58 10.9266 203.85 10.1266 204.03C9.3266 204.21 8.5366 204.3 7.7566 204.3C5.7566 204.3 4.2266 203.66 3.1666 202.38C2.1066 201.1 1.5766 199.4 1.5766 197.28V195.51C1.5766 193.37 2.1066 191.67 3.1666 190.41C4.2266 189.13 5.7566 188.49 7.7566 188.49C8.5166 188.49 9.2866 188.58 10.0666 188.76C10.8466 188.94 11.6666 189.2 12.5266 189.54L11.5366 192.51C10.0966 191.95 8.8966 191.67 7.9366 191.67C6.9166 191.67 6.1766 191.99 5.7166 192.63C5.2566 193.25 5.0266 194.21 5.0266 195.51ZM27.8939 204V201.99C26.9739 202.79 26.1139 203.38 25.3139 203.76C24.5139 204.12 23.7039 204.3 22.8839 204.3C21.5239 204.3 20.4739 203.84 19.7339 202.92C18.9939 201.98 18.6239 200.67 18.6239 198.99V188.79H22.0739V198.57C22.0739 200.25 22.6939 201.09 23.9339 201.09C24.4339 201.09 24.9739 200.97 25.5539 200.73C26.1539 200.49 26.8739 200.03 27.7139 199.35V188.79H31.1639V204H27.8939ZM38.8239 199.71V181.8H42.2739V199.71C42.2739 200.01 42.3439 200.3 42.4839 200.58C42.6439 200.84 42.9439 200.97 43.3839 200.97H43.8639V204.15H43.0239C41.8839 204.15 41.0139 203.93 40.4139 203.49C39.8139 203.05 39.3939 202.49 39.1539 201.81C38.9339 201.13 38.8239 200.43 38.8239 199.71ZM59.355 203.49C58.835 203.73 58.235 203.92 57.555 204.06C56.875 204.22 56.185 204.3 55.485 204.3C54.325 204.3 53.395 204.06 52.695 203.58C51.995 203.1 51.485 202.43 51.165 201.57C50.865 200.71 50.715 199.73 50.715 198.63V191.79H48.255V188.79H50.715V184.83H54.165V188.79H58.905V191.79H54.165V198.63C54.165 199.55 54.335 200.19 54.675 200.55C55.035 200.89 55.545 201.06 56.205 201.06C56.525 201.06 56.865 201.03 57.225 200.97C57.605 200.89 58.025 200.76 58.485 200.58L59.355 203.49ZM68.6688 185.91H65.0388V182.34H68.6688V185.91ZM68.5788 204H65.1288V188.79H68.5788V204ZM88.4219 188.79L83.0219 204H79.8719L74.4719 188.79H77.9519L80.5619 196.38L81.5519 199.53L82.5119 196.38L85.0019 188.79H88.4219ZM105.56 203.13C104.52 203.55 103.54 203.85 102.62 204.03C101.7 204.21 100.83 204.3 100.01 204.3C97.7496 204.3 96.0396 203.66 94.8796 202.38C93.7196 201.1 93.1396 199.4 93.1396 197.28V195.48C93.1396 194.06 93.3996 192.83 93.9196 191.79C94.4396 190.75 95.1796 189.94 96.1396 189.36C97.0996 188.78 98.2296 188.49 99.5296 188.49C100.59 188.49 101.58 188.71 102.5 189.15C103.44 189.57 104.2 190.24 104.78 191.16C105.38 192.06 105.68 193.22 105.68 194.64C105.68 195.06 105.65 195.51 105.59 195.99C105.53 196.45 105.43 196.94 105.29 197.46H96.4696C96.5096 198.7 96.8196 199.63 97.3996 200.25C97.9796 200.87 98.9096 201.18 100.19 201.18C100.87 201.18 101.57 201.1 102.29 200.94C103.03 200.78 103.79 200.54 104.57 200.22L105.56 203.13ZM99.5296 191.4C98.6096 191.4 97.8896 191.7 97.3696 192.3C96.8696 192.88 96.5796 193.72 96.4996 194.82H102.26C102.28 194.72 102.29 194.63 102.29 194.55C102.29 194.45 102.29 194.36 102.29 194.28C102.29 193.32 102.02 192.6 101.48 192.12C100.94 191.64 100.29 191.4 99.5296 191.4ZM121.57 199.71V181.8H125.02V199.71C125.02 200.01 125.09 200.3 125.23 200.58C125.39 200.84 125.69 200.97 126.13 200.97H126.61V204.15H125.77C124.63 204.15 123.76 203.93 123.16 203.49C122.56 203.05 122.14 202.49 121.9 201.81C121.68 201.13 121.57 200.43 121.57 199.71ZM144.471 204.15C143.451 204.15 142.631 203.94 142.011 203.52C141.411 203.1 140.971 202.58 140.691 201.96C139.831 202.76 139.001 203.35 138.201 203.73C137.401 204.11 136.541 204.3 135.621 204.3C134.281 204.3 133.291 203.87 132.651 203.01C132.031 202.15 131.721 201.06 131.721 199.74C131.721 198.86 131.881 198.09 132.201 197.43C132.541 196.75 133.091 196.22 133.851 195.84C134.611 195.46 135.651 195.27 136.971 195.27C137.491 195.27 138.031 195.31 138.591 195.39C139.151 195.45 139.711 195.53 140.271 195.63V193.86C140.271 193.02 140.041 192.45 139.581 192.15C139.121 191.83 138.501 191.67 137.721 191.67C137.121 191.67 136.461 191.75 135.741 191.91C135.041 192.07 134.281 192.32 133.461 192.66L132.471 189.72C134.491 188.9 136.321 188.49 137.961 188.49C139.441 188.49 140.581 188.74 141.381 189.24C142.201 189.74 142.771 190.4 143.091 191.22C143.411 192.04 143.571 192.92 143.571 193.86V199.71C143.571 200.01 143.651 200.3 143.811 200.58C143.991 200.84 144.331 200.97 144.831 200.97H145.161V204.15H144.471ZM135.051 199.68C135.051 200.22 135.171 200.65 135.411 200.97C135.651 201.27 136.001 201.42 136.461 201.42C136.921 201.42 137.441 201.3 138.021 201.06C138.601 200.82 139.351 200.26 140.271 199.38V198.09C139.231 197.91 138.211 197.82 137.211 197.82C136.431 197.82 135.871 197.98 135.531 198.3C135.211 198.62 135.051 199.08 135.051 199.68ZM164.422 201.3C165.162 201.3 165.772 201.18 166.252 200.94C166.732 200.68 166.972 200.3 166.972 199.8C166.972 199.36 166.812 199.02 166.492 198.78C166.192 198.52 165.642 198.29 164.842 198.09L163.132 197.64C161.812 197.3 160.832 196.73 160.192 195.93C159.572 195.13 159.262 194.18 159.262 193.08C159.262 191.78 159.712 190.69 160.612 189.81C161.512 188.93 162.902 188.49 164.782 188.49C165.542 188.49 166.342 188.58 167.182 188.76C168.022 188.94 168.902 189.23 169.822 189.63L168.832 192.57C167.992 192.17 167.232 191.89 166.552 191.73C165.872 191.57 165.272 191.49 164.752 191.49C163.332 191.49 162.622 191.97 162.622 192.93C162.622 193.31 162.742 193.61 162.982 193.83C163.242 194.05 163.712 194.25 164.392 194.43L166.102 194.88C167.562 195.26 168.622 195.84 169.282 196.62C169.962 197.4 170.302 198.38 170.302 199.56C170.302 200.96 169.822 202.1 168.862 202.98C167.922 203.86 166.432 204.3 164.392 204.3C162.652 204.3 160.822 203.9 158.902 203.1L159.832 200.25C160.772 200.63 161.622 200.9 162.382 201.06C163.142 201.22 163.822 201.3 164.422 201.3ZM188.394 203.13C187.354 203.55 186.374 203.85 185.454 204.03C184.534 204.21 183.664 204.3 182.844 204.3C180.584 204.3 178.874 203.66 177.714 202.38C176.554 201.1 175.974 199.4 175.974 197.28V195.48C175.974 194.06 176.234 192.83 176.754 191.79C177.274 190.75 178.014 189.94 178.974 189.36C179.934 188.78 181.064 188.49 182.364 188.49C183.424 188.49 184.414 188.71 185.334 189.15C186.274 189.57 187.034 190.24 187.614 191.16C188.214 192.06 188.514 193.22 188.514 194.64C188.514 195.06 188.484 195.51 188.424 195.99C188.364 196.45 188.264 196.94 188.124 197.46H179.304C179.344 198.7 179.654 199.63 180.234 200.25C180.814 200.87 181.744 201.18 183.024 201.18C183.704 201.18 184.404 201.1 185.124 200.94C185.864 200.78 186.624 200.54 187.404 200.22L188.394 203.13ZM182.364 191.4C181.444 191.4 180.724 191.7 180.204 192.3C179.704 192.88 179.414 193.72 179.334 194.82H185.094C185.114 194.72 185.124 194.63 185.124 194.55C185.124 194.45 185.124 194.36 185.124 194.28C185.124 193.32 184.854 192.6 184.314 192.12C183.774 191.64 183.124 191.4 182.364 191.4ZM183.924 186.63H180.894L183.774 181.65L187.014 183.03L183.924 186.63ZM204.068 191.94C203.128 191.94 202.228 192.09 201.368 192.39C200.528 192.67 199.718 193.13 198.938 193.77V204H195.488V188.79H198.758V191.13C199.778 190.17 200.688 189.49 201.488 189.09C202.288 188.69 203.148 188.49 204.068 188.49V191.94ZM221.64 203.13C220.6 203.55 219.62 203.85 218.7 204.03C217.78 204.21 216.91 204.3 216.09 204.3C213.83 204.3 212.12 203.66 210.96 202.38C209.8 201.1 209.22 199.4 209.22 197.28V195.48C209.22 194.06 209.48 192.83 210 191.79C210.52 190.75 211.26 189.94 212.22 189.36C213.18 188.78 214.31 188.49 215.61 188.49C216.67 188.49 217.66 188.71 218.58 189.15C219.52 189.57 220.28 190.24 220.86 191.16C221.46 192.06 221.76 193.22 221.76 194.64C221.76 195.06 221.73 195.51 221.67 195.99C221.61 196.45 221.51 196.94 221.37 197.46H212.55C212.59 198.7 212.9 199.63 213.48 200.25C214.06 200.87 214.99 201.18 216.27 201.18C216.95 201.18 217.65 201.1 218.37 200.94C219.11 200.78 219.87 200.54 220.65 200.22L221.64 203.13ZM215.61 191.4C214.69 191.4 213.97 191.7 213.45 192.3C212.95 192.88 212.66 193.72 212.58 194.82H218.34C218.36 194.72 218.37 194.63 218.37 194.55C218.37 194.45 218.37 194.36 218.37 194.28C218.37 193.32 218.1 192.6 217.56 192.12C217.02 191.64 216.37 191.4 215.61 191.4ZM217.17 186.63H214.14L217.02 181.65L220.26 183.03L217.17 186.63ZM236.174 191.7C235.674 191.7 235.104 191.82 234.464 192.06C233.824 192.3 233.064 192.77 232.184 193.47V204H228.734V188.79H232.004V190.83C232.944 190.01 233.834 189.42 234.674 189.06C235.514 188.68 236.364 188.49 237.224 188.49C238.684 188.49 239.794 188.96 240.554 189.9C241.314 190.82 241.694 192.12 241.694 193.8V204H238.244V194.22C238.244 192.54 237.554 191.7 236.174 191.7ZM252.794 185.91H249.164V182.34H252.794V185.91ZM252.704 204H249.254V188.79H252.704V204ZM269.607 203.49C269.087 203.73 268.487 203.92 267.807 204.06C267.127 204.22 266.437 204.3 265.737 204.3C264.577 204.3 263.647 204.06 262.947 203.58C262.247 203.1 261.737 202.43 261.417 201.57C261.117 200.71 260.967 199.73 260.967 198.63V191.79H258.507V188.79H260.967V184.83H264.417V188.79H269.157V191.79H264.417V198.63C264.417 199.55 264.587 200.19 264.927 200.55C265.287 200.89 265.797 201.06 266.457 201.06C266.777 201.06 267.117 201.03 267.477 200.97C267.857 200.89 268.277 200.76 268.737 200.58L269.607 203.49ZM286.931 203.13C285.891 203.55 284.911 203.85 283.991 204.03C283.071 204.21 282.201 204.3 281.381 204.3C279.121 204.3 277.411 203.66 276.251 202.38C275.091 201.1 274.511 199.4 274.511 197.28V195.48C274.511 194.06 274.771 192.83 275.291 191.79C275.811 190.75 276.551 189.94 277.511 189.36C278.471 188.78 279.601 188.49 280.901 188.49C281.961 188.49 282.951 188.71 283.871 189.15C284.811 189.57 285.571 190.24 286.151 191.16C286.751 192.06 287.051 193.22 287.051 194.64C287.051 195.06 287.021 195.51 286.961 195.99C286.901 196.45 286.801 196.94 286.661 197.46H277.841C277.881 198.7 278.191 199.63 278.771 200.25C279.351 200.87 280.281 201.18 281.561 201.18C282.241 201.18 282.941 201.1 283.661 200.94C284.401 200.78 285.161 200.54 285.941 200.22L286.931 203.13ZM280.901 191.4C279.981 191.4 279.261 191.7 278.741 192.3C278.241 192.88 277.951 193.72 277.871 194.82H283.631C283.651 194.72 283.661 194.63 283.661 194.55C283.661 194.45 283.661 194.36 283.661 194.28C283.661 193.32 283.391 192.6 282.851 192.12C282.311 191.64 281.661 191.4 280.901 191.4ZM282.461 186.63H279.431L282.311 181.65L285.551 183.03L282.461 186.63ZM296.635 204H293.005V200.43H296.635V204Z" fill="#6A18A4"/>
<path d="M132.429 42.8114C132.735 42.8325 133.041 42.8536 133.348 42.8745C133.991 42.9187 134.634 42.9634 135.277 43.0085C136.943 43.1255 138.61 43.238 140.277 43.3507C140.521 43.3673 140.521 43.3673 140.77 43.3842C143.304 43.5558 145.839 43.7159 148.375 43.8424C148.51 43.8492 148.644 43.8561 148.783 43.8631C149.577 43.9031 150.372 43.9384 151.167 43.9706C151.508 43.9847 151.85 43.9996 152.191 44.015C156.17 44.1929 160.145 44.2246 164.128 44.2241C164.83 44.2241 165.532 44.2255 166.234 44.2282C170.802 44.2453 175.314 44.1824 179.852 43.5958C181.536 43.4403 183.062 43.7074 184.454 44.7193C185.818 45.9695 186.384 47.3594 186.485 49.1932C186.435 50.5833 186.021 51.7581 185.178 52.8673C184.179 53.7709 183.064 54.3676 181.837 54.9016C181.668 54.976 181.499 55.0505 181.325 55.1273C172.482 58.9506 162.905 61.0057 153.269 60.9809C152.769 60.9798 152.27 60.9809 151.77 60.9821C151.451 60.982 151.132 60.9818 150.814 60.9814C150.665 60.9818 150.516 60.9822 150.362 60.9826C149.321 60.9779 149.321 60.9779 148.881 60.7579C148.872 60.948 148.862 61.1381 148.853 61.334C148.727 63.7605 148.499 66.173 148.254 68.59C148.222 68.9002 148.222 68.9002 148.191 69.2166C148.081 70.3063 147.97 71.3959 147.858 72.4855C147.744 73.6082 147.632 74.7312 147.521 75.8543C147.435 76.7223 147.346 77.59 147.257 78.4577C147.215 78.872 147.173 79.2863 147.133 79.7007C147.076 80.2777 147.017 80.8543 146.956 81.4309C146.94 81.601 146.924 81.7711 146.908 81.9464C146.81 82.8416 146.689 83.5004 146.119 84.2325C145.585 84.4998 145.165 84.4565 144.567 84.4588C144.32 84.4602 144.073 84.4616 143.819 84.4631C143.544 84.4636 143.269 84.4642 142.994 84.4647C142.706 84.4659 142.418 84.4672 142.129 84.4686C141.345 84.4721 140.56 84.4741 139.775 84.4758C139.286 84.4768 138.796 84.478 138.306 84.4792C136.774 84.483 135.242 84.4858 133.709 84.4874C131.939 84.4893 130.169 84.4945 128.4 84.5025C127.032 84.5085 125.665 84.5114 124.298 84.512C123.481 84.5125 122.664 84.5143 121.847 84.5192C121.078 84.5238 120.31 84.5247 119.542 84.5226C119.259 84.5225 118.977 84.5238 118.695 84.5265C118.31 84.53 117.925 84.5281 117.54 84.526C117.217 84.5267 117.217 84.5267 116.887 84.5274C116.198 84.4062 115.969 84.1849 115.543 83.6407C115.391 83.1399 115.391 83.1399 115.316 82.575C115.287 82.3658 115.258 82.1565 115.228 81.9409C115.202 81.7207 115.176 81.5004 115.149 81.2735C115.122 81.0546 115.095 80.8356 115.067 80.61C114.987 79.9397 114.913 79.2691 114.84 78.5981C114.791 78.1457 114.742 77.6934 114.692 77.2411C114.67 77.0444 114.649 76.8477 114.627 76.6451C114.569 76.1216 114.569 76.1216 114.359 75.5528C114.309 75.7807 114.258 76.0086 114.206 76.2434C114.017 77.0912 113.825 77.9385 113.633 78.7856C113.551 79.1519 113.469 79.5183 113.387 79.8848C113.27 80.4126 113.15 80.9398 113.03 81.4669C112.994 81.6301 112.959 81.7933 112.922 81.9615C112.726 82.8124 112.522 83.5184 111.992 84.2325C111.491 84.4832 111.131 84.4603 110.569 84.4678C110.355 84.471 110.14 84.4742 109.919 84.4774C108.938 84.4862 107.957 84.4943 106.976 84.4988C106.458 84.5021 105.94 84.5075 105.421 84.515C104.676 84.5258 103.93 84.5301 103.185 84.533C102.953 84.5375 102.721 84.542 102.482 84.5466C100.902 84.5425 100.902 84.5425 100.201 84.0288C99.6271 82.6414 100.065 81.2094 100.417 79.8136C100.49 79.5145 100.49 79.5145 100.565 79.2093C100.726 78.5528 100.89 77.897 101.053 77.2411C101.167 76.7817 101.28 76.3222 101.393 75.8627C101.69 74.6535 101.99 73.4448 102.291 72.2363C102.534 71.2563 102.775 70.2759 103.017 69.2955C106.539 55.0018 106.539 55.0018 110.217 50.5001C110.328 50.3564 110.439 50.2127 110.553 50.0647C114.006 45.7834 119.863 43.2853 125.206 42.6778C127.605 42.448 130.032 42.6391 132.429 42.8114ZM114.754 50.6974C114.654 50.7881 114.554 50.8788 114.45 50.9723C112.795 52.4903 111.525 54.0741 110.414 56.0235C110.318 56.1891 110.221 56.3546 110.121 56.5252C108.682 59.1771 108.116 62.351 107.41 65.2611C107.315 65.649 107.22 66.0368 107.125 66.4247C106.927 67.2316 106.731 68.0386 106.535 68.8458C106.284 69.8745 106.033 70.9028 105.78 71.931C105.585 72.7296 105.39 73.5285 105.195 74.3274C105.103 74.7065 105.01 75.0856 104.917 75.4646C104.787 75.9955 104.658 76.5267 104.529 77.0579C104.473 77.2867 104.473 77.2867 104.415 77.5202C104.114 78.7703 103.92 79.9947 103.707 81.2735C105.66 81.2735 107.613 81.2735 109.625 81.2735C109.797 80.5104 109.797 80.5104 109.972 79.7319C110.35 78.0501 110.733 76.3692 111.117 74.6888C111.35 73.67 111.582 72.651 111.81 71.6313C112.031 70.6469 112.255 69.6635 112.482 68.6805C112.568 68.3055 112.652 67.9303 112.735 67.5548C112.852 67.0284 112.974 66.5031 113.096 65.978C113.13 65.8229 113.163 65.6678 113.197 65.508C113.431 64.5336 113.72 63.9409 114.557 63.3224C115.041 63.2692 115.041 63.2692 115.506 63.3593C115.662 63.3865 115.818 63.4138 115.978 63.4418C116.095 63.4675 116.212 63.4932 116.332 63.5196C116.937 67.2021 117.333 70.9085 117.75 74.6158C117.998 76.8129 118.246 79.0099 118.502 81.2735C126.769 81.2735 135.037 81.2735 143.555 81.2735C144.534 72.2111 144.534 72.2111 145.437 63.1411C145.505 62.4258 145.575 61.7109 145.647 60.996C145.676 60.6802 145.676 60.6802 145.705 60.3581C145.89 58.5544 145.89 58.5544 146.514 57.7989C146.994 57.5589 147.289 57.5816 147.825 57.5886C148.113 57.5915 148.113 57.5915 148.406 57.5944C148.615 57.5973 148.824 57.6002 149.04 57.6032C149.486 57.6072 149.933 57.611 150.38 57.6147C150.615 57.6167 150.849 57.6188 151.091 57.6209C157.011 57.6651 157.011 57.6651 162.887 57.0099C163.242 56.9495 163.242 56.9495 163.604 56.8879C169.358 55.8769 174.905 54.287 180.258 51.9426C180.422 51.8723 180.585 51.802 180.753 51.7296C181.802 51.2561 182.737 50.7499 183.205 49.637C183.205 48.6753 182.817 47.9795 182.206 47.2575C180.814 46.5168 179.082 47.0081 177.575 47.1861C173.694 47.631 169.772 47.5893 165.87 47.5904C165.727 47.5905 165.583 47.5906 165.435 47.5907C155.315 47.5939 145.223 47.0537 135.132 46.3171C131.196 46.0246 131.196 46.0246 127.25 45.9198C126.999 45.9195 126.999 45.9195 126.742 45.9191C122.417 45.9647 117.946 47.7816 114.754 50.6974Z" fill="#6A18A4"/>
<path d="M186.361 55.6289C187.149 56.4031 187.407 57.2432 187.707 58.2735C187.757 58.4408 187.808 58.6081 187.86 58.7805C188.028 59.3403 188.193 59.9011 188.358 60.4619C188.478 60.8603 188.597 61.2586 188.716 61.6568C189.046 62.7594 189.372 63.8628 189.698 64.9665C189.92 65.7167 190.143 66.4666 190.366 67.2164C190.836 68.799 191.305 70.3819 191.774 71.965C191.83 72.1542 191.83 72.1542 191.887 72.3473C192.348 73.907 192.807 75.4675 193.261 77.0295C193.397 77.4985 193.535 77.9673 193.673 78.4359C193.875 79.1189 194.073 79.8027 194.271 80.4867C194.332 80.6915 194.393 80.8963 194.456 81.1073C194.51 81.2968 194.564 81.4863 194.62 81.6816C194.668 81.8464 194.716 82.0112 194.766 82.181C194.859 82.7458 194.829 83.0974 194.646 83.6406C194.222 84.2205 193.995 84.4054 193.282 84.5312C193.059 84.5324 192.836 84.5337 192.606 84.5349C192.353 84.5381 192.099 84.5412 191.838 84.5444C191.562 84.5436 191.286 84.5426 191.01 84.5414C190.726 84.5425 190.442 84.5437 190.158 84.5451C189.563 84.5472 188.968 84.5463 188.374 84.5434C187.613 84.54 186.852 84.5447 186.091 84.5516C185.504 84.5559 184.918 84.5556 184.331 84.554C184.051 84.5538 183.77 84.5552 183.49 84.5581C183.097 84.5616 182.704 84.558 182.311 84.5542C182.088 84.554 181.865 84.5538 181.635 84.5536C180.847 84.3908 180.557 84.0532 180.049 83.4434C179.738 82.8968 179.738 82.8968 179.478 82.3114C179.383 82.101 179.288 81.8906 179.191 81.6738C179.095 81.4562 179 81.2387 178.902 81.0145C178.803 80.7932 178.704 80.5718 178.602 80.3438C178.359 79.7997 178.118 79.2548 177.879 78.709C177.876 78.8413 177.873 78.9736 177.87 79.1098C177.855 79.712 177.836 80.3139 177.817 80.9159C177.81 81.2281 177.81 81.2281 177.804 81.5466C177.797 81.7481 177.79 81.9497 177.782 82.1573C177.777 82.3422 177.772 82.5271 177.767 82.7176C177.666 83.3407 177.456 83.7223 177.09 84.2324C176.584 84.4853 176.223 84.4562 175.657 84.4587C175.437 84.4601 175.217 84.4616 174.99 84.463C174.747 84.4635 174.504 84.4641 174.254 84.4646C174 84.4659 173.745 84.4672 173.483 84.4685C172.783 84.472 172.083 84.4741 171.383 84.4757C170.946 84.4767 170.509 84.4779 170.072 84.4791C168.705 84.4829 167.338 84.4857 165.971 84.4874C164.392 84.4893 162.814 84.4945 161.235 84.5024C160.015 84.5084 158.795 84.5113 157.575 84.512C156.847 84.5124 156.118 84.5142 155.389 84.5192C154.576 84.5246 153.763 84.5238 152.951 84.5224C152.709 84.5249 152.467 84.5275 152.218 84.5301C151.886 84.528 151.886 84.528 151.547 84.5259C151.259 84.5266 151.259 84.5266 150.965 84.5273C150.311 84.4012 150.076 84.1578 149.67 83.6406C149.325 81.547 149.809 79.1597 150.037 77.0623C150.076 76.7015 150.114 76.3407 150.152 75.98C150.233 75.2297 150.314 74.4795 150.396 73.7294C150.501 72.7693 150.602 71.8088 150.702 70.8481C150.78 70.1055 150.86 69.3632 150.941 68.6209C150.98 68.2667 151.017 67.9124 151.054 67.558C151.105 67.064 151.16 66.5705 151.215 66.077C151.229 65.9318 151.244 65.7866 151.259 65.637C151.357 64.7973 151.523 64.1962 152.037 63.5195C152.765 63.034 153.372 63.0316 154.218 62.9848C154.548 62.9633 154.877 62.9417 155.206 62.9201C155.465 62.904 155.465 62.904 155.73 62.8876C159.197 62.6688 162.617 62.3374 166.043 61.7442C166.251 61.7081 166.46 61.672 166.674 61.6348C172.417 60.6141 178.066 59.0276 183.252 56.3203C184.34 55.7688 185.137 55.4155 186.361 55.6289ZM183.239 60.1153C179.132 62.0397 174.799 63.3146 170.383 64.3086C170.22 64.3459 170.057 64.3832 169.89 64.4216C165.606 65.3909 161.217 65.8899 156.838 66.1638C156.63 66.1769 156.422 66.19 156.208 66.2034C156.026 66.2139 155.843 66.2244 155.655 66.2352C155.163 66.2671 155.163 66.2671 154.601 66.4785C153.996 71.4044 153.505 76.3322 153.023 81.2735C160.054 81.2735 167.084 81.2735 174.328 81.2735C174.385 77.6085 174.385 77.6085 174.44 73.9436C174.448 73.4844 174.455 73.0252 174.463 72.566C174.466 72.3273 174.469 72.0885 174.473 71.8426C174.477 71.6144 174.481 71.3862 174.485 71.1511C174.488 70.9531 174.491 70.7551 174.494 70.5511C174.522 70.0854 174.59 69.6861 174.722 69.2402C175.002 69.2015 175.281 69.1649 175.561 69.1293C175.794 69.0984 175.794 69.0984 176.032 69.0669C176.851 69.0249 176.851 69.0249 177.287 69.2402C177.423 69.6333 177.553 70.0282 177.681 70.4238C177.906 70.9456 178.152 71.4563 178.398 71.9681C178.468 72.1156 178.538 72.2631 178.611 72.4151C178.835 72.886 179.059 73.3563 179.284 73.8267C179.577 74.4398 179.869 75.0531 180.161 75.6668C180.233 75.8181 180.305 75.9695 180.379 76.1254C180.983 77.4019 181.56 78.6899 182.124 79.9844C182.389 80.6781 182.389 80.6781 182.81 81.2735C183.408 81.291 184.001 81.2962 184.599 81.2927C184.778 81.2924 184.957 81.2922 185.142 81.2919C185.717 81.2908 186.292 81.2883 186.867 81.2858C187.255 81.2848 187.644 81.2839 188.033 81.2831C188.988 81.2809 189.943 81.2775 190.898 81.2735C190.396 79.1992 189.841 77.1487 189.225 75.105C189.141 74.826 189.057 74.547 188.974 74.2679C188.756 73.5398 188.537 72.8119 188.318 72.0841C188.1 71.3604 187.883 70.6365 187.667 69.9126C187.411 69.0614 187.156 68.2102 186.901 67.3592C186.122 64.7662 185.353 62.1707 184.586 59.5742C184.112 59.5742 183.663 59.9144 183.239 60.1153Z" fill="#6A18A4"/>
<path d="M141.179 17.2029C141.667 17.6307 142.12 18.0743 142.568 18.5429C142.707 18.6782 142.846 18.8135 142.99 18.9529C145.336 21.3656 146.313 24.7008 146.316 28.0117C146.098 31.7642 144.568 35.1272 141.779 37.6777C139.217 39.6599 136.489 40.7169 133.248 40.6983C132.945 40.6967 132.945 40.6967 132.637 40.695C129.004 40.6365 126.228 39.2022 123.606 36.7407C121.141 34.1875 120 30.7866 120.007 27.2846C120.106 23.7524 121.587 20.6128 124.057 18.1114C128.767 13.7256 136.025 13.3559 141.179 17.2029ZM125.685 21.2592C123.781 23.6316 123.159 26.4123 123.434 29.3925C123.91 31.8648 125.38 34.1715 127.434 35.6295C129.845 37.1611 132.426 37.8867 135.245 37.2585C138.113 36.4697 140.302 34.9465 141.779 32.3515C143.026 29.6139 143.356 27.1392 142.371 24.2636C141.228 21.5855 139.276 19.5884 136.589 18.4813C132.706 16.9994 128.434 18.1916 125.685 21.2592Z" fill="#6A18A4"/>
<path d="M169.199 19.7266C169.452 19.8235 169.452 19.8235 169.709 19.9224C172.355 21.0655 174.397 23.4958 175.475 26.1131C176.543 29.1341 176.651 32.3492 175.314 35.3106C173.777 38.2976 171.635 40.492 168.41 41.6231C165.208 42.6131 161.97 42.419 158.966 40.8957C157.843 40.227 156.905 39.3865 155.982 38.4669C155.871 38.3601 155.76 38.2533 155.645 38.1432C153.617 36.0184 152.858 33.0352 152.826 30.1817C153.001 27.2833 153.934 24.914 155.785 22.6856C155.939 22.4945 155.939 22.4945 156.096 22.2996C159.258 18.7622 164.958 17.9225 169.199 19.7266ZM158.51 24.6529C156.805 26.5602 156.09 28.6278 156.18 31.1804C156.456 33.7692 157.598 35.5744 159.558 37.2463C161.29 38.5201 163.512 39.1513 165.648 38.8614C167.295 38.5101 168.679 37.9511 169.988 36.8887C170.112 36.7898 170.235 36.6909 170.362 36.589C171.971 35.1481 172.777 33.056 172.99 30.9446C173.099 28.5082 172.183 26.3892 170.566 24.6013C167.134 21.3165 161.945 21.3821 158.51 24.6529Z" fill="#6A18A4"/>
<path d="M129.743 56.6014C129.874 56.671 130.005 56.7407 130.141 56.8125C130.362 56.9231 130.362 56.9231 130.588 57.036C130.7 57.0924 130.813 57.1489 130.93 57.207C131.097 57.085 131.263 56.9629 131.435 56.8372C132.914 55.7549 134.911 55.8602 136.65 56.0234C138.309 56.4854 139.418 57.5721 140.264 59.0379C140.998 60.6147 141.048 62.3763 140.596 64.0497C140.167 65.1492 139.384 65.9891 138.623 66.8731C138.339 67.2218 138.055 67.5711 137.772 67.921C137.016 68.8446 136.245 69.7557 135.472 70.665C134.916 71.3199 134.373 71.9825 133.839 72.6554C133.715 72.811 133.59 72.9667 133.461 73.127C133.219 73.4306 132.98 73.7368 132.744 74.0455C132.183 74.7476 131.875 75.107 131.004 75.3925C130 75.3367 129.524 74.9476 128.843 74.2212C128.666 74.0087 128.49 73.795 128.316 73.5801C128.222 73.4663 128.128 73.3526 128.031 73.2354C127.746 72.8911 127.464 72.5453 127.182 72.1992C127.026 72.0095 126.869 71.8198 126.709 71.6244C126.416 71.2688 126.125 70.9125 125.835 70.5556C125.55 70.206 125.264 69.8572 124.978 69.5092C124.686 69.1542 124.395 68.7982 124.105 68.4412C123.761 68.0194 123.414 67.6016 123.064 67.1851C121.624 65.4467 120.491 63.8051 120.61 61.4421C120.825 59.7435 121.404 58.4121 122.645 57.207C124.741 55.7479 127.42 55.5047 129.743 56.6014ZM124.814 59.7715C124.221 60.4254 124.042 61.0518 123.902 61.9168C124.02 63.7395 125.837 65.2683 126.978 66.5772C127.507 67.1838 128.019 67.8018 128.526 68.4265C129.241 69.308 129.977 70.168 130.732 71.0156C131.437 70.327 132.096 69.6129 132.73 68.858C132.823 68.7479 132.916 68.6377 133.011 68.5242C133.885 67.481 134.729 66.4159 135.56 65.3381C135.864 64.9458 136.172 64.5756 136.502 64.2038C137.162 63.4493 137.527 62.925 137.575 61.9044C137.502 61.0055 137.284 60.4373 136.65 59.7715C135.91 59.3385 135.437 59.1767 134.579 59.192C133.517 59.4764 132.764 59.8617 132.052 60.7085C131.267 61.3652 130.533 61.2383 129.549 61.1524C129.493 61.0308 129.437 60.9093 129.379 60.784C128.968 60.0146 128.357 59.6512 127.564 59.3276C126.535 59.0649 125.698 59.1931 124.814 59.7715Z" fill="#6A18A4"/>
</svg>
