<svg width="316" height="236" viewBox="0 0 316 236" fill="none" xmlns="http://www.w3.org/2000/svg">
<path d="M3.25848 158V137.6H10.1585C12.5985 137.6 14.4585 138.28 15.7385 139.64C17.0185 141 17.6585 143 17.6585 145.64V149.93C17.6585 152.59 17.0185 154.6 15.7385 155.96C14.4585 157.32 12.5985 158 10.1585 158H3.25848ZM10.0085 141.05H6.85848V154.55H10.0085C11.4285 154.55 12.4385 154.2 13.0385 153.5C13.6585 152.8 13.9685 151.61 13.9685 149.93V145.64C13.9685 143.98 13.6585 142.8 13.0385 142.1C12.4385 141.4 11.4285 141.05 10.0085 141.05ZM36.5186 157.13C35.4786 157.55 34.4986 157.85 33.5786 158.03C32.6586 158.21 31.7886 158.3 30.9686 158.3C28.7086 158.3 26.9986 157.66 25.8386 156.38C24.6786 155.1 24.0986 153.4 24.0986 151.28V149.48C24.0986 148.06 24.3586 146.83 24.8786 145.79C25.3986 144.75 26.1386 143.94 27.0986 143.36C28.0586 142.78 29.1886 142.49 30.4886 142.49C31.5486 142.49 32.5386 142.71 33.4586 143.15C34.3986 143.57 35.1586 144.24 35.7386 145.16C36.3386 146.06 36.6386 147.22 36.6386 148.64C36.6386 149.06 36.6086 149.51 36.5486 149.99C36.4886 150.45 36.3886 150.94 36.2486 151.46H27.4286C27.4686 152.7 27.7786 153.63 28.3586 154.25C28.9386 154.87 29.8686 155.18 31.1486 155.18C31.8286 155.18 32.5286 155.1 33.2486 154.94C33.9886 154.78 34.7486 154.54 35.5286 154.22L36.5186 157.13ZM30.4886 145.4C29.5686 145.4 28.8486 145.7 28.3286 146.3C27.8286 146.88 27.5386 147.72 27.4586 148.82H33.2186C33.2386 148.72 33.2486 148.63 33.2486 148.55C33.2486 148.45 33.2486 148.36 33.2486 148.28C33.2486 147.32 32.9786 146.6 32.4386 146.12C31.8986 145.64 31.2486 145.4 30.4886 145.4ZM55.5567 142.79L50.1567 158H47.0067L41.6067 142.79H45.0867L47.6967 150.38L48.6867 153.53L49.6467 150.38L52.1367 142.79H55.5567ZM72.6944 157.13C71.6544 157.55 70.6744 157.85 69.7544 158.03C68.8344 158.21 67.9644 158.3 67.1444 158.3C64.8844 158.3 63.1744 157.66 62.0144 156.38C60.8544 155.1 60.2744 153.4 60.2744 151.28V149.48C60.2744 148.06 60.5344 146.83 61.0544 145.79C61.5744 144.75 62.3144 143.94 63.2744 143.36C64.2344 142.78 65.3644 142.49 66.6644 142.49C67.7244 142.49 68.7144 142.71 69.6344 143.15C70.5744 143.57 71.3344 144.24 71.9144 145.16C72.5144 146.06 72.8144 147.22 72.8144 148.64C72.8144 149.06 72.7844 149.51 72.7244 149.99C72.6644 150.45 72.5644 150.94 72.4244 151.46H63.6044C63.6444 152.7 63.9544 153.63 64.5344 154.25C65.1144 154.87 66.0444 155.18 67.3244 155.18C68.0044 155.18 68.7044 155.1 69.4244 154.94C70.1644 154.78 70.9244 154.54 71.7044 154.22L72.6944 157.13ZM66.6644 145.4C65.7444 145.4 65.0244 145.7 64.5044 146.3C64.0044 146.88 63.7144 147.72 63.6344 148.82H69.3944C69.4144 148.72 69.4244 148.63 69.4244 148.55C69.4244 148.45 69.4244 148.36 69.4244 148.28C69.4244 147.32 69.1544 146.6 68.6144 146.12C68.0744 145.64 67.4244 145.4 66.6644 145.4ZM87.2289 145.7C86.7289 145.7 86.1589 145.82 85.5189 146.06C84.8789 146.3 84.1189 146.77 83.2389 147.47V158H79.7889V142.79H83.0589V144.83C83.9989 144.01 84.8889 143.42 85.7289 143.06C86.5689 142.68 87.4189 142.49 88.2789 142.49C89.7389 142.49 90.8489 142.96 91.6089 143.9C92.3689 144.82 92.7489 146.12 92.7489 147.8V158H89.2989V148.22C89.2989 146.54 88.6089 145.7 87.2289 145.7ZM111.858 157.13C110.818 157.55 109.838 157.85 108.918 158.03C107.998 158.21 107.128 158.3 106.308 158.3C104.048 158.3 102.338 157.66 101.178 156.38C100.018 155.1 99.4385 153.4 99.4385 151.28V149.48C99.4385 148.06 99.6985 146.83 100.218 145.79C100.738 144.75 101.478 143.94 102.438 143.36C103.398 142.78 104.528 142.49 105.828 142.49C106.888 142.49 107.878 142.71 108.798 143.15C109.738 143.57 110.498 144.24 111.078 145.16C111.678 146.06 111.978 147.22 111.978 148.64C111.978 149.06 111.948 149.51 111.888 149.99C111.828 150.45 111.728 150.94 111.588 151.46H102.768C102.808 152.7 103.118 153.63 103.698 154.25C104.278 154.87 105.208 155.18 106.488 155.18C107.168 155.18 107.868 155.1 108.588 154.94C109.328 154.78 110.088 154.54 110.868 154.22L111.858 157.13ZM105.828 145.4C104.908 145.4 104.188 145.7 103.668 146.3C103.168 146.88 102.878 147.72 102.798 148.82H108.558C108.578 148.72 108.588 148.63 108.588 148.55C108.588 148.45 108.588 148.36 108.588 148.28C108.588 147.32 108.318 146.6 107.778 146.12C107.238 145.64 106.588 145.4 105.828 145.4ZM128.493 155V158H117.633V155.3L124.053 145.79H117.933V142.79H128.193V145.49L121.773 155H128.493ZM152.968 158V155.99C152.048 156.79 151.188 157.38 150.388 157.76C149.588 158.12 148.778 158.3 147.958 158.3C146.598 158.3 145.548 157.84 144.808 156.92C144.068 155.98 143.698 154.67 143.698 152.99V142.79H147.148V152.57C147.148 154.25 147.768 155.09 149.008 155.09C149.508 155.09 150.048 154.97 150.628 154.73C151.228 154.49 151.948 154.03 152.788 153.35V142.79H156.238V158H152.968ZM171.428 145.7C170.928 145.7 170.358 145.82 169.718 146.06C169.078 146.3 168.318 146.77 167.438 147.47V158H163.988V142.79H167.258V144.83C168.198 144.01 169.088 143.42 169.928 143.06C170.768 142.68 171.618 142.49 172.478 142.49C173.938 142.49 175.048 142.96 175.808 143.9C176.568 144.82 176.948 146.12 176.948 147.8V158H173.498V148.22C173.498 146.54 172.808 145.7 171.428 145.7ZM196.058 157.13C195.018 157.55 194.038 157.85 193.118 158.03C192.198 158.21 191.328 158.3 190.508 158.3C188.248 158.3 186.538 157.66 185.378 156.38C184.218 155.1 183.638 153.4 183.638 151.28V149.48C183.638 148.06 183.898 146.83 184.418 145.79C184.938 144.75 185.678 143.94 186.638 143.36C187.598 142.78 188.728 142.49 190.028 142.49C191.088 142.49 192.078 142.71 192.998 143.15C193.938 143.57 194.698 144.24 195.278 145.16C195.878 146.06 196.178 147.22 196.178 148.64C196.178 149.06 196.148 149.51 196.088 149.99C196.028 150.45 195.928 150.94 195.788 151.46H186.968C187.008 152.7 187.318 153.63 187.898 154.25C188.478 154.87 189.408 155.18 190.688 155.18C191.368 155.18 192.068 155.1 192.788 154.94C193.528 154.78 194.288 154.54 195.068 154.22L196.058 157.13ZM190.028 145.4C189.108 145.4 188.388 145.7 187.868 146.3C187.368 146.88 187.078 147.72 186.998 148.82H192.758C192.778 148.72 192.788 148.63 192.788 148.55C192.788 148.45 192.788 148.36 192.788 148.28C192.788 147.32 192.518 146.6 191.978 146.12C191.438 145.64 190.788 145.4 190.028 145.4ZM216.418 155.3C217.158 155.3 217.768 155.18 218.248 154.94C218.728 154.68 218.968 154.3 218.968 153.8C218.968 153.36 218.808 153.02 218.488 152.78C218.188 152.52 217.638 152.29 216.838 152.09L215.128 151.64C213.808 151.3 212.828 150.73 212.188 149.93C211.568 149.13 211.258 148.18 211.258 147.08C211.258 145.78 211.708 144.69 212.608 143.81C213.508 142.93 214.898 142.49 216.778 142.49C217.538 142.49 218.338 142.58 219.178 142.76C220.018 142.94 220.898 143.23 221.818 143.63L220.828 146.57C219.988 146.17 219.228 145.89 218.548 145.73C217.868 145.57 217.268 145.49 216.748 145.49C215.328 145.49 214.618 145.97 214.618 146.93C214.618 147.31 214.738 147.61 214.978 147.83C215.238 148.05 215.708 148.25 216.388 148.43L218.098 148.88C219.558 149.26 220.618 149.84 221.278 150.62C221.958 151.4 222.298 152.38 222.298 153.56C222.298 154.96 221.818 156.1 220.858 156.98C219.918 157.86 218.428 158.3 216.388 158.3C214.648 158.3 212.818 157.9 210.898 157.1L211.828 154.25C212.768 154.63 213.618 154.9 214.378 155.06C215.138 155.22 215.818 155.3 216.418 155.3ZM241.29 149.48V151.28C241.29 153.4 240.71 155.1 239.55 156.38C238.39 157.66 236.75 158.3 234.63 158.3C232.51 158.3 230.87 157.66 229.71 156.38C228.55 155.1 227.97 153.4 227.97 151.28V149.48C227.97 147.36 228.54 145.67 229.68 144.41C230.84 143.13 232.49 142.49 234.63 142.49C236.77 142.49 238.41 143.13 239.55 144.41C240.71 145.67 241.29 147.36 241.29 149.48ZM237.75 149.48C237.75 148.26 237.48 147.31 236.94 146.63C236.4 145.93 235.63 145.58 234.63 145.58C233.63 145.58 232.86 145.93 232.32 146.63C231.78 147.31 231.51 148.26 231.51 149.48V151.28C231.51 152.5 231.78 153.46 232.32 154.16C232.86 154.86 233.63 155.21 234.63 155.21C235.63 155.21 236.4 154.86 236.94 154.16C237.48 153.46 237.75 152.5 237.75 151.28V149.48ZM257.218 158V155.99C256.298 156.79 255.438 157.38 254.638 157.76C253.838 158.12 253.028 158.3 252.208 158.3C250.848 158.3 249.798 157.84 249.058 156.92C248.318 155.98 247.948 154.67 247.948 152.99V142.79H251.398V152.57C251.398 154.25 252.018 155.09 253.258 155.09C253.758 155.09 254.298 154.97 254.878 154.73C255.478 154.49 256.198 154.03 257.038 153.35V142.79H260.488V158H257.218ZM276.818 145.94C275.878 145.94 274.978 146.09 274.118 146.39C273.278 146.67 272.468 147.13 271.688 147.77V158H268.238V142.79H271.508V145.13C272.528 144.17 273.438 143.49 274.238 143.09C275.038 142.69 275.898 142.49 276.818 142.49V145.94ZM285.48 149.51V151.28C285.48 152.56 285.71 153.52 286.17 154.16C286.63 154.8 287.37 155.12 288.39 155.12C288.89 155.12 289.45 155.06 290.07 154.94C290.71 154.8 291.4 154.59 292.14 154.31L293.13 157.22C292.23 157.58 291.38 157.85 290.58 158.03C289.78 158.21 288.99 158.3 288.21 158.3C286.21 158.3 284.68 157.66 283.62 156.38C282.56 155.1 282.03 153.4 282.03 151.28V149.51C282.03 147.37 282.56 145.67 283.62 144.41C284.68 143.13 286.21 142.49 288.21 142.49C288.97 142.49 289.74 142.58 290.52 142.76C291.3 142.94 292.12 143.2 292.98 143.54L291.99 146.51C290.55 145.95 289.35 145.67 288.39 145.67C287.37 145.67 286.63 145.99 286.17 146.63C285.71 147.25 285.48 148.21 285.48 149.51ZM310.837 157.13C309.797 157.55 308.817 157.85 307.897 158.03C306.977 158.21 306.107 158.3 305.287 158.3C303.027 158.3 301.317 157.66 300.157 156.38C298.997 155.1 298.417 153.4 298.417 151.28V149.48C298.417 148.06 298.677 146.83 299.197 145.79C299.717 144.75 300.457 143.94 301.417 143.36C302.377 142.78 303.507 142.49 304.807 142.49C305.867 142.49 306.857 142.71 307.777 143.15C308.717 143.57 309.477 144.24 310.057 145.16C310.657 146.06 310.957 147.22 310.957 148.64C310.957 149.06 310.927 149.51 310.867 149.99C310.807 150.45 310.707 150.94 310.567 151.46H301.747C301.787 152.7 302.097 153.63 302.677 154.25C303.257 154.87 304.187 155.18 305.467 155.18C306.147 155.18 306.847 155.1 307.567 154.94C308.307 154.78 309.067 154.54 309.847 154.22L310.837 157.13ZM304.807 145.4C303.887 145.4 303.167 145.7 302.647 146.3C302.147 146.88 301.857 147.72 301.777 148.82H307.537C307.557 148.72 307.567 148.63 307.567 148.55C307.567 148.45 307.567 148.36 307.567 148.28C307.567 147.32 307.297 146.6 306.757 146.12C306.217 145.64 305.567 145.4 304.807 145.4ZM20.4138 194V191.93C19.4938 192.85 18.6938 193.48 18.0138 193.82C17.3538 194.14 16.6638 194.3 15.9438 194.3C14.3038 194.3 13.0238 193.68 12.1038 192.44C11.2038 191.2 10.7538 189.46 10.7538 187.22V185.6C10.7538 183.42 11.3038 181.69 12.4038 180.41C13.5038 179.13 15.0938 178.49 17.1738 178.49C17.6938 178.49 18.2038 178.54 18.7038 178.64C19.2238 178.74 19.7338 178.88 20.2338 179.06V171.8H23.6838V194H20.4138ZM14.2938 187.22C14.2938 188.56 14.5138 189.54 14.9538 190.16C15.4138 190.78 16.0538 191.09 16.8738 191.09C17.3338 191.09 17.8238 190.96 18.3438 190.7C18.8638 190.42 19.4938 189.9 20.2338 189.14V182.18C19.2538 181.78 18.3538 181.58 17.5338 181.58C16.3738 181.58 15.5438 181.94 15.0438 182.66C14.5438 183.38 14.2938 184.36 14.2938 185.6V187.22ZM34.4674 173.6V174.17C34.4674 175.63 34.2574 177.02 33.8374 178.34C33.4174 179.66 32.7074 181.1 31.7074 182.66L29.5474 181.49C30.0274 180.51 30.3774 179.64 30.5974 178.88C30.8174 178.12 30.9574 177.33 31.0174 176.51C31.0774 175.69 31.1074 174.72 31.1074 173.6H34.4674ZM44.3055 175.91H40.6755V172.34H44.3055V175.91ZM44.2155 194H40.7655V178.79H44.2155V194ZM59.4086 181.7C58.9086 181.7 58.3386 181.82 57.6986 182.06C57.0586 182.3 56.2986 182.77 55.4186 183.47V194H51.9686V178.79H55.2386V180.83C56.1786 180.01 57.0686 179.42 57.9086 179.06C58.7486 178.68 59.5986 178.49 60.4586 178.49C61.9186 178.49 63.0286 178.96 63.7886 179.9C64.5486 180.82 64.9286 182.12 64.9286 183.8V194H61.4786V184.22C61.4786 182.54 60.7886 181.7 59.4086 181.7ZM76.7482 191.3C77.4882 191.3 78.0982 191.18 78.5782 190.94C79.0582 190.68 79.2982 190.3 79.2982 189.8C79.2982 189.36 79.1382 189.02 78.8182 188.78C78.5182 188.52 77.9682 188.29 77.1682 188.09L75.4582 187.64C74.1382 187.3 73.1582 186.73 72.5182 185.93C71.8982 185.13 71.5882 184.18 71.5882 183.08C71.5882 181.78 72.0382 180.69 72.9382 179.81C73.8382 178.93 75.2282 178.49 77.1082 178.49C77.8682 178.49 78.6682 178.58 79.5082 178.76C80.3482 178.94 81.2282 179.23 82.1482 179.63L81.1582 182.57C80.3182 182.17 79.5582 181.89 78.8782 181.73C78.1982 181.57 77.5982 181.49 77.0782 181.49C75.6582 181.49 74.9482 181.97 74.9482 182.93C74.9482 183.31 75.0682 183.61 75.3082 183.83C75.5682 184.05 76.0382 184.25 76.7182 184.43L78.4282 184.88C79.8882 185.26 80.9482 185.84 81.6082 186.62C82.2882 187.4 82.6282 188.38 82.6282 189.56C82.6282 190.96 82.1482 192.1 81.1882 192.98C80.2482 193.86 78.7582 194.3 76.7182 194.3C74.9782 194.3 73.1482 193.9 71.2282 193.1L72.1582 190.25C73.0982 190.63 73.9482 190.9 74.7082 191.06C75.4682 191.22 76.1482 191.3 76.7482 191.3ZM95.6798 194.3C95.1798 194.3 94.6698 194.25 94.1498 194.15C93.6498 194.05 93.1398 193.91 92.6198 193.73V200.39H89.1698V178.79H92.4398V180.86C93.3798 179.92 94.1798 179.29 94.8398 178.97C95.4998 178.65 96.1898 178.49 96.9098 178.49C98.5698 178.49 99.8498 179.11 100.75 180.35C101.65 181.59 102.1 183.33 102.1 185.57V187.19C102.1 189.37 101.55 191.1 100.45 192.38C99.3498 193.66 97.7598 194.3 95.6798 194.3ZM95.9798 181.7C95.5198 181.7 95.0298 181.84 94.5098 182.12C94.0098 182.38 93.3798 182.89 92.6198 183.65V190.61C93.5998 191.01 94.4998 191.21 95.3198 191.21C96.4798 191.21 97.3098 190.85 97.8098 190.13C98.3098 189.41 98.5598 188.43 98.5598 187.19V185.57C98.5598 184.23 98.3298 183.25 97.8698 182.63C97.4298 182.01 96.7998 181.7 95.9798 181.7ZM112.643 175.91H109.013V172.34H112.643V175.91ZM112.553 194H109.103V178.79H112.553V194ZM128.887 181.94C127.947 181.94 127.047 182.09 126.187 182.39C125.347 182.67 124.537 183.13 123.757 183.77V194H120.307V178.79H123.577V181.13C124.597 180.17 125.507 179.49 126.307 179.09C127.107 178.69 127.967 178.49 128.887 178.49V181.94ZM146.428 194.15C145.408 194.15 144.588 193.94 143.968 193.52C143.368 193.1 142.928 192.58 142.648 191.96C141.788 192.76 140.958 193.35 140.158 193.73C139.358 194.11 138.498 194.3 137.578 194.3C136.238 194.3 135.248 193.87 134.608 193.01C133.988 192.15 133.678 191.06 133.678 189.74C133.678 188.86 133.838 188.09 134.158 187.43C134.498 186.75 135.048 186.22 135.808 185.84C136.568 185.46 137.608 185.27 138.928 185.27C139.448 185.27 139.988 185.31 140.548 185.39C141.108 185.45 141.668 185.53 142.228 185.63V183.86C142.228 183.02 141.998 182.45 141.538 182.15C141.078 181.83 140.458 181.67 139.678 181.67C139.078 181.67 138.418 181.75 137.698 181.91C136.998 182.07 136.238 182.32 135.418 182.66L134.428 179.72C136.448 178.9 138.278 178.49 139.918 178.49C141.398 178.49 142.538 178.74 143.338 179.24C144.158 179.74 144.728 180.4 145.048 181.22C145.368 182.04 145.528 182.92 145.528 183.86V189.71C145.528 190.01 145.608 190.3 145.768 190.58C145.948 190.84 146.288 190.97 146.788 190.97H147.118V194.15H146.428ZM137.008 189.68C137.008 190.22 137.128 190.65 137.368 190.97C137.608 191.27 137.958 191.42 138.418 191.42C138.878 191.42 139.398 191.3 139.978 191.06C140.558 190.82 141.308 190.26 142.228 189.38V188.09C141.188 187.91 140.168 187.82 139.168 187.82C138.388 187.82 137.828 187.98 137.488 188.3C137.168 188.62 137.008 189.08 137.008 189.68ZM162.263 193.49C161.743 193.73 161.143 193.92 160.463 194.06C159.783 194.22 159.093 194.3 158.393 194.3C157.233 194.3 156.303 194.06 155.603 193.58C154.903 193.1 154.393 192.43 154.073 191.57C153.773 190.71 153.623 189.73 153.623 188.63V181.79H151.163V178.79H153.623V174.83H157.073V178.79H161.813V181.79H157.073V188.63C157.073 189.55 157.243 190.19 157.583 190.55C157.943 190.89 158.453 191.06 159.113 191.06C159.433 191.06 159.773 191.03 160.133 190.97C160.513 190.89 160.933 190.76 161.393 190.58L162.263 193.49ZM171.577 175.91H167.947V172.34H171.577V175.91ZM171.487 194H168.037V178.79H171.487V194ZM191.69 185.48V187.28C191.69 189.4 191.11 191.1 189.95 192.38C188.79 193.66 187.15 194.3 185.03 194.3C182.91 194.3 181.27 193.66 180.11 192.38C178.95 191.1 178.37 189.4 178.37 187.28V185.48C178.37 183.36 178.94 181.67 180.08 180.41C181.24 179.13 182.89 178.49 185.03 178.49C187.17 178.49 188.81 179.13 189.95 180.41C191.11 181.67 191.69 183.36 191.69 185.48ZM188.15 185.48C188.15 184.26 187.88 183.31 187.34 182.63C186.8 181.93 186.03 181.58 185.03 181.58C184.03 181.58 183.26 181.93 182.72 182.63C182.18 183.31 181.91 184.26 181.91 185.48V187.28C181.91 188.5 182.18 189.46 182.72 190.16C183.26 190.86 184.03 191.21 185.03 191.21C186.03 191.21 186.8 190.86 187.34 190.16C187.88 189.46 188.15 188.5 188.15 187.28V185.48ZM205.998 181.7C205.498 181.7 204.928 181.82 204.288 182.06C203.648 182.3 202.888 182.77 202.008 183.47V194H198.558V178.79H201.828V180.83C202.768 180.01 203.658 179.42 204.498 179.06C205.338 178.68 206.188 178.49 207.048 178.49C208.508 178.49 209.618 178.96 210.378 179.9C211.138 180.82 211.518 182.12 211.518 183.8V194H208.068V184.22C208.068 182.54 207.378 181.7 205.998 181.7ZM239.634 193.13C238.594 193.55 237.614 193.85 236.694 194.03C235.774 194.21 234.904 194.3 234.084 194.3C231.824 194.3 230.114 193.66 228.954 192.38C227.794 191.1 227.214 189.4 227.214 187.28V185.48C227.214 184.06 227.474 182.83 227.994 181.79C228.514 180.75 229.254 179.94 230.214 179.36C231.174 178.78 232.304 178.49 233.604 178.49C234.664 178.49 235.654 178.71 236.574 179.15C237.514 179.57 238.274 180.24 238.854 181.16C239.454 182.06 239.754 183.22 239.754 184.64C239.754 185.06 239.724 185.51 239.664 185.99C239.604 186.45 239.504 186.94 239.364 187.46H230.544C230.584 188.7 230.894 189.63 231.474 190.25C232.054 190.87 232.984 191.18 234.264 191.18C234.944 191.18 235.644 191.1 236.364 190.94C237.104 190.78 237.864 190.54 238.644 190.22L239.634 193.13ZM233.604 181.4C232.684 181.4 231.964 181.7 231.444 182.3C230.944 182.88 230.654 183.72 230.574 184.82H236.334C236.354 184.72 236.364 184.63 236.364 184.55C236.364 184.45 236.364 184.36 236.364 184.28C236.364 183.32 236.094 182.6 235.554 182.12C235.014 181.64 234.364 181.4 233.604 181.4ZM255.878 193.49C255.358 193.73 254.758 193.92 254.078 194.06C253.398 194.22 252.708 194.3 252.008 194.3C250.848 194.3 249.918 194.06 249.218 193.58C248.518 193.1 248.008 192.43 247.688 191.57C247.388 190.71 247.238 189.73 247.238 188.63V181.79H244.778V178.79H247.238V174.83H250.688V178.79H255.428V181.79H250.688V188.63C250.688 189.55 250.858 190.19 251.198 190.55C251.558 190.89 252.068 191.06 252.728 191.06C253.048 191.06 253.388 191.03 253.748 190.97C254.128 190.89 254.548 190.76 255.008 190.58L255.878 193.49ZM279.568 194V191.93C278.648 192.85 277.848 193.48 277.168 193.82C276.508 194.14 275.818 194.3 275.098 194.3C273.458 194.3 272.178 193.68 271.258 192.44C270.358 191.2 269.908 189.46 269.908 187.22V185.6C269.908 183.42 270.458 181.69 271.558 180.41C272.658 179.13 274.248 178.49 276.328 178.49C276.848 178.49 277.358 178.54 277.858 178.64C278.378 178.74 278.888 178.88 279.388 179.06V171.8H282.838V194H279.568ZM273.448 187.22C273.448 188.56 273.668 189.54 274.108 190.16C274.568 190.78 275.208 191.09 276.028 191.09C276.488 191.09 276.978 190.96 277.498 190.7C278.018 190.42 278.648 189.9 279.388 189.14V182.18C278.408 181.78 277.508 181.58 276.688 181.58C275.528 181.58 274.698 181.94 274.198 182.66C273.698 183.38 273.448 184.36 273.448 185.6V187.22ZM302.142 193.13C301.102 193.55 300.122 193.85 299.202 194.03C298.282 194.21 297.412 194.3 296.592 194.3C294.332 194.3 292.622 193.66 291.462 192.38C290.302 191.1 289.722 189.4 289.722 187.28V185.48C289.722 184.06 289.982 182.83 290.502 181.79C291.022 180.75 291.762 179.94 292.722 179.36C293.682 178.78 294.812 178.49 296.112 178.49C297.172 178.49 298.162 178.71 299.082 179.15C300.022 179.57 300.782 180.24 301.362 181.16C301.962 182.06 302.262 183.22 302.262 184.64C302.262 185.06 302.232 185.51 302.172 185.99C302.112 186.45 302.012 186.94 301.872 187.46H293.052C293.092 188.7 293.402 189.63 293.982 190.25C294.562 190.87 295.492 191.18 296.772 191.18C297.452 191.18 298.152 191.1 298.872 190.94C299.612 190.78 300.372 190.54 301.152 190.22L302.142 193.13ZM296.112 181.4C295.192 181.4 294.472 181.7 293.952 182.3C293.452 182.88 293.162 183.72 293.082 184.82H298.842C298.862 184.72 298.872 184.63 298.872 184.55C298.872 184.45 298.872 184.36 298.872 184.28C298.872 183.32 298.602 182.6 298.062 182.12C297.522 181.64 296.872 181.4 296.112 181.4ZM94.5343 227.3C95.2743 227.3 95.8843 227.18 96.3643 226.94C96.8443 226.68 97.0843 226.3 97.0843 225.8C97.0843 225.36 96.9243 225.02 96.6043 224.78C96.3043 224.52 95.7543 224.29 94.9543 224.09L93.2443 223.64C91.9243 223.3 90.9443 222.73 90.3043 221.93C89.6843 221.13 89.3743 220.18 89.3743 219.08C89.3743 217.78 89.8243 216.69 90.7243 215.81C91.6243 214.93 93.0143 214.49 94.8943 214.49C95.6543 214.49 96.4543 214.58 97.2943 214.76C98.1343 214.94 99.0143 215.23 99.9343 215.63L98.9443 218.57C98.1043 218.17 97.3443 217.89 96.6643 217.73C95.9843 217.57 95.3843 217.49 94.8643 217.49C93.4443 217.49 92.7343 217.97 92.7343 218.93C92.7343 219.31 92.8543 219.61 93.0943 219.83C93.3543 220.05 93.8243 220.25 94.5043 220.43L96.2143 220.88C97.6743 221.26 98.7343 221.84 99.3943 222.62C100.074 223.4 100.414 224.38 100.414 225.56C100.414 226.96 99.9343 228.1 98.9743 228.98C98.0343 229.86 96.5443 230.3 94.5043 230.3C92.7643 230.3 90.9343 229.9 89.0143 229.1L89.9443 226.25C90.8843 226.63 91.7343 226.9 92.4943 227.06C93.2543 227.22 93.9343 227.3 94.5343 227.3ZM118.506 229.13C117.466 229.55 116.486 229.85 115.566 230.03C114.646 230.21 113.776 230.3 112.956 230.3C110.696 230.3 108.986 229.66 107.826 228.38C106.666 227.1 106.086 225.4 106.086 223.28V221.48C106.086 220.06 106.346 218.83 106.866 217.79C107.386 216.75 108.126 215.94 109.086 215.36C110.046 214.78 111.176 214.49 112.476 214.49C113.536 214.49 114.526 214.71 115.446 215.15C116.386 215.57 117.146 216.24 117.726 217.16C118.326 218.06 118.626 219.22 118.626 220.64C118.626 221.06 118.596 221.51 118.536 221.99C118.476 222.45 118.376 222.94 118.236 223.46H109.416C109.456 224.7 109.766 225.63 110.346 226.25C110.926 226.87 111.856 227.18 113.136 227.18C113.816 227.18 114.516 227.1 115.236 226.94C115.976 226.78 116.736 226.54 117.516 226.22L118.506 229.13ZM112.476 217.4C111.556 217.4 110.836 217.7 110.316 218.3C109.816 218.88 109.526 219.72 109.446 220.82H115.206C115.226 220.72 115.236 220.63 115.236 220.55C115.236 220.45 115.236 220.36 115.236 220.28C115.236 219.32 114.966 218.6 114.426 218.12C113.886 217.64 113.236 217.4 112.476 217.4ZM114.036 212.63H111.006L113.886 207.65L117.126 209.03L114.036 212.63ZM134.18 217.94C133.24 217.94 132.34 218.09 131.48 218.39C130.64 218.67 129.83 219.13 129.05 219.77V230H125.6V214.79H128.87V217.13C129.89 216.17 130.8 215.49 131.6 215.09C132.4 214.69 133.26 214.49 134.18 214.49V217.94ZM151.752 229.13C150.712 229.55 149.732 229.85 148.812 230.03C147.892 230.21 147.022 230.3 146.202 230.3C143.942 230.3 142.232 229.66 141.072 228.38C139.912 227.1 139.332 225.4 139.332 223.28V221.48C139.332 220.06 139.592 218.83 140.112 217.79C140.632 216.75 141.372 215.94 142.332 215.36C143.292 214.78 144.422 214.49 145.722 214.49C146.782 214.49 147.772 214.71 148.692 215.15C149.632 215.57 150.392 216.24 150.972 217.16C151.572 218.06 151.872 219.22 151.872 220.64C151.872 221.06 151.842 221.51 151.782 221.99C151.722 222.45 151.622 222.94 151.482 223.46H142.662C142.702 224.7 143.012 225.63 143.592 226.25C144.172 226.87 145.102 227.18 146.382 227.18C147.062 227.18 147.762 227.1 148.482 226.94C149.222 226.78 149.982 226.54 150.762 226.22L151.752 229.13ZM145.722 217.4C144.802 217.4 144.082 217.7 143.562 218.3C143.062 218.88 142.772 219.72 142.692 220.82H148.452C148.472 220.72 148.482 220.63 148.482 220.55C148.482 220.45 148.482 220.36 148.482 220.28C148.482 219.32 148.212 218.6 147.672 218.12C147.132 217.64 146.482 217.4 145.722 217.4ZM147.282 212.63H144.252L147.132 207.65L150.372 209.03L147.282 212.63ZM166.287 217.7C165.787 217.7 165.217 217.82 164.577 218.06C163.937 218.3 163.177 218.77 162.297 219.47V230H158.847V214.79H162.117V216.83C163.057 216.01 163.947 215.42 164.787 215.06C165.627 214.68 166.477 214.49 167.337 214.49C168.797 214.49 169.907 214.96 170.667 215.9C171.427 216.82 171.807 218.12 171.807 219.8V230H168.357V220.22C168.357 218.54 167.667 217.7 166.287 217.7ZM182.906 211.91H179.276V208.34H182.906V211.91ZM182.816 230H179.366V214.79H182.816V230ZM199.719 229.49C199.199 229.73 198.599 229.92 197.919 230.06C197.239 230.22 196.549 230.3 195.849 230.3C194.689 230.3 193.759 230.06 193.059 229.58C192.359 229.1 191.849 228.43 191.529 227.57C191.229 226.71 191.079 225.73 191.079 224.63V217.79H188.619V214.79H191.079V210.83H194.529V214.79H199.269V217.79H194.529V224.63C194.529 225.55 194.699 226.19 195.039 226.55C195.399 226.89 195.909 227.06 196.569 227.06C196.889 227.06 197.229 227.03 197.589 226.97C197.969 226.89 198.389 226.76 198.849 226.58L199.719 229.49ZM217.043 229.13C216.003 229.55 215.023 229.85 214.103 230.03C213.183 230.21 212.313 230.3 211.493 230.3C209.233 230.3 207.523 229.66 206.363 228.38C205.203 227.1 204.623 225.4 204.623 223.28V221.48C204.623 220.06 204.883 218.83 205.403 217.79C205.923 216.75 206.663 215.94 207.623 215.36C208.583 214.78 209.713 214.49 211.013 214.49C212.073 214.49 213.063 214.71 213.983 215.15C214.923 215.57 215.683 216.24 216.263 217.16C216.863 218.06 217.163 219.22 217.163 220.64C217.163 221.06 217.133 221.51 217.073 221.99C217.013 222.45 216.913 222.94 216.773 223.46H207.953C207.993 224.7 208.303 225.63 208.883 226.25C209.463 226.87 210.393 227.18 211.673 227.18C212.353 227.18 213.053 227.1 213.773 226.94C214.513 226.78 215.273 226.54 216.053 226.22L217.043 229.13ZM211.013 217.4C210.093 217.4 209.373 217.7 208.853 218.3C208.353 218.88 208.063 219.72 207.983 220.82H213.743C213.763 220.72 213.773 220.63 213.773 220.55C213.773 220.45 213.773 220.36 213.773 220.28C213.773 219.32 213.503 218.6 212.963 218.12C212.423 217.64 211.773 217.4 211.013 217.4ZM212.573 212.63H209.543L212.423 207.65L215.663 209.03L212.573 212.63ZM226.748 230H223.118V226.43H226.748V230Z" fill="#6A18A4"/>
<path d="M160.836 1.66797C161.116 1.67534 161.396 1.68271 161.685 1.6903C164.876 1.83029 166.987 2.63123 169.176 5.0039C170.751 6.84507 171.493 9.16783 171.387 11.5948C171.129 13.7447 170.52 16.0504 168.937 17.6328C168.872 18.1086 168.814 18.5854 168.759 19.0625C168.421 21.3012 167.62 22.7833 165.843 24.1995C164.058 25.478 162.279 25.4928 160.121 25.2578C158.137 24.6901 156.804 23.3932 155.765 21.6473C155.13 20.4296 154.846 19.4318 154.864 18.0498C154.866 17.8372 154.868 17.6247 154.87 17.4057C154.873 17.2447 154.876 17.0838 154.879 16.918C154.731 16.8934 154.584 16.8688 154.432 16.8435C153.926 16.6797 153.926 16.6797 153.449 15.9648C153.342 15.1261 153.32 14.709 153.831 14.0204C154.585 13.4421 155.069 13.4711 156.011 13.4629C157.409 13.3946 158.547 13.3172 159.644 12.3906C160.353 11.5325 160.806 10.586 161.223 9.56103C161.551 8.8164 161.551 8.8164 162.266 8.33984C163.055 8.25586 163.536 8.25787 164.246 8.6228C164.757 9.17183 164.806 9.50426 164.887 10.2461C164.351 12.7181 162.9 14.7659 160.836 16.2031C160.046 16.6349 159.369 16.918 158.453 16.918C158.714 18.6575 159.084 19.8428 160.285 21.1772C161.173 21.6093 162.015 21.626 162.98 21.4453C163.904 20.9533 164.485 20.2599 164.887 19.3008C164.985 18.8161 164.985 18.8161 165.021 18.3114C165.038 18.1263 165.056 17.9412 165.075 17.7506C165.091 17.5593 165.108 17.3681 165.125 17.1711C165.377 14.2834 165.377 14.2834 166.316 13.3437C166.631 13.3437 166.945 13.3437 167.269 13.3437C167.571 10.9903 167.597 9.31978 166.272 7.31225C164.662 5.77425 163.066 5.56524 160.895 5.52514C160.651 5.51608 160.406 5.50702 160.154 5.49769C158.691 5.44749 158.691 5.44749 157.262 5.71875C157.38 5.8367 157.498 5.95465 157.619 6.07617C158.152 6.96411 158.075 7.54854 157.976 8.57812C157.571 9.16992 157.325 9.27994 156.617 9.42514C156.372 9.45032 156.128 9.47551 155.877 9.50146C154.531 9.69528 153.882 9.95346 152.973 10.9609C152.648 11.9332 152.741 12.8245 152.772 13.8417C152.733 14.55 152.666 14.9138 152.258 15.4883C151.828 15.748 151.828 15.748 151.334 15.9499C150.272 16.4377 149.686 17.0582 149.16 18.1094C149.13 19.2003 149.237 20.0266 149.875 20.9241C150.641 21.4827 151.378 21.8268 152.261 22.162C152.734 22.3984 152.734 22.3984 153.211 23.1133C153.241 23.843 153.241 23.843 153.211 24.543C153.211 24.7002 153.211 24.8575 153.211 25.0195C153.47 24.9679 153.47 24.9679 153.734 24.9153C156.411 24.4012 156.411 24.4012 157.262 24.543C157.962 25.0344 157.962 25.0344 158.453 25.7344C158.453 26.5646 158.428 27.1254 157.912 27.7947C157.399 28.1959 157.027 28.2638 156.386 28.362C156.06 28.4166 156.06 28.4166 155.728 28.4723C155.274 28.5429 154.82 28.613 154.365 28.6826C151.535 29.1593 150.212 30.7776 148.601 33.0248C148.3 33.4503 147.999 33.8767 147.699 34.3032C146.935 35.3848 146.149 36.4496 145.362 37.5144C145.222 37.7052 145.081 37.8961 144.936 38.0927C144.256 39.0136 143.575 39.9333 142.892 40.8513C142.653 41.1736 142.414 41.496 142.175 41.8184C142.065 41.9653 141.955 42.1123 141.842 42.2637C141.069 43.3084 140.69 44.1313 140.708 45.4579C141.087 47.2499 143.161 48.8914 144.394 50.1731C145.619 51.4525 146.812 52.7488 147.969 54.0898C148.311 54.4826 148.653 54.8749 148.996 55.2664C149.153 55.4454 149.309 55.6245 149.47 55.809C149.849 56.2549 149.849 56.2549 150.351 56.4727C150.433 56.1455 150.512 55.8177 150.59 55.4897C150.634 55.3073 150.678 55.1248 150.724 54.9369C150.758 54.736 150.793 54.5351 150.828 54.3281C150.868 54.107 150.907 53.8858 150.948 53.658C150.76 52.465 149.982 51.8504 149.145 51.022C148.829 50.7002 148.514 50.3782 148.199 50.0558C148.042 49.8972 147.886 49.7386 147.724 49.5752C147.107 48.9328 146.522 48.265 145.941 47.5897C145.636 47.238 145.322 46.8951 145.005 46.5542C144.526 45.826 144.505 45.4149 144.633 44.5586C144.901 44.0076 144.901 44.0076 145.348 43.6055C146.131 43.3501 146.562 43.2678 147.318 43.6166C148.194 44.2436 148.873 44.996 149.592 45.7947C149.734 45.9506 149.877 46.1064 150.023 46.267C150.372 46.6495 150.719 47.0336 151.066 47.418C151.086 45.8077 151.071 44.208 150.972 42.6002C150.956 42.3146 150.94 42.0289 150.923 41.7346C150.889 41.1473 150.851 40.5603 150.808 39.9735C150.701 37.9019 150.701 37.9019 151.061 37.183C151.367 36.8517 151.367 36.8517 152.019 36.457C152.853 36.457 153.407 36.5365 154.134 36.9485C155.656 39.5694 154.907 44.6978 154.921 47.6613C154.923 48.0093 154.925 48.3572 154.928 48.7052C154.958 52.0324 154.851 55.3124 153.553 58.4236C153.403 58.799 153.254 59.1747 153.106 59.5508C153.04 59.7099 152.974 59.8691 152.907 60.0331C152.577 60.9708 152.467 61.8124 152.531 62.8011C152.69 66.5225 152.255 70.0464 151.677 73.7183C151.619 74.0891 151.619 74.0891 151.559 74.4674C150.916 78.5202 150.916 78.5202 150.59 79.8242C158.217 79.8242 165.845 79.8242 173.703 79.8242C172.877 74.5165 172.877 74.5165 172.035 69.1016C171.975 65.5422 171.975 65.5422 172.018 64.1153C172.087 61.6322 171.307 59.4733 170.415 57.1928C169.787 55.5571 169.436 53.9165 169.176 52.1836C169.139 51.9395 169.139 51.9395 169.101 51.6904C168.359 46.5391 167.771 40.2198 170.367 35.5039C170.51 35.2434 170.652 34.983 170.799 34.7146C171.562 33.7776 172.331 33.2351 173.514 33.0299C175.664 32.92 177.135 34.2879 178.737 35.5635C179.118 35.8634 179.499 36.1631 179.881 36.4626C180.178 36.6961 180.178 36.6961 180.481 36.9343C181.496 37.7275 182.521 38.5071 183.547 39.2866C183.756 39.4455 183.965 39.6044 184.18 39.7681C184.606 40.0916 185.031 40.415 185.457 40.7384C186.296 41.3763 187.134 42.0151 187.973 42.654C188.386 42.9693 188.8 43.2845 189.214 43.5996C190.298 44.4257 191.382 45.2526 192.466 46.0804C192.691 46.252 192.915 46.4235 193.147 46.6003C193.575 46.9271 194.003 47.2541 194.43 47.5813C195.53 48.4207 196.639 49.242 197.769 50.0391C197.784 49.8382 197.798 49.6373 197.813 49.4303C197.833 49.1692 197.853 48.9082 197.874 48.6392C197.903 48.2494 197.903 48.2494 197.932 47.8517C198.008 47.1797 198.008 47.1797 198.246 46.7031C198.105 46.6363 197.965 46.5694 197.82 46.5006C197.336 46.2492 196.926 45.9814 196.491 45.6551C196.341 45.5423 196.19 45.4295 196.035 45.3133C195.875 45.1921 195.715 45.0708 195.55 44.9458C195.383 44.8193 195.215 44.6928 195.042 44.5624C193.744 43.5786 192.468 42.5683 191.2 41.5461C190.154 40.7031 189.096 39.8774 188.029 39.0607C185.736 37.3053 183.458 35.5295 181.188 33.7428C180.784 33.4246 180.379 33.1071 179.975 32.7897C179.43 32.3628 178.888 31.9329 178.348 31.5015C178.075 31.2867 177.803 31.072 177.53 30.8574C177.292 30.6682 177.054 30.479 176.809 30.2841C175.447 29.3443 174.202 28.9691 172.568 28.8171C172.22 28.7793 171.871 28.7414 171.523 28.7036C170.98 28.6479 170.437 28.5933 169.894 28.5391C169.366 28.4853 168.837 28.428 168.309 28.3704C168.147 28.3554 167.985 28.3405 167.819 28.3252C166.887 28.2227 166.276 28.0698 165.601 27.4023C165.436 26.7575 165.486 26.1492 165.601 25.4961C165.969 24.9779 166.23 24.8245 166.793 24.543C168.066 24.5641 169.336 24.6775 170.605 24.7812C170.789 24.7957 170.973 24.8101 171.163 24.825C174.518 25.0998 177.036 25.6696 179.737 27.8021C180.191 28.1598 180.647 28.5127 181.105 28.8655C182.026 29.5783 182.945 30.2952 183.863 31.0131C184.764 31.7174 185.667 32.4192 186.57 33.1211C186.928 33.3991 187.285 33.6771 187.642 33.9551C187.819 34.0927 187.996 34.2303 188.179 34.3721C188.715 34.7891 189.251 35.2061 189.787 35.623C189.964 35.7608 190.141 35.8986 190.324 36.0406C190.679 36.3167 191.034 36.5927 191.389 36.8688C192.321 37.5937 193.253 38.3184 194.185 39.0428C194.379 39.1933 194.572 39.3438 194.772 39.4988C195.142 39.7862 195.511 40.0735 195.881 40.3607C196.049 40.491 196.216 40.6212 196.389 40.7554C196.535 40.8689 196.681 40.9825 196.832 41.0994C197.386 41.5338 197.935 41.9737 198.484 42.4141C199.034 38.7158 199.507 35.0103 199.953 31.2981C200.064 30.3755 200.176 29.453 200.288 28.5305C200.36 27.9335 200.432 27.3366 200.504 26.7396C200.537 26.469 200.57 26.1984 200.604 25.9196C200.756 24.6433 200.888 23.3706 200.979 22.0885C201.114 20.2448 201.346 18.4158 201.581 16.5829C201.628 16.2162 201.674 15.8495 201.721 15.4828C201.818 14.721 201.915 13.9593 202.013 13.1976C202.139 12.2233 202.262 11.2488 202.384 10.2741C202.479 9.51969 202.576 8.76544 202.673 8.01123C202.719 7.65182 202.765 7.29234 202.81 6.93279C202.872 6.43157 202.937 5.93064 203.003 5.42974C203.039 5.14541 203.075 4.86109 203.113 4.56815C203.283 3.6293 203.485 2.88926 204.129 2.17431C204.942 1.77857 205.487 1.92542 206.348 2.14453C206.809 2.47216 206.809 2.47216 207.062 2.85937C207.062 3.09527 207.062 3.33117 207.062 3.57422C207.231 3.53981 207.399 3.50541 207.572 3.46997C213.689 2.3635 219.677 3.43274 225.336 5.85278C225.571 5.95311 225.571 5.95311 225.812 6.05546C226.866 6.52499 227.973 7.03134 228.508 8.10156C228.578 9.64311 228.383 11.1071 228.15 12.6289C228.116 12.859 228.082 13.089 228.047 13.3261C227.964 13.8881 227.879 14.45 227.793 15.0117C230.426 15.1148 232.741 15.0368 235.272 14.2671C236.29 14.0205 236.995 13.9382 238.039 14.0586C238.706 14.6904 238.977 15.0476 239.048 15.9725C239.018 16.2366 238.989 16.5006 238.958 16.7727C238.928 17.0679 238.897 17.3631 238.866 17.6672C238.829 17.9704 238.792 18.2736 238.754 18.5859C238.723 18.8693 238.692 19.1528 238.66 19.4448C238.56 20.3314 238.451 21.2164 238.339 22.1015C238.319 22.26 238.299 22.4184 238.278 22.5816C238.173 23.4159 238.068 24.25 237.961 25.084C237.851 25.941 237.745 26.7983 237.64 27.6557C237.557 28.3209 237.472 28.9858 237.387 29.6506C237.327 30.1194 237.27 30.5884 237.213 31.0575C237.176 31.3424 237.138 31.6273 237.1 31.9209C237.053 32.2955 237.053 32.2955 237.004 32.6777C236.799 33.5714 236.477 34.2963 235.728 34.8505C231.275 36.7926 225.854 36.7608 221.285 35.2414C219.374 34.4859 216.809 33.4444 215.641 31.6914C215.187 29.3531 215.971 26.6256 216.355 24.3047C212.497 23.6316 208.568 23.636 204.68 24.0664C204.668 24.2964 204.655 24.5264 204.643 24.7634C204.512 27.1133 204.285 29.4399 204 31.7759C203.955 32.1528 203.91 32.5297 203.865 32.9066C203.742 33.9309 203.618 34.9551 203.494 35.9792C203.36 37.088 203.227 38.1969 203.094 39.3058C202.834 41.4728 202.572 43.6398 202.31 45.8067C202.098 47.5673 201.885 49.3279 201.673 51.0886C201.628 51.4653 201.628 51.4653 201.581 51.8495C201.52 52.3597 201.459 52.8699 201.397 53.38C200.822 58.1548 200.245 62.9294 199.668 67.7039C199.14 72.0733 198.614 76.4429 198.088 80.8127C197.548 85.3029 197.007 89.7929 196.464 94.2828C196.16 96.8023 195.856 99.3219 195.553 101.842C195.296 103.984 195.038 106.127 194.778 108.269C194.645 109.362 194.513 110.455 194.382 111.549C194.263 112.549 194.141 113.549 194.019 114.549C193.975 114.911 193.932 115.274 193.889 115.636C193.831 116.128 193.77 116.619 193.71 117.11C193.677 117.384 193.644 117.657 193.61 117.938C193.444 118.866 193.237 119.596 192.602 120.302C191.788 120.698 191.243 120.551 190.383 120.332C189.85 119.943 189.688 119.734 189.574 119.079C189.602 116.22 189.996 113.396 190.346 110.562C190.419 109.959 190.492 109.357 190.564 108.755C190.72 107.463 190.878 106.172 191.036 104.88C191.265 103.012 191.492 101.143 191.718 99.2749C192.085 96.2412 192.454 93.2077 192.824 90.1744C193.183 87.2319 193.541 84.2894 193.899 81.3468C193.921 81.1652 193.943 80.9837 193.966 80.7966C194.206 78.8148 194.447 76.8329 194.687 74.851C194.719 74.5898 194.719 74.5898 194.751 74.3234C194.836 73.6275 194.92 72.9317 195.005 72.2358C195.252 70.1993 195.499 68.1629 195.748 66.1265C195.922 64.7005 196.095 63.2744 196.269 61.8482C196.34 61.2626 196.411 60.6771 196.483 60.0915C196.581 59.2944 196.677 58.4971 196.774 57.6999C196.803 57.4665 196.832 57.2331 196.861 56.9926C196.9 56.6727 196.9 56.6727 196.939 56.3463C196.962 56.1623 196.984 55.9783 197.007 55.7887C197.052 55.3037 197.055 54.8152 197.055 54.3281C196.757 53.9742 196.757 53.9742 196.33 53.6933C196.173 53.5797 196.017 53.4661 195.857 53.349C195.687 53.2298 195.517 53.1106 195.342 52.9878C194.988 52.7314 194.634 52.4748 194.281 52.218C194.104 52.0911 193.927 51.9641 193.745 51.8333C193.055 51.3332 192.382 50.8145 191.708 50.2922C191.455 50.097 191.202 49.9018 190.95 49.7068C190.82 49.6068 190.69 49.5067 190.557 49.4037C188.053 47.4747 185.537 45.5615 183.021 43.6474C181.924 42.8123 180.828 41.9757 179.735 41.1361C179.513 40.966 179.291 40.7959 179.062 40.6207C178.641 40.2979 178.22 39.9746 177.799 39.6507C176.546 38.6915 175.266 37.7917 173.941 36.9336C173.873 37.0729 173.804 37.2123 173.734 37.3559C173.57 37.6883 173.407 38.0207 173.243 38.353C172.557 40.3034 172.425 42.3127 172.437 44.365C172.438 44.6093 172.439 44.8536 172.44 45.1053C172.494 48.8794 172.864 52.6775 174.18 56.2344C174.337 56.6819 174.494 57.1295 174.648 57.5784C174.794 58.0055 174.946 58.431 175.097 58.8564C175.769 61.006 175.887 63.1315 175.81 65.3645C175.762 68.621 176.225 71.7536 176.75 74.9583C177.023 76.621 177.279 78.2862 177.537 79.9513C177.601 80.3621 177.665 80.7729 177.728 81.1837C178.634 87.0015 179.457 92.8313 180.278 98.6616C180.451 99.8913 180.626 101.121 180.801 102.35C181.01 103.815 181.217 105.281 181.423 106.747C181.5 107.291 181.577 107.836 181.655 108.38C182.748 116.019 182.748 116.019 181.566 117.949C180.414 119.392 179.185 120.264 177.337 120.541C175.555 120.664 174.07 120.23 172.661 119.126C170.931 117.415 170.636 115.026 170.276 112.713C170.227 112.413 170.178 112.113 170.128 111.804C169.995 110.988 169.865 110.172 169.737 109.355C169.601 108.497 169.462 107.64 169.323 106.783C169.092 105.345 168.862 103.907 168.634 102.469C168.37 100.808 168.104 99.148 167.836 97.4881C167.55 95.7156 167.266 93.9429 166.983 92.1701C166.901 91.6611 166.819 91.1521 166.737 90.6432C166.585 89.6944 166.434 88.7453 166.284 87.7962C166.216 87.375 166.216 87.375 166.147 86.9453C166.106 86.6862 166.065 86.427 166.023 86.16C165.988 85.936 165.952 85.712 165.915 85.4812C165.84 84.8281 165.84 84.8281 165.84 83.3984C163.481 83.3984 161.122 83.3984 158.691 83.3984C158.57 84.1935 158.57 84.1935 158.447 85.0046C157.518 91.0965 156.552 97.182 155.564 103.265C155.393 104.32 155.223 105.377 155.053 106.433C154.845 107.734 154.635 109.035 154.423 110.335C154.343 110.824 154.265 111.312 154.187 111.801C154.079 112.478 153.969 113.154 153.858 113.83C153.827 114.027 153.796 114.224 153.764 114.427C153.403 116.592 152.805 118.205 151.066 119.617C149.722 120.513 148.221 120.708 146.638 120.483C145.112 120.103 143.961 119.411 142.965 118.187C141.533 115.74 142.031 113.209 142.419 110.529C142.484 110.067 142.484 110.067 142.55 109.596C142.669 108.752 142.79 107.909 142.911 107.066C143.04 106.17 143.167 105.272 143.294 104.375C143.509 102.858 143.726 101.341 143.943 99.8245C144.189 98.1069 144.434 96.3891 144.677 94.6711C144.967 92.6295 145.257 90.588 145.549 88.5466C145.588 88.2732 145.588 88.2732 145.627 87.9942C146.182 84.1121 146.744 80.2317 147.351 76.3574C147.395 76.071 147.44 75.7847 147.486 75.4897C147.692 74.1798 147.899 72.8703 148.112 71.5616C149.153 66.0256 149.153 66.0256 148.684 60.5234C148.134 59.7653 147.495 59.2105 146.777 58.6172C146.513 58.3296 146.254 58.0373 146.003 57.7385C145.257 56.8717 144.487 56.0304 143.709 55.1919C142.497 53.8814 141.286 52.5701 140.105 51.2305C140.003 51.1152 139.9 51 139.794 50.8813C137.811 48.6465 136.834 47.1669 136.929 44.1193C137.185 41.6807 138.927 39.7931 140.344 37.8867C140.607 37.53 140.869 37.1732 141.132 36.8163C141.552 36.2458 141.972 35.6755 142.394 35.1062C143.106 34.1433 143.812 33.177 144.506 32.2005C148.358 26.779 148.358 26.779 150.59 25.7344C150.432 25.6594 150.273 25.5845 150.11 25.5073C147.81 24.3924 146.451 23.2966 145.511 20.8794C145.119 18.8128 145.26 17.1079 146.301 15.25C147 14.2999 147.7 13.5227 148.684 12.8672C148.84 12.2999 148.84 12.2999 148.907 11.646C149.248 9.55623 149.915 8.37403 151.566 7.03953C152.36 6.39569 152.813 5.85408 153.256 4.92944C154.111 3.35349 155.489 2.34072 157.188 1.7778C158.396 1.53657 159.612 1.61331 160.836 1.66797ZM206.824 7.38672C206.412 9.43384 206.145 11.4896 205.904 13.5622C205.841 14.105 205.776 14.6475 205.71 15.19C205.669 15.541 205.627 15.8921 205.586 16.2431C205.557 16.4819 205.557 16.4819 205.528 16.7254C205.401 17.8309 205.379 18.9052 205.394 20.0156C205.61 20.0119 205.826 20.0081 206.048 20.0043C211.825 19.9173 216.627 20.2666 222.105 22.2567C222.548 22.4225 222.548 22.4225 223.027 22.3984C223.232 20.8682 223.436 19.3377 223.638 17.807C223.707 17.2868 223.776 16.7665 223.846 16.2463C223.946 15.4971 224.045 14.7476 224.144 13.9981C224.191 13.6514 224.191 13.6514 224.239 13.2976C224.394 12.1098 224.492 10.9674 224.457 9.76953C219.073 6.80299 212.791 6.29648 206.824 7.38672ZM233.397 18.7051C232.217 18.8727 231.053 18.8396 229.863 18.8242C229.387 18.8182 228.912 18.8131 228.436 18.8093C228.227 18.8066 228.018 18.8038 227.802 18.8009C227.317 18.7696 227.317 18.7696 227.078 19.0625C226.998 19.5816 226.932 20.1027 226.871 20.6244C226.832 20.9461 226.793 21.2679 226.753 21.5896C226.692 22.0982 226.631 22.6069 226.573 23.116C226.516 23.6063 226.456 24.096 226.395 24.5858C226.36 24.88 226.325 25.1742 226.29 25.4774C226.122 26.2242 226.02 26.4856 225.41 26.9258C224.801 27.1793 224.405 27.224 223.773 27.0207C223.263 26.8049 222.766 26.5725 222.268 26.3301C221.651 26.0347 221.038 25.7597 220.406 25.4961C220.249 25.5747 220.092 25.6534 219.93 25.7344C219.818 26.1717 219.818 26.1717 219.779 26.6959C219.759 26.8886 219.739 27.0814 219.718 27.2799C219.7 27.4825 219.681 27.6851 219.662 27.8938C219.641 28.0973 219.62 28.3008 219.599 28.5104C219.548 29.0146 219.5 29.519 219.453 30.0234C223.636 32.344 227.81 33.0749 232.491 31.8478C232.671 31.7962 232.85 31.7446 233.035 31.6914C233.509 29.557 233.782 27.4041 234.057 25.237C234.137 24.6006 234.22 23.9644 234.303 23.3283C234.355 22.9203 234.407 22.5123 234.459 22.1043C234.484 21.9159 234.508 21.7275 234.534 21.5333C234.658 20.5434 234.729 19.5861 234.703 18.5859C234.004 18.5624 234.004 18.5624 233.397 18.7051ZM149.875 83.6367C149.799 84.0265 149.738 84.419 149.682 84.812C149.627 85.1939 149.627 85.1939 149.57 85.5834C149.531 85.8651 149.491 86.1468 149.45 86.4371C149.408 86.7319 149.366 87.0268 149.322 87.3306C149.206 88.1419 149.091 88.9533 148.977 89.7648C148.905 90.2719 148.833 90.7789 148.761 91.2859C148.51 93.0552 148.26 94.8245 148.011 96.5941C147.779 98.2425 147.545 99.8906 147.309 101.539C147.107 102.953 146.907 104.369 146.708 105.784C146.589 106.629 146.469 107.474 146.348 108.319C146.212 109.263 146.08 110.207 145.949 111.151C145.888 111.57 145.888 111.57 145.826 111.996C145.448 114.288 145.448 114.288 146.241 116.371C146.864 116.821 147.199 116.978 147.969 116.996C148.907 116.628 149.311 116.413 149.875 115.566C150.014 114.914 150.132 114.271 150.234 113.613C150.267 113.413 150.3 113.213 150.333 113.007C150.442 112.342 150.547 111.677 150.653 111.011C150.729 110.542 150.805 110.072 150.881 109.603C151.083 108.359 151.282 107.114 151.481 105.869C151.678 104.638 151.877 103.408 152.076 102.177C152.31 100.73 152.544 99.2822 152.775 97.8345C153.14 95.5592 153.507 93.2845 153.883 91.0111C153.984 90.4025 154.084 89.7939 154.184 89.1852C154.247 88.8058 154.31 88.4265 154.374 88.0472C154.46 87.5293 154.546 87.0113 154.631 86.4932C154.679 86.2043 154.727 85.9154 154.777 85.6178C154.874 84.8673 154.898 84.154 154.879 83.3984C154.09 83.3915 153.3 83.3873 152.511 83.3835C152.173 83.3805 152.173 83.3805 151.828 83.3775C151.614 83.3767 151.4 83.376 151.179 83.3752C150.981 83.3739 150.782 83.3727 150.578 83.3714C150.112 83.3469 150.112 83.3469 149.875 83.6367ZM169.414 83.3984C170.005 88.4361 170.843 93.4396 171.639 98.4481C171.928 100.27 172.215 102.092 172.497 103.914C172.721 105.36 172.951 106.805 173.182 108.25C173.279 108.862 173.374 109.474 173.468 110.086C173.599 110.94 173.736 111.793 173.875 112.645C173.912 112.897 173.949 113.149 173.988 113.408C174.233 114.87 174.519 115.732 175.609 116.758C176.432 117.116 176.719 117.028 177.56 116.698C178.279 116.315 178.279 116.315 178.707 115.566C178.81 113.961 178.567 112.407 178.339 110.82C178.3 110.541 178.261 110.261 178.22 109.974C178.113 109.213 178.005 108.452 177.897 107.692C177.783 106.894 177.671 106.095 177.558 105.296C177.37 103.956 177.18 102.616 176.989 101.277C176.721 99.3896 176.455 97.5025 176.188 95.6154C175.981 94.1461 175.773 92.6769 175.566 91.2077C175.543 91.0508 175.521 90.894 175.498 90.7323C175.351 89.6905 175.203 88.6487 175.055 87.6069C175.018 87.3454 174.981 87.0839 174.943 86.8146C174.908 86.5727 174.874 86.3309 174.839 86.0818C174.794 85.7686 174.794 85.7686 174.749 85.449C174.647 84.7642 174.532 84.0814 174.418 83.3984C172.767 83.3984 171.115 83.3984 169.414 83.3984Z" fill="#6A18A4"/>
<path d="M162.981 27.8789C163.618 28.3106 163.686 28.5646 163.934 29.3086C164.034 31.1507 164.034 31.1507 163.457 31.9297C162.815 32.4293 162.482 32.4051 161.655 32.3616C160.606 32.1135 160.606 32.1135 160.121 31.4531C159.929 30.316 159.911 29.2084 160.479 28.1917C161.379 27.7192 161.967 27.7663 162.981 27.8789Z" fill="#6A18A4"/>
</svg>
