<svg width="139" height="139" viewBox="0 0 139 139" fill="none" xmlns="http://www.w3.org/2000/svg">
<g clip-path="url(#clip0_1_17843)">
<path d="M74.7827 42.8729C75.8663 46.5952 75.0254 49.5038 73.3387 52.8352C72.7236 53.9464 71.9195 54.8525 71.0339 55.7583C70.9005 55.896 70.767 56.0338 70.6294 56.1757C70.3557 56.45 70.0741 56.7164 69.7899 56.9798C71.48 56.9001 73.1673 56.8009 74.8545 56.6738C74.9944 56.6633 75.1344 56.6529 75.2785 56.6421C75.9883 56.5891 76.6979 56.5348 77.4074 56.4789C77.671 56.459 77.9347 56.4392 78.2063 56.4187C78.4433 56.4003 78.6803 56.3818 78.9245 56.3628C80.2316 56.3201 81.4029 56.7565 82.4113 57.5924C84.0051 59.253 84.0673 61.4677 84.1984 63.6581C84.2239 64.0831 84.2526 64.5078 84.2819 64.9325C84.4239 67.0779 84.4465 68.5895 83.3124 70.4789C81.9967 71.9485 80.2817 72.186 78.4054 72.3161C78.0878 72.3404 78.0878 72.3404 77.7637 72.3652C77.0458 72.4192 76.3278 72.4698 75.6096 72.5196C75.3473 72.538 75.085 72.5563 74.8148 72.5752C73.6857 72.6539 72.5565 72.7315 71.4272 72.8075C69.3838 72.9449 67.3413 73.0915 65.2992 73.2466C63.5137 73.3821 61.7281 73.5163 59.9425 73.6498C59.5447 73.6796 59.5447 73.6796 59.1389 73.7099C58.4945 73.7582 57.8502 73.8063 57.2059 73.8545C57.3808 73.9363 57.5557 74.018 57.7358 74.1023C61.9924 76.0924 66.247 78.0868 70.4995 80.0856C72.556 81.0521 74.6132 82.0173 76.6719 82.9792C78.4664 83.8177 80.2596 84.6587 82.0515 85.5029C83.0002 85.9497 83.9494 86.3952 84.9001 86.8376C85.7954 87.2543 86.6891 87.6744 87.5815 88.0972C87.9089 88.2515 88.2368 88.4046 88.5654 88.5564C89.0152 88.7643 89.4625 88.9766 89.9096 89.1902C90.0391 89.2487 90.1686 89.3073 90.3021 89.3676C91.4077 89.9059 92.2232 90.7394 92.6643 91.8909C92.6825 92.0271 92.7006 92.1632 92.7193 92.3034C92.7408 92.4411 92.7623 92.5788 92.7845 92.7206C92.8189 93.6598 92.468 94.3872 92.0788 95.2307C91.9912 95.4216 91.9912 95.4216 91.9017 95.6164C91.7057 96.0428 91.5083 96.4685 91.3109 96.8943C91.17 97.1999 91.0292 97.5056 90.8884 97.8113C90.4258 98.8152 89.9611 99.8181 89.4964 100.821C89.3363 101.167 89.1763 101.512 89.0162 101.858C88.2641 103.483 87.511 105.107 86.7569 106.731C85.8874 108.603 85.021 110.476 84.1571 112.351C83.4886 113.801 82.8173 115.25 82.1438 116.698C81.742 117.563 81.3414 118.427 80.9437 119.294C80.5693 120.109 80.1912 120.923 79.8105 121.736C79.6719 122.033 79.5345 122.331 79.3986 122.63C78.5122 124.574 77.6416 126.009 75.7923 127.147C74.244 127.672 72.757 127.716 71.2672 127.025C71.0982 126.947 70.9293 126.869 70.7552 126.789C70.4785 126.66 70.4785 126.66 70.1961 126.528C69.9008 126.392 69.9008 126.392 69.5995 126.252C68.9378 125.946 68.2766 125.639 67.6154 125.331C67.1419 125.112 66.6684 124.893 66.1949 124.673C64.9069 124.076 63.6194 123.478 62.3321 122.88C61.5281 122.506 60.7239 122.133 59.9197 121.759C57.6924 120.725 55.4652 119.69 53.2387 118.654C53.0962 118.588 52.9537 118.522 52.8069 118.454C52.6641 118.387 52.5213 118.321 52.3741 118.252C52.0847 118.118 51.7953 117.983 51.5059 117.848C51.3624 117.781 51.2188 117.715 51.0709 117.646C48.7457 116.564 46.4193 115.485 44.0925 114.407C41.7026 113.299 39.3137 112.19 36.9257 111.078C35.5853 110.454 34.2445 109.831 32.9027 109.21C31.6402 108.626 30.3791 108.04 29.1189 107.451C28.6564 107.235 28.1935 107.021 27.7301 106.807C27.0969 106.515 26.4654 106.22 25.8343 105.924C25.5595 105.799 25.5595 105.799 25.2791 105.671C23.5646 104.858 22.4192 103.877 21.7098 102.098C21.2648 100.666 21.3842 99.4839 22.0113 98.1406C22.1497 97.8424 22.1497 97.8424 22.2909 97.5381C22.4434 97.2131 22.4434 97.2131 22.5991 96.8814C22.7058 96.6522 22.8125 96.4229 22.9225 96.1867C23.2149 95.5589 23.5082 94.9314 23.8019 94.3041C24.1087 93.6482 24.4145 92.9918 24.7203 92.3354C25.2996 91.0929 25.8798 89.8508 26.4603 88.6089C27.1212 87.1948 27.7811 85.7803 28.4408 84.3657C29.7979 81.4562 31.1563 78.5472 32.5156 75.6387C31.676 75.698 30.8363 75.7575 29.9967 75.8172C29.7126 75.8373 29.4284 75.8574 29.1443 75.8775C26.5349 76.0618 23.9278 76.2691 21.321 76.4882C19.9274 76.5582 18.4739 75.8758 17.4166 74.99C16.0538 73.4022 16.0647 71.2877 15.9691 69.2989C15.9557 69.0572 15.9423 68.8155 15.9285 68.5665C15.9031 68.0965 15.8797 67.6264 15.8583 67.1561C15.8402 66.7646 15.8189 66.3733 15.7925 65.9822C15.7026 64.4182 16.2029 63.1074 17.2266 61.9017C18.868 60.4688 21.1608 60.5273 23.2184 60.4069C23.7582 60.3728 24.298 60.3384 24.8377 60.3036C25.0998 60.287 25.3618 60.2703 25.6318 60.2532C26.8391 60.1687 28.0432 60.0552 29.2476 59.9364C28.7018 59.46 28.1557 58.9885 27.5941 58.5307C25.3736 56.6944 23.7707 54.7266 22.8182 51.9907C22.7598 51.8394 22.7015 51.688 22.6414 51.5321C21.6581 48.6562 22.5533 46.0389 23.8054 43.4538C24.9805 41.1592 27.2029 39.4679 29.6505 38.6709C32.6295 38.0053 35.2352 38.2814 37.9864 39.5971C38.277 39.7352 38.277 39.7352 38.5736 39.8761C40.1494 40.6517 41.4026 41.5103 42.645 42.765C42.7483 42.8674 42.8515 42.9698 42.9579 43.0754C44.7976 44.9155 46.2874 46.9335 47.594 49.1825C47.8993 49.7688 47.8993 49.7688 48.4428 49.9523C49.0249 49.9872 49.4088 49.9659 49.9612 49.773C50.2973 49.2952 50.2973 49.2952 50.5341 48.6805C50.6332 48.4537 50.7323 48.227 50.8344 47.9934C50.9888 47.6294 50.9888 47.6294 51.1464 47.258C52.7298 43.702 54.7886 40.086 58.3092 38.1288C58.8514 37.931 58.8514 37.931 59.6059 38.1839C60.2158 38.4884 60.3115 38.577 60.6107 39.2285C60.6459 40.0072 60.5086 40.3271 60.1238 40.9995C59.6445 41.4454 59.6445 41.4454 59.0813 41.8787C57.0285 43.5532 55.6404 45.6939 54.5587 48.0871C54.4598 48.3027 54.4598 48.3027 54.359 48.5226C54.1989 48.8721 54.0399 49.2222 53.8812 49.5724C54.126 49.575 54.3709 49.5776 54.6231 49.5802C55.7551 49.6602 56.6631 50.1312 57.6543 50.654C57.7453 50.5353 57.8362 50.4166 57.9299 50.2943C59.3968 48.4265 60.9912 46.607 63.1726 45.5703C63.8313 45.5519 64.1785 45.7287 64.7386 46.0744C65.0874 46.7151 65.0874 46.7151 65.2329 47.43C64.9098 48.4252 64.3164 48.937 63.512 49.5548C62.27 50.5545 61.0678 51.6157 60.1834 52.957C60.1153 53.4129 60.1153 53.4129 60.2089 53.8692C60.2442 54.1289 60.2442 54.1289 60.2802 54.3939C60.3098 54.5752 60.3395 54.7564 60.37 54.9431C60.7153 57.1324 60.7153 57.1324 60.4956 57.6042C63.391 57.7823 65.6954 55.8211 67.7903 54.0229C69.8827 52.1606 71.5313 49.7299 71.8707 46.8911C71.9191 44.8499 71.3898 43.1267 70.0117 41.6081C68.5533 40.2192 66.8936 39.6314 64.9178 39.4051C64.1748 39.138 63.7351 38.9792 63.3065 38.3032C63.1956 37.4816 63.3701 37.1067 63.8304 36.4228C64.9889 35.7337 66.0412 35.9545 67.2942 36.2349C67.5054 36.2806 67.5054 36.2806 67.7208 36.3271C70.9551 37.2244 73.6283 39.7643 74.7827 42.8729ZM78.7208 59.7269C78.553 59.7352 78.3853 59.7434 78.2124 59.7519C78.029 59.7626 77.8455 59.7734 77.6565 59.7844C77.4624 59.7948 77.2683 59.8053 77.0684 59.816C75.3646 59.9122 73.6642 60.0453 71.9635 60.1844C69.2338 60.4069 66.5012 60.5868 63.7686 60.7706C62.8304 60.8343 61.8925 60.901 60.9546 60.9692C60.8222 61.902 60.8149 62.7616 60.8839 63.7006C60.8935 63.8349 60.9032 63.9691 60.9131 64.1075C60.9336 64.3897 60.9547 64.6719 60.9764 64.9541C61.0091 65.382 61.04 65.81 61.0706 66.238C61.1634 67.4995 61.2762 68.7438 61.4802 69.9924C62.3559 70.1136 63.1609 70.1391 64.0417 70.071C64.289 70.0526 64.5362 70.0342 64.7909 70.0152C65.0556 69.9943 65.3202 69.9734 65.5929 69.9518C65.8722 69.9306 66.1515 69.9095 66.4308 69.8885C67.0121 69.8448 67.5933 69.8005 68.1745 69.7559C69.0175 69.6918 69.8608 69.6319 70.7043 69.5735C73.1068 69.407 75.509 69.2363 77.9087 69.0321C78.0905 69.0173 78.2724 69.0025 78.4597 68.9873C78.6259 68.9726 78.792 68.9579 78.9632 68.9427C79.1058 68.9305 79.2485 68.9182 79.3955 68.9055C79.8597 68.8327 80.1958 68.7728 80.611 68.5459C81.1669 67.6819 81.1722 67.0005 81.1004 65.9935C81.0911 65.8583 81.0818 65.7231 81.0722 65.5839C81.0518 65.2993 81.03 65.0149 81.0068 64.7306C80.9719 64.2982 80.9429 63.8656 80.9146 63.4327C80.894 63.1551 80.873 62.8775 80.8517 62.5999C80.8231 62.2246 80.8231 62.2246 80.794 61.8417C80.6728 61.1142 80.4837 60.6057 80.0982 59.9788C79.5289 59.7137 79.3261 59.6955 78.7208 59.7269ZM30.0649 42.1092C27.953 42.9702 26.8678 44.4545 25.9856 46.493C25.17 48.658 25.6855 50.5196 26.6079 52.5815C28.4403 55.9473 32.3378 58.1194 35.8431 59.3355C36.8719 59.6212 37.4978 59.6071 38.542 59.312C38.5267 59.0768 38.5114 58.8416 38.4957 58.5993C38.4767 58.2863 38.4577 57.9732 38.4388 57.6602C38.4286 57.5057 38.4185 57.3513 38.408 57.1921C38.3656 56.4722 38.3508 55.8663 38.479 55.151C38.5639 54.5441 38.5639 54.5441 38.1386 54.0921C37.9578 53.9462 37.7771 53.8003 37.591 53.6499C37.3879 53.4851 37.1849 53.3204 36.9758 53.1507C36.0415 52.4456 35.0614 51.8017 34.0697 51.1806C33.935 51.0943 33.8004 51.008 33.6616 50.9191C33.5411 50.8439 33.4205 50.7688 33.2963 50.6913C32.9249 50.3629 32.8234 50.092 32.7027 49.6153C32.7894 49.2196 32.7894 49.2196 32.9663 48.8377C33.0214 48.7101 33.0764 48.5826 33.1331 48.4511C33.3918 48.1355 33.3918 48.1355 33.8471 47.9527C35.7242 47.8572 37.8575 50.0138 39.2598 51.1288C39.8417 51.6135 39.8417 51.6135 40.434 51.8646C40.7831 51.6715 40.7831 51.6715 41.1393 51.377C42.1104 50.6973 43.0682 50.581 44.2296 50.4806C43.3498 47.3662 40.0473 44.4468 37.3797 42.8035C35.0103 41.5673 32.616 41.2836 30.0649 42.1092ZM53.0797 52.9554C52.9146 52.9671 52.7494 52.9788 52.5792 52.9908C52.2134 53.0174 51.8477 53.0458 51.4822 53.0759C50.8224 53.1297 50.1622 53.177 49.5019 53.2239C49.0281 53.2586 48.5543 53.2935 48.0805 53.3288C47.8579 53.3453 47.6354 53.3619 47.406 53.3789C44.5141 53.4356 44.5141 53.4356 42.0636 54.6492C41.4789 55.6656 41.4084 56.3689 41.5106 57.5289C41.5323 57.7963 41.554 58.0638 41.5763 58.3394C41.596 58.5415 41.6156 58.7436 41.6358 58.9518C42.4282 59.1864 43.0781 59.204 43.8998 59.139C44.1481 59.1202 44.3964 59.1015 44.6523 59.0822C45.0523 59.0496 45.0523 59.0496 45.4605 59.0163C45.7391 58.9947 46.0178 58.9733 46.2965 58.952C46.7309 58.9188 47.1653 58.8854 47.5996 58.8513C48.626 58.7709 49.6526 58.6964 50.6796 58.6258C50.8206 58.616 50.9616 58.6062 51.1068 58.5962C51.783 58.5494 52.4592 58.5029 53.1354 58.4568C54.4742 58.3628 55.8006 58.2427 57.1306 58.0632C57.3863 56.695 57.2493 55.286 56.681 54.0132C55.6216 52.9678 54.5053 52.8282 53.0797 52.9554ZM56.0133 61.322C55.7607 61.3406 55.508 61.3592 55.2477 61.3783C54.971 61.3997 54.6943 61.4211 54.4177 61.4425C54.1342 61.4637 53.8507 61.4849 53.5673 61.5059C52.9808 61.5497 52.3943 61.594 51.8079 61.6387C50.978 61.7019 50.1481 61.763 49.3181 61.8236C48.8125 61.8607 48.3069 61.8979 47.8013 61.9351C47.5717 61.952 47.342 61.9688 47.1053 61.9861C46.4376 62.036 45.7701 62.0882 45.1026 62.1416C44.8442 62.1617 44.5859 62.1819 44.3197 62.2026C44.064 62.224 43.8083 62.2454 43.5449 62.2674C43.1946 62.2961 43.1946 62.2961 42.8373 62.3253C42.278 62.3551 42.278 62.3551 41.9226 62.6868C41.9142 63.3376 41.9142 63.3376 41.9835 64.1158C41.9939 64.2601 42.0043 64.4044 42.015 64.553C42.0489 65.0171 42.0853 65.481 42.1219 65.9449C42.1447 66.2507 42.1673 66.5565 42.1897 66.8623C42.2332 67.4513 42.2776 68.0402 42.3231 68.629C42.3972 69.5941 42.4666 70.5594 42.5343 71.525C44.5056 71.506 46.4574 71.3655 48.4214 71.2036C49.7293 71.0961 51.0373 70.9958 52.3466 70.9079C52.4884 70.8983 52.6303 70.8886 52.7764 70.8787C53.4701 70.8316 54.1638 70.7855 54.8576 70.7411C55.2358 70.7154 55.2358 70.7154 55.6216 70.6892C55.8442 70.6747 56.0667 70.6602 56.2959 70.6453C56.9518 70.5735 57.5644 70.4364 58.2013 70.2664C58.1569 69.4613 58.1117 68.6563 58.066 67.8514C58.0431 67.4467 58.0208 67.042 57.9985 66.6373C57.9226 65.3076 57.8378 63.9789 57.7314 62.6513C57.7132 62.42 57.695 62.1888 57.6762 61.9505C57.6476 61.7781 57.6191 61.6058 57.5896 61.4282C57.0486 61.1763 56.6072 61.2771 56.0133 61.322ZM37.3691 62.6636C37.0559 62.6897 37.0559 62.6897 36.7364 62.7162C36.5074 62.7361 36.2784 62.7561 36.0425 62.7766C35.549 62.8176 35.0556 62.8583 34.5621 62.8988C34.303 62.9202 34.044 62.9416 33.7771 62.9636C32.4851 63.0676 31.1922 63.1591 29.8992 63.2503C29.6408 63.2688 29.3824 63.2873 29.1162 63.3063C27.8695 63.3951 26.6228 63.4821 25.3757 63.5648C24.7948 63.6034 24.214 63.6429 23.6332 63.6825C23.222 63.7101 22.8107 63.7365 22.3995 63.7628C22.1508 63.7798 21.9021 63.7968 21.6459 63.8143C21.4268 63.8287 21.2077 63.8431 20.982 63.858C20.4625 63.9198 20.0667 63.9919 19.599 64.2223C18.7708 65.4002 18.9983 66.5625 19.1492 67.9379C19.1797 68.257 19.1797 68.257 19.2108 68.5825C19.2518 69.0022 19.2962 69.4217 19.3441 69.8407C19.3846 70.2227 19.4153 70.6059 19.4337 70.9896C19.4859 71.8203 19.5363 72.2221 20.0904 72.8656C21.2713 73.2818 22.3651 73.139 23.5991 73.0345C23.8669 73.0152 24.1347 72.996 24.4106 72.9762C25.2299 72.9171 26.0485 72.8505 26.8672 72.7836C27.324 72.7484 27.7808 72.7134 28.2376 72.6787C29.1059 72.6119 29.9739 72.5424 30.8418 72.4712C32.7276 72.3183 34.615 72.1889 36.5024 72.0586C36.8828 72.032 36.8828 72.032 37.2709 72.0049C37.4963 71.9893 37.7216 71.9738 37.9538 71.9578C38.3894 71.922 38.8234 71.8653 39.2554 71.799C39.3164 70.973 39.3013 70.1726 39.2537 69.346C39.2387 69.0867 39.2238 68.8275 39.2084 68.5604C39.1963 68.3592 39.1963 68.3592 39.1839 68.1539C39.1597 67.749 39.1368 67.344 39.114 66.939C38.9956 64.8496 38.9956 64.8496 38.7299 62.7758C38.2373 62.5465 37.9109 62.6169 37.3691 62.6636ZM44.9474 74.4796C43.7665 74.654 42.5777 74.7206 41.3876 74.8035C40.9642 74.8378 40.541 74.8725 40.1177 74.9078C39.2575 74.9775 38.3971 75.0377 37.5357 75.0917C37.1971 75.113 37.1971 75.113 36.8517 75.1348C36.6817 75.1454 36.5118 75.156 36.3367 75.1669C34.8235 78.3717 33.3145 81.5784 31.8106 84.7874C31.1122 86.2775 30.4124 87.7668 29.7093 89.2547C29.0965 90.5516 28.4862 91.8497 27.8791 93.1493C27.5576 93.8373 27.2348 94.5246 26.9089 95.2106C26.5449 95.9766 26.1868 96.7453 25.8292 97.5144C25.7204 97.7409 25.6117 97.9675 25.4997 98.2009C24.7759 99.7653 24.7759 99.7653 25.0182 101.409C25.4376 102.236 26.2867 102.51 27.0937 102.877C27.3238 102.984 27.3238 102.984 27.5587 103.094C28.0653 103.329 28.573 103.562 29.0808 103.795C29.4326 103.958 29.7844 104.121 30.136 104.285C31.0612 104.714 31.9873 105.14 32.9137 105.567C33.8591 106.002 34.8035 106.44 35.748 106.878C37.6009 107.735 39.4549 108.591 41.3096 109.445C41.3924 109.268 41.4752 109.091 41.5604 108.909C42.3405 107.241 43.1253 105.576 43.9148 103.914C44.3206 103.059 44.7247 102.203 45.1249 101.346C45.511 100.518 45.9016 99.6932 46.2953 98.8695C46.4449 98.5546 46.5928 98.2389 46.7391 97.9225C46.9441 97.4799 47.1546 97.0404 47.3666 96.6012C47.4261 96.4692 47.4856 96.3373 47.5469 96.2013C47.7257 95.8398 47.7257 95.8398 48.1268 95.2874C48.8964 95.0787 49.1783 95.0921 49.8836 95.4723C50.3339 95.8649 50.3339 95.8649 50.5316 96.4071C50.464 97.1914 50.1142 97.8639 49.7937 98.5745C49.7342 98.7072 49.6746 98.8398 49.6133 98.9765C49.4168 99.4136 49.2192 99.8502 49.0215 100.287C48.8848 100.59 48.7482 100.894 48.6117 101.197C48.2526 101.995 47.8925 102.792 47.5321 103.59C47.0997 104.547 46.6686 105.505 46.2373 106.463C45.5823 107.917 44.9257 109.37 44.2694 110.823C47.6268 112.387 50.9843 113.95 54.4436 115.561C59.3893 104.939 64.335 94.3168 69.4306 83.3731C66.0731 81.8098 62.7156 80.2465 59.2564 78.6358C58.6347 79.9354 58.6347 79.9354 58.0005 81.2612C57.7369 81.8104 57.4731 82.3594 57.209 82.9084C56.7899 83.7792 56.3712 84.6503 55.9549 85.5225C55.6191 86.2258 55.2816 86.9282 54.9428 87.6301C54.8141 87.8978 54.6859 88.1657 54.5583 88.434C54.3793 88.8103 54.1981 89.1854 54.0164 89.5604C53.9139 89.7741 53.8114 89.9878 53.7058 90.208C53.3828 90.7653 53.098 91.1229 52.586 91.5114C51.8588 91.6229 51.8588 91.6229 51.2213 91.2698C50.65 90.835 50.65 90.835 50.4523 90.2928C50.6504 89.7327 50.6504 89.7327 50.9664 89.0347C51.0233 88.9074 51.0803 88.7802 51.139 88.6491C51.3281 88.2281 51.5198 87.8083 51.7115 87.3884C51.8429 87.097 51.9742 86.8055 52.1054 86.514C52.4513 85.7462 52.7994 84.9795 53.1479 84.213C53.5031 83.4308 53.8562 82.6478 54.2095 81.8648C54.9032 80.3282 55.5991 78.7926 56.2966 77.2577C55.43 76.8221 54.5602 76.3941 53.6869 75.9722C53.3914 75.8283 53.0968 75.6824 52.8032 75.5345C50.0879 74.1694 47.9695 73.9961 44.9474 74.4796ZM72.3903 84.7512C67.4446 95.373 62.4989 105.995 57.4033 116.939C65.5874 122.15 65.5874 122.15 74.3104 124.136C75.2087 123.573 75.6027 122.991 76.0441 122.04C76.1024 121.916 76.1606 121.793 76.2207 121.666C76.414 121.254 76.6034 120.84 76.7928 120.427C76.9311 120.13 77.0696 119.834 77.2083 119.537C77.5835 118.734 77.9552 117.929 78.3262 117.124C78.715 116.282 79.1068 115.441 79.4982 114.6C80.1547 113.188 80.8091 111.776 81.4621 110.362C82.3009 108.547 83.1433 106.733 83.9867 104.919C84.7113 103.361 85.4343 101.802 86.1571 100.243C86.3898 99.7412 86.6228 99.2395 86.8557 98.7378C87.2211 97.9509 87.5854 97.1635 87.9489 96.3757C88.0827 96.0861 88.2169 95.7967 88.3513 95.5074C88.5342 95.1138 88.716 94.7196 88.8975 94.3253C89.0507 93.994 89.0507 93.994 89.207 93.6561C89.4531 93.1555 89.4531 93.1555 89.409 92.6753C83.7928 90.0604 78.1767 87.4454 72.3903 84.7512Z" fill="#6A18A4"/>
<path d="M113.925 74.8287C114.408 76.2078 114.468 77.6334 114.542 79.0844C114.624 80.053 114.729 80.6777 115.445 81.3661C115.701 81.5744 115.961 81.7779 116.224 81.9766C116.477 82.187 116.73 82.398 116.982 82.6098C117.361 82.9227 117.742 83.2341 118.126 83.5416C118.843 84.1364 119.342 84.5794 119.518 85.5364C119.396 86.3216 119.027 86.9782 118.401 87.4708C117.679 87.8684 116.959 88.1595 116.176 88.4197C114.946 88.8584 113.918 89.2304 113.297 90.4449C112.971 91.2132 112.712 92.0006 112.47 92.7992C112.131 93.8855 111.737 94.9365 110.896 95.7162C110.343 95.95 110.086 96.0522 109.493 95.9494C108.114 95.2076 107.215 94.1667 106.196 92.9977C105.312 92.0174 104.763 91.5951 103.411 91.511C102.65 91.4764 101.889 91.4561 101.128 91.4451C99.8668 91.4006 99.0742 91.2691 98.1099 90.4242C97.7475 89.6404 97.7558 89.2924 98.023 88.4713C98.1419 88.2339 98.2609 87.9966 98.3834 87.752C98.4454 87.6231 98.5075 87.4942 98.5714 87.3614C98.8834 86.7249 99.216 86.1384 99.6064 85.5447C100.386 84.3683 100.386 84.3683 100.519 83.0002C100.333 82.276 100.105 81.5845 99.8522 80.8813C99.0188 78.1353 99.0188 78.1353 99.7377 76.7763C100.153 76.3368 100.153 76.3368 100.723 76.1098C101.676 76.1332 102.508 76.2391 103.421 76.5053C105.486 77.1263 105.486 77.1263 107.515 76.6607C108.213 76.2273 108.855 75.7293 109.488 75.2075C109.921 74.8625 110.377 74.5925 110.864 74.3321C110.991 74.2619 111.119 74.1918 111.25 74.1195C112.258 73.7387 113.205 74.0403 113.925 74.8287ZM111.006 78.1966C110.772 78.3515 110.545 78.5153 110.319 78.6822C107.614 80.6005 107.614 80.6005 106.017 80.3613C105.594 80.2562 105.174 80.1414 104.758 80.0141C104.426 79.9493 104.093 79.8875 103.76 79.8308C103.544 79.786 103.328 79.7412 103.106 79.695C103.131 79.816 103.157 79.937 103.183 80.0616C103.257 80.4148 103.33 80.7683 103.402 81.1221C103.481 81.4842 103.57 81.8444 103.672 82.2008C104.178 84.0698 103.484 85.2718 102.576 86.9047C102.375 87.2517 102.172 87.5982 101.966 87.943C102.668 88.1369 103.284 88.2061 104.01 88.2055C105.818 88.3018 106.994 88.9538 108.205 90.2853C108.349 90.4565 108.492 90.6277 108.64 90.8041C108.958 91.2292 108.958 91.2292 109.366 91.3883C109.41 91.2822 109.455 91.1761 109.501 91.0667C109.709 90.5791 109.923 90.0944 110.138 89.6094C110.243 89.359 110.243 89.359 110.35 89.1035C111.082 87.4706 112.058 86.6629 113.723 86.0175C114.486 85.7803 114.486 85.7803 114.945 85.2075C114.741 85.0445 114.538 84.8816 114.328 84.7137C114.06 84.4941 113.793 84.2744 113.526 84.0546C113.392 83.9479 113.258 83.8411 113.12 83.7312C111.889 82.709 111.553 81.7621 111.389 80.1619C111.377 80.0261 111.364 79.8902 111.352 79.7503C111.305 79.2596 111.252 78.772 111.191 78.2827C111.13 78.2543 111.069 78.2259 111.006 78.1966Z" fill="#6A18A4"/>
<path d="M101.448 30.0787C101.943 31.143 102.083 32.2083 102.213 33.3609C102.244 33.6114 102.244 33.6114 102.276 33.8668C102.358 34.5646 102.422 35.1832 102.348 35.8848C102.3 36.3722 102.3 36.3722 102.669 36.6764C102.821 36.7676 102.973 36.8588 103.129 36.9528C103.96 37.4927 104.745 38.0666 105.511 38.6951C105.814 38.9398 105.814 38.9398 106.123 39.1894C106.673 39.7282 106.958 40.1537 107.226 40.8725C107.122 41.7102 107.018 42.1733 106.387 42.7388C105.624 43.2314 104.841 43.5908 103.99 43.9026C102.259 44.5193 102.259 44.5193 100.993 45.7746C100.721 46.5103 100.511 47.2471 100.305 48.0037C100.102 48.5568 99.8711 49.0937 99.6311 49.6315C99.5289 49.8747 99.4267 50.1178 99.3215 50.3683C98.9265 50.9635 98.9265 50.9635 98.3088 51.3423C97.4537 51.4761 97.0668 51.3871 96.3173 50.9858C95.7038 50.5334 95.2982 49.9707 94.8437 49.3644C93.8546 48.0693 93.0117 47.0822 91.3379 46.8463C90.4639 46.7847 89.6038 46.798 88.7288 46.8263C87.6618 46.8512 86.7833 46.6847 85.9169 46.0314C85.5112 45.2678 85.3937 44.8841 85.635 44.059C86.0081 43.2205 86.4586 42.4492 86.9584 41.6813C88.0418 40.0316 88.0418 40.0316 88.206 38.1315C87.9963 37.285 87.6842 36.4847 87.3626 35.6751C86.9603 34.4072 86.836 33.5851 87.4001 32.3559C87.894 31.8222 88.3605 31.5918 89.0725 31.5193C89.6994 31.6253 90.3017 31.785 90.9164 31.9474C93.3319 32.5877 93.3319 32.5877 95.6628 31.9492C96.5047 31.3957 97.2571 30.752 98.0211 30.0975C99.2231 29.2108 100.252 29.2724 101.448 30.0787ZM98.6281 33.7177C98.2798 33.9667 97.9317 34.216 97.585 34.4672C95.4368 35.9894 95.4368 35.9894 94.1405 35.8627C93.7653 35.7869 93.3919 35.7022 93.0208 35.6086C92.6203 35.5499 92.2194 35.4943 91.8179 35.4425C91.516 35.3964 91.2142 35.35 90.9125 35.3023C91.06 36.3938 91.2917 37.4478 91.5567 38.5169C91.7154 39.333 91.5238 39.8493 91.1791 40.578C91.0978 40.7512 91.0164 40.9244 90.9326 41.1028C90.8469 41.2827 90.7612 41.4626 90.673 41.648C90.5871 41.8304 90.5011 42.0128 90.4126 42.2007C90.2003 42.6509 89.9871 43.1008 89.7732 43.5503C90.0192 43.5647 90.2652 43.5791 90.5187 43.594C92.9984 43.7661 94.2722 44.0278 95.9782 45.9048C96.1247 46.0781 96.2713 46.2514 96.4222 46.4299C96.5478 46.5597 96.6733 46.6895 96.8026 46.8233C96.9532 46.8191 97.1037 46.8149 97.2587 46.8106C97.3398 46.5904 97.4209 46.3702 97.5044 46.1433C97.6153 45.8506 97.7264 45.5579 97.8376 45.2653C97.8904 45.1206 97.9433 44.9759 97.9978 44.8268C98.464 43.6126 98.9885 42.7438 100.165 42.0979C100.393 42.0007 100.621 41.9035 100.856 41.8033C101.902 41.3942 101.902 41.3942 102.468 40.4575C102.263 40.3019 102.059 40.1464 101.848 39.9862C99.4181 38.0733 99.4181 38.0733 99.198 36.9655C99.1728 36.6393 99.1565 36.3125 99.1478 35.9855C99.0914 35.5814 99.0306 35.178 98.9657 34.7752C98.928 34.5 98.928 34.5 98.8896 34.2193C98.8643 34.0822 98.8391 33.9451 98.8131 33.8038C98.7521 33.7754 98.691 33.747 98.6281 33.7177Z" fill="#6A18A4"/>
<path d="M127.189 41.0521C128.212 43.0233 128.575 44.9703 127.942 47.1416C127.076 49.4261 125.837 51.0402 123.607 52.1009C121.608 52.8969 119.739 53.0957 117.704 52.3244C115.265 51.2359 113.896 49.7274 112.854 47.2771C112.134 45.1611 112.643 43.0999 113.574 41.1558C114.665 39.1799 116.397 38.0249 118.496 37.3027C121.864 36.5059 125.434 38.1052 127.189 41.0521ZM118.356 40.888C117.148 41.5288 116.381 42.523 115.982 43.8235C115.677 45.1485 115.906 46.2646 116.54 47.4596C117.325 48.5566 118.348 49.1876 119.655 49.4878C120.972 49.6666 122.168 49.3429 123.249 48.5684C124.242 47.6681 124.783 46.6161 124.963 45.2904C125.012 43.9749 124.575 42.7751 123.691 41.7998C122.131 40.3854 120.296 40.088 118.356 40.888Z" fill="#6A18A4"/>
<path d="M101.561 54.9746C102.19 55.2933 102.548 55.4997 102.933 56.1067C103.612 61.1339 97.1806 69.9231 94.3444 73.6684C92.3061 76.2854 88.9317 80.4819 85.4013 80.973C84.7112 80.9054 84.2991 80.5649 83.7645 80.1432C83.4976 79.7798 83.4976 79.7798 83.4679 79.3298C83.6895 78.4315 83.8881 78.0258 84.669 77.5151C85.0902 77.2916 85.5129 77.0709 85.9368 76.8524C89.3448 75.0194 91.745 71.573 93.7519 68.3619C93.8262 68.2457 93.9006 68.1294 93.9772 68.0097C94.7655 66.7531 95.4295 65.4314 96.0981 64.1085C96.162 63.9829 96.2259 63.8573 96.2917 63.7279C97.0181 62.297 97.709 60.8601 98.3186 59.3753C98.4207 59.1267 98.5228 58.878 98.628 58.6219C98.8193 58.1469 99.0068 57.6704 99.1901 57.1923C99.2756 56.978 99.3611 56.7638 99.4492 56.543C99.5213 56.3548 99.5933 56.1666 99.6676 55.9727C100.099 55.2888 100.733 54.8654 101.561 54.9746Z" fill="#6A18A4"/>
<path d="M132.225 57.7032C132.291 58.4325 132.027 59.0764 131.577 59.6384C130.606 60.1791 129.765 59.9888 128.718 59.8266C123.215 59.1004 118.029 60.5781 113.579 63.8951C112.144 65.0135 110.816 66.199 109.623 67.5765C109.229 67.9587 108.982 68.118 108.446 68.2259C107.133 67.7833 107.133 67.7833 106.633 67.0441C106.547 66.2275 106.855 65.6602 107.26 64.9725C107.629 64.5429 107.98 64.166 108.39 63.7827C108.499 63.6787 108.609 63.5746 108.721 63.4674C113.86 58.6388 120.024 56.0146 127.085 56.1366C131.208 56.2772 131.208 56.2772 132.225 57.7032Z" fill="#6A18A4"/>
</g>
<defs>
<clipPath id="clip0_1_17843">
<rect width="104.476" height="104.476" fill="white" transform="translate(44.0997) rotate(24.9674)"/>
</clipPath>
</defs>
</svg>
