<svg width="101" height="101" viewBox="0 0 101 101" fill="none" xmlns="http://www.w3.org/2000/svg">
<path d="M35.4285 42.8114C35.7349 42.8325 36.0413 42.8536 36.3476 42.8745C36.9907 42.9187 37.6336 42.9634 38.2766 43.0085C39.9431 43.1255 41.6099 43.238 43.2768 43.3507C43.521 43.3673 43.521 43.3673 43.7701 43.3842C46.3042 43.5558 48.8386 43.7159 51.3754 43.8424C51.5099 43.8492 51.6444 43.8561 51.783 43.8631C52.5775 43.9031 53.3721 43.9384 54.1669 43.9706C54.5083 43.9847 54.8496 43.9996 55.1909 44.015C59.1703 44.1929 63.1452 44.2246 67.1278 44.2241C67.83 44.2241 68.5322 44.2255 69.2343 44.2282C73.8018 44.2453 78.3137 44.1824 82.8516 43.5958C84.5361 43.4403 86.0623 43.7074 87.4542 44.7193C88.8184 45.9695 89.3839 47.3594 89.4847 49.1932C89.4355 50.5833 89.0211 51.7581 88.1778 52.8673C87.1789 53.7709 86.0637 54.3676 84.8366 54.9016C84.6677 54.976 84.4988 55.0505 84.3248 55.1273C75.4822 58.9506 65.9055 61.0057 56.2692 60.9809C55.7694 60.9798 55.2696 60.9809 54.7698 60.9821C54.451 60.982 54.1323 60.9818 53.8135 60.9814C53.6646 60.9818 53.5156 60.9822 53.3621 60.9826C52.3208 60.9779 52.3208 60.9779 51.8809 60.7579C51.8717 60.948 51.8624 61.1381 51.8529 61.334C51.7268 63.7605 51.4987 66.173 51.2537 68.59C51.2224 68.9002 51.2224 68.9002 51.1905 69.2166C51.0807 70.3063 50.9699 71.3959 50.8585 72.4855C50.7438 73.6082 50.6321 74.7312 50.521 75.8543C50.4346 76.7223 50.3461 77.59 50.2569 78.4577C50.2148 78.872 50.1734 79.2863 50.1329 79.7007C50.0763 80.2777 50.0166 80.8543 49.9561 81.4309C49.9401 81.601 49.9241 81.7711 49.9076 81.9464C49.8103 82.8416 49.6892 83.5004 49.1192 84.2325C48.5846 84.4998 48.1655 84.4565 47.5667 84.4588C47.32 84.4602 47.0733 84.4616 46.8191 84.4631C46.5441 84.4636 46.2692 84.4642 45.9943 84.4647C45.7059 84.4659 45.4176 84.4672 45.1292 84.4686C44.3446 84.4721 43.56 84.4741 42.7754 84.4758C42.2855 84.4768 41.7956 84.478 41.3057 84.4792C39.7736 84.483 38.2415 84.4858 36.7094 84.4874C34.9394 84.4893 33.1695 84.4945 31.3995 84.5025C30.0323 84.5085 28.6651 84.5114 27.2979 84.512C26.4808 84.5125 25.6639 84.5143 24.8469 84.5192C24.0784 84.5238 23.31 84.5247 22.5415 84.5226C22.2594 84.5225 21.9772 84.5238 21.6951 84.5265C21.3102 84.53 20.9252 84.5281 20.5402 84.526C20.2169 84.5267 20.2169 84.5267 19.8871 84.5274C19.1981 84.4062 18.969 84.1849 18.543 83.6407C18.3905 83.1399 18.3905 83.1399 18.3157 82.575C18.2868 82.3658 18.2578 82.1565 18.228 81.9409C18.2017 81.7207 18.1755 81.5004 18.1485 81.2735C18.1215 81.0546 18.0945 80.8356 18.0667 80.61C17.9873 79.9397 17.9129 79.2691 17.8403 78.5981C17.7913 78.1457 17.7418 77.6934 17.6916 77.2411C17.6703 77.0444 17.6491 76.8477 17.6272 76.6451C17.5689 76.1216 17.5689 76.1216 17.3594 75.5528C17.3088 75.7807 17.2581 76.0086 17.2059 76.2434C17.0168 77.0912 16.8255 77.9385 16.6334 78.7856C16.5507 79.1519 16.4687 79.5183 16.3872 79.8848C16.2699 80.4126 16.1503 80.9398 16.0302 81.4669C15.9944 81.6301 15.9587 81.7933 15.9218 81.9615C15.7256 82.8124 15.5223 83.5184 14.9923 84.2325C14.4909 84.4832 14.1308 84.4603 13.5695 84.4678C13.3549 84.471 13.1402 84.4742 12.9191 84.4774C11.938 84.4862 10.957 84.4943 9.97586 84.4988C9.45769 84.5021 8.93954 84.5075 8.42142 84.515C7.67579 84.5258 6.93036 84.5301 6.18466 84.533C5.95264 84.5375 5.72063 84.542 5.48159 84.5466C3.90179 84.5425 3.90179 84.5425 3.2013 84.0288C2.6271 82.6414 3.06526 81.2094 3.41735 79.8136C3.49049 79.5145 3.49049 79.5145 3.5651 79.2093C3.72608 78.5528 3.88964 77.897 4.05326 77.2411C4.16651 76.7817 4.27961 76.3222 4.39257 75.8627C4.69029 74.6535 4.99024 73.4448 5.29063 72.2363C5.53382 71.2563 5.77544 70.2759 6.01698 69.2955C9.53857 55.0018 9.53857 55.0018 13.2169 50.5001C13.3277 50.3564 13.4386 50.2127 13.5528 50.0647C17.0058 45.7834 22.8627 43.2853 28.2065 42.6778C30.6046 42.448 33.0324 42.6391 35.4285 42.8114ZM17.754 50.6974C17.6538 50.7881 17.5537 50.8788 17.4505 50.9723C15.795 52.4903 14.5254 54.0741 13.4141 56.0235C13.3175 56.1891 13.2209 56.3546 13.1213 56.5252C11.6821 59.1771 11.1164 62.351 10.4097 65.2611C10.3148 65.649 10.2199 66.0368 10.1248 66.4247C9.92744 67.2316 9.73073 68.0386 9.53456 68.8458C9.28449 69.8745 9.03274 70.9028 8.78047 71.931C8.58469 72.7296 8.38976 73.5285 8.19509 74.3274C8.10262 74.7065 8.0099 75.0856 7.91692 75.4646C7.78682 75.9955 7.65785 76.5267 7.52915 77.0579C7.47274 77.2867 7.47274 77.2867 7.41518 77.5202C7.11436 78.7703 6.92024 79.9947 6.7071 81.2735C8.66003 81.2735 10.613 81.2735 12.6251 81.2735C12.7966 80.5104 12.7966 80.5104 12.9716 79.7319C13.3501 78.0501 13.7327 76.3692 14.1172 74.6888C14.3502 73.67 14.5818 72.651 14.8104 71.6313C15.031 70.6469 15.2552 69.6635 15.4819 68.6805C15.5677 68.3055 15.6522 67.9303 15.7354 67.5548C15.8524 67.0284 15.9738 66.5031 16.0962 65.978C16.1296 65.8229 16.1629 65.6678 16.1973 65.508C16.4309 64.5336 16.72 63.9409 17.5567 63.3224C18.0414 63.2692 18.0414 63.2692 18.5061 63.3593C18.6619 63.3865 18.8178 63.4138 18.9784 63.4418C19.0951 63.4675 19.2118 63.4932 19.3321 63.5196C19.9367 67.2021 20.3332 70.9085 20.7499 74.6158C20.9981 76.8129 21.2463 79.0099 21.502 81.2735C29.7694 81.2735 38.0368 81.2735 46.5548 81.2735C47.5338 72.2111 47.5338 72.2111 48.4366 63.1411C48.5045 62.4258 48.5754 61.7109 48.6469 60.996C48.6755 60.6802 48.6755 60.6802 48.7048 60.3581C48.8898 58.5544 48.8898 58.5544 49.5137 57.7989C49.9937 57.5589 50.2891 57.5816 50.8252 57.5886C51.1126 57.5915 51.1126 57.5915 51.4059 57.5944C51.6151 57.5973 51.8242 57.6002 52.0397 57.6032C52.4865 57.6072 52.9332 57.611 53.38 57.6147C53.6145 57.6167 53.849 57.6188 54.0906 57.6209C60.0112 57.6651 60.0112 57.6651 65.8868 57.0099C66.2417 56.9495 66.2417 56.9495 66.6038 56.8879C72.3579 55.8769 77.9052 54.287 83.2585 51.9426C83.4217 51.8723 83.5849 51.802 83.7531 51.7296C84.8015 51.2561 85.7366 50.7499 86.2052 49.637C86.2052 48.6753 85.8174 47.9795 85.2065 47.2575C83.814 46.5168 82.0824 47.0081 80.5755 47.1861C76.6941 47.631 72.7719 47.5893 68.8704 47.5904C68.7267 47.5905 68.5829 47.5906 68.4348 47.5907C58.3149 47.5939 48.223 47.0537 38.1322 46.3171C34.1955 46.0246 34.1955 46.0246 30.2503 45.9198C29.9986 45.9195 29.9986 45.9195 29.7418 45.9191C25.4174 45.9647 20.946 47.7816 17.754 50.6974Z" fill="#6A18A4"/>
<path d="M89.3612 55.6289C90.1485 56.4031 90.4074 57.2432 90.7066 58.2735C90.7571 58.4408 90.8077 58.6081 90.8597 58.7805C91.0282 59.3403 91.1933 59.9011 91.3585 60.4619C91.4775 60.8603 91.5967 61.2586 91.7161 61.6568C92.0458 62.7594 92.3723 63.8628 92.6982 64.9665C92.92 65.7167 93.1426 66.4666 93.3655 67.2164C93.8359 68.799 94.3052 70.3819 94.7736 71.965C94.8297 72.1542 94.8297 72.1542 94.8868 72.3473C95.3483 73.907 95.8067 75.4675 96.2607 77.0295C96.3974 77.4985 96.5349 77.9673 96.6733 78.4359C96.8747 79.1189 97.0732 79.8027 97.2711 80.4867C97.3321 80.6915 97.3931 80.8963 97.456 81.1073C97.5102 81.2968 97.5643 81.4863 97.6202 81.6816C97.6683 81.8464 97.7164 82.0112 97.766 82.181C97.8586 82.7458 97.8289 83.0974 97.6463 83.6406C97.2224 84.2205 96.9947 84.4054 96.2822 84.5312C96.0592 84.5324 95.8361 84.5337 95.6063 84.5349C95.3528 84.5381 95.0994 84.5412 94.8382 84.5444C94.5621 84.5436 94.2861 84.5426 94.01 84.5414C93.726 84.5425 93.442 84.5437 93.158 84.5451C92.5632 84.5472 91.9685 84.5463 91.3737 84.5434C90.6125 84.54 89.8517 84.5447 89.0906 84.5516C88.5042 84.5559 87.9178 84.5556 87.3314 84.554C87.0509 84.5538 86.7703 84.5552 86.4898 84.5581C86.097 84.5616 85.7042 84.558 85.3115 84.5542C85.0883 84.554 84.8651 84.5538 84.6351 84.5536C83.8467 84.3908 83.5567 84.0532 83.0487 83.4434C82.7375 82.8968 82.7375 82.8968 82.4777 82.3114C82.383 82.101 82.2882 81.8906 82.1906 81.6738C82.0954 81.4562 82.0002 81.2387 81.9021 81.0145C81.803 80.7932 81.704 80.5718 81.6019 80.3438C81.3588 79.7997 81.1179 79.2548 80.8787 78.709C80.8759 78.8413 80.873 78.9736 80.87 79.1098C80.8553 79.712 80.8362 80.3139 80.8171 80.9159C80.8104 81.2281 80.8104 81.2281 80.8036 81.5466C80.7966 81.7481 80.7896 81.9497 80.7824 82.1573C80.7773 82.3422 80.7721 82.5271 80.7668 82.7176C80.6662 83.3407 80.4562 83.7223 80.0897 84.2324C79.5839 84.4853 79.2235 84.4562 78.657 84.4587C78.4368 84.4601 78.2167 84.4616 77.9898 84.463C77.7472 84.4635 77.5045 84.4641 77.2545 84.4646C76.9998 84.4659 76.7451 84.4672 76.4827 84.4685C75.7829 84.472 75.0831 84.4741 74.3833 84.4757C73.9462 84.4767 73.5092 84.4779 73.0721 84.4791C71.7052 84.4829 70.3382 84.4857 68.9713 84.4874C67.3925 84.4893 65.8137 84.4945 64.2348 84.5024C63.015 84.5084 61.7953 84.5113 60.5755 84.512C59.8466 84.5124 59.1179 84.5142 58.3891 84.5192C57.5762 84.5246 56.7634 84.5238 55.9506 84.5224C55.7087 84.5249 55.4668 84.5275 55.2176 84.5301C54.8857 84.528 54.8857 84.528 54.5471 84.5259C54.2587 84.5266 54.2587 84.5266 53.9646 84.5273C53.311 84.4012 53.0761 84.1578 52.6698 83.6406C52.3254 81.547 52.8091 79.1597 53.0373 77.0623C53.0758 76.7015 53.1142 76.3407 53.1525 75.98C53.2326 75.2297 53.3138 74.4795 53.3958 73.7294C53.5006 72.7693 53.6018 71.8088 53.7021 70.8481C53.7802 70.1055 53.8604 69.3632 53.9413 68.6209C53.9796 68.2667 54.0171 67.9124 54.0538 67.558C54.1052 67.064 54.1597 66.5705 54.215 66.077C54.2295 65.9318 54.2439 65.7866 54.2589 65.637C54.3567 64.7973 54.5234 64.1962 55.037 63.5195C55.7653 63.034 56.3718 63.0316 57.2184 62.9848C57.5476 62.9633 57.8767 62.9417 58.2059 62.9201C58.4653 62.904 58.4653 62.904 58.7299 62.8876C62.1972 62.6688 65.6169 62.3374 69.0428 61.7442C69.2512 61.7081 69.4596 61.672 69.6743 61.6348C75.4174 60.6141 81.0664 59.0276 86.252 56.3203C87.3401 55.7688 88.1367 55.4155 89.3612 55.6289ZM86.2394 60.1153C82.1319 62.0397 77.7995 63.3146 73.3827 64.3086C73.2201 64.3459 73.0575 64.3832 72.89 64.4216C68.6058 65.3909 64.2174 65.8899 59.8383 66.1638C59.6303 66.1769 59.4223 66.19 59.208 66.2034C59.0257 66.2139 58.8433 66.2244 58.6554 66.2352C58.1632 66.2671 58.1632 66.2671 57.6014 66.4785C56.9958 71.4044 56.5054 76.3322 56.0233 81.2735C63.0538 81.2735 70.0844 81.2735 77.328 81.2735C77.385 77.6085 77.385 77.6085 77.44 73.9436C77.4476 73.4844 77.4551 73.0252 77.4628 72.566C77.4661 72.3273 77.4693 72.0885 77.4727 71.8426C77.4766 71.6144 77.4806 71.3862 77.4847 71.1511C77.4878 70.9531 77.4909 70.7551 77.494 70.5511C77.5219 70.0854 77.5904 69.6861 77.7225 69.2402C78.0017 69.2015 78.2812 69.1649 78.5609 69.1293C78.7943 69.0984 78.7943 69.0984 79.0325 69.0669C79.8506 69.0249 79.8506 69.0249 80.287 69.2402C80.4228 69.6333 80.5532 70.0282 80.6815 70.4238C80.9058 70.9456 81.1521 71.4563 81.3981 71.9681C81.4682 72.1156 81.5384 72.2631 81.6106 72.4151C81.8345 72.886 82.0593 73.3563 82.2843 73.8267C82.5771 74.4398 82.8695 75.0531 83.1612 75.6668C83.2332 75.8181 83.3052 75.9695 83.3794 76.1254C83.9834 77.4019 84.5595 78.6899 85.1237 79.9844C85.3892 80.6781 85.3892 80.6781 85.8104 81.2735C86.4081 81.291 87.0012 81.2962 87.5989 81.2927C87.7781 81.2924 87.9574 81.2922 88.142 81.2919C88.7169 81.2908 89.2918 81.2883 89.8667 81.2858C90.2554 81.2848 90.6442 81.2839 91.0329 81.2831C91.988 81.2809 92.9432 81.2775 93.8983 81.2735C93.3961 79.1992 92.8414 77.1487 92.2246 75.105C92.141 74.826 92.0574 74.547 91.974 74.2679C91.756 73.5398 91.5372 72.8119 91.3181 72.0841C91.1005 71.3604 90.8835 70.6365 90.6665 69.9126C90.4114 69.0614 90.1562 68.2102 89.9007 67.3592C89.1224 64.7662 88.3525 62.1707 87.5858 59.5742C87.112 59.5742 86.6634 59.9144 86.2394 60.1153Z" fill="#6A18A4"/>
<path d="M44.179 17.2029C44.6667 17.6307 45.1199 18.0743 45.5683 18.5429C45.7074 18.6782 45.8465 18.8135 45.9898 18.9529C48.3355 21.3656 49.3126 24.7008 49.3164 28.0117C49.0984 31.7642 47.5683 35.1272 44.7792 37.6777C42.2168 39.6599 39.4892 40.7169 36.2475 40.6983C35.9451 40.6967 35.9451 40.6967 35.6366 40.695C32.0037 40.6365 29.2284 39.2022 26.6061 36.7407C24.1412 34.1875 22.9998 30.7866 23.0069 27.2846C23.1056 23.7524 24.5868 20.6128 27.0569 18.1114C31.7667 13.7256 39.0247 13.3559 44.179 17.2029ZM28.6851 21.2592C26.7814 23.6316 26.1594 26.4123 26.4335 29.3925C26.9097 31.8648 28.3804 34.1715 30.4336 35.6295C32.8453 37.1611 35.4255 37.8867 38.2448 37.2585C41.1126 36.4697 43.302 34.9465 44.7792 32.3515C46.0257 29.6139 46.3557 27.1392 45.371 24.2636C44.228 21.5855 42.2758 19.5884 39.5887 18.4813C35.7058 16.9994 31.4345 18.1916 28.6851 21.2592Z" fill="#6A18A4"/>
<path d="M72.1992 19.7266C72.4517 19.8235 72.4517 19.8235 72.7093 19.9224C75.3545 21.0655 77.3966 23.4958 78.4747 26.1131C79.5428 29.1341 79.6507 32.3492 78.3145 35.3106C76.7771 38.2976 74.6348 40.492 71.4102 41.6231C68.2078 42.6131 64.9702 42.419 61.9661 40.8957C60.8432 40.227 59.9053 39.3865 58.9824 38.4669C58.871 38.3601 58.7597 38.2533 58.6449 38.1432C56.6167 36.0184 55.8581 33.0352 55.8262 30.1817C56.0012 27.2833 56.9336 24.914 58.7852 22.6856C58.9393 22.4945 58.9393 22.4945 59.0965 22.2996C62.2585 18.7622 67.9577 17.9225 72.1992 19.7266ZM61.5099 24.6529C59.8047 26.5602 59.0897 28.6278 59.1797 31.1804C59.4555 33.7692 60.5977 35.5744 62.5579 37.2463C64.2902 38.5201 66.5125 39.1513 68.6484 38.8614C70.2946 38.5101 71.6789 37.9511 72.9883 36.8887C73.1116 36.7898 73.2349 36.6909 73.362 36.589C74.9712 35.1481 75.777 33.056 75.9896 30.9446C76.0988 28.5082 75.1833 26.3892 73.5662 24.6013C70.1338 21.3165 64.9452 21.3821 61.5099 24.6529Z" fill="#6A18A4"/>
<path d="M32.743 56.6014C32.8742 56.671 33.0054 56.7407 33.1406 56.8125C33.3619 56.9231 33.3619 56.9231 33.5876 57.036C33.7005 57.0924 33.8134 57.1489 33.9297 57.207C34.0965 57.085 34.2633 56.9629 34.4352 56.8372C35.9143 55.7549 37.911 55.8602 39.6504 56.0234C41.309 56.4854 42.4177 57.5721 43.2636 59.0379C43.9982 60.6147 44.0481 62.3763 43.5957 64.0497C43.1671 65.1492 42.3844 65.9891 41.6231 66.8731C41.3388 67.2218 41.0552 67.5711 40.7723 67.921C40.0157 68.8446 39.2454 69.7557 38.4718 70.665C37.9163 71.3199 37.373 71.9825 36.8394 72.6554C36.7145 72.811 36.5897 72.9667 36.461 73.127C36.2189 73.4306 35.98 73.7368 35.7444 74.0455C35.1829 74.7476 34.875 75.107 34.0037 75.3925C32.9997 75.3367 32.524 74.9476 31.843 74.2212C31.6658 74.0087 31.4902 73.795 31.3159 73.5801C31.2217 73.4663 31.1276 73.3526 31.0305 73.2354C30.7461 72.8911 30.4637 72.5453 30.1816 72.1992C30.0255 72.0095 29.8694 71.8198 29.7085 71.6244C29.4164 71.2688 29.1252 70.9125 28.8347 70.5556C28.5501 70.206 28.2645 69.8572 27.9778 69.5092C27.6856 69.1542 27.3945 68.7982 27.1048 68.4412C26.7612 68.0194 26.4144 67.6016 26.0645 67.1851C24.6239 65.4467 23.4906 63.8051 23.6102 61.4421C23.8252 59.7435 24.4038 58.4121 25.6445 57.207C27.7409 55.7479 30.4197 55.5047 32.743 56.6014ZM27.8145 59.7715C27.2211 60.4254 27.0416 61.0518 26.9021 61.9168C27.0204 63.7395 28.8368 65.2683 29.9782 66.5772C30.5065 67.1838 31.0188 67.8018 31.5255 68.4265C32.2411 69.308 32.9771 70.168 33.7324 71.0156C34.4375 70.327 35.0957 69.6129 35.7297 68.858C35.8226 68.7479 35.9155 68.6377 36.0112 68.5242C36.8851 67.481 37.7294 66.4159 38.56 65.3381C38.8636 64.9458 39.1718 64.5756 39.5017 64.2038C40.1619 63.4493 40.5266 62.925 40.5751 61.9044C40.5025 61.0055 40.2837 60.4373 39.6504 59.7715C38.9101 59.3385 38.4374 59.1767 37.5791 59.192C36.5175 59.4764 35.7637 59.8617 35.0516 60.7085C34.2673 61.3652 33.5329 61.2383 32.5488 61.1524C32.4929 61.0308 32.4369 60.9093 32.3793 60.784C31.9678 60.0146 31.3566 59.6512 30.5639 59.3276C29.5348 59.0649 28.6984 59.1931 27.8145 59.7715Z" fill="#6A18A4"/>
</svg>
