<svg width="122" height="122" viewBox="0 0 122 122" fill="none" xmlns="http://www.w3.org/2000/svg">
<path d="M33.8358 1.66797C34.116 1.67534 34.3961 1.68271 34.6847 1.6903C37.8763 1.83029 39.9873 2.63123 42.1757 5.0039C43.751 6.84507 44.4926 9.16783 44.3872 11.5948C44.1288 13.7447 43.5198 16.0504 41.9374 17.6328C41.8723 18.1086 41.8139 18.5854 41.7587 19.0625C41.4207 21.3012 40.6202 22.7833 38.8425 24.1995C37.0582 25.478 35.2792 25.4928 33.121 25.2578C31.1367 24.6901 29.8042 23.3932 28.7649 21.6473C28.13 20.4296 27.8457 19.4318 27.8639 18.0498C27.8661 17.8372 27.8682 17.6247 27.8704 17.4057C27.8732 17.2447 27.876 17.0838 27.8788 16.918C27.7314 16.8934 27.5839 16.8688 27.432 16.8435C26.9257 16.6797 26.9257 16.6797 26.4491 15.9648C26.3421 15.1261 26.3203 14.709 26.8307 14.0204C27.5846 13.4421 28.0688 13.4711 29.0106 13.4629C30.409 13.3946 31.5474 13.3172 32.6444 12.3906C33.3533 11.5325 33.8058 10.586 34.2231 9.56103C34.5507 8.8164 34.5507 8.8164 35.2655 8.33984C36.055 8.25586 36.5356 8.25787 37.2462 8.6228C37.7574 9.17183 37.8056 9.50426 37.8866 10.2461C37.3508 12.7181 35.8999 14.7659 33.8358 16.2031C33.0455 16.6349 32.3688 16.918 31.453 16.918C31.7143 18.6575 32.0838 19.8428 33.2848 21.1772C34.173 21.6093 35.0153 21.626 35.9804 21.4453C36.9038 20.9533 37.4846 20.2599 37.8866 19.3008C37.9854 18.8161 37.9854 18.8161 38.0207 18.3114C38.0385 18.1263 38.0563 17.9412 38.0746 17.7506C38.0912 17.5593 38.1078 17.3681 38.1249 17.1711C38.3766 14.2834 38.3766 14.2834 39.3163 13.3437C39.6308 13.3437 39.9454 13.3437 40.2694 13.3437C40.5714 10.9903 40.5974 9.31978 39.2716 7.31225C37.6621 5.77425 36.0661 5.56524 33.8954 5.52514C33.6506 5.51608 33.4058 5.50702 33.1536 5.49769C31.6905 5.44749 31.6905 5.44749 30.2616 5.71875C30.3796 5.8367 30.4975 5.95465 30.619 6.07617C31.1518 6.96411 31.0745 7.54854 30.9765 8.57812C30.5705 9.16992 30.3252 9.27994 29.6166 9.42514C29.3724 9.45032 29.1282 9.47551 28.8766 9.50146C27.5313 9.69528 26.8818 9.95346 25.9726 10.9609C25.6485 11.9332 25.7409 12.8245 25.7724 13.8417C25.7335 14.55 25.666 14.9138 25.2577 15.4883C24.8277 15.748 24.8277 15.748 24.3344 15.9499C23.2722 16.4377 22.6857 17.0582 22.1601 18.1094C22.1301 19.2003 22.2367 20.0266 22.8749 20.9241C23.6411 21.4827 24.3779 21.8268 25.2605 22.162C25.7343 22.3984 25.7343 22.3984 26.2108 23.1133C26.2406 23.843 26.2406 23.843 26.2108 24.543C26.2108 24.7002 26.2108 24.8575 26.2108 25.0195C26.4698 24.9679 26.4698 24.9679 26.7339 24.9153C29.4113 24.4012 29.4113 24.4012 30.2616 24.543C30.9616 25.0344 30.9616 25.0344 31.453 25.7344C31.453 26.5646 31.4284 27.1254 30.9121 27.7947C30.3993 28.1959 30.0274 28.2638 29.3858 28.362C29.0602 28.4166 29.0602 28.4166 28.7282 28.4723C28.274 28.5429 27.8198 28.613 27.3655 28.6826C24.5353 29.1593 23.2115 30.7776 21.6014 33.0248C21.2995 33.4503 20.9991 33.8767 20.6987 34.3032C19.9351 35.3848 19.1493 36.4496 18.3625 37.5144C18.2217 37.7052 18.0809 37.8961 17.9359 38.0927C17.2565 39.0136 16.5755 39.9333 15.8922 40.8513C15.6532 41.1736 15.4143 41.496 15.1754 41.8184C15.0653 41.9653 14.9553 42.1123 14.8418 42.2637C14.0692 43.3084 13.69 44.1313 13.7081 45.4579C14.087 47.2499 16.1611 48.8914 17.3944 50.1731C18.6187 51.4525 19.8122 52.7488 20.9687 54.0898C21.3105 54.4826 21.6529 54.8749 21.9962 55.2664C22.1526 55.4454 22.3089 55.6245 22.47 55.809C22.8486 56.2549 22.8486 56.2549 23.3515 56.4727C23.4329 56.1455 23.5118 55.8177 23.5898 55.4897C23.634 55.3073 23.6782 55.1248 23.7238 54.9369C23.7582 54.736 23.7926 54.5351 23.828 54.3281C23.8677 54.107 23.9073 53.8858 23.9481 53.658C23.7595 52.465 22.9823 51.8504 22.1452 51.022C21.8293 50.7002 21.5138 50.3782 21.1986 50.0558C21.042 49.8972 20.8855 49.7386 20.7243 49.5752C20.1066 48.9328 19.5222 48.265 18.9409 47.5897C18.6364 47.238 18.3216 46.8951 18.005 46.5542C17.5259 45.826 17.5052 45.4149 17.6327 44.5586C17.9008 44.0076 17.9008 44.0076 18.3476 43.6055C19.1306 43.3501 19.5618 43.2678 20.318 43.6166C21.1945 44.2436 21.8734 44.996 22.5919 45.7947C22.7343 45.9506 22.8767 46.1064 23.0234 46.267C23.3723 46.6495 23.7195 47.0336 24.0663 47.418C24.086 45.8077 24.0706 44.208 23.9723 42.6002C23.9562 42.3146 23.9401 42.0289 23.9234 41.7346C23.8892 41.1473 23.8506 40.5603 23.808 39.9735C23.7013 37.9019 23.7013 37.9019 24.0607 37.183C24.367 36.8517 24.367 36.8517 25.0194 36.457C25.8529 36.457 26.4072 36.5365 27.1342 36.9485C28.656 39.5694 27.907 44.6978 27.9208 47.6613C27.9226 48.0093 27.9251 48.3572 27.9284 48.7052C27.9576 52.0324 27.8508 55.3124 26.5534 58.4236C26.4034 58.799 26.2541 59.1747 26.1057 59.5508C26.0401 59.7099 25.9745 59.8691 25.9069 60.0331C25.5768 60.9708 25.4675 61.8124 25.5314 62.8011C25.6905 66.5225 25.255 70.0464 24.6769 73.7183C24.6186 74.0891 24.6186 74.0891 24.559 74.4674C23.9157 78.5202 23.9157 78.5202 23.5898 79.8242C31.2171 79.8242 38.8445 79.8242 46.703 79.8242C45.8774 74.5165 45.8774 74.5165 45.0351 69.1016C44.9755 65.5422 44.9755 65.5422 45.0183 64.1153C45.0868 61.6322 44.3075 59.4733 43.4151 57.1928C42.7868 55.5571 42.4355 53.9165 42.1757 52.1836C42.1389 51.9395 42.1389 51.9395 42.1013 51.6904C41.3591 46.5391 40.7714 40.2198 43.3671 35.5039C43.5096 35.2434 43.6521 34.983 43.799 34.7146C44.5616 33.7776 45.3306 33.2351 46.5141 33.0299C48.6644 32.92 50.135 34.2879 51.7367 35.5635C52.1179 35.8634 52.4992 36.1631 52.8807 36.4626C53.1777 36.6961 53.1777 36.6961 53.4807 36.9343C54.4959 37.7275 55.5213 38.5071 56.547 39.2866C56.7559 39.4455 56.9648 39.6044 57.1801 39.7681C57.6055 40.0916 58.0311 40.415 58.4566 40.7384C59.2958 41.3763 60.1342 42.0151 60.9725 42.654C61.3862 42.9693 61.7998 43.2845 62.2136 43.5996C63.2983 44.4257 64.3824 45.2526 65.4658 46.0804C65.6905 46.252 65.9152 46.4235 66.1467 46.6003C66.5747 46.9271 67.0026 47.2541 67.4302 47.5813C68.53 48.4207 69.6386 49.242 70.7694 50.0391C70.7839 49.8382 70.7983 49.6373 70.8132 49.4303C70.8331 49.1692 70.8531 48.9082 70.8737 48.6392C70.9027 48.2494 70.9027 48.2494 70.9323 47.8517C71.0077 47.1797 71.0077 47.1797 71.246 46.7031C71.1053 46.6363 70.9645 46.5694 70.8195 46.5006C70.3363 46.2492 69.926 45.9814 69.4915 45.6551C69.3409 45.5423 69.1903 45.4295 69.0352 45.3133C68.8752 45.1921 68.7153 45.0708 68.5504 44.9458C68.3826 44.8193 68.2148 44.6928 68.0419 44.5624C66.7436 43.5786 65.4681 42.5683 64.1999 41.5461C63.1536 40.7031 62.0961 39.8774 61.029 39.0607C58.7356 37.3053 56.4575 35.5295 54.1884 33.7428C53.7842 33.4246 53.3795 33.1071 52.9747 32.7897C52.4303 32.3628 51.8885 31.9329 51.3477 31.5015C51.0753 31.2867 50.8029 31.072 50.5304 30.8574C50.2924 30.6682 50.0543 30.479 49.8091 30.2841C48.4468 29.3443 47.2024 28.9691 45.5684 28.8171C45.2198 28.7793 44.8712 28.7414 44.5227 28.7036C43.98 28.6479 43.4372 28.5933 42.8944 28.5391C42.3657 28.4853 41.8374 28.428 41.3091 28.3704C41.1473 28.3554 40.9854 28.3405 40.8187 28.3252C39.8872 28.2227 39.2758 28.0698 38.6015 27.4023C38.4364 26.7575 38.4856 26.1492 38.6015 25.4961C38.9692 24.9779 39.2297 24.8245 39.7929 24.543C41.0663 24.5641 42.3363 24.6775 43.6054 24.7812C43.7892 24.7957 43.9731 24.8101 44.1626 24.825C47.518 25.0998 50.0359 25.6696 52.7373 27.8021C53.1906 28.1598 53.6475 28.5127 54.1046 28.8655C55.0264 29.5783 55.9449 30.2952 56.8627 31.0131C57.7639 31.7174 58.6671 32.4192 59.5702 33.1211C59.9276 33.3991 60.2851 33.6771 60.6425 33.9551C60.8194 34.0927 60.9963 34.2303 61.1786 34.3721C61.7147 34.7891 62.2509 35.2061 62.787 35.623C62.9642 35.7608 63.1414 35.8986 63.3239 36.0406C63.6788 36.3167 64.0337 36.5927 64.3886 36.8688C65.3205 37.5937 66.2526 38.3184 67.185 39.0428C67.3786 39.1933 67.5723 39.3438 67.7718 39.4988C68.1416 39.7862 68.5114 40.0735 68.8813 40.3607C69.0489 40.491 69.2164 40.6212 69.3891 40.7554C69.5352 40.8689 69.6814 40.9825 69.832 41.0994C70.3858 41.5338 70.9352 41.9737 71.4843 42.4141C72.0341 38.7158 72.5068 35.0103 72.9526 31.2981C73.0635 30.3755 73.1758 29.453 73.2881 28.5305C73.3602 27.9335 73.4322 27.3366 73.5041 26.7396C73.5371 26.469 73.5701 26.1984 73.6041 25.9196C73.7564 24.6433 73.8884 23.3706 73.9792 22.0885C74.1137 20.2448 74.346 18.4158 74.581 16.5829C74.6276 16.2162 74.6742 15.8495 74.7208 15.4828C74.8178 14.721 74.9154 13.9593 75.0134 13.1976C75.1387 12.2233 75.2617 11.2488 75.3843 10.2741C75.4795 9.51969 75.5761 8.76544 75.6732 8.01123C75.7192 7.65182 75.7647 7.29234 75.8096 6.93279C75.8725 6.43157 75.9374 5.93064 76.0027 5.42974C76.039 5.14541 76.0754 4.86109 76.1128 4.56815C76.2831 3.6293 76.4851 2.88926 77.1286 2.17431C77.942 1.77857 78.4868 1.92542 79.3476 2.14453C79.8092 2.47216 79.8092 2.47216 80.0624 2.85937C80.0624 3.09527 80.0624 3.33117 80.0624 3.57422C80.2307 3.53981 80.399 3.50541 80.5725 3.46997C86.6888 2.3635 92.6774 3.43274 98.3356 5.85278C98.5714 5.95311 98.5714 5.95311 98.8119 6.05546C99.8661 6.52499 100.973 7.03134 101.508 8.10156C101.578 9.64311 101.383 11.1071 101.15 12.6289C101.116 12.859 101.082 13.089 101.047 13.3261C100.964 13.8881 100.879 14.45 100.793 15.0117C103.426 15.1148 105.741 15.0368 108.272 14.2671C109.29 14.0205 109.995 13.9382 111.039 14.0586C111.706 14.6904 111.977 15.0476 112.048 15.9725C112.018 16.2366 111.989 16.5006 111.958 16.7727C111.928 17.0679 111.897 17.3631 111.866 17.6672C111.829 17.9704 111.792 18.2736 111.754 18.5859C111.723 18.8693 111.692 19.1528 111.66 19.4448C111.56 20.3314 111.451 21.2164 111.339 22.1015C111.319 22.26 111.299 22.4184 111.278 22.5816C111.173 23.4159 111.068 24.25 110.961 25.084C110.851 25.941 110.745 26.7983 110.64 27.6557C110.557 28.3209 110.472 28.9858 110.387 29.6506C110.327 30.1194 110.27 30.5884 110.213 31.0575C110.176 31.3424 110.138 31.6273 110.1 31.9209C110.053 32.2955 110.053 32.2955 110.004 32.6777C109.799 33.5714 109.477 34.2963 108.728 34.8505C104.275 36.7926 98.8539 36.7608 94.2848 35.2414C92.3742 34.4859 89.8092 33.4444 88.6405 31.6914C88.1871 29.3531 88.9706 26.6256 89.3554 24.3047C85.4974 23.6316 81.5678 23.636 77.6796 24.0664C77.6675 24.2964 77.6554 24.5264 77.643 24.7634C77.5123 27.1133 77.2848 29.4399 76.9997 31.7759C76.9546 32.1528 76.9095 32.5297 76.8645 32.9066C76.742 33.9309 76.6181 34.9551 76.494 35.9792C76.3598 37.088 76.227 38.1969 76.0939 39.3058C75.8337 41.4728 75.5722 43.6398 75.3104 45.8067C75.0976 47.5673 74.8852 49.3279 74.6731 51.0886C74.6277 51.4653 74.6277 51.4653 74.5814 51.8495C74.52 52.3597 74.4585 52.8699 74.3971 53.38C73.8218 58.1548 73.2451 62.9294 72.6679 67.7039C72.1398 72.0733 71.6135 76.4429 71.088 80.8127C70.5481 85.3029 70.0069 89.7929 69.4644 94.2828C69.16 96.8023 68.856 99.3219 68.5534 101.842C68.296 103.984 68.0375 106.127 67.7775 108.269C67.6449 109.362 67.5128 110.455 67.3821 111.549C67.2625 112.549 67.1414 113.549 67.0192 114.549C66.9751 114.911 66.9317 115.274 66.8888 115.636C66.8305 116.128 66.7703 116.619 66.7095 117.11C66.6765 117.384 66.6436 117.657 66.6096 117.938C66.4444 118.866 66.237 119.596 65.6017 120.302C64.7882 120.698 64.2435 120.551 63.3827 120.332C62.8499 119.943 62.6882 119.734 62.5742 119.079C62.6018 116.22 62.9962 113.396 63.346 110.562C63.4189 109.959 63.4917 109.357 63.5643 108.755C63.7204 107.463 63.8776 106.172 64.0359 104.88C64.2648 103.012 64.4915 101.143 64.7177 99.2749C65.085 96.2412 65.4539 93.2077 65.8238 90.1744C66.1827 87.2319 66.5411 84.2894 66.8986 81.3468C66.9207 81.1652 66.9428 80.9837 66.9655 80.7966C67.2063 78.8148 67.447 76.8329 67.6875 74.851C67.7192 74.5898 67.7192 74.5898 67.7515 74.3234C67.8359 73.6275 67.9203 72.9317 68.0048 72.2358C68.2518 70.1993 68.4994 68.1629 68.7478 66.1265C68.9218 64.7005 69.0953 63.2744 69.2686 61.8482C69.3399 61.2626 69.4114 60.6771 69.483 60.0915C69.5806 59.2944 69.6775 58.4971 69.7742 57.6999C69.8029 57.4665 69.8316 57.2331 69.8613 56.9926C69.8999 56.6727 69.8999 56.6727 69.9392 56.3463C69.9617 56.1623 69.9841 55.9783 70.0072 55.7887C70.0525 55.3037 70.0546 54.8152 70.0546 54.3281C69.7565 53.9742 69.7565 53.9742 69.3295 53.6933C69.1735 53.5797 69.0175 53.4661 68.8567 53.349C68.6868 53.2298 68.517 53.1106 68.3419 52.9878C67.9881 52.7314 67.6344 52.4748 67.2808 52.218C67.1041 52.0911 66.9273 51.9641 66.7452 51.8333C66.055 51.3332 65.3817 50.8145 64.7082 50.2922C64.4554 50.097 64.2025 49.9018 63.9496 49.7068C63.82 49.6068 63.6904 49.5067 63.5569 49.4037C61.0529 47.4747 58.5367 45.5615 56.0214 43.6474C54.9242 42.8123 53.8282 41.9757 52.7345 41.1361C52.5125 40.966 52.2905 40.7959 52.0618 40.6207C51.6405 40.2979 51.2196 39.9746 50.7992 39.6507C49.5458 38.6915 48.266 37.7917 46.9413 36.9336C46.8728 37.0729 46.8042 37.2123 46.7336 37.3559C46.5702 37.6883 46.4067 38.0207 46.2432 38.353C45.5572 40.3034 45.4254 42.3127 45.4372 44.365C45.4382 44.6093 45.4392 44.8536 45.4402 45.1053C45.4942 48.8794 45.8643 52.6775 47.1796 56.2344C47.337 56.6819 47.4943 57.1295 47.6479 57.5784C47.7945 58.0055 47.9457 58.431 48.0973 58.8564C48.769 61.006 48.8875 63.1315 48.8103 65.3645C48.7619 68.621 49.2246 71.7536 49.7503 74.9583C50.0229 76.621 50.2793 78.2862 50.5371 79.9513C50.6007 80.3621 50.6645 80.7729 50.7285 81.1837C51.6339 87.0015 52.457 92.8313 53.278 98.6616C53.4512 99.8913 53.6255 101.121 53.801 102.35C54.0101 103.815 54.2172 105.281 54.4229 106.747C54.4995 107.291 54.5769 107.836 54.6549 108.38C55.748 116.019 55.748 116.019 54.5663 117.949C53.4144 119.392 52.1845 120.264 50.3368 120.541C48.5551 120.664 47.0699 120.23 45.6605 119.126C43.931 117.415 43.6357 115.026 43.2761 112.713C43.2272 112.413 43.1782 112.113 43.1278 111.804C42.9949 110.988 42.8654 110.172 42.7366 109.355C42.6008 108.497 42.4619 107.64 42.3235 106.783C42.0917 105.345 41.8621 103.907 41.6339 102.469C41.3703 100.808 41.1041 99.148 40.8363 97.4881C40.5504 95.7156 40.2661 93.9429 39.9825 92.1701C39.901 91.6611 39.8192 91.1521 39.7373 90.6432C39.5848 89.6944 39.4343 88.7453 39.284 87.7962C39.216 87.375 39.216 87.375 39.1467 86.9453C39.106 86.6862 39.0653 86.427 39.0233 86.16C38.9876 85.936 38.952 85.712 38.9152 85.4812C38.8398 84.8281 38.8398 84.8281 38.8398 83.3984C36.4808 83.3984 34.1218 83.3984 31.6913 83.3984C31.5705 84.1935 31.5705 84.1935 31.4472 85.0046C30.5185 91.0965 29.5519 97.182 28.5642 103.265C28.3928 104.32 28.2226 105.377 28.0534 106.433C27.8449 107.734 27.6345 109.035 27.4227 110.335C27.3435 110.824 27.2649 111.312 27.1871 111.801C27.0791 112.478 26.9686 113.154 26.8576 113.83C26.8267 114.027 26.7959 114.224 26.7641 114.427C26.4027 116.592 25.8047 118.205 24.0663 119.617C22.7224 120.513 21.2205 120.708 19.6376 120.483C18.1119 120.103 16.9612 119.411 15.9648 118.187C14.5329 115.74 15.0307 113.209 15.4188 110.529C15.484 110.067 15.484 110.067 15.5504 109.596C15.6693 108.752 15.7901 107.909 15.9112 107.066C16.0398 106.17 16.1667 105.272 16.2939 104.375C16.5093 102.858 16.7258 101.341 16.943 99.8245C17.189 98.1069 17.4335 96.3891 17.6772 94.6711C17.9667 92.6295 18.2572 90.588 18.5486 88.5466C18.5876 88.2732 18.5876 88.2732 18.6274 87.9942C19.1818 84.1121 19.7437 80.2317 20.3506 76.3574C20.3954 76.071 20.4401 75.7847 20.4862 75.4897C20.6915 74.1798 20.8994 72.8703 21.1121 71.5616C22.1533 66.0256 22.1533 66.0256 21.6835 60.5234C21.1337 59.7653 20.4953 59.2105 19.7773 58.6172C19.5133 58.3296 19.2541 58.0373 19.0028 57.7385C18.2569 56.8717 17.4867 56.0304 16.7094 55.1919C15.4966 53.8814 14.2861 52.5701 13.1054 51.2305C13.0026 51.1152 12.8999 51 12.794 50.8813C10.811 48.6465 9.83424 47.1669 9.9286 44.1193C10.1851 41.6807 11.9273 39.7931 13.3437 37.8867C13.6066 37.53 13.8694 37.1732 14.132 36.8163C14.5519 36.2458 14.9722 35.6755 15.3938 35.1062C16.1062 34.1433 16.8125 33.177 17.5061 32.2005C21.358 26.779 21.358 26.779 23.5898 25.7344C23.4316 25.6594 23.2734 25.5845 23.1104 25.5073C20.8102 24.3924 19.4514 23.2966 18.5114 20.8794C18.1194 18.8128 18.2598 17.1079 19.3007 15.25C19.9998 14.2999 20.7003 13.5227 21.6835 12.8672C21.84 12.2999 21.84 12.2999 21.9069 11.646C22.2479 9.55623 22.9147 8.37403 24.5661 7.03953C25.36 6.39569 25.8132 5.85408 26.2555 4.92944C27.1114 3.35349 28.4894 2.34072 30.1881 1.7778C31.3963 1.53657 32.6116 1.61331 33.8358 1.66797ZM79.8241 7.38672C79.412 9.43384 79.1454 11.4896 78.9044 13.5622C78.841 14.105 78.7756 14.6475 78.71 15.19C78.6686 15.541 78.6273 15.8921 78.5862 16.2431C78.5571 16.4819 78.5571 16.4819 78.5275 16.7254C78.4013 17.8309 78.3785 18.9052 78.3944 20.0156C78.6102 20.0119 78.8259 20.0081 79.0482 20.0043C84.8248 19.9173 89.6268 20.2666 95.1053 22.2567C95.5485 22.4225 95.5485 22.4225 96.0272 22.3984C96.2324 20.8682 96.4358 19.3377 96.6381 17.807C96.707 17.2868 96.7764 16.7665 96.8461 16.2463C96.9465 15.4971 97.0455 14.7476 97.1442 13.9981C97.1911 13.6514 97.1911 13.6514 97.239 13.2976C97.394 12.1098 97.4917 10.9674 97.4569 9.76953C92.0732 6.80299 85.7912 6.29648 79.8241 7.38672ZM106.397 18.7051C105.217 18.8727 104.053 18.8396 102.863 18.8242C102.387 18.8182 101.912 18.8131 101.436 18.8093C101.227 18.8066 101.018 18.8038 100.802 18.8009C100.317 18.7696 100.317 18.7696 100.078 19.0625C99.9983 19.5816 99.932 20.1027 99.8714 20.6244C99.8321 20.9461 99.7927 21.2679 99.7532 21.5896C99.6917 22.0982 99.6312 22.6069 99.573 23.116C99.5163 23.6063 99.4559 24.096 99.3948 24.5858C99.3602 24.88 99.3255 25.1742 99.2898 25.4774C99.1219 26.2242 99.0196 26.4856 98.4101 26.9258C97.8013 27.1793 97.4047 27.224 96.7734 27.0207C96.2634 26.8049 95.7656 26.5725 95.2677 26.3301C94.6512 26.0347 94.0378 25.7597 93.4062 25.4961C93.2489 25.5747 93.0916 25.6534 92.9296 25.7344C92.8182 26.1717 92.8182 26.1717 92.7788 26.6959C92.7588 26.8886 92.7389 27.0814 92.7183 27.2799C92.6996 27.4825 92.6808 27.6851 92.6615 27.8938C92.6409 28.0973 92.6204 28.3008 92.5992 28.5104C92.5485 29.0146 92.5005 29.519 92.453 30.0234C96.6364 32.344 100.81 33.0749 105.491 31.8478C105.671 31.7962 105.85 31.7446 106.035 31.6914C106.509 29.557 106.782 27.4041 107.057 25.237C107.137 24.6006 107.22 23.9644 107.303 23.3283C107.355 22.9203 107.407 22.5123 107.459 22.1043C107.484 21.9159 107.508 21.7275 107.534 21.5333C107.658 20.5434 107.729 19.5861 107.703 18.5859C107.004 18.5624 107.004 18.5624 106.397 18.7051ZM22.8749 83.6367C22.7995 84.0265 22.7378 84.419 22.6818 84.812C22.6267 85.1939 22.6267 85.1939 22.5704 85.5834C22.5308 85.8651 22.4912 86.1468 22.4504 86.4371C22.4081 86.7319 22.3659 87.0268 22.3223 87.3306C22.2063 88.1419 22.0913 88.9533 21.9768 89.7648C21.9052 90.2719 21.8334 90.7789 21.7614 91.2859C21.5103 93.0552 21.2604 94.8245 21.0114 96.5941C20.7794 98.2425 20.5449 99.8906 20.3093 101.539C20.1071 102.953 19.9067 104.369 19.7076 105.784C19.5887 106.629 19.4691 107.474 19.3477 108.319C19.2121 109.263 19.0803 110.207 18.9487 111.151C18.8879 111.57 18.8879 111.57 18.8257 111.996C18.448 114.288 18.448 114.288 19.2411 116.371C19.8643 116.821 20.1986 116.978 20.9687 116.996C21.9066 116.628 22.3107 116.413 22.8749 115.566C23.0142 114.914 23.1315 114.271 23.2344 113.613C23.2671 113.413 23.2997 113.213 23.3333 113.007C23.4416 112.342 23.5473 111.677 23.653 111.011C23.7289 110.542 23.805 110.072 23.8811 109.603C24.0827 108.359 24.2821 107.114 24.4812 105.869C24.6783 104.638 24.8773 103.408 25.0762 102.177C25.3101 100.73 25.5436 99.2822 25.7755 97.8345C26.1401 95.5592 26.5072 93.2845 26.8833 91.0111C26.9836 90.4025 27.0839 89.7939 27.1841 89.1852C27.2468 88.8058 27.31 88.4265 27.3736 88.0472C27.4604 87.5293 27.5458 87.0113 27.631 86.4932C27.6791 86.2043 27.7273 85.9154 27.7769 85.6178C27.8738 84.8673 27.898 84.154 27.8788 83.3984C27.0895 83.3915 26.3002 83.3873 25.5109 83.3835C25.1729 83.3805 25.1729 83.3805 24.8282 83.3775C24.6139 83.3767 24.3997 83.376 24.1789 83.3752C23.9805 83.3739 23.7821 83.3727 23.5777 83.3714C23.112 83.3469 23.112 83.3469 22.8749 83.6367ZM42.414 83.3984C43.0047 88.4361 43.8427 93.4396 44.6388 98.4481C44.9283 100.27 45.2147 102.092 45.497 103.914C45.7212 105.36 45.9506 106.805 46.1817 108.25C46.2788 108.862 46.3742 109.474 46.468 110.086C46.5992 110.94 46.7362 111.793 46.8746 112.645C46.9119 112.897 46.9492 113.149 46.9876 113.408C47.2325 114.87 47.5194 115.732 48.6093 116.758C49.4317 117.116 49.7195 117.028 50.5602 116.698C51.279 116.315 51.279 116.315 51.7069 115.566C51.8103 113.961 51.5674 112.407 51.3389 110.82C51.2997 110.541 51.2606 110.261 51.2203 109.974C51.1134 109.213 51.0054 108.452 50.8968 107.692C50.7831 106.894 50.6709 106.095 50.5585 105.296C50.3696 103.956 50.1798 102.616 49.9893 101.277C49.7211 99.3896 49.4546 97.5025 49.1884 95.6154C48.9811 94.1461 48.7734 92.6769 48.5655 91.2077C48.5433 91.0508 48.5212 90.894 48.4983 90.7323C48.3509 89.6905 48.2031 88.6487 48.0551 87.6069C48.018 87.3454 47.981 87.0839 47.9429 86.8146C47.9085 86.5727 47.874 86.3309 47.8386 86.0818C47.7941 85.7686 47.7941 85.7686 47.7487 85.449C47.6466 84.7642 47.5317 84.0814 47.4179 83.3984C45.7666 83.3984 44.1153 83.3984 42.414 83.3984Z" fill="#6A18A4"/>
<path d="M35.9806 27.8789C36.6179 28.3106 36.6858 28.5646 36.9338 29.3086C37.0342 31.1507 37.0342 31.1507 36.4572 31.9297C35.8148 32.4293 35.4819 32.4051 34.6552 32.3616C33.6057 32.1135 33.6057 32.1135 33.1213 31.4531C32.9285 30.316 32.9112 29.2084 33.4787 28.1917C34.3785 27.7192 34.9675 27.7663 35.9806 27.8789Z" fill="#6A18A4"/>
</svg>
